<svg height="456pt" viewBox="0 0 456.07615 456" width="456pt" xmlns="http://www.w3.org/2000/svg"><path d="m304 159.390625v-96.800781c.003906-24.253906 13.003906-46.652344 34.0625-58.6875l2.066406-1.183594c5.054688-2.882812 11.101563-3.472656 16.621094-1.617188 5.515625 1.855469 9.980469 5.976563 12.265625 11.328126 9.304687 21.707031 6.605469 46.695312-7.121094 65.914062zm0 0" fill="#389a6b"/><path d="m296 199.390625 78.398438-56.734375c19.652343-14.222656 45.417968-16.824219 67.511718-6.816406l2.167969.984375c5.304687 2.398437 9.332031 6.945312 11.066406 12.5 1.738281 5.554687 1.023438 11.585937-1.96875 16.578125-12.136719 20.269531-33.976562 32.734375-57.601562 32.875zm0 0" fill="#389a6b"/><path d="m288.464844 394.839844 45.664062-85.320313c11.445313-21.382812 33.472656-34.996093 57.71875-35.664062l2.398438-.070313c5.820312-.164062 11.425781 2.167969 15.417968 6.398438 3.992188 4.234375 5.988282 9.972656 5.488282 15.769531-2.039063 23.527344-16.21875 44.289063-37.390625 54.75zm0 0" fill="#389a6b"/><path d="m288 397.0625 95.886719-13.054688c24.039062-3.269531 47.984375 6.589844 62.753906 25.832032l1.449219 1.894531c3.539062 4.617187 4.945312 10.527344 3.855468 16.242187-1.085937 5.714844-4.5625 10.695313-9.554687 13.6875-20.253906 12.144532-45.375 12.839844-66.269531 1.832032zm0 0" fill="#389a6b"/><path d="m296 199.390625-71.199219-65.519531c-17.855469-16.421875-25.539062-41.152344-20.136719-64.800782l.527344-2.320312c1.296875-5.671875 4.953125-10.519531 10.050782-13.328125 5.097656-2.808594 11.148437-3.308594 16.636718-1.375 22.273438 7.851563 38.835938 26.753906 43.6875 49.863281zm0 0" fill="#389a6b"/><path d="m80 167.390625c-13.253906 0-24-10.746094-24-24s10.746094-24 24-24 24 10.746094 24 24-10.746094 24-24 24zm0 0" fill="#d95354"/><path d="m24 183.390625c-13.253906 0-24-10.746094-24-24s10.746094-24 24-24 24 10.746094 24 24-10.746094 24-24 24zm0 0" fill="#d95354"/><path d="m216 191.390625c-13.253906 0-24-10.746094-24-24s10.746094-24 24-24 24 10.746094 24 24-10.746094 24-24 24zm0 0" fill="#d95354"/><path d="m256 239.390625c-13.253906 0-24-10.746094-24-24s10.746094-24 24-24 24 10.746094 24 24-10.746094 24-24 24zm0 0" fill="#d95354"/><path d="m200 343.390625c-13.253906 0-24-10.746094-24-24s10.746094-24 24-24 24 10.746094 24 24-10.746094 24-24 24zm0 0" fill="#d95354"/><path d="m144 319.390625c-13.253906 0-24-10.746094-24-24s10.746094-24 24-24 24 10.746094 24 24-10.746094 24-24 24zm0 0" fill="#d95354"/><path d="m104 271.390625c-13.253906 0-24-10.746094-24-24s10.746094-24 24-24 24 10.746094 24 24-10.746094 24-24 24zm0 0" fill="#d95354"/><path d="m152.078125 167.390625c-7.125.015625-13.886719-3.140625-18.457031-8.609375-4.570313-5.464844-6.476563-12.683594-5.195313-19.695312 2.273438-12.480469 13.875-21.035157 26.472657-19.523438 12.597656 1.515625 21.839843 12.574219 21.09375 25.242188-.746094 12.664062-11.222657 22.5625-23.914063 22.585937zm0 0" fill="#d95354"/><path d="m48 231.390625c-13.253906 0-24-10.746094-24-24s10.746094-24 24-24 24 10.746094 24 24-10.746094 24-24 24zm0 0" fill="#d95354"/><g fill="#77c974"><path d="m111.160156 234.96875-14.28125-7.152344c6.214844-12.542968 19.019532-20.464844 33.015625-20.425781h9.210938c-7.304688-15.882813-8.265625-33.957031-2.691407-50.527344l15.203126 5.054688c-4.496094 13.351562-3.457032 27.941406 2.878906 40.523437l4.6875 9.375c1.242187 2.484375 1.105468 5.433594-.359375 7.792969-1.464844 2.359375-4.046875 3.792969-6.824219 3.78125h-22.105469c-7.941406-.035156-15.210937 4.457031-18.734375 11.578125zm0 0"/><path d="m150.65625 283.832031-13.3125-8.878906c11.472656-17.246094 30.824219-27.59375 51.535156-27.5625h8l-4.160156-12.464844c-6.105469-18.109375-3.445312-38.027343 7.203125-53.902343l1.375-2.070313 13.3125 8.878906-1.378906 2.0625c-7.90625 11.777344-9.882813 26.5625-5.351563 40l7.664063 22.992188c.800781 2.429687.394531 5.09375-1.097657 7.171875-1.492187 2.078125-3.886718 3.316406-6.445312 3.332031h-19.121094c-15.363281-.027344-29.714844 7.648437-38.222656 20.441406zm0 0"/><path d="m207.160156 306.96875-14.28125-7.152344c5.917969-11.941406 17.839844-19.742187 31.152344-20.375v-20.050781c-.023438-9.804687 3.871094-19.210937 10.824219-26.128906l7.519531-7.519531 11.304688 11.304687-7.519532 7.519531c-3.921875 3.941406-6.136718 9.265625-6.160156 14.824219v28c0 4.417969-3.582031 8-8 8h-6.105469c-7.941406-.035156-15.210937 4.457031-18.734375 11.578125zm0 0"/><path d="m68.441406 206.046875-8.875-13.3125 18.914063-12.605469-6.066407-18.210937 15.203126-5.054688 8 24c1.136718 3.421875-.152344 7.183594-3.152344 9.183594zm0 0"/><path d="m296 455.390625h-16c.03125-35.976563-6.832031-71.628906-20.222656-105.023437l-10.984375-27.457032c-35.226563-60.058594-90.628907-105.660156-156.335938-128.6875l-55.097656-19.277344 5.289063-15.105468 55.09375 19.289062c69.5 24.351563 128.054687 72.65625 165.167968 136.261719.199219.339844.371094.691406.515625 1.058594l11.199219 28c14.144531 35.273437 21.398438 72.933593 21.375 110.941406zm0 0"/><path d="m280.007812 455.640625-3.550781-114.5625c-2.992187-62.554687 4.246094-125.175781 21.429688-185.398437l4.050781-24.214844 15.78125 2.640625-4.125 24.652343c-.050781.296876-.117188.59375-.203125.882813-16.796875 58.71875-23.871094 119.792969-20.949219 180.800781l3.558594 114.6875zm0 0"/><path d="m313.632812 158.511719-15.863281-2.136719 5.878907-43.527344c5.75-34.5625 20.242187-67.078125 42.105468-94.457031l12.492188 10c-20.113282 25.171875-33.460938 55.0625-38.773438 86.839844zm0 0"/><path d="m299.574219 206.589844-7.148438-14.316406 29.910157-14.953126c34.0625-16.996093 71.597656-25.871093 109.664062-25.929687v16c-35.578125.042969-70.664062 8.324219-102.503906 24.199219zm0 0"/><path d="m288.734375 202.726562-24.535156-53.472656c-9.855469-27.113281-25.503907-51.757812-45.855469-72.207031l11.335938-11.3125c21.871093 21.933594 38.703124 48.363281 49.328124 77.457031l24.273438 52.863282zm0 0"/><path d="m294.753906 403.6875-13.507812-8.59375 28.800781-45.308594c18.589844-29.136718 46.609375-51.015625 79.386719-61.984375l5.0625 15.199219c-29.292969 9.796875-54.339844 29.347656-70.953125 55.390625zm0 0"/><path d="m420.425781 430.589844c-30.46875-15.203125-64.039062-23.144532-98.089843-23.199219h-34.335938v-16h34.335938c36.523437.03125 72.542968 8.519531 105.238281 24.800781zm0 0"/></g></svg>