<?xml version="1.0" encoding="iso-8859-1"?>
<!-- Generator: Adobe Illustrator 21.0.0, SVG Export Plug-In . SVG Version: 6.00 Build 0)  -->
<svg version="1.1" id="Capa_1" xmlns="http://www.w3.org/2000/svg" xmlns:xlink="http://www.w3.org/1999/xlink" x="0px" y="0px"
	 viewBox="0 0 512 512" style="enable-background:new 0 0 512 512;" xml:space="preserve">
<g>
	<path style="fill:#F3F3C2;" d="M416.784,167.671C467.206,191.987,502,243.583,502,303.311c0,83.127-67.388,150.514-150.514,150.514
		c-83.127,0-150.514-67.388-150.514-150.514c0-60.967,36.253-113.46,88.375-137.116c10.427-4.439,19.97-15.696,18.027-34.405
		c-2.744-26.425-29.14-46.701-29.14-46.701c28.516-15.237,56.234,15.858,56.234,15.858c2.841-9.615,1.087-28.021-8.777-42.771
		c49.122,10.29,49.538,42.743,49.538,42.743c21.647-41.159,58.697-12.665,58.697-12.665c-28.308,9.499-38.714,47.492-38.714,47.492
		C395.05,152.527,391.554,155.505,416.784,167.671z"/>
	<g>
		<path style="fill:#FD4848;" d="M327.741,187.965c-6.069,6.217-13.441,11.38-22.032,15.121
			c-39.168,17.925-64.382,57-64.382,100.225c0,60.852,49.308,110.159,110.159,110.159c60.852,0,110.159-49.307,110.159-110.159
			c0-42.383-24.226-80.888-62.389-99.291c10.581,50.882-26.561,58.11-37.457,87.951C355.075,286.311,386.485,208.11,327.741,187.965
			z"/>
		<path style="fill:#FD4848;" d="M256.001,186.973c-9.213-7.569-19.338-14.069-30.189-19.302
			c-25.23-12.166-21.734-15.144-21.573-31.924c0,0,10.407-37.993,38.714-47.492c0,0-37.05-28.495-58.696,12.665
			c0,0-0.416-32.452-49.538-42.743c9.865,14.75,11.618,33.156,8.778,42.771c0,0-27.718-31.096-56.234-15.858
			c0,0,26.396,20.276,29.14,46.701c1.943,18.708-7.601,29.966-18.028,34.405C46.253,189.852,10,242.344,10,303.311
			c0,83.127,67.387,150.514,150.514,150.514c36.25,0,69.505-12.818,95.484-34.162c-33.596-27.605-55.026-69.476-55.026-116.352
			C200.972,256.436,222.405,214.574,256.001,186.973z"/>
	</g>
</g>
<path d="M486.719,216.815c-16.096-25.112-38.776-45.221-65.592-58.152c-3.312-1.597-13.388-6.456-15.594-9.537
	c-0.648-0.906-0.643-2.929-0.471-7.674c0.045-1.255,0.095-2.637,0.125-4.146c1.86-5.802,11.492-32.716,31.919-39.57
	c3.502-1.175,6.071-4.186,6.681-7.829c0.61-3.644-0.838-7.327-3.766-9.579c-0.825-0.634-20.463-15.487-42.181-10.735
	c-7.218,1.58-13.677,5.022-19.327,10.285c-7.022-11.786-21.387-25.332-50.774-31.489c-3.977-0.831-8.063,0.824-10.338,4.191
	c-2.273,3.368-2.283,7.778-0.024,11.156c3.467,5.183,5.677,10.868,6.94,16.208c-12.857-7.852-31.357-14.062-50.797-3.675
	c-2.996,1.601-4.975,4.614-5.254,7.999c-0.278,3.386,1.181,6.681,3.875,8.751c0.229,0.176,23.048,18.259,25.285,39.804
	c1.711,16.477-7.82,22.392-11.998,24.17c-0.072,0.031-0.145,0.063-0.216,0.095c-10.45,4.743-20.215,10.543-29.213,17.221
	c-8.117-6.017-16.775-11.272-25.844-15.646h-0.001c-3.311-1.597-13.387-6.456-15.593-9.537c-0.649-0.906-0.643-2.929-0.472-7.674
	c0.045-1.255,0.096-2.637,0.126-4.146c1.86-5.802,11.491-32.716,31.917-39.57c3.502-1.175,6.071-4.186,6.682-7.829
	c0.61-3.644-0.838-7.327-3.767-9.579c-0.826-0.635-20.459-15.492-42.181-10.735c-7.217,1.58-13.676,5.022-19.327,10.284
	c-7.023-11.784-21.39-25.333-50.773-31.488c-3.978-0.834-8.064,0.823-10.338,4.191s-2.284,7.777-0.025,11.155
	c3.466,5.183,5.677,10.868,6.94,16.209c-12.858-7.853-31.361-14.062-50.797-3.675c-2.996,1.601-4.975,4.614-5.253,7.999
	c-0.279,3.386,1.181,6.681,3.874,8.751c0.23,0.177,23.048,18.259,25.285,39.804c1.711,16.477-7.82,22.392-11.998,24.17
	c-0.072,0.031-0.145,0.063-0.216,0.095C36.992,183.073,0,240.469,0,303.311c0,88.508,72.006,160.514,160.514,160.514
	c34.402,0,68.02-11.151,95.538-31.534c26.694,19.803,59.719,31.534,95.435,31.534c43.211,0,83.744-16.922,114.134-47.65
	c3.884-3.927,3.849-10.258-0.078-14.142c-3.926-3.883-10.257-3.848-14.143,0.079c-26.603,26.899-62.086,41.713-99.913,41.713
	c-67.655,0-124.292-48.064-137.569-111.839c-0.038-0.185-0.079-0.369-0.117-0.554c-0.173-0.849-0.333-1.702-0.491-2.556
	c-0.073-0.397-0.147-0.793-0.217-1.19c-0.128-0.731-0.248-1.465-0.365-2.199c-0.083-0.525-0.165-1.05-0.242-1.577
	c-0.096-0.653-0.188-1.308-0.275-1.964c-0.081-0.613-0.157-1.227-0.231-1.842c-0.071-0.595-0.141-1.191-0.205-1.789
	c-0.073-0.682-0.137-1.367-0.199-2.051c-0.05-0.548-0.103-1.096-0.147-1.646c-0.06-0.746-0.108-1.495-0.156-2.243
	c-0.032-0.499-0.068-0.997-0.095-1.497c-0.045-0.844-0.076-1.691-0.106-2.538c-0.015-0.412-0.036-0.822-0.047-1.235
	c-0.034-1.262-0.053-2.527-0.053-3.794c0-1.575,0.034-3.145,0.086-4.711c0.013-0.39,0.033-0.779,0.049-1.169
	c0.054-1.293,0.123-2.585,0.213-3.871c0.019-0.271,0.036-0.543,0.056-0.814c3.845-50.771,35.169-96.098,82.005-117.401
	c13.245-5.692,26.454-20.373,23.938-44.587c-1.67-16.094-10.502-29.926-18.614-39.51c15.322,2.202,28.142,16.182,28.297,16.354
	c2.416,2.71,6.113,3.899,9.65,3.104c3.542-0.793,6.376-3.444,7.404-6.925c2.191-7.416,2.271-18.066-0.442-29.088
	c20.059,10.161,21.518,24.938,21.614,26.427c-0.06,4.604,3.037,8.498,7.505,9.648c4.483,1.156,9.186-1.089,11.346-5.194
	c4.907-9.331,10.946-14.856,17.948-16.423c3.548-0.795,7.144-0.585,10.477,0.126c-19.214,16.406-26.559,42.44-26.939,43.827
	c-0.228,0.83-0.347,1.686-0.355,2.547c-0.017,1.823-0.077,3.477-0.135,5.077c-0.637,17.599,2.697,24.056,27.364,35.95
	C460.77,199.985,492,249.691,492,303.311c0,15.424-2.48,30.58-7.372,45.045c-0.765,2.259-1.595,4.522-2.47,6.725
	c-2.037,5.133,0.473,10.946,5.607,12.984c5.132,2.037,10.946-0.473,12.983-5.606c1.001-2.522,1.951-5.111,2.825-7.695
	c5.592-16.534,8.427-33.845,8.427-51.453C512,272.528,503.257,242.618,486.719,216.815z M160.514,443.825
	C83.034,443.825,20,380.791,20,303.311c0-54.977,32.347-105.196,82.411-127.966c13.244-5.692,26.453-20.372,23.938-44.587
	c-1.671-16.094-10.503-29.926-18.615-39.51c15.322,2.201,28.142,16.182,28.297,16.354c2.415,2.71,6.107,3.899,9.651,3.104
	c3.542-0.793,6.375-3.444,7.404-6.925c2.191-7.415,2.271-18.066-0.443-29.088c20.059,10.161,21.518,24.938,21.614,26.427
	c-0.06,4.604,3.038,8.498,7.505,9.648c4.492,1.157,9.188-1.09,11.346-5.194c4.907-9.331,10.946-14.856,17.948-16.423
	c3.549-0.794,7.144-0.585,10.478,0.126c-19.214,16.406-26.559,42.44-26.939,43.828c-0.227,0.829-0.346,1.686-0.355,2.546
	c-0.018,1.823-0.077,3.477-0.135,5.077c-0.637,17.599,2.697,24.056,27.365,35.95h-0.001c6.518,3.144,12.8,6.801,18.775,10.927
	c-29.9,28.71-47.462,67.631-49.129,109.191c-0.016,0.399-0.032,0.799-0.046,1.199c-0.058,1.768-0.098,3.539-0.098,5.316
	c0,1.378,0.018,2.753,0.052,4.126c0.013,0.503,0.04,1.002,0.057,1.503c0.03,0.869,0.055,1.739,0.099,2.606
	c0.021,0.419,0.055,0.835,0.079,1.254c0.056,0.947,0.109,1.895,0.181,2.839c0.007,0.094,0.018,0.187,0.025,0.281
	c3.061,39.26,20.342,75.798,48.772,103.102C216.912,435.087,189.02,443.825,160.514,443.825z"/>
<path d="M484.334,375.003c-4.648-2.982-10.834-1.631-13.816,3.018c-0.016,0.023-0.08,0.125-0.095,0.149
	c-2.936,4.664-1.535,10.807,3.12,13.757c1.656,1.049,3.503,1.55,5.331,1.549c3.311,0,6.555-1.642,8.464-4.636l-8.403-5.42
	l8.417,5.399C490.334,384.171,488.982,377.985,484.334,375.003z"/>
<path d="M357.824,195.754c-0.36-0.405-0.741-0.791-1.113-1.185c-0.512-0.542-1.02-1.089-1.554-1.611
	c-0.394-0.385-0.81-0.75-1.216-1.124c-0.544-0.501-1.081-1.007-1.646-1.488c-0.435-0.37-0.894-0.719-1.342-1.077
	c-0.568-0.455-1.129-0.917-1.718-1.353c-0.484-0.358-0.993-0.692-1.49-1.038c-0.586-0.406-1.161-0.822-1.766-1.21
	c-0.546-0.351-1.12-0.676-1.681-1.012c-0.589-0.352-1.165-0.716-1.77-1.053c-0.632-0.351-1.294-0.674-1.945-1.008
	c-0.569-0.291-1.122-0.597-1.705-0.875c-0.779-0.372-1.592-0.713-2.396-1.061c-0.486-0.21-0.955-0.437-1.45-0.639
	c-1.317-0.536-2.665-1.042-4.046-1.516c-3.654-1.251-7.701-0.29-10.399,2.474c-5.321,5.45-11.67,9.803-18.869,12.939
	c-0.057,0.024-0.113,0.05-0.169,0.075c-0.007,0.003-0.013,0.006-0.019,0.009c-1.259,0.576-2.522,1.184-3.781,1.815
	c-0.548,0.275-1.085,0.567-1.629,0.849c-0.653,0.34-1.31,0.669-1.957,1.021c-0.041,0.023-0.079,0.049-0.12,0.072
	c-0.43,0.235-0.853,0.479-1.279,0.719c-0.107,0.056-0.217,0.104-0.323,0.164c-0.491,0.277-0.969,0.572-1.455,0.856
	c-0.488,0.285-0.978,0.568-1.462,0.859c-0.88,0.53-1.747,1.075-2.612,1.626c-0.286,0.183-0.575,0.361-0.859,0.546
	c-1.112,0.722-2.21,1.464-3.296,2.221c-0.022,0.016-0.045,0.031-0.067,0.046c-15.34,10.712-27.993,24.853-36.942,41.429
	c-0.197,0.365-0.361,0.741-0.509,1.119c-0.77,1.461-1.512,2.937-2.222,4.429c-0.219,0.35-0.421,0.714-0.596,1.093
	c-6.126,13.243-9.729,27.222-10.769,41.661c-0.003,0.045-0.006,0.09-0.009,0.135c-0.089,1.255-0.158,2.515-0.208,3.777
	c-0.011,0.275-0.024,0.549-0.033,0.824c-0.044,1.346-0.074,2.694-0.074,4.048c0,1.13,0.019,2.256,0.05,3.379
	c0.005,0.193,0.016,0.387,0.022,0.581c0.031,0.964,0.073,1.925,0.127,2.883c0.01,0.174,0.023,0.347,0.033,0.521
	c0.06,0.992,0.132,1.98,0.217,2.965c0.013,0.156,0.028,0.311,0.041,0.467c0.089,0.992,0.19,1.981,0.303,2.967
	c0.011,0.098,0.019,0.196,0.03,0.293c0.003,0.021,0.008,0.041,0.011,0.061c0.452,3.842,1.085,7.628,1.892,11.351
	c0.011,0.054,0.012,0.108,0.024,0.161c0.057,0.264,0.125,0.526,0.184,0.789c0.117,0.518,0.238,1.034,0.361,1.549
	c0.133,0.555,0.266,1.11,0.407,1.664c0.119,0.467,0.244,0.931,0.369,1.396c0.154,0.575,0.305,1.15,0.467,1.723
	c0.127,0.447,0.263,0.889,0.395,1.333c0.31,1.045,0.634,2.086,0.972,3.122c0.155,0.476,0.307,0.954,0.468,1.427
	c0.186,0.547,0.383,1.091,0.577,1.635c0.164,0.459,0.326,0.918,0.496,1.375c0.208,0.561,0.423,1.12,0.639,1.679
	c0.162,0.417,0.325,0.833,0.491,1.249c0.24,0.6,0.484,1.197,0.734,1.793c0.134,0.32,0.272,0.638,0.409,0.957
	c0.296,0.689,0.594,1.376,0.902,2.059c0.018,0.04,0.037,0.078,0.055,0.118c4.193,9.26,9.55,18.005,15.941,25.923
	c0.223,0.276,0.462,0.536,0.71,0.784c1.644,1.999,3.354,3.939,5.121,5.827c0.231,0.306,0.472,0.605,0.74,0.886
	c11.979,12.561,26.807,22.551,42.882,28.893c0.245,0.097,0.495,0.177,0.745,0.254c0.086,0.033,0.172,0.065,0.257,0.098
	c0.173,0.077,0.342,0.161,0.52,0.228c7.879,2.985,16,5.112,24.284,6.378c0.012,0.002,0.024,0.003,0.036,0.005
	c0.929,0.142,1.86,0.272,2.793,0.392c0.152,0.02,0.305,0.038,0.457,0.057c0.796,0.099,1.593,0.191,2.392,0.274
	c0.233,0.024,0.466,0.048,0.7,0.071c0.722,0.071,1.445,0.135,2.17,0.193c0.284,0.023,0.568,0.046,0.853,0.067
	c0.686,0.05,1.374,0.093,2.062,0.131c0.306,0.017,0.612,0.036,0.919,0.052c0.702,0.034,1.404,0.059,2.108,0.081
	c0.284,0.009,0.567,0.022,0.851,0.028c0.98,0.023,1.961,0.037,2.944,0.037c1.126,0,2.249-0.019,3.368-0.05
	c0.311-0.009,0.622-0.024,0.933-0.035c0.822-0.029,1.643-0.063,2.46-0.109c0.344-0.019,0.687-0.043,1.03-0.065
	c0.799-0.051,1.596-0.109,2.391-0.176c0.334-0.028,0.667-0.058,1-0.089c0.819-0.076,1.636-0.161,2.451-0.253
	c0.305-0.034,0.609-0.068,0.913-0.105c0.881-0.107,1.759-0.225,2.634-0.351c0.237-0.034,0.474-0.064,0.711-0.1
	c2.19-0.328,4.361-0.715,6.512-1.16c0.504-0.104,1.004-0.218,1.507-0.329c0.525-0.116,1.05-0.23,1.572-0.353
	c0.228-0.053,0.458-0.099,0.686-0.154c0.003-0.001,0.006-0.001,0.01-0.002c0.259-0.062,0.514-0.139,0.773-0.203
	c1.155-0.287,2.306-0.587,3.448-0.907c0.555-0.155,1.106-0.319,1.658-0.482c0.942-0.279,1.879-0.569,2.811-0.87
	c0.518-0.167,1.038-0.331,1.553-0.505c1.138-0.385,2.267-0.791,3.39-1.209c0.562-0.209,1.122-0.422,1.68-0.64
	c1.101-0.429,2.197-0.869,3.282-1.33c0.551-0.234,1.096-0.479,1.644-0.72c0.771-0.341,1.538-0.69,2.3-1.047
	c0.817-0.382,1.629-0.773,2.437-1.173c0.71-0.352,1.416-0.708,2.118-1.073c0.64-0.332,1.277-0.666,1.911-1.009
	c0.896-0.487,1.785-0.985,2.667-1.494c0.734-0.423,1.462-0.856,2.187-1.294c0.287-0.174,0.571-0.352,0.856-0.528
	c1.391-0.856,2.763-1.74,4.119-2.651c0.078-0.053,0.157-0.106,0.235-0.159c10.411-7.04,19.759-15.69,27.567-25.706
	c0.199-0.255,0.365-0.526,0.536-0.796c2.938-3.826,5.65-7.833,8.118-12.002c0.156-0.224,0.32-0.442,0.459-0.681
	c3.034-5.216,5.645-10.651,7.848-16.241c0.022-0.055,0.044-0.11,0.065-0.165c0.318-0.81,0.628-1.621,0.928-2.437
	c0.128-0.347,0.251-0.698,0.376-1.046c0.24-0.671,0.483-1.341,0.71-2.016c0.344-1.018,0.673-2.042,0.991-3.072
	c0.094-0.307,0.184-0.616,0.275-0.924c0.276-0.921,0.541-1.846,0.796-2.775c0.062-0.229,0.125-0.458,0.186-0.687
	c0.976-3.652,1.782-7.372,2.412-11.152c0.012-0.073,0.024-0.145,0.036-0.218c0.613-3.719,1.056-7.495,1.318-11.32
	c0.019-0.282,0.036-0.564,0.054-0.845c0.058-0.946,0.105-1.895,0.141-2.846c0.012-0.321,0.027-0.641,0.037-0.962
	c0.036-1.21,0.06-2.424,0.06-3.643l-0.006-0.666c0-0.001,0-0.002,0-0.003c0-0.002,0-0.004,0-0.005
	c-0.001-0.238-0.016-0.475-0.019-0.713c-0.014-1.253-0.044-2.504-0.097-3.752c-0.02-0.47-0.049-0.939-0.074-1.409
	c-0.059-1.077-0.129-2.153-0.216-3.227c-0.043-0.533-0.09-1.064-0.14-1.596c-0.097-1.025-0.209-2.048-0.332-3.069
	c-0.064-0.535-0.126-1.07-0.198-1.603c-0.145-1.079-0.31-2.154-0.484-3.228c-0.073-0.451-0.137-0.904-0.215-1.354
	c-0.529-3.046-1.176-6.068-1.937-9.059c-0.103-0.405-0.218-0.806-0.326-1.21c-0.292-1.099-0.594-2.195-0.917-3.285
	c-0.139-0.47-0.287-0.938-0.432-1.407c-0.32-1.034-0.653-2.063-1.001-3.088c-0.084-0.247-0.156-0.497-0.241-0.744
	c-0.037-0.106-0.083-0.206-0.123-0.31c-0.662-1.892-1.358-3.773-2.116-5.631c-0.001-0.003-0.003-0.006-0.004-0.009
	c-0.535-1.313-1.094-2.616-1.676-3.91c-0.278-0.62-0.575-1.229-0.863-1.843c-0.309-0.658-0.611-1.319-0.933-1.972
	c-0.432-0.878-0.884-1.744-1.336-2.61c-0.194-0.371-0.38-0.745-0.578-1.113c-0.546-1.019-1.113-2.025-1.687-3.027
	c-0.118-0.206-0.232-0.415-0.352-0.621c-0.636-1.094-1.293-2.175-1.963-3.247c-0.051-0.082-0.098-0.166-0.15-0.248
	c-0.019-0.03-0.04-0.06-0.059-0.09c-0.699-1.112-1.419-2.21-2.155-3.298c-0.053-0.078-0.104-0.156-0.157-0.234
	c-0.74-1.088-1.498-2.162-2.273-3.225c-0.06-0.083-0.119-0.166-0.18-0.248c-0.76-1.038-1.539-2.062-2.333-3.074
	c-0.089-0.113-0.176-0.226-0.265-0.339c-0.763-0.966-1.542-1.921-2.335-2.863c-0.14-0.166-0.279-0.331-0.42-0.497
	c-0.749-0.88-1.509-1.749-2.284-2.608c-0.208-0.231-0.418-0.461-0.628-0.69c-0.718-0.784-1.445-1.56-2.184-2.325
	c-0.296-0.307-0.596-0.609-0.895-0.913c-0.671-0.68-1.346-1.355-2.034-2.019c-0.402-0.389-0.811-0.77-1.218-1.153
	c-0.606-0.569-1.213-1.138-1.832-1.696c-0.528-0.477-1.066-0.942-1.603-1.409c-0.524-0.455-1.045-0.913-1.577-1.36
	c-0.671-0.564-1.354-1.112-2.037-1.661c-0.428-0.343-0.85-0.692-1.283-1.03c-0.821-0.642-1.657-1.265-2.495-1.885
	c-0.278-0.206-0.546-0.421-0.826-0.624c-0.028-0.02-0.058-0.037-0.086-0.058c-4.627-3.358-9.501-6.398-14.599-9.085
	c-2.307-6.462-7.403-18.339-15.668-25.396c-4.2-3.586-10.51-3.088-14.099,1.111c-3.586,4.2-3.088,10.513,1.112,14.099
	c4.818,4.114,9.067,14.065,10.716,19.633c4.173,20.449-0.177,31.878-7.86,42.065c-0.068,0.084-0.138,0.165-0.204,0.251
	c-2.051,2.706-4.297,5.284-6.666,7.909c-0.165,0.183-0.332,0.367-0.498,0.55c-0.128,0.141-0.259,0.284-0.387,0.425
	c0.659-10.026,0.581-21.219-1.694-32.017c-0.095-0.451-0.215-0.879-0.317-1.324c-0.025-0.133-0.035-0.267-0.066-0.4
	c-0.102-0.438-0.229-0.855-0.337-1.288c-0.178-0.708-0.358-1.415-0.552-2.108c-0.189-0.674-0.393-1.335-0.598-1.995
	c-0.219-0.704-0.439-1.406-0.676-2.093c-0.214-0.621-0.443-1.228-0.672-1.835c-0.262-0.695-0.524-1.389-0.805-2.067
	c-0.237-0.572-0.49-1.13-0.741-1.69c-0.306-0.682-0.612-1.363-0.938-2.027c-0.26-0.529-0.536-1.043-0.809-1.56
	c-0.349-0.663-0.698-1.326-1.069-1.97c-0.283-0.491-0.583-0.967-0.878-1.447c-0.393-0.639-0.784-1.28-1.199-1.899
	c-0.306-0.458-0.631-0.899-0.949-1.346c-0.435-0.612-0.868-1.225-1.326-1.817c-0.331-0.429-0.682-0.839-1.025-1.257
	C358.794,196.895,358.322,196.312,357.824,195.754z M380.369,280.448c0.358-0.43,0.719-0.859,1.086-1.286
	c0.158-0.185,0.317-0.37,0.477-0.554c1.043-1.203,2.116-2.403,3.222-3.622c0.032-0.036,0.065-0.072,0.097-0.107
	c0.581-0.64,1.17-1.285,1.767-1.939c0.083-0.091,0.167-0.183,0.249-0.274c0.605-0.663,1.216-1.333,1.831-2.012
	c0.15-0.166,0.299-0.332,0.45-0.499c0.57-0.632,1.143-1.272,1.716-1.921c0.237-0.267,0.472-0.536,0.707-0.805
	c0.456-0.522,0.911-1.051,1.366-1.586c0.501-0.587,0.996-1.186,1.491-1.788c0.162-0.198,0.324-0.395,0.486-0.595
	c0.305-0.376,0.614-0.741,0.915-1.122c0.84-0.216,1.69-0.392,2.547-0.525c0.121,0.212,0.255,0.414,0.379,0.624
	c0.063,0.107,0.129,0.211,0.193,0.317c1.302,2.157,2.783,4.176,4.42,6.042c0.123,0.14,0.243,0.281,0.368,0.419
	c0.324,0.36,0.655,0.712,0.99,1.06c0.195,0.202,0.393,0.402,0.592,0.601c0.299,0.297,0.598,0.593,0.905,0.881
	c0.289,0.271,0.585,0.534,0.881,0.797c0.238,0.211,0.472,0.427,0.715,0.632c1.165,0.99,2.386,1.912,3.653,2.77
	c0.043,0.029,0.088,0.057,0.131,0.086c0.617,0.414,1.246,0.809,1.884,1.19c0.045,0.027,0.091,0.053,0.137,0.08
	c3.405,2.011,7.111,3.545,11.035,4.511c0.039,0.009,0.077,0.018,0.116,0.027c0.697,0.169,1.4,0.32,2.11,0.453
	c0.137,0.026,0.273,0.051,0.41,0.075c0.616,0.109,1.236,0.203,1.861,0.284c0.118,0.016,0.234,0.039,0.353,0.054
	c0.726,2.63,1.092,5.364,1.092,8.176c0,11.116-5.92,20.81-14.628,25.806c-0.043,0.025-0.087,0.049-0.13,0.074
	c-3.96,2.243-8.49,3.519-13.299,3.519c-15.472,0-28.06-13.189-28.06-29.399c0-0.654,0.021-1.315,0.063-1.976
	c1.352-2.623,3.017-5.264,5.055-8.025C380.122,280.741,380.247,280.595,380.369,280.448z M450.766,316.571
	c-0.004,0.028-0.008,0.056-0.012,0.085c-0.399,2.975-0.929,5.927-1.591,8.847c-0.004,0.016-0.007,0.033-0.011,0.049
	c-0.307,1.352-0.648,2.694-1.011,4.031c-0.055,0.202-0.108,0.405-0.164,0.606c-0.33,1.187-0.686,2.365-1.059,3.539
	c-0.121,0.379-0.244,0.758-0.37,1.136c-0.333,1.007-0.685,2.009-1.05,3.005c-0.215,0.582-0.436,1.16-0.661,1.736
	c-0.181,0.467-0.372,0.932-0.56,1.396c-0.471,1.156-0.958,2.304-1.47,3.439c-0.019,0.042-0.038,0.083-0.057,0.125
	c-0.352,0.775-0.714,1.544-1.085,2.308c-6.018-2.891-10.32-8.676-11.225-15.463c0.352-0.253,0.683-0.532,1.029-0.794
	c0.148-0.112,0.294-0.226,0.441-0.34c1.745-1.356,3.39-2.827,4.93-4.403c0.04-0.041,0.08-0.082,0.12-0.123
	c1.575-1.623,3.035-3.353,4.373-5.181c0.052-0.07,0.104-0.139,0.155-0.209c0.421-0.582,0.83-1.171,1.226-1.772
	c0.089-0.134,0.173-0.271,0.26-0.406c0.656-1.015,1.274-2.055,1.856-3.119c0.146-0.265,0.296-0.527,0.437-0.796
	c0.256-0.49,0.501-0.986,0.741-1.485c0.206-0.426,0.403-0.856,0.597-1.289c0.141-0.314,0.299-0.619,0.434-0.937
	c0.056,0.025,0.114,0.044,0.17,0.069c0.612,0.275,1.234,0.53,1.868,0.761c0.044,0.016,0.089,0.03,0.132,0.046
	c0.672,0.24,1.355,0.457,2.049,0.644c-0.007,0.081-0.014,0.163-0.022,0.244C451.107,313.741,450.954,315.159,450.766,316.571z
	 M365.969,402.419c-0.208,0.03-0.417,0.059-0.626,0.088c-1.391,0.193-2.787,0.36-4.186,0.495c-0.16,0.016-0.321,0.028-0.482,0.043
	c-1.441,0.132-2.884,0.237-4.331,0.306c-0.117,0.006-0.236,0.008-0.353,0.013c-1.5,0.067-3.002,0.106-4.505,0.106
	c-1.088,0-2.174-0.024-3.258-0.059c-0.319-0.01-0.637-0.023-0.956-0.036c-0.838-0.035-1.674-0.081-2.508-0.136
	c-0.279-0.019-0.56-0.033-0.838-0.053c-0.995-0.074-1.987-0.166-2.978-0.27c-0.43-0.045-0.857-0.097-1.285-0.147
	c-0.609-0.072-1.216-0.15-1.823-0.232c-0.487-0.066-0.974-0.131-1.459-0.205c-0.813-0.123-1.624-0.258-2.434-0.401
	c-0.651-0.116-1.299-0.241-1.946-0.369c-0.377-0.075-0.753-0.15-1.129-0.229c-0.646-0.136-1.291-0.273-1.932-0.422
	c-0.116-0.027-0.231-0.057-0.347-0.084c-1.421-0.334-2.831-0.697-4.229-1.091c-0.134-0.038-0.267-0.074-0.4-0.112
	c-0.428-0.123-0.854-0.253-1.28-0.381c0.006-0.047,0.008-0.095,0.013-0.142c0.128-1.047,0.226-2.102,0.295-3.166
	c0.012-0.182,0.02-0.364,0.03-0.546c0.06-1.081,0.1-2.167,0.1-3.263c0-1.061-0.038-2.108-0.093-3.147
	c-0.011-0.195-0.02-0.39-0.032-0.585c-0.067-1.058-0.159-2.105-0.281-3.137c-0.004-0.037-0.01-0.074-0.014-0.111
	c-0.273-2.271-0.68-4.474-1.207-6.599c0.473-1.214,1.02-2.391,1.638-3.524c0.406-0.109,0.808-0.23,1.209-0.353
	c0.021-0.006,0.042-0.012,0.063-0.018c7.706-2.37,14.411-7.212,19.053-13.792c0.798-0.081,1.601-0.121,2.403-0.121
	c8.194,0,15.53,4.154,20.404,10.666c0.026,0.035,0.055,0.069,0.081,0.104c0.802,1.082,1.536,2.229,2.195,3.431
	c0.067,0.122,0.128,0.247,0.194,0.37c0.144,0.271,0.288,0.543,0.424,0.82c0.089,0.18,0.171,0.364,0.256,0.546
	c0.105,0.224,0.21,0.446,0.31,0.673c0.095,0.215,0.183,0.434,0.273,0.652c0.081,0.197,0.164,0.394,0.242,0.594
	c0.093,0.24,0.181,0.483,0.268,0.726c0.065,0.181,0.131,0.362,0.193,0.544c0.088,0.258,0.17,0.519,0.251,0.78
	c0.054,0.173,0.107,0.345,0.158,0.519c0.078,0.269,0.152,0.539,0.224,0.81c0.046,0.173,0.09,0.346,0.133,0.521
	c0.067,0.272,0.13,0.545,0.19,0.819c0.04,0.181,0.077,0.363,0.113,0.546c0.054,0.268,0.105,0.538,0.152,0.808
	c0.034,0.198,0.065,0.397,0.096,0.596c0.04,0.258,0.079,0.517,0.113,0.776c0.029,0.225,0.053,0.452,0.078,0.679
	c0.026,0.237,0.053,0.474,0.074,0.712c0.024,0.279,0.041,0.56,0.058,0.84c0.012,0.191,0.027,0.382,0.036,0.574
	c0.021,0.477,0.033,0.956,0.033,1.439c0,0.606-0.022,1.21-0.056,1.813c-0.01,0.174-0.023,0.348-0.035,0.521
	c-0.033,0.462-0.076,0.922-0.128,1.38c-0.018,0.156-0.033,0.313-0.052,0.468c-0.075,0.587-0.165,1.172-0.271,1.752
	c-0.022,0.122-0.05,0.242-0.074,0.363c-0.092,0.468-0.193,0.933-0.305,1.395c-0.044,0.183-0.09,0.366-0.138,0.549
	c-0.118,0.453-0.247,0.903-0.385,1.349c-0.039,0.125-0.073,0.252-0.113,0.377c-0.155,0.482-0.329,0.957-0.507,1.43
	c-0.134,0.026-0.267,0.052-0.401,0.077C368.626,402.004,367.3,402.226,365.969,402.419z M260.637,345.453
	c-0.242-0.521-0.483-1.044-0.716-1.569c-0.216-0.485-0.431-0.97-0.64-1.46c-0.377-0.887-0.741-1.778-1.093-2.675
	c-0.168-0.428-0.33-0.86-0.492-1.291c-0.286-0.762-0.564-1.527-0.831-2.296c-0.171-0.492-0.339-0.985-0.502-1.48
	c-0.261-0.788-0.511-1.58-0.752-2.374c-0.076-0.251-0.151-0.502-0.225-0.754c1.18-0.419,2.412-0.693,3.666-0.84
	c0.812-0.012,1.617-0.048,2.417-0.105c8.876,0.242,16.025,7.37,16.025,16.118c0,5.857-3.196,11.076-8.097,13.907
	c-2.574-3.675-4.911-7.528-6.981-11.54c-0.146-0.283-0.288-0.567-0.43-0.851C261.524,347.32,261.074,346.39,260.637,345.453z
	 M288.307,225.605c0.063-0.051,0.125-0.102,0.187-0.152c0.851-0.691,1.715-1.369,2.591-2.033c0.2-0.151,0.404-0.298,0.606-0.448
	c0.684-0.511,1.374-1.015,2.072-1.509c0.004,0.007,0.007,0.014,0.01,0.02c0.522,1.843,0.795,3.763,0.795,5.707
	c0,11.452-9.245,20.77-20.608,20.77c-1.854,0-3.663-0.243-5.4-0.714C274.028,239.152,280.664,231.841,288.307,225.605z
	 M313.098,210.674c0.476-0.233,0.948-0.472,1.418-0.714c0.393-0.202,0.786-0.405,1.175-0.614c0.472-0.253,0.939-0.512,1.404-0.773
	c0.377-0.211,0.754-0.422,1.127-0.639c0.471-0.274,0.936-0.557,1.4-0.84c0.357-0.218,0.715-0.433,1.067-0.656
	c0.476-0.301,0.945-0.611,1.413-0.922c0.331-0.219,0.665-0.435,0.992-0.659c0.487-0.333,0.966-0.678,1.445-1.022
	c0.3-0.215,0.603-0.425,0.9-0.644c0.521-0.385,1.032-0.783,1.543-1.181c0.244-0.19,0.494-0.374,0.736-0.567
	c0.695-0.554,1.379-1.121,2.054-1.699c0.051-0.043,0.103-0.084,0.154-0.127c6.773,3.193,11.787,7.473,15.447,12.564
	c0.189,0.266,0.373,0.536,0.556,0.808c0.161,0.237,0.318,0.476,0.473,0.716c1.702,2.662,3.121,5.602,4.265,8.846
	c-4.395,2.826-9.505,4.341-14.828,4.341c-9.877,0-18.764-5.317-23.658-13.458c-0.235-0.659-0.484-1.312-0.753-1.958
	c0.152-0.07,0.302-0.146,0.454-0.217C312.288,211.066,312.694,210.872,313.098,210.674z M372.912,350.001
	c-6.569-5.012-14.404-8.25-22.891-9.054c0.006-0.268,0.02-0.534,0.02-0.803c0-6.923-1.979-13.395-5.4-18.897
	c5.367-2.469,10.242-5.985,14.369-10.366c6.328,14.634,19.372,25.537,35.091,28.555
	C386.271,341.086,379.021,344.693,372.912,350.001z M318.432,355.562c-0.489,0.148-0.988,0.273-1.495,0.377
	c-0.03,0.006-0.06,0.014-0.091,0.02c-1.064,0.212-2.164,0.325-3.291,0.325c-9.091,0-16.487-7.24-16.487-16.14
	s7.396-16.141,16.487-16.141s16.486,7.241,16.486,16.141c0,2.77-0.718,5.378-1.978,7.658c-0.009,0.017-0.018,0.034-0.028,0.051
	c-2.033,3.645-5.459,6.443-9.574,7.701C318.452,355.556,318.442,355.559,318.432,355.562z M258.022,310.711
	c-2.217-0.044-4.407-0.41-6.491-1.103c-0.005-0.081-0.01-0.161-0.015-0.242c-0.05-0.832-0.088-1.663-0.118-2.493
	c-0.007-0.201-0.017-0.4-0.023-0.601c-0.03-0.99-0.047-1.978-0.047-2.96c0-1.414,0.04-2.82,0.098-4.224
	c0.024-0.57,0.06-1.139,0.094-1.707c0.045-0.776,0.101-1.551,0.163-2.324c0.064-0.765,0.129-1.529,0.21-2.29
	c0.042-0.405,0.096-0.807,0.143-1.211c1.04-8.742,3.227-17.222,6.434-25.254c12.148,0.008,22.029,9.97,22.029,22.214
	c0,11.412-8.584,20.837-19.586,22.073C259.944,310.59,258.98,310.633,258.022,310.711z M352.139,273.664
	c-0.013,0.099-0.026,0.205-0.039,0.303c-0.109,0.848-0.212,1.661-0.313,2.459c-0.002,0.016-0.004,0.032-0.006,0.048
	c-0.089,0.702-0.173,1.385-0.253,2.049c-0.012,0.101-0.025,0.204-0.037,0.304c-0.174,1.454-0.323,2.82-0.438,4.102
	c-0.001,0.005-0.001,0.009-0.001,0.014c-0.119,1.319-0.204,2.558-0.238,3.706c-3.995,11.222-13.763,18.668-24.689,18.668
	c-1.783,0-3.523-0.2-5.208-0.574c-0.014-0.003-0.028-0.006-0.042-0.008c-12.132-2.72-21.298-14.672-21.298-28.963
	c0-16.292,11.91-29.546,26.549-29.546c13.29,0,24.424,10.814,26.279,25.325C352.317,272.255,352.229,272.96,352.139,273.664z
	 M291.544,370.035c0.963,0,1.954,0.315,2.933,0.9c0.034,0.021,0.066,0.043,0.101,0.064c2.924,1.805,5.715,6.033,7.272,11.62
	c0.019,0.068,0.038,0.137,0.057,0.205c0.16,0.59,0.308,1.194,0.44,1.813c0.013,0.065,0.024,0.13,0.037,0.195
	c0.199,0.963,0.35,1.966,0.472,2.989c0.045,0.39,0.098,0.776,0.13,1.171c0.029,0.341,0.042,0.692,0.062,1.039
	c0.017,0.312,0.025,0.627,0.034,0.941c-7.09-3.93-13.654-8.695-19.562-14.162C285.75,372.691,288.76,370.035,291.544,370.035z
	 M392.218,394.806c0.024-0.275,0.034-0.551,0.053-0.827c0.018-0.256,0.035-0.512,0.05-0.769c0.054-0.972,0.091-1.947,0.091-2.925
	c0-1.019-0.038-2.028-0.095-3.032c-0.015-0.267-0.038-0.532-0.057-0.799c-0.057-0.79-0.131-1.575-0.223-2.354
	c-0.028-0.236-0.054-0.473-0.085-0.708c-0.268-2.038-0.65-4.035-1.144-5.986c-0.046-0.18-0.096-0.358-0.144-0.537
	c-0.211-0.796-0.439-1.583-0.686-2.361c-0.075-0.237-0.148-0.474-0.226-0.71c-0.283-0.852-0.584-1.694-0.909-2.524
	c-0.077-0.197-0.157-0.391-0.236-0.587c-0.298-0.732-0.611-1.456-0.94-2.17c-0.195-0.424-0.401-0.841-0.607-1.259
	c-0.191-0.386-0.387-0.769-0.588-1.148c-0.167-0.318-0.317-0.645-0.491-0.959c5.005-4.347,11.271-6.751,17.913-6.751
	c8.891,0,17.024,4.296,22.326,11.514C416.831,380.44,405.258,388.977,392.218,394.806z M442.434,261.589
	c-2.4,0.936-4.96,1.423-7.608,1.423c-0.514,0-1.023-0.025-1.531-0.063c-0.099-0.007-0.198-0.015-0.296-0.023
	c-1.068-0.095-2.121-0.266-3.148-0.52c-0.001,0-0.001,0-0.001,0c-2.682-0.662-5.2-1.849-7.427-3.466
	c-0.002-0.001-0.004-0.003-0.005-0.004c-0.842-0.612-1.64-1.29-2.392-2.021c-0.089-0.087-0.178-0.175-0.266-0.263
	c-0.311-0.312-0.614-0.633-0.907-0.965c-0.109-0.124-0.214-0.253-0.321-0.38c-0.204-0.242-0.404-0.489-0.598-0.741
	c-0.132-0.171-0.264-0.342-0.391-0.516c-0.232-0.318-0.456-0.642-0.672-0.974c-0.131-0.201-0.254-0.407-0.379-0.613
	c-0.123-0.202-0.242-0.408-0.359-0.615c-0.146-0.259-0.289-0.521-0.426-0.786c-0.155-0.302-0.304-0.607-0.446-0.918
	c-0.097-0.211-0.188-0.425-0.279-0.64c-0.123-0.292-0.239-0.588-0.351-0.888c-0.937-2.513-1.457-5.241-1.457-8.094
	c0-2.056,0.267-4.088,0.792-6.047c0.375-1.008,0.73-2.037,1.061-3.069c0.563-1.315,1.246-2.564,2.035-3.737
	C427.839,237.074,436.483,248.678,442.434,261.589z"/>
<path d="M98.86,217.984c1.81,0,3.643-0.492,5.29-1.521c0.048-0.03,0.104-0.066,0.157-0.1c4.586-2.958,5.959-9.06,3.058-13.702
	c-2.927-4.684-9.097-6.107-13.78-3.18c-0.046,0.029-0.101,0.063-0.152,0.097c-4.589,2.957-5.965,9.062-3.063,13.706
	C92.268,216.318,95.527,217.984,98.86,217.984z"/>
<path d="M107.385,392.177C75.836,373.273,57,340.053,57,303.311c0-20.327,5.908-40.032,17.086-56.986
	c3.059-4.641,6.518-9.065,10.28-13.151c3.741-4.063,3.479-10.39-0.584-14.13s-10.389-3.48-14.13,0.583
	c-4.488,4.875-8.614,10.154-12.264,15.689C44.05,255.547,37,279.06,37,303.311c0,21.737,5.726,43.114,16.558,61.821
	c10.504,18.14,25.563,33.425,43.548,44.201c1.61,0.964,3.381,1.423,5.13,1.423c3.399,0,6.713-1.734,8.587-4.862
	C113.662,401.157,112.123,395.015,107.385,392.177z"/>
<path d="M367.233,170.433c2.728,0,5.445-1.11,7.42-3.293c3.704-4.096,3.387-10.419-0.709-14.124l-0.199-0.18
	c-4.097-3.704-10.419-3.387-14.125,0.709c-3.704,4.096-3.387,10.419,0.709,14.124l0.199,0.18
	C362.442,169.58,364.841,170.433,367.233,170.433z"/>
<g>
</g>
<g>
</g>
<g>
</g>
<g>
</g>
<g>
</g>
<g>
</g>
<g>
</g>
<g>
</g>
<g>
</g>
<g>
</g>
<g>
</g>
<g>
</g>
<g>
</g>
<g>
</g>
<g>
</g>
</svg>
