<?xml version="1.0" encoding="iso-8859-1"?>
<!-- Generator: Adobe Illustrator 21.0.0, SVG Export Plug-In . SVG Version: 6.00 Build 0)  -->
<svg version="1.1" id="Capa_1" xmlns="http://www.w3.org/2000/svg" xmlns:xlink="http://www.w3.org/1999/xlink" x="0px" y="0px"
	 viewBox="0 0 512.002 512.002" style="enable-background:new 0 0 512.002 512.002;" xml:space="preserve">
<g>
	<path style="fill:#FFB86E;" d="M316.072,331.665c-10.812-70.739-16.308-170.406-60.147-228.857
		c-26.263-35.022-66.291-55.248-129.472-45.591c-143.051,46.14-77.169,171.751-89.013,310.967
		c-6.663,78.332,57.963,151.959,156.389,129.835c52.712-8.057,94.679-43.786,113.369-90.126c-0.003-0.002-0.006-0.003-0.009-0.005
		c9.397-23.302,12.918-49.284,8.949-75.784C316.117,331.958,316.095,331.811,316.072,331.665z"/>
	<path style="fill:#FFB86E;" d="M366.44,10.019c-66.94-0.983-97.364,39.174-110.513,92.788
		c43.837,58.452,49.333,158.119,60.145,228.858c0.022,0.147,0.044,0.293,0.067,0.44c0.19,1.272,0.364,2.543,0.52,3.813
		c3.098,25.176-0.514,49.793-9.46,71.976c15.775,8.072,33.908,12.804,53.209,13.087c61.536,0.903,118.48-44.517,113.364-99.195
		C462.762,204.113,533.999,12.478,366.44,10.019z"/>
</g>
<path d="M94.37,80.65c1.611,0,3.245-0.39,4.76-1.212l0.1-0.054c4.866-2.612,6.693-8.674,4.081-13.541
	c-2.613-4.867-8.676-6.694-13.541-4.081l-0.178,0.096c-4.854,2.634-6.654,8.704-4.021,13.559
	C87.383,78.756,90.821,80.65,94.37,80.65z"/>
<path d="M285.531,293.274c-2.73-20.851-5.554-42.414-9.365-63.624c-7.293-40.578-20.896-97.951-54.678-127.578
	c-4.153-3.642-10.47-3.228-14.112,0.924c-3.642,4.152-3.228,10.47,0.924,14.112c29.067,25.492,41.418,78.457,48.18,116.08
	c3.728,20.742,6.519,42.063,9.219,62.683c0.579,4.425,1.159,8.85,1.747,13.274c0.669,5.027,4.964,8.682,9.9,8.682
	c0.439,0,0.885-0.029,1.332-0.088c5.475-0.729,9.322-5.757,8.594-11.231C286.686,302.097,286.108,297.686,285.531,293.274z"/>
<path d="M279.864,326.457c-5.459,0.838-9.205,5.942-8.368,11.401l0.094,0.608c0.757,4.946,5.018,8.488,9.872,8.488
	c0.504,0,1.014-0.038,1.526-0.117c5.459-0.836,9.207-5.939,8.371-11.398l-0.094-0.615
	C290.428,329.365,285.318,325.62,279.864,326.457z"/>
<path d="M457.576,34.026c-20.419-22.284-50.183-33.407-90.989-34.007C309.255-0.82,270.578,26.85,251.498,82.337
	c-4.412-4.494-9.124-8.67-14.177-12.468c-29.133-21.899-66.943-29.483-112.379-22.537c-5.459,0.834-9.209,5.936-8.375,11.396
	c0.835,5.459,5.936,9.21,11.396,8.374c40.481-6.187,72.32-0.052,97.339,18.753c48.458,36.424,63.039,116.215,72.628,186.554
	c0.043,0.319,0.087,0.639,0.13,0.958c0.134,0.989,0.268,1.978,0.401,2.963c0.807,6.011,1.588,11.979,2.358,17.875
	c1.794,13.721,3.488,26.682,5.366,38.97c0.213,1.396,0.4,2.794,0.569,4.194c0.033,0.273,0.062,0.547,0.094,0.82
	c0.143,1.247,0.272,2.496,0.38,3.745c0.012,0.131,0.024,0.262,0.035,0.393c1.752,20.991-1.432,42.187-9.35,61.82
	c-0.161,0.4-0.285,0.805-0.391,1.212c-17.585,42.622-56.399,75.314-105.204,82.774c-0.229,0.035-0.456,0.078-0.682,0.128
	c-41.125,9.246-78.952,1.097-106.513-22.943c-26.761-23.343-40.862-59.338-37.719-96.286c3.375-39.667,0.638-77.249-2.009-113.595
	c-5.126-70.378-9.174-125.968,32.88-161.892c4.199-3.587,4.696-9.899,1.108-14.099c-3.587-4.199-9.899-4.697-14.099-1.108
	c-22.983,19.635-35.924,44.936-40.727,79.622c-4.138,29.89-1.696,63.427,0.89,98.933c2.59,35.571,5.27,72.354,2.029,110.447
	c-3.682,43.275,12.954,85.538,44.5,113.055c23.888,20.836,54.023,31.609,87.191,31.608c11.834,0,24.06-1.372,36.518-4.148
	c40.883-6.341,76.967-28.305,101.635-61.876c5.789-7.878,10.77-16.17,14.939-24.769c15.062,6.171,31.458,9.531,48,9.773
	c0.656,0.01,1.31,0.014,1.966,0.014c36.799,0,72.696-15.146,96.356-40.743c18.527-20.044,27.457-44.691,25.145-69.398
	c-2.726-29.131-0.282-62.711,2.304-98.261C491.252,150.852,496.649,76.669,457.576,34.026z M466.084,221.141
	c-2.532,34.802-5.15,70.789-2.271,101.576c2.276,24.324-9.575,42.769-19.918,53.959c-19.985,21.622-51.927,34.743-83.342,34.306
	c-14.06-0.206-27.98-3.053-40.741-8.287c6.737-20.151,9.257-41.526,7.294-63.033c-0.019-0.215-0.038-0.43-0.058-0.645
	c-0.115-1.203-0.245-2.406-0.388-3.61c-0.037-0.311-0.069-0.622-0.108-0.932c-0.179-1.432-0.372-2.864-0.591-4.296
	c-0.001-0.008-0.002-0.017-0.003-0.025c-0.088-0.575-0.174-1.16-0.261-1.739c-1.743-11.572-3.35-23.844-5.045-36.81
	c-0.505-3.864-1.017-7.777-1.539-11.725c-0.083-0.628-0.167-1.258-0.251-1.888c-0.115-0.869-0.232-1.739-0.348-2.611
	c-8.231-61.639-19.097-128.268-51.734-174.643c14.954-55.815,46.686-81.498,99.513-80.719c35.003,0.514,60.038,9.516,76.536,27.52
	C476.075,83.821,470.996,153.63,466.084,221.141z"/>
<path d="M408.068,41.968c-3.646-1.419-7.594-2.634-11.732-3.611c-5.383-1.271-10.762,2.06-12.03,7.435
	c-1.268,5.375,2.06,10.761,7.435,12.03c3.238,0.765,6.292,1.701,9.075,2.785c7.856,3.058,13.815,7.295,18.215,12.955
	c20.794,26.748,15.906,93.5,13.28,129.362l-0.404,5.568c-0.393,5.509,3.753,10.294,9.262,10.688
	c0.243,0.018,0.483,0.026,0.724,0.026c5.198,0,9.588-4.022,9.964-9.288l0.402-5.534c3.02-41.247,8.074-110.281-17.438-143.099
	C428.232,52.812,419.232,46.313,408.068,41.968z"/>
<path d="M365.792,55.014l0.611,0.01c0.061,0.001,0.121,0.001,0.183,0.001c5.44,0,9.897-4.36,9.994-9.821
	c0.099-5.522-4.298-10.079-9.819-10.177l-0.699-0.011c-0.046-0.001-0.092-0.001-0.138-0.001c-5.46,0-9.923,4.389-9.996,9.865
	C355.853,50.403,360.269,54.94,365.792,55.014z"/>
<path d="M178.655,452.342c-5.523,0-10,4.477-10,10v0.27c0,5.523,4.477,10,10,10s10-4.477,10-10v-0.27
	C188.655,456.82,184.178,452.342,178.655,452.342z"/>
<path d="M108.654,448.092v0.27c0,5.523,4.477,10,10,10s10-4.477,10-10v-0.27c0-5.523-4.477-10-10-10
	C113.131,438.091,108.654,442.57,108.654,448.092z"/>
<path d="M78.155,399.841c-5.523,0-10,4.477-10,10v0.269c0,5.523,4.477,10,10,10s10-4.477,10-10v-0.269
	C88.155,404.318,83.677,399.841,78.155,399.841z"/>
<path d="M150.404,407.861v-0.27c0-5.523-4.477-10-10-10c-5.523,0-10,4.477-10,10v0.27c0,5.523,4.477,10,10,10
	C145.927,417.861,150.404,413.384,150.404,407.861z"/>
<path d="M188.155,406.092v0.27c0,5.523,4.477,10,10,10s10-4.477,10-10v-0.27c0-5.523-4.477-10-10-10
	S188.155,400.569,188.155,406.092z"/>
<path d="M224.906,430.842v0.27c0,5.523,4.477,10,10,10s10-4.477,10-10v-0.27c0-5.523-4.477-10-10-10
	S224.906,425.319,224.906,430.842z"/>
<path d="M412.659,357.091c-5.522,0-10,4.477-10,10v0.27c0,5.523,4.478,10,10,10c5.522,0,10-4.477,10-10v-0.27
	C422.659,361.568,418.181,357.091,412.659,357.091z"/>
<path d="M369.158,333.841c-5.522,0-10,4.477-10,10v0.269c0,5.523,4.478,10,10,10c5.522,0,10-4.477,10-10v-0.269
	C379.158,338.318,374.68,333.841,369.158,333.841z"/>
<path d="M354.908,371.073c-5.522,0-10,4.477-10,10v0.269c0,5.523,4.478,10,10,10c5.522,0,10-4.477,10-10v-0.269
	C364.908,375.55,360.43,371.073,354.908,371.073z"/>
<path d="M98.153,360.341v0.269c0,5.523,4.477,10,10,10s10-4.477,10-10v-0.269c0-5.523-4.477-10-10-10S98.153,354.818,98.153,360.341
	z"/>
<g>
</g>
<g>
</g>
<g>
</g>
<g>
</g>
<g>
</g>
<g>
</g>
<g>
</g>
<g>
</g>
<g>
</g>
<g>
</g>
<g>
</g>
<g>
</g>
<g>
</g>
<g>
</g>
<g>
</g>
</svg>
