<svg height="472pt" viewBox="-2 0 472 472.58575" width="472pt" xmlns="http://www.w3.org/2000/svg"><path d="m189.894531 91.210938-14.96875-27.753907c-5.914062-10.949219-6.527343-23.996093-1.664062-35.457031l1.304687-3.070312c4.246094-9.980469 12.273438-17.871094 22.328125-21.945313 10.074219-4.070313 21.355469-3.972656 31.359375.273437l5.597656 2.359376c10.011719 4.253906 17.917969 12.3125 21.984376 22.402343 4.074218 10.070313 3.976562 21.347657-.269532 31.351563l-1.304687 3.070312c-4.855469 11.460938-14.664063 20.089844-26.648438 23.449219l-30.359375 8.519531zm0 0" fill="#77c974"/><path d="m240.292969 80.585938 31.695312-44.625c7.777344-9.71875 19.550781-15.375 32-15.375h3.34375c10.863281.003906 21.28125 4.320312 28.960938 12 7.683593 7.683593 12 18.101562 12 28.96875v6.0625c0 10.867187-4.316407 21.285156-12 28.96875-7.683594 7.683593-18.101563 12-28.96875 12h-3.34375c-8.53125 0-16.847657-2.660157-23.792969-7.617188-11.675781-8.195312-25.628906-12.523438-39.894531-12.382812zm0 0" fill="#77c974"/><path d="m224.292969 472.585938c-4.417969 0-8-3.582032-8-8v-343.449219c-.007813-22.007813 11.53125-42.40625 30.398437-53.734375l2.035156-1.214844c19.199219-11.523438 41.171876-17.605469 63.566407-17.601562 4.417969 0 8 3.582031 8 8 0 4.417968-3.582031 8-8 8-19.488281.003906-38.609375 5.300781-55.320313 15.328124l-2.03125 1.207032c-5.914062 3.566406-10.972656 8.390625-14.816406 14.128906-5.113281 7.664062-7.839844 16.671875-7.832031 25.886719v343.449219c0 4.417968-3.582031 8-8 8zm0 0" fill="#389a6b"/><path d="m360.292969 80.585938 31.695312-44.625c7.777344-9.71875 19.550781-15.375 32-15.375h3.34375c10.863281.003906 21.28125 4.320312 28.960938 12 7.683593 7.683593 12 18.101562 12 28.96875v6.0625c0 10.867187-4.316407 21.285156-12 28.96875-7.683594 7.683593-18.101563 12-28.96875 12h-3.34375c-8.53125 0-16.847657-2.660157-23.792969-7.617188-11.675781-8.195312-25.628906-12.523438-39.894531-12.382812zm0 0" fill="#77c974"/><path d="m344.292969 472.585938c-4.417969 0-8-3.582032-8-8v-260.320313c0-4.417969 3.582031-8 8-8s8 3.582031 8 8v260.320313c0 4.417968-3.582031 8-8 8zm0 0" fill="#389a6b"/><path d="m344.484375 124.585938h-.679687c-4.402344-.375-7.667969-4.246094-7.296876-8.648438 1.667969-20.09375 12.898438-38.15625 30.183594-48.535156l2.035156-1.214844c19.199219-11.523438 41.171876-17.605469 63.566407-17.601562 4.417969 0 8 3.582031 8 8 0 4.417968-3.582031 8-8 8-19.488281.003906-38.609375 5.300781-55.320313 15.328124l-2.03125 1.207032c-12.875 7.726562-21.246094 21.175781-22.488281 36.136718-.347656 4.140626-3.8125 7.324219-7.96875 7.328126zm0 0" fill="#389a6b"/><path d="m102.347656 132.21875-25.75-36.257812c-7.777344-9.71875-19.550781-15.375-32-15.375h-3.335937c-10.867188 0-21.285157 4.316406-28.96875 12-7.683594 7.683593-12 18.101562-12 28.96875v6.0625c0 10.867187 4.316406 21.285156 12 28.96875 7.683593 7.683593 18.101562 12 28.96875 12h3.34375c8.53125 0 16.847656-2.660157 23.792969-7.617188 5.382812-3.832031 11.316406-6.824219 17.597656-8.878906zm0 0" fill="#77c974"/><path d="m128.957031 472.585938c-4.367187 0-7.925781-3.5-8-7.863282l-4.664062-283.457031c-.070313-4.414063 3.449219-8.054687 7.863281-8.128906h.136719c4.367187 0 7.925781 3.5 8 7.863281l4.664062 283.449219c.074219 4.417969-3.445312 8.0625-7.863281 8.136719zm0 0" fill="#389a6b"/><path d="m97.75 142.257812c-1.445312.003907-2.867188-.390624-4.105469-1.136718l-2.023437-1.207032c-16.714844-10.027343-35.835938-15.324218-55.328125-15.328124-4.417969 0-8-3.582032-8-8 0-4.417969 3.582031-8 8-8 22.386719 0 44.355469 6.082031 63.550781 17.601562l2.015625 1.207031c3.082031 1.851563 4.546875 5.527344 3.589844 8.988281-.960938 3.464844-4.109375 5.863282-7.699219 5.867188zm0 0" fill="#389a6b"/><path d="m176.292969 80.585938-31.695313-44.625c-7.777344-9.71875-19.550781-15.375-32-15.375h-3.34375c-10.863281.003906-21.28125 4.320312-28.960937 12-7.683594 7.683593-12 18.101562-12 28.96875v6.0625c0 10.867187 4.316406 21.285156 12 28.96875 7.683593 7.683593 18.101562 12 28.96875 12h3.34375c8.53125 0 16.847656-2.660157 23.792969-7.617188 11.675781-8.195312 25.628906-12.523438 39.894531-12.382812zm0 0" fill="#77c974"/><path d="m192.292969 472.585938c-4.417969 0-8-3.582032-8-8v-343.449219c.007812-9.214844-2.71875-18.222657-7.832031-25.886719-3.84375-5.738281-8.90625-10.5625-14.824219-14.128906l-2.015625-1.207032c-16.714844-10.027343-35.835938-15.324218-55.328125-15.328124-4.417969 0-8-3.582032-8-8 0-4.417969 3.582031-8 8-8 22.386719 0 44.355469 6.082031 63.550781 17.601562l2.015625 1.207031c18.886719 11.316407 30.441406 31.722657 30.433594 53.742188v343.449219c0 4.417968-3.582031 8-8 8zm0 0" fill="#389a6b"/><path d="m192.292969 252.585938c-4.417969 0-8-3.582032-8-8v-140c0-.378907.027343-.761719.078125-1.136719l3.921875-27.441407c2.882812-19.972656 10.171875-39.054687 21.34375-55.863281 2.453125-3.675781 7.421875-4.667969 11.097656-2.214843 3.675781 2.453124 4.667969 7.421874 2.214844 11.097656-9.847657 14.816406-16.277344 31.636718-18.816407 49.246094l-3.839843 26.878906v139.433594c0 4.417968-3.582031 8-8 8zm0 0" fill="#389a6b"/><path d="m84.292969 160.585938 31.695312-44.625c7.777344-9.71875 19.550781-15.375 32-15.375h3.34375c10.863281.003906 21.28125 4.320312 28.960938 12 7.683593 7.683593 12 18.101562 12 28.96875v6.0625c0 10.867187-4.316407 21.285156-12 28.96875-7.683594 7.683593-18.101563 12-28.96875 12h-3.34375c-8.53125 0-16.847657-2.660157-23.792969-7.617188-11.675781-8.195312-25.628906-12.523438-39.894531-12.382812zm0 0" fill="#77c974"/><path d="m68.292969 472.585938c-4.417969 0-8-3.582032-8-8v-263.449219c-.007813-22.007813 11.53125-42.40625 30.398437-53.734375l2.035156-1.214844c19.199219-11.523438 41.171876-17.605469 63.566407-17.601562 4.417969 0 8 3.582031 8 8 0 4.417968-3.582031 8-8 8-19.488281.003906-38.609375 5.300781-55.320313 15.328124l-2.03125 1.207032c-5.914062 3.566406-10.972656 8.390625-14.816406 14.128906-5.113281 7.664062-7.839844 16.671875-7.832031 25.886719v263.449219c0 4.417968-3.582031 8-8 8zm0 0" fill="#389a6b"/><path d="m272.292969 176.585938 31.695312-44.625c7.777344-9.71875 19.550781-15.375 32-15.375h3.34375c10.863281.003906 21.28125 4.320312 28.960938 12 7.683593 7.683593 12 18.101562 12 28.96875v6.0625c0 10.867187-4.316407 21.285156-12 28.96875-7.683594 7.683593-18.101563 12-28.96875 12h-3.34375c-8.53125 0-16.847657-2.660157-23.792969-7.617188-11.675781-8.195312-25.628906-12.523438-39.894531-12.382812zm0 0" fill="#77c974"/><path d="m256.292969 472.585938c-4.417969 0-8-3.582032-8-8v-247.449219c-.007813-22.007813 11.53125-42.40625 30.398437-53.734375l2.035156-1.214844c19.199219-11.523438 41.171876-17.605469 63.566407-17.601562 4.417969 0 8 3.582031 8 8 0 4.417968-3.582031 8-8 8-19.488281.003906-38.609375 5.300781-55.320313 15.328124l-2.03125 1.207032c-5.914062 3.566406-10.972656 8.390625-14.816406 14.128906-5.113281 7.664062-7.839844 16.671875-7.832031 25.886719v247.449219c0 4.417968-3.582031 8-8 8zm0 0" fill="#389a6b"/></svg>