<svg height="472pt" viewBox="-65 0 472 472.00001" width="472pt" xmlns="http://www.w3.org/2000/svg"><path d="m294.136719 55.921875-2.273438-15.84375-36.917969 5.28125 28.070313-32.085937-12.03125-10.546876-25.984375 29.699219v-32.425781h-16v50.710938l-8.390625 9.585937-23.609375-23.609375v-36.6875h-16v20.6875l-18.34375-18.34375-11.3125 11.3125 18.34375 18.34375h-28.6875v16h44.6875l27.3125 27.3125v68.6875h16v-68.992188l9.785156-11.183593zm0 0" fill="#77c974"/><path d="m70.753906 19-17.753906 22.199219v-41.199219h-16v47.351562l-27-21.597656-10 12.492188 37 29.59375v76.160156h16v-77.191406l30.246094-37.808594zm0 0" fill="#77c974"/><path d="m253 120v163l-72-23v-44l11.28125-11.28125c3.019531-3.007812 4.71875-7.09375 4.71875-11.359375v-73.359375zm0 0" fill="#7ed39c"/><path d="m225 260v125.335938l-116-68v-197.335938h56v73.359375c0 4.265625 1.699219 8.351563 4.71875 11.359375zm0 0" fill="#77c974"/><path d="m341 304v80c.011719 23.34375-9.253906 45.734375-25.761719 62.238281-16.503906 16.507813-38.894531 25.773438-62.238281 25.761719h-78.960938c0-6.320312 2.960938-164 2.960938-164l103.28125-103.28125c3.019531-3.007812 4.71875-7.09375 4.71875-11.359375v-73.359375h56zm0 0" fill="#90dd73"/><path d="m237 377.921875v94.078125h-128c-23.34375.011719-45.734375-9.253906-62.238281-25.761719-16.507813-16.503906-25.773438-38.894531-25.761719-62.238281v-264h56v81.359375c0 4.265625 1.699219 8.351563 4.71875 11.359375l148.242188 148.242188c4.488281 4.503906 7.019531 10.597656 7.039062 16.960937zm0 0" fill="#389a6b"/></svg>