<svg height="423pt" viewBox="-39 0 423 423.18883" width="423pt" xmlns="http://www.w3.org/2000/svg"><path d="m128.09375 0v70.070312c0 31.96875-12.699219 62.628907-35.304688 85.234376l-59.199218 59.199218c-21.445313 21.4375-33.496094 50.515625-33.496094 80.839844v4.800781c0 41.828125 22.847656 80.320313 59.570312 100.351563l8.679688 4.726562c13.054688 7.121094 27.371094 11.628906 42.152344 13.265625l35.757812 4c9.222656 1.027344 18.53125.925781 27.726563-.304687l60.664062-8.085938c29.195313-3.890625 55.757813-18.898437 74.152344-41.898437l10.289063-12.855469c16.207031-20.28125 25.027343-45.476562 25.007812-71.441406 0-35.269532-16.285156-68.566406-44.128906-90.222656l-60.917969-47.382813c-24.960937-19.414063-41.289063-47.859375-45.472656-79.199219l-9.480469-71.097656-24 32zm0 0" fill="#e3e7e8"/><path d="m276.671875 304.246094c2.363281-32.664063-7.707031-65.019532-28.195313-90.574219l-66.132812-82.671875-12.496094 10 66.132813 82.671875c20.746093 25.914063 29.179687 59.570313 23.109375 92.203125-6.074219 32.632812-26.046875 61.007812-54.722656 77.726562l-4.519532 2.636719 1.09375-1.40625c41.527344-53.410156 41.527344-128.1875 0-181.601562l-26.527344-34.140625-12.640624 9.820312 26.535156 34.113282c37.046875 47.628906 37.046875 114.324218 0 161.953124l-21.964844 28.238282-19.554688-13.039063c-28.699218-19.136719-48.53125-48.980469-55.050781-82.851562-6.523437-33.875.8125-68.949219 20.355469-97.371094l31.945312-46.457031c15.699219-22.792969 24.089844-49.820313 24.054688-77.496094h-16c.035156 24.441406-7.382812 48.3125-21.253906 68.433594l-31.945313 46.453125c-21.96875 31.957031-30.210937 71.390625-22.875 109.46875 7.332031 38.082031 29.628907 71.628906 61.898438 93.140625l13.855469 9.238281c7.390624.527344 14.816406.332031 22.167968-.582031l17.105469-2.28125 21.382813-12.472656c37.144531-21.65625 61.1875-60.265626 64.242187-103.152344zm0 0" fill="#b3bfc7"/></svg>