<svg height="384pt" viewBox="0 0 384.00071 384" width="384pt" xmlns="http://www.w3.org/2000/svg"><path d="m309.199219 40c-28.734375.363281-57.015625 7.226562-82.71875 20.082031l-1.199219-4.082031c-33-24.53125-73.042969-37.746094-114.160156-37.679688l-.160156-.320312c64.988281-30.351562 141.488281-21.863281 198.238281 22zm0 0" fill="#90dd73"/><path d="m225.28125 56 1.199219 4.082031c-36.589844 18.214844-66.433594 47.605469-85.199219 83.917969-33.578125-25.96875-74.832031-40.039062-117.28125-40h-2.558594c19.46875-37.804688 50.960938-68.0625 89.519532-86l.160156.320312c41.117187-.066406 81.160156 13.148438 114.160156 37.679688zm0 0" fill="#7ed39c"/><path d="m364.320312 107.441406c-48.175781 27.703125-88.402343 67.351563-116.800781 115.117188-13.40625 22.539062-23.992187 46.640625-31.519531 71.761718h-.078125c-.144531-25.628906-5.480469-50.964843-15.679687-74.480468-12.917969-29.863282-33.207032-55.957032-58.960938-75.839844 18.765625-36.3125 48.609375-65.703125 85.199219-83.917969 25.703125-12.855469 53.984375-19.71875 82.71875-20.082031h.082031c23.25 17.988281 42.078125 41.054688 55.039062 67.441406zm0 0" fill="#58af7a"/><path d="m110.71875 201.199219c-4.636719-.238281-9.359375-.320313-14.078125-.320313-32.316406-.054687-64.414063 5.296875-94.960937 15.839844-1.125-8.191406-1.6875005-16.449219-1.679688-24.71875-.0625-30.632812 7.296875-60.828125 21.441406-88h2.558594c76.589844.015625 145.847656 45.539062 176.242188 115.839844-28.675782-10.878906-58.886719-17.171875-89.523438-18.640625zm0 0" fill="#389a6b"/><path d="m110.71875 201.199219c30.636719 1.46875 60.847656 7.761719 89.523438 18.640625 10.199218 23.515625 15.535156 48.851562 15.679687 74.480468.066406.558594.089844 1.117188.078125 1.679688.039062 30.585938-7.257812 60.738281-21.28125 87.921875-.878906.078125-1.839844.078125-2.71875.078125-96.449219-.039062-177.902344-71.632812-190.320312-167.28125 30.546874-10.542969 62.644531-15.894531 94.960937-15.839844 4.71875 0 9.441406.082032 14.078125.320313zm0 0" fill="#389a6b"/><path d="m216 294.320312c7.527344-25.121093 18.113281-49.222656 31.519531-71.761718 28.398438-47.765625 68.625-87.414063 116.800781-115.117188 13 26.289063 19.734376 55.230469 19.679688 84.558594-.03125 104.953125-84.335938 190.433594-189.28125 191.921875 14.023438-27.183594 21.320312-57.335937 21.28125-87.921875.011719-.5625-.011719-1.121094-.078125-1.679688zm0 0" fill="#90dd73"/><path d="m343.480469 199.199219c-5.902344-.566407-12-.839844-18.519531-.839844-19.511719-.019531-38.917969 2.828125-57.601563 8.449219 26.367187-37.636719 60.632813-69.070313 100.402344-92.097656-2.160157-4.894532-4.472657-9.703126-7.015625-14.398438-.292969.121094-.574219.257812-.851563.414062-22.96875 13.304688-44.253906 29.324219-63.398437 47.714844 0-1.488281.144531-2.976562.144531-4.464844.042969-25.09375-4.648437-49.972656-13.832031-73.328124l-14.894532 5.855468c11.195313 28.453125 15.09375 59.253906 11.34375 89.601563-24.71875 27.296875-44.609374 58.601562-58.816406 92.574219-2.710937-14.441407-7.023437-28.535157-12.855468-42.023438-12.546876-28.914062-31.730469-54.460938-56-74.566406 18.109374-32.226563 45.433593-58.304688 78.46875-74.890625 24.582031-12.324219 51.648437-18.886719 79.144531-19.199219h9.730469c-6.375-5.636719-13.113282-10.847656-20.175782-15.589844-23.761718 1.527344-47.050781 7.351563-68.730468 17.199219-29.78125-22.191406-65.207032-35.550781-102.222657-38.554687-12.109375 4.289062-23.753906 9.789062-34.761719 16.417968l18.058594-1.121094c36.640625-.050781 72.449219 10.949219 102.742188 31.5625-31.25 17.691407-57.210938 43.410157-75.199219 74.496094-33.0625-23.371094-72.496094-36.046875-112.984375-36.3125-2.949219 5.101563-5.667969 10.351563-8.160156 15.742188l3.945312.160156h2.558594c40.691406-.105469 80.25 13.386719 112.390625 38.335938 19.578125 15.152343 35.902344 34.089843 48 55.6875-23.789063-7.289063-48.394531-11.585938-73.246094-12.800782-4.800781-.246094-9.601562-.328125-14.496093-.328125-32.597657-.0625-64.980469 5.246094-95.847657 15.722657.46875 5.449218 1.164063 10.832031 2.078125 16.152343l.679688-.234375.800781-.261718c28.304687-9.753907 57.984375-14.929688 87.921875-15.335938-17.460938 19.667969-30.875 42.578125-39.480469 67.429688l15.136719 5.183593c9.417969-27.261719 25.089844-51.9375 45.757812-72.054687 27.5 1.652344 54.609376 7.296875 80.480469 16.761718 8.945313 21.609376 13.613281 44.753907 13.746094 68.144532 0 .351562 0 1.277344.078125 1.597656.105469 29.058594-6.753906 57.714844-20 83.578125l-2.742188 4.253906c2.238282.074219 4.480469.167969 6.742188.167969 3.945312 0 7.847656-.160156 11.738281-.390625 13.386719-27.261719 20.320313-57.238281 20.261719-87.609375 0-.121094 0-.230469 0-.351562 7.089844-23.316407 16.882812-45.71875 29.175781-66.761719 22.695313-9.667969 47.117188-14.621094 71.785157-14.566407 6.046874 0 11.609374.25 17 .761719zm0 0" fill="#2e8059"/></svg>