<?xml version="1.0" encoding="iso-8859-1"?>
<!-- Generator: Adobe Illustrator 21.0.0, SVG Export Plug-In . SVG Version: 6.00 Build 0)  -->
<svg version="1.1" id="Capa_1" xmlns="http://www.w3.org/2000/svg" xmlns:xlink="http://www.w3.org/1999/xlink" x="0px" y="0px"
	 viewBox="0 0 511.999 511.999" style="enable-background:new 0 0 511.999 511.999;" xml:space="preserve">
<g>
	<path style="fill:#87DD60;" d="M255.222,121.416c29.44,5.025,60.785-3.823,83.511-26.549
		c22.726-22.726,31.574-54.072,26.549-83.511c-29.44-5.026-60.786,3.822-83.512,26.548
		C259.045,60.629,250.197,91.976,255.222,121.416z"/>
	<path style="fill:#00C56E;" d="M269.414,166.045c-4.421-30.881-27.871-73.619-38.508-87.875
		c-11.52-15.44-41.375-3.734-22.524,24.233c6.134,9.099,18.91,37.81,25.507,60.812c2.858,9.967,4.556,18.862,4.05,24.628
		c11.671-4.325,21.581-12.207,31.829-18.979C269.668,167.935,269.55,166.996,269.414,166.045z"/>
	<path style="fill:#FD4848;" d="M269.767,168.862c-10.247,6.773-20.157,14.655-31.829,18.979c0.506-5.764-1.192-14.66-4.051-24.627
		c-19.583-7.399-39.429-20.402-70.764-14.432c-50.638,9.648-86.902,51.452-97.287,100.714
		c-11.853,56.225,4.925,116.275,29.369,166.051c10.015,20.392,30.572,48.622,45.881,64.898
		c11.065,11.764,30.361,24.291,47.323,21.03c19.955-3.835,40.105-17.941,67.587-17.941s47.631,14.106,67.587,17.941
		c16.962,3.26,36.258-9.266,47.323-21.03c15.309-16.275,35.866-44.505,45.881-64.898c24.443-49.776,41.221-109.826,29.368-166.051
		c-10.385-49.263-46.649-91.066-97.287-100.714c-26.81-5.108-45.209,3.672-62.229,10.949c-1.205,0.515-2.403,1.023-3.597,1.517
		C278.453,163.359,274.081,166.013,269.767,168.862z"/>
</g>
<path d="M455.941,247.435c-11.799-55.967-53.092-98.546-105.2-108.476c-28.497-5.428-49.019,3.401-65.516,10.497
	c-2.817,1.212-5.562,2.387-8.257,3.464c-1.642-6.587-3.834-13.389-6.375-20.161c0.218,0.001,0.436,0.014,0.653,0.014
	c27.718-0.001,54.669-10.946,74.559-30.835c6.95-6.951,12.876-14.793,17.615-23.315l0.453-0.822
	c2.645-4.849,0.857-10.923-3.991-13.567c-4.849-2.645-10.922-0.858-13.567,3.99l-0.376,0.684
	c-3.835,6.894-8.638,13.249-14.276,18.887c-17.805,17.805-42.614,26.76-67.502,24.683c-2.079-24.904,6.876-49.698,24.682-67.503
	c19.535-19.536,47.487-28.416,74.758-23.762c5.447,0.929,10.61-2.731,11.54-8.174c0.93-5.444-2.73-10.611-8.175-11.54
	c-33.659-5.746-68.151,5.219-92.266,29.334c-14.501,14.501-24.24,32.758-28.456,52.327c-2.715-4.411-5.22-8.154-7.322-10.97
	c-8.663-11.61-25.097-14.394-36.637-6.208c-9.521,6.756-15.81,21.813-2.193,42.011c4.251,6.307,11.317,21.686,17.283,37.532
	c-14.807-5.895-32.795-11.01-56.121-6.564c-31.049,5.916-59.05,23.681-78.847,50.021c-3.318,4.415-2.429,10.684,1.986,14.001
	c1.801,1.354,3.909,2.007,6,2.007c3.037,0,6.037-1.378,8.002-3.993c17.043-22.677,40.073-37.335,66.603-42.39
	c22.474-4.284,38.433,2.583,53.867,9.224c2.196,0.945,4.439,1.904,6.695,2.834c1.061,4.1,1.835,7.823,2.212,10.938
	c-5.977,0.607-12.785-0.113-21.104-2.661c-5.282-1.622-10.873,1.351-12.491,6.631c-1.618,5.281,1.351,10.873,6.632,12.491
	c8.515,2.61,16.071,3.716,22.875,3.716c20.773,0,34.514-10.322,46.997-19.701c6.325-4.751,12.864-9.661,20.298-13.327
	c0.718-0.308,1.436-0.616,2.149-0.922c15.434-6.639,31.395-13.505,53.868-9.222c44.163,8.415,79.245,44.901,89.374,92.954
	c12.363,58.649-8.706,119.153-28.559,159.581c-9.953,20.266-30.284,47.67-44.19,62.454c-9.743,10.357-25.85,20.43-38.152,18.061
	c-6.632-1.274-13.742-4.007-21.27-6.9c-13.686-5.26-29.199-11.221-48.204-11.221c-19.004,0-34.517,5.961-48.203,11.221
	c-7.528,2.893-14.639,5.626-21.271,6.9c-12.316,2.365-28.41-7.704-38.151-18.061c-13.905-14.783-34.236-42.186-44.19-62.453
	c-18.872-38.433-39.365-96.166-29.814-152.951c0.916-5.446-2.757-10.604-8.202-11.52c-5.45-0.916-10.605,2.757-11.521,8.203
	c-10.436,62.03,11.416,124.01,31.585,165.081c11.188,22.784,32.862,51.7,47.573,67.341c11.309,12.023,30.155,24.702,49.009,24.7
	c2.5,0,5.004-0.223,7.486-0.7c8.374-1.609,16.289-4.651,24.67-7.872c12.652-4.862,25.736-9.89,41.029-9.89
	c15.294,0,28.377,5.028,41.029,9.89c8.38,3.221,16.295,6.263,24.671,7.872c21.206,4.076,43.686-10.381,56.495-24
	c14.711-15.641,36.385-44.559,47.572-67.341C447.004,376.704,469.48,311.664,455.941,247.435z M246.789,174.531
	c-0.735-4.005-1.771-8.344-3.028-12.861c-0.125-0.795-0.347-1.568-0.656-2.305c-7.071-24.339-19.982-52.985-26.431-62.55
	c-4.576-6.788-5.682-12.488-2.817-14.52c2.046-1.45,6.437-1.622,9.033,1.857c10.747,14.404,31.726,53.78,36.335,81.519
	c-0.186,0.14-0.374,0.28-0.56,0.42C254.511,169.21,250.66,172.098,246.789,174.531z"/>
<circle cx="75.993" cy="218.994" r="10"/>
<path d="M366.659,36.969c-5.413-1.091-10.686,2.414-11.778,7.829l-0.084,0.408c-1.098,5.413,2.4,10.69,7.813,11.788
	c0.671,0.136,1.339,0.201,1.998,0.201c4.657,0,8.828-3.272,9.79-8.015l0.09-0.435C375.578,43.332,372.073,38.059,366.659,36.969z"/>
<path d="M338.933,441.59c-4.396-3.344-10.669-2.49-14.013,1.904l-0.163,0.214c-3.345,4.395-2.492,10.669,1.903,14.013
	c1.81,1.376,3.937,2.042,6.047,2.042c3.017,0,5.999-1.36,7.966-3.946l0.163-0.214C344.181,451.208,343.329,444.934,338.933,441.59z"
	/>
<path d="M344.372,434.756c1.789,1.323,3.872,1.961,5.939,1.961c3.063,0,6.087-1.402,8.048-4.054
	c10.962-14.821,19.786-30.712,26.977-48.578c2.063-5.123-0.42-10.948-5.543-13.01c-5.121-2.063-10.948,0.419-13.01,5.544
	c-6.549,16.27-14.563,30.713-24.504,44.152C338.994,425.209,339.931,431.472,344.372,434.756z"/>
<g>
</g>
<g>
</g>
<g>
</g>
<g>
</g>
<g>
</g>
<g>
</g>
<g>
</g>
<g>
</g>
<g>
</g>
<g>
</g>
<g>
</g>
<g>
</g>
<g>
</g>
<g>
</g>
<g>
</g>
</svg>
