<?xml version="1.0" encoding="iso-8859-1"?>
<!-- Generator: Adobe Illustrator 21.0.0, SVG Export Plug-In . SVG Version: 6.00 Build 0)  -->
<svg version="1.1" id="Capa_1" xmlns="http://www.w3.org/2000/svg" xmlns:xlink="http://www.w3.org/1999/xlink" x="0px" y="0px"
	 viewBox="0 0 512.002 512.002" style="enable-background:new 0 0 512.002 512.002;" xml:space="preserve">
<g>
	<path style="fill:#FD4848;" d="M256,194.66c-130.273,1.494-172.095,64.152-167.739,141.522
		c12.936,125.432,167.738,71.429,167.738,165.819c0-92.62,149.052-42.36,166.863-158.95c0.34-2.228,0.633-4.518,0.875-6.87
		c0.651-11.566,0.271-22.803-1.283-33.555C413.615,241.446,366.799,195.93,256,194.66z"/>
	<g>
		<path style="fill:#87DD60;" d="M256,107.474v56.404v30.781c5.123-4.132,10.284-9.051,15.38-14.617
			c-0.01,0.009-0.021,0.018-0.031,0.027c19.239-21.001,37.548-51.209,49.351-83.003c0.016-0.043,0.032-0.087,0.048-0.13
			c10.879-29.356,16.207-60.053,11.596-86.091C292.327,2.568,256,57.511,256,107.474z"/>
		<path style="fill:#87DD60;" d="M319.871,99.269c-11.814,30.969-29.708,60.261-48.492,80.774
			c27.738-24.01,88.241-65.649,141.597-28.834c-11.182-40.686-53.994-60.136-92.229-54.272
			C320.46,97.715,320.168,98.492,319.871,99.269z"/>
	</g>
	<path style="fill:#00C56E;" d="M256,194.66c-42.334-34.142-87.277-122.075-76.344-183.815C219.673,2.568,256,57.511,256,107.474
		V194.66z"/>
	<path style="fill:#87DD60;" d="M240.651,180.07c-27.724-24.006-88.252-65.689-141.628-28.861
		c11.182-40.686,53.994-60.136,92.229-54.272C203.052,128.778,221.386,159.041,240.651,180.07z"/>
</g>
<path d="M401.175,233.727c-26.007-27.83-66.644-43.949-120.999-48.048c28.771-24.321,81.459-57.748,127.122-26.24
	c3.459,2.387,8.043,2.357,11.469-0.078c3.427-2.434,4.966-6.751,3.853-10.803c-11.56-42.064-51.016-62.24-87.609-62.606
	c8.555-28.082,11.116-54.629,7.18-76.852c-0.714-4.031-3.813-7.22-7.821-8.049c-16.09-3.33-32.415,1.287-47.22,13.344
	C274.056,25.058,263.248,40.634,256,58.244c-7.249-17.609-18.056-33.186-31.149-43.849C210.045,2.34,193.718-2.276,177.63,1.052
	c-4.009,0.829-7.107,4.018-7.821,8.049c-3.936,22.224-1.375,48.77,7.181,76.853c-36.595,0.367-76.049,20.541-87.609,62.605
	c-1.114,4.053,0.426,8.37,3.853,10.803c3.427,2.434,8.01,2.464,11.469,0.078c45.663-31.507,98.35,1.919,127.122,26.24
	c-54.356,4.099-94.992,20.218-120.999,48.048c-23.999,25.682-34.95,60.342-32.547,103.017c0.009,0.155,0.021,0.31,0.037,0.464
	c7.526,72.975,60.415,91.04,102.912,105.555c41.369,14.13,64.775,23.847,64.775,59.239c0,5.523,4.477,10,10,10s10-4.477,10-10
	c0-35.391,23.406-45.109,64.775-59.239c42.497-14.515,95.386-32.579,102.912-105.555c0.016-0.154,0.028-0.309,0.037-0.464
	C436.125,294.07,425.175,259.41,401.175,233.727z M390.374,129.665c-18.845-5.128-39.298-3.896-61.125,3.719
	c-6.185,2.158-12.177,4.736-17.918,7.582c1.34-2.389,2.643-4.809,3.921-7.248c0.06-0.115,0.121-0.228,0.181-0.343
	c0.415-0.793,0.823-1.59,1.231-2.389c0.254-0.496,0.506-0.993,0.757-1.492c0.352-0.699,0.703-1.399,1.05-2.101
	c0.366-0.741,0.727-1.486,1.087-2.231c0.342-0.707,0.682-1.414,1.018-2.124c0.477-1.007,0.949-2.017,1.415-3.031
	c0.225-0.49,0.446-0.981,0.668-1.471c0.205-0.454,0.414-0.906,0.618-1.361c0.173-0.387,0.338-0.774,0.508-1.161
	c0.243-0.551,0.485-1.102,0.725-1.655c0.418-0.963,0.827-1.926,1.232-2.887c0.158-0.375,0.318-0.75,0.475-1.126
	c0.58-1.395,1.15-2.789,1.702-4.18C350.131,104.43,374.855,111.992,390.374,129.665z M299.778,29.905
	c5.675-4.622,13.999-9.602,23.723-9.87c3.902,41.044-16.548,94.712-43.252,132.876c-4.572,6.505-9.347,12.585-14.25,18.127v-63.563
	C266,77.998,279.89,46.1,299.778,29.905z M188.499,20.034c9.724,0.269,18.049,5.249,23.723,9.87
	c19.889,16.196,33.778,48.094,33.778,77.57v63.563c-4.904-5.542-9.678-11.622-14.25-18.127
	C205.045,114.746,184.596,61.078,188.499,20.034z M182.751,133.385c-13.034-4.548-25.576-6.819-37.58-6.819
	c-8.101,0-15.954,1.034-23.547,3.101c15.519-17.674,40.238-25.234,62.456-23.499c0.552,1.39,1.121,2.783,1.701,4.177
	c0.158,0.381,0.321,0.76,0.481,1.141c0.402,0.956,0.809,1.912,1.224,2.87c0.242,0.558,0.487,1.115,0.732,1.671
	c0.169,0.384,0.333,0.767,0.504,1.15c0.201,0.45,0.408,0.897,0.611,1.347c0.225,0.498,0.45,0.997,0.678,1.494
	c0.458,0.998,0.923,1.992,1.393,2.983c0.347,0.733,0.698,1.463,1.051,2.193c0.355,0.734,0.71,1.467,1.07,2.197
	c0.349,0.706,0.702,1.41,1.056,2.113c0.249,0.494,0.5,0.987,0.751,1.479c0.409,0.801,0.819,1.6,1.235,2.396
	c0.058,0.111,0.117,0.22,0.175,0.331c1.28,2.442,2.585,4.866,3.926,7.257C194.928,138.12,188.936,135.543,182.751,133.385z
	 M324.31,423.836c-19.627,6.704-38.165,13.036-52.654,24.059c-6.448,4.905-11.659,10.448-15.656,16.68
	c-3.998-6.232-9.208-11.774-15.656-16.68c-14.489-11.022-33.027-17.354-52.654-24.059c-42.767-14.607-83.166-28.406-89.458-88.449
	c-2.033-36.905,7.12-66.512,27.204-88.004c25.823-27.634,69.748-42.008,130.563-42.722c60.814,0.714,104.74,15.088,130.563,42.722
	c11.608,12.422,19.557,27.559,23.812,45.244H308.883c-5.523,0-10,4.477-10,10s4.477,10,10,10h104.645
	c0.534,6.53,0.648,13.342,0.346,20.426h-22.046c-5.523,0-10,4.477-10,10s4.477,10,10,10h18.802
	C398.839,398.375,362.522,410.785,324.31,423.836z"/>
<path d="M150.083,365.635l-0.07-0.063c-4.114-3.685-10.4-3.306-14.085,0.807c-3.685,4.114-3.303,10.467,0.811,14.152
	c1.909,1.711,4.293,2.552,6.669,2.552c2.744,0,5.477-1.123,7.452-3.328C154.544,375.642,154.197,369.32,150.083,365.635z"/>
<path d="M149.268,248.491c-10.898,7.937-19.055,17.695-24.248,29.006c-7.654,15.351-10.969,34.272-9.851,56.242
	c0.01,0.195,0.026,0.391,0.047,0.585c0.881,8.01,2.39,14.897,4.612,21.054c1.47,4.074,5.312,6.609,9.407,6.609
	c1.127,0,2.273-0.192,3.394-0.597c5.195-1.874,7.887-7.605,6.012-12.8c-1.653-4.582-2.803-9.872-3.512-16.163
	c-0.901-18.424,1.74-33.943,7.852-46.13c0.055-0.11,0.109-0.222,0.16-0.335c3.797-8.329,9.653-15.298,17.903-21.306
	c4.464-3.251,5.448-9.506,2.196-13.971C159.986,246.223,153.733,245.24,149.268,248.491z"/>
<path d="M363.099,333.052h-0.269c-5.523,0-10,4.477-10,10s4.477,10,10,10h0.269c5.523,0,10-4.477,10-10
	S368.622,333.052,363.099,333.052z"/>
<path d="M250.053,336.754H212.23c-5.523,0-10,4.477-10,10s4.477,10,10,10h37.823c5.523,0,10-4.477,10-10
	C260.053,341.231,255.576,336.754,250.053,336.754z"/>
<path d="M318.302,384.003h-37.823c-5.523,0-10,4.477-10,10c0,5.523,4.477,10,10,10h37.823c5.523,0,10-4.477,10-10
	C328.302,388.48,323.825,384.003,318.302,384.003z"/>
<path d="M303.337,264.176c5.523,0,10-4.477,10-10s-4.477-10-10-10h-31.033c-5.523,0-10,4.477-10,10s4.477,10,10,10H303.337z"/>
<path d="M332.068,264.176h0.269c5.523,0,10-4.477,10-10s-4.477-10-10-10h-0.269c-5.523,0-10,4.477-10,10
	S326.545,264.176,332.068,264.176z"/>
<g>
</g>
<g>
</g>
<g>
</g>
<g>
</g>
<g>
</g>
<g>
</g>
<g>
</g>
<g>
</g>
<g>
</g>
<g>
</g>
<g>
</g>
<g>
</g>
<g>
</g>
<g>
</g>
<g>
</g>
</svg>
