<svg height="448pt" viewBox="0 0 448.08 448" width="448pt" xmlns="http://www.w3.org/2000/svg"><path d="m319.839844 286.527344c28.925781-32.070313 65.265625-56.574219 105.839844-71.367188l22.398437-8.152344c-22.125-14.730468-50.566406-16.089843-74-3.535156-27.582031 15.078125-52.59375 34.445313-74.101563 57.375 25.015626-61.542968 72.667969-111.15625 133.152344-138.632812l8.117188-3.6875c-12.949219-15.429688-45.398438-9.039063-62.613282 1.433594-37.945312 21.625-69.121093 53.386718-90.03125 91.726562-8.300781 14.234375-15.382812 29.140625-21.167968 44.570312l-18.738282 49.949219 6.402344-57.359375c2.175782-19.566406 6.414063-38.847656 12.636719-57.527344l7.203125-21.664062c19.085938-56.835938 55.824219-106.089844 104.863281-140.585938-16.652343-3.339843-33.933593.726563-47.351562 11.136719-41.863281 32.304688-69.898438 65.351563-87.882813 119.335938l-7.199218 21.65625c-3.742188 11.300781-6.835938 22.804687-9.261719 34.457031l-.457031-15.03125c-1.558594-51.324219 11.335937-102.050781 37.207031-146.402344l31.617187-54.1835935-2.730468.7226565c-17.730469 4.722656-33.859376 14.144531-46.6875 27.269531-7.3125 7.496094-13.453126 16.058594-18.207032 25.394531-23.320312 45.828125-34.734375 96.789063-33.183594 148.191407l1.3125 43.246093c-5.679687-16.917969-12.589843-33.398437-20.679687-49.304687-16.558594-32.308594-42.867187-58.585938-75.199219-75.101563 23.359375 37.46875 42.945313 77.164063 58.46875 118.503907-12.226562-22.242188-28.597656-41.933594-48.230468-58.015626l-12.902344-10.585937c-15.761719-13.179687-35.21875-21.15625-55.699219-22.832031-15.332031-2.28125-30.910156 2.160156-42.734375 12.183594 28.695312 4.796874 55.636719 17.003906 78.160156 35.417968l12.878906 10.535156c22.390626 18.335938 39.632813 42.171876 50.039063 69.175782l14.699219 38.214844c-33.472656-39.640626-79.578125-66.546876-130.5625-76.183594 56.710937 41.191406 105.628906 92.152344 144.464844 150.496094l35.617187 53.394531v.039062c.109375.167969.269531.3125.390625.480469s.25.40625.402344.597656l.085937.097656c.144531.167969.3125.3125.457031.480469.144532.167969.398438.503907.632813.734375.230469.234375.261719.214844.382813.335938.359374.335937.734374.640625 1.128906.945312.261718.207032.503906.449219.796875.640625l.097656.054688c.113281.078125.230469.136719.34375.207031.445313.273438.90625.523438 1.375.746094.28125.144531.53125.335937.800781.453125.0625.027343.128906.046875.191406.066406l.289063.121094c.28125.109375.574219.183593.871094.285156.296875.105469.503906.144531.761719.21875l.320312.085937c.296875.074219.582031.191407.878906.25h.0625c.824219.148438 1.660156.226563 2.496094.238282.160156 0 .328125.046875.488281.046875h.121094c1.019531-.007813 2.035156-.113281 3.03125-.3125.25-.046875.480469-.148438.722656-.207031.214844-.054688.429688-.085938.644531-.152344.21875-.0625.363282-.136719.546876-.191406.183593-.054688.558593-.144532.796874-.253907.769532-.3125 1.507813-.6875 2.21875-1.113281.070313-.039062.152344-.0625.222657-.113281.074219-.046875.335937-.246094.511719-.359375.082031-.042969.164062-.085938.25-.121094l25.0625-17.359375c48.726562-33.808594 106.644531-51.867187 165.953124-51.742187-44.035156-22.320313-96.003906-22.617188-140.289062-.800782-6 3-12.175781 6.398438-18.496094 10.121094l20.167969-40.335938c10.59375-21.171874 23.988281-40.820312 39.824219-58.417968zm0 0" fill="#389a6b"/></svg>