<?xml version="1.0" encoding="iso-8859-1"?>
<!-- Generator: Adobe Illustrator 21.0.0, SVG Export Plug-In . SVG Version: 6.00 Build 0)  -->
<svg version="1.1" id="Capa_1" xmlns="http://www.w3.org/2000/svg" xmlns:xlink="http://www.w3.org/1999/xlink" x="0px" y="0px"
	 viewBox="0 0 512 512" style="enable-background:new 0 0 512 512;" xml:space="preserve">
<g>
	<g>
		<path style="fill:#F3F3C2;" d="M333.357,310.914c8.675,0.396,17.299,0.095,25.812-0.901c5.797,6.313,12.132,12.172,18.961,17.537
			c4.958,3.895,16.309,14.103,18.726,20.43c-0.12,0.412-0.276,0.839-0.398,1.167c-0.261,0.703-0.871,2.235-1.385,2.875
			c-0.078,0.058-0.172,0.113-0.25,0.16c-11.458,6.817-38.569,0.817-50.041-3.446c-11.472-4.263-35.923-17.421-40.15-30.066
			c-0.029-0.086-0.064-0.191-0.085-0.285c0.028-0.82,0.567-2.378,0.828-3.081c0.122-0.328,0.282-0.753,0.461-1.143
			C311.797,310.947,327.059,310.627,333.357,310.914L333.357,310.914z M239.759,290.922
			c-21.871,58.862,30.28,104.716,80.643,123.429c50.362,18.713,119.802,18.038,141.673-40.825
			c15.518-41.765-8.742-75.914-40.699-101.02c-17.105-13.439-26.505-29.574-30.782-47.065
			c-14.66,10.454-32.315,16.537-54.046,15.546C295.949,239.136,255.277,249.158,239.759,290.922z"/>
		<path style="fill:#F3F3C2;" d="M359.169,310.013c-8.513,0.996-17.137,1.297-25.812,0.901c-6.299-0.287-21.561,0.032-27.522,3.245
			c-0.178,0.39-0.339,0.815-0.461,1.143c-0.261,0.703-0.8,2.262-0.828,3.081c0.021,0.094,0.056,0.199,0.085,0.285
			c4.227,12.645,28.678,25.803,40.15,30.066s38.583,10.263,50.041,3.446c0.078-0.047,0.173-0.102,0.25-0.16
			c0.514-0.639,1.124-2.172,1.385-2.875c0.122-0.328,0.278-0.755,0.398-1.167c-2.417-6.326-13.768-16.534-18.726-20.43
			C371.301,322.185,364.966,316.326,359.169,310.013z"/>
		<path style="fill:#F3F3C2;" d="M421.375,272.506c31.957,25.107,56.217,59.256,40.699,101.02
			c-21.871,58.862-91.31,59.537-141.673,40.825c-50.362-18.713-102.513-64.567-80.643-123.429
			c15.518-41.764,56.191-51.786,96.788-49.935c21.731,0.991,39.386-5.092,54.046-15.546
			C394.87,242.932,404.27,259.067,421.375,272.506L421.375,272.506z M421.142,113.013c-18.679,46.142-38.877,95.023-83.001,93.01
			c-1.866-0.085-3.734-0.147-5.6-0.183c-51.886-1.066-104.539,16.236-125.59,72.892c-25.785,69.394,19.249,129.377,81.504,159.933
			c6.422,3.152,13.027,5.991,19.757,8.495c71.989,26.715,158.227,15.11,186.671-61.443c21.81-58.696-9.652-107.551-51.885-140.732
			c-34.732-27.287-18.111-77.498-2.128-124.641l-9.863-3.665L421.142,113.013z"/>
	</g>
	<path style="fill:#FFB86E;" d="M206.95,278.732c21.051-56.655,73.704-73.96,125.591-72.892
		c-19.829-16.028-43.903-27.679-68.894-35.69c-50.922-16.321-53.232-80.312-54.973-140.551h-12.739h-12.739
		c-1.742,60.24-4.052,124.23-54.974,140.551C66.304,189.999,10,232.175,10,307.984c0,98.869,92.974,148.403,185.936,148.442
		c32.117-0.014,64.233-5.938,92.518-17.761C226.2,408.109,181.166,348.126,206.95,278.732z"/>
</g>
<path d="M123.885,398.458C92.459,386.166,55,360.493,55,307.984c0-5.523-4.477-10-10-10s-10,4.477-10,10
	c0,49.773,28.98,88.519,81.601,109.1c1.197,0.468,2.428,0.69,3.64,0.69c3.997,0,7.772-2.414,9.315-6.36
	C131.567,406.27,129.028,400.469,123.885,398.458z"/>
<path d="M148.358,406.007c-0.157-0.041-0.367-0.089-0.525-0.122c-5.411-1.111-10.697,2.369-11.811,7.778
	c-1.097,5.327,2.263,10.536,7.53,11.757c0.778,0.185,1.556,0.274,2.323,0.274c4.455,0,8.518-2.999,9.678-7.512
	C156.928,412.833,153.707,407.382,148.358,406.007z"/>
<path d="M390.154,449.711l0.679,9.978l-0.803-9.968c-5.508,0.402-9.648,5.192-9.246,10.701c0.384,5.261,4.771,9.274,9.963,9.273
	c0.244,0,0.491-0.009,0.738-0.027c0.014-0.001,0.137-0.011,0.158-0.012c5.505-0.412,9.636-5.208,9.226-10.715
	C400.458,453.433,395.651,449.307,390.154,449.711z"/>
<path d="M449.174,237.121c-27.368-21.503-16.78-60.634,1.165-113.567c1.737-5.124-0.916-10.7-5.988-12.584l-19.726-7.33
	c-5.074-1.884-10.723,0.608-12.753,5.622c-20.973,51.809-38.515,88.376-73.275,86.773c-0.825-0.038-1.633-0.049-2.452-0.079
	c-19.005-14.758-42.342-26.64-69.446-35.328c-19.634-6.293-32.139-21.221-39.353-46.98c-6.958-24.844-7.871-56.451-8.678-84.338
	c-0.157-5.408-4.586-9.711-9.996-9.711h-25.477c-5.41,0-9.839,4.303-9.996,9.711c-0.806,27.886-1.72,59.493-8.678,84.338
	c-7.214,25.759-19.719,40.688-39.352,46.98C44.454,186.501,0,238.832,0,307.984c0,49.197,21.55,90.497,62.319,119.436
	c23.835,16.918,53.132,28.715,85.22,34.632c-6.399,3.437-12.86,7.597-18.966,12.634c-4.26,3.515-4.864,9.817-1.349,14.078
	c1.978,2.396,4.837,3.636,7.719,3.636c2.24-0.001,4.495-0.75,6.358-2.287c15.031-12.401,33.2-18.597,44.635-21.49v12.782
	c0,5.523,4.478,10,10,10c5.523,0,10-4.477,10-10v-12.78c11.439,2.893,29.602,9.085,44.634,21.488
	c1.864,1.538,4.118,2.287,6.358,2.287c2.882,0,5.742-1.24,7.719-3.636c3.515-4.26,2.911-10.563-1.35-14.078
	c-6.128-5.056-12.614-9.229-19.036-12.673c15.286-2.828,30.022-6.994,43.837-12.429c5.398,2.509,10.945,4.834,16.633,6.95
	c16.662,6.184,33.773,10.325,50.857,12.308c0.392,0.046,0.78,0.068,1.166,0.068c5.007,0,9.329-3.753,9.921-8.848
	c0.637-5.486-3.294-10.45-8.78-11.086c-15.495-1.799-31.041-5.565-46.196-11.19c-8.956-3.332-17.77-7.332-26.243-11.939
	c-38.05-20.788-73.809-57.098-75.831-103.257c-0.01-0.226-0.024-0.45-0.032-0.676c-0.022-0.6-0.03-1.204-0.041-1.808
	c-0.007-0.449-0.017-0.898-0.018-1.349c-0.002-0.474,0.006-0.95,0.012-1.425c0.007-0.581,0.016-1.161,0.034-1.744
	c0.012-0.395,0.03-0.792,0.047-1.189c0.029-0.664,0.062-1.329,0.105-1.996c0.022-0.346,0.048-0.694,0.074-1.041
	c0.054-0.714,0.114-1.43,0.184-2.148c0.031-0.322,0.064-0.643,0.098-0.966c0.08-0.742,0.169-1.487,0.266-2.233
	c0.04-0.31,0.081-0.62,0.124-0.931c0.105-0.756,0.222-1.514,0.346-2.274c0.051-0.31,0.1-0.62,0.153-0.931
	c0.131-0.758,0.274-1.519,0.423-2.281c0.062-0.318,0.122-0.635,0.187-0.953c0.155-0.753,0.324-1.509,0.497-2.266
	c0.076-0.331,0.147-0.662,0.226-0.994c0.177-0.742,0.37-1.487,0.564-2.232c0.091-0.349,0.177-0.697,0.272-1.048
	c0.198-0.729,0.413-1.461,0.628-2.193c0.108-0.368,0.209-0.734,0.321-1.102c0.226-0.741,0.471-1.485,0.714-2.229
	c0.117-0.357,0.225-0.712,0.346-1.07c0.317-0.936,0.654-1.876,0.999-2.817c0.059-0.16,0.11-0.318,0.17-0.478
	c0.173-0.466,0.354-0.92,0.532-1.379c0.16-0.415,0.317-0.836,0.481-1.247c0.26-0.651,0.529-1.29,0.798-1.928
	c0.087-0.207,0.171-0.418,0.259-0.624c0.337-0.786,0.682-1.561,1.032-2.328c0.021-0.045,0.04-0.091,0.061-0.136
	c22.807-49.747,73.432-59.54,112.849-58.734c0.068,0.001,0.138,0.002,0.207,0.002c0.001,0,0.002,0,0.003,0
	c1.73,0.039,3.446,0.096,5.14,0.173c23.397,1.063,42.878-9.583,59.586-32.556c12.02-16.527,21.324-37.77,29.482-57.692l1.539,0.571
	c-6.83,20.416-13.654,42.581-15.343,62.946c-2.347,28.31,5.462,49.102,23.87,63.564c34.169,26.845,70.353,71.084,48.689,129.386
	c-11.945,32.151-36.064,53.985-69.747,63.142c-5.33,1.449-8.476,6.944-7.026,12.273c1.448,5.329,6.941,8.476,12.272,7.026
	c40.174-10.921,68.961-37.021,83.249-75.476C524.435,334.891,504.874,280.881,449.174,237.121z M195.94,446.425
	C111.202,446.389,20,403.051,20,307.984c0-80.607,69.718-114.989,111.275-128.309c26.263-8.418,43.438-28.251,52.506-60.633
	c6.782-24.215,8.281-52.944,9.121-79.442h6.066c0.84,26.498,2.339,55.228,9.121,79.442c9.069,32.382,26.244,52.215,52.506,60.633
	c15.197,4.871,29.054,10.793,41.446,17.7c-44.553,5.684-77.877,26.624-96.731,60.966c-0.274,0.498-0.553,0.993-0.821,1.497
	c-0.395,0.744-0.777,1.498-1.159,2.254c-0.366,0.724-0.727,1.452-1.08,2.186c-0.318,0.663-0.634,1.328-0.942,2
	c-0.418,0.909-0.821,1.829-1.22,2.754c-0.237,0.55-0.479,1.095-0.71,1.651c-0.607,1.464-1.195,2.944-1.755,4.447
	c-0.015,0.04-0.032,0.078-0.047,0.118c-0.051,0.136-0.095,0.272-0.145,0.408c-0.369,1.003-0.729,2.007-1.072,3.011
	c-0.198,0.578-0.38,1.155-0.569,1.733c-0.179,0.549-0.364,1.098-0.535,1.648c-0.236,0.754-0.457,1.508-0.679,2.262
	c-0.102,0.35-0.209,0.699-0.308,1.049c-0.258,0.905-0.501,1.81-0.737,2.714c-0.045,0.172-0.092,0.343-0.136,0.515
	c-7.657,29.741-3.938,59.243,10.915,86.595c0.02,0.037,0.041,0.074,0.061,0.111c0.513,0.943,1.036,1.884,1.576,2.822
	c0.025,0.044,0.049,0.089,0.074,0.133c0.052,0.09,0.109,0.178,0.161,0.268c0.668,1.153,1.357,2.301,2.066,3.445
	c0.181,0.293,0.363,0.585,0.547,0.877c0.725,1.152,1.469,2.301,2.235,3.445c0.073,0.109,0.144,0.22,0.217,0.329
	c0.14,0.208,0.273,0.418,0.414,0.627c12.949,19.02,31.015,35.882,52.627,49.436C242.896,443.075,219.641,446.415,195.94,446.425z"/>
<path d="M471.448,377.009c14.652-39.437-0.526-78.293-43.896-112.366c-14.226-11.177-23.139-24.777-27.247-41.577
	c-0.788-3.222-3.122-5.843-6.231-6.999c-3.108-1.156-6.588-0.694-9.289,1.233c-14.08,10.042-29.715,14.524-47.783,13.698
	c-55.1-2.506-91.964,17.004-106.618,56.442c-11.156,30.026-6.06,59.911,14.74,86.425c16.313,20.795,42.481,38.969,71.793,49.861
	c20.302,7.543,41.737,11.456,61.615,11.456c8.824,0,17.345-0.772,25.318-2.339C436.916,426.341,460.291,407.035,471.448,377.009z
	 M399.993,413.217c-22.415,4.406-50.157,1.403-76.108-8.24c-25.953-9.643-48.925-25.482-63.024-43.457
	c-16.51-21.046-20.455-43.627-11.728-67.116c10.766-28.975,37.126-43.627,78.417-43.627c2.779,0,5.629,0.066,8.542,0.199
	c17.708,0.805,34.081-2.678,48.868-10.372c6.175,15.483,16.308,28.82,30.239,39.765c36.375,28.58,48.993,58.75,37.503,89.674
	C443.972,393.531,426.24,408.057,399.993,413.217z"/>
<path d="M385.361,300.899c0.017,0.015,0.047,0.043,0.068,0.063c1.914,1.753,4.322,2.617,6.725,2.617
	c2.694,0,5.383-1.087,7.357-3.227c3.746-4.059,3.474-10.403-0.584-14.149c-4.06-3.748-10.386-3.492-14.131,0.565
	C381.05,290.826,381.303,297.153,385.361,300.899z"/>
<path d="M424.383,309.371c-1.044-1.179-2.131-2.357-3.229-3.501c-3.824-3.986-10.156-4.114-14.139-0.29
	c-3.984,3.825-4.114,10.155-0.289,14.139c0.913,0.951,1.814,1.93,2.679,2.906c5.379,6.081,9.11,11.892,11.092,17.27
	c2.174,5.903,2.004,10.938-0.604,17.958c-2.805,7.549-6.594,12.425-12.288,15.812c-17.925,10.665-48.841,6.933-71.529-1.496
	c-22.688-8.43-48.54-25.791-55.153-45.575c-2.101-6.283-1.786-12.451,1.018-19.999c5.478-14.746,19.565-20.985,46.96-20.801
	c1.842,0.011,3.724,0.06,5.597,0.146c12.108,0.551,24.068-0.504,35.632-3.142c3.257,1.861,7.431,1.804,10.708-0.491
	c4.523-3.169,5.621-9.405,2.452-13.928c-0.519-0.74-1.024-1.486-1.521-2.237c-2.392-3.624-6.848-5.292-11.032-4.124
	c-11.354,3.167-23.241,4.495-35.327,3.942c-2.133-0.098-4.282-0.153-6.387-0.167c-14.545-0.09-53.139-0.32-65.83,33.835
	c-4.382,11.796-4.788,22.69-1.239,33.306c9.306,27.836,41.992,48.632,67.156,57.982c13.959,5.187,31.967,9.217,49.546,9.216
	c14.109,0,27.944-2.598,39.175-9.28c9.621-5.723,16.428-14.239,20.811-26.035c4.23-11.387,4.429-21.503,0.624-31.836
	C436.42,325.265,431.415,317.322,424.383,309.371z"/>
<path d="M384.307,319.687c-6.38-5.013-12.36-10.544-17.773-16.438c-2.17-2.363-5.345-3.542-8.527-3.168
	c-7.946,0.93-16.084,1.215-24.194,0.844c-2.308-0.105-22.872-0.876-32.722,4.432c-1.916,1.033-3.442,2.663-4.349,4.643
	c-0.3,0.656-0.533,1.261-0.743,1.827c-1.218,3.282-1.408,5.118-1.446,6.213c-0.029,0.859,0.052,1.719,0.242,2.557
	c0.087,0.385,0.21,0.809,0.353,1.244c7.1,21.239,45.764,36.125,46.152,36.269c0.275,0.103,19.977,7.161,38.294,7.161
	c7.505,0,14.78-1.186,20.387-4.522c0.35-0.209,0.742-0.466,1.076-0.715c0.673-0.502,1.279-1.087,1.806-1.741
	c0.692-0.859,1.753-2.382,2.968-5.659c0.198-0.531,0.427-1.168,0.631-1.873c0.604-2.089,0.512-4.318-0.264-6.349
	C402.204,333.959,386.127,321.116,384.307,319.687z M348.264,339.361c-10.218-3.796-23.123-11.432-29.851-17.985
	c4.427-0.467,9.882-0.681,14.488-0.472c7.48,0.341,14.988,0.19,22.387-0.447c5.188,5.315,10.777,10.332,16.663,14.956
	c3.626,2.85,7.615,6.573,10.663,9.817C373.246,345.796,358.482,343.157,348.264,339.361z"/>
<g>
</g>
<g>
</g>
<g>
</g>
<g>
</g>
<g>
</g>
<g>
</g>
<g>
</g>
<g>
</g>
<g>
</g>
<g>
</g>
<g>
</g>
<g>
</g>
<g>
</g>
<g>
</g>
<g>
</g>
</svg>
