<?xml version="1.0" encoding="iso-8859-1"?>
<!-- Generator: Adobe Illustrator 21.0.0, SVG Export Plug-In . SVG Version: 6.00 Build 0)  -->
<svg version="1.1" id="Capa_1" xmlns="http://www.w3.org/2000/svg" xmlns:xlink="http://www.w3.org/1999/xlink" x="0px" y="0px"
	 viewBox="0 0 511.997 511.997" style="enable-background:new 0 0 511.997 511.997;" xml:space="preserve">
<g>
	<g>
		<path style="fill:#00C56E;" d="M152.89,318.301c27.219,35.971,60.295,72.979,98.811,100.771
			c-69.893,45.685-153.61,68.095-241.537,13.432C59.026,411.159,106.409,368.616,152.89,318.301z"/>
		<path style="fill:#00C56E;" d="M215.614,121.501c15.076,22.807,30.051,46.676,45.076,70.768c2.941,4.714,5.883,9.438,8.83,14.164
			c60.373,96.853,122.052,194.641,194.884,239.143c-82.574,36.834-153.964,15.88-212.703-26.504
			c0.002-0.002,0.005-0.003,0.007-0.005c-38.52-27.795-71.591-64.799-98.814-100.771c-0.001,0.001-0.003,0.003-0.004,0.004
			c-29.608-39.128-52.288-77.029-67.507-100.51c3.416-8.424,9.013-16,16.677-21.787c23.381-17.653,57.5-12.245,75.819,12.019
			c-18.32-24.264-14.179-58.558,9.202-76.213C195.596,125.384,205.533,122.017,215.614,121.501z"/>
		<path style="fill:#00C56E;" d="M260.69,192.27c13.394-15.998,26.75-31.76,40.081-46.939c9.915,1.884,19.302,6.572,26.861,14.099
			c20.759,20.674,20.19,55.213-1.264,76.755c21.453-21.543,55.991-22.255,76.75-1.582c6.806,6.777,11.318,15.044,13.553,23.854
			c-15.338,17.786-37.273,44.924-64.418,73.717c-28.428-38.863-55.713-82.394-82.734-125.741c-0.42-0.674-0.84-1.348-1.261-2.022
			C265.735,200.361,263.211,196.313,260.69,192.27z"/>
	</g>
	<g>
		<path style="fill:#87DD60;" d="M326.369,236.186c21.453-21.543,22.023-56.083,1.264-76.755
			c-7.559-7.527-16.946-12.216-26.861-14.099c2.398-2.731,4.796-5.441,7.192-8.131c28.421-28.539,70.642-34.676,102.155-17.43
			c-0.002,0.001-0.004,0.003-0.005,0.004c6.102,3.34,11.805,7.55,16.927,12.65c3.535,3.52,6.627,7.297,9.285,11.278
			c21.086,31.575,14.931,76.042-13.566,107.817c-1.895,2.113-3.925,4.434-6.086,6.939c-2.236-8.809-6.749-17.077-13.553-23.854
			C382.36,213.931,347.823,214.643,326.369,236.186z"/>
		<path style="fill:#87DD60;" d="M92.28,91.519c-5.599,4.227-10.399,9.077-14.407,14.403C62.001,94.288,42.792,82.814,32.118,77.759
			c-10.035-5.245,0.019-32.372,7.775-30.247c17.195,7.274,44.245,21.439,63.341,37.128c-3.789,1.945-7.451,4.232-10.946,6.871
			C92.286,91.515,92.283,91.517,92.28,91.519z"/>
		<path style="fill:#87DD60;" d="M77.873,105.922c4.008-5.326,8.808-10.176,14.407-14.404c1.499-1.132,3.028-2.197,4.583-3.2
			c0.102-0.063,0.203-0.128,0.304-0.192c1.53-0.962,3.107-1.885,4.516-2.659c0.516-0.281,1.036-0.554,1.556-0.821
			c-0.002-0.001-0.003-0.003-0.005-0.004c34.757-17.834,80.244-6.768,106.362,27.824c2.008,2.992,4.014,6.004,6.017,9.035
			c-10.08,0.515-20.018,3.882-28.531,10.31c-23.381,17.653-27.522,51.948-9.202,76.213c-18.32-24.264-52.438-29.672-75.819-12.019
			c-7.665,5.787-13.261,13.363-16.677,21.787c-1.797-2.777-3.492-5.353-5.082-7.704C57.622,176.54,56.423,134.413,77.873,105.922z"
			/>
		<path style="fill:#87DD60;" d="M410.117,119.771c22.632-16.854,60.067-30.64,82.313-36.643c8.336-1.484,14.191,30.772,3.846,33.29
			c-13.694,4.321-40.243,15.802-59.951,27.285c-0.51-0.765-1.034-1.518-1.572-2.261c-2.327-3.215-4.91-6.23-7.713-9.018
			c-0.693-0.692-1.401-1.368-2.121-2.031c-0.183-0.169-0.367-0.337-0.552-0.502C419.96,125.911,415.176,122.539,410.117,119.771z"/>
	</g>
</g>
<path d="M338.196,407.257c-5.441-1.362-10.967,1.949-12.329,7.396c-1.362,5.447,1.95,10.968,7.396,12.329l0.333,0.081
	c0.774,0.18,1.546,0.265,2.308,0.265c4.623,0,8.804-3.174,9.894-7.87C347.07,413.989,343.665,408.526,338.196,407.257z"/>
<path d="M315.306,398.403c-2.015-0.929-4.063-1.92-6.088-2.946c-17.444-8.837-35.276-21.295-53.003-37.028
	c-11.742-10.42-23.621-22.411-35.308-35.64c-3.717-4.208-10.142-4.605-14.35-0.888c-4.208,3.717-4.605,10.143-0.888,14.35
	c12.229,13.843,24.696,26.421,37.05,37.384c19.03,16.889,38.312,30.333,57.31,39.958c2.246,1.139,4.521,2.24,6.761,3.274
	c1.379,0.635,2.826,0.937,4.253,0.937c3.843,0,7.522-2.192,9.238-5.911C322.631,406.794,320.404,400.755,315.306,398.403z"/>
<path d="M103.376,453.915l-0.191-0.016c-5.589-0.453-10.504,3.706-10.965,9.301c-0.459,5.596,3.706,10.504,9.301,10.964l0.39,0.03
	c0.249,0.018,0.496,0.026,0.742,0.026c5.282,0,9.744-4.085,10.13-9.436C113.189,459.186,108.977,454.319,103.376,453.915z"/>
<path d="M408.95,150.284c-4.063-3.877-10.496-3.729-14.375,0.333c-3.835,4.017-3.73,10.357,0.201,14.246
	c0.011,0.011,0.021,0.021,0.027,0.027c1.982,1.981,4.577,2.973,7.174,2.973c2.589-0.001,5.182-0.987,7.166-2.956
	c3.974-3.944,4.001-10.37,0.071-14.36C409.143,150.472,409.025,150.356,408.95,150.284z"/>
<path d="M510.848,93.621c-3.605-17.13-12.801-21.824-20.201-20.504l-0.867,0.193c-18.66,5.037-55.239,17.697-80.529,34.637
	c-12.573-5.721-26.607-8.451-41.274-7.859c-25.126,1.008-48.997,11.639-67.217,29.935c-0.133,0.134-0.262,0.271-0.387,0.412
	c-2.029,2.278-4.056,4.569-6.076,6.863c-0.987,0.773-1.831,1.727-2.482,2.827c-10.59,12.088-20.873,24.161-29.913,34.89
	c-12.117-19.365-24.418-38.816-36.707-57.457c-0.501-1.192-1.219-2.262-2.107-3.168c-1.684-2.541-3.366-5.086-5.048-7.591
	c-0.106-0.157-0.215-0.311-0.328-0.461c-15.559-20.609-37.761-34.391-62.514-38.812c-17.647-3.148-35.034-1.272-50.584,5.255
	C85.186,58.017,60.275,45.094,43.857,38.149l-0.621-0.263l-0.651-0.178c-6.79-1.86-16.098,1.366-21.857,16.016
	c-5.764,14.662-3.078,27.942,6.685,33.044l0.358,0.179c8.059,3.817,22.51,12.213,36.252,21.627
	c-6.207,10.849-10.09,23.186-11.283,36.452c-2.171,24.156,4.628,49.283,19.143,70.753c1.571,2.323,3.255,4.886,5.047,7.651
	c0.012,0.018,0.023,0.037,0.036,0.054c3.18,4.909,6.701,10.471,10.561,16.57c13.292,21,30.787,48.641,52.155,77.511
	C88.452,372.161,45.867,405.812,6.097,423.186c-3.461,1.512-5.798,4.817-6.07,8.584c-0.272,3.766,1.566,7.373,4.772,9.366
	c19.633,12.206,39.938,21.198,60.354,26.728c5.422,1.468,11.002-1.736,12.471-7.155c1.468-5.42-1.735-11.002-7.155-12.471
	c-12.904-3.496-25.801-8.542-38.512-15.061c36.533-19.65,75.351-51.718,120.19-99.185c22.788,29.122,45.344,53.301,68.252,73.169
	c0.188,0.163,0.376,0.324,0.564,0.487c1.582,1.366,3.166,2.713,4.751,4.039c0.268,0.225,0.531,0.456,0.8,0.68
	c0.286,0.238,0.571,0.466,0.856,0.702c0.85,0.703,1.7,1.399,2.551,2.089c0.936,0.761,1.873,1.514,2.81,2.26
	c0.357,0.284,0.712,0.577,1.068,0.859c-33.146,19.769-65.735,31.537-97.043,35.016c-2.135,0.238-4.299,0.441-6.431,0.604
	c-5.599,0.426-9.791,5.311-9.365,10.909c0.407,5.335,4.862,9.395,10.127,9.395c0.259-0.001,0.521-0.01,0.783-0.03
	c2.368-0.18,4.769-0.405,7.136-0.669c36.522-4.06,74.317-18.251,112.433-42.192c42.011,28.945,84.905,43.459,128.353,43.459
	c29.368,0,58.998-6.631,88.758-19.906c3.448-1.539,5.76-4.862,6.003-8.63c0.243-3.768-1.623-7.361-4.845-9.33
	c-36.951-22.578-71.353-59.914-104.238-103.984c17.954-19.399,33.409-37.706,46.06-52.695c4.656-5.517,8.903-10.549,12.722-14.979
	c0.009-0.01,0.018-0.021,0.029-0.033c2.154-2.499,4.176-4.813,6.051-6.903c17.303-19.294,27.461-43.262,28.6-67.488
	c0.728-15.47-2.293-30.206-8.674-43.224c17.267-9.174,37.528-17.807,48.845-21.41C509.642,123.317,514.361,110.308,510.848,93.621z
	 M40.619,58.922c13.018,5.852,30.025,14.818,44.799,25.045c-0.899,0.694-1.779,1.409-2.647,2.138
	c-0.182,0.152-0.357,0.311-0.538,0.465c-0.86,0.734-1.704,1.485-2.532,2.252c-0.245,0.227-0.49,0.452-0.732,0.681
	c-0.949,0.899-1.883,1.812-2.787,2.752c-14.078-9.697-28.822-18.334-38.114-22.911C37.77,66.86,39.029,62.001,40.619,58.922z
	 M85.853,112.225l0.141-0.187c0.215-0.285,0.439-0.562,0.659-0.843c0.382-0.489,0.77-0.974,1.168-1.453
	c0.236-0.285,0.472-0.569,0.713-0.85c0.597-0.693,1.208-1.377,1.838-2.047c0.186-0.198,0.378-0.391,0.567-0.587
	c0.568-0.589,1.149-1.169,1.744-1.738c0.163-0.156,0.322-0.315,0.486-0.47c0.724-0.679,1.469-1.343,2.231-1.993
	c0.182-0.156,0.366-0.308,0.549-0.461c0.802-0.669,1.616-1.329,2.459-1.964c0.738-0.557,1.49-1.1,2.255-1.627
	c0.028-0.02,0.059-0.038,0.087-0.058c2.277-1.564,4.665-2.99,7.131-4.256l0.218-0.112c9.322-4.748,19.694-7.205,30.49-7.205
	c4.292,0,8.652,0.387,13.036,1.17c18.04,3.221,34.403,12.758,46.604,27.021c-6.18,2.095-12.004,5.154-17.269,9.131
	c-17.802,13.441-26.292,34.816-24.467,56.008c-4.177-1.58-8.538-2.74-13.028-3.453c-17.118-2.711-33.994,1.421-47.525,11.637
	c-4.07,3.072-7.72,6.641-10.893,10.601C67.879,168.92,68.599,135.237,85.853,112.225z M442.72,443.268
	c-64.479,22.506-128.406,10.288-190.445-36.42c-0.142-0.107-0.284-0.211-0.426-0.319c-0.702-0.53-1.402-1.07-2.102-1.607
	c-0.355-0.273-0.711-0.543-1.065-0.817c-0.667-0.517-1.334-1.043-2-1.568c-0.349-0.274-0.697-0.545-1.046-0.821
	c-2.039-1.62-4.077-3.277-6.112-4.971c-60.821-50.647-107.143-123.834-134.82-167.56c-2.736-4.322-5.296-8.364-7.705-12.13
	c2.798-5.05,6.596-9.468,11.188-12.934c9.085-6.857,20.481-9.624,32.09-7.781c11.751,1.863,22.223,8.188,29.489,17.812
	c3.384,4.482,9.76,5.371,14.24,1.988c2.647-1.999,4.041-5.042,4.041-8.122c0-2.133-0.669-4.283-2.054-6.117
	c-14.989-19.851-11.752-47.652,7.214-61.972c5.117-3.864,11.033-6.444,17.347-7.611c13.901,21.199,27.847,43.435,41.505,65.331
	c0.001,0.001,0.002,0.003,0.003,0.004l5.8,9.303c1.953,3.133,3.912,6.276,5.874,9.421c13.714,21.988,27.548,44.049,41.617,65.537
	c0.161,0.245,0.321,0.491,0.482,0.736c1.52,2.319,3.042,4.63,4.567,6.935c0.403,0.609,0.806,1.218,1.21,1.826
	c1.28,1.929,2.563,3.852,3.847,5.77c0.678,1.013,1.356,2.023,2.035,3.032c1.016,1.509,2.032,3.013,3.051,4.514
	c7.764,11.447,15.596,22.646,23.502,33.453c0.087,0.119,0.188,0.226,0.28,0.341C375.245,380.715,407.679,417.692,442.72,443.268z
	 M353.257,316.168c-3.959-5.553-7.897-11.191-11.817-16.901c-0.231-0.337-0.462-0.675-0.693-1.012
	c-1.382-2.016-2.76-4.041-4.137-6.075c-0.721-1.065-1.442-2.131-2.162-3.201c-0.574-0.853-1.149-1.706-1.723-2.562
	c-1.304-1.947-2.608-3.9-3.909-5.861c-0.315-0.475-0.63-0.95-0.945-1.425c-16.235-24.511-32.205-49.985-47.876-75.115
	c-0.274-0.44-0.549-0.881-0.825-1.322c-0.669-1.073-1.336-2.143-2.004-3.215c-0.672-1.079-1.344-2.157-2.016-3.235
	c-0.426-0.684-0.857-1.376-1.285-2.061l-0.647-1.037c9.16-10.908,19.911-23.6,31.08-36.41c6.099,2.016,11.614,5.369,16.159,9.895
	c8.066,8.032,12.4,18.928,12.207,30.681c-0.195,11.895-4.99,23.152-13.5,31.697c-1.974,1.983-2.963,4.578-2.963,7.172
	c-0.001,2.609,0.998,5.218,2.992,7.206c3.978,3.961,10.415,3.949,14.379-0.029c17.553-17.625,45.533-18.321,62.373-1.551
	c4.077,4.061,7.239,8.955,9.323,14.338c-2.898,3.402-5.984,7.056-9.281,10.963C384.119,281.171,369.765,298.181,353.257,316.168z
	 M419.641,239.387c-2.604-4.355-5.735-8.388-9.348-11.986c-0.158-0.158-0.32-0.307-0.48-0.463
	c9.333-13.479,14.438-29.755,13.574-44.325c-0.331-5.605-5.148-9.869-10.749-9.548c-5.606,0.331-9.88,5.144-9.548,10.749
	c0.593,10.012-3.23,21.784-9.972,31.531c-12.968-6.115-27.711-7.543-41.712-4.312c0.977-4.358,1.515-8.837,1.589-13.384
	c0.286-17.326-6.174-33.457-18.189-45.423c-4.676-4.655-10.027-8.479-15.865-11.396c14.03-12.469,31.539-19.689,49.85-20.424
	c13.14-0.54,25.583,2.347,36.349,8.235l0.089,0.049c0.62,0.34,1.233,0.691,1.841,1.05c0.187,0.111,0.372,0.225,0.557,0.338
	c0.876,0.529,1.736,1.081,2.585,1.649c0.376,0.253,0.754,0.504,1.125,0.766c0.392,0.275,0.78,0.556,1.166,0.84
	c0.551,0.406,1.096,0.819,1.634,1.243c0.258,0.202,0.518,0.404,0.775,0.61c0.711,0.576,1.409,1.171,2.097,1.779
	c0.206,0.182,0.411,0.365,0.614,0.55c0.758,0.687,1.509,1.387,2.239,2.114c0.798,0.795,1.567,1.608,2.314,2.434
	c0.282,0.312,0.549,0.635,0.824,0.953c0.448,0.515,0.897,1.032,1.327,1.559c0.329,0.404,0.644,0.817,0.962,1.229
	c0.353,0.455,0.706,0.91,1.044,1.374c0.337,0.461,0.661,0.928,0.985,1.397C445,174.16,442.17,210.506,419.641,239.387z
	 M491.426,107.301c-13.003,4.315-34.248,13.452-52.339,23.206c-0.029-0.035-0.061-0.067-0.09-0.102
	c-0.686-0.808-1.391-1.603-2.111-2.389c-0.139-0.151-0.28-0.302-0.42-0.453c-0.737-0.792-1.484-1.577-2.254-2.343
	c-0.869-0.865-1.758-1.704-2.659-2.527c-0.094-0.085-0.185-0.172-0.279-0.256c-0.924-0.838-1.866-1.652-2.82-2.446
	c-0.01-0.008-0.018-0.016-0.029-0.024c18.353-10.618,42.544-20.022,61.625-25.609C491.348,98.168,492.051,104.243,491.426,107.301z"
	/>
<g>
</g>
<g>
</g>
<g>
</g>
<g>
</g>
<g>
</g>
<g>
</g>
<g>
</g>
<g>
</g>
<g>
</g>
<g>
</g>
<g>
</g>
<g>
</g>
<g>
</g>
<g>
</g>
<g>
</g>
</svg>
