<svg height="472pt" viewBox="-7 0 472 472.89638" width="472pt" xmlns="http://www.w3.org/2000/svg"><g fill="#389a6b"><path d="m405.945312 443.519531-40.136718-8c-26.289063-5.253906-53.382813-4.964843-79.550782.847657l-17.464843 3.890624c-3.617188.800782-7.40625-.085937-10.292969-2.410156-2.886719-2.320312-4.5625-5.828125-4.554688-9.535156 0-5.25 3.359376-9.914062 8.34375-11.574219 41.222657-13.738281 85.882813-13.136719 126.71875 1.710938l24.9375 9.070312zm0 0"/><path d="m261.945312 319.160156-40.136718-8c-26.285156-5.261718-53.382813-4.976562-79.550782.839844l-17.464843 3.886719c-3.617188.804687-7.40625-.078125-10.292969-2.398438-2.886719-2.320312-4.5625-5.832031-4.554688-9.535156 0-5.253906 3.359376-9.914063 8.34375-11.578125 41.222657-13.734375 85.882813-13.132812 126.71875 1.714844l24.9375 9.070312zm0 0"/><path d="m416.511719 427.863281-6.984375-40.328125c-4.566406-26.414062-3.574219-53.492187 2.914062-79.503906l4.335938-17.359375c.890625-3.589844.109375-7.390625-2.128906-10.335937-2.238282-2.945313-5.695313-4.714844-9.390626-4.816407-5.25-.132812-9.996093 3.105469-11.785156 8.039063-14.816406 40.851562-15.378906 85.511718-1.601562 126.722656l8.472656 25.167969zm0 0"/><path d="m272.511719 306.839844-6.984375-40.34375c-4.566406-26.414063-3.574219-53.488282 2.914062-79.496094l4.335938-17.367188c.890625-3.589843.105468-7.386718-2.132813-10.328124-2.238281-2.941407-5.691406-4.710938-9.386719-4.808594-5.242187-.144532-9.988281 3.078125-11.785156 8-14.816406 40.851562-15.378906 85.515625-1.601562 126.726562l8.472656 25.203125zm0 0"/><path d="m397.945312 414.96875-20-35.671875c-13.121093-23.375-21.21875-49.234375-23.769531-75.921875l-1.703125-17.804688c-.351562-3.6875-2.355468-7.011718-5.449218-9.042968s-6.941407-2.550782-10.464844-1.40625c-4.992188 1.625-8.386719 6.257812-8.429688 11.511718-.335937 43.457032 14.046875 85.75 40.800782 120l16.328124 20.917969zm0 0"/><path d="m148.160156 142.359375-2.824218-12.984375c-7.148438-32.882812-2.859376-67.226562 12.160156-97.34375l3.632812-7.285156c1.703125-3.421875 1.53125-7.476563-.460937-10.738282-1.992188-3.261718-5.519531-5.273437-9.339844-5.320312-3.910156-.042969-7.554687 1.96875-9.601563 5.296875-24.777343 40.332031-28.734374 90.09375-10.636718 133.832031l.972656 2.351563zm0 0"/><path d="m131.273438 120.359375-9.25-18.925781c-11.894532-24.351563-21.753907-49.640625-29.480469-75.617188l-5.078125-17.089844c-1.050782-3.542968-3.652344-6.417968-7.074219-7.820312-3.421875-1.398438-7.292969-1.171875-10.527344.621094-4.617187 2.554687-7.070312 7.785156-6.078125 12.96875 8.136719 43.265625 27.058594 83.777344 55.015625 117.785156l2.398438 2.886719zm0 0"/><path d="m125 155.863281-19.625-7.664062c-25.242188-9.867188-51.257812-17.628907-77.78125-23.199219l-17.449219-3.664062c-3.621093-.757813-6.703125-3.121094-8.378906-6.421876-1.671875-3.300781-1.7578125-7.183593-.230469-10.554687 2.183594-4.78125 7.183594-7.628906 12.410156-7.0625 43.773438 4.578125 85.6875 20.125 121.863282 45.199219l3.078125 2.136718zm0 0"/><path d="m238.457031 306.496094-29.089843-28.800782c-19.054688-18.855468-41.832032-33.527343-66.878907-43.078124l-16.71875-6.402344c-3.460937-1.3125-6.132812-4.128906-7.269531-7.652344s-.609375-7.371094 1.429688-10.457031c2.886718-4.382813 8.253906-6.429688 13.328124-5.074219 41.984376 11.222656 78.9375 36.316406 104.855469 71.199219l15.832031 21.3125zm0 0"/><path d="m449.144531 472.894531-77.351562-58.007812c-76.652344-57.476563-144.269531-126.101563-200.609375-203.589844l-43.710938-60.097656 12.941406-9.40625 43.707032 60.09375c55.402344 76.203125 121.898437 143.683593 197.277344 200.203125l77.34375 58.007812zm0 0"/></g></svg>