<svg height="456pt" viewBox="-51 0 456 456.00038" width="456pt" xmlns="http://www.w3.org/2000/svg"><g fill="#389a6b"><path d="m175.984375 408 11.046875-44.199219c8.140625-32.535156 31.410156-59.183593 62.550781-71.632812l4.664063-1.863281c3.644531-1.460938 7.8125-.414063 10.328125 2.597656 2.519531 3.011718 2.8125 7.300781.726562 10.625l-18.988281 30.402344c-4.191406 6.699218-9.125 12.90625-14.714844 18.496093zm0 0"/><path d="m159.984375 234.144531 35.535156-28.542969c26.15625-20.980468 60.796875-28.125 93.117188-19.203124l4.800781 1.335937c3.78125 1.046875 6.460938 4.40625 6.640625 8.324219.183594 3.917968-2.171875 7.507812-5.839844 8.902344l-33.457031 12.726562c-7.390625 2.800781-15.074219 4.753906-22.902344 5.824219zm0 0"/><path d="m160.574219 226.144531 8.847656-26.398437c9.089844-27.101563 28.472656-49.539063 53.960937-62.472656 4.621094-2.339844 10.238282-1.265626 13.671876 2.613281 3.429687 3.882812 3.808593 9.589843.917968 13.890625l-9.238281 13.726562c-6.828125 10.148438-15.320313 19.070313-25.113281 26.398438zm0 0"/><path d="m175.984375 72 18.277344-14.273438c18.792969-14.65625 42.59375-21.339843 66.273437-18.613281 4.296875.492188 7.714844 3.824219 8.316406 8.105469.601563 4.285156-1.769531 8.429688-5.765624 10.085938l-12.742188 5.296874c-9.417969 3.910157-19.421875 6.214844-29.601562 6.804688zm0 0"/><path d="m170.160156 72-20.890625-16.296875c-21.453125-16.757813-48.640625-24.410156-75.6875-21.304687-4.921875.550781-8.847656 4.363281-9.535156 9.269531-.6875 4.902343 2.035156 9.648437 6.617187 11.53125l14.558594 6.058593c10.753906 4.472657 22.1875 7.101563 33.816406 7.773438zm0 0"/><path d="m159.984375 228.28125-8.851563-26.402344c-9.089843-27.097656-28.46875-49.535156-53.957031-62.472656-4.621093-2.335938-10.242187-1.261719-13.671875 2.617188-3.429687 3.882812-3.808594 9.589843-.921875 13.890624l9.242188 13.726563c6.824219 10.148437 15.316406 19.074219 25.109375 26.398437zm0 0"/><path d="m156.132812 234.144531-35.535156-28.542969c-26.15625-20.980468-60.796875-28.125-93.117187-19.203124l-4.800781 1.335937c-3.78125 1.046875-6.460938 4.40625-6.640626 8.324219-.183593 3.917968 2.171876 7.507812 5.839844 8.902344l33.503906 12.703124c7.390626 2.800782 15.074219 4.753907 22.902344 5.824219zm0 0"/><path d="m175.984375 406.398438-11.050781-44.199219c-8.132813-32.542969-31.402344-59.199219-62.550782-71.65625l-4.664062-1.863281c-3.640625-1.460938-7.8125-.410157-10.328125 2.597656-2.519531 3.011718-2.8125 7.300781-.726563 10.625l18.992188 30.402344c4.191406 6.695312 9.125 12.898437 14.710938 18.488281zm0 0"/><path d="m175.984375 400 26.070313-16.59375c40.445312-25.734375 87.390624-39.402344 135.328124-39.40625h8.121094c4.527344.003906 8.425782 3.191406 9.339844 7.625.910156 4.433594-1.421875 8.898438-5.582031 10.6875l-30.925781 13.246094c-25.394532 10.886718-52.40625 17.523437-79.953126 19.640625zm0 0"/><path d="m179.054688 408-26.070313-16.59375c-40.445313-25.734375-87.390625-39.402344-135.328125-39.40625h-8.121094c-4.527344.003906-8.429687 3.191406-9.339844 7.625-.910156 4.433594 1.417969 8.898438 5.578126 10.6875l30.929687 13.246094c25.40625 10.894531 52.4375 17.527344 80 19.640625zm0 0"/></g><path d="m238.671875 8.113281c-19.371094 3.300781-37.316406 12.308594-51.539063 25.871094l4.707032-24.472656c.832031-4.339844-2.007813-8.53125-6.34375-9.367188-4.339844-.835937-8.535156 2.003907-9.371094 6.34375l-5.085938 26.457031c-.71875 3.734376-1.351562 7.472657-2.03125 11.199219-7.816406-16.042969-19.96875-29.574219-35.082031-39.0625-2.429687-1.566406-5.515625-1.699219-8.070312-.34375-2.554688 1.351563-4.183594 3.976563-4.253907 6.867188-.074218 2.890625 1.417969 5.59375 3.902344 7.074219 23.597656 14.480468 37.601563 40.519531 36.664063 68.191406v.105468c-14.328125 103.835938-12.53125 209.261719 5.328125 312.550782l8.589844 49.816406c.65625 3.847656 3.992187 6.660156 7.898437 6.65625.457031.003906.914063-.035156 1.367187-.121094 4.351563-.75 7.269532-4.886718 6.519532-9.238281l-8.59375-49.839844c-18.546875-107.269531-19.488282-216.84375-2.789063-324.417969 10.386719-25.691406 33.441407-44.09375 60.796875-48.527343 2.890625-.390625 5.339844-2.324219 6.390625-5.042969s.539063-5.796875-1.335937-8.027344c-1.875-2.234375-4.816406-3.269531-7.675782-2.703125zm0 0" fill="#77c974"/></svg>