<svg height="488pt" viewBox="-8 0 488 488.00946" width="488pt" xmlns="http://www.w3.org/2000/svg"><g fill="#2e8059"><path d="m248.007812 488.007812c-3.648437 0-6.832031-2.46875-7.746093-6l-7.710938-29.863281c-37.1875-144.136719-34.496093-295.671875 7.785157-438.398437 1.253906-4.238282 5.707031-6.65625 9.941406-5.402344 4.238281 1.257812 6.65625 5.707031 5.402344 9.945312-41.460938 139.949219-44.101563 288.535157-7.632813 429.863282l7.703125 29.863281c1.109375 4.28125-1.464844 8.648437-5.742188 9.753906-.65625.160157-1.328124.242188-2 .238281zm0 0"/><path d="m280.007812 488.007812c-2.832031-.003906-5.453124-1.503906-6.886718-3.945312s-1.472656-5.457031-.097656-7.933594l18.320312-32.96875c65.539062-117.480468 92.386719-252.628906 76.71875-386.238281-.503906-4.390625 2.644531-8.355469 7.035156-8.859375s8.355469 2.644531 8.859375 7.035156c16.058594 136.925782-11.453125 275.429688-78.632812 395.824219l-18.316407 32.96875c-1.414062 2.542969-4.09375 4.121094-7 4.117187zm0 0"/><path d="m176.007812 488.007812c-2.597656.003907-5.035156-1.253906-6.539062-3.375-87.753906-123.871093-117.667969-279.632812-82.039062-427.199218l.800781-3.289063c1.039062-4.292969 5.359375-6.933593 9.65625-5.894531 4.292969 1.039062 6.933593 5.359375 5.894531 9.65625l-.800781 3.289062c-34.546875 143.074219-5.542969 294.101563 79.546875 414.207032 1.71875 2.4375 1.9375 5.632812.566406 8.28125-1.371094 2.652344-4.105469 4.320312-7.085938 4.324218zm0 0"/><path d="m344.007812 360.007812c-3.800781 0-7.074218-2.675781-7.832031-6.398437l-1.539062-7.65625c-4.460938-22.457031-3.914063-45.625 1.601562-67.847656.636719-2.832031 2.757813-5.097657 5.542969-5.917969 2.78125-.820312 5.792969-.070312 7.863281 1.964844 2.074219 2.03125 2.882813 5.027344 2.113281 7.824218-4.949218 19.929688-5.441406 40.699219-1.449218 60.839844l1.53125 7.65625c.84375 4.304688-1.9375 8.488282-6.234375 9.375-.527344.113282-1.0625.164063-1.597657.160156zm0 0"/><path d="m344.007812 360.007812c-1.019531 0-2.03125-.191406-2.976562-.566406-27.257812-10.800781-45.125-37.191406-45.023438-66.511718v-12.921876c0-4.417968 3.578126-8 8-8 4.417969 0 8 3.582032 8 8v12.921876c-.078124 22.019531 12.90625 41.984374 33.0625 50.847656l5.601563-.800782c25.257813-3.542968 45.28125-23.101562 49.414063-48.269531.390624-2.890625 2.324218-5.339843 5.042968-6.390625 2.71875-1.050781 5.796875-.539062 8.027344 1.335938 2.234375 1.875 3.269531 4.816406 2.707031 7.675781-5.257812 32.0625-30.753906 56.980469-62.929687 61.496094l-7.832032 1.113281c-.363281.050781-.730468.074219-1.09375.070312zm0 0"/><path d="m319.207031 466.296875c-8.328125.007813-16.636719-.8125-24.800781-2.449219-2.207031-.4375-4.128906-1.789062-5.289062-3.71875-16.441407-27.421875-25.121094-58.792968-25.109376-90.765625v-1.355469c0-4.417968 3.578126-8 8-8 4.417969 0 8 3.582032 8 8v1.355469c.003907 27.859375 7.257813 55.238281 21.046876 79.445313 23.128906 3.820312 46.871093.25 67.855468-10.199219l11.519532-5.761719c3.953124-1.972656 8.761718-.367187 10.738281 3.585938 1.972656 3.953125.367187 8.761718-3.585938 10.734375l-11.511719 5.753906c-17.664062 8.796875-37.128906 13.375-56.863281 13.375zm0 0"/><path d="m296.007812 464.007812c-3.527343.007813-6.640624-2.300781-7.667968-5.675781-1.023438-3.375.285156-7.023437 3.21875-8.980469l18.230468-12.15625c18.355469-12.242187 33.191407-29.066406 43.050782-48.800781 1.972656-3.957031 6.78125-5.558593 10.734375-3.585937 3.953125 1.976562 5.558593 6.78125 3.582031 10.738281-11.117188 22.210937-27.832031 41.140625-48.492188 54.925781l-18.226562 12.152344c-1.308594.890625-2.851562 1.371094-4.429688 1.382812zm0 0"/><path d="m368.007812 240.007812c-1.871093.003907-3.683593-.652343-5.121093-1.847656l-10.617188-8.847656c-25.277343-21.15625-37.503906-54.089844-32.152343-86.613281.390624-2.890625 2.324218-5.339844 5.042968-6.390625 2.722656-1.050782 5.796875-.539063 8.03125 1.335937 2.230469 1.875 3.265625 4.816407 2.703125 7.675781-4.425781 26.925782 5.695313 54.183594 26.617188 71.695313l6.023437 5.027344.933594-.625c25.773438-17.238281 45.097656-42.539063 54.945312-71.9375 1.394532-4.195313 5.929688-6.46875 10.128907-5.070313 4.195312 1.394532 6.46875 5.929688 5.070312 10.128906-10.984375 32.773438-32.535156 60.976563-61.269531 80.191407l-5.898438 3.933593c-1.3125.878907-2.859374 1.347657-4.4375 1.34375zm0 0"/><path d="m368.007812 240.007812c-3.574218 0-6.710937-2.371093-7.691406-5.804687l-4.796875-16.800781c-7.6875-27.007813-8.835937-55.453125-3.351562-82.992188.472656-2.886718 2.484375-5.28125 5.242187-6.25 2.757813-.96875 5.824219-.355468 8 1.597656 2.171875 1.957032 3.109375 4.941407 2.4375 7.789063-4.976562 25.039063-3.929687 50.898437 3.054688 75.453125l4.800781 16.800781c1.210937 4.25-1.25 8.675781-5.496094 9.886719-.714843.207031-1.457031.3125-2.199219.320312zm0 0"/><path d="m376.007812 240.007812c-4.21875-.011718-7.699218-3.296874-7.960937-7.503906-.261719-4.210937 2.792969-7.898437 6.976563-8.429687l17.710937-2.21875c26.808594-3.269531 50.597656-18.765625 64.421875-41.964844 1.445312-2.507813 4.132812-4.039063 7.023438-4.003906 2.894531.03125 5.542968 1.625 6.929687 4.164062 1.386719 2.539063 1.296875 5.625-.238281 8.078125-16.347656 27.421875-44.464844 45.734375-76.152344 49.601563l-17.710938 2.207031c-.332031.042969-.667968.066406-1 .070312zm0 0"/><path d="m376.007812 96.007812c-1.242187 0-2.464843-.289062-3.578124-.839843l-5.0625-2.535157c-29.101563-14.425781-47.472657-44.140624-47.359376-76.625 0-4.417968 3.578126-8 8-8 4.417969 0 8 3.582032 8 8-.089843 26.414063 14.84375 50.582032 38.511719 62.3125l.46875.234376c20.980469-17.414063 33.085938-43.28125 33.019531-70.546876 0-4.417968 3.578126-7.9999995 8-7.9999995 4.417969 0 8 3.5820315 8 7.9999995.078126 32.789063-14.835937 63.816407-40.488281 84.234376l-2.511719 2.015624c-1.421874 1.132813-3.183593 1.753907-5 1.75zm0 0"/><path d="m376.007812 88.007812c-2.125 0-4.15625-.84375-5.65625-2.34375-16.925781-16.8125-22.820312-41.785156-15.203124-64.390624l5.265624-15.792969c1.394532-4.195313 5.929688-6.46875 10.128907-5.070313 4.195312 1.394532 6.46875 5.929688 5.070312 10.128906l-5.261719 15.796876c-5.320312 15.730468-1.867187 33.101562 9.0625 45.601562 28.238282-1.542969 52.414063-20.765625 60.28125-47.929688l.621094-2.160156c1.3125-4.121094 5.667969-6.457031 9.828125-5.265625 4.160157 1.191407 6.617188 5.472657 5.550781 9.667969l-.617187 2.160156c-10.203125 35.21875-42.40625 59.492188-79.070313 59.597656zm0 0"/><path d="m224.007812 408.007812h-4.921874c-29.320313.097657-55.707032-17.769531-66.503907-45.03125-1.175781-2.675781-.800781-5.78125.980469-8.097656s4.6875-3.480468 7.574219-3.027344c2.890625.449219 5.300781 2.441407 6.292969 5.191407 8.394531 21.164062 28.886718 35.039062 51.65625 34.964843h3.03125l11.136718-5.597656c18.886719-9.363281 30.8125-28.648437 30.753906-49.730468-.03125-4.484376 3.515626-8.179688 8-8.335938 2.085938-.074219 4.113282.699219 5.617188 2.140625 1.507812 1.445313 2.367188 3.4375 2.382812 5.523437.289063 27.386719-15.089843 52.53125-39.601562 64.746094l-12.800781 6.398438c-1.117188.5625-2.347657.855468-3.597657.855468zm0 0"/><path d="m216.007812 296.007812c-.746093 0-1.484374-.101562-2.203124-.300781l-9.207032-2.632812c-31.496094-9.097657-55-35.429688-60.480468-67.753907-.5625-2.859374.472656-5.800781 2.703124-7.675781 2.234376-1.875 5.3125-2.386719 8.03125-1.335937 2.71875 1.050781 4.652344 3.5 5.042969 6.390625 4.449219 26.234375 23.535157 47.605469 49.105469 54.980469l6.46875 1.851562 6.730469-2.875c25.378906-10.859375 41.828125-35.8125 41.808593-63.414062v-5.234376c0-4.417968 3.578126-8 8-8 4.417969 0 8 3.582032 8 8v5.234376c.027344 34.003906-20.238281 64.746093-51.503906 78.121093l-9.347656 4c-.992188.425781-2.066406.644531-3.148438.644531zm0 0"/><path d="m216.007812 176.007812c-1.582031.003907-3.125-.464843-4.441406-1.34375l-14.71875-9.816406c-23.042968-15.320312-36.875-41.167968-36.839844-68.839844 0-4.417968 3.578126-8 8-8 4.417969 0 8 3.582032 8 8-.027343 22.320313 11.132813 43.171876 29.71875 55.53125l10.855469 7.238282 18.398438-9.214844c14.628906-7.300781 26.0625-19.722656 32.128906-34.90625l5.441406-13.597656c1.636719-4.105469 6.292969-6.105469 10.398438-4.464844s6.105469 6.296875 4.464843 10.398438l-5.449218 13.601562c-7.515625 18.820312-21.691406 34.226562-39.824219 43.28125l-22.558594 11.335938c-1.113281.539062-2.339843.8125-3.574219.796874zm0 0"/><path d="m232.007812 80.007812c-2.519531 0-4.890624-1.183593-6.402343-3.199218l-4.800781-6.398438c-13.457032-18.027344-20.75-39.90625-20.796876-62.402344 0-4.417968 3.578126-7.9999995 8-7.9999995 4.417969 0 8 3.5820315 8 7.9999995.039063 19.035157 6.210938 37.550782 17.597657 52.800782l1.066406 1.402344c20.570313-9.425782 36.742187-26.382813 45.183594-47.378907l.71875-1.796875c1.640625-4.105468 6.296875-6.105468 10.398437-4.464844 4.105469 1.636719 6.105469 6.292969 4.464844 10.398438l-.71875 1.800781c-10.613281 26.394531-31.523438 47.324219-57.914062 57.953125l-1.804688.71875c-.953125.378906-1.96875.570313-2.992188.566406zm0 0"/><path d="m216.007812 176.007812h-.539062c-2.609375-.175781-4.972656-1.617187-6.320312-3.863281l-8.070313-13.457031c-11.363281-18.804688-14.722656-41.378906-9.328125-62.679688l.496094-1.964843c.636718-2.832031 2.757812-5.097657 5.542968-5.917969 2.78125-.820312 5.792969-.070312 7.863282 1.960938 2.074218 2.035156 2.882812 5.027343 2.113281 7.828124l-.488281 1.96875c-4.34375 17.167969-1.636719 35.367188 7.519531 50.527344l2.152344 3.582032 8.433593-10.542969c9.441407-11.832031 14.59375-26.515625 14.625-41.65625v-5.785157c0-4.417968 3.578126-8 8-8 4.417969 0 8 3.582032 8 8v5.785157c-.027343 18.785156-6.417968 37.007812-18.136718 51.6875l-15.617188 19.527343c-1.519531 1.898438-3.816406 3.003907-6.246094 3zm0 0"/><path d="m216.007812 296.007812c-2.433593.003907-4.730468-1.101562-6.25-3l-9.601562-12c-15.695312-19.59375-21.902344-45.136718-16.949219-69.75l.96875-4.800781c.472657-2.882812 2.484375-5.28125 5.242188-6.25 2.757812-.96875 5.824219-.355469 8 1.601563 2.171875 1.953125 3.109375 4.9375 2.4375 7.785156l-.960938 4.800781c-4.023437 19.980469 1.023438 40.722657 13.777344 56.621094l3.335937 4.195313 8.878907-11.105469c9.773437-12.242188 15.101562-27.4375 15.121093-43.105469v-12.992188c0-4.417968 3.578126-8 8-8 4.417969 0 8 3.582032 8 8v12.992188c-.027343 19.296875-6.589843 38.015625-18.625 53.097656l-15.128906 18.910156c-1.519531 1.898438-3.816406 3.003907-6.246094 3zm0 0"/><path d="m232.007812 408.007812c-1.453124 0-2.878906-.394531-4.121093-1.140624l-19.816407-11.890626c-14.660156-8.796874-25.6875-22.546874-31.097656-38.765624l-.558594-1.691407c-1.386718-4.195312.890626-8.722656 5.089844-10.109375 4.195313-1.386718 8.722656.890625 10.109375 5.085938l.5625 1.671875c4.199219 12.589843 12.765625 23.265625 24.148438 30.089843l12.402343 7.449219 5.421876-10.839843c3.84375-7.734376 5.851562-16.246094 5.859374-24.882813v-16.976563c0-4.417968 3.578126-8 8-8 4.417969 0 8 3.582032 8 8v16.976563c-.015624 11.121094-2.601562 22.085937-7.5625 32.042969l-9.277343 18.558594c-1 1.992187-2.78125 3.480468-4.921875 4.101562-.726563.214844-1.480469.324219-2.238282.320312zm0 0"/><path d="m80.007812 152.007812c-1.820312.003907-3.582031-.617187-5-1.75-27.242187-21.6875-43.078124-54.628906-43-89.449218v-4.800782c0-4.417968 3.578126-8 8-8 4.417969 0 8 3.582032 8 8v4.800782c-.070312 28.273437 12.070313 55.203125 33.300782 73.871094 32.058594-14.976563 57.460937-41.253907 71.34375-73.796876 1.78125-3.996093 6.441406-5.820312 10.460937-4.097656s5.910157 6.355469 4.246094 10.398438c-16.160156 37.871094-46.328125 68.03125-84.203125 84.179687-.992188.429688-2.066406.648438-3.148438.644531zm0 0"/><path d="m80.007812 152.007812c-.472656.003907-.945312-.039062-1.410156-.125-2.882812-.515624-5.257812-2.566406-6.183594-5.34375l-10.527343-31.59375c-3.898438-11.683593-5.882813-23.917968-5.878907-36.230468v-22.707032c0-4.417968 3.578126-8 8-8 4.417969 0 8 3.582032 8 8v22.707032c-.007812 10.601562 1.699219 21.136718 5.054688 31.199218l5.878906 17.648438 5.847656-7.3125c10.644532-13.289062 18.84375-28.359375 24.21875-44.511719l7.40625-22.226562c1.394532-4.195313 5.929688-6.464844 10.128907-5.070313 4.195312 1.394532 6.46875 5.929688 5.070312 10.128906l-7.429687 22.238282c-5.96875 17.945312-15.074219 34.6875-26.898438 49.449218l-15.03125 18.792969c-1.527344 1.878907-3.824218 2.96875-6.246094 2.957031zm0 0"/><path d="m88.007812 288.007812c-.960937 0-1.910156-.171874-2.808593-.503906l-16.625-6.238281c-32.265625-12.027344-57.332031-38.039063-68.160157-70.726563-1.394531-4.199218.875-8.734374 5.070313-10.128906 4.199219-1.398437 8.734375.875 10.128906 5.070313 9.300781 28.105469 30.851563 50.46875 58.59375 60.800781l12.367188 4.640625 3.152343-2.519531c20.542969-16.414063 35.894532-38.429688 44.191407-63.386719l2.511719-7.535156c1.398437-4.195313 5.929687-6.46875 10.128906-5.070313 4.195312 1.394532 6.46875 5.929688 5.070312 10.128906l-2.519531 7.542969c-9.269531 27.878907-26.417969 52.476563-49.375 70.816407l-6.695313 5.359374c-1.429687 1.140626-3.203124 1.757813-5.03125 1.75zm0 0"/><path d="m88.007812 280.007812c-1.820312.003907-3.582031-.617187-5-1.75l-9.832031-7.847656c-20.941406-16.777344-35.3125-40.386718-40.59375-66.695312l-.425781-2.105469c-.859375-4.335937 1.957031-8.546875 6.289062-9.40625 4.335938-.863281 8.546876 1.953125 9.410157 6.285156l.421875 2.113281c4.546875 22.609376 16.914062 42.890626 34.929687 57.289063l2.664063 2.136719c11.890625-20.695313 18.144531-44.148438 18.136718-68.019532 0-4.417968 3.578126-8 8-8 4.417969 0 8 3.582032 8 8-.007812 27.621094-7.511718 54.71875-21.722656 78.402344l-3.421875 5.703125c-1.1875 1.976563-3.171875 3.34375-5.441406 3.753907-.464844.089843-.941406.136718-1.414063.140624zm0 0"/><path d="m128.007812 408.007812h-18.746093c-31.117188.089844-60.972657-12.277343-82.910157-34.34375-3.03125-3.136718-2.988281-8.128906.097657-11.214843 3.085937-3.085938 8.074219-3.128907 11.214843-.097657 18.945313 19.054688 44.726563 29.734376 71.597657 29.65625h13.800781l.320312-.644531c13.53125-27.136719 20.589844-57.035156 20.625-87.355469 0-4.417968 3.578126-8 8-8 4.417969 0 8 3.582032 8 8-.039062 32.804688-7.675781 65.152344-22.3125 94.503907l-2.527343 5.074219c-1.355469 2.710937-4.128907 4.425781-7.160157 4.421874zm0 0"/><path d="m128.007812 408.007812c-1.453124 0-2.878906-.394531-4.121093-1.140624l-16.578125-9.945313c-16.488282-9.917969-30.296875-23.726563-40.214844-40.214844l-9.945312-16.578125c-2.175782-3.777344-.925782-8.605468 2.8125-10.851562 3.738281-2.246094 8.585937-1.085938 10.902343 2.613281l9.941407 16.582031c8.5625 14.25 20.488281 26.175782 34.738281 34.738282l4.464843 2.679687v-21.746094c-.007812-12.859375-1.277343-25.691406-3.792968-38.304687l-4.046875-20.230469c-.703125-4.253906 2.097656-8.296875 6.324219-9.144531 4.226562-.84375 8.363281 1.8125 9.355468 6.007812l4.054688 20.257813c2.722656 13.636719 4.097656 27.507812 4.105468 41.414062v35.863281c0 4.417969-3.582031 8-8 8zm0 0"/></g></svg>