<?xml version="1.0" encoding="iso-8859-1"?>
<!-- Generator: Adobe Illustrator 21.0.0, SVG Export Plug-In . SVG Version: 6.00 Build 0)  -->
<svg version="1.1" id="Capa_1" xmlns="http://www.w3.org/2000/svg" xmlns:xlink="http://www.w3.org/1999/xlink" x="0px" y="0px"
	 viewBox="0 0 512.001 512.001" style="enable-background:new 0 0 512.001 512.001;" xml:space="preserve">
<g>
	<g>
		<path style="fill:#00C56E;" d="M324.799,105.716c-45.521,5.089-63.682,39.015-67.829,44.106
			c22.585,0.138,43.815,5.069,62.179,14.056c-2.311-43.316,45.802-55.524,45.802-55.524
			C349.661,104.99,336.349,104.424,324.799,105.716z"/>
		<path style="fill:#00C56E;" d="M255.024,149.822c-4.147-5.091-22.308-39.017-67.829-44.106
			c-11.55-1.291-24.861-0.726-40.152,2.638c0,0,48.113,12.208,45.802,55.525c18.366-8.987,39.599-13.913,62.185-14.05
			C255.028,149.826,255.026,149.824,255.024,149.822z"/>
	</g>
	<path style="fill:#87DD60;" d="M187.195,105.716c45.521,5.089,63.682,39.015,67.829,44.106c0.289-0.002,0.577-0.003,0.866-0.003
		v-22.968c-0.685-5.356-1.915-11.272-4.012-17.321c-5.344-15.409-16.325-31.676-38.338-41.716l0.001-0.006
		c-14.39-6.563-33.497-10.464-58.829-9.724C154.712,58.084,186.064,71.358,187.195,105.716z"/>
	<path style="fill:#00C56E;" d="M259.794,110.473c5.219-15.688,16.192-32.42,38.659-42.665
		c-4.392-20.188-23.837-47.581-42.456-57.809c0,0-30.989,17.023-42.456,57.809c21.804,9.943,32.781,25.996,38.18,41.274
		c2.193,6.204,3.467,12.28,4.171,17.768c0.036,0.284,0.071,0.567,0.105,0.848c0.034-0.287,0.07-0.575,0.107-0.864
		c0.653-5.092,1.791-10.642,3.673-16.309c0.002-0.005,0.003-0.01,0.005-0.015C259.786,110.498,259.79,110.486,259.794,110.473z"/>
	<path style="fill:#FFCF33;" d="M255.997,149.818L255.997,149.818L255.997,149.818c69.826,0,126.956,45.769,126.956,115.594v120.991
		c0,69.826-57.13,115.594-126.956,115.594l0,0l0,0c-69.825,0-126.956-45.769-126.956-115.594v-120.99
		C129.041,195.587,186.171,149.818,255.997,149.818z"/>
	<path style="fill:#87DD60;" d="M255.997,127.698c-0.033-0.28-0.071-0.564-0.107-0.848v22.968h0.107l0,0l0,0
		c0.323,0,0.644,0.008,0.967,0.01c4.136-5.066,22.293-39.019,67.834-44.111l0.001-0.002c1.13-34.357,32.482-47.632,32.482-47.632
		C277.178,55.745,259.319,99.812,255.997,127.698z"/>
</g>
<path d="M352.251,173.912c-7.018-6.152-14.75-11.529-23.055-16.085c2.274-30.046,36.695-39.384,38.215-39.779
	c4.493-1.141,7.614-5.219,7.54-9.853c-0.074-4.635-3.323-8.611-7.851-9.607c-10.626-2.337-20.809-3.504-30.526-3.518
	c5.809-19.331,23.759-27.407,24.607-27.777c4.329-1.833,6.797-6.434,5.929-11.055s-4.837-8.013-9.536-8.15
	c-20.128-0.576-37.753,1.613-52.767,6.538c-8.277-21.104-26.548-43.807-43.994-53.392c-2.998-1.646-6.631-1.646-9.63,0
	c-1.299,0.713-29.519,16.601-43.785,53.46c-15.065-4.978-32.765-7.195-52.976-6.606c-4.7,0.138-8.694,3.519-9.561,8.14
	c-0.868,4.62,1.575,9.211,5.904,11.044c0.89,0.388,18.846,8.466,24.656,27.798c-9.717,0.014-19.9,1.181-30.526,3.519
	c-4.515,0.993-7.744,4.956-7.833,9.578s3.018,8.707,7.492,9.873c1.548,0.404,35.97,9.742,38.246,39.788
	c-8.305,4.556-16.037,9.933-23.055,16.085c-26.247,23.007-40.702,55.502-40.702,91.501v120.991c0,39.68,17.146,74.355,48.278,97.64
	c4.999,3.737,10.367,7.172,15.956,10.208c4.853,2.637,10.924,0.839,13.561-4.014c2.636-4.853,0.839-10.924-4.014-13.561
	c-4.745-2.578-9.295-5.488-13.524-8.65c-4.304-3.219-8.28-6.706-11.93-10.427c4.35-2.24,8.191-5.079,11.364-8.387
	c8.168,8.468,20.578,13.88,34.452,13.88c5.523,0,10-4.478,10-10s-4.477-10-10-10c-13.237,0-24.428-8.074-24.5-17.651
	c0-0.03,0-0.061,0-0.093l0,0c0-5.523-4.478-10-10-10c-5.523,0-10,4.478-10,10c0,6.853-5.804,13.125-14.191,16.034
	c-9.258-14.61-14.523-31.577-15.332-49.965c9.739-1.928,18.258-6.576,24.38-12.945c8.167,8.496,20.599,13.93,34.5,13.93
	c5.523,0,10-4.478,10-10s-4.477-10-10-10c-13.28,0-24.5-8.126-24.5-17.744c0-5.522-4.477-10-10-10s-10,4.478-10,10
	c0,7.055-6.04,13.303-14.5,16.134v-62.604c9.788-1.913,18.353-6.571,24.5-12.966c8.167,8.496,20.599,13.93,34.5,13.93
	c5.523,0,10-4.478,10-10s-4.477-10-10-10c-13.28,0-24.5-8.126-24.5-17.745c0-5.523-4.477-10-10-10s-10,4.477-10,10
	c0,7.056-6.04,13.304-14.5,16.135v-22.129c0-11.564,1.76-22.528,5.067-32.707c2.036,1.517,4.645,2.265,7.354,1.88
	c11.098-1.553,20.629-6.452,27.269-13.373c8.167,8.467,20.579,13.88,34.453,13.88c5.523,0,10-4.478,10-10s-4.477-10-10-10
	c-13.237,0-24.428-8.074-24.5-17.652c0-0.03,0-0.062,0-0.093l0,0c0-5.523-4.478-10-10-10c-5.523,0-10,4.477-10,10
	c0,7.408-6.784,14.137-16.283,16.671c9.922-17.258,24.955-31.245,43.684-40.685c0.391-0.134,0.778-0.288,1.155-0.473
	c17.167-8.399,37.172-12.906,57.851-13.032c0.002,0,0.005,0,0.007,0l0.348-0.004c0.167-0.001,0.333-0.005,0.5-0.005l0.958,0.009l0,0
	c20.678,0.126,40.683,4.632,57.851,13.031c0.376,0.184,0.762,0.338,1.152,0.472c18.976,9.564,34.154,23.798,44.07,41.369
	c-11.118-1.723-19.504-9.013-19.504-17.353c0-5.523-4.478-10-10-10s-10,4.477-10,10c0,9.619-11.22,17.745-24.5,17.745
	c-5.522,0-10,4.478-10,10s4.478,10,10,10c13.863,0,26.266-5.404,34.434-13.86c7.304,7.615,18.098,12.754,30.54,13.704
	c2.618,0.21,5.068-0.622,6.972-2.136c3.287,10.152,5.035,21.084,5.035,32.611v22.129c-8.46-2.831-14.5-9.079-14.5-16.135
	c0-5.523-4.478-10-10-10s-10,4.477-10,10c0,9.619-11.22,17.745-24.5,17.745c-5.522,0-10,4.478-10,10s4.478,10,10,10
	c13.901,0,26.333-5.434,34.5-13.93c6.147,6.395,14.712,11.053,24.5,12.966v62.604c-8.46-2.831-14.5-9.079-14.5-16.134
	c0-5.522-4.478-10-10-10s-10,4.478-10,10c0,4.881-2.823,8.542-5.192,10.754c-4.036,3.771-4.252,10.098-0.482,14.135
	c3.772,4.036,10.1,4.251,14.135,0.482c0.537-0.502,1.057-1.015,1.559-1.537c6.121,6.359,14.634,11,24.364,12.926
	c-0.842,18.896-6.439,36.066-15.85,50.658c-9.592-2.462-16.513-9.156-16.513-16.728c0-5.522-4.478-10-10-10s-10,4.478-10,10
	c0,9.618-11.22,17.744-24.5,17.744c-5.522,0-10,4.478-10,10s4.478,10,10,10c13.863,0,26.266-5.403,34.434-13.86
	c3.634,3.79,8.133,6.965,13.268,9.317c-20.925,20.919-51.679,33.45-87.677,33.45c-1.537,0-3.088-0.024-4.607-0.071
	c-1.499-0.047-2.989-0.116-4.428-0.205c-5.518-0.341-10.257,3.853-10.596,9.366c-0.34,5.513,3.853,10.257,9.366,10.597
	c1.638,0.101,3.331,0.179,5.033,0.232c1.729,0.054,3.489,0.081,5.232,0.081c36.989,0,71.173-12.107,96.254-34.093
	c6.418-5.626,12.126-11.823,17.095-18.497c0.306-0.363,0.589-0.744,0.842-1.149c14.809-20.401,22.764-45.163,22.764-71.856V265.413
	C392.952,229.413,378.497,196.919,352.251,173.912z M310.177,149.203c-10.732-3.943-22.124-6.69-33.955-8.15
	c8.467-9.378,22.063-20.347,42.984-24.378c0.169-0.033,0.341-0.063,0.512-0.094c0.798-0.149,1.608-0.285,2.427-0.413
	c0.239-0.037,0.476-0.076,0.717-0.112c0.979-0.145,1.97-0.277,2.979-0.39c1.634-0.184,3.308-0.327,5.023-0.425
	C319.736,124.588,312.744,136.102,310.177,149.203z M315.615,96.976c-8.956,1.707-17.427,4.558-25.384,8.554
	c-0.132,0.066-0.261,0.134-0.392,0.2c-0.828,0.421-1.65,0.854-2.467,1.299c-0.19,0.104-0.381,0.206-0.569,0.31
	c-0.905,0.502-1.806,1.013-2.697,1.546c-0.127,0.076-0.244,0.156-0.37,0.232c-0.926,0.56-1.833,1.127-2.718,1.703
	c-0.423,0.276-0.831,0.556-1.245,0.835c-0.587,0.396-1.17,0.792-1.738,1.193c-0.427,0.302-0.846,0.604-1.262,0.909
	c-0.547,0.399-1.083,0.801-1.612,1.204c-0.384,0.293-0.769,0.585-1.144,0.881c-0.594,0.467-1.17,0.937-1.741,1.407
	c-0.278,0.229-0.565,0.457-0.837,0.686c-0.829,0.698-1.633,1.398-2.413,2.099c-0.18,0.162-0.349,0.322-0.526,0.484
	c-0.476,0.434-0.954,0.868-1.411,1.3c2.806-13.332,9.707-28.588,25.62-39.366c0.319-0.215,0.631-0.433,0.957-0.644
	c0.274-0.178,0.558-0.351,0.837-0.527c0.517-0.324,1.036-0.647,1.571-0.962c0.193-0.114,0.392-0.225,0.587-0.338
	c0.629-0.362,1.268-0.72,1.921-1.069c0.161-0.086,0.325-0.171,0.488-0.257c0.68-0.356,1.374-0.706,2.08-1.048
	c0.183-0.088,0.366-0.176,0.551-0.264c7.143-3.383,15.618-6.01,25.668-7.605C322.011,76.765,317.44,85.75,315.615,96.976z
	 M256.116,21.951c12.099,8.923,24.797,26.023,30.384,40.779c-5.731,3.311-10.925,7.172-15.558,11.592
	c-1.769,1.688-3.41,3.423-4.946,5.189v-5.689c0-5.522-4.477-10-10-10c-5.523,0-10,4.478-10,10v5.707
	c-1.725-1.988-3.54-3.895-5.465-5.699c-4.447-4.166-9.403-7.826-14.846-10.99C234.025,40.701,248.639,27.549,256.116,21.951z
	 M224.476,86.372c0.319,0.269,0.625,0.543,0.935,0.816c0.252,0.221,0.506,0.44,0.752,0.663
	c11.114,10.136,16.378,22.735,18.742,33.967c-0.459-0.435-0.94-0.871-1.418-1.306c-0.175-0.159-0.341-0.318-0.518-0.477
	c-0.781-0.702-1.587-1.403-2.418-2.103c-0.267-0.225-0.549-0.448-0.821-0.673c-0.576-0.475-1.158-0.949-1.757-1.42
	c-0.373-0.293-0.756-0.584-1.138-0.876c-0.531-0.405-1.07-0.808-1.618-1.209c-0.415-0.303-0.832-0.605-1.257-0.905
	c-0.57-0.403-1.154-0.8-1.743-1.197c-0.413-0.278-0.819-0.558-1.241-0.832c-0.878-0.572-1.778-1.135-2.697-1.69
	c-0.133-0.08-0.256-0.164-0.39-0.244c-0.892-0.533-1.793-1.045-2.699-1.547c-0.191-0.106-0.384-0.21-0.577-0.314
	c-0.813-0.443-1.632-0.875-2.456-1.294c-0.134-0.068-0.266-0.137-0.4-0.205c-7.955-3.994-16.424-6.844-25.378-8.551
	c-1.824-11.223-6.393-20.205-11.75-27.23C202.391,72.572,215.243,78.616,224.476,86.372z M181.129,115.24
	c1.721,0.099,3.401,0.242,5.04,0.427c0.992,0.112,1.966,0.242,2.929,0.384c0.273,0.04,0.542,0.084,0.813,0.127
	c0.771,0.121,1.533,0.25,2.285,0.389c0.212,0.039,0.425,0.077,0.636,0.117c2.002,0.387,3.94,0.835,5.809,1.341
	c0.032,0.008,0.063,0.017,0.095,0.026c17.591,4.79,29.398,14.544,37.035,23.002c-11.831,1.46-23.223,4.207-33.955,8.15
	C199.248,136.102,192.257,124.588,181.129,115.24z"/>
<path d="M221.497,271.275c13.901,0,26.334-5.434,34.5-13.93c8.167,8.496,20.599,13.93,34.501,13.93c5.522,0,10-4.478,10-10
	c0-5.523-4.478-10-10-10c-13.28,0-24.5-8.126-24.5-17.745c0-5.523-4.478-10-10.001-10c-5.523,0-10,4.477-10,10
	c0,9.619-11.22,17.745-24.5,17.745c-5.523,0-10,4.477-10,10C211.497,266.797,215.974,271.275,221.497,271.275z"/>
<path d="M221.497,346.649c13.901,0,26.334-5.434,34.5-13.93c8.167,8.496,20.599,13.93,34.501,13.93c5.522,0,10-4.478,10-10
	s-4.478-10-10-10c-13.28,0-24.5-8.126-24.5-17.745c0-5.523-4.478-10-10.001-10c-5.523,0-10,4.477-10,10
	c0,9.619-11.22,17.745-24.5,17.745c-5.523,0-10,4.478-10,10S215.974,346.649,221.497,346.649z"/>
<path d="M220.077,428.38c13.901,0,26.334-5.434,34.501-13.93c8.166,8.496,20.599,13.93,34.501,13.93c5.522,0,10-4.478,10-10
	s-4.478-10-10-10c-13.28,0-24.5-8.126-24.5-17.745c0-5.522-4.478-10-10.001-10c-5.523,0-10,4.478-10,10
	c0,9.619-11.22,17.745-24.501,17.745c-5.523,0-10,4.478-10,10C210.077,423.903,214.554,428.38,220.077,428.38z"/>
<path d="M324.012,382.402c0-5.522-4.478-10-10-10h-0.06c-5.522,0-9.971,4.478-9.971,10s4.508,10,10.03,10
	C319.534,392.402,324.012,387.924,324.012,382.402z"/>
<path d="M255.997,55.091c5.523,0,10-4.478,10-10v-0.269c0-5.522-4.477-10-10-10c-5.523,0-10,4.478-10,10v0.269
	C245.997,50.614,250.474,55.091,255.997,55.091z"/>
<circle cx="219.997" cy="496.999" r="10"/>
<g>
</g>
<g>
</g>
<g>
</g>
<g>
</g>
<g>
</g>
<g>
</g>
<g>
</g>
<g>
</g>
<g>
</g>
<g>
</g>
<g>
</g>
<g>
</g>
<g>
</g>
<g>
</g>
<g>
</g>
</svg>
