<?xml version="1.0" encoding="iso-8859-1"?>
<!-- Generator: Adobe Illustrator 21.0.0, SVG Export Plug-In . SVG Version: 6.00 Build 0)  -->
<svg version="1.1" id="Capa_1" xmlns="http://www.w3.org/2000/svg" xmlns:xlink="http://www.w3.org/1999/xlink" x="0px" y="0px"
	 viewBox="0 0 512.001 512.001" style="enable-background:new 0 0 512.001 512.001;" xml:space="preserve">
<g>
	<g>
		<path style="fill:#87DD60;" d="M218.906,268.628v94.944v138.43h36.569V323.886c32.587-35.319,22.67-65.511,22.67-65.511
			c-17.659,4.557-22.67,22.217-22.67,22.217V177.523c38.706-16.159,42.402-38.247,36.514-69.941
			c-3.039,0.565-6.938,1.561-11.266,2.889l-0.426,0.132c-6.402,1.982-13.701,4.672-20.532,7.748
			c-9.881,4.449-18.783,9.705-22.575,14.795c-3.792-5.09-12.695-10.345-22.574-14.794c-6.831-3.077-14.131-5.767-20.533-7.749
			l-0.426-0.132c-4.328-1.327-8.226-2.324-11.265-2.889c-5.888,31.694-2.192,53.782,36.514,69.941v47.81
			c0,0-5.011-17.659-22.67-22.217C196.236,203.116,186.319,233.309,218.906,268.628z"/>
		<path style="fill:#87DD60;" d="M237.191,133.146c3.792-5.09,12.694-10.346,22.576-14.794
			c-4.676-14.153-10.06-26.575-15.027-34.617c-2.618-4.24-5.119-7.268-7.339-8.684c-0.07-0.045-0.14-0.088-0.21-0.13
			c-0.071,0.042-0.142,0.086-0.213,0.132c-2.198,1.404-4.672,4.387-7.261,8.562c-0.025,0.04-0.05,0.08-0.076,0.118
			c-4.965,8.043-10.349,20.466-15.024,34.619C224.496,122.801,233.399,128.056,237.191,133.146z"/>
	</g>
	<g>
		<path style="fill:#00C56E;" d="M280.298,110.603v-0.005V110.603L280.298,110.603z M244.739,83.734
			c7.92-10.947,16.186-20.298,22.661-25.657c3.151-2.611,5.879-4.275,7.935-4.716c4.996,5.861,7.172,30.209,5.164,54.91
			c0.081,0.737,0.157,1.471,0.225,2.2c-0.142,0.043-0.284,0.087-0.426,0.132c-6.402,1.982-13.701,4.672-20.532,7.748
			C255.09,104.199,249.706,91.776,244.739,83.734z"/>
		<path style="fill:#00C56E;" d="M214.615,118.352c4.677-14.153,10.061-26.576,15.028-34.618
			c-7.921-10.947-16.186-20.297-22.66-25.658c-3.152-2.61-5.88-4.273-7.936-4.715c-4.997,5.861-7.173,30.209-5.165,54.91
			l0.202,2.331C200.486,112.585,207.785,115.275,214.615,118.352z"/>
	</g>
	<path style="fill:#87DD60;" d="M237.191,10c-8.66,4.117-20.854,24.128-30.209,48.077c6.475,5.359,14.74,14.709,22.661,25.656
		c2.701-4.374,5.277-7.458,7.548-8.813c2.271,1.355,4.848,4.439,7.548,8.813c7.921-10.947,16.186-20.298,22.661-25.657
		C258.045,34.128,245.85,14.117,237.191,10z"/>
	<path style="fill:#00C56E;" d="M102.558,371.471v83.141v47.389h32.023v-82.142c28.536-30.928,19.852-57.367,19.852-57.367
		c-15.464,3.991-19.852,19.455-19.852,19.455v-90.254c33.894-14.15,37.13-33.492,31.975-61.246c-2.661,0.495-6.075,1.367-9.865,2.53
		l-0.373,0.115c-5.606,1.735-11.998,4.091-17.98,6.784c-8.652,3.896-16.448,8.498-19.769,12.956
		c-3.321-4.458-11.117-9.059-19.768-12.955c-5.982-2.694-12.374-5.05-17.98-6.786l-0.373-0.116c-3.79-1.163-7.203-2.035-9.865-2.53
		c-5.156,27.754-1.92,47.096,31.975,61.246v41.866c0,0-4.388-15.464-19.852-19.455C82.706,314.104,74.022,340.543,102.558,371.471z"
		/>
	<g>
		<path style="fill:#87DD60;" d="M118.569,252.832c3.321-4.458,11.116-9.06,19.769-12.955c-4.095-12.393-8.809-23.272-13.159-30.314
			c-2.292-3.713-4.483-6.364-6.426-7.604c-0.062-0.039-0.123-0.077-0.184-0.113c-0.062,0.037-0.124,0.075-0.187,0.115
			c-1.924,1.229-4.091,3.841-6.358,7.497c-0.021,0.035-0.043,0.07-0.067,0.104c-4.348,7.043-9.062,17.922-13.156,30.316
			C107.453,243.773,115.249,248.374,118.569,252.832z"/>
		<path style="fill:#87DD60;" d="M156.318,233.092v-0.004V233.092L156.318,233.092z M125.179,209.563
			c4.35,7.042,9.064,17.921,13.159,30.314c5.982-2.694,12.373-5.05,17.979-6.785c0.124-0.039,0.249-0.078,0.373-0.115
			c-0.059-0.638-0.126-1.281-0.197-1.927c1.758-21.63-0.147-42.951-4.522-48.083c-1.801,0.386-4.189,1.843-6.949,4.13
			C139.353,191.789,132.115,199.977,125.179,209.563z"/>
		<path style="fill:#87DD60;" d="M98.8,239.877c4.095-12.393,8.81-23.272,13.159-30.314c-6.936-9.586-14.174-17.774-19.843-22.468
			c-2.76-2.285-5.149-3.742-6.949-4.129c-4.376,5.132-6.281,26.454-4.523,48.084l0.176,2.041
			C86.427,234.827,92.819,237.183,98.8,239.877z"/>
		<path style="fill:#87DD60;" d="M118.569,144.995c-7.583,3.605-18.262,21.129-26.453,42.101c5.67,4.693,12.907,12.88,19.843,22.467
			c2.365-3.83,4.621-6.531,6.61-7.717c1.989,1.187,4.245,3.887,6.61,7.718c6.936-9.586,14.174-17.774,19.843-22.467
			C136.831,166.124,126.152,148.601,118.569,144.995z"/>
	</g>
	<path style="fill:#00C56E;" d="M340.179,263.02l-18.568,93.111l-27.073,135.757l35.863,7.152l34.834-174.677
		c38.866-28.264,35.045-59.813,35.045-59.813c-18.21,1.016-26.578,17.354-26.578,17.354l20.157-101.077
		c41.119-8.277,49.063-29.215,49.487-61.449c-3.091-0.04-7.109,0.174-11.613,0.63l-0.444,0.046
		c-6.666,0.692-14.35,1.902-21.651,3.583c-10.56,2.431-20.318,5.845-25.033,10.095c-2.724-5.733-10.427-12.628-19.245-18.923
		c-6.098-4.354-12.73-8.419-18.621-11.615l-0.392-0.213c-3.984-2.148-7.613-3.888-10.483-5.036
		c-11.973,29.931-12.668,52.315,22.131,75.731l-9.35,46.887c0,0-1.46-18.298-17.888-26.222
		C330.758,194.34,315.128,222.01,340.179,263.02z"/>
	<g>
		<path style="fill:#87DD60;" d="M384.606,133.73c4.715-4.25,14.473-7.664,25.033-10.093c-1.818-14.794-4.669-28.03-7.967-36.888
			c-1.738-4.67-3.599-8.128-5.499-9.951c-0.06-0.058-0.12-0.114-0.18-0.168c-0.078,0.027-0.156,0.057-0.235,0.087
			c-2.43,0.947-5.439,3.388-8.795,6.976c-0.032,0.034-0.064,0.069-0.098,0.101c-6.442,6.917-14.151,18.047-21.505,31.013
			C374.18,121.102,381.882,127.997,384.606,133.73z"/>
		<path style="fill:#87DD60;" d="M431.29,120.053l0.001-0.004C431.291,120.05,431.29,120.052,431.29,120.053L431.29,120.053z
			 M401.672,86.749c9.909-9.187,19.842-16.741,27.241-20.729c3.601-1.944,6.602-3.043,8.704-3.073
			c3.754,6.725,1.126,31.028-5.674,54.859c-0.065,0.739-0.134,1.474-0.21,2.202c-0.148,0.014-0.295,0.03-0.444,0.046
			c-6.666,0.692-14.35,1.902-21.65,3.584C407.821,108.843,404.971,95.607,401.672,86.749z"/>
		<path style="fill:#87DD60;" d="M365.36,114.807c7.354-12.965,15.064-24.095,21.508-31.01
			c-5.627-12.285-11.904-23.071-17.204-29.594c-2.581-3.176-4.931-5.341-6.861-6.176c-6.047,4.77-12.942,28.223-15.804,52.84
			l-0.258,2.326C352.631,106.388,359.263,110.454,365.36,114.807z"/>
		<path style="fill:#87DD60;" d="M408.69,12.963c-9.298,2.344-25.17,19.584-39.028,41.241c5.301,6.522,11.579,17.307,17.206,29.593
			c3.504-3.761,6.634-6.282,9.126-7.167c1.962,1.773,3.886,5.302,5.679,10.119c9.909-9.187,19.843-16.74,27.241-20.729
			C424.423,40.703,416.377,18.694,408.69,12.963z"/>
	</g>
</g>
<path d="M287.646,255.254c-1.646-5.009-6.896-7.881-12-6.563c-3.831,0.988-7.206,2.434-10.171,4.159v-68.842
	c38.602-18.411,42.575-44.719,36.346-78.253c-0.484-2.607-1.985-4.916-4.172-6.418c-1.925-1.322-4.244-1.92-6.55-1.714
	c0.605-18.716-0.733-42.044-8.154-50.75c-2.386-2.797-6.112-4.064-9.707-3.29c-0.321,0.069-0.646,0.156-0.972,0.249
	c-6.578-14.724-18.205-36.885-30.782-42.864c-2.717-1.291-5.871-1.291-8.588,0c-12.576,5.979-24.203,28.139-30.781,42.864
	c-0.326-0.092-0.651-0.18-0.972-0.249c-3.597-0.777-7.322,0.491-9.706,3.289c-7.423,8.705-8.761,32.034-8.156,50.751
	c-2.307-0.204-4.624,0.393-6.55,1.715c-2.186,1.501-3.687,3.81-4.171,6.417c-6.229,33.534-2.256,59.842,36.346,78.253v13.585
	c-2.965-1.727-6.34-3.172-10.171-4.16c-5.103-1.316-10.355,1.555-12,6.563c-0.467,1.423-10.783,34.486,22.171,72.445v25.652
	c0,5.522,4.477,10,10,10s10-4.478,10-10v-29.465c0-0.086-0.011-0.17-0.013-0.256c-0.005-0.182-0.013-0.364-0.028-0.546
	c-0.012-0.154-0.028-0.306-0.047-0.458c-0.021-0.17-0.047-0.338-0.077-0.507c-0.028-0.158-0.059-0.315-0.095-0.471
	c-0.036-0.16-0.078-0.318-0.122-0.476c-0.044-0.157-0.091-0.313-0.143-0.467c-0.052-0.154-0.108-0.306-0.168-0.458
	c-0.059-0.151-0.12-0.3-0.186-0.448c-0.067-0.149-0.139-0.297-0.214-0.444c-0.074-0.145-0.15-0.287-0.23-0.428
	c-0.08-0.14-0.165-0.279-0.253-0.416c-0.091-0.142-0.185-0.281-0.283-0.419c-0.09-0.127-0.183-0.252-0.28-0.375
	c-0.111-0.141-0.226-0.277-0.344-0.412c-0.058-0.066-0.108-0.137-0.168-0.202c-15.159-16.43-19.964-31.223-21.151-41.436
	c2.958,3.76,4.111,7.424,4.182,7.651c1.362,4.801,6.059,7.872,10.998,7.175c4.943-0.688,8.622-4.914,8.622-9.904v-47.81
	c0-4.034-2.424-7.674-6.147-9.229c-28.522-11.906-34.615-25.748-32.143-48.311c0.118,0.036,0.238,0.075,0.357,0.112
	c0.053,0.017,0.1,0.044,0.153,0.06c2.321,0.719,4.693,1.515,7.059,2.364c0.32,0.116,0.64,0.231,0.961,0.349
	c0.108,0.039,0.215,0.08,0.323,0.119c5.238,1.935,10.558,4.172,15.269,6.477c8.163,4.034,12.697,7.453,14.316,9.511
	c0.037,0.048,0.082,0.097,0.117,0.145c1.336,1.794,3.221,3.051,5.327,3.641c0.125,0.035,0.246,0.082,0.372,0.112
	c0.051,0.012,0.104,0.016,0.155,0.028c0.705,0.157,1.429,0.245,2.165,0.245c0.001,0,0.001,0,0.001,0
	c0.395,0,0.787-0.023,1.174-0.069c2.711-0.32,5.194-1.74,6.845-3.956c1.52-2.042,6.084-5.531,14.436-9.657
	c4.713-2.306,10.038-4.545,15.278-6.481c0.1-0.037,0.2-0.074,0.301-0.111c0.327-0.12,0.653-0.238,0.978-0.355
	c2.364-0.847,4.734-1.643,7.052-2.361c0.054-0.017,0.102-0.043,0.155-0.061c0.118-0.036,0.238-0.075,0.355-0.111
	c2.472,22.563-3.62,36.404-32.143,48.311c-3.723,1.555-6.147,5.194-6.147,9.229v103.069c0,4.99,3.679,9.217,8.622,9.904
	c4.945,0.692,9.636-2.373,10.998-7.175c0.019-0.066,1.143-3.706,4.077-7.491c-1.248,10.243-6.07,25.042-21.047,41.274
	c-1.704,1.847-2.65,4.269-2.65,6.781v168.117h-16.569v-128.43c0-5.522-4.477-10-10-10s-10,4.478-10,10v138.43
	c0,5.522,4.477,10,10,10h36.569c5.522,0,10-4.477,10-10V327.707C298.438,289.746,288.114,256.678,287.646,255.254z M207.459,72.348
	c0.273,0.289,0.555,0.594,0.836,0.898c0.283,0.306,0.564,0.61,0.85,0.926c0.015,0.017,0.031,0.035,0.047,0.052
	c2.753,3.047,5.645,6.526,8.529,10.262c-3.472,6.583-6.539,13.924-9.034,20.592c-1.706-0.651-3.427-1.28-5.146-1.882
	c-0.89-14.224-0.249-26.108,0.869-33.958c0.841,0.82,1.74,1.732,2.686,2.725C207.216,72.091,207.337,72.218,207.459,72.348z
	 M266.907,72.365c0.132-0.14,0.263-0.278,0.394-0.416c0.94-0.987,1.835-1.894,2.672-2.71c1.119,7.85,1.76,19.734,0.869,33.957
	c-1.719,0.602-3.441,1.231-5.146,1.882c-2.495-6.668-5.562-14.009-9.034-20.591c3.206-4.153,6.42-7.981,9.443-11.26
	C266.375,72.936,266.645,72.644,266.907,72.365z M237.191,90.6c3.299,5.7,6.86,13.631,10.201,22.668
	c-3.927,2.09-7.331,4.191-10.201,6.296c-2.87-2.105-6.274-4.207-10.201-6.296C230.331,104.232,233.892,96.3,237.191,90.6z
	 M237.191,22.92c4.717,5.542,11.563,16.573,18.308,32.448c-3.917,3.846-7.721,8.19-11.123,12.386
	c-0.682-0.534-1.368-1.006-2.062-1.421c-0.336-0.2-0.685-0.368-1.037-0.526c-0.061-0.027-0.118-0.065-0.179-0.091
	c-0.087-0.037-0.179-0.058-0.267-0.092c-2.337-0.915-4.931-0.916-7.269-0.004c-0.091,0.036-0.187,0.058-0.277,0.096
	c-0.061,0.026-0.119,0.064-0.179,0.091c-0.352,0.158-0.701,0.326-1.037,0.526c-0.695,0.414-1.381,0.888-2.063,1.421
	c-3.402-4.196-7.206-8.539-11.122-12.385C225.629,39.493,232.474,28.462,237.191,22.92z"/>
<path d="M218.906,335.627c5.523,0,10-4.478,10-10v-0.256c0-5.522-4.477-10-10-10s-10,4.478-10,10v0.256
	C208.906,331.15,213.383,335.627,218.906,335.627z"/>
<path d="M176.388,228.621c-0.866-4.663-4.837-7.956-9.38-8.157c0.357-14.267-0.396-35.737-7.426-43.984
	c-2.359-2.767-6.031-4.023-9.589-3.307c-5.909-13.039-16.055-31.943-27.131-37.208c-2.716-1.293-5.87-1.293-8.586,0
	c-11.075,5.264-21.222,24.168-27.13,37.207c-3.558-0.722-7.229,0.539-9.589,3.307c-7.031,8.247-7.784,29.723-7.426,43.989
	c-1.849,0.084-3.658,0.67-5.209,1.735c-2.187,1.501-3.687,3.81-4.171,6.417c-4.794,25.812-4.049,51.967,31.807,69.523v9.051
	c-2.24-1.138-4.688-2.085-7.353-2.772c-5.103-1.313-10.354,1.554-12,6.561c-0.417,1.27-9.596,30.669,19.353,64.293v18.248
	c0,5.522,4.477,10,10,10s10-4.478,10-10v-22.053c0-0.086-0.011-0.17-0.013-0.256c-0.005-0.182-0.013-0.364-0.028-0.546
	c-0.012-0.154-0.028-0.306-0.047-0.457c-0.022-0.17-0.047-0.338-0.078-0.507c-0.028-0.158-0.059-0.315-0.095-0.47
	c-0.037-0.16-0.078-0.318-0.122-0.476c-0.044-0.157-0.091-0.313-0.142-0.467c-0.052-0.154-0.108-0.306-0.168-0.458
	c-0.059-0.151-0.12-0.3-0.186-0.448c-0.067-0.149-0.139-0.297-0.214-0.444c-0.074-0.145-0.15-0.287-0.23-0.428
	c-0.08-0.14-0.165-0.279-0.253-0.416c-0.091-0.142-0.185-0.281-0.283-0.419c-0.09-0.127-0.183-0.252-0.281-0.375
	c-0.111-0.141-0.225-0.277-0.343-0.412c-0.058-0.066-0.108-0.137-0.168-0.202c-8.954-9.704-13.705-18.728-16.135-26.251
	c1.903,3.589,5.87,5.68,10.085,5.144c4.991-0.64,8.701-4.992,8.701-10.023v-41.866c0-4.034-2.424-7.674-6.147-9.229
	c-23.795-9.934-29.301-20.971-27.559-39.506c2.398,0.762,4.842,1.608,7.257,2.513c5.639,2.137,11.251,4.637,15.741,7.073
	c4.922,2.711,7.721,4.947,8.701,6.261c0.236,0.317,0.489,0.617,0.757,0.9c1.877,1.982,4.498,3.125,7.262,3.125h0.001
	c0.721,0,1.43-0.087,2.122-0.238c0.065-0.014,0.133-0.02,0.198-0.035c1.371-0.327,2.649-0.953,3.764-1.81
	c0.109-0.083,0.224-0.157,0.33-0.245c0.038-0.032,0.072-0.071,0.11-0.103c0.548-0.473,1.053-1.001,1.494-1.593
	c0.974-1.308,3.745-3.524,8.613-6.214c4.498-2.447,10.137-4.962,15.804-7.111c2.423-0.909,4.876-1.758,7.283-2.523
	c1.742,18.535-3.764,29.572-27.559,39.505c-3.723,1.555-6.147,5.194-6.147,9.229v90.254c0,4.99,3.679,9.217,8.622,9.904
	c4.168,0.591,8.159-1.506,10.124-5.053c-2.426,7.547-7.163,16.599-16.096,26.28c-1.704,1.848-2.65,4.269-2.65,6.781v72.142H112.56
	v-37.389c0-5.522-4.477-10-10-10s-10,4.478-10,10v47.389c0,5.522,4.477,10,10,10h32.023c5.523,0,10-4.477,10-10v-78.333
	c28.956-33.626,19.77-63.026,19.353-64.297c-1.645-5.008-6.896-7.881-11.999-6.561c-2.666,0.688-5.112,1.634-7.354,2.771v-57.438
	C180.438,280.587,181.182,254.432,176.388,228.621z M116.63,221.943c0.025-0.053,0.051-0.108,0.077-0.16
	c0.195-0.403,0.389-0.794,0.583-1.183c0.087-0.173,0.174-0.35,0.26-0.518c0.172-0.34,0.344-0.672,0.515-1
	c0.09-0.172,0.18-0.344,0.268-0.511c0.079-0.149,0.158-0.292,0.237-0.439c0.073,0.136,0.146,0.268,0.219,0.406
	c0.102,0.193,0.206,0.391,0.31,0.591c0.158,0.304,0.317,0.611,0.476,0.925c0.098,0.193,0.198,0.395,0.297,0.594
	c0.183,0.368,0.367,0.736,0.551,1.117c0.037,0.076,0.074,0.156,0.111,0.232c1.807,3.756,3.646,8.108,5.423,12.838
	c-2.781,1.512-5.24,3.026-7.388,4.548c-2.148-1.522-4.607-3.036-7.388-4.548C112.967,230.083,114.815,225.711,116.63,221.943z
	 M90.781,199.559c0.886,0.917,1.834,1.937,2.828,3.046c0.187,0.21,0.374,0.418,0.563,0.632c0.097,0.109,0.196,0.224,0.294,0.335
	c1.826,2.087,3.707,4.371,5.592,6.79c-0.05,0.098-0.101,0.201-0.151,0.3c-2.66,5.166-5.03,10.772-7.015,15.979
	c-0.873-0.324-1.739-0.637-2.596-0.939C89.684,215.156,90.044,206.096,90.781,199.559z M144.249,226.641
	c-1.984-5.204-4.353-10.806-7.011-15.97c-0.052-0.101-0.104-0.208-0.155-0.308c1.881-2.416,3.76-4.696,5.583-6.78
	c0.103-0.117,0.208-0.238,0.31-0.354c0.183-0.208,0.365-0.41,0.547-0.614c0.997-1.113,1.947-2.137,2.836-3.056
	c0.737,6.537,1.097,15.597,0.487,26.144C145.988,226.004,145.122,226.318,144.249,226.641z M118.569,158.321
	c3.794,4.833,9.157,13.57,14.562,26.13c-2.974,2.969-5.853,6.228-8.482,9.421c-0.302-0.207-0.606-0.402-0.912-0.585
	c-0.014-0.009-0.029-0.019-0.043-0.028c-3.157-1.885-7.094-1.885-10.251,0c-0.025,0.015-0.049,0.033-0.074,0.048
	c-0.295,0.178-0.588,0.364-0.88,0.564c-2.629-3.192-5.508-6.451-8.482-9.42C109.412,171.891,114.775,163.154,118.569,158.321z"/>
<path d="M102.558,438.009c5.523,0,10-4.477,10-10v-0.224c0-5.522-4.477-10-10-10s-10,4.478-10,10v0.224
	C92.558,433.532,97.035,438.009,102.558,438.009z"/>
<path d="M453.346,119.509c0.035-2.652-0.985-5.209-2.835-7.109c-1.63-1.673-3.786-2.713-6.089-2.962
	c4.253-18.237,7.503-41.377,1.927-51.365c-1.768-3.168-5.11-5.126-8.73-5.126c-0.049,0-0.098,0-0.146,0.001
	c-0.328,0.005-0.664,0.027-1.001,0.054c-3.572-15.727-10.641-39.733-21.804-48.057c-2.413-1.797-5.506-2.416-8.423-1.679
	c-13.502,3.405-29.238,22.863-38.569,36.017c-0.301-0.154-0.602-0.304-0.903-0.434c-3.373-1.459-7.276-0.951-10.164,1.327
	c-8.98,7.086-14.855,29.703-17.923,48.176c-4.892-1.444-10.171,1.046-12.105,5.878c-12.668,31.669-13.916,58.246,20.341,83.851
	l-2.657,13.321c-2.57-2.272-5.598-4.35-9.161-6.068c-4.747-2.288-10.458-0.501-13.052,4.089c-0.737,1.305-17.32,31.712,7.575,75.382
	l-5.017,25.156c-1.08,5.416,2.434,10.683,7.851,11.763c0.66,0.132,1.318,0.195,1.967,0.195c4.671,0,8.848-3.29,9.796-8.046
	l5.763-28.897c0.017-0.083,0.022-0.165,0.037-0.248c0.032-0.183,0.059-0.366,0.081-0.551c0.017-0.149,0.031-0.298,0.042-0.447
	c0.013-0.175,0.021-0.35,0.024-0.525c0.003-0.156,0.003-0.31-0.001-0.465c-0.005-0.17-0.014-0.339-0.028-0.509
	c-0.012-0.157-0.027-0.312-0.047-0.467c-0.021-0.168-0.048-0.335-0.078-0.502c-0.028-0.153-0.057-0.305-0.091-0.456
	c-0.038-0.166-0.081-0.331-0.128-0.496c-0.042-0.15-0.087-0.298-0.136-0.445c-0.053-0.16-0.112-0.318-0.173-0.476
	c-0.059-0.151-0.121-0.299-0.187-0.447c-0.066-0.148-0.136-0.294-0.21-0.44c-0.078-0.154-0.161-0.306-0.247-0.456
	c-0.045-0.079-0.082-0.161-0.13-0.239c-11.653-19.077-13.473-34.523-12.64-44.771c2.165,4.266,2.58,8.085,2.604,8.321
	c0.397,4.976,4.401,8.895,9.383,9.188c4.983,0.285,9.417-3.132,10.392-8.026l9.351-46.887c0.789-3.957-0.877-8-4.224-10.253
	c-25.644-17.255-28.911-32.021-22.074-53.664c0.063,0.034,0.126,0.069,0.189,0.103c0.092,0.054,0.181,0.112,0.276,0.164
	c2.151,1.168,4.337,2.422,6.505,3.726c0.25,0.151,0.501,0.302,0.751,0.455c0.168,0.102,0.335,0.206,0.503,0.309
	c4.351,2.676,8.717,5.611,12.612,8.526c0.067,0.05,0.136,0.102,0.203,0.153c0.228,0.171,0.453,0.343,0.677,0.514
	c7.44,5.712,11.257,10.05,12.354,12.358c1.355,2.854,3.979,4.899,7.076,5.516c0.358,0.072,0.718,0.119,1.078,0.15
	c0.122,0.011,0.244,0.012,0.366,0.018c0.171,0.009,0.342,0.025,0.512,0.025c0.071,0,0.142-0.008,0.213-0.01
	c0.125-0.003,0.249-0.01,0.373-0.017c0.238-0.014,0.475-0.037,0.711-0.068c0.118-0.016,0.236-0.029,0.354-0.049
	c0.287-0.048,0.571-0.109,0.852-0.182c0.058-0.015,0.117-0.025,0.174-0.04c0.336-0.093,0.666-0.207,0.99-0.335
	c0.093-0.037,0.184-0.081,0.276-0.12c0.234-0.1,0.465-0.208,0.691-0.326c0.107-0.056,0.211-0.114,0.316-0.174
	c0.217-0.124,0.428-0.256,0.636-0.397c0.091-0.061,0.183-0.119,0.272-0.184c0.289-0.209,0.57-0.429,0.838-0.67
	c1.897-1.71,7.083-4.251,16.138-6.671c0.289-0.076,0.578-0.153,0.871-0.228c0.058-0.015,0.118-0.03,0.177-0.045
	c4.765-1.212,9.986-2.259,15.084-3.066c0.121-0.019,0.241-0.039,0.362-0.057c0.333-0.052,0.665-0.103,0.997-0.152
	c2.488-0.37,4.973-0.687,7.392-0.939c0.054-0.006,0.104-0.022,0.158-0.028c0.124-0.013,0.251-0.027,0.375-0.04
	c-1.988,22.61-10.67,34.993-40.971,41.092c-3.955,0.797-7.044,3.892-7.833,7.848l-20.157,101.078
	c-0.977,4.895,1.784,9.799,6.497,11.44c4.716,1.644,9.895-0.403,12.169-4.846c0.136-0.254,1.994-3.643,5.637-6.761
	c-3.162,9.783-10.767,23.347-28.845,36.492c-2.032,1.479-3.434,3.668-3.925,6.132l-32.879,164.87l-16.249-3.24l25.116-125.949
	c1.08-5.417-2.435-10.683-7.851-11.763c-5.417-1.082-10.684,2.435-11.763,7.851l-27.072,135.757
	c-0.519,2.602,0.017,5.302,1.489,7.508c1.473,2.206,3.761,3.736,6.361,4.255l35.863,7.151c0.66,0.132,1.318,0.195,1.967,0.195
	c4.671,0,8.848-3.29,9.796-8.046l34.087-170.93c39.75-30.782,36.092-65.23,35.912-66.718c-0.634-5.234-5.25-9.068-10.484-8.782
	c-3.951,0.22-7.543,0.977-10.788,2.09l13.463-67.513C443.854,178.637,452.896,153.615,453.346,119.509z M423.655,81.374
	c0.331-0.246,0.657-0.481,0.983-0.719c0.347-0.252,0.695-0.505,1.032-0.743c0.135-0.097,0.27-0.191,0.405-0.286
	c1.126-0.792,2.19-1.513,3.178-2.155c-0.438,7.917-2.134,19.696-5.788,33.472c-1.804,0.255-3.615,0.535-5.415,0.839
	c-1.143-7.027-2.715-14.826-4.833-21.961c3.547-3.09,7.052-5.927,10.338-8.371C423.588,81.424,423.622,81.397,423.655,81.374z
	 M392.927,92.007c2.12,6.234,4.062,14.708,5.571,24.225c-4.26,1.281-8.01,2.675-11.235,4.18c-2.403-2.627-5.329-5.353-8.773-8.17
	C383.534,104.032,388.578,96.95,392.927,92.007z M406.163,25.633c3.542,6.358,8.099,18.514,11.608,35.403
	c-4.593,3.006-9.173,6.522-13.33,9.971c-0.564-0.656-1.143-1.253-1.742-1.795c-0.306-0.277-0.631-0.524-0.963-0.757
	c-0.082-0.058-0.165-0.113-0.248-0.168c-0.306-0.202-0.62-0.389-0.944-0.554c-0.035-0.018-0.069-0.04-0.104-0.057
	c-0.356-0.176-0.722-0.326-1.094-0.458c-0.094-0.033-0.188-0.063-0.282-0.093c-0.318-0.103-0.639-0.19-0.966-0.26
	c-0.069-0.015-0.137-0.034-0.207-0.048c-0.382-0.074-0.768-0.123-1.157-0.152c-0.097-0.007-0.193-0.009-0.29-0.013
	c-0.151-0.007-0.301-0.021-0.452-0.021c-0.186,0-0.373,0.013-0.559,0.023c-0.065,0.004-0.13,0.004-0.195,0.008
	c-0.386,0.029-0.771,0.085-1.155,0.16c-0.089,0.017-0.178,0.038-0.266,0.057c-0.389,0.087-0.777,0.189-1.158,0.324
	c-0.004,0.001-0.007,0.002-0.011,0.003c-0.018,0.007-0.037,0.016-0.056,0.022c-0.743,0.266-1.489,0.588-2.242,0.967
	c-2.516-4.78-5.397-9.784-8.486-14.322C391.582,39.624,400.453,30.145,406.163,25.633z M364.955,64.647
	c0.666,0.971,1.372,2.045,2.108,3.207c0.09,0.142,0.179,0.284,0.269,0.428c0.214,0.342,0.434,0.701,0.653,1.059
	c0.216,0.355,0.433,0.706,0.65,1.071c0.009,0.016,0.019,0.033,0.029,0.049c2.106,3.529,4.264,7.51,6.363,11.742
	c-4.693,5.777-9.136,12.377-12.887,18.428c-1.545-0.971-3.11-1.925-4.679-2.852C359.371,83.656,362.323,72.126,364.955,64.647z"/>
<path d="M327.077,328.726c0.66,0.131,1.317,0.194,1.965,0.194c4.672,0,8.849-3.291,9.797-8.048l0.05-0.25
	c1.078-5.417-2.438-10.683-7.854-11.762c-5.423-1.08-10.683,2.438-11.762,7.853l-0.05,0.25
	C318.145,322.381,321.661,327.647,327.077,328.726z"/>
<g>
</g>
<g>
</g>
<g>
</g>
<g>
</g>
<g>
</g>
<g>
</g>
<g>
</g>
<g>
</g>
<g>
</g>
<g>
</g>
<g>
</g>
<g>
</g>
<g>
</g>
<g>
</g>
<g>
</g>
</svg>
