<?xml version="1.0" encoding="iso-8859-1"?>
<!-- Generator: Adobe Illustrator 21.0.0, SVG Export Plug-In . SVG Version: 6.00 Build 0)  -->
<svg version="1.1" id="Capa_1" xmlns="http://www.w3.org/2000/svg" xmlns:xlink="http://www.w3.org/1999/xlink" x="0px" y="0px"
	 viewBox="0 0 511.998 511.998" style="enable-background:new 0 0 511.998 511.998;" xml:space="preserve">
<g>
	<path style="fill:#AA836D;" d="M226.587,123.834C226.05,96.144,231.188,41.082,276.179,10l42.043,35.188
		c0,0-46.211,30.545-56.278,61.162l-5.946-4.43L226.587,123.834z"/>
	<polygon style="fill:#87DD60;" points="255.998,101.92 286.071,124.328 321.375,115.544 342.157,148.55 377.923,154.577 
		386.606,193.723 418.004,213.747 413.417,253.746 436.206,285.062 418.966,320.513 430.069,358.891 402.506,385.006 
		400.423,425.264 366.259,438.515 351.272,475.215 315.121,473.813 289.253,502 255.998,486.134 222.743,502 196.875,473.813 
		160.724,475.215 145.736,438.515 111.573,425.264 109.489,385.006 81.927,358.891 93.029,320.513 75.79,285.062 98.579,253.746 
		93.991,213.747 125.389,193.723 134.072,154.577 169.838,148.55 190.62,115.545 225.924,124.328 	"/>
</g>
<path d="M156.582,466.101c-5.028,2.285-7.251,8.214-4.966,13.241l0.005,0.011c1.675,3.685,5.305,5.86,9.104,5.86
	c1.385,0,2.792-0.289,4.136-0.899c5.027-2.286,7.248-8.22,4.963-13.247C167.538,466.037,161.609,463.813,156.582,466.101z"/>
<path d="M444.292,279.178l-20.496-28.164l4.143-36.128c0.437-3.8-1.333-7.515-4.558-9.571l-27.909-17.798l-7.787-35.105
	c-0.882-3.975-4.086-7.018-8.101-7.695l-31.35-5.283l-18.397-29.217c-2.301-3.655-6.689-5.422-10.876-4.376l-30.712,7.642
	l-14.047-10.467c10.671-20.607,38.63-42.262,49.532-49.483c2.635-1.742,4.292-4.626,4.471-7.779
	c0.178-3.153-1.145-6.205-3.566-8.232L282.596,2.331c-3.45-2.887-8.403-3.115-12.102-0.559
	c-9.167,6.332-17.326,13.952-24.254,22.646c-3.441,4.319-2.729,10.611,1.59,14.053c4.321,3.44,10.611,2.729,14.053-1.59
	c4.14-5.196,8.815-9.927,13.955-14.125l26.113,21.855c-12.746,9.772-33.568,27.647-44.526,47.41
	c-0.054-0.008-0.109-0.009-0.163-0.016c-0.226-0.029-0.453-0.051-0.68-0.064c-0.094-0.005-0.188-0.008-0.282-0.011
	c-0.211-0.007-0.422-0.006-0.633,0.001c-0.094,0.003-0.187,0.005-0.28,0.011c-0.234,0.014-0.467,0.038-0.7,0.069
	c-0.064,0.009-0.129,0.013-0.193,0.023c-0.297,0.045-0.593,0.103-0.886,0.175c-0.053,0.013-0.105,0.031-0.158,0.045
	c-0.236,0.062-0.47,0.132-0.701,0.211c-0.094,0.032-0.187,0.069-0.28,0.104c-0.192,0.072-0.382,0.15-0.57,0.235
	c-0.097,0.044-0.194,0.088-0.29,0.135c-0.191,0.093-0.378,0.194-0.563,0.3c-0.083,0.048-0.168,0.092-0.25,0.142
	c-0.263,0.16-0.521,0.33-0.771,0.517l-12.667,9.438c0.619-6.478,1.664-13.557,3.359-20.845c1.251-5.38-2.096-10.755-7.475-12.006
	c-5.385-1.246-10.754,2.096-12.006,7.475c-2.867,12.329-4.078,24.067-4.495,33.776l-23.705-5.898
	c-4.188-1.047-8.576,0.722-10.876,4.376l-18.396,29.216l-31.352,5.283c-4.015,0.677-7.219,3.721-8.101,7.695l-7.787,35.105
	l-27.909,17.798c-3.225,2.057-4.994,5.771-4.558,9.571l4.144,36.128l-20.496,28.164c-2.175,2.988-2.523,6.933-0.907,10.257
	l15.558,31.993l-10.035,34.685c-1.039,3.593,0.014,7.466,2.729,10.038l24.66,23.365l1.878,36.265
	c0.203,3.934,2.697,7.382,6.37,8.807l30.149,11.694l3.533,8.651c2.089,5.112,7.924,7.565,13.039,5.477
	c5.112-2.088,7.564-7.926,5.477-13.039l-5.161-12.637c-1.039-2.544-3.079-4.548-5.642-5.542l-28.127-10.91l-1.75-33.792
	c-0.132-2.564-1.245-4.978-3.108-6.742l-23.142-21.926l9.411-32.529c0.688-2.378,0.469-4.927-0.613-7.152l-14.613-30.05
	l19.255-26.46c1.475-2.026,2.135-4.533,1.849-7.023l-3.875-33.79l26.128-16.662c2.234-1.425,3.811-3.679,4.386-6.266l7.225-32.57
	l29.124-4.907c2.809-0.474,5.282-2.122,6.8-4.533l16.928-26.882l28.282,7.036c2.906,0.721,5.985,0.105,8.389-1.686l24.099-17.956
	l24.099,17.956c2.402,1.791,5.484,2.406,8.389,1.686l28.283-7.037l16.928,26.883c1.517,2.41,3.991,4.06,6.8,4.533l29.123,4.907
	l7.225,32.57c0.574,2.587,2.151,4.841,4.386,6.266l26.128,16.662l-3.875,33.79c-0.286,2.49,0.374,4.997,1.849,7.023l19.256,26.46
	l-14.613,30.05c-1.082,2.226-1.301,4.775-0.613,7.152l9.41,32.528l-23.142,21.927c-1.863,1.765-2.977,4.179-3.108,6.742
	l-1.75,33.792l-28.127,10.91c-2.563,0.994-4.603,2.998-5.642,5.543l-12.34,30.217l-29.153-1.13c-2.931-0.137-5.77,1.066-7.755,3.23
	l-20.869,22.738l-26.581-12.682c-2.723-1.299-5.889-1.299-8.611,0l-26.581,12.682l-20.869-22.738
	c-3.733-4.067-10.06-4.343-14.129-0.605c-4.069,3.734-4.34,10.06-0.605,14.129l25.868,28.186c2.971,3.237,7.709,4.157,11.673,2.264
	l28.949-13.811l28.949,13.811c1.376,0.657,2.846,0.975,4.303,0.975c2.738,0,5.431-1.125,7.37-3.238l22.739-24.776l31.525,1.222
	c4.253,0.176,8.057-2.319,9.646-6.212l13.359-32.714l30.149-11.694c3.673-1.425,6.167-4.872,6.37-8.807l1.878-36.265l24.66-23.365
	c2.715-2.572,3.768-6.444,2.729-10.038l-10.034-34.685l15.558-31.993C446.815,286.111,446.466,282.166,444.292,279.178z"/>
<path d="M197.102,438.562c1.264,4.266,5.179,7.162,9.584,7.161c0.179,0,0.359-0.005,0.539-0.015l19.28-1.031
	c5.515-0.295,9.746-5.005,9.451-10.52c-0.295-5.515-5.021-9.754-10.52-9.451l-11.398,0.609l-5.599-18.907
	c-0.76-2.564-2.515-4.718-4.873-5.98l-14.086-7.533l-0.933-24.855c-0.078-2.067-0.795-4.06-2.052-5.703l-13.135-17.16l5.422-25.844
	c0.376-1.791,0.253-3.652-0.356-5.379l-8.525-24.174l11.186-21.197c0.891-1.688,1.28-3.595,1.122-5.496l-2.168-26.068l14.145-12.439
	c1.745-1.534,2.9-3.628,3.27-5.922l3.596-22.352l13.037-3.029c3.021-0.702,5.545-2.766,6.833-5.587l10.638-23.298
	c2.294-5.023,0.081-10.956-4.943-13.25c-5.025-2.296-10.957-0.082-13.25,4.943l-8.595,18.824l-14.79,3.437
	c-3.957,0.919-6.964,4.142-7.609,8.152l-4.092,25.436l-15.225,13.389c-2.378,2.091-3.624,5.184-3.362,8.339l2.343,28.172
	l-11.863,22.481c-1.302,2.466-1.515,5.363-0.587,7.993l9.05,25.659l-5.789,27.593c-0.598,2.85,0.076,5.818,1.846,8.131
	l13.989,18.277l1.029,27.413c0.134,3.553,2.143,6.767,5.277,8.443l15.462,8.269L197.102,438.562z"/>
<path d="M276.039,434.157c-0.295,5.515,3.937,10.225,9.451,10.52l19.28,1.031c0.181,0.01,0.359,0.015,0.538,0.015
	c4.405,0,8.321-2.896,9.585-7.16l6.653-22.469l15.461-8.269c3.135-1.677,5.143-4.891,5.277-8.443l1.029-27.413l13.989-18.277
	c1.771-2.313,2.444-5.281,1.847-8.131l-6.363-30.332c-1.135-5.406-6.438-8.872-11.84-7.734c-5.405,1.134-8.868,6.436-7.734,11.84
	l5.422,25.844l-13.135,17.16c-1.258,1.643-1.975,3.636-2.053,5.703l-0.933,24.855l-14.085,7.533
	c-2.358,1.262-4.113,3.415-4.873,5.979l-5.6,18.908l-11.398-0.609C281.03,424.399,276.334,428.642,276.039,434.157z"/>
<path d="M344.067,293.52l0.054,0.103c1.787,3.412,5.266,5.362,8.867,5.362c1.563,0,3.15-0.368,4.631-1.144
	c4.893-2.563,6.781-8.606,4.219-13.498l-0.054-0.103c-2.564-4.894-8.607-6.779-13.498-4.219
	C343.393,282.584,341.504,288.628,344.067,293.52z"/>
<path d="M348.94,225.323l-15.225-13.389l-4.092-25.436c-0.646-4.011-3.652-7.233-7.609-8.152l-14.789-3.437l-8.596-18.825
	c-2.295-5.025-8.229-7.236-13.25-4.943c-5.025,2.294-7.237,8.227-4.943,13.25l10.639,23.299c1.288,2.821,3.813,4.885,6.833,5.587
	l13.036,3.029l3.596,22.352c0.369,2.294,1.524,4.388,3.27,5.922l14.145,12.439l-2.168,26.068c-0.158,1.901,0.232,3.809,1.122,5.496
	l0.744,1.41c1.792,3.397,5.262,5.335,8.853,5.335c1.573,0,3.17-0.372,4.658-1.158c4.433-2.339,6.383-7.537,4.779-12.129l2.36-28.38
	C352.564,230.507,351.318,227.414,348.94,225.323z"/>
<path d="M236.289,61.658c1.361,0.629,2.791,0.927,4.197,0.927c3.773,0,7.378-2.144,9.064-5.797c0.016-0.031,0.058-0.12,0.072-0.152
	c2.314-5.015,0.134-10.975-4.881-13.289c-5.013-2.315-10.946-0.145-13.261,4.87c-0.016,0.031-0.058,0.12-0.072,0.152
	C229.093,53.384,231.274,59.344,236.289,61.658z"/>
<g>
</g>
<g>
</g>
<g>
</g>
<g>
</g>
<g>
</g>
<g>
</g>
<g>
</g>
<g>
</g>
<g>
</g>
<g>
</g>
<g>
</g>
<g>
</g>
<g>
</g>
<g>
</g>
<g>
</g>
</svg>
