<svg height="479pt" viewBox="0 -19 479.90944 479" width="479pt" xmlns="http://www.w3.org/2000/svg"><path d="m297.554688 218.054688c-3.476563 0-6.96875-.097657-10.472657-.292969-3.835937-.222657-6.972656-3.136719-7.472656-6.945313-7.140625-54.164062 9.890625-108.730468 46.566406-149.21875 36.679688-40.492187 89.300781-62.8125 143.90625-61.046875 3.839844.128907 7.046875 2.964844 7.640625 6.761719 8.226563 52.664062-6.976562 106.296875-41.613281 146.8125s-85.25 63.867188-138.554687 63.929688zm0 0" fill="#389a6b"/><path d="m247.953125 322.054688h-16c-.097656-43.125 16.871094-84.539063 47.199219-115.199219l2.640625-2.679688 182.25-201.175781 11.863281 10.742188-185.34375 204.3125c-27.386719 27.675781-42.707031 65.066406-42.609375 104zm0 0" fill="#58af7a"/><path d="m313.804688 172.3125 90.402343-4.460938.789063 15.980469-90.402344 4.460938zm0 0" fill="#58af7a"/><path d="m351.410156 130.8125 84.75-4.183594.789063 15.980469-84.753907 4.183594zm0 0" fill="#58af7a"/><path d="m394.375 83.390625 67.796875-3.347656.789063 15.980469-67.796876 3.347656zm0 0" fill="#58af7a"/><path d="m437.351562 35.960938 33.894532-1.675782.789062 15.980469-33.894531 1.675781zm0 0" fill="#58af7a"/><path d="m302.128906 97.472656 15.984375-.785156 4.089844 83.355469-15.984375.785156zm0 0" fill="#58af7a"/><path d="m339.632812 54.445312 15.980469-.785156 4.175781 84.75-15.980468.789063zm0 0" fill="#58af7a"/><path d="m383.449219 23.960938 15.980469-.785157 3.339843 67.796875-15.980469.789063zm0 0" fill="#58af7a"/><path d="m428.15625 10.566406 15.984375-.785156 1.664063 33.910156-15.984376.785156zm0 0" fill="#58af7a"/><path d="m182.355469 283.734375c-53.304688-.0625-103.917969-23.414063-138.554688-63.929687-34.636719-40.511719-49.839843-94.140626-41.613281-146.804688.589844-3.796875 3.796875-6.640625 7.636719-6.769531 54.613281-1.777344 107.242187 20.542969 143.929687 61.035156 36.683594 40.488281 53.71875 95.058594 46.578125 149.230469-.503906 3.808594-3.640625 6.722656-7.472656 6.945312-3.503906.191406-7.007813.289063-10.503906.292969zm0 0" fill="#389a6b"/><g fill="#58af7a"><path d="m3.960938 79.46875 11.859374-10.734375 182.347657 201.371094-11.855469 10.738281zm0 0"/><path d="m74.917969 249.519531.785156-15.980469 90.402344 4.453126-.785157 15.980468zm0 0"/><path d="m42.960938 208.296875.789062-15.980469 84.753906 4.179688-.789062 15.980468zm0 0"/><path d="m16.933594 161.703125.789062-15.980469 67.796875 3.339844-.789062 15.984375zm0 0"/><path d="m7.871094 115.949219.789062-15.980469 33.894532 1.671875-.789063 15.980469zm0 0"/><path d="m157.710938 245.582031 4.113281-83.328125 15.980469.789063-4.113282 83.328125zm0 0"/><path d="m120.117188 204.089844 4.183593-84.753906 15.980469.789062-4.183594 84.753906zm0 0"/><path d="m77.136719 156.660156 3.347656-67.796875 15.980469.789063-3.347656 67.796875zm0 0"/><path d="m34.164062 109.230469 1.671876-33.894531 15.980468.789062-1.671875 33.894531zm0 0"/><path d="m247.953125 442.054688h-16v-55.292969c.109375-39.332031-15.523437-77.066407-43.40625-104.800781l-2.25-2.25 11.3125-11.3125 2.25 2.25c30.894531 30.726562 48.214844 72.539062 48.09375 116.113281zm0 0"/><path d="m231.953125 322.054688h16v64.707031h-16zm0 0"/><path d="m255.953125 274.054688h-16v-35.199219c.019531-15.347657-7.65625-29.683594-20.4375-38.183594l8.878906-13.3125c17.234375 11.464844 27.578125 30.796875 27.558594 51.496094zm0 0"/></g><path d="m215.953125 210.054688c-13.253906 0-24-10.742188-24-24 0-13.253907 10.746094-24 24-24s24 10.746093 24 24c0 13.257812-10.746094 24-24 24zm0 0" fill="#8a4325"/><path d="m244.394531 304.710938-8.878906-13.3125 14.71875-9.8125c23.003906-15.367188 50.054687-23.558594 77.71875-23.53125v16c-24.484375-.027344-48.429687 7.210937-68.800781 20.800781zm0 0" fill="#58af7a"/><path d="m234.296875 375.710938-9.367187-9.367188c-12.960938-13.03125-30.59375-20.339844-48.976563-20.289062v-16c22.628906-.0625 44.335937 8.929687 60.289063 24.976562l9.367187 9.367188zm0 0" fill="#58af7a"/><path d="m343.953125 290.054688c-13.253906 0-24-10.742188-24-24 0-13.253907 10.746094-24 24-24s24 10.746093 24 24c0 13.257812-10.746094 24-24 24zm0 0" fill="#8a4325"/><path d="m159.953125 362.054688c-13.253906 0-24-10.742188-24-24 0-13.253907 10.746094-24 24-24s24 10.746093 24 24c0 13.257812-10.746094 24-24 24zm0 0" fill="#8a4325"/></svg>