<?xml version="1.0" encoding="iso-8859-1"?>
<!-- Generator: Adobe Illustrator 21.0.0, SVG Export Plug-In . SVG Version: 6.00 Build 0)  -->
<svg version="1.1" id="Capa_1" xmlns="http://www.w3.org/2000/svg" xmlns:xlink="http://www.w3.org/1999/xlink" x="0px" y="0px"
	 viewBox="0 0 512 512" style="enable-background:new 0 0 512 512;" xml:space="preserve">
<g>
	<path style="fill:#87DD60;" d="M278.123,111.612c-10.866-20.706-16.777-54.24-9.801-74.402
		c9.991-28.877-17.725-36.26-31.082-14.996c-10.82,17.225-10.901,49.528-3.367,89.397c-44.544-24.851-67.078-0.885-116.708-2.336
		c0,0,7.058,15.283,27.208,28.341c0.001,0,0.002,0,0.002,0.001c11.167,7.236,26.354,13.789,46.589,16.681
		c-7.368,23.766-8.183,38.361,2.684,62.797c14.464-17.6,45.102-33.9,70.418-42.358c15.262,26.848,38.518,38.862,60.309,53.067
		c10.761-23.24,9.494-58.514-3.343-73.506c21.155-3.022,36.206-10.362,46.767-18.383c17.769-13.493,22.818-28.909,22.818-28.909
		C339.579,107.065,327.735,76.007,278.123,111.612z"/>
	<path style="fill:#FD4848;" d="M144.372,137.616C144.373,137.617,144.373,137.617,144.372,137.616L144.372,137.616z
		 M144.375,137.616C144.374,137.616,144.373,137.616,144.375,137.616L144.375,137.616z M264.066,174.736
		c15.262,26.848,38.518,38.862,60.309,53.067c10.761-23.24,9.494-58.514-3.343-73.506c21.155-3.022,36.206-10.362,46.766-18.384
		c32.923,2.387,107.587,62.882,107.587,164.203S375.217,501.997,254.052,501.997c-121.163,0-217.441-101.126-217.441-201.88
		c0-100.752,75.097-158.015,107.761-162.502c11.169,7.237,26.357,13.791,46.591,16.682c-7.368,23.766-8.183,38.361,2.684,62.797
		C208.111,199.495,238.749,183.194,264.066,174.736z"/>
</g>
<path d="M277.707,455.144c-0.044,0.007-0.195,0.034-0.246,0.043c-5.435,0.966-9.039,6.149-8.077,11.585
	c0.858,4.848,5.092,8.254,9.853,8.254c0.579,0,1.167-0.051,1.757-0.155c5.448-0.908,9.128-6.06,8.221-11.508
	C288.306,457.916,283.148,454.235,277.707,455.144z"/>
<path d="M359.308,418.304c-15.631,12.893-34.869,23.346-55.636,30.226c-5.243,1.737-8.085,7.395-6.349,12.638
	c1.392,4.199,5.298,6.858,9.491,6.858c1.043,0,2.103-0.165,3.146-0.51c23.091-7.649,44.556-19.332,62.073-33.783
	c4.261-3.514,4.865-9.817,1.351-14.078C369.871,415.393,363.569,414.788,359.308,418.304z"/>
<path d="M62.368,204.542c1.719,1.165,3.671,1.724,5.602,1.724c3.205,0,6.353-1.537,8.287-4.389l0.085-0.126
	c3.126-4.553,1.968-10.778-2.585-13.904s-10.777-1.968-13.904,2.585l-0.151,0.221C56.602,195.225,57.795,201.443,62.368,204.542z"/>
<path d="M481.323,259.087c-1.068-5.419-6.327-8.944-11.746-7.875s-8.944,6.328-7.875,11.746c2.475,12.543,3.679,24.699,3.684,37.163
	c0.016,46.547-22.606,94.53-62.067,131.649c-41.291,38.839-94.3,60.229-149.263,60.229c-54.637,0-106.917-21.433-147.21-60.35
	c-38.277-36.971-60.231-84.912-60.231-131.531c0-23.304,4.246-45.616,12.619-66.315c2.071-5.12-0.4-10.949-5.52-13.02
	c-5.121-2.071-10.95,0.4-13.02,5.52c-9.342,23.094-14.079,47.929-14.079,73.816c0,52.014,24.179,105.198,66.337,145.917
	C136.992,488.573,194.207,512,254.055,512c30.645,0,60.774-6.078,89.549-18.065c27.174-11.319,51.875-27.333,73.418-47.597
	c43.465-40.883,68.383-94.18,68.364-146.223C485.381,286.338,484.051,272.917,481.323,259.087z"/>
<path d="M454.509,237.364l0.095,0.26c1.506,4.016,5.318,6.495,9.369,6.495c1.165,0,2.352-0.205,3.507-0.639
	c5.171-1.939,7.793-7.7,5.853-12.871c-0.001-0.004-0.017-0.047-0.018-0.051c-1.871-5.193-7.587-7.869-12.785-6.001
	C455.337,226.425,452.644,232.168,454.509,237.364z"/>
<path d="M85.28,184.753c2.622,0,5.24-1.025,7.203-3.062c1.851-1.921,4.302-4.373,5.959-5.962
	c17.45-16.73,33.815-25.034,43.964-27.548c9.521,5.668,21.364,10.741,35.964,13.986c-4.74,19.332-4.301,35.511,6.141,58.992
	c1.409,3.168,4.358,5.38,7.794,5.846c3.435,0.467,6.867-0.881,9.069-3.56c11.97-14.566,37.285-28.45,58.465-36.565
	c14.022,20.753,32.423,32.39,50.278,43.683c2.901,1.835,5.902,3.733,8.797,5.62c1.642,1.07,3.542,1.623,5.461,1.623
	c0.925,0,1.854-0.128,2.761-0.389c2.79-0.801,5.094-2.775,6.313-5.41c9.944-21.477,10.62-50.566,2.983-70.551
	c14.106-3.573,25.254-9.027,34.014-15.067c16.465,3.456,47.298,23.519,69.598,60.645c1.876,3.123,5.186,4.852,8.582,4.852
	c1.752,0,3.527-0.461,5.14-1.429c4.734-2.844,6.267-8.987,3.423-13.721c-15.196-25.299-32.647-41.52-44.612-50.674
	c-8.541-6.534-17.046-11.611-25.061-15.052c9.132-10.762,12.33-20.059,12.602-20.89c0.999-3.048,0.475-6.39-1.409-8.986
	c-1.881-2.593-4.891-4.127-8.094-4.127c-0.055,0.002-0.099,0-0.148,0c-16.557,0-28.437-3.506-39.926-6.896
	c-19.593-5.781-38.198-11.272-68.071,6.655c-7.104-19.123-9.354-42.826-4.698-56.286c7.214-20.848-1.36-33.582-10.895-38.152
	c-11.058-5.3-27.698-1.999-38.105,14.568c-10.05,16-12.65,42.179-7.773,77.962c-22.616-7.737-40.733-4.145-59.694-0.387
	c-13.165,2.61-26.781,5.307-43.848,4.81c-3.457-0.103-6.729,1.595-8.636,4.485c-1.909,2.889-2.186,6.56-0.734,9.704
	c0.367,0.795,4.741,9.941,15.5,20.376c-12.748,5.909-26.537,15.512-38.986,27.446c-1.826,1.751-4.507,4.433-6.521,6.523
	c-3.832,3.978-3.714,10.308,0.264,14.14C80.283,183.823,82.783,184.753,85.28,184.753z M165.194,114.09
	c21.391-4.24,37.151-7.352,60.088,4.282c2.332,8.604,5.682,17.989,9.638,26.905c1.655,3.73,5.313,5.947,9.146,5.947
	c1.355,0,2.732-0.277,4.05-0.862c5.048-2.24,7.325-8.148,5.085-13.196c-4.074-9.181-7.546-19.25-9.549-27.665
	c-7.351-39.044-6.624-68.149,2.055-81.966c4.339-6.907,10.039-8.36,12.523-7.171c2.205,1.057,3.346,5.757,0.64,13.577
	c-8.099,23.41-1.221,59.829,10.147,81.827c1.995,4.951,4.559,10.416,7.442,15.849c1.796,3.385,5.26,5.314,8.842,5.314
	c1.581,0,3.186-0.376,4.68-1.169c4.878-2.589,6.733-8.643,4.145-13.521c-1.254-2.363-2.43-4.719-3.514-7.018
	c23.504-14.99,35.475-11.474,54.268-5.927c8.107,2.392,17.591,5.19,29.165,6.671c-2.803,3.603-6.595,7.628-11.627,11.525
	c-0.46,0.294-0.897,0.622-1.303,0.986c-9.333,6.891-22.676,13.232-41.498,15.922c-3.612,0.516-6.657,2.958-7.943,6.373
	c-1.287,3.415-0.611,7.259,1.762,10.031c8.404,9.814,10.476,32.88,5.694,51.794c-17.936-11.355-34.773-22.399-46.371-42.802
	c-1.816-3.196-5.177-5.06-8.694-5.06c-1.055,0-2.123,0.167-3.168,0.517c-19.241,6.428-45.011,18.507-63.248,33.825
	c-3.992-14.477-2.171-25.571,2.866-41.818c0.868-2.797,0.465-5.833-1.101-8.308c-1.566-2.475-4.138-4.139-7.037-4.553
	c-18.203-2.6-31.821-8.329-41.818-14.633c-0.488-0.384-1.011-0.721-1.562-1.009c-5.107-3.376-9.212-6.876-12.446-10.117
	C147.191,117.658,156.56,115.801,165.194,114.09z"/>
<g>
</g>
<g>
</g>
<g>
</g>
<g>
</g>
<g>
</g>
<g>
</g>
<g>
</g>
<g>
</g>
<g>
</g>
<g>
</g>
<g>
</g>
<g>
</g>
<g>
</g>
<g>
</g>
<g>
</g>
</svg>
