<svg height="483pt" viewBox="0 -8 483.45722 483" width="483pt" xmlns="http://www.w3.org/2000/svg"><g fill="#c06515"><path d="m327.175781 82.59375c0 13.257812-10.746093 24-24 24-13.253906 0-24-10.742188-24-24 0-13.253906 10.746094-24 24-24 13.253907 0 24 10.746094 24 24zm0 0"/><path d="m375.175781 58.59375c0 13.257812-10.746093 24-24 24-13.253906 0-24-10.742188-24-24 0-13.253906 10.746094-24 24-24 13.253907 0 24 10.746094 24 24zm0 0"/><path d="m327.175781 130.59375c0 13.257812-10.746093 24-24 24-13.253906 0-24-10.742188-24-24 0-13.253906 10.746094-24 24-24 13.253907 0 24 10.746094 24 24zm0 0"/><path d="m375.175781 106.59375c0 13.257812-10.746093 24-24 24-13.253906 0-24-10.742188-24-24 0-13.253906 10.746094-24 24-24 13.253907 0 24 10.746094 24 24zm0 0"/><path d="m327.175781 178.59375c0 13.257812-10.746093 24-24 24-13.253906 0-24-10.742188-24-24 0-13.253906 10.746094-24 24-24 13.253907 0 24 10.746094 24 24zm0 0"/><path d="m375.175781 154.59375c0 13.257812-10.746093 24-24 24-13.253906 0-24-10.742188-24-24 0-13.253906 10.746094-24 24-24 13.253907 0 24 10.746094 24 24zm0 0"/><path d="m327.175781 226.59375c0 13.257812-10.746093 24-24 24-13.253906 0-24-10.742188-24-24 0-13.253906 10.746094-24 24-24 13.253907 0 24 10.746094 24 24zm0 0"/><path d="m375.175781 202.59375c0 13.257812-10.746093 24-24 24-13.253906 0-24-10.742188-24-24 0-13.253906 10.746094-24 24-24 13.253907 0 24 10.746094 24 24zm0 0"/><path d="m327.175781 274.59375c0 13.257812-10.746093 24-24 24-13.253906 0-24-10.742188-24-24 0-13.253906 10.746094-24 24-24 13.253907 0 24 10.746094 24 24zm0 0"/><path d="m375.175781 250.59375c0 13.257812-10.746093 24-24 24-13.253906 0-24-10.742188-24-24 0-13.253906 10.746094-24 24-24 13.253907 0 24 10.746094 24 24zm0 0"/><path d="m327.175781 322.59375c0 13.257812-10.746093 24-24 24-13.253906 0-24-10.742188-24-24 0-13.253906 10.746094-24 24-24 13.253907 0 24 10.746094 24 24zm0 0"/><path d="m375.175781 298.59375c0 13.257812-10.746093 24-24 24-13.253906 0-24-10.742188-24-24 0-13.253906 10.746094-24 24-24 13.253907 0 24 10.746094 24 24zm0 0"/><path d="m327.175781 370.59375c0 13.257812-10.746093 24-24 24-13.253906 0-24-10.742188-24-24 0-13.253906 10.746094-24 24-24 13.253907 0 24 10.746094 24 24zm0 0"/><path d="m375.175781 346.59375c0 13.257812-10.746093 24-24 24-13.253906 0-24-10.742188-24-24 0-13.253906 10.746094-24 24-24 13.253907 0 24 10.746094 24 24zm0 0"/><path d="m327.175781 418.59375c0 13.257812-10.746093 24-24 24-13.253906 0-24-10.742188-24-24 0-13.253906 10.746094-24 24-24 13.253907 0 24 10.746094 24 24zm0 0"/><path d="m375.175781 394.59375c0 13.257812-10.746093 24-24 24-13.253906 0-24-10.742188-24-24 0-13.253906 10.746094-24 24-24 13.253907 0 24 10.746094 24 24zm0 0"/><path d="m375.175781 442.59375c0 13.257812-10.746093 24-24 24-13.253906 0-24-10.742188-24-24 0-13.253906 10.746094-24 24-24 13.253907 0 24 10.746094 24 24zm0 0"/></g><path d="m306.824219 9.308594c-28-18.121094-29.875-5.066406-61.855469 4.261718-31.984375 9.328126-27.53125 24.695313-59.539062 34.03125-32.007813 9.335938-41.488282-12.710937-70.285157 4.082032-21.226562 12.382812-5.890625 30.777344-21.882812 49.429687-15.992188 18.65625-28.152344 8.265625-44.152344 26.929688-16 18.664062-10.871094 21.527343-18.308594 44.953125-10.890625 34.328125-16.953125 33.269531-18.28125 69.253906s14.65625 36.617188 13.320313 72.625c-1.335938 36.007812-46.664063 63.585938-14.082032 78.921875 31.554688 14.886719 21.601563-38.058594 45.601563-63.378906 24-25.320313 35.625-14.335938 59.632813-39.671875 24.007812-25.335938 11.863281-37.160156 36.542968-61.839844 15.328125-15.335938 27.046875-3.09375 43.023438-17.75 15.976562-14.65625 5.199218-26.464844 21.207031-41.144531 16.007813-14.679688 32.210937-.898438 44.113281-19.066407 14.113282-21.527343-4.800781-31.269531 4.511719-55.261718 9.3125-23.992188 17.488281-19.5625 32.609375-40.417969 15.117188-20.855469 29.4375-31.949219 7.824219-45.957031zm0 0" fill="#58af7a"/><path d="m343.4375 2.761719c23.328125-4.894531 14.9375 29.175781 33.335938 44.359375 18.402343 15.1875 28.585937 2.851562 46.96875 18.042968 18.386718 15.191407 11.769531 21.175782 25.039062 41 9.769531 14.582032 17.832031 11.269532 21.152344 28.503907 3.320312 17.230469-12.382813 20.277343-9.054688 37.527343 3.328125 17.246094 24.304688 16.359376 22.464844 33.832032-2.214844 20.917968-22.710938 16.160156-29.953125 35.910156-7.238281 19.753906 7.777344 25.273438.535156 45.042969-7.238281 19.765625-.796875 29.292969-21.808593 28.796875-20.261719-.496094-11.261719-10.765625-14.398438-30.789063-3.136719-20.023437 12.625-22.546875 9.457031-42.578125s-16.511719-17.128906-21.960937-36.671875c-4.167969-14.941406 8.648437-19.574219 2.289062-33.726562-6.359375-14.152344-20.960937-7.609375-27.328125-21.785157-6.367187-14.175781 7.253907-19.609374 2.101563-34.273437-6.175782-17.597656-20.191406-13.222656-25.117188-31.199219-4.929687-17.976562 13.597656-25.269531 4.949219-41.816406-11.933594-22.742188-36.941406-36.34375-18.671875-40.175781zm0 0" fill="#58af7a"/><path d="m326.878906 20.675781c-32.609375-6.847656-29.144531 7.199219-54.832031 28.429688-25.6875 21.234375-15.519531 33.601562-41.222656 54.800781-25.707031 21.199219-43.128907 4.730469-62.945313 31.542969-14.601562 19.769531 6.761719 30.59375-.550781 54.058593-7.3125 23.464844-22.554687 18.6875-29.90625 42.191407-7.351563 23.503906-1.597656 24.039062.960937 48.496093 3.265626 30.832032-2.457031 32.382813 10.328126 60.632813 12.785156 28.246094 27.367187 21.671875 40.167968 49.933594 12.800782 28.265625-12.855468 67.328125 18.167969 67.832031 28.328125.457031-3.335937-37.238281 1.097656-65.222656 4.429688-27.984375 20.238281-25.503906 24.679688-53.511719 4.4375-28.007813-14.351563-32.097656-6.730469-59.417969 5.824219-20.894531 23.898438-14.398437 32.800781-34.140625 8.90625-19.746093-5.695312-26.402343 3.199219-46.167969 8.898438-19.769531 25.449219-13.195312 32.648438-33.671874 8.632812-24.609376-8.375-29.914063-1.488282-55.066407 6.890625-25.152343 15.160156-21.671875 28.394532-44.160156 13.71875-23.34375 30.765624-41.199219 5.230468-46.558594zm0 0" fill="#77c974"/></svg>