<svg height="465pt" viewBox="-36 0 465 465.056" width="465pt" xmlns="http://www.w3.org/2000/svg"><path d="m191.398438 465.054688-15.855469-2.109376 16-120c.273437-2.066406 1.34375-3.945312 2.980469-5.234374l112-88 9.890624 12.578124-109.449218 85.992188zm0 0" fill="#389a6b"/><path d="m191.46875 456.472656-16-.945312 16-272c.078125-1.316406.480469-2.59375 1.167969-3.71875l64-104 13.601562 8.382812-62.90625 102.289063zm0 0" fill="#389a6b"/><path d="m175.46875 456.742188-23.917969-255.527344-23.90625-111.542969 15.648438-3.34375 24 112c.066406.304687.113281.617187.144531.929687l24 256zm0 0" fill="#389a6b"/><path d="m175.757812 458.144531-39.542968-142.402343-70.9375-86.679688 12.382812-10.125 72 88c.703125.855469 1.222656 1.851562 1.519532 2.917969l40 144zm0 0" fill="#389a6b"/><path d="m239.46875 432h-40c-4.417969 0-8-3.582031-8-8v-32h16v24h32zm0 0" fill="#77c974"/><path d="m278.15625 415.886719-48-8c-3.855469-.640625-6.683594-3.976563-6.6875-7.886719v-48h16v41.222656l41.3125 6.890625zm0 0" fill="#77c974"/><path d="m301.871094 391.839844-40-8c-2.148438-.429688-4.023438-1.71875-5.191406-3.566406-1.171876-1.847657-1.53125-4.09375-1.003907-6.21875l8-32 15.523438 3.890624-5.960938 23.855469 31.765625 6.398438zm0 0" fill="#77c974"/><path d="m189.871094 452.800781-12.800782-9.601562c32.230469-42.851563 77.769532-73.800781 129.480469-88l10.816407-2.953125 4.207031 15.441406-10.824219 2.945312c-48.277344 13.257813-90.789062 42.15625-120.878906 82.167969zm0 0" fill="#389a6b"/><path d="m159.46875 416h-40v-16h32v-24h16v32c0 4.417969-3.582031 8-8 8zm0 0" fill="#77c974"/><path d="m80.78125 399.886719-2.625-15.773438 41.3125-6.890625v-41.222656h16v48c0 3.910156-2.828125 7.246094-6.6875 7.886719zm0 0" fill="#77c974"/><path d="m57.070312 375.839844-3.199218-15.679688 31.765625-6.398437-5.960938-23.859375 15.523438-3.886719 8 32c.542969 2.117187.195312 4.367187-.960938 6.222656-1.160156 1.859375-3.027343 3.160157-5.167969 3.601563zm0 0" fill="#77c974"/><path d="m169.070312 436.800781c-30.097656-40-72.609374-68.886719-120.882812-82.136719l-10.820312-2.945312 4.207031-15.4375 10.816406 2.949219c51.703125 14.191406 97.242187 45.128906 129.480469 87.96875zm0 0" fill="#389a6b"/><path d="m272.4375 96c-17.671875 0-32-14.328125-32-32s14.328125-32 32-32 32 14.328125 32 32-14.328125 32-32 32zm0 0" fill="#ffbc49"/><g fill="#d2d2d2"><path d="m264.4375 0h16v40h-16zm0 0"/><path d="m264.4375 88h16v40h-16zm0 0"/><path d="m238.136719 9.375 14.503906-6.761719 16.902344 36.253907-14.5 6.761718zm0 0"/><path d="m275.335938 89.128906 14.5-6.761718 16.90625 36.253906-14.5 6.761718zm0 0"/><path d="m218.269531 28.992188 10.285157-12.253907 30.644531 25.710938-10.285157 12.257812zm0 0"/><path d="m285.683594 85.554688 10.285156-12.257813 30.640625 25.710937-10.28125 12.257813zm0 0"/><path d="m208.554688 55.167969 4.140624-15.457031 38.628907 10.351562-4.140625 15.457031zm0 0"/><path d="m293.554688 77.941406 4.140624-15.453125 38.628907 10.351563-4.140625 15.453125zm0 0"/><path d="m208.023438 67.238281 39.390624-6.953125 2.78125 15.757813-39.390624 6.953125zm0 0"/><path d="m294.6875 51.953125 39.390625-6.953125 2.78125 15.753906-39.390625 6.953125zm0 0"/><path d="m215.425781 94.152344 32.777344-22.929688 9.171875 13.109375-32.777344 22.929688zm0 0"/><path d="m287.507812 43.671875 32.773438-22.929687 9.171875 13.109374-32.773437 22.929688zm0 0"/><path d="m233.511719 115.429688 19.996093-34.644532 13.859376 8-19.996094 34.640625zm0 0"/><path d="m277.515625 39.222656 19.996094-34.644531 13.859375 8-20 34.644531zm0 0"/></g><path d="m126.5 104c-17.671875 0-32-14.328125-32-32s14.328125-32 32-32c17.675781 0 32 14.328125 32 32s-14.324219 32-32 32zm0 0" fill="#ffbc49"/><path d="m118.5 8h16v40h-16zm0 0" fill="#d2d2d2"/><path d="m118.5 96h16v40h-16zm0 0" fill="#d2d2d2"/><path d="m92.195312 17.371094 14.5-6.761719 16.90625 36.253906-14.503906 6.761719zm0 0" fill="#d2d2d2"/><path d="m129.390625 97.125 14.5-6.761719 16.90625 36.25-14.5 6.761719zm0 0" fill="#d2d2d2"/><path d="m72.324219 36.992188 10.285156-12.253907 30.644531 25.710938-10.285156 12.257812zm0 0" fill="#d2d2d2"/><path d="m139.738281 93.550781 10.285157-12.253906 30.640624 25.710937-10.285156 12.253907zm0 0" fill="#d2d2d2"/><path d="m62.613281 63.160156 4.140625-15.453125 38.628906 10.351563-4.140624 15.453125zm0 0" fill="#d2d2d2"/><path d="m147.613281 85.9375 4.140625-15.457031 38.628906 10.351562-4.140624 15.453125zm0 0" fill="#d2d2d2"/><path d="m62.074219 75.238281 39.394531-6.953125 2.777344 15.757813-39.390625 6.949219zm0 0" fill="#d2d2d2"/><path d="m148.742188 59.957031 39.390624-6.953125 2.78125 15.757813-39.390624 6.953125zm0 0" fill="#d2d2d2"/><path d="m69.480469 102.15625 32.773437-22.933594 9.171875 13.109375-32.773437 22.933594zm0 0" fill="#d2d2d2"/><path d="m141.566406 51.667969 32.777344-22.929688 9.171875 13.109375-32.777344 22.929688zm0 0" fill="#d2d2d2"/><path d="m87.570312 123.425781 20-34.644531 13.855469 8-19.996093 34.644531zm0 0" fill="#d2d2d2"/><path d="m131.574219 47.21875 20-34.640625 13.855469 8-19.996094 34.640625zm0 0" fill="#d2d2d2"/><path d="m328.4375 280c-17.671875 0-32-14.328125-32-32s14.328125-32 32-32 32 14.328125 32 32-14.328125 32-32 32zm0 0" fill="#ffbc49"/><path d="m320.4375 184h16v40h-16zm0 0" fill="#d2d2d2"/><path d="m320.4375 272h16v40h-16zm0 0" fill="#d2d2d2"/><path d="m294.144531 193.371094 14.5-6.761719 16.90625 36.253906-14.5 6.761719zm0 0" fill="#d2d2d2"/><path d="m331.332031 273.125 14.5-6.761719 16.90625 36.25-14.5 6.765625zm0 0" fill="#d2d2d2"/><path d="m274.265625 212.992188 10.285156-12.257813 30.644531 25.710937-10.285156 12.257813zm0 0" fill="#d2d2d2"/><path d="m341.679688 269.550781 10.285156-12.253906 30.640625 25.710937-10.28125 12.257813zm0 0" fill="#d2d2d2"/><path d="m264.554688 239.171875 4.140624-15.457031 38.628907 10.351562-4.140625 15.453125zm0 0" fill="#d2d2d2"/><path d="m349.554688 261.9375 4.140624-15.457031 38.628907 10.351562-4.140625 15.457031zm0 0" fill="#d2d2d2"/><path d="m264.027344 251.230469 39.390625-6.949219 2.78125 15.753906-39.390625 6.953125zm0 0" fill="#d2d2d2"/><path d="m350.691406 235.953125 39.390625-6.953125 2.78125 15.757812-39.390625 6.953126zm0 0" fill="#d2d2d2"/><path d="m271.425781 278.148438 32.773438-22.929688 9.171875 13.109375-32.773438 22.929687zm0 0" fill="#d2d2d2"/><path d="m343.511719 227.671875 32.777343-22.933594 9.171876 13.109375-32.777344 22.933594zm0 0" fill="#d2d2d2"/><path d="m289.511719 299.425781 20-34.640625 13.855469 7.996094-19.996094 34.644531zm0 0" fill="#d2d2d2"/><path d="m333.515625 223.222656 19.996094-34.644531 13.859375 8-19.996094 34.640625zm0 0" fill="#d2d2d2"/><path d="m64.4375 240c-17.671875 0-32-14.328125-32-32s14.328125-32 32-32 32 14.328125 32 32-14.328125 32-32 32zm0 0" fill="#ffbc49"/><path d="m56.4375 144h16v40h-16zm0 0" fill="#d2d2d2"/><path d="m56.4375 232h16v40h-16zm0 0" fill="#d2d2d2"/><path d="m30.144531 153.375 14.5-6.761719 16.90625 36.253907-14.503906 6.761718zm0 0" fill="#d2d2d2"/><path d="m67.332031 233.128906 14.5-6.761718 16.90625 36.25-14.5 6.761718zm0 0" fill="#d2d2d2"/><path d="m10.273438 172.988281 10.285156-12.257812 30.640625 25.710937-10.285157 12.257813zm0 0" fill="#d2d2d2"/><path d="m77.6875 229.550781 10.285156-12.257812 30.640625 25.710937-10.285156 12.257813zm0 0" fill="#d2d2d2"/><path d="m.558594 199.164062 4.140625-15.453124 38.628906 10.351562-4.140625 15.453125zm0 0" fill="#d2d2d2"/><path d="m85.558594 221.941406 4.140625-15.457031 38.628906 10.351563-4.140625 15.457031zm0 0" fill="#d2d2d2"/><path d="m.0273438 211.234375 39.3906252-6.953125 2.78125 15.757812-39.390625 6.949219zm0 0" fill="#d2d2d2"/><path d="m86.683594 195.953125 39.390625-6.953125 2.78125 15.757812-39.390625 6.953126zm0 0" fill="#d2d2d2"/><path d="m7.425781 238.15625 32.777344-22.929688 9.171875 13.109376-32.777344 22.929687zm0 0" fill="#d2d2d2"/><path d="m79.507812 187.667969 32.773438-22.929688 9.171875 13.109375-32.773437 22.929688zm0 0" fill="#d2d2d2"/><path d="m25.507812 259.429688 19.996094-34.640626 13.855469 8-19.996094 34.640626zm0 0" fill="#d2d2d2"/><path d="m69.507812 183.21875 20-34.644531 13.855469 8-19.996093 34.644531zm0 0" fill="#d2d2d2"/></svg>