<?xml version="1.0" encoding="iso-8859-1"?>
<!-- Generator: Adobe Illustrator 21.0.0, SVG Export Plug-In . SVG Version: 6.00 Build 0)  -->
<svg version="1.1" id="Capa_1" xmlns="http://www.w3.org/2000/svg" xmlns:xlink="http://www.w3.org/1999/xlink" x="0px" y="0px"
	 viewBox="0 0 512 512" style="enable-background:new 0 0 512 512;" xml:space="preserve">
<g>
	<path style="fill:#87DD60;" d="M419.699,136.513c-3.941,30.812,54.221,66.208,78.867-3.269
		c-23.227-19.655-26.436-41.929-29.194-56.983c-9.482-1.335-23.723,2.766-31.662,11.135
		C434.234,113.548,438.191,130.66,419.699,136.513z"/>
	<g>
		<path style="fill:#FFCF33;" d="M10,158.285c34.798,95.791,78.454,163.369,175.572,176.623
			c102.976-12.215,189.787-85.715,226.714-177.564c-110.583,83.946-276.68,110.114-374.337-22.235
			C27.428,136.1,15.564,145.124,10,158.285z"/>
		<path style="fill:#FFCF33;" d="M412.285,157.345c-36.927,91.849-123.737,165.349-226.714,177.564
			c-31.578,3.746-64.677,1.729-98.322-7.289c-8.617,6.12-17.346,13.576-22.532,28.433
			c165.793,139.308,373.895,94.381,430.665-117.549c5.471-20.424,9.992-67.96,3.183-105.258
			c-60.646,32.477-72.309,12.581-78.867,3.269C417.514,143.547,415.038,150.497,412.285,157.345z"/>
	</g>
</g>
<path d="M497.97,228.843c-5.336-1.428-10.818,1.737-12.247,7.072c-24.725,92.297-80.094,156.279-155.908,180.159
	c-80.436,25.334-172.276,2.371-252.972-62.982c3.452-6.636,7.911-11.007,12.516-14.598c31.853,7.944,64.265,10.013,96.085,6.406
	c0.046,0.001,0.094,0.01,0.14,0.01c0.873,0,1.723-0.119,2.54-0.335c39.076-4.827,77.212-18.222,112.264-39.905
	c54.244-33.555,97.381-84.877,120.96-143.105c0.166-0.358,0.311-0.725,0.433-1.098c0.692-1.729,1.371-3.461,2.028-5.202
	c5.092,3.338,11.985,5.859,21.542,5.859c5.431,0,11.724-0.814,19.03-2.755c5.337-1.418,8.515-6.895,7.098-12.232
	c-1.418-5.337-6.891-8.517-12.232-7.098c-12.521,3.326-19.426,2.354-23.866-0.258c8.811-8.608,9.792-21.66,10.744-34.394
	c0.29-3.882,0.589-7.868,1.063-12.103c3.879-2.998,9.15-5.026,13.909-5.854c2.971,14.783,8.682,34.201,28.213,51.993
	c1.817,11.272,2.721,24.036,2.689,38.003c-0.013,5.523,4.454,10.01,9.977,10.023c0.008,0,0.016,0,0.023,0
	c5.512-0.001,9.987-4.462,10-9.977c0.038-16.6-1.172-31.748-3.595-45.023c-0.416-2.278-1.61-4.342-3.378-5.838
	c-19.555-16.547-22.839-34.7-25.478-49.285l-0.339-1.866c-0.776-4.236-4.178-7.499-8.442-8.1
	c-11.494-1.621-29.532,2.792-40.311,14.154c-1.45,1.528-2.38,3.476-2.658,5.565c-0.819,6.165-1.243,11.824-1.617,16.817
	c-1.404,18.756-2.646,21.913-9.493,24.082c-0.368,0.116-0.731,0.257-1.088,0.418c-0.085,0.038-0.164,0.083-0.248,0.124
	c-0.246,0.119-0.49,0.246-0.73,0.388c-0.122,0.072-0.24,0.15-0.359,0.227c-0.107,0.07-0.218,0.13-0.323,0.204
	c-0.087,0.061-0.165,0.132-0.25,0.195c-0.116,0.088-0.231,0.176-0.343,0.269c-0.193,0.159-0.377,0.325-0.555,0.496
	c-0.086,0.082-0.174,0.161-0.257,0.246c-0.232,0.238-0.451,0.486-0.656,0.743c-0.022,0.028-0.048,0.054-0.07,0.082
	c-0.235,0.301-0.45,0.615-0.646,0.938c-0.035,0.057-0.064,0.118-0.098,0.176c-0.152,0.261-0.293,0.527-0.42,0.8
	c-0.049,0.105-0.094,0.212-0.139,0.319c-0.103,0.242-0.195,0.487-0.278,0.735c-0.024,0.072-0.057,0.139-0.08,0.211
	c-1.828,5.887-3.895,11.734-6.175,17.532c-68.064,50.782-173.713,90.122-268.98,49.985c-5.09-2.146-10.954,0.244-13.098,5.333
	c-2.145,5.089,0.243,10.954,5.333,13.098c28.1,11.84,59.021,17.81,91.398,17.81c19.351,0,39.229-2.135,59.319-6.425
	c37.375-7.98,74.391-23.005,108.745-43.983c-40.543,70.43-114.03,127.046-201.019,137.92
	c-90.127-12.827-131.445-75.52-164.817-165.97c3.444-6.066,8.491-10.334,13.132-12.405c10.917,14.059,22.917,26.672,35.74,37.561
	c4.21,3.575,10.521,3.06,14.095-1.15c3.575-4.21,3.06-10.52-1.15-14.095c-13.268-11.267-25.607-24.584-36.676-39.585
	c-2.083-2.822-5.489-4.345-8.984-4.019c-14.864,1.399-29.421,13.148-36.223,29.238c-0.983,2.325-1.051,4.936-0.188,7.309
	c20.506,56.45,40.977,94.239,66.373,122.529c14.744,16.424,31.261,29.522,49.782,39.438c-8.9-1.399-17.877-3.284-26.917-5.707
	c-2.879-0.772-5.95-0.219-8.379,1.506c-10.057,7.142-20.189,16.118-26.183,33.29c-1.369,3.921-0.171,8.28,3.008,10.952
	c43.822,36.822,90.862,61.711,139.815,73.978c22.034,5.521,44.144,8.276,65.82,8.276c24.803,0,49.035-3.609,71.904-10.812
	c39.914-12.572,74.755-35.274,103.555-67.478c30.082-33.636,52.174-76.225,65.664-126.582
	C506.471,235.755,503.305,230.273,497.97,228.843z"/>
<path d="M501.133,201.44c-5.478-0.6-10.408,3.387-11.025,8.861c-0.003,0.028-0.016,0.143-0.019,0.17
	c-0.571,5.477,3.397,10.341,8.872,10.936c0.364,0.04,0.724,0.059,1.082,0.059c5.028,0,9.363-3.814,9.94-8.923
	c0.003-0.024,0.014-0.13,0.017-0.155C510.575,206.909,506.609,202.037,501.133,201.44z"/>
<path d="M94.148,202.09l0.409,0.26c1.656,1.043,3.5,1.541,5.322,1.541c3.32,0,6.569-1.653,8.47-4.67
	c2.944-4.673,1.543-10.848-3.129-13.792l-0.312-0.198c-4.655-2.971-10.838-1.606-13.81,3.05
	C88.127,192.936,89.493,199.119,94.148,202.09z"/>
<path d="M328.673,360.062c-11.599,11.182-29.48,17.602-49.059,17.613c-5.522,0.003-9.997,4.483-9.994,10.006
	c0.003,5.521,4.48,9.994,10,9.994c0.002,0,0.004,0,0.006,0c24.702-0.014,47.639-8.476,62.928-23.214
	c3.976-3.833,4.092-10.164,0.259-14.14S332.649,356.229,328.673,360.062z"/>
<path d="M250.769,377.245c-5.498-0.068-10.064,4.332-10.144,9.854s4.331,10.063,9.854,10.144l0.269,0.004
	c0.049,0.001,0.099,0.001,0.148,0.001c5.455,0,9.917-4.382,9.996-9.855c0.08-5.522-4.332-10.064-9.854-10.144L250.769,377.245z"/>
<g>
</g>
<g>
</g>
<g>
</g>
<g>
</g>
<g>
</g>
<g>
</g>
<g>
</g>
<g>
</g>
<g>
</g>
<g>
</g>
<g>
</g>
<g>
</g>
<g>
</g>
<g>
</g>
<g>
</g>
</svg>
