<svg height="488pt" viewBox="-64 0 488 488.00003" width="488pt" xmlns="http://www.w3.org/2000/svg"><path d="m276.648438 224.734375c-41.351563 19.179687-74.292969 52.78125-92.648438 94.503906v-127.238281c-.066406-27.925781 12.636719-54.351562 34.488281-71.742188l2.511719-2.019531-10-12.476562-2.511719 2.007812c-9.691406 7.75-17.976562 17.113281-24.488281 27.679688v-79.449219h-16v39.449219c-6.511719-10.5625-14.796875-19.925781-24.488281-27.671875l-2.511719-2.015625-10 12.476562 2.511719 2.027344c21.851562 17.386719 34.554687 43.808594 34.488281 71.734375v89.144531c-11.859375-26.832031-29.878906-50.488281-52.59375-69.054687l-22.34375-18.28125-10.125 12.382812 22.34375 18.289063c39.761719 32.414062 62.800781 81.019531 62.71875 132.320312v116.445313c-16.921875-38.441406-46.800781-69.730469-84.425781-88.40625l-7.148438 14.320312c39.152344 19.4375 68.902344 53.734375 82.613281 95.238282l9.375 28.113281c1.085938 3.273437 4.140626 5.484375 7.585938 5.488281.429688 0 .863281-.035156 1.289062-.105469 3.867188-.628906 6.710938-3.972656 6.710938-7.894531v-85.464844c.128906-66.667968 38.871094-127.21875 99.351562-155.269531zm0 0" fill="#389a6b"/><g fill="#0c6bc3"><path d="m72 272h16v72h-16zm0 0"/><path d="m72 360h16v72h-16zm0 0"/><path d="m33.070312 286.714844 13.855469-8 36.003907 62.355468-13.859376 8zm0 0"/><path d="m77.074219 362.929688 13.855469-8 36 62.351562-13.855469 8zm0 0"/><path d="m6.71875 318.929688 8-13.855469 62.351562 36-8 13.855469zm0 0"/><path d="m82.929688 362.933594 8-13.859375 62.351562 36.003906-8 13.855469zm0 0"/><path d="m0 344h72v16h-72zm0 0"/><path d="m88 344h72v16h-72zm0 0"/><path d="m6.714844 385.0625 62.359375-35.992188 7.996093 13.855469-62.355468 35.996094zm0 0"/><path d="m82.929688 341.066406 62.355468-35.992187 8 13.855469-62.359375 35.996093zm0 0"/><path d="m33.074219 417.285156 35.992187-62.359375 13.859375 8-35.996093 62.355469zm0 0"/><path d="m77.078125 341.078125 35.992187-62.355469 13.859376 7.996094-35.996094 62.359375zm0 0"/><path d="m80 80h16v72h-16zm0 0"/><path d="m80 168h16v72h-16zm0 0"/><path d="m41.074219 94.722656 13.859375-8 36 62.351563-13.855469 8zm0 0"/><path d="m85.070312 170.925781 13.855469-8 36 62.351563-13.855469 8.003906zm0 0"/><path d="m14.714844 126.925781 8-13.855469 62.355468 36-8 13.855469zm0 0"/><path d="m90.925781 170.929688 8-13.855469 62.351563 36-8 13.855469zm0 0"/><path d="m8 152h72v16h-72zm0 0"/><path d="m96 152h72v16h-72zm0 0"/><path d="m14.714844 193.066406 62.355468-35.992187 8 13.855469-62.355468 35.996093zm0 0"/><path d="m90.925781 149.070312 62.359375-35.996093 7.996094 13.859375-62.355469 35.992187zm0 0"/><path d="m41.074219 225.28125 35.996093-62.355469 13.855469 7.996094-35.992187 62.359375zm0 0"/><path d="m85.078125 149.074219 35.996094-62.355469 13.855469 8-35.992188 62.355469zm0 0"/><path d="m272 152h16v72h-16zm0 0"/><path d="m272 240h16v72h-16zm0 0"/><path d="m233.070312 166.71875 13.859376-8 36 62.355469-13.855469 8zm0 0"/><path d="m277.074219 242.925781 13.855469-8 36 62.351563-13.855469 8zm0 0"/><path d="m206.71875 198.921875 8-13.855469 62.355469 36.003906-8 13.855469zm0 0"/><path d="m282.929688 242.925781 8-13.855469 62.351562 36-8 13.859376zm0 0"/><path d="m200 224h72v16h-72zm0 0"/><path d="m288 224h72v16h-72zm0 0"/><path d="m206.714844 265.0625 62.355468-35.992188 8 13.855469-62.355468 35.996094zm0 0"/><path d="m282.925781 221.066406 62.359375-35.996094 7.996094 13.859376-62.355469 35.992187zm0 0"/><path d="m233.074219 297.285156 35.996093-62.355468 13.855469 8-35.996093 62.355468zm0 0"/><path d="m277.078125 221.074219 35.992187-62.359375 13.859376 8-35.996094 62.355468zm0 0"/><path d="m236.664062 128.871094c-12.324218-.015625-23.1875-8.085938-26.761718-19.878906-3.574219-11.792969.984375-24.539063 11.226562-31.390626l30.398438-20.289062c3.546875-2.371094 8.332031-1.539062 10.871094 1.886719l24 32c1.320312 1.757812 1.859374 3.984375 1.488281 6.152343-.371094 2.164063-1.617188 4.085938-3.445313 5.304688l-32.28125 21.519531c-4.585937 3.0625-9.980468 4.699219-15.496094 4.695313zm0 0"/><path d="m115.335938 88.871094c-5.515626.007812-10.910157-1.628906-15.496094-4.695313l-32.28125-21.519531c-1.828125-1.21875-3.074219-3.140625-3.445313-5.304688-.371093-2.167968.167969-4.394531 1.488281-6.152343l24-32c2.546876-3.398438 7.304688-4.210938 10.839844-1.855469l30.398438 20.289062c10.214844 6.863282 14.75 19.589844 11.179687 31.363282-3.570312 11.777344-14.410156 19.839844-26.714843 19.875zm0 0"/><path d="m176 64c-17.671875 0-32-14.328125-32-32v-24c0-4.417969 3.582031-8 8-8h48c4.417969 0 8 3.582031 8 8v24c0 17.671875-14.328125 32-32 32zm0 0"/></g></svg>