<?xml version="1.0" encoding="iso-8859-1"?>
<!-- Generator: Adobe Illustrator 21.0.0, SVG Export Plug-In . SVG Version: 6.00 Build 0)  -->
<svg version="1.1" id="Capa_1" xmlns="http://www.w3.org/2000/svg" xmlns:xlink="http://www.w3.org/1999/xlink" x="0px" y="0px"
	 viewBox="0 0 512.001 512.001" style="enable-background:new 0 0 512.001 512.001;" xml:space="preserve">
<g>
	<path style="fill:#87DD60;" d="M351.669,94.49c22.981,19.071,54.549,27.08,85.59,18.763c31.04-8.318,54.375-31.038,64.741-59.044
		c-22.981-19.071-54.549-27.081-85.59-18.764C385.37,43.762,362.037,66.483,351.669,94.49z"/>
	<path style="fill:#AA836D;" d="M339.979,139.74c11.14-29.551,12.135-77.423,10.062-94.995c-2.29-19.41-34.459-24.27-32.083,9.866
		c0.881,12.641-3.566,51.968-11.014,75.592c10.367,4.629,20.368,10.537,29.794,17.789
		C337.366,146.578,339.407,141.259,339.979,139.74z"/>
	<path style="fill:#FFCF33;" d="M336.739,147.993c-9.427-7.251-19.428-13.159-29.794-17.789
		C215.088,89.19,94.426,148.64,88.2,265.083C83.998,343.688,2.493,375.78,10.596,415.11c7.606,36.921,59.869,74.021,132.87,66.345
		c210.384-22.119,308.038-200.534,218.515-308.987C354.208,163.052,345.735,154.911,336.739,147.993z"/>
</g>
<path d="M142.974,164.185c2.271,0,4.556-0.769,6.431-2.341l0.261-0.22c4.18-3.598,4.645-9.887,1.056-14.074
	c-3.59-4.186-9.901-4.667-14.099-1.086l-0.085,0.072c-4.232,3.549-4.776,9.848-1.228,14.08
	C137.285,162.971,140.119,164.185,142.974,164.185z"/>
<path d="M483.226,95.349c2.271,0,4.556-0.769,6.431-2.341l0.261-0.22c4.18-3.598,4.645-9.887,1.056-14.074
	c-3.59-4.186-9.901-4.667-14.099-1.086l-0.085,0.072c-4.232,3.549-4.776,9.848-1.228,14.08
	C477.537,94.135,480.372,95.349,483.226,95.349z"/>
<path d="M508.387,46.513c-26.622-22.094-62.442-29.944-95.816-21.002c-20.204,5.414-38.098,16.613-51.746,31.8
	c-0.134-5.5-0.436-10.201-0.853-13.737c-1.714-14.517-14.676-25.246-28.881-23.911c-11.728,1.099-24.818,11.093-23.108,35.644
	c0.645,9.261-2.197,38.526-7.707,61.412c-9.997-3.593-20.432-6.203-31.234-7.771c-36.649-5.321-74.894,1.956-107.691,20.482
	c-4.809,2.716-6.505,8.815-3.789,13.624c2.717,4.81,8.815,6.506,13.624,3.789c35.958-20.311,85.477-27.588,129.918-8.492
	c0.839,0.602,1.782,1.088,2.82,1.416c0.285,0.09,0.571,0.16,0.858,0.224c8.562,3.989,16.909,8.992,24.914,15.09
	c0.576,0.572,1.224,1.083,1.946,1.51c7.944,6.276,15.533,13.651,22.627,22.245c33.038,40.024,39.942,92.451,18.941,143.835
	c-25.719,62.928-99.852,135.074-230.791,148.841c-31.355,3.298-61.555-2.113-85.035-15.233
	c-19.884-11.11-33.714-27.254-36.996-43.185c-2.615-12.697,9.876-26.786,25.691-44.623c22.097-24.924,49.597-55.941,52.105-102.854
	c1.584-29.628,11.386-57.219,28.347-79.787c3.318-4.415,2.429-10.683-1.986-14.001c-4.417-3.319-10.684-2.428-14.001,1.986
	c-19.354,25.754-30.533,57.129-32.329,90.735c-2.137,39.939-26.025,66.882-47.101,90.654c-18.754,21.152-34.949,39.42-30.312,61.926
	c4.504,21.863,21.572,42.497,46.827,56.608c21.959,12.269,48.761,18.713,77.021,18.713c6.556,0,13.19-0.347,19.861-1.048
	c59.806-6.288,114.777-25.631,158.972-55.937c41.114-28.193,71.627-64.58,88.239-105.227
	c23.877-58.422,15.847-118.246-22.031-164.133c-6.467-7.835-13.469-14.939-20.948-21.286c0.348-0.908,0.584-1.532,0.592-1.551
	c3.436-9.115,5.951-19.742,7.745-30.688c16.496,9.713,35.274,14.817,54.291,14.817c9.2,0,18.456-1.19,27.528-3.622
	c9.618-2.577,18.791-6.457,27.266-11.532c0.28-0.169,0.561-0.338,0.839-0.509c4.706-2.89,6.178-9.047,3.288-13.753
	c-2.891-4.706-9.048-6.178-13.754-3.288l-0.653,0.396c-6.879,4.121-14.335,7.273-22.161,9.369
	c-24.759,6.634-51.176,1.894-72.055-12.647c10.81-23.033,31.317-40.347,56.076-46.981c27.118-7.267,56.229-0.884,77.87,17.075
	c4.249,3.527,10.553,2.94,14.08-1.309C513.223,56.345,512.636,50.04,508.387,46.513z M318.867,124.801
	c6.43-24.951,9.93-58.492,9.067-70.883c-0.583-8.373,1.389-14.002,5.023-14.343c2.583-0.242,6.628,1.876,7.153,6.343
	c2.004,16.987,0.839,59.091-8.147,86.454C327.714,129.634,323.347,127.107,318.867,124.801z"/>
<path d="M189.512,435.122c0.755,0,1.523-0.086,2.29-0.266c23.681-5.548,46.103-15.257,64.846-28.079
	c4.558-3.118,5.725-9.34,2.607-13.898c-3.119-4.559-9.341-5.726-13.899-2.607c-16.722,11.439-36.818,20.123-58.116,25.114
	c-5.377,1.26-8.714,6.64-7.455,12.017C180.865,432.012,184.973,435.122,189.512,435.122z"/>
<path d="M151.434,430.459c0.436,5.222,4.808,9.169,9.954,9.169c0.277,0,0.559-0.011,0.841-0.035l0.142-0.013
	c5.504-0.459,9.593-5.292,9.135-10.795c-0.459-5.503-5.28-9.599-10.795-9.134c-0.024,0.002-0.129,0.011-0.168,0.015
	C155.051,420.137,150.976,424.964,151.434,430.459z"/>
<g>
</g>
<g>
</g>
<g>
</g>
<g>
</g>
<g>
</g>
<g>
</g>
<g>
</g>
<g>
</g>
<g>
</g>
<g>
</g>
<g>
</g>
<g>
</g>
<g>
</g>
<g>
</g>
<g>
</g>
</svg>
