<svg height="456pt" viewBox="0 -26 456.00438 456" width="456pt" xmlns="http://www.w3.org/2000/svg"><path d="m7.800781 325.589844 59.472657 28c45.378906 21.351562 94.511718 33.570312 144.605468 35.960937l68 3.238281c15.71875.75 31.308594-3.167968 44.800782-11.265624 11.988281-7.195313 19.324218-20.152344 19.320312-34.132813v-8.992187c0-10.554688-4.195312-20.675782-11.65625-28.136719-7.871094-7.867188-18.671875-12.082031-29.792969-11.617188l-102.292969 10.402344c-32.097656 3.253906-64.433593 3.421875-96.5625.503906l-39.695312-3.632812-48.734375-6.097657c-3.867187-.476562-7.75.726563-10.667969 3.304688-2.917968 2.578125-4.59374975 6.28125-4.597656 10.175781.00390625 5.261719 3.042969 10.046875 7.800781 12.289063zm0 0" fill="#e76e54"/><path d="m453.929688 276.542969c-2.730469-3.007813-7.277344-3.492188-10.578126-1.128907l-27.199218 19.445313c-17.339844 12.441406-38.15625 19.109375-59.496094 19.058594h-1.601562l4.496093-13.472657c.957031-2.875.207031-6.042968-1.933593-8.183593l-21.617188-21.65625-11.3125 11.3125 18.160156 18.167969-8.96875 26.894531-1.039062 18.511719 18.289062 25.746093-9.25 27.742188 15.199219 5.054687 10.539063-31.589844c.816406-2.433593.417968-5.109374-1.074219-7.199218l-8-11.304688c27.554687-4.222656 52.742187-18.007812 71.152343-38.9375l24.367188-27.863281c2.640625-3.058594 2.582031-7.609375-.132812-10.597656zm0 0" fill="#389a6b"/><path d="m19.078125 203.300781 65.515625 5.351563c49.972656 4.074218 100.261719-1.722656 148-17.054688l64.847656-20.800781c14.972656-4.8125 28.183594-13.949219 37.972656-26.253906 8.703126-10.941407 11.027344-25.640625 6.128907-38.730469l-3.199219-8.414062c-3.703125-9.890626-11.1875-17.898438-20.800781-22.265626-10.136719-4.613281-21.742188-4.769531-32-.433593l-92.160157 45.601562c-28.914062 14.308594-59.132812 25.804688-90.246093 34.335938l-38.402344 10.542969-47.695313 11.378906c-3.789062.898437-7.015624 3.386718-8.851562 6.824218s-2.105469 7.496094-.746094 11.148438c1.851563 4.933594 6.386719 8.347656 11.636719 8.769531zm0 0" fill="#d95354"/><path d="m419.664062.894531c-3.605468-1.863281-8.035156-.726562-10.304687 2.636719l-18.679687 27.777344c-11.875 17.714844-29.015626 31.25-49 38.695312l-1.457032.546875-.519531-14.179687c-.109375-3.027344-1.921875-5.734375-4.679687-6.988282l-27.871094-12.691406-6.632813 14.5625 23.375 10.640625 1.042969 28.335938 5.527344 17.703125 26.152344 17.695312 1.070312 29.214844 16-.582031-1.214844-33.28125c-.097656-2.546875-1.398437-4.898438-3.511718-6.328125l-11.488282-7.765625c24.308594-13.628907 43.042969-35.378907 52.925782-61.433594l13.058593-34.632813c1.433594-3.792968-.195312-8.058593-3.792969-9.925781zm0 0" fill="#77c974"/><path d="m40.246094 101.308594c15.746094-2.25 31.738281-2.0625 47.425781.550781l23.25 3.875c23.210937 3.890625 45.695313 11.292969 66.679687 21.949219 5.328126-2.398438 10.664063-4.796875 15.910157-7.398438l74.550781-36.894531c-68.382812-27.257813-142.984375-35.011719-215.511719-22.402344l-18.191406 3.160157c-6.429687 1.113281-11.828125 5.476562-14.261719 11.527343-2.496094 6.246094-1.476562 13.34375 2.679688 18.628907 4.15625 5.285156 10.816406 7.957031 17.46875 7.003906zm0 0" fill="#389a6b"/><path d="m349.792969 126.71875-5.90625-3.640625c-.628907 7.832031-3.566407 15.300781-8.4375 21.464844-9.792969 12.304687-23.003907 21.441406-37.976563 26.253906l-35.199218 11.3125 32.078124 21.40625c6.296876 4.183594 13.6875 6.410156 21.25 6.402344h6.710938c13.46875.011719 25.957031-7.050781 32.886719-18.601563l7.386719-12.304687c10.789062-17.988281 5.105468-41.3125-12.753907-52.320313zm0 0" fill="#389a6b"/><path d="m432 265.917969c-2.371094 0-4.625-1.050781-6.144531-2.871094l-24.960938-29.929687c-9.027343-10.832032-20.605469-19.25-33.695312-24.496094l-7.199219-2.886719v12.183594c0 2.671875-1.335938 5.171875-3.558594 6.65625l-30.65625 20.4375-8.882812-13.3125 27.097656-18.0625v-19.71875c0-2.65625 1.316406-5.136719 3.511719-6.625 3.6875-4.042969 7.058593-8.363281 10.089843-12.921875l5.941407-14.855469 7.433593 2.96875c27.5625 11.007813 48.871094 33.605469 58.238282 61.769531l10.402344 31.136719c.8125 2.441406.398437 5.128906-1.109376 7.214844-1.511718 2.085937-3.933593 3.320312-6.507812 3.3125zm0 0" fill="#77c974"/></svg>