<svg height="480pt" viewBox="-72 0 480 480" width="480pt" xmlns="http://www.w3.org/2000/svg"><path d="m168 416 3.40625-37.496094c2.898438-31.816406 20.507812-60.449218 47.601562-77.382812 13.792969-8.632813 29.449219-13.84375 45.664063-15.199219l71.328125-5.921875-66.695312 59.289062c-3.53125 3.132813-7.273438 6.023438-11.199219 8.648438l-37.554688 25.039062c-3.027343 2.011719-5.941406 4.191407-8.734375 6.519532zm0 0" fill="#389a6b"/><path d="m168 416-3.40625-37.496094c-2.898438-31.816406-20.507812-60.449218-47.601562-77.382812-13.792969-8.632813-29.449219-13.84375-45.664063-15.199219l-71.328125-5.921875 66.695312 59.289062c3.53125 3.132813 7.273438 6.023438 11.199219 8.648438l37.554688 25.039062c3.027343 2.011719 5.941406 4.191407 8.734375 6.519532zm0 0" fill="#389a6b"/><path d="m176 264 16.59375-49.785156c4.835938-14.496094 13.753906-27.289063 25.6875-36.839844 14.058594-11.246094 31.523438-17.375 49.527344-17.375h44.191406l-38.398438 25.601562c-6.347656 4.222657-12.046874 9.34375-16.929687 15.199219l-22.023437 26.398438c-7 8.40625-15.664063 15.273437-25.449219 20.160156zm0 0" fill="#389a6b"/><path d="m160 264-17.601562-52.878906c-4.160157-12.480469-11.839844-23.492188-22.109376-31.714844-15.425781-12.320312-35.433593-17.355469-54.855468-13.804688l-57.433594 10.398438 58.183594 21.816406c3.871094 1.453125 7.601562 3.257813 11.144531 5.382813l30.152344 18.089843c3.007812 1.808594 5.875 3.84375 8.574219 6.085938zm0 0" fill="#389a6b"/><g fill="#77c974"><path d="m192 72c-.539062.003906-1.074219-.050781-1.601562-.160156-4.328126-.882813-7.121094-5.109375-6.238282-9.441406l8-40c.992188-4.195313 5.128906-6.851563 9.355469-6.003907 4.226563.84375 7.023437 4.886719 6.324219 9.140625l-8 40c-.734375 3.75-4.019532 6.460938-7.839844 6.464844zm0 0"/><path d="m216 16c0 8.835938-7.164062 16-16 16s-16-7.164062-16-16 7.164062-16 16-16 16 7.164062 16 16zm0 0"/><path d="m256 32c0 8.835938-7.164062 16-16 16s-16-7.164062-16-16 7.164062-16 16-16 16 7.164062 16 16zm0 0"/><path d="m160 16c0 8.835938-7.164062 16-16 16s-16-7.164062-16-16 7.164062-16 16-16 16 7.164062 16 16zm0 0"/><path d="m112 24c0 8.835938-7.164062 16-16 16s-16-7.164062-16-16 7.164062-16 16-16 16 7.164062 16 16zm0 0"/><path d="m144 72c-4.417969 0-8-3.582031-8-8v-48c0-4.417969 3.582031-8 8-8s8 3.582031 8 8v48c0 4.417969-3.582031 8-8 8zm0 0"/><path d="m104 80c-3.90625-.003906-7.234375-2.828125-7.878906-6.679688l-8-48c-.613282-4.300781 2.316406-8.304687 6.597656-9.019531 4.285156-.71875 8.359375 2.113281 9.175781 6.378907l8 48c.730469 4.359374-2.214843 8.480468-6.574219 9.207031-.4375.078125-.878906.117187-1.320312.113281zm0 0"/><path d="m224 88c-2.570312 0-4.984375-1.238281-6.484375-3.324219-1.503906-2.085937-1.910156-4.765625-1.101563-7.203125l16-48c1.398438-4.199218 5.933594-6.46875 10.128907-5.074218 4.199219 1.398437 6.46875 5.933593 5.074219 10.128906l-16 48c-1.09375 3.277344-4.164063 5.484375-7.617188 5.472656zm0 0"/></g><path d="m164.800781 152c-25.417969.03125-47.988281-16.238281-56-40.359375l-4.375-13.113281c-1.398437-4.195313.871094-8.730469 5.070313-10.128906 4.199218-1.394532 8.730468.875 10.128906 5.074218l4.367188 13.113282c6.28125 18.703124 24.484374 30.734374 44.152343 29.191406 19.671875-1.546875 35.769531-16.273438 39.054688-35.730469l.898437-5.359375c.390625-2.890625 2.320313-5.335938 5.042969-6.386719 2.71875-1.050781 5.792969-.539062 8.027344 1.335938s3.269531 4.816406 2.703125 7.675781l-.886719 5.359375c-4.671875 28.488281-29.316406 49.382813-58.183594 49.328125zm0 0" fill="#389a6b"/><path d="m168 152c-2.117188.003906-4.152344-.835938-5.648438-2.335938l-1.375-1.367187c-16.042968-15.957031-25.035156-37.667969-24.976562-60.296875 0-4.417969 3.582031-8 8-8s8 3.582031 8 8c-.046875 16.1875 5.621094 31.867188 16 44.289062 10.378906-12.421874 16.046875-28.101562 16-44.289062 0-4.417969 3.582031-8 8-8s8 3.582031 8 8c.0625 22.625-8.929688 44.332031-24.96875 60.289062l-1.382812 1.375c-1.496094 1.5-3.53125 2.339844-5.648438 2.335938zm0 0" fill="#389a6b"/><path d="m168 480c-4.417969 0-8-3.582031-8-8v-336c0-4.417969 3.582031-8 8-8s8 3.582031 8 8v336c0 4.417969-3.582031 8-8 8zm0 0" fill="#389a6b"/></svg>