<svg height="464pt" viewBox="-31 0 463 464" width="464pt" xmlns="http://www.w3.org/2000/svg"><path d="m176.5 140h128v63h-128zm0 0" fill="#777"/><path d="m323.253906 229.496094-164.554687-1.894532 17.800781-35.601562h128zm0 0" fill="#d6cec8"/><path d="m104.5 248h272v216h-272zm0 0" fill="#8a4325"/><path d="m80.5 224h320v40h-320zm0 0" fill="#df784f"/><path d="m120.5 88h240v16c0 30.929688-25.070312 56-56 56h-128c-30.929688 0-56-25.070312-56-56zm0 0" fill="#d6cec8"/><g fill="#777"><path d="m216.5 32h48c30.929688 0 56 25.070312 56 56h-160c0-30.929688 25.070312-56 56-56zm0 0"/><path d="m112.5 56h-112v-16h108.6875l37.65625-37.65625c1.5-1.5 3.535156-2.34375 5.65625-2.34375h88c4.417969 0 8 3.582031 8 8v32h-16v-24h-76.6875l-37.65625 37.65625c-1.5 1.5-3.535156 2.34375-5.65625 2.34375zm0 0"/><path d="m8.5 48h16v40h-16zm0 0"/></g><path d="m.5 80h32v32h-32zm0 0" fill="#d6cec8"/></svg>