<?xml version="1.0" encoding="iso-8859-1"?>
<!-- Generator: Adobe Illustrator 21.0.0, SVG Export Plug-In . SVG Version: 6.00 Build 0)  -->
<svg version="1.1" id="Capa_1" xmlns="http://www.w3.org/2000/svg" xmlns:xlink="http://www.w3.org/1999/xlink" x="0px" y="0px"
	 viewBox="0 0 511.998 511.998" style="enable-background:new 0 0 511.998 511.998;" xml:space="preserve">
<g>
	<path style="fill:#FD4848;" d="M152.537,411.566c0-48.809,41.193-88.909,92.137-90.387c-7.928-41.083-45.294-72.692-90.333-74.111
		c-1.05-0.033-2.105-0.05-3.163-0.05h-8.413h-7.884h-0.528c-52.278,0-95.051,40.693-95.051,90.43
		c0,49.736,27.317,90.429,79.595,90.429c9.038-0.418,19.398-6.397,23.869-12.256c2.169,2.889,5.957,5.894,10.342,8.208
		C152.728,419.819,152.537,415.724,152.537,411.566z"/>
	<path style="fill:#87DD60;" d="M195.7,82.689c20.599,30.887,82.277,18.024,105.085-7.479C323.593,49.707,348.65,29.4,348.65,29.4
		C308.947-5.802,185.187,3.416,195.7,82.689z"/>
	<g>
		<path style="fill:#FD4848;" d="M247.589,321.137h8.413h8.413c52.278,0,95.051,40.693,95.051,90.429l0,0
			c0,49.735-27.317,90.429-79.595,90.429c-9.038-0.417-19.595-6.563-23.868-12.256c-4.47,5.858-14.831,11.838-23.869,12.256
			c-52.278,0-79.595-40.693-79.595-90.429l0,0C152.537,361.83,195.311,321.137,247.589,321.137z"/>
		<path style="fill:#FD4848;" d="M334.232,256.127l8.054-2.43l8.054-2.43c50.05-15.101,102.754,11.502,117.12,59.118l0,0
			c14.366,47.615-0.031,94.466-50.081,109.567c-8.773,2.211-20.656-0.623-26.391-4.838c-2.588,6.9-10.78,15.618-19.312,18.628
			c-5.051,1.523-9.974,2.57-14.765,3.184c1.696-8.054,2.554-16.565,2.554-25.359l0,0c0-48.244-40.245-87.978-90.372-90.318
			C277.587,291.477,301.43,266.024,334.232,256.127z"/>
	</g>
	<path style="fill:#00C56E;" d="M195.622,123.656c7.518-3.617,13.214-11.03,10.095-18.959c-3.071-7.59-6.522-15.069-10.017-22.009
		c-6.88-13.66-13.928-25.233-18.57-31.454c-11.675-15.646-41.927-3.783-22.824,24.556c4.531,6.721,12.637,23.999,19.288,41.901
		C177.063,127.03,187.425,127.599,195.622,123.656z"/>
</g>
<path d="M324.714,420.282c-5.406-1.123-10.705,2.346-11.832,7.753c-2.143,10.289-6.308,17.93-12.381,22.714
	c-4.341,3.418-5.089,9.708-1.671,14.047c1.975,2.507,4.904,3.815,7.865,3.815c2.166,0,4.348-0.701,6.182-2.145
	c9.871-7.773,16.462-19.332,19.59-34.352C333.595,426.705,330.123,421.408,324.714,420.282z"/>
<path d="M282.179,456.929l-0.029,0.001c-5.519,0.276-9.753,4.972-9.477,10.489c0.267,5.348,4.7,9.503,9.996,9.503
	c0.169,0,0.338-0.004,0.508-0.013c5.519-0.276,9.768-4.973,9.491-10.49C292.394,460.903,287.714,456.665,282.179,456.929z"/>
<path d="M73.369,278.229c2.205,0,4.425-0.726,6.276-2.218l0.279-0.223c4.331-3.429,5.042-9.702,1.612-14.034
	c-3.427-4.329-9.738-5.047-14.072-1.618l-0.382,0.304c-4.299,3.469-4.974,9.767-1.504,14.066
	C67.554,276.955,70.449,278.229,73.369,278.229z"/>
<path d="M477.038,307.496c-7.748-25.678-25.593-46.673-50.248-59.118c-22.699-11.457-48.567-14.329-73.472-8.277
	c-29.665-47.691-85.814-96.274-125.472-129.801c0.897,0.093,1.795,0.186,2.712,0.251c2.066,0.146,4.152,0.218,6.257,0.218
	c26.774-0.001,55.986-11.625,71.427-28.89c21.971-24.566,46.462-44.51,46.707-44.709c2.282-1.851,3.636-4.612,3.7-7.549
	c0.065-2.938-1.165-5.756-3.363-7.705c-8.685-7.699-20.958-13.778-35.495-17.58c-5.345-1.397-10.811,1.802-12.209,7.147
	c-1.397,5.345,1.803,10.81,7.147,12.209c6.566,1.717,12.455,3.939,17.481,6.575c-9.59,8.434-24.583,22.291-38.881,38.277
	c-12.45,13.921-39.418,23.601-61.357,22.053c-8.516-0.604-19.785-3.15-26.633-11.661c-3.961-41.951,37.381-53.925,55.612-57.145
	c5.44-0.961,9.071-6.151,8.109-11.591c-0.961-5.44-6.146-9.073-11.592-8.11c-35.399,6.254-59.501,23.956-68.477,48.679
	c-1.37-2.074-2.662-3.928-3.845-5.513c-8.737-11.709-25.31-14.519-36.945-6.263c-9.601,6.812-15.936,22.002-2.191,42.393
	c3.608,5.354,11.01,20.772,17.47,37.835c-2.334,38.025-16.659,72.302-28.218,99.935c-2.677,6.401-5.182,12.404-7.379,18.057
	c-11.972,0.698-23.612,3.332-34.684,7.871c-5.112,2.096-7.557,7.938-5.462,13.05c2.098,5.112,7.939,7.557,13.05,5.461
	c6.564-2.691,13.379-4.557,20.368-5.597c-1.234,5.472-1.78,10.512-1.358,15.139c0.472,5.194,4.834,9.098,9.95,9.098
	c0.304,0,0.609-0.014,0.917-0.042c5.502-0.5,9.557-5.366,9.057-10.867c-0.332-3.655,0.611-8.54,2.364-14.302h9.092
	c0.339,0,0.675,0.016,1.014,0.019c7.85,3.669,10.629,8.894,8.26,15.549c-4.271,11.995-23.688,24.463-49.038,16.679
	c-5.284-1.622-10.877,1.345-12.499,6.626c-1.621,5.282,1.345,10.877,6.626,12.5c7.39,2.27,14.567,3.297,21.372,3.297
	c25.699,0,46.07-14.653,52.385-32.39c2.135-5.997,2.554-11.857,1.409-17.28c23.94,8.391,43.036,26.724,51.228,50.229
	c-40.765,5.847-73.939,34.167-85.24,71.305c-0.007,0.022-0.014,0.044-0.02,0.065c-0.409,1.347-0.786,2.707-1.136,4.076
	c-0.033,0.127-0.065,0.253-0.097,0.38c-0.333,1.322-0.638,2.654-0.915,3.995c-0.031,0.149-0.06,0.298-0.09,0.447
	c-0.272,1.349-0.52,2.707-0.735,4.074c-0.013,0.085-0.024,0.17-0.037,0.255c-0.214,1.386-0.4,2.782-0.554,4.186
	c-0.004,0.041-0.01,0.082-0.015,0.124c-0.147,1.36-0.26,2.731-0.349,4.107c-0.008,0.119-0.023,0.237-0.03,0.356
	c-3.101,0.016-6.021,1.467-7.902,3.934c-2.739,3.589-10.352,7.959-16.176,8.321c-51.172-0.142-69.335-43.386-69.335-80.426
	c0-12.152,2.832-23.848,8.419-34.766c0.691-1.35,1.441-2.717,2.234-4.063c2.8-4.762,1.208-10.893-3.554-13.692
	c-4.764-2.802-10.894-1.208-13.693,3.554c-0.988,1.682-1.93,3.394-2.797,5.09c-7.044,13.76-10.615,28.523-10.615,43.873
	c0,27.51,7.97,52.437,22.444,70.187c16.134,19.787,39.356,30.245,67.155,30.245c0.154,0,0.308-0.003,0.462-0.011
	c7.725-0.357,16.513-3.757,23.408-8.677c0.322,0.229,0.674,0.441,1.006,0.665c2.741,20.167,10.021,38.179,21.205,51.895
	c16.134,19.787,39.356,30.245,67.155,30.245c0.154,0,0.308-0.004,0.462-0.011c7.725-0.357,16.514-3.758,23.41-8.679
	c6.404,4.594,14.898,8.285,23.402,8.679c0.154,0.007,0.308,0.011,0.462,0.011c27.799,0,51.021-10.459,67.155-30.246
	c8.162-10.011,14.254-22.306,18.017-36.058c3.171-0.639,6.354-1.421,9.525-2.378c0.147-0.044,0.294-0.092,0.439-0.144
	c7.293-2.573,14.725-8.369,19.906-15.071c7.456,2.549,16.655,3.629,24.912,1.547c0.149-0.038,0.298-0.079,0.445-0.123
	c26.615-8.03,45.825-24.751,55.555-48.355C484.554,360,484.984,333.834,477.038,307.496z M333.306,245.958l-1.963,0.592
	c-26.852,8.101-48.851,25.7-62.135,48.893c-2.136-63.155-18.05-132-58.14-171.414c0.012-0.014,0.024-0.028,0.036-0.042
	c0.265-0.329,0.512-0.664,0.758-0.999C247.398,152.991,303.462,200.929,333.306,245.958z M159.779,55.306
	c0.869-0.617,2.149-1.01,3.541-1.01c1.992,0,4.215,0.807,5.793,2.922c6.979,9.353,18.898,30.423,27.276,51.099l0.001,0.002
	c0.011,0.027,0.023,0.055,0.034,0.082c0.186,0.475,0.468,1.34-0.892,3.026c-2.344,2.906-7.266,4.986-10.537,4.455
	c-1.15-0.187-1.59-0.541-2.001-1.616c-0.004-0.01-0.008-0.019-0.012-0.029c-0.004-0.01-0.008-0.018-0.011-0.028
	c-6.722-18.089-15.099-36.187-20.37-44.008C157.92,63.257,156.813,57.411,159.779,55.306z M155.207,237.101
	c-0.398-0.035-0.795-0.039-1.19-0.025c-0.945-0.024-1.887-0.06-2.837-0.06h-1.671c1.341-3.275,2.759-6.664,4.213-10.142
	c10.631-25.421,23.491-56.19,28.23-91.225c1.338,0.208,2.701,0.316,4.079,0.316c2.49,0,5.02-0.341,7.505-0.968
	c22.11,19.797,38.542,52.25,47.677,94.314c4.811,22.158,7.564,47.161,8.11,72.349C234.507,264.493,197.695,238.646,155.207,237.101z
	 M280.129,491.994c-5.788-0.361-13.512-4.772-16.128-8.258c-1.881-2.505-4.826-3.985-7.959-3.997c-0.014,0-0.026,0-0.04,0
	c-3.118,0-6.06,1.454-7.951,3.934c-2.739,3.589-10.351,7.959-16.175,8.32c-49.254-0.137-67.923-40.202-69.254-76.235
	c-0.01-0.299-0.023-0.598-0.032-0.898c-0.009-0.309-0.015-0.617-0.021-0.925c-0.015-0.789-0.028-1.579-0.028-2.369
	c0-1.345,0.038-2.683,0.108-4.013c2.065-38.441,33.592-70.495,73.552-75.671c0.291-0.037,0.583-0.071,0.876-0.105
	c1.009-0.121,2.025-0.222,3.044-0.308c0.511-0.042,1.024-0.077,1.537-0.111c0.859-0.057,1.721-0.105,2.587-0.137
	c1.111-0.041,2.223-0.08,3.344-0.08h1.348c-0.257,5.322-0.609,10.606-1.075,15.824c-0.49,5.503,3.573,10.361,9.076,10.851
	c0.302,0.027,0.602,0.04,0.899,0.04c5.123,0,9.488-3.915,9.952-9.116c0.506-5.676,0.901-11.515,1.182-17.476
	c0.872,0.044,1.738,0.113,2.602,0.182c0.444,0.035,0.894,0.055,1.336,0.096c0.76,0.071,1.509,0.174,2.263,0.264
	c0.666,0.08,1.337,0.146,1.999,0.241c0.51,0.072,1.011,0.168,1.518,0.248c0.781,0.125,1.563,0.25,2.338,0.396
	c5.716,3.806,12.962,10.928,8.021,20.673c-5.583,11.009-26.035,22.231-52.213,11.347c-5.101-2.122-10.956,0.296-13.077,5.397
	c-2.12,5.102,0.296,10.956,5.397,13.076c10.572,4.395,20.19,5.922,28.452,5.921c7.453-0.001,13.806-1.243,18.756-2.744
	c13.806-4.186,24.934-12.916,30.529-23.951c3.076-6.066,4.271-12.29,3.725-18.316c18.745,11.518,32.425,29.809,37.091,51.191
	c0.008,0.036,0.017,0.072,0.025,0.109c0.254,1.172,0.472,2.357,0.672,3.547c0.025,0.151,0.058,0.299,0.082,0.45
	c0.175,1.086,0.314,2.183,0.442,3.282c0.029,0.251,0.07,0.498,0.097,0.75c0.112,1.05,0.187,2.112,0.256,3.173
	c0.019,0.296,0.053,0.588,0.069,0.885c0.072,1.352,0.109,2.713,0.109,4.082c0,0.826-0.014,1.648-0.03,2.469
	c-0.007,0.328-0.012,0.655-0.022,0.983c-0.003,0.116-0.009,0.23-0.013,0.346C348.187,451.495,329.555,491.851,280.129,491.994z
	 M414.74,410.301c-5.645,1.326-14.314-0.666-17.825-3.247c-2.523-1.855-5.768-2.419-8.775-1.529
	c-3.003,0.893-5.414,3.142-6.515,6.075c-1.55,4.132-7.341,10.323-12.711,12.495c0.066-0.739,0.12-1.484,0.175-2.229
	c0.004-0.061,0.01-0.121,0.014-0.182c0.111-1.546,0.196-3.1,0.256-4.663c0.01-0.266,0.018-0.532,0.027-0.798
	c0.051-1.545,0.085-3.097,0.085-4.656c0-0.836-0.012-1.671-0.033-2.504c-0.009-0.337-0.026-0.672-0.038-1.008
	c-0.018-0.49-0.033-0.98-0.059-1.469c-0.022-0.43-0.053-0.857-0.081-1.285c-0.025-0.39-0.048-0.779-0.078-1.168
	c-0.038-0.489-0.084-0.976-0.129-1.463c-0.03-0.32-0.057-0.641-0.089-0.961c-0.055-0.537-0.118-1.073-0.182-1.607
	c-0.032-0.264-0.061-0.529-0.095-0.793c-0.074-0.578-0.156-1.154-0.24-1.73c-0.031-0.215-0.062-0.431-0.095-0.646
	c-0.095-0.62-0.198-1.237-0.305-1.854c-0.028-0.163-0.055-0.325-0.085-0.488c-0.119-0.664-0.245-1.325-0.378-1.985
	c-0.022-0.109-0.043-0.218-0.066-0.327c-0.145-0.71-0.298-1.417-0.459-2.123c-0.012-0.051-0.023-0.102-0.035-0.152
	c-9.052-39.396-42.361-70.202-84.143-77.313c10.106-22.177,30.03-39.68,54.242-46.984l6.592-1.989
	c3.691,7.35,6.474,14.54,8.125,21.473c1.094,4.595,5.196,7.687,9.722,7.687c0.768,0,1.547-0.089,2.326-0.274
	c5.375-1.279,8.694-6.674,7.413-12.049c-1.728-7.256-4.438-14.649-7.939-22.116c3.216-0.578,6.442-0.985,9.667-1.204
	c6.808-0.2,18.256,1.229,19.529,12.925c1.334,12.271-9.675,32.84-37.546,38.017c-5.432,1.009-9.018,6.231-8.008,11.661
	c0.895,4.814,5.098,8.178,9.823,8.178c0.606,0,1.221-0.056,1.839-0.17c21.41-3.977,34.268-14.765,41.284-23.115
	c9.28-11.045,13.835-24.435,12.498-36.736c-0.169-1.556-0.436-3.06-0.777-4.519c2.061,0.846,4.102,1.753,6.106,2.764
	c19.716,9.952,33.961,26.657,40.11,47.037C468.584,348.734,463.68,395.38,414.74,410.301z"/>
<path d="M289.7,19.995c0.184,0.01,0.366,0.015,0.547,0.015c5.262,0,9.671-4.108,9.978-9.427c0.318-5.516-3.895-10.245-9.41-10.562
	c-0.068-0.004-0.216-0.011-0.284-0.014c-5.486-0.199-10.162,4.104-10.367,9.626C279.96,15.123,284.222,19.744,289.7,19.995z"/>
<g>
</g>
<g>
</g>
<g>
</g>
<g>
</g>
<g>
</g>
<g>
</g>
<g>
</g>
<g>
</g>
<g>
</g>
<g>
</g>
<g>
</g>
<g>
</g>
<g>
</g>
<g>
</g>
<g>
</g>
</svg>
