<?xml version="1.0" encoding="iso-8859-1"?>
<!-- Generator: Adobe Illustrator 21.0.0, SVG Export Plug-In . SVG Version: 6.00 Build 0)  -->
<svg version="1.1" id="Capa_1" xmlns="http://www.w3.org/2000/svg" xmlns:xlink="http://www.w3.org/1999/xlink" x="0px" y="0px"
	 viewBox="0 0 512 512" style="enable-background:new 0 0 512 512;" xml:space="preserve">
<g>
	<path style="fill:#FD4848;" d="M124.871,299.743c-19.751,7.922-79.546,18.246-99.71-2.723
		c-28.98,49.077-10.169,120.627,6.955,175.957c6.4,20.679,27.17,33.083,48.131,27.85c59.236-14.789,128.962-33.36,156.085-81.948
		c-35.163-9.315-45.794-64.553-48.824-85.657c0,0-38.221,46.965-68.682,45.422C102.262,352.977,124.871,299.743,124.871,299.743z"/>
	<path style="fill:#87DD60;" d="M124.871,299.743c0,0-22.609,53.234-6.044,78.901c30.462,1.543,68.682-45.422,68.682-45.422
		c3.03,21.103,13.661,76.341,48.824,85.657c12.135-21.739,15.743-49.487,6.068-85.594c-17.133-63.943-82.761-101.916-146.584-84.815
		c-35.724,9.572-57.854,26.868-70.657,48.549C45.326,317.989,105.12,307.665,124.871,299.743z"/>
	<path style="fill:#FD4848;" d="M328.266,204.286c-3.015,21.066-23.971,78.012-52.213,84.99
		c28.012,49.636,99.382,69.12,155.861,81.955c21.108,4.796,42.235-6.988,48.184-27.759c16.81-58.695,35.59-128.364,7.074-176.147
		c-25.648,25.794-78.802,7.382-98.593-0.546c0,0,21.562,56.582,4.995,82.192C363.064,250.483,328.266,204.286,328.266,204.286z"/>
	<path style="fill:#87DD60;" d="M328.266,204.286c0,0,34.798,46.197,65.307,44.685c16.567-25.608-4.995-82.192-4.995-82.192
		c19.791,7.928,72.944,26.34,98.593,0.546c-12.758-21.379-34.985-38.378-71.091-48.053
		c-63.943-17.133-129.643,20.715-146.744,84.538c-9.572,35.724-5.659,63.537,6.716,85.466
		C304.296,282.298,325.252,225.353,328.266,204.286z"/>
	<path style="fill:#00C56E;" d="M72.083,119.452c29.679,0,58.286-7.948,83.228-22.348l-0.017-0.03
		c7.049-4.073,13.798-8.658,20.188-13.72c16.192-12.827,30.08-28.721,40.708-47.129c4.832-8.344,1.986-19.025-6.358-23.858
		c-8.343-4.832-19.025-1.986-23.857,6.358c-11.775,20.395-28.487,36.843-48.095,48.164l-0.051,0.03l-0.017-0.03
		c-19.601,11.316-42.19,17.563-65.727,17.563c-9.665,0-17.5,7.835-17.5,17.5C54.583,111.617,62.419,119.452,72.083,119.452z"/>
</g>
<path d="M20,362.489c0-0.001,0-0.001,0-0.002c0.024-5.373-4.221-9.833-9.63-10.033c-5.516-0.193-10.159,4.104-10.363,9.623
	C0.002,362.216,0,362.375,0,362.52c0.016,5.509,4.487,9.969,10,9.969C15.523,372.49,20,368.013,20,362.489z"/>
<path d="M69.364,345.446l-0.26,0.07c-5.333,1.434-8.495,6.919-7.062,12.253c1.2,4.464,5.239,7.407,9.651,7.407
	c0.859,0,1.733-0.112,2.602-0.345l0.26-0.07c5.333-1.434,8.495-6.919,7.062-12.253C80.184,347.174,74.696,344.015,69.364,345.446z"
	/>
<path d="M54.099,396.643l-0.26,0.07c-5.334,1.431-8.498,6.916-7.067,12.25c1.198,4.466,5.238,7.411,9.652,7.411
	c0.857,0,1.73-0.111,2.598-0.344l0.26-0.07c5.334-1.431,8.498-6.915,7.067-12.249C64.917,398.377,59.432,395.211,54.099,396.643z"/>
<path d="M74.535,450.697l-0.26,0.07c-5.334,1.431-8.498,6.915-7.067,12.25c1.198,4.466,5.238,7.411,9.652,7.411
	c0.857,0,1.73-0.111,2.598-0.344l0.26-0.07c5.334-1.431,8.498-6.916,7.067-12.25C85.355,452.429,79.871,449.265,74.535,450.697z"/>
<path d="M119.593,428.177c0.859,0,1.733-0.112,2.602-0.345l0.26-0.07c5.334-1.434,8.495-6.919,7.062-12.253
	c-1.434-5.333-6.92-8.492-12.253-7.062l-0.26,0.07c-5.334,1.434-8.495,6.919-7.062,12.253
	C111.143,425.235,115.181,428.177,119.593,428.177z"/>
<path d="M174.764,435.912c0.857,0,1.73-0.111,2.598-0.344l0.26-0.07c5.334-1.431,8.498-6.915,7.067-12.25
	c-1.431-5.333-6.914-8.499-12.25-7.067l-0.26,0.07c-5.334,1.431-8.498,6.916-7.067,12.25
	C166.311,432.967,170.35,435.912,174.764,435.912z"/>
<path d="M397.058,125.815l0.402,0.046c0.384,0.043,0.765,0.065,1.142,0.065c5.017,0,9.343-3.767,9.924-8.871
	c0.624-5.488-3.319-10.442-8.806-11.066l-0.476-0.054c-5.493-0.605-10.429,3.357-11.033,8.847
	C387.608,120.271,391.569,125.211,397.058,125.815z"/>
<path d="M330.372,326.663c-0.101-0.06-0.222-0.13-0.33-0.189c-4.798-2.663-10.852-0.962-13.557,3.824
	c-2.718,4.808-1.023,10.909,3.785,13.626c0.01,0.006,0.022,0.012,0.033,0.018c1.551,0.878,3.244,1.298,4.915,1.298
	c3.397,0,6.71-1.732,8.585-4.857C336.645,335.648,335.109,329.505,330.372,326.663z"/>
<path d="M511.428,213.948c-1.59-19.209-6.572-36.03-14.889-50.42c-0.371-0.905-0.881-1.767-1.529-2.552
	c-13.777-22.284-35.889-38.485-66.189-48.385c-5.249-1.717-10.896,1.149-12.611,6.399c-1.715,5.25,1.15,10.896,6.399,12.611
	c22.931,7.493,39.852,18.474,51.246,33.515c-22.913,13.216-63.755-0.534-81.445-7.62c-3.685-1.476-7.898-0.632-10.729,2.153
	c-2.831,2.784-3.747,6.981-2.333,10.691c4.688,12.301,15.204,48.748,8.341,68.219c-19.742-3.775-43.816-30.355-51.321-40.29
	c-2.432-3.227-6.565-4.674-10.479-3.669c-3.913,1.006-6.836,4.269-7.409,8.269c-1.406,9.824-7.228,28.304-15.635,44.612
	c-7.005,13.589-14.712,23.561-21.977,28.657c-8.402-19.795-8.949-42.904-1.758-69.739c7.608-28.394,25.923-51.879,50.447-66.2
	c0.473-0.223,0.932-0.484,1.376-0.787c9.496-5.363,19.889-9.374,30.938-11.773c5.397-1.172,8.823-6.497,7.651-11.894
	c-1.172-5.397-6.498-8.824-11.894-7.651c-10.478,2.275-20.461,5.771-29.798,10.339c-18.539-21.633-42.211-37.1-68.963-44.907
	c-16.969-4.953-34.866-6.798-52.918-5.548c7.135-8.287,13.517-17.23,19.008-26.743c7.588-13.102,3.102-29.935-9.999-37.523
	c-6.346-3.676-13.745-4.659-20.832-2.772c-7.087,1.889-13.015,6.424-16.69,12.771c-0.002,0.003-0.005,0.007-0.007,0.011
	c-10.542,18.259-25.65,33.49-43.8,44.134c-0.238,0.113-0.473,0.237-0.704,0.37C114.54,68.841,93.542,74.451,72.196,74.451
	c-15.164,0-27.501,12.336-27.501,27.501s12.336,27.501,27.501,27.501c28.333,0,56.345-6.916,81.509-20.024
	c44.887,46.054,44.947,99.227,28.507,137.478c-26.81-12.706-58.056-16.35-88.869-8.093c-35.572,9.531-61.083,27.144-76.308,52.54
	c-0.22,0.319-0.413,0.65-0.592,0.987c-7.106,12.158-11.897,26.068-14.324,41.716c-0.847,5.457,2.892,10.568,8.349,11.415
	c5.461,0.846,10.568-2.892,11.415-8.349c1.421-9.159,3.779-17.555,7.079-25.216c22.264,11.418,57.16,7.828,80.2,2.737
	c-5.774,19.632-11.262,49.84,1.377,69.425c1.745,2.703,4.684,4.402,7.896,4.565c0.649,0.033,1.297,0.049,1.949,0.049
	c22.564-0.001,46.379-19.395,61.06-33.936c5.838,25.448,17.396,55.425,40.12,68.659c-29.669,39.266-95.077,55.599-143.625,67.72
	c-15.673,3.914-31.22-5.158-36.156-21.103c-6.768-21.867-14.24-47.668-18.35-73.229c-0.876-5.453-6.004-9.166-11.46-8.286
	c-5.453,0.876-9.163,6.008-8.286,11.461c4.307,26.789,12.017,53.435,18.991,75.967c6.756,21.828,26.67,36.064,48.204,36.063
	c3.936,0,7.929-0.476,11.902-1.468c55.081-13.751,130.517-32.586,161.251-84.78c0.341-0.579,0.669-1.165,0.997-1.751
	c0.073-0.123,0.145-0.248,0.214-0.375c14.25-25.638,16.587-56.885,6.93-92.926c-8.394-31.326-27.601-56.918-52.518-73.827
	c10.43-23.299,14.553-49.421,11.605-74.53c-3.553-30.264-17.314-58.879-39.986-83.433c3.013-2.046,5.964-4.178,8.838-6.401
	c49.109-13.099,97.884,0.705,130.199,36.295c-24.393,17.141-42.497,42.468-50.523,72.421c-9.548,35.636-7.026,66.581,7.423,92.494
	c0.145,0.293,0.301,0.577,0.472,0.85c6.978,12.24,16.632,23.35,28.976,33.281c1.848,1.487,4.062,2.209,6.262,2.209
	c2.924,0,5.822-1.277,7.798-3.732c3.462-4.303,2.78-10.598-1.523-14.06c-7.221-5.809-13.313-12.05-18.298-18.738
	c21.021-13.572,35.36-45.587,42.47-68.086c14.115,14.816,37.511,34.667,60.812,33.519c3.213-0.159,6.153-1.854,7.901-4.556
	c12.581-19.447,7.561-50.949,2.158-71.51c24.975,7.674,56.743,12.654,79.57-0.443c4.118,9.761,6.659,20.775,7.684,33.149
	c3.348,40.457-10.665,89.392-20.898,125.122c-4.448,15.534-20.077,24.46-36.354,20.759c-22.321-5.072-48.401-11.5-72.592-20.722
	c-5.16-1.968-10.939,0.621-12.906,5.782c-1.967,5.161,0.622,10.939,5.782,12.906c25.352,9.664,52.284,16.31,75.285,21.537
	c3.86,0.877,7.719,1.298,11.52,1.298c22.147-0.001,42.266-14.308,48.493-36.056C500.482,309.011,515.077,258.046,511.428,213.948z
	 M232.857,335.874c7.378,27.534,6.965,50.628-1.292,70.229c-22.844-13.286-31.338-55.462-34.043-74.301
	c-0.564-3.931-3.401-7.156-7.229-8.216c-3.825-1.059-7.919,0.245-10.426,3.325c-8.31,10.21-34.615,37.542-54.91,41.332
	c-6.601-18.984,4.381-53.123,9.232-64.59c1.58-3.719,0.766-8.023-2.062-10.909c-2.828-2.886-7.116-3.786-10.865-2.282
	c-9.211,3.694-28.127,7.892-46.454,8.765c-15.272,0.727-27.761-0.961-35.806-4.705c12.942-17.173,32.682-29.202,59.517-36.392
	C156.915,242.482,217.176,277.36,232.857,335.874z M64.696,101.951c0-4.136,3.364-7.5,7.5-7.5c24.583,0,48.784-6.398,70.037-18.507
	c0.257-0.121,0.51-0.253,0.758-0.396c21.422-12.368,39.317-30.285,51.749-51.813c0.998-1.724,2.608-2.955,4.534-3.468
	c1.925-0.512,3.935-0.245,5.659,0.753c1.724,0.999,2.955,2.608,3.468,4.534c0.513,1.925,0.246,3.935-0.759,5.67
	c-13.65,23.641-33.407,43.394-57.136,57.129c-0.01,0.006-0.02,0.012-0.03,0.018c-0.025,0.014-0.048,0.029-0.073,0.044
	c-0.234,0.135-0.46,0.279-0.679,0.43c-23.635,13.484-50.424,20.607-77.529,20.607C68.061,109.452,64.696,106.086,64.696,101.951z"/>
<path d="M359.4,280.738l0.07-0.26c1.431-5.334-1.733-10.818-7.067-12.25c-5.334-1.432-10.818,1.732-12.249,7.067l-0.07,0.26
	c-1.431,5.334,1.733,10.818,7.067,12.25c0.868,0.233,1.74,0.344,2.598,0.344C354.162,288.15,358.202,285.205,359.4,280.738z"/>
<path d="M386.452,326.973c4.414,0,8.454-2.945,9.652-7.411l0.07-0.26c1.431-5.334-1.733-10.818-7.067-12.249
	s-10.818,1.732-12.249,7.067l-0.07,0.26c-1.431,5.334,1.733,10.818,7.067,12.25C384.721,326.862,385.594,326.973,386.452,326.973z"
	/>
<path d="M446.136,316.381c-5.333-1.431-10.818,1.732-12.25,7.067l-0.07,0.26c-1.431,5.334,1.733,10.818,7.067,12.249
	c0.868,0.233,1.74,0.344,2.598,0.344c4.414,0,8.454-2.945,9.652-7.411l0.07-0.26C454.635,323.296,451.47,317.812,446.136,316.381z"
	/>
<path d="M430.913,258.246c-5.335-1.432-10.818,1.732-12.25,7.067l-0.07,0.26c-1.431,5.334,1.733,10.818,7.067,12.25
	c0.868,0.233,1.74,0.344,2.598,0.344c4.414,0,8.454-2.945,9.652-7.411l0.07-0.26C439.412,265.162,436.248,259.677,430.913,258.246z"
	/>
<path d="M459.94,233.91c0.87,0.233,1.743,0.345,2.602,0.345c4.412,0,8.451-2.943,9.651-7.407l0.07-0.26
	c1.434-5.333-1.728-10.819-7.061-12.253c-5.334-1.432-10.819,1.728-12.253,7.062l-0.07,0.26
	C451.445,226.99,454.607,232.476,459.94,233.91z"/>
<g>
</g>
<g>
</g>
<g>
</g>
<g>
</g>
<g>
</g>
<g>
</g>
<g>
</g>
<g>
</g>
<g>
</g>
<g>
</g>
<g>
</g>
<g>
</g>
<g>
</g>
<g>
</g>
<g>
</g>
</svg>
