<?xml version="1.0" encoding="iso-8859-1"?>
<!-- Generator: Adobe Illustrator 21.0.0, SVG Export Plug-In . SVG Version: 6.00 Build 0)  -->
<svg version="1.1" id="Capa_1" xmlns="http://www.w3.org/2000/svg" xmlns:xlink="http://www.w3.org/1999/xlink" x="0px" y="0px"
	 viewBox="0 0 512 512" style="enable-background:new 0 0 512 512;" xml:space="preserve">
<g>
	<path style="fill:#FFCF33;" d="M169.653,480.054c135.645,19.557,244.134-98.627,234.956-220.807
		c-20.732-12.019-37.258-31.453-45.19-56.057c-7.284-22.594-6.138-45.884,1.694-66.469c-7.171-17.897-16.32-28.625-30.421-32.877
		c-7.616-2.294-16.678-2.7-27.651-1.325c-20.116,2.521-37.371-10.862-57.266-13.73c-25.474-3.673-49.829-2.587-72.561,2.376
		c-4.269,0.932-8.482,2.001-12.634,3.201c-4.359,1.26-8.651,2.664-12.873,4.206C31.121,141.152-31.587,288.668,40.953,398.826
		c9.283,12.227,6.044,27.509,14.956,45.891c8.632,17.811,22.852,24.572,57.058,23.578
		C133.124,467.711,149.757,477.186,169.653,480.054z"/>
	<path style="fill:#87DD60;" d="M359.418,203.19c7.931,24.603,24.458,44.038,45.19,56.057c6.43,3.727,13.266,6.742,20.374,8.975
		c18.861-25.195,25.627-58.846,15.235-91.08c-2.07-6.421-4.726-12.491-7.891-18.167c-12.714-22.823-33.63-39.31-57.674-46.864
		c-5.641,7.535-10.199,15.827-13.54,24.611C353.279,157.306,352.134,180.596,359.418,203.19z"/>
	<path style="fill:#00C56E;" d="M374.653,112.11c24.044,7.554,44.96,24.041,57.674,46.864c25.925,5.205,51.515-2.82,69.672-19.491
		c-9.838-22.976-30.293-40.99-56.589-46.642C419.115,87.19,393.063,95.206,374.653,112.11z"/>
	<path style="fill:#AA836D;" d="M374.653,112.11c20.583-28.299,24.849-42.758,23.247-61.05
		c-2.195-25.065-30.282-31.144-34.567-0.831c-2.467,17.458-16.912,39.023-32.643,53.618c14.102,4.249,23.25,14.978,30.421,32.875
		C364.453,127.937,369.012,119.645,374.653,112.11z"/>
</g>
<path d="M147.284,108.732c1.137,0,2.294-0.196,3.424-0.608l0.423-0.155c5.189-1.892,7.862-7.631,5.97-12.821
	c-1.892-5.188-7.63-7.862-12.821-5.97l-0.423,0.155c-5.189,1.892-7.862,7.631-5.97,12.821
	C139.367,106.213,143.201,108.732,147.284,108.732z"/>
<path d="M511.192,135.547c-11.458-26.754-35.263-46.374-63.68-52.482c-15.102-3.246-30.584-2.478-44.995,1.908
	c4.968-11.885,6.416-22.564,5.346-34.784c-1.708-19.516-15.028-30.057-27.301-30.383c-10.615-0.28-24.038,7.152-27.129,29.024
	c-1.781,12.601-12.146,30.131-25.767,44.008c-7.615-1.398-16.185-1.453-25.867-0.24c-9.528,1.193-19.135-2.436-29.306-6.279
	c-7.948-3.004-16.168-6.11-25.288-7.425c-25.123-3.624-50.053-2.926-74.098,2.072c-5.407,1.124-8.879,6.419-7.756,11.827
	c1.124,5.408,6.419,8.883,11.827,7.755c21.759-4.522,44.36-5.149,67.173-1.858c6.953,1.002,13.811,3.594,21.072,6.338
	c12.003,4.536,24.416,9.229,38.864,7.416c9.35-1.17,16.881-0.985,23.152,0.857c0.24,0.082,0.484,0.149,0.729,0.213
	c9.841,3.144,16.517,10.567,22.242,23.552c-7.464,22.16-7.842,46.434-0.505,69.193c7.871,24.415,23.961,45.069,45.036,58.758
	c2.671,56.639-21.246,114.09-64.604,154.586c-43.968,41.067-100.529,59.019-159.254,50.553c-7.339-1.058-14.273-3.128-21.613-5.321
	c-11.405-3.406-23.201-6.929-36.79-6.534c-32.57,0.951-41.64-5.3-47.768-17.944c-3.598-7.423-4.939-14.486-6.237-21.315
	c-1.652-8.695-3.359-17.683-9.533-25.97c-26.775-40.81-35.477-90.2-24.501-139.113c12.096-53.905,45.916-101.194,92.792-129.74
	c4.717-2.873,6.212-9.025,3.34-13.743c-2.874-4.718-9.028-6.212-13.743-3.34C55.542,138.491,18.399,190.411,5.122,249.581
	c-12.199,54.355-2.439,109.312,27.479,154.745c0.123,0.187,0.253,0.37,0.388,0.547c3.51,4.623,4.623,10.482,6.032,17.9
	c1.469,7.732,3.134,16.498,7.888,26.306c12.353,25.485,35.454,30.112,66.348,29.212c10.369-0.295,20.142,2.617,30.484,5.706
	c7.711,2.303,15.687,4.685,24.483,5.954c10.407,1.5,20.756,2.249,31.022,2.249c22.478-0.001,44.556-3.591,65.935-10.747
	c29.195-9.772,55.709-25.664,78.803-47.234c44.747-41.794,70.623-100.162,71.137-158.872c2.253,0.875,4.539,1.685,6.861,2.415
	c0.988,0.311,1.997,0.46,2.997,0.46c3.094,0,6.083-1.439,8.006-4.007c10.508-14.038,17.614-30.575,20.547-47.828
	c0.926-5.445-2.737-10.609-8.182-11.536c-5.441-0.925-10.61,2.737-11.536,8.182c-1.996,11.741-6.352,23.081-12.707,33.179
	c-24.702-10.016-43.935-30.541-52.172-56.092c-8.235-25.546-4.615-53.434,9.578-75.989c18.638,7.652,34.835,21.861,45.137,39.818
	c0.051,0.089,0.111,0.168,0.164,0.255c0.095,0.154,0.19,0.307,0.293,0.455c0.092,0.133,0.188,0.261,0.286,0.388
	c0.099,0.129,0.198,0.257,0.303,0.381c0.111,0.131,0.225,0.257,0.341,0.381c0.105,0.112,0.211,0.223,0.322,0.33
	c0.122,0.119,0.247,0.233,0.374,0.344c0.119,0.105,0.239,0.206,0.363,0.305c0.126,0.1,0.253,0.196,0.383,0.29
	c0.137,0.099,0.276,0.195,0.418,0.287c0.126,0.081,0.253,0.159,0.382,0.234c0.153,0.09,0.308,0.176,0.467,0.258
	c0.13,0.067,0.261,0.129,0.393,0.19c0.161,0.074,0.324,0.146,0.49,0.212c0.144,0.057,0.289,0.108,0.435,0.159
	c0.158,0.054,0.316,0.108,0.479,0.154c0.168,0.049,0.337,0.089,0.508,0.129c0.102,0.024,0.2,0.056,0.304,0.077
	c0.075,0.015,0.15,0.025,0.225,0.039c0.041,0.007,0.082,0.015,0.124,0.022c5.703,1.121,11.455,1.679,17.182,1.679
	c22.297,0,44.17-8.332,60.875-23.668C511.889,143.979,512.863,139.448,511.192,135.547z M347.406,100.91
	c11.835-13.568,23.359-31.805,25.828-49.281c1.152-8.15,4.281-11.831,6.729-11.831c0.021,0,0.043,0,0.064,0.001
	c2.767,0.073,7.194,3.98,7.908,12.134c1.319,15.063-1.542,27.029-21.37,54.292c-0.019,0.027-0.038,0.053-0.057,0.08
	c-2.032,2.726-3.925,5.532-5.681,8.405C356.889,109.018,352.443,104.442,347.406,100.91z M438.505,149.867
	c-10.766-17.02-26.007-30.977-43.552-40.115c14.588-8.031,31.767-10.7,48.354-7.133c19.673,4.229,36.503,16.791,46.241,34.187
	C474.938,147.607,456.538,152.338,438.505,149.867z"/>
<path d="M443.35,186.812c-5.489,0.61-9.444,5.554-8.834,11.045l0.041,0.374c0.552,5.128,4.887,8.932,9.931,8.932
	c0.357,0,0.718-0.019,1.082-0.058c5.491-0.591,9.464-5.521,8.874-11.012l-0.049-0.444C453.784,190.158,448.834,186.2,443.35,186.812
	z"/>
<path d="M231.134,336.022c-5.523,0-10,4.477-10,10v0.3c0,5.523,4.477,10,10,10s10-4.477,10-10v-0.3
	C241.135,340.5,236.658,336.022,231.134,336.022z"/>
<path d="M217.312,155.345c-5.523,0-10,4.477-10,10v0.3c0,5.523,4.477,10,10,10s10-4.477,10-10v-0.3
	C227.312,159.822,222.835,155.345,217.312,155.345z"/>
<path d="M206.279,261.333v-0.299c0-5.523-4.477-10-10-10s-10,4.477-10,10v0.299c0,5.523,4.477,10,10,10
	C201.801,271.333,206.279,266.856,206.279,261.333z"/>
<path d="M134.627,424.07c5.523,0,10-4.477,10-10v-0.299c0-5.523-4.477-10-10-10c-5.523,0-10,4.477-10,10v0.299
	C124.626,419.592,129.104,424.07,134.627,424.07z"/>
<path d="M293.137,251.618v-0.299c0-5.523-4.477-10-10-10c-5.523,0-10,4.477-10,10v0.299c0,5.523,4.477,10,10,10
	C288.66,261.619,293.137,257.142,293.137,251.618z"/>
<path d="M92.128,303.32v0.299c0,5.523,4.477,10,10,10c5.523,0,10-4.477,10-10v-0.299c0-5.523-4.477-10-10-10
	C96.605,293.319,92.128,297.797,92.128,303.32z"/>
<path d="M236.812,418.407l-0.254,0.089c-5.209,1.833-7.946,7.542-6.113,12.754c1.447,4.111,5.308,6.683,9.433,6.683
	c1.102,0,2.222-0.183,3.32-0.57l0.254-0.089c5.209-1.833,7.946-7.542,6.113-12.753C247.731,419.31,242.02,416.573,236.812,418.407z"
	/>
<path d="M257.657,421.179c1.299,4.332,5.272,7.13,9.575,7.13c0.951,0,1.919-0.137,2.876-0.424
	c18.443-5.531,35.997-18.441,46.956-34.536c3.109-4.565,1.928-10.787-2.636-13.895c-4.565-3.108-10.787-1.929-13.895,2.636
	c-8.333,12.238-22.194,22.444-36.171,26.635C259.073,410.314,256.071,415.889,257.657,421.179z"/>
<path d="M342.14,312.322c5.523,0,10-4.477,10-10v-0.299c0-5.523-4.477-10-10-10c-5.523,0-10,4.477-10,10v0.299
	C332.139,307.845,336.616,312.322,342.14,312.322z"/>
<g>
</g>
<g>
</g>
<g>
</g>
<g>
</g>
<g>
</g>
<g>
</g>
<g>
</g>
<g>
</g>
<g>
</g>
<g>
</g>
<g>
</g>
<g>
</g>
<g>
</g>
<g>
</g>
<g>
</g>
</svg>
