<svg height="466pt" viewBox="-67 0 466 466.47578" width="466pt" xmlns="http://www.w3.org/2000/svg"><path d="m85.238281 176.960938-26.398437 15.101562c-9.109375 5.207031-19.421875 7.941406-29.910156 7.9375-13.257813 0-24 10.746094-24 24s10.742187 24 24 24h24l7.558593-3.777344c4.824219-2.40625 10.578125-1.96875 14.980469 1.144532 4.402344 3.113281 6.734375 8.394531 6.066406 13.746093-2.839844 22.757813-17.824218 42.175781-39.117187 50.695313-3.628907 1.449218-7.496094 2.191406-11.402344 2.191406h-.085937c-14.988282-.003906-27.789063 10.820312-30.273438 25.601562-2.214844 13.289063 4.492188 26.46875 16.542969 32.496094l15.761719 7.878906c7.628906 3.8125 16.503906 4.28125 24.496093 1.289063l51.472657-19.265625 5.832031 29.144531c1.417969 7.113281.957031 14.476563-1.335938 21.359375l-.371093 1.113282c-6.851563 20.5625 3.199218 42.945312 23.121093 51.488281 12.945313 5.546875 27.816407 4.183593 39.535157-3.625l14.191406-9.464844c9.585937-6.390625 16.097656-16.460937 17.992187-27.824219l3.609375-21.597656c.941406-5.640625.707032-11.414062-.679687-16.960938l-5.894531-23.632812 46.636718 20c6.054688 2.597656 12.820313 3.027344 19.152344 1.214844l25.433594-7.261719c12.300781-3.515625 20.777344-14.761719 20.777344-27.554687v-21.75c.011718-12.339844-7.886719-23.300782-19.59375-27.199219-2.921876-.96875-5.980469-1.457031-9.054688-1.449219h-39.824219c-2.34375 0-4.679687-.289062-6.953125-.855469l-28.574218-7.144531v-40h41.75c4.117187 0 8.191406-.863281 11.953124-2.535156l48.800782-21.695313c10.636718-4.71875 17.492187-15.261719 17.496094-26.898437v-21.726563c0-9.503906-4.59375-18.421875-12.328126-23.945312l-20.273437-14.488281c-13.011719-9.289063-31.0625-6.492188-40.65625 6.296874-4.34375 5.789063-10.667969 9.777344-17.769531 11.199219-7.597656 1.519531-15.484375-.105469-21.863282-4.507812-6.375-4.402344-10.695312-11.199219-11.96875-18.84375l-1.253906-7.550781c-1.214844-7.257813-5.175781-13.765626-11.054687-18.183594l-22.832031-17.121094v-88h-48v88l-30.042969 18.023438c-6.386719 3.816406-10.992188 10.019531-12.796875 17.242187l-1.335938 5.335937c-2.375 9.546876.421875 19.636719 7.375 26.597657 3.054688 3.039062 4.515625 7.328125 3.949219 11.597656s-3.097656 8.027344-6.839844 10.164063zm0 0" fill="#fcb94e"/><g fill="#e99525"><path d="m285 237.304688 19.382812-8.617188-10.605468-4.96875c-18.355469-7.347656-28.863282-26.730469-25.007813-46.117188l-15.679687-3.203124c-5.171875 25.824218 8.019531 51.824218 31.910156 62.90625zm0 0"/><path d="m213.089844 174.398438-8 40c-.351563 1.746093-.113282 3.554687.679687 5.144531l14.214844 28.457031h17.886719l-16.558594-33.128906 7.457031-37.269532zm0 0"/><path d="m296.128906 373.9375c1.5-.433594 2.964844-.984375 4.375-1.648438l-31.574218-31.601562v-28.6875h-16v32c0 2.121094.84375 4.15625 2.34375 5.65625l28 28zm0 0"/><path d="m205.167969 361.9375-8-32c-.679688-2.726562.117187-5.609375 2.105469-7.59375l16-16 11.3125 11.3125-12.800782 12.800781 9.335938 37.34375zm0 0"/><path d="m167.273438 354.34375-14.289063 14.289062-40.703125 8.167969 2.480469 12.375c.207031 1.054688.292969 2.128907.421875 3.199219l43.34375-8.535156c1.550781-.308594 2.972656-1.070313 4.089844-2.183594l16-16zm0 0"/><path d="m178.984375 400.238281-30.054687 7.515625-33.441407-8.355468c-.179687 3.78125-.875 7.515624-2.0625 11.105468l-.371093 1.113282c-.375 1.125-.511719 2.269531-.796876 3.40625l34.710938 8.738281c1.277344.316406 2.609375.316406 3.886719 0l32-8zm0 0"/><path d="m55.769531 302.398438c-4.132812 3.011718-8.617187 5.507812-13.351562 7.433593-1.816407.707031-3.691407 1.242188-5.601563 1.601563l-3.320312 13.261718c-3.539063 13.804688 3.074218 28.199219 15.855468 34.503907l7.152344-14.320313c-6.023437-2.96875-9.140625-9.75-7.472656-16.253906zm0 0"/><path d="m73.886719 282.167969c-2.714844 4.824219-6.050781 9.269531-9.925781 13.222656 11.523437 20.480469 31.425781 34.898437 54.480468 39.464844l4.917969.984375 3.136719-15.679688-4.910156-.992187c-20.464844-4.933594-37.832032-18.402344-47.699219-37zm0 0"/><path d="m40.382812 198.769531 22.890626 22.886719 11.3125-11.3125-17.457032-17.457031c-5.261718 2.78125-10.902344 4.761719-16.746094 5.882812zm0 0"/><path d="m170.527344 277.230469c-23.386719-13.957031-50.777344-19.679688-77.800782-16.253907l-12 2.191407c-1.160156 6.074219-3.207031 11.945312-6.078124 17.425781l20.519531-3.792969c23.328125-2.890625 46.957031 2.09375 67.128906 14.167969l6.511719 3.902344 8.238281-13.710938zm0 0"/><path d="m82.265625 122.847656c-.042969.144532-.121094.273438-.152344.417969l-1.335937 5.335937c-1.324219 5.359376-1.03125 10.996094.847656 16.191407 16.195312 14.839843 37.335938 23.113281 59.304688 23.207031v-16c-22.96875-.300781-44.554688-11.027344-58.664063-29.152344zm0 0"/><path d="m79.273438 242.34375-3.378907 3.410156c3.914063 2.988282 6.027344 7.773438 5.601563 12.679688 3.679687-1.890625 9.054687-4.800782 9.054687-4.800782 23.445313-23.351562 56.480469-34.351562 89.242188-29.710937l2.269531-15.84375c-37.738281-5.292969-75.777344 7.386719-102.789062 34.265625zm0 0"/></g></svg>