<?xml version="1.0" encoding="iso-8859-1"?>
<!-- Generator: Adobe Illustrator 21.0.0, SVG Export Plug-In . SVG Version: 6.00 Build 0)  -->
<svg version="1.1" id="Capa_1" xmlns="http://www.w3.org/2000/svg" xmlns:xlink="http://www.w3.org/1999/xlink" x="0px" y="0px"
	 viewBox="0 0 512.006 512.006" style="enable-background:new 0 0 512.006 512.006;" xml:space="preserve">
<g>
	<path style="fill:#00C56E;" d="M348.023,345.951l-92.785,59.844L200.575,502l-124.56-70.775l64.864-114.159l-0.436-110.083
		c1.376-0.66,2.732-1.365,4.066-2.115l0.111-0.063c0.299-0.169,0.597-0.34,0.894-0.513l0.45-0.266l0.016-0.01
		c0.291-0.173,0.582-0.349,0.871-0.527c0.165-0.101,0.33-0.204,0.494-0.307c0.281-0.177,0.562-0.355,0.841-0.535
		c0.174-0.113,0.348-0.226,0.522-0.34c0.248-0.163,0.495-0.328,0.741-0.495c0.201-0.136,0.401-0.273,0.6-0.411
		c0.218-0.151,0.434-0.302,0.65-0.456c0.221-0.156,0.44-0.315,0.659-0.474c0.205-0.149,0.409-0.299,0.612-0.45
		c0.236-0.176,0.472-0.353,0.705-0.532c0.17-0.129,0.338-0.26,0.507-0.391c0.255-0.198,0.508-0.399,0.761-0.601l0.451-0.365
		c0.28-0.228,0.559-0.459,0.836-0.692l0.336-0.285c0.289-0.246,0.575-0.494,0.859-0.745l0.336-0.298
		c0.303-0.27,0.604-0.544,0.903-0.82l0.226-0.21c0.324-0.302,0.645-0.608,0.964-0.917l0.166-0.16
		c0.333-0.325,0.664-0.655,0.992-0.987l0.124-0.126c0.341-0.348,0.68-0.701,1.014-1.058l0.073-0.078
		c0.344-0.368,0.685-0.741,1.023-1.117l0.055-0.061c0.347-0.388,0.691-0.781,1.03-1.178l0.005-0.006l0.008-0.009
		c0.347-0.406,0.689-0.817,1.028-1.232l0.003-0.004l0.005-0.007c0.334-0.41,0.663-0.824,0.988-1.243l0.018-0.023l0.002-0.002
		l0.02-0.026c0.327-0.421,0.649-0.846,0.968-1.277c3.766,4.566,8.411,8.536,13.862,11.633l20.516,95.409l40.05-70.486l0.239,0.394
		l0.073,0.118c0.142,0.231,0.285,0.461,0.43,0.69l0.074,0.116c0.137,0.215,0.275,0.428,0.414,0.641l0.166,0.252
		c0.117,0.176,0.233,0.352,0.352,0.526l0.172,0.253c0.12,0.175,0.24,0.349,0.361,0.523l0.153,0.219
		c0.133,0.189,0.268,0.377,0.403,0.565l0.132,0.183c0.133,0.183,0.268,0.365,0.404,0.548l0.18,0.24
		c0.121,0.16,0.243,0.32,0.365,0.48l0.219,0.284c0.111,0.143,0.224,0.286,0.337,0.428l0.255,0.319l0.31,0.382l0.287,0.349
		l0.229,0.275l0.377,0.444l0.244,0.284c0.123,0.142,0.246,0.283,0.371,0.423l0.251,0.282c0.131,0.147,0.263,0.293,0.397,0.439
		l0.236,0.257c0.137,0.148,0.274,0.296,0.412,0.443l0.235,0.249c0.142,0.149,0.285,0.298,0.428,0.445l0.219,0.224
		c0.146,0.149,0.294,0.298,0.442,0.446l0.22,0.217c0.156,0.155,0.314,0.309,0.472,0.462l0.187,0.18
		c0.162,0.155,0.325,0.309,0.488,0.463l0.18,0.168c0.176,0.163,0.352,0.326,0.53,0.487l0.132,0.119
		c0.183,0.165,0.367,0.329,0.553,0.492l0.146,0.128c0.18,0.157,0.36,0.313,0.541,0.468l0.176,0.15
		c0.18,0.153,0.362,0.305,0.545,0.456l0.178,0.148c0.204,0.167,0.408,0.333,0.614,0.497l0.102,0.082
		c0.208,0.165,0.416,0.329,0.627,0.492l0.151,0.117c0.205,0.158,0.412,0.315,0.62,0.471l0.134,0.101
		c0.214,0.16,0.43,0.318,0.646,0.475l0.143,0.103c0.215,0.155,0.431,0.309,0.649,0.462l0.135,0.095
		c0.226,0.158,0.454,0.314,0.683,0.47l0.091,0.062c0.232,0.156,0.464,0.312,0.698,0.465l0.148,0.097
		c0.223,0.145,0.446,0.29,0.672,0.433l0.152,0.095c0.24,0.151,0.482,0.302,0.726,0.451l0.016,0.01
		c0.552,0.337,1.112,0.667,1.678,0.988c0.243,0.138,0.486,0.274,0.73,0.408l0.329,0.178c0.146,0.079,0.292,0.159,0.439,0.238
		l0.252,0.132c0.164,0.086,0.329,0.173,0.494,0.258l0.327,0.166c0.138,0.07,0.276,0.141,0.415,0.21l0.388,0.191l0.373,0.182
		l0.346,0.165l0.418,0.197l0.362,0.166l0.393,0.178l0.386,0.171l0.374,0.163l0.395,0.168l0.368,0.155
		c0.131,0.055,0.263,0.108,0.394,0.162l0.395,0.16l0.348,0.137l0.439,0.17l0.353,0.134l0.39,0.145l0.388,0.142l0.393,0.14
		l0.403,0.141l0.366,0.125l0.387,0.13l0.434,0.141l0.354,0.113l0.397,0.124l0.393,0.12l0.41,0.121l0.361,0.106l0.451,0.127
		l0.338,0.094l0.539,0.143l0.233,0.062c0.207,0.054,0.415,0.105,0.622,0.156l0.175,0.044c0.151,0.037,0.302,0.072,0.453,0.108
		l0.357,0.084c0.258,0.059,0.515,0.117,0.773,0.172c0.229,0.049,0.457,0.097,0.686,0.144l0.093,0.02
		c0.19,0.038,0.38,0.075,0.57,0.111l0.22,0.043c0.159,0.03,0.318,0.058,0.477,0.087l0.333,0.059l0.408,0.069l0.383,0.064
		c0.149,0.024,0.3,0.047,0.45,0.07l0.342,0.052l0.426,0.061l0.372,0.051l0.46,0.059l0.32,0.04l0.482,0.056l0.306,0.034l0.502,0.051
		l0.286,0.028l0.495,0.045l0.315,0.026l0.463,0.035l0.357,0.025l0.423,0.027l0.357,0.02l0.468,0.024l0.319,0.014l0.454,0.017
		l0.342,0.01l0.492,0.012l0.237,0.004c0.185,0.003,0.37,0.006,0.555,0.007l0.231,0.001h0.568l0.18-0.002
		c0.204-0.002,0.408-0.004,0.612-0.007l0.185-0.005c0.194-0.004,0.388-0.008,0.582-0.015l0.279-0.01
		c0.173-0.006,0.346-0.012,0.519-0.02l0.154-0.008c0.96-0.045,1.917-0.111,2.872-0.201l0.09-0.008c0.2-0.019,0.399-0.04,0.598-0.061
		l0.184-0.019c0.167-0.018,0.333-0.038,0.5-0.057l0.302-0.035c0.17-0.021,0.34-0.043,0.51-0.065l0.251-0.033
		c0.186-0.025,0.373-0.052,0.559-0.078l0.212-0.03c0.187-0.027,0.374-0.056,0.562-0.086l0.222-0.035l0.514-0.085l0.278-0.047
		l0.488-0.087l0.287-0.053c0.162-0.03,0.324-0.062,0.486-0.094l0.289-0.057l0.489-0.1l0.258-0.055
		c0.182-0.038,0.363-0.078,0.544-0.118l0.201-0.045c0.188-0.042,0.376-0.086,0.563-0.13l0.196-0.047
		c0.185-0.044,0.369-0.089,0.553-0.135l0.241-0.061l0.497-0.128l0.285-0.077l0.48-0.13l0.255-0.071
		c0.171-0.048,0.342-0.096,0.512-0.146l0.192-0.057c0.196-0.058,0.392-0.115,0.587-0.175l0.07-0.022
		c0.225-0.069,0.449-0.138,0.673-0.21l0.008-0.002l-63.577,111.893l87.9-43.01c1.37,10.208,5.426,19.984,11.858,28.214
		L348.023,345.951L348.023,345.951z M144.619,204.806c0.299-0.169,0.597-0.34,0.894-0.513L144.619,204.806L144.619,204.806z
		 M280.333,250.387c0.229,0.049,0.457,0.097,0.686,0.144L280.333,250.387z"/>
	<g>
		<path style="fill:#87DD60;" d="M144.713,82.907c0.668,0.379,1.323,0.771,1.974,1.169c0.981-5.952,3.011-11.834,6.165-17.385
			c14.317-25.198,46.349-34.018,71.547-19.701c6.121,3.478,11.272,8.004,15.363,13.219c0.812-1.658,1.673-3.304,2.597-4.931
			c24.393-42.93,78.969-57.958,121.898-33.565c41.76,23.727,57.112,76.013,35.468,118.359c1.692,0.793,3.366,1.656,5.018,2.594
			c34.033,19.337,45.946,62.602,26.608,96.635c-3.786,6.662-8.492,12.472-13.861,17.371c1.781,0.789,3.54,1.672,5.27,2.655
			c27.997,15.908,37.798,51.499,21.89,79.497c-15.908,27.997-51.499,37.797-79.496,21.89c-27.997-15.908-37.797-51.499-21.89-79.496
			c1.841-3.241,3.949-6.234,6.276-8.976c-5.062-1.509-10.033-3.611-14.822-6.332c-8.245-4.684-15.187-10.774-20.705-17.795
			c-16.236,5.847-34.832,4.834-51.012-4.36c-18.244-10.366-29.125-28.692-30.766-48.132c-15.164,9.873-35.178,11.141-51.996,1.586
			c-5.452-3.098-10.095-7.069-13.862-11.633c-20.784,28.089-59.747,36.869-90.892,19.173
			c-33.646-19.117-45.423-61.889-26.306-95.536C68.295,75.567,111.067,63.79,144.713,82.907z"/>
		<path style="fill:#87DD60;" d="M180.237,197.21l20.516,95.409l40.049-70.485c-4.853-8.072-7.779-17.162-8.569-26.51
			C217.069,205.497,197.054,206.766,180.237,197.21z"/>
		<path style="fill:#87DD60;" d="M311.841,248.852l-63.577,111.893l87.897-43.01c-1.636-12.191,0.556-24.997,7.103-36.517
			c1.841-3.241,3.949-6.234,6.276-8.976c-5.062-1.509-10.033-3.611-14.822-6.332c-8.245-4.684-15.187-10.774-20.705-17.795
			C313.293,248.375,312.569,248.62,311.841,248.852z"/>
	</g>
	<path style="fill:#C8FA8B;" d="M348.023,345.951l-50.033,32.27c2.685,13.201,10.844,25.217,23.478,32.395
		c23.198,13.18,52.688,5.061,65.868-18.137c4.339-7.637,6.369-15.954,6.314-24.148c-9.679-0.042-19.482-2.495-28.497-7.618
		C358.322,356.834,352.576,351.779,348.023,345.951z"/>
	<path style="fill:#87DD60;" d="M422.759,259.329c13.464,7.651,22.72,19.853,26.928,33.575c6.519-3.984,12.149-9.626,16.191-16.739
		c12.726-22.398,4.886-50.871-17.512-63.597c-2.566-1.458-5.213-2.643-7.904-3.57c-0.681,10.339-3.65,20.691-9.112,30.305
		c-3.786,6.662-8.492,12.472-13.861,17.371C419.271,257.462,421.03,258.346,422.759,259.329z"/>
	<g>
		<path style="fill:#C8FA8B;" d="M146.687,84.076c0.981-5.952,3.011-11.834,6.165-17.385c4.507-7.932,10.768-14.24,18.02-18.714
			c-3.078-3.283-6.695-6.166-10.812-8.506c-21.998-12.499-49.963-4.799-62.461,17.199c-3.524,6.202-5.442,12.877-5.887,19.545
			c17.232-4.687,36.249-2.828,53.003,6.692C145.381,83.286,146.036,83.678,146.687,84.076z"/>
		<path style="fill:#C8FA8B;" d="M404.743,142.667c23.853,13.553,36.84,38.86,35.815,64.504
			c8.435-5.492,15.719-13.024,21.034-22.379c17.763-31.263,6.82-71.006-24.444-88.77c-9.017-5.124-18.741-7.855-28.438-8.403
			c2.176,16.225-0.072,33.16-7.267,48.899c-0.545,1.196-1.117,2.382-1.719,3.553C401.416,140.866,403.09,141.729,404.743,142.667z"
			/>
	</g>
	<path style="fill:#87DD60;" d="M140.443,206.984l0.09,22.714l0.258,65.194c-10.007,4.497-21.181,4.763-32.218-1.509
		c-11.038-6.272-18.315-19.148-18.016-31.834c-5.36-0.789-10.665-2.564-15.659-5.401c-21.598-12.272-29.158-39.729-16.886-61.326
		c0.482-0.848,0.99-1.671,1.517-2.475c4.58,4.77,9.913,8.969,15.955,12.403C96.23,216.537,120.443,216.573,140.443,206.984z"/>
</g>
<path d="M138.913,455.462l-0.26-0.147c-4.806-2.723-10.907-1.035-13.629,3.771c-2.723,4.805-1.035,10.907,3.771,13.629l0.26,0.148
	c1.557,0.882,3.25,1.301,4.92,1.301c3.484,0,6.869-1.824,8.71-5.072C145.405,464.286,143.717,458.184,138.913,455.462z"/>
<path d="M457.376,206.436c5.045-4.922,9.414-10.551,12.909-16.702c9.91-17.442,12.436-37.7,7.11-57.042
	c-5.326-19.342-17.864-35.452-35.307-45.362v0.001c-7.78-4.421-16.075-7.363-24.745-8.796
	c-5.755-26.744-22.503-50.942-48.146-65.512c-23.085-13.117-49.898-16.46-75.495-9.41c-23.16,6.377-42.819,20.569-56.07,40.312
	c-2.594-2.082-5.362-3.96-8.294-5.626c-14.509-8.244-31.36-10.344-47.448-5.915c-3.276,0.902-6.433,2.065-9.464,3.448
	c-2.329-1.872-4.808-3.565-7.428-5.053h0.001c-26.758-15.204-60.895-5.804-76.097,20.954c-3.029,5.332-5.114,10.995-6.259,16.9
	c-17.851,6.486-32.675,18.947-42.162,35.642c-16.585,29.19-12.742,64.491,6.923,89.327c-12.149,25.725-2.581,56.96,22.553,71.241
	c3.584,2.036,7.341,3.651,11.231,4.831c2.31,13.336,10.69,25.727,22.443,32.404c7.119,4.045,14.74,6.078,22.423,6.078
	c1.595,0,3.192-0.089,4.788-0.264l0.026,6.553L67.322,426.284c-0.512,0.9-0.868,1.847-1.078,2.808
	c-0.14,0.641-0.215,1.288-0.227,1.933c-0.068,3.547,1.758,7.018,5.059,8.893l29.966,17.027c1.56,0.886,3.257,1.307,4.931,1.307
	c3.48,0,6.861-1.819,8.704-5.061c2.729-4.802,1.048-10.905-3.754-13.634L89.649,427.47l59.925-105.464
	c0.862-1.518,1.313-3.234,1.306-4.98l-0.412-104.047c0.03-0.018,0.06-0.035,0.089-0.052c0.021-0.012,0.041-0.024,0.061-0.036
	l0.007-0.004c0.426-0.249,0.849-0.504,1.271-0.762c0.059-0.036,0.122-0.073,0.179-0.108l0.593-0.368
	c0.314-0.198,0.628-0.397,0.963-0.613l0.35-0.228c0.388-0.254,0.774-0.51,1.158-0.771c0.211-0.143,0.419-0.286,0.593-0.407
	c0.254-0.175,0.507-0.353,0.758-0.531l0.581-0.422c0.44-0.318,0.879-0.638,1.313-0.966c0.121-0.091,0.246-0.185,0.363-0.273
	l0.577-0.445c0.292-0.227,0.583-0.457,0.913-0.722l0.309-0.25c0.307-0.249,0.611-0.5,0.915-0.754c0.083-0.069,0.155-0.127,0.242-0.2
	l0.347-0.294c0.333-0.283,0.663-0.569,1.007-0.873l0.365-0.323c0.085-0.076,0.174-0.158,0.259-0.235
	c0.222-0.2,0.445-0.401,0.665-0.604c0.043-0.04,0.083-0.075,0.126-0.115l0.24-0.223c0.37-0.345,0.736-0.694,1.11-1.055l0.183-0.177
	c0.244-0.238,0.486-0.48,0.728-0.722c0.08-0.08,0.165-0.155,0.245-0.236l0.001,0.001c0.676,0.551,1.365,1.086,2.066,1.608
	c0.236,0.176,0.479,0.342,0.718,0.514c0.473,0.342,0.946,0.683,1.429,1.012c0.056,0.038,0.109,0.079,0.164,0.116l18.823,87.534
	l-15.143,26.652c-2.729,4.802-1.047,10.905,3.754,13.633c1.559,0.886,3.256,1.307,4.931,1.307c3.48,0,6.862-1.819,8.704-5.061
	l49.672-87.42l0,0l1.858,1.819c0.092,0.088,0.181,0.18,0.274,0.268l0.48,0.47c0.207,0.193,0.416,0.385,0.61,0.561l0.167,0.152
	c0.215,0.194,0.43,0.385,0.632,0.563l0.178,0.157c0.213,0.186,0.426,0.37,0.626,0.541l1.049,0.879
	c0.236,0.194,0.473,0.386,0.717,0.581l0.116,0.093c0.24,0.191,0.482,0.381,0.737,0.58l1.045,0.795
	c0.247,0.184,0.496,0.367,0.754,0.555l0.172,0.125c0.248,0.179,0.499,0.357,0.725,0.516l0.192,0.135
	c0.257,0.179,0.517,0.357,0.758,0.521l0.134,0.091c0.263,0.177,0.527,0.353,0.836,0.557l0.148,0.097
	c0.261,0.17,0.523,0.339,0.83,0.533l0.121,0.076c0.276,0.174,0.555,0.347,0.772,0.48c0.031,0.02,0.064,0.04,0.095,0.059
	c0.641,0.39,1.288,0.771,1.941,1.143c0.287,0.164,0.576,0.326,0.91,0.508l0.506,0.252c1.52,0.819,3.057,1.597,4.621,2.299
	l0.109,0.054l0.08,0.031c2.092,0.932,4.221,1.759,6.377,2.48l0.188,0.073c0.033,0.011,0.066,0.022,0.1,0.033l2.63,0.813
	c0.038,0.011,0.076,0.022,0.114,0.033l0.797,0.223c0.041,0.011,0.082,0.022,0.123,0.033l0.829,0.22
	c0.249,0.065,0.501,0.128,0.694,0.175l1.173,0.281c0.293,0.068,0.585,0.133,0.887,0.198c0.01,0.002,0.019,0.004,0.028,0.006
	c0.258,0.056,0.517,0.11,0.775,0.163c0.048,0.01,0.12,0.025,0.142,0.029l1.373,0.263c0.009,0.001,0.107,0.019,0.117,0.021
	l0.782,0.109c1.303,0.219,2.611,0.4,3.924,0.546l0.856,0.119l0.41,0.021c1.947,0.182,3.901,0.274,5.857,0.295l0.548,0.028
	l-53.438,94.051c-2.167,3.814-1.596,8.594,1.409,11.789c3.005,3.197,7.743,4.061,11.68,2.133l76.697-37.528
	c1.28,3.733,2.882,7.352,4.784,10.807l-41.57,26.811c-0.004,0.002-0.007,0.005-0.011,0.008l-42.386,27.337l-49.218,26.128
	c-4.878,2.589-6.733,8.643-4.144,13.521c1.796,3.384,5.259,5.313,8.84,5.313c1.581,0,3.186-0.376,4.68-1.169l19.228-10.207
	l-32.739,57.619l-19.308-10.97c-4.804-2.73-10.906-1.048-13.634,3.754c-2.729,4.802-1.048,10.906,3.754,13.634l28.001,15.911
	c1.52,0.863,3.223,1.306,4.941,1.306c0.889,0,1.782-0.119,2.654-0.359c2.557-0.704,4.73-2.395,6.04-4.701l53.452-94.072
	l29.935-19.308c5.084,10.734,13.355,19.774,23.872,25.75c9.071,5.155,18.951,7.602,28.707,7.602
	c20.308,0,40.066-10.61,50.795-29.492c3.482-6.128,5.815-12.818,6.907-19.717c20.453-2.74,39.45-14.653,50.407-33.937
	c8.127-14.302,10.772-30.685,7.669-46.662c5.448-4.426,10.071-9.854,13.562-15.998C489.203,255.356,481.372,222.887,457.376,206.436
	z M432.207,104.717L432.207,104.717c12.798,7.272,21.998,19.092,25.906,33.283c3.908,14.191,2.056,29.054-5.217,41.853
	c-1.293,2.275-2.723,4.432-4.285,6.466c-1.654-7.306-4.325-14.288-7.873-20.789c-0.054-0.099-0.106-0.2-0.161-0.299
	c-0.478-0.867-0.975-1.722-1.485-2.571c-0.185-0.31-0.369-0.62-0.558-0.926c-0.417-0.674-0.847-1.34-1.284-2.002
	c-0.307-0.467-0.618-0.932-0.935-1.392c-0.362-0.523-0.73-1.042-1.105-1.557c-0.419-0.578-0.845-1.15-1.279-1.716
	c-0.314-0.409-0.631-0.816-0.954-1.219c-0.517-0.648-1.046-1.287-1.584-1.919c-0.277-0.326-0.554-0.651-0.837-0.973
	c-0.601-0.685-1.218-1.357-1.843-2.021c-0.253-0.269-0.503-0.539-0.759-0.804c-0.67-0.692-1.356-1.369-2.051-2.038
	c-0.241-0.232-0.478-0.467-0.722-0.696c-0.725-0.68-1.468-1.342-2.219-1.996c-0.238-0.208-0.471-0.42-0.712-0.625
	c-0.775-0.659-1.57-1.299-2.372-1.93c-0.236-0.186-0.465-0.378-0.703-0.561c-0.847-0.652-1.715-1.282-2.591-1.902
	c-0.207-0.147-0.407-0.302-0.616-0.447c-1.089-0.756-2.197-1.491-3.328-2.198c0.082-0.206,0.149-0.415,0.23-0.622
	c0.032-0.083,0.06-0.167,0.092-0.25c4.442-11.564,6.58-23.549,6.589-35.402C423.935,100.667,428.164,102.42,432.207,104.717z
	 M154.761,47.966c-1.53,1.503-2.984,3.089-4.359,4.753c-0.041,0.049-0.081,0.099-0.122,0.148c-1.151,1.402-2.247,2.855-3.281,4.365
	c-0.312,0.453-0.618,0.91-0.918,1.372c-0.179,0.276-0.357,0.551-0.532,0.831c-0.479,0.763-0.947,1.533-1.393,2.318
	c-1.459,2.568-2.728,5.215-3.803,7.931c-1.131-0.464-2.271-0.895-3.417-1.305c-0.316-0.113-0.634-0.214-0.951-0.323
	c-0.837-0.288-1.677-0.566-2.521-0.826c-0.376-0.115-0.753-0.224-1.13-0.333c-0.804-0.234-1.611-0.456-2.422-0.665
	c-0.378-0.097-0.755-0.193-1.134-0.284c-0.853-0.206-1.708-0.394-2.566-0.572c-0.325-0.067-0.649-0.139-0.975-0.202
	c-1.066-0.206-2.136-0.39-3.209-0.552c-0.113-0.017-0.226-0.039-0.339-0.056c-1.24-0.182-2.484-0.334-3.731-0.456
	c-0.086-0.008-0.173-0.013-0.26-0.021c-1.113-0.106-2.228-0.186-3.345-0.245c-0.303-0.016-0.606-0.023-0.909-0.036
	c-0.912-0.037-1.825-0.061-2.739-0.067c-0.163-0.001-0.325-0.012-0.488-0.012c-0.302,0-0.605,0.011-0.907,0.015
	c-0.449,0.005-0.897,0.009-1.347,0.022c-0.638,0.018-1.276,0.049-1.914,0.083c-0.319,0.017-0.637,0.023-0.956,0.044
	c0.369-0.77,0.766-1.53,1.192-2.28C115.978,44.561,137.647,38.495,154.761,47.966z M113.512,284.688
	c-7.843-4.456-13.171-13.874-12.959-22.905c0.119-5.048-3.544-9.392-8.541-10.128c-4.28-0.63-8.376-2.044-12.174-4.202
	c-13.901-7.899-20.328-23.953-16.692-38.764c0.074,0.053,0.152,0.101,0.225,0.154c0.813,0.583,1.651,1.142,2.491,1.699
	c0.343,0.227,0.676,0.467,1.022,0.689c1.194,0.765,2.412,1.505,3.659,2.213c1.036,0.589,2.083,1.143,3.135,1.68
	c0.232,0.118,0.463,0.235,0.696,0.351c2.201,1.099,4.432,2.087,6.689,2.967c0.074,0.029,0.148,0.057,0.223,0.086
	c9.334,3.607,19.083,5.369,28.762,5.368c0.34,0,0.678-0.021,1.018-0.025c0.34-0.004,0.68-0.017,1.02-0.025
	c0.932-0.024,1.864-0.057,2.793-0.113c0.399-0.024,0.797-0.058,1.196-0.088c0.874-0.066,1.747-0.138,2.618-0.232
	c0.449-0.048,0.897-0.109,1.345-0.165c0.825-0.103,1.649-0.21,2.471-0.339c0.479-0.075,0.955-0.164,1.433-0.248
	c0.795-0.14,1.589-0.281,2.38-0.445c0.482-0.1,0.961-0.214,1.442-0.322c0.79-0.179,1.579-0.359,2.364-0.561
	c0.124-0.032,0.249-0.056,0.373-0.089l0.263,66.458C124.908,288.885,119.125,287.878,113.512,284.688z M205.016,264.876
	l-11.217-52.165c10.344,1.967,21.046,1.175,31.042-2.359c1.168,4.028,2.7,7.919,4.538,11.647L205.016,264.876z M314.881,263.741
	c4.506,4.153,9.484,7.789,14.895,10.862c1.451,0.824,2.926,1.603,4.421,2.336c-6.097,11.008-8.808,23.005-8.496,34.781
	l-52.746,25.81L314.881,263.741z M378.642,387.538c-10.437,18.368-33.873,24.817-52.234,14.383
	c-7.686-4.367-13.561-11.218-16.741-19.333l36.624-23.622c0.07,0.068,0.147,0.13,0.217,0.199c0.868,0.838,1.764,1.652,2.682,2.448
	c0.394,0.341,0.801,0.666,1.203,0.998c0.622,0.515,1.251,1.023,1.895,1.519c0.421,0.323,0.846,0.641,1.275,0.954
	c0.697,0.511,1.409,1.007,2.13,1.494c0.374,0.252,0.743,0.51,1.122,0.755c1.108,0.717,2.236,1.414,3.398,2.075
	c0.8,0.455,1.608,0.885,2.418,1.304c0.201,0.104,0.404,0.204,0.605,0.305c0.676,0.341,1.355,0.67,2.037,0.986
	c0.15,0.069,0.299,0.14,0.45,0.209c1.767,0.804,3.554,1.525,5.356,2.167c0.014,0.005,0.028,0.01,0.042,0.015
	c0.931,0.331,1.865,0.64,2.803,0.928c0.003,0.001,0.006,0.002,0.008,0.003c1.852,0.568,3.716,1.054,5.59,1.458
	c0.152,0.033,0.304,0.063,0.456,0.095c0.732,0.153,1.465,0.293,2.2,0.421c0.152,0.027,0.303,0.061,0.455,0.087
	C381.796,380.923,380.456,384.345,378.642,387.538z M435.955,333.885c-9.029,15.891-25.776,24.708-42.88,24.425
	c-0.261-0.004-0.52-0.02-0.781-0.029c-0.946-0.031-1.892-0.092-2.838-0.179c-0.483-0.045-0.966-0.088-1.447-0.147
	c-0.395-0.048-0.789-0.109-1.184-0.168c-0.581-0.087-1.162-0.182-1.74-0.291c-0.31-0.058-0.621-0.115-0.93-0.179
	c-0.85-0.177-1.697-0.37-2.537-0.592c-0.045-0.012-0.09-0.021-0.134-0.033c-0.946-0.253-1.883-0.538-2.813-0.849
	c-0.143-0.048-0.286-0.102-0.429-0.151c-0.756-0.26-1.506-0.54-2.249-0.838c-0.229-0.092-0.458-0.186-0.687-0.283
	c-0.674-0.282-1.341-0.583-2.003-0.896c-0.225-0.107-0.451-0.208-0.675-0.318c-0.857-0.422-1.705-0.863-2.538-1.336
	c-0.714-0.406-1.413-0.828-2.099-1.264c-0.122-0.078-0.238-0.162-0.359-0.24c-0.567-0.368-1.13-0.741-1.677-1.13
	c-0.084-0.06-0.164-0.124-0.248-0.184c-0.581-0.418-1.155-0.844-1.712-1.284c-0.038-0.03-0.074-0.062-0.112-0.092
	c-3.119-2.478-5.868-5.292-8.221-8.362c-0.385-0.502-0.752-1.016-1.117-1.532c-0.418-0.593-0.821-1.195-1.211-1.804
	c-0.183-0.285-0.366-0.57-0.542-0.858c-0.307-0.502-0.606-1.007-0.893-1.519c-0.128-0.228-0.249-0.459-0.373-0.689
	c-0.967-1.787-1.822-3.628-2.555-5.515c-0.076-0.196-0.151-0.393-0.225-0.59c-0.738-1.975-1.347-3.996-1.823-6.049
	c-0.034-0.144-0.07-0.288-0.103-0.433c-0.143-0.644-0.271-1.291-0.388-1.94c-0.038-0.211-0.071-0.422-0.106-0.633
	c-1.757-10.55-0.054-21.744,5.629-31.746c1.497-2.634,3.248-5.139,5.206-7.445c2.186-2.575,2.924-6.08,1.962-9.317
	c-0.961-3.238-3.492-5.772-6.729-6.737c-4.408-1.314-8.694-3.146-12.738-5.444c-6.924-3.933-12.905-9.073-17.781-15.279
	c-1.935-2.462-4.857-3.822-7.865-3.822c-1.133,0-2.277,0.193-3.386,0.592c-0.831,0.299-1.669,0.573-2.509,0.827l-3.79,0.98
	c-0.237,0.053-0.473,0.103-0.71,0.152l-5.141,0.794c-2.064,0.213-4.133,0.304-6.199,0.266l-1.042-0.025
	c-0.405-0.016-0.809-0.046-1.214-0.071l-6.636-0.839c-0.803-0.158-1.602-0.338-2.398-0.534l-0.352-0.086
	c-0.469-0.119-0.934-0.259-1.4-0.392l-4.289-1.423c-0.237-0.091-0.471-0.189-0.707-0.283l-5.444-2.556
	c-0.285-0.155-0.575-0.296-0.857-0.457c-0.717-0.407-1.411-0.844-2.104-1.283l-1.162-0.758c-0.422-0.283-0.836-0.575-1.248-0.87
	l-3.06-2.353c-0.314-0.262-0.612-0.54-0.918-0.809l-2.115-1.964c-0.362-0.357-0.721-0.718-1.072-1.085l-2.984-3.406
	c-0.276-0.345-0.544-0.696-0.811-1.047l-2.802-4.085c-4.163-6.753-6.78-14.47-7.469-22.621c-0.296-3.505-2.412-6.598-5.572-8.143
	c-3.159-1.544-6.899-1.316-9.848,0.604c-12.6,8.205-28.541,8.693-41.6,1.273c-4.265-2.424-7.996-5.554-11.088-9.302
	c-1.469-1.781-3.492-2.982-5.709-3.435c-0.103-0.021-0.21-0.028-0.313-0.046c-0.268-0.046-0.535-0.094-0.808-0.118
	c-0.257-0.023-0.518-0.021-0.778-0.024c-0.122-0.001-0.242-0.014-0.365-0.011h-0.001c-0.001,0-0.002,0-0.003,0
	c-0.247,0.007-0.49,0.037-0.734,0.062c-0.135,0.014-0.271,0.015-0.405,0.034c-0.231,0.033-0.456,0.088-0.684,0.137
	c-0.143,0.03-0.288,0.049-0.429,0.086c-0.219,0.057-0.431,0.135-0.645,0.207c-0.142,0.048-0.289,0.084-0.429,0.138
	c-0.206,0.079-0.404,0.179-0.604,0.272c-0.14,0.065-0.285,0.119-0.421,0.19c-0.191,0.1-0.372,0.219-0.557,0.331
	c-0.136,0.082-0.278,0.155-0.41,0.244c-0.181,0.121-0.349,0.262-0.521,0.395c-0.125,0.097-0.257,0.184-0.377,0.286
	c-0.167,0.142-0.32,0.302-0.477,0.455c-0.114,0.111-0.235,0.212-0.344,0.328c-0.161,0.172-0.306,0.362-0.455,0.546
	c-0.091,0.112-0.19,0.215-0.276,0.331c-0.001,0.002-0.003,0.004-0.004,0.006l-0.001,0.001c-0.554,0.749-1.124,1.481-1.706,2.197
	c-0.005,0.006-0.01,0.012-0.015,0.018c-0.029,0.035-0.059,0.07-0.087,0.105c-0.537,0.657-1.087,1.299-1.647,1.928
	c-0.026,0.029-0.047,0.055-0.074,0.084c-0.061,0.068-0.123,0.133-0.184,0.201c-0.53,0.587-1.069,1.162-1.618,1.724l-0.118,0.12
	c-0.091,0.092-0.179,0.177-0.27,0.268c-0.472,0.474-0.951,0.938-1.436,1.394c-0.032,0.03-0.066,0.063-0.097,0.092l-0.204,0.19
	c-0.128,0.118-0.246,0.224-0.371,0.337c-0.403,0.367-0.811,0.727-1.223,1.082c-0.064,0.055-0.129,0.113-0.192,0.166l-0.296,0.251
	c-0.176,0.148-0.347,0.288-0.517,0.427c-0.311,0.256-0.624,0.508-0.939,0.757c-0.103,0.081-0.203,0.162-0.31,0.245l-3.189,2.318
	c-0.209,0.142-0.419,0.282-0.64,0.427l-0.439,0.287c-0.246,0.159-0.494,0.316-0.738,0.47l-0.414,0.257
	c-0.249,0.153-0.5,0.305-0.731,0.442l-0.411,0.243c-0.004,0.002-0.008,0.005-0.012,0.007c-0.232,0.135-0.465,0.269-0.718,0.412
	c-0.009,0.005-0.018,0.01-0.026,0.015c-0.024,0.014-0.049,0.028-0.074,0.042l-0.033,0.019c-1.136,0.639-2.311,1.25-3.491,1.816
	c0,0-0.001,0-0.001,0.001c-5.526,2.649-11.346,4.403-17.259,5.273c-0.065,0.009-0.129,0.018-0.194,0.028
	c-3.525,0.507-7.081,0.702-10.626,0.582c-0.012,0-0.024-0.001-0.036-0.001c-3.562-0.123-7.111-0.564-10.605-1.318
	c-0.041-0.009-0.083-0.018-0.124-0.027c-1.149-0.251-2.293-0.533-3.429-0.852c-0.001,0-0.002-0.001-0.003-0.001
	c-2.22-0.623-4.408-1.384-6.558-2.266c-0.231-0.095-0.462-0.195-0.692-0.293c-0.808-0.343-1.609-0.708-2.404-1.088
	c-0.264-0.127-0.529-0.249-0.792-0.38c-1.001-0.497-1.994-1.014-2.972-1.57c-0.803-0.456-1.585-0.934-2.359-1.421
	c-0.215-0.136-0.429-0.274-0.642-0.412c-0.62-0.402-1.231-0.813-1.832-1.234c-0.156-0.109-0.315-0.215-0.471-0.327
	c-0.737-0.527-1.46-1.069-2.167-1.625c-0.142-0.112-0.281-0.228-0.422-0.341c-0.595-0.477-1.18-0.963-1.754-1.459
	c-0.148-0.128-0.297-0.256-0.444-0.386c-20.854-18.41-26.736-49.575-12.462-74.699c15.291-26.91,48.373-37.501,76.143-25.425
	c0.101,0.044,0.203,0.082,0.304,0.127c0.748,0.33,1.49,0.688,2.23,1.051c0.178,0.088,0.36,0.166,0.537,0.255
	c0.859,0.433,1.712,0.891,2.558,1.369c0.044,0.025,0.089,0.046,0.132,0.071c0.573,0.326,1.135,0.663,1.693,1.004
	c0.017,0.011,0.036,0.018,0.053,0.028c0.318,0.191,0.646,0.37,0.991,0.529c2.418,1.111,14.674,7.669,18.506,27.717
	c0.916,4.79,5.108,8.125,9.81,8.125c0.622,0,1.254-0.059,1.889-0.18c5.424-1.037,8.98-6.275,7.945-11.699
	c-3.97-20.768-14.712-32.106-22.528-37.803c0.878-2.654,2.011-5.228,3.411-7.692c0.41-0.722,0.845-1.428,1.296-2.123
	c0.098-0.152,0.201-0.299,0.301-0.45c0.386-0.579,0.783-1.151,1.197-1.709c0.077-0.104,0.154-0.209,0.232-0.313
	c3.167-4.2,7.089-7.796,11.553-10.55c0.014-0.009,0.026-0.02,0.04-0.028c3.39-2.085,7.092-3.709,11.034-4.795
	c10.939-3.011,22.396-1.584,32.259,4.021c4.843,2.751,9.026,6.351,12.435,10.696c2.124,2.709,5.495,4.133,8.914,3.774
	c3.423-0.36,6.42-2.456,7.935-5.547c0.766-1.565,1.522-3.001,2.311-4.389c10.477-18.441,27.509-31.697,47.958-37.328
	c20.448-5.63,41.865-2.961,60.306,7.518c22.123,12.569,35.96,34.105,39.395,57.488c0.01,0.351,0.035,0.702,0.082,1.054
	c1.209,9.018,0.868,18.054-0.969,26.797c-0.004,0.017-0.007,0.034-0.011,0.051c-0.032,0.151-0.071,0.299-0.104,0.45
	c-0.022,0.088-0.052,0.172-0.072,0.262c-0.846,3.847-1.977,7.614-3.376,11.276c-0.082,0.214-0.17,0.425-0.254,0.638
	c-0.13,0.332-0.268,0.661-0.402,0.992c-0.248,0.604-0.499,1.207-0.762,1.807c-0.077,0.176-0.154,0.352-0.233,0.527
	c-0.107,0.24-0.214,0.48-0.324,0.719c-0.419,0.913-0.853,1.822-1.31,2.726c-0.591,1.171-1.2,2.333-1.849,3.477
	c-11.795,20.76-32.056,34.985-55.587,39.029c-5.443,0.936-9.097,6.106-8.162,11.548c0.837,4.87,5.064,8.308,9.843,8.308
	c0.563,0,1.133-0.047,1.705-0.146c27.503-4.727,51.434-20.566,66.506-43.797c0.354,0.235,0.71,0.467,1.058,0.709
	c0.189,0.131,0.382,0.259,0.569,0.392c0.68,0.483,1.346,0.98,2.003,1.488c0.259,0.2,0.512,0.406,0.767,0.61
	c0.428,0.342,0.852,0.69,1.27,1.043c0.277,0.234,0.556,0.468,0.829,0.707c0.582,0.51,1.155,1.027,1.716,1.558
	c0.262,0.248,0.514,0.503,0.771,0.755c0.359,0.352,0.715,0.706,1.064,1.066c0.273,0.282,0.545,0.565,0.813,0.852
	c0.399,0.427,0.789,0.861,1.175,1.299c0.264,0.299,0.526,0.6,0.783,0.904c0.436,0.516,0.865,1.037,1.283,1.567
	c0.182,0.23,0.361,0.463,0.539,0.695c0.45,0.587,0.891,1.18,1.319,1.784c0.067,0.095,0.138,0.188,0.205,0.283
	c0.542,0.773,1.066,1.56,1.571,2.359c0.023,0.036,0.044,0.072,0.067,0.108c3.145,4.998,5.573,10.485,7.185,16.339
	c0.792,2.877,1.366,5.779,1.732,8.686c0.022,0.179,0.042,0.359,0.062,0.538c0.073,0.63,0.131,1.26,0.185,1.89
	c0.031,0.374,0.067,0.747,0.091,1.123c0.008,0.113,0.01,0.225,0.017,0.338c0.075,1.28,0.113,2.566,0.107,3.859
	c0,0.036,0,0.073,0,0.109c-0.004,0.698-0.02,1.398-0.048,2.1c-0.001,0.016,0.002,0.031,0.001,0.047
	c-0.019,0.479-0.041,0.957-0.072,1.435c-0.002,0.029-0.008,0.056-0.01,0.085c-0.221,3.354-0.719,6.647-1.476,9.872
	c-0.073,0.311-0.156,0.62-0.235,0.931c-0.176,0.697-0.362,1.392-0.562,2.083c-0.124,0.424-0.254,0.847-0.387,1.269
	c-0.183,0.581-0.375,1.158-0.576,1.734c-0.16,0.458-0.322,0.916-0.494,1.371c-0.209,0.556-0.432,1.108-0.658,1.659
	c-0.181,0.442-0.36,0.885-0.552,1.325c-0.268,0.613-0.556,1.22-0.846,1.827c-0.172,0.361-0.335,0.725-0.515,1.083
	c-0.484,0.965-0.99,1.923-1.528,2.87c-2.386,4.199-5.236,8.073-8.503,11.563c-1.089,1.164-2.224,2.285-3.404,3.361
	c-2.496,2.276-3.674,5.66-3.131,8.994c0.543,3.335,2.732,6.17,5.822,7.538c1.492,0.661,2.965,1.402,4.377,2.206
	c0.684,0.388,1.354,0.793,2.014,1.21c0.363,0.23,0.715,0.474,1.071,0.713c0.284,0.191,0.574,0.375,0.854,0.571
	c0.473,0.332,0.933,0.678,1.392,1.025c0.149,0.112,0.302,0.22,0.449,0.333c0.526,0.408,1.04,0.828,1.546,1.256
	c0.07,0.059,0.144,0.116,0.214,0.175c0.548,0.468,1.085,0.948,1.61,1.439c0.024,0.022,0.049,0.043,0.072,0.066
	c2.204,2.067,4.203,4.332,5.975,6.767c0.003,0.005,0.007,0.009,0.01,0.013c0.43,0.591,0.844,1.192,1.247,1.802
	c0.02,0.031,0.041,0.062,0.062,0.093c0.382,0.582,0.75,1.174,1.106,1.773c0.04,0.068,0.081,0.135,0.121,0.203
	c0.332,0.564,0.651,1.136,0.96,1.714c0.061,0.115,0.123,0.229,0.183,0.344c0.282,0.537,0.552,1.082,0.815,1.631
	c0.08,0.167,0.159,0.335,0.237,0.503c0.234,0.505,0.459,1.016,0.676,1.53c0.095,0.224,0.187,0.45,0.279,0.676
	c0.19,0.47,0.373,0.944,0.549,1.421c0.103,0.28,0.202,0.561,0.3,0.844c0.152,0.438,0.3,0.878,0.44,1.322
	c0.183,0.58,0.366,1.16,0.528,1.75C443.952,309.638,442.329,322.667,435.955,333.885z M457.186,271.224
	c-1.07,1.884-2.303,3.664-3.678,5.32c-3.681-6.576-8.422-12.472-14.064-17.488c-0.094-0.083-0.189-0.165-0.283-0.248
	c-0.812-0.713-1.641-1.409-2.489-2.085c-0.135-0.108-0.269-0.219-0.405-0.326c-0.95-0.746-1.914-1.477-2.907-2.176
	c0.305-0.39,0.596-0.791,0.894-1.186c0.905-1.2,1.787-2.417,2.626-3.668c1.116-1.664,2.172-3.373,3.167-5.124
	c0.599-1.055,1.164-2.121,1.713-3.193c0.126-0.246,0.25-0.492,0.373-0.738c1.083-2.169,2.064-4.371,2.942-6.607
	c0.09-0.23,0.179-0.461,0.267-0.692c0.398-1.041,0.778-2.087,1.131-3.141c0.032-0.095,0.067-0.189,0.099-0.284
	c0.348-1.053,0.668-2.114,0.971-3.18c0.123-0.428,0.238-0.857,0.353-1.287c0.064-0.24,0.136-0.478,0.198-0.719
	C462.017,235.428,466.226,255.313,457.186,271.224z"/>
<path d="M305.476,177.492l-0.114-0.021c-5.424-1.044-10.665,2.508-11.708,7.932c-1.043,5.424,2.509,10.665,7.932,11.708
	c0.015,0.002,0.099,0.018,0.125,0.023c0.635,0.121,1.267,0.18,1.889,0.18c4.699,0,8.889-3.328,9.809-8.113
	C314.451,183.777,310.899,178.535,305.476,177.492z"/>
<path d="M167.807,360.588c3.479,0,6.86-1.818,8.703-5.06l0.148-0.26c2.729-4.801,1.05-10.905-3.751-13.634
	c-4.801-2.729-10.905-1.049-13.634,3.751l-0.148,0.26c-2.73,4.801-1.05,10.905,3.751,13.634
	C164.434,360.167,166.132,360.588,167.807,360.588z"/>
<g>
</g>
<g>
</g>
<g>
</g>
<g>
</g>
<g>
</g>
<g>
</g>
<g>
</g>
<g>
</g>
<g>
</g>
<g>
</g>
<g>
</g>
<g>
</g>
<g>
</g>
<g>
</g>
<g>
</g>
</svg>
