<svg height="487pt" viewBox="-69 0 487 487.302" width="487pt" xmlns="http://www.w3.org/2000/svg"><path d="m89.390625 487.300781c-4.148437.019531-7.621094-3.140625-8-7.269531l-4.632813-50.890625c-3.417968-36.429687-9.027343-72.625-16.796874-108.382813-17.074219-82.914062-22.746094-167.773437-16.859376-252.222656l.9375-13.503906c.378907-4.375 4.152344-7.660156 8.535157-7.433594 4.410156.304688 7.738281 4.125 7.433593 8.535156l-.9375 13.511719c-5.773437 82.996094-.191406 166.390625 16.601563 247.875 7.898437 36.347657 13.605469 73.140625 17.085937 110.175781l4.648438 50.878907c.402344 4.402343-2.839844 8.292969-7.238281 8.695312-.289063.023438-.535157.03125-.777344.03125zm0 0" fill="#389a6b"/><path d="m253.824219 487.300781c-2.253907.011719-4.410157-.929687-5.933594-2.59375-1.519531-1.660156-2.273437-3.886719-2.066406-6.132812l3.734375-40.96875c3.265625-38.164063 8.808594-76.097657 16.601562-113.597657 17.859375-83.53125 23.917969-169.152343 17.992188-254.363281l-.945313-13.511719c-.304687-4.410156 3.023438-8.230468 7.433594-8.535156 4.378906-.21875 8.152344 3.0625 8.542969 7.433594l.933594 13.503906c6.035156 86.699219-.121094 173.816406-18.285157 258.808594-7.644531 36.882812-13.078125 74.1875-16.273437 111.71875l-1.199219 13.183594c19.746094-21.199219 46.269531-34.847656 75-38.59375 2.886719-.480469 5.804687.652344 7.609375 2.957031 1.808594 2.300781 2.210938 5.40625 1.054688 8.09375-1.15625 2.691406-3.6875 4.53125-6.601563 4.808594-30.597656 3.996093-58.050781 20.832031-75.488281 46.292969l-5.476563 8c-1.496093 2.195312-3.980469 3.503906-6.632812 3.496093zm0 0" fill="#389a6b"/><path d="m248.175781 479.300781c-3.730469 0-6.960937-2.582031-7.792969-6.214843-5.652343-24.910157-22.195312-45.960938-45.054687-57.351563-4.015625-1.988281-5.722656-6.808594-3.847656-10.878906.875-1.898438 2.476562-3.359375 4.445312-4.058594 1.96875-.695313 4.132813-.574219 6.007813.34375 27.386718 13.496094 47.230468 38.613281 54.027344 68.378906.542968 2.371094-.027344 4.863281-1.546876 6.769531-1.515624 1.902344-3.820312 3.011719-6.253906 3.011719zm0 0" fill="#389a6b"/><path d="m189.230469 487.300781c-2.925781 0-5.621094-1.597656-7.023438-4.167969l-8.929687-16.382812c-11.914063-21.996094-32.128906-38.3125-56.140625-45.320312-2.816407-.742188-5.007813-2.957032-5.71875-5.78125-.710938-2.820313.167969-5.808594 2.292969-7.796876 2.128906-1.988281 5.167968-2.664062 7.9375-1.765624 21.695312 6.320312 40.902343 19.199218 54.984374 36.871093l-15.648437-125.183593c-12.4375-99.191407-8.765625-199.746094 10.871094-297.765626l2.664062-13.304687c.472657-2.886719 2.484375-5.28125 5.242188-6.25 2.757812-.96875 5.828125-.3554688 8 1.597656 2.175781 1.957031 3.109375 4.941407 2.4375 7.789063l-2.65625 13.269531c-19.296875 96.339844-22.90625 195.160156-10.6875 292.648437l20.320312 162.519532c.476563 3.816406-1.828125 7.429687-5.488281 8.609375-.792969.261719-1.621094.402343-2.457031.414062zm0 0" fill="#389a6b"/><path d="m189.230469 487.300781c-.78125 0-1.554688-.113281-2.304688-.335937-4.234375-1.269532-6.632812-5.734375-5.359375-9.96875l2.152344-7.140625c8.316406-27.519531 25.574219-51.480469 49.039062-68.089844 2.332032-1.742187 5.425782-2.078125 8.078126-.878906 2.652343 1.195312 4.445312 3.738281 4.683593 6.640625.234375 2.898437-1.121093 5.699218-3.542969 7.3125-20.542968 14.546875-35.644531 35.53125-42.921874 59.628906l-2.152344 7.136719c-1.015625 3.386719-4.136719 5.703125-7.671875 5.695312zm0 0" fill="#389a6b"/><path d="m86.359375 448.300781c-2.445313 0-4.757813-1.121093-6.273437-3.039062l-7.160157-9.054688c-16.78125-21.167969-40.25-36.011719-66.566406-42.105469-4.308594-.992187-6.996094-5.289062-6.003906-9.59375.992187-4.308593 5.289062-6.996093 9.59375-6.007812 29.417969 6.820312 55.710937 23.285156 74.691406 46.769531 13.835937-26.679687 35.015625-48.847656 61.039063-63.886719 2.480468-1.578124 5.625-1.667968 8.191406-.234374 2.566406 1.429687 4.140625 4.15625 4.097656 7.09375-.039062 2.9375-1.6875 5.617187-4.289062 6.980468-25.511719 14.746094-45.792969 37.078125-58.023438 63.886719l-2.082031 4.527344c-1.160157 2.53125-3.554688 4.277343-6.320313 4.609375-.296875.035156-.59375.054687-.894531.054687zm0 0" fill="#389a6b"/><g fill="#980ead"><path d="m162.3125 247.292969c-2.316406 0-4.515625-1.003907-6.035156-2.75l-33.917969-38.992188c-2.175781-2.097656-2.980469-5.238281-2.089844-8.125.894531-2.886719 3.335938-5.019531 6.316407-5.523437 2.976562-.5 5.984374.71875 7.773437 3.152344l27.640625 31.734374 23.398438-29.464843c1.773437-2.253907 4.617187-3.386719 7.453124-2.96875 2.839844.417969 5.234376 2.320312 6.285157 4.988281 1.046875 2.671875.585937 5.699219-1.210938 7.933594l-29.351562 37.023437c-1.476563 1.863281-3.703125 2.96875-6.078125 3.023438zm0 0"/><path d="m162.359375 208.300781c-2.609375 0-5.054687-1.273437-6.550781-3.414062l-28-40c-1.746094-2.339844-2.078125-5.4375-.871094-8.09375 1.207031-2.652344 3.761719-4.441407 6.667969-4.664063 2.910156-.226562 5.707031 1.152344 7.304687 3.589844l21.449219 30.632812 21.449219-30.632812c2.582031-3.46875 7.453125-4.253906 11-1.773438 3.542968 2.476563 4.472656 7.324219 2.101562 10.941407l-28 40c-1.496094 2.140625-3.941406 3.414062-6.550781 3.414062zm0 0"/><path d="m164.351562 158.34375c-2.664062-.003906-5.15625-1.332031-6.640624-3.546875l-26.398438-39.328125c-2.308594-3.660156-1.28125-8.492188 2.3125-10.902344 3.589844-2.414062 8.449219-1.53125 10.964844 1.992188l19.632812 29.261718 19.417969-29.878906c2.417969-3.710937 7.386719-4.757812 11.097656-2.339844 3.710938 2.417969 4.761719 7.390626 2.339844 11.101563l-26.015625 40c-1.464844 2.25-3.960938 3.617187-6.648438 3.640625zm0 0"/><path d="m168.230469 109.476562h-.511719c-2.710938-.171874-5.148438-1.714843-6.472656-4.085937l-18.511719-33.191406c-1.484375-2.503907-1.492187-5.613281-.023437-8.125 1.46875-2.507813 4.1875-4.023438 7.09375-3.957031 2.90625.070312 5.550781 1.710937 6.898437 4.289062l12.488281 22.398438 14.769532-19.933594c1.613281-2.515625 4.5-3.921875 7.476562-3.640625 2.976562.277343 5.550781 2.195312 6.671875 4.96875 1.117187 2.773437.597656 5.9375-1.351563 8.207031l-22.132812 29.839844c-1.503906 2.023437-3.871094 3.222656-6.394531 3.230468zm0 0"/><path d="m172.511719 70.324219c-.59375 0-1.1875-.0625-1.769531-.191407-2.886719-.652343-5.175782-2.851562-5.949219-5.710937l-10.152344-37.359375c-1.101563-4.242188 1.417969-8.582031 5.644531-9.730469 4.230469-1.148437 8.597656 1.320313 9.792969 5.539063l6.199219 22.816406 16-18.601562c1.804687-2.347657 4.757812-3.511719 7.679687-3.015626 2.917969.492188 5.328125 2.558594 6.261719 5.367188.933594 2.8125.234375 5.90625-1.8125 8.046875l-25.839844 30.015625c-1.507812 1.78125-3.722656 2.8125-6.054687 2.824219zm0 0"/><path d="m162.40625 253.964844c-1.328125 0-2.636719-.332032-3.808594-.957032-18.023437-9.746093-38.398437-20.632812-41.773437-22.167968-3.707031-1.257813-5.960938-5.015625-5.324219-8.878906.636719-3.863282 3.976562-6.699219 7.890625-6.699219 2.527344 0 2.992187 0 42.488281 21.328125l31.914063-22.191406c3.609375-2.226563 8.332031-1.246094 10.757812 2.234374 2.425781 3.480469 1.714844 8.25-1.625 10.867188l-35.949219 25c-1.339843.941406-2.933593 1.453125-4.570312 1.464844zm0 0"/><path d="m164.351562 158.34375c-1.566406-.003906-3.097656-.460938-4.410156-1.320312l-40.992187-27.042969c-3.605469-2.460938-4.570313-7.359375-2.167969-11.007813 2.402344-3.644531 7.285156-4.691406 10.96875-2.351562l37.105469 24.480468 34.847656-17.894531c3.933594-2.019531 8.757813-.46875 10.777344 3.464844 2.019531 3.929687.46875 8.753906-3.464844 10.773437l-39.007813 20c-1.128906.585938-2.382812.894532-3.65625.898438zm0 0"/><path d="m162.359375 208.300781c-1.699219.003907-3.359375-.535156-4.726563-1.542969l-42.96875-31.503906c-2.359374-1.667968-3.636718-4.480468-3.335937-7.355468.296875-2.875 2.121094-5.363282 4.773437-6.515626 2.648438-1.148437 5.714844-.78125 8.015626.96875l38.507812 28.222657 31.359375-20.464844c2.390625-1.613281 5.46875-1.816406 8.050781-.523437 2.582032 1.289062 4.269532 3.871093 4.414063 6.753906.144531 2.882812-1.273438 5.621094-3.714844 7.160156l-36 23.507812c-1.300781.847657-2.820313 1.296876-4.375 1.292969zm0 0"/><path d="m281.558594 295.246094c-.402344 0-.800782-.03125-1.199219-.097656-2.347656-.355469-4.417969-1.734376-5.648437-3.765626l-24.351563-40.441406c-1.710937-2.449218-1.917969-5.648437-.53125-8.292968 1.382813-2.648438 4.128906-4.304688 7.117187-4.292969 2.988282.011719 5.71875 1.6875 7.085938 4.347656l19.441406 32.199219 31.460938-27.953125c3.316406-2.933594 8.378906-2.625 11.3125.6875 2.933594 3.316406 2.625 8.378906-.6875 11.3125l-38.65625 34.335937c-1.480469 1.289063-3.382813 1.984375-5.34375 1.960938zm0 0"/><path d="m286.527344 256.566406c-.34375-.003906-.683594-.023437-1.023438-.066406-2.589844-.332031-4.855468-1.910156-6.066406-4.222656l-22.679688-43.238282c-1.410156-2.539062-1.332031-5.644531.203126-8.109374 1.53125-2.46875 4.28125-3.910157 7.183593-3.765626 2.902344.140626 5.496094 1.84375 6.78125 4.449219l17.359375 33.121094 25.195313-27.65625c1.910156-2.167969 4.839843-3.136719 7.667969-2.535156 2.824218.601562 5.109374 2.683593 5.96875 5.441406.859374 2.757813.167968 5.765625-1.8125 7.871094l-32.882813 36.101562c-1.511719 1.660157-3.652344 2.605469-5.894531 2.609375zm0 0"/><path d="m290.925781 206.765625c-3.070312-.003906-5.867187-1.765625-7.199219-4.535156l-20.6875-43.03125c-1.398437-2.59375-1.257812-5.746094.363282-8.203125 1.621094-2.457032 4.464844-3.828125 7.398437-3.5625 2.933594.265625 5.484375 2.121094 6.636719 4.828125l15.433594 32.113281 23.199218-26.519531c2.910157-3.328125 7.964844-3.667969 11.292969-.757813s3.664063 7.964844.753907 11.292969l-31.199219 35.640625c-1.511719 1.730469-3.691407 2.726562-5.992188 2.734375zm0 0"/><path d="m293.3125 157.804688h-.503906c-2.714844-.167969-5.15625-1.707032-6.480469-4.078126l-18.136719-32.433593c-2.160156-3.855469-.78125-8.734375 3.074219-10.890625 3.859375-2.160156 8.734375-.78125 10.894531 3.074218l12.085938 21.601563 15.199218-20.59375c1.679688-2.355469 4.5-3.625 7.378907-3.316406 2.878906.3125 5.363281 2.152343 6.5 4.816406 1.136719 2.660156.746093 5.730469-1.019531 8.023437l-22.59375 30.542969c-1.5 2.035157-3.871094 3.242188-6.398438 3.253907zm0 0"/><path d="m294.070312 118.429688c-2.691406 0-5.199218-1.351563-6.679687-3.601563l-21.832031-33.070313c-2.339844-3.6875-1.292969-8.566406 2.351562-10.96875 3.648438-2.402343 8.546875-1.4375 11.007813 2.167969l13.511719 20.503907 9.128906-21.855469c1.054687-2.699219 3.484375-4.621094 6.355468-5.019531 2.871094-.394532 5.734376.789062 7.480469 3.105468 1.75 2.3125 2.109375 5.390625.941407 8.042969l-14.832032 35.75c-1.132812 2.738281-3.683594 4.625-6.632812 4.90625-.304688.023437-.511719.039063-.800782.039063zm0 0"/><path d="m280.65625 301.855469c-1.984375 0-3.898438-.734375-5.371094-2.066407l-32.46875-29.382812c-3.277344-2.96875-3.527344-8.027344-.5625-11.304688 2.96875-3.277343 8.027344-3.527343 11.304688-.558593l28.800781 26.078125c42.023437-16.160156 42.398437-16.09375 44.894531-15.71875 3.878906.511718 6.820313 3.757812 6.949219 7.667968.128906 3.910157-2.589844 7.339844-6.429687 8.109376-3.519532 1.101562-25.160157 9.285156-44.261719 16.644531-.914063.351562-1.878907.53125-2.855469.53125zm0 0"/><path d="m290.925781 206.765625c-1.617187 0-3.195312-.492187-4.527343-1.40625l-36.136719-24.839844c-2.386719-1.609375-3.726563-4.371093-3.511719-7.242187.21875-2.867188 1.957031-5.398438 4.558594-6.628906 2.601562-1.230469 5.664062-.96875 8.019531.683593l32.277344 22.1875 39.921875-19.53125c3.976562-1.9375 8.773437-.285156 10.710937 3.691407 1.941407 3.976562.289063 8.769531-3.6875 10.710937l-44.105469 21.597656c-1.097656.523438-2.300781.789063-3.519531.777344zm0 0"/><path d="m286.527344 256.566406c-1.90625 0-3.75-.675781-5.199219-1.914062l-32.703125-27.894532c-3.363281-2.871093-3.761719-7.925781-.890625-11.289062 2.871094-3.359375 7.925781-3.757812 11.289063-.886719l28.488281 24.304688 41.792969-23.082031c2.503906-1.464844 5.609374-1.457032 8.113281.019531 2.5 1.480469 4 4.199219 3.921875 7.101562-.078125 2.90625-1.722656 5.539063-4.300782 6.878907l-46.640624 25.761718c-1.183594.660156-2.515626 1.003906-3.871094 1zm0 0"/><path d="m61.625 295.246094c-1.960938 0-3.847656-.71875-5.3125-2.015625l-38.65625-34.335938c-3.316406-2.933593-3.621094-8-.6875-11.3125s7.996094-3.621093 11.308594-.6875l31.472656 27.953125 19.410156-32.144531c1.441406-2.515625 4.132813-4.054687 7.035156-4.019531 2.898438.035156 5.554688 1.636718 6.9375 4.183594 1.382813 2.550781 1.277344 5.648437-.277343 8.097656l-24.410157 40.441406c-1.226562 2.03125-3.296874 3.414062-5.644531 3.769531-.390625.050781-.785156.074219-1.175781.070313zm0 0"/><path d="m56.695312 256.566406c-2.25 0-4.394531-.945312-5.914062-2.609375l-32.886719-36.101562c-2.976562-3.269531-2.738281-8.328125.527344-11.304688 3.269531-2.976562 8.328125-2.738281 11.304687.527344l25.183594 27.625 17.359375-33.121094c2.050781-3.914062 6.886719-5.425781 10.800781-3.375 3.914063 2.050781 5.425782 6.882813 3.375 10.800781l-22.664062 43.292969c-1.210938 2.3125-3.472656 3.890625-6.0625 4.226563-.339844.03125-.683594.042968-1.023438.039062zm0 0"/><path d="m52.285156 206.765625c-2.308594 0-4.503906-.996094-6.023437-2.734375l-31.199219-35.640625c-2.910156-3.339844-2.558594-8.40625.78125-11.316406 3.339844-2.910157 8.40625-2.558594 11.316406.78125l23.199219 26.519531 15.40625-32.074219c1.15625-2.707031 3.707031-4.5625 6.640625-4.828125 2.933594-.261718 5.773438 1.105469 7.398438 3.5625 1.621093 2.460938 1.761718 5.609375.363281 8.203125l-20.6875 43.03125c-1.167969 2.425781-3.472657 4.101563-6.136719 4.464844-.351562.03125-.703125.042969-1.058594.03125zm0 0"/><path d="m49.902344 157.804688c-2.515625 0-4.886719-1.183594-6.398438-3.199219l-22.601562-30.542969c-2.628906-3.554688-1.878906-8.5625 1.671875-11.191406 3.554687-2.628906 8.5625-1.882813 11.191406 1.671875l15.203125 20.589843 12.09375-21.597656c2.160156-3.859375 7.035156-5.234375 10.894531-3.078125 3.855469 2.160157 5.230469 7.035157 3.074219 10.894531l-18.144531 32.429688c-1.324219 2.371094-3.761719 3.90625-6.472657 4.082031zm0 0"/><path d="m49.152344 118.429688c-.257813 0-.503906 0-.800782-.039063-2.949218-.28125-5.5-2.167969-6.632812-4.90625l-14.800781-35.75c-1.691407-4.082031.246093-8.765625 4.328125-10.457031 4.082031-1.691406 8.765625.246094 10.457031 4.328125l9.0625 21.839843 13.503906-20.503906c2.464844-3.605468 7.363281-4.570312 11.007813-2.167968 3.648437 2.398437 4.695312 7.28125 2.355468 10.96875l-21.800781 33.070312c-1.476562 2.253906-3.988281 3.613281-6.679687 3.617188zm0 0"/><path d="m62.558594 301.855469c-.980469 0-1.953125-.179688-2.871094-.53125-19.105469-7.359375-40.746094-15.542969-44.257812-16.644531-3.835938-.765626-6.558594-4.195313-6.429688-8.105469.125-3.914063 3.0625-7.15625 6.941406-7.671875 2.570313-.34375 3-.402344 44.90625 15.71875l28.800782-26.078125c3.273437-2.964844 8.335937-2.714844 11.296874.5625 2.964844 3.277343 2.714844 8.335937-.5625 11.300781l-32.421874 29.382812c-1.480469 1.339844-3.40625 2.074219-5.402344 2.066407zm0 0"/><path d="m52.285156 206.765625c-1.214844.003906-2.414062-.269531-3.511718-.800781l-44.109376-21.597656c-3.976562-1.941407-5.625-6.742188-3.683593-10.71875 1.941406-3.976563 6.738281-5.625 10.714843-3.683594l39.910157 19.527344 32.28125-22.183594c2.355469-1.652344 5.417969-1.914063 8.019531-.683594 2.597656 1.226562 4.339844 3.761719 4.558594 6.628906.214844 2.871094-1.125 5.632813-3.515625 7.238282l-36.125 24.839843c-1.335938.925781-2.914063 1.425781-4.539063 1.433594zm0 0"/><path d="m56.695312 256.566406c-1.351562 0-2.683593-.34375-3.863281-1l-46.640625-25.761718c-3.707031-2.207032-4.996094-6.960938-2.910156-10.738282s6.792969-5.21875 10.636719-3.261718l41.800781 23.082031 28.480469-24.304688c3.363281-2.871093 8.414062-2.472656 11.289062.886719 2.871094 3.363281 2.472657 8.417969-.890625 11.289062l-32.703125 27.894532c-1.449219 1.238281-3.292969 1.914062-5.199219 1.914062zm0 0"/></g></svg>