<?xml version="1.0" encoding="iso-8859-1"?>
<!-- Generator: Adobe Illustrator 21.0.0, SVG Export Plug-In . SVG Version: 6.00 Build 0)  -->
<svg version="1.1" id="Capa_1" xmlns="http://www.w3.org/2000/svg" xmlns:xlink="http://www.w3.org/1999/xlink" x="0px" y="0px"
	 viewBox="0 0 512.005 512.005" style="enable-background:new 0 0 512.005 512.005;" xml:space="preserve">
<g>
	<path style="fill:#C8FA8B;" d="M273.518,99.78c11.093,63.169,24.596,196.422-6.9,388.54c-0.742,4.527-1.509,9.087-2.302,13.679
		c128.13-26.472,119.382-403.612,0-443.948C264.315,58.05,268.689,72.269,273.518,99.78z"/>
	<path style="fill:#87DD60;" d="M228.105,339.445c0-22.368,15.614-40.5,34.875-40.5c0.492,0,0.98,0.015,1.466,0.038
		c7.87,0.378,15.066,3.782,20.748,9.24c-0.797,20.759-2.146,42.731-4.164,65.88c-4.888,3.44-10.563,5.523-16.636,5.805
		c-0.47,0.022-0.941,0.036-1.415,0.036C243.719,379.945,228.105,361.812,228.105,339.445L228.105,339.445z M273.518,99.78
		c3.058,17.414,6.296,40.163,8.728,67.993c-4.918,4.868-11.014,8.176-17.723,9.269c-1.597,0.26-3.228,0.398-4.887,0.398
		c-19.261,0-34.875-18.132-34.875-40.5s15.614-40.5,34.875-40.5c1.677,0,3.325,0.14,4.939,0.406
		C267.708,97.364,270.709,98.363,273.518,99.78L273.518,99.78z M266.616,488.32c-0.757,0.118-1.521,0.208-2.292,0.27
		c-0.797,0.064-1.6,0.098-2.411,0.098c-19.261,0-34.875-18.132-34.875-40.5s15.614-40.5,34.875-40.5
		c0.828,0,1.649,0.036,2.462,0.102c4.593,0.372,8.94,1.776,12.872,4.015C274.484,436.16,270.983,461.672,266.616,488.32
		L266.616,488.32z M264.315,58.05c-119.382,40.337-128.13,417.477,0,443.948c0.793-4.592,1.56-9.152,2.302-13.679
		c14.436-88.056,19.415-163.735,19.509-225.978l-0.006,2.356c-5.198,7.534-12.815,13.129-21.664,15.547
		c-3.147,0.86-6.45,1.319-9.856,1.319c-21.436,0-38.813-18.132-38.813-40.5s17.377-40.5,38.813-40.5
		c3.424,0,6.743,0.464,9.906,1.333c8.359,2.296,15.616,7.429,20.768,14.352c0.542,13.887,0.852,28.635,0.853,44.245
		c-0.003-72.626-6.652-126.785-12.61-160.714C268.689,72.269,264.315,58.05,264.315,58.05z"/>
	<g>
		<path style="fill:#C8FA8B;" d="M285.275,216.249c-5.152-6.924-12.408-12.056-20.768-14.352c-3.162-0.869-6.482-1.333-9.906-1.333
			c-21.436,0-38.813,18.132-38.813,40.5s17.377,40.5,38.813,40.5c3.406,0,6.708-0.459,9.856-1.319
			c8.849-2.418,16.466-8.012,21.664-15.547C286.18,247.527,285.866,231.377,285.275,216.249z"/>
		<path style="fill:#C8FA8B;" d="M285.193,308.223c-5.682-5.458-12.878-8.862-20.748-9.24c-0.487-0.023-0.975-0.038-1.466-0.038
			c-19.261,0-34.875,18.132-34.875,40.5s15.614,40.5,34.875,40.5c0.474,0,0.945-0.014,1.415-0.036
			c6.073-0.281,11.748-2.364,16.636-5.805C283.047,350.954,284.395,328.982,285.193,308.223z"/>
		<path style="fill:#C8FA8B;" d="M261.913,407.688c0.828,0,1.649,0.036,2.462,0.102c4.593,0.372,8.94,1.776,12.872,4.015
			c-2.763,24.355-6.264,49.867-10.632,76.514c-0.757,0.118-1.521,0.208-2.292,0.27c-0.797,0.064-1.6,0.098-2.411,0.098
			c-19.261,0-34.875-18.132-34.875-40.5C227.039,425.82,242.653,407.688,261.913,407.688z"/>
		<path style="fill:#C8FA8B;" d="M259.635,96.441c1.677,0,3.325,0.14,4.939,0.406c3.134,0.517,6.135,1.516,8.944,2.933
			c3.058,17.414,6.296,40.163,8.728,67.993c-4.918,4.868-11.014,8.176-17.723,9.269c-1.597,0.26-3.228,0.398-4.887,0.398
			c-19.261,0-34.875-18.132-34.875-40.5C224.761,114.573,240.376,96.441,259.635,96.441z"/>
	</g>
</g>
<path d="M327.655,10.441c0.084,5.468,4.542,9.797,9.993,9.797c0.05,0,0.1,0,0.15-0.001c5.519-0.08,9.928-4.665,9.853-10.184
	l-0.004-0.257c-0.113-5.522-4.694-9.918-10.203-9.793c-5.521,0.113-9.906,4.681-9.792,10.203l0.001,0.122
	C327.653,10.334,327.654,10.435,327.655,10.441z"/>
<path d="M318.414,130.344c0.084,5.468,4.543,9.797,9.993,9.797c0.05,0,0.1-0.001,0.15-0.001c5.519-0.081,9.928-4.665,9.853-10.184
	l-0.004-0.257c-0.113-5.521-4.694-9.917-10.203-9.792c-5.521,0.113-9.906,4.681-9.792,10.203l0.001,0.122
	C318.413,130.237,318.414,130.338,318.414,130.344z"/>
<path d="M193.831,395.469c-0.005-0.021-0.021-0.083-0.027-0.104c-1.415-5.325-6.865-8.482-12.196-7.085
	c-5.33,1.398-8.52,6.864-7.14,12.198c0.009,0.034,0.031,0.119,0.04,0.153c1.205,4.464,5.252,7.42,9.667,7.42
	c0.858,0,1.731-0.112,2.599-0.346C192.107,406.266,195.27,400.802,193.831,395.469z"/>
<polygon points="328.41,130.023 331.704,128.621 337.602,126.084 "/>
<path d="M352.293,169.48c-1.417-5.364-2.948-10.671-4.55-15.773c-1.654-5.27-7.268-8.2-12.537-6.545
	c-5.27,1.654-8.2,7.267-6.545,12.536c1.511,4.811,2.956,9.821,4.295,14.89c12.02,45.518,16.642,98.856,13.016,150.192
	c-3.727,52.765-16.011,98.345-34.589,128.347c-9.991,16.134-21.532,27.492-34.437,33.957c0.311-1.92,0.618-3.835,0.92-5.742
	c0.135-0.855,0.269-1.71,0.403-2.566c0.32-2.044,0.635-4.081,0.945-6.112c0.147-0.964,0.296-1.928,0.442-2.891
	c0.36-2.386,0.712-4.762,1.057-7.129c0.261-1.782,0.516-3.562,0.77-5.342c0.081-0.569,0.162-1.138,0.242-1.706
	c2.032-14.332,3.862-28.596,5.458-42.664c0.015-0.134,0.006-0.266,0.016-0.4c1.419-12.591,2.64-24.855,3.681-36.783
	c0.043-0.258,0.088-0.516,0.111-0.779c1.951-22.392,3.362-44.72,4.194-66.365c0.014-0.367,0.006-0.733-0.02-1.095
	c0.55-14.617,0.831-28.55,0.895-41.779c0.035-0.332,0.059-0.665,0.06-1c0.057-16.463-0.23-32.906-0.854-48.874
	c-0.006-0.147-0.022-0.292-0.034-0.438c-0.608-15.743-1.503-30.047-2.543-42.839c-3.569-43.881-9.151-75.787-13.314-95.197
	c8.896,6.724,17.218,16.048,24.871,27.929c2.991,4.643,9.18,5.982,13.822,2.992c4.643-2.991,5.982-9.179,2.992-13.822
	c-8.009-12.434-16.808-22.581-26.31-30.426c15.453-3.92,31.724-11.177,42.168-23.702c3.537-4.242,2.965-10.548-1.276-14.084
	c-4.242-3.537-10.547-2.965-14.084,1.276c-11.21,13.444-37.23,20.485-57.172,20.502c-0.03,0-0.06,0-0.09,0.001
	c-44.775-0.006-83.134-20.614-83.134-37.486c0-5.523-4.477-10-10-10c-5.523,0-10,4.477-10,10c0,19.635,17.395,35.587,41.59,45.662
	c8.879,13.746,6.811,31.674-5.295,42.695c-3.653,3.326-8.46,4.978-13.538,4.642c-5.216-0.342-10.08-2.717-13.697-6.69
	c-3.616-3.972-5.526-9.036-5.378-14.261c0.144-5.085,2.235-9.718,5.889-13.044c1.785-1.625,4.726-1.316,6.554,0.691
	c1.828,2.008,1.862,4.964,0.076,6.59c-4.085,3.718-4.381,10.043-0.664,14.127c3.718,4.085,10.044,4.382,14.126,0.664
	c9.941-9.049,10.502-24.68,1.25-34.844c-9.253-10.162-24.867-11.066-34.807-2.016c-7.708,7.018-12.118,16.701-12.418,27.267
	c-0.295,10.426,3.462,20.474,10.581,28.292c7.119,7.819,16.771,12.501,27.179,13.183c0.878,0.058,1.753,0.086,2.624,0.086
	c2.445,0,4.853-0.228,7.203-0.671c-6.248,14.048-11.705,29.793-16.253,47.125c-15.123,57.641-18.807,128.63-9.852,189.896
	c0.551,3.774,1.161,7.573,1.81,11.293c0.849,4.858,5.071,8.28,9.839,8.28c0.571,0,1.15-0.049,1.732-0.15
	c5.441-0.951,9.081-6.131,8.13-11.572c-0.618-3.537-1.198-7.152-1.722-10.743c-8.586-58.744-5.069-126.753,9.407-181.928
	c13.782-52.526,35.591-88.576,62.086-103.204c0.921,3.85,2.013,8.7,3.201,14.535c-0.395-0.012-0.789-0.024-1.183-0.024
	c-24.744,0-44.875,22.654-44.875,50.5s20.131,50.5,44.875,50.5c2.159,0,4.345-0.178,6.496-0.528
	c2.539-0.414,5.023-1.073,7.435-1.955c0.223,3.206,0.437,6.492,0.638,9.865c-2.279-1.038-4.633-1.904-7.046-2.567
	c-4.082-1.122-8.307-1.691-12.556-1.691c-26.916,0-48.813,22.654-48.813,50.5c0,26.045,19.158,47.545,43.661,50.217
	c-8.514,3.004-16.099,8.821-21.779,16.959c-6.259,8.968-9.567,19.759-9.567,31.207c0,27.846,20.131,50.5,44.875,50.5
	c0.631,0,1.257-0.018,1.877-0.047c1.57-0.073,3.128-0.263,4.675-0.518c-0.289,2.944-0.588,5.904-0.899,8.888
	c-1.14-0.192-2.288-0.35-3.449-0.444c-1.103-0.089-2.203-0.135-3.27-0.135c-24.744,0-44.875,22.654-44.875,50.5
	c0,1.647,0.076,3.274,0.213,4.881c-5.321-8.58-9.616-17.558-13.004-25.884c-2.082-5.116-7.917-7.573-13.032-5.494
	c-5.116,2.082-7.575,7.916-5.494,13.032c17.802,43.748,44.279,70.397,76.568,77.069c0.053,0.011,0.108,0.015,0.161,0.025
	c0.055,0.01,0.106,0.027,0.161,0.036c0.153,0.026,0.306,0.04,0.458,0.059c0.1,0.013,0.2,0.029,0.301,0.039
	c0.32,0.031,0.638,0.049,0.954,0.049c0.329,0,0.655-0.02,0.978-0.052c0.047-0.005,0.094-0.014,0.141-0.019
	c0.273-0.031,0.544-0.072,0.811-0.125c0.027-0.005,0.055-0.007,0.082-0.013c24.531-5.068,45.407-21.264,62.048-48.136
	c20.254-32.708,33.585-81.528,37.536-137.468C369.699,272.719,364.859,217.067,352.293,169.48z M275.679,291.016
	c-2.243-0.744-4.54-1.294-6.867-1.638c2.399-0.755,4.728-1.704,6.973-2.826C275.753,288.032,275.717,289.521,275.679,291.016z
	 M232.802,65.063c-1.621,1.383-3.225,2.819-4.802,4.336c-0.181-1.841-0.469-3.677-0.843-5.502
	C229.023,64.318,230.907,64.704,232.802,65.063z M262.915,167.172c-1.091,0.178-2.194,0.268-3.28,0.268
	c-13.716,0-24.875-13.682-24.875-30.5s11.159-30.5,24.875-30.5c1.099,0,2.213,0.092,3.313,0.273
	c0.558,0.092,1.113,0.208,1.664,0.346c0.076,0.457,0.152,0.91,0.228,1.374c0.198,1.201,0.392,2.41,0.585,3.623
	c0.162,1.021,0.324,2.052,0.486,3.102c0.197,1.277,0.391,2.561,0.583,3.85c0.143,0.961,0.286,1.934,0.428,2.919
	c0.21,1.453,0.417,2.912,0.62,4.38c0.086,0.623,0.173,1.245,0.259,1.877c0.258,1.899,0.511,3.809,0.758,5.731
	c0.052,0.402,0.103,0.809,0.154,1.214c0.258,2.032,0.51,4.074,0.755,6.131c0.019,0.158,0.038,0.314,0.057,0.472
	c0.842,7.113,1.608,14.373,2.296,21.764C269.068,165.409,266.048,166.662,262.915,167.172z M225.79,241.064
	c0-16.818,12.925-30.5,28.813-30.5c2.458,0,4.899,0.329,7.257,0.976c5.127,1.409,9.842,4.357,13.53,8.415
	c0.453,12.869,0.707,26.691,0.689,41.431c-3.79,4.48-8.76,7.711-14.255,9.212c-2.345,0.641-4.774,0.965-7.221,0.965
	C238.715,271.563,225.79,257.882,225.79,241.064z M263.926,369.919c-0.315,0.015-0.63,0.025-0.947,0.025
	c-13.716,0-24.875-13.682-24.875-30.5c0-7.229,2.12-14.246,5.968-19.76c4.764-6.826,11.655-10.74,18.907-10.74
	c0.331,0,0.658,0.011,0.986,0.027c3.884,0.187,7.618,1.476,10.981,3.764c-0.739,17.503-1.87,35.972-3.483,55.372
	C269.059,369.19,266.538,369.798,263.926,369.919z M261.913,417.688c0.53,0,1.086,0.023,1.654,0.069
	c0.959,0.078,1.909,0.224,2.846,0.436c-0.389,3.293-0.788,6.602-1.204,9.939c-0.001,0.005-0.001,0.009-0.002,0.014
	c-0.384,3.074-0.784,6.172-1.192,9.283c-0.349,2.655-0.702,5.311-1.066,7.974c-0.231,1.694-0.467,3.395-0.706,5.1
	c-0.534,3.805-1.078,7.614-1.642,11.428c-0.125,0.846-0.251,1.694-0.378,2.543c-0.65,4.349-1.316,8.7-2.004,13.052
	c-0.042,0.268-0.084,0.534-0.126,0.802c-11.909-2.26-21.056-14.916-21.056-30.141C237.039,431.37,248.198,417.688,261.913,417.688z"
	/>
<g>
</g>
<g>
</g>
<g>
</g>
<g>
</g>
<g>
</g>
<g>
</g>
<g>
</g>
<g>
</g>
<g>
</g>
<g>
</g>
<g>
</g>
<g>
</g>
<g>
</g>
<g>
</g>
<g>
</g>
</svg>
