<svg height="488pt" viewBox="-23 0 488 488" width="488pt" xmlns="http://www.w3.org/2000/svg"><g fill="#d2d2d2"><path d="m287.3125 271.902344 8.351562-21.597656c8.589844-22.230469 25.574219-40.199219 47.289063-50.023438 3.9375-1.785156 8.585937-.683594 11.300781 2.683594 2.714844 3.363281 2.8125 8.140625.234375 11.609375l-8.207031 11.027343c-6.054688 8.207032-13.453125 15.339844-21.882812 21.085938zm0 0"/><path d="m284.863281 277.183594 18.585938-13.871094c19.097656-14.253906 43.035156-20.425781 66.648437-17.183594 4.28125.582032 7.628906 3.988282 8.140625 8.28125.507813 4.292969-1.945312 8.386719-5.972656 9.957032l-12.859375 5.023437c-9.5 3.710937-19.558594 5.796875-29.75 6.167969zm0 0"/><path d="m284.304688 274.632812-5.503907-22.527343c-5.695312-23.152344-2.054687-47.617188 10.136719-68.105469 2.207031-3.714844 6.648438-5.46875 10.800781-4.265625 4.148438 1.207031 6.960938 5.066406 6.835938 9.386719l-.382813 13.800781c-.285156 10.195313-2.289062 20.269531-5.925781 29.796875zm0 0"/><path d="m277.238281 274.128906-14.644531-17.984375c-15.054688-18.480469-22.238281-42.136719-20-65.863281.402344-4.300781 3.664062-7.785156 7.925781-8.476562 4.265625-.691407 8.457031 1.585937 10.199219 5.539062l5.601562 12.632812c4.113282 9.332032 6.621094 19.292969 7.421876 29.464844zm0 0"/><path d="m160.9375 198.839844-12.417969-19.582032c-12.765625-20.128906-17.101562-44.472656-12.070312-67.769531.90625-4.222656 4.546875-7.296875 8.863281-7.488281 4.3125-.1875 8.207031 2.5625 9.480469 6.6875l4 13.191406c2.980469 9.757813 4.296875 19.945313 3.894531 30.136719zm0 0"/><path d="m163.71875 203.953125-.117188-23.152344c-.097656-23.835937 9.183594-46.75 25.839844-63.800781 3.015625-3.089844 7.742188-3.75 11.492188-1.605469 3.75 2.140625 5.578125 6.546875 4.449218 10.71875l-3.605468 13.320313c-2.667969 9.84375-6.976563 19.167968-12.746094 27.582031zm0 0"/><path d="m161.335938 202.878906-21.390626-8.957031c-21.984374-9.203125-39.46875-26.683594-48.671874-48.664063-1.664063-3.988281-.429688-8.59375 3.007812-11.214843 3.433594-2.617188 8.203125-2.585938 11.605469.078125l10.855469 8.519531c8.035156 6.292969 14.949218 13.894531 20.457031 22.488281zm0 0"/><path d="m156.726562 208.257812-23.199218 1.070313c-23.792969 1.09375-47.066406-7.207031-64.800782-23.113281-3.21875-2.882813-4.082031-7.582032-2.097656-11.421875 1.984375-3.839844 6.316406-5.855469 10.53125-4.898438l13.457032 3.042969c9.949218 2.246094 19.453124 6.160156 28.101562 11.566406zm0 0"/></g><path d="m302.425781 311.199219c-9.351562-4.648438-19.6875-6.96875-30.128906-6.765625l-3.617187.085937c-2.363282.113281-4.640626-.882812-6.167969-2.6875l-23.710938-26.808593 12-10.617188 21.277344 24c12.996094-.269531 25.859375 2.609375 37.496094 8.394531zm0 0" fill="#389a6b"/><path d="m126.441406 247.808594-8.882812-13.3125c15.757812-10.5 34.96875-14.488282 53.601562-11.136719 3.359375-13.804687 13.582032-24.90625 27.0625-29.390625l1.25-.417969 5.039063 15.203125-1.230469.40625c-10.335938 3.4375-17.300781 13.109375-17.289062 24 0 2.460938-1.136719 4.785156-3.074219 6.300782-1.941407 1.515624-4.472657 2.054687-6.863281 1.460937l-4-1.011719c-15.636719-3.898437-32.195313-1.035156-45.613282 7.898438zm0 0" fill="#389a6b"/><path d="m170 301.070312-60.023438-37.070312 6.917969 26.710938-45.878906-7.855469-36.457031 11.632812 26.402344 17.28125-36.449219 11.628907-24.511719 23.890624 31.425781 2.824219-14.761719 19.167969-.625 48.390625 27.015626-31.113281 29.226562-14.144532-10.050781 28.914063 29.21875-14.144531 27.023437-31.113282 9.429688 19.480469 24.503906-23.886719zm0 0" fill="#58af7a"/><path d="m262.769531 352.824219 61.429688-40.824219-6.304688 28.152344 47.671875-9.800782 38.488282 10.886719-26.984376 18.96875 38.488282 10.890625 26.441406 24.101563-32.734375 4.046875 16.09375 19.515625 2.328125 50.542969-29.3125-31.570313-31.023438-13.757813 11.503907 29.855469-31.023438-13.769531-29.3125-31.566406-9.175781 20.6875-26.441406-24.113282zm0 0" fill="#58af7a"/><path d="m226 464h-16v-71.503906c-.054688-37.007813-19.886719-71.160156-52-89.550782l7.9375-13.890624c37.097656 21.238281 60.003906 60.695312 60.0625 103.441406zm0 0" fill="#389a6b"/><path d="m226 488h-16v-62.238281c.011719-49.503907 17.722656-97.375 49.929688-134.96875l12.140624 10.398437c-29.726562 34.695313-46.066406 78.878906-46.070312 124.570313zm0 0" fill="#389a6b"/><path d="m226 480h-16v-256l16.039062-160.800781 15.921876 1.601562-16 160zm0 0" fill="#389a6b"/><path d="m234 64 9.824219-1.398438c27.980469-4 55.632812 9.160157 70.175781 33.398438h-18.894531c-18.636719 0-36.503907-7.398438-49.679688-20.574219zm0 0" fill="#d2d2d2"/><path d="m231.425781 65.015625-7.882812-6.03125c-22.441407-17.183594-52.992188-19.25-77.542969-5.242187l16.480469 9.257812c16.242187 9.132812 35.449219 11.433594 53.390625 6.398438zm0 0" fill="#d2d2d2"/><path d="m226 8-5.601562 9.320312c-4.746094 7.914063-5.980469 17.449219-3.398438 26.3125 2.582031 8.859376 8.742188 16.242188 17 20.367188 17.671875-13.253906 21.253906-38.328125 8-56l-8-8zm0 0" fill="#d2d2d2"/><path d="m218 488c-4.417969 0-8-3.582031-8-8v-124.113281c.089844-42.433594-13.386719-83.789063-38.464844-118.023438l12.929688-9.429687c27.078125 36.96875 41.632812 81.628906 41.535156 127.453125v20.914062c9.167969-13.625 21.71875-24.636719 36.425781-31.953125.808594-.410156 1.683594-.679687 2.582031-.800781l2-.246094c41.359376-5.277343 82.539063 10.976563 109.144532 43.078125l-12.304688 10.242188c-23.128906-27.886719-58.914062-42.007813-94.855468-37.433594l-.609376.082031c-26.117187 13.503907-42.480468 40.492188-42.382812 69.894531v50.335938c0 4.417969-3.582031 8-8 8zm0 0" fill="#389a6b"/><path d="m64.246094 349-12.492188-10c21.683594-27.238281 54.628906-43.074219 89.445313-43h28.800781v16h-28.800781c-29.953125-.0625-58.292969 13.566406-76.953125 37zm0 0" fill="#389a6b"/></svg>