<?xml version="1.0" encoding="iso-8859-1"?>
<!-- Generator: Adobe Illustrator 21.0.0, SVG Export Plug-In . SVG Version: 6.00 Build 0)  -->
<svg version="1.1" id="Capa_1" xmlns="http://www.w3.org/2000/svg" xmlns:xlink="http://www.w3.org/1999/xlink" x="0px" y="0px"
	 viewBox="0 0 512 512" style="enable-background:new 0 0 512 512;" xml:space="preserve">
<g>
	<g>
		<path style="fill:#87DD60;" d="M206.262,83.539c19.841,7.668,34.512,21.871,39.028,38.846c-8.806,1.302-16.923,4.238-23.874,8.412
			l-0.002,0.001c-8.093-5.042-17.624-8.817-28.06-10.921c0.197-0.719,0.4-1.445,0.611-2.177
			C197.119,106.698,201.682,94.396,206.262,83.539z"/>
		<path style="fill:#87DD60;" d="M158.468,119.229c2.055-12.956,7.298-27.849,13.471-41.819
			c-35.597,0.175-65.25,19.235-72.252,44.568c10.073,1.004,19.35,4.131,27.157,8.819
			C135.849,125.186,146.636,121.145,158.468,119.229z"/>
	</g>
	<path style="fill:#DC48B2;" d="M243.379,354.176c1.214-50.499,31.374-93.827,74.523-114.026
		c-6.843-12.39-15.239-23.801-24.927-33.967c-10.102,6.983-23.129,11.188-37.35,11.188c-9.657,0-18.761-1.941-26.771-5.371
		c-13.583,11.15-33.072,18.137-54.724,18.137c-21.651,0-41.14-6.987-54.72-18.139c-8.014,3.431-17.118,5.372-26.775,5.372
		c-14.22,0-27.249-4.205-37.348-11.191C27.228,235.628,10,275.489,10,319.376c0,90.646,73.484,164.13,164.13,164.13
		c39.658,0,76.031-14.066,104.403-37.481c-21.819-23.154-35.192-54.356-35.192-88.681
		C243.341,356.285,243.354,355.229,243.379,354.176z"/>
	<path style="fill:#00C56E;" d="M206.262,83.539c5.04-11.951,10.102-22.151,13.331-26.942
		c18.943-28.101-11.055-39.863-22.631-24.349c-6.122,8.205-16.466,25.797-25.023,45.162c-6.174,13.97-11.416,28.863-13.471,41.819
		c0,0.002,0,0.003,0,0.003c2.764-0.45,5.585-0.782,8.453-0.988c0.334-0.026,0.668-0.049,1.003-0.068
		c0.135-0.01,0.27-0.018,0.405-0.024c0.383-0.024,0.766-0.044,1.151-0.061c0.087-0.005,0.174-0.009,0.261-0.012
		c0.431-0.02,0.863-0.036,1.297-0.049c0.044-0.002,0.087-0.003,0.131-0.004c0.475-0.015,0.952-0.025,1.43-0.032
		c0.011,0,0.021-0.001,0.032-0.001c0.499-0.007,0.999-0.011,1.5-0.011c0.972,0,1.939,0.014,2.902,0.043
		c0.444,0.013,0.888,0.029,1.33,0.048c0.54,0.023,1.079,0.05,1.616,0.082c0.353,0.02,0.705,0.042,1.056,0.068
		c0.159,0.01,0.318,0.021,0.476,0.035c0.284,0.02,0.568,0.042,0.851,0.067c0.195,0.015,0.39,0.032,0.584,0.051
		c0.246,0.02,0.492,0.043,0.737,0.069c3.297,0.317,6.526,0.799,9.673,1.433l0.61-2.175
		C197.119,106.698,201.682,94.396,206.262,83.539z"/>
	<path style="fill:#87DD60;" d="M242.539,152.118L242.539,152.118L242.539,152.118z M183.667,118.442l-9.537-0.46l-7.209,0.262
		c-2.869,0.207-5.689,0.538-8.453,0.988c-25.383,4.11-45.952,18.001-54.444,36.191l-0.003-0.006
		c-2.723,5.832-4.205,12.106-4.205,18.641c0,14.633,7.43,27.954,19.594,37.939c13.58,11.152,33.069,18.139,54.72,18.139
		c21.652,0,41.137-6.989,54.724-18.137c12.164-9.985,19.59-23.308,19.59-37.941c0-7.786-2.103-15.202-5.905-21.941
		c-4.701-8.334-11.996-15.635-21.123-21.322c-6.813-4.243-14.644-7.589-23.177-9.797c-4.646-1.193-9.434-2.033-14.326-2.534
		c-0.077-0.007-0.154-0.015-0.231-0.023C183.677,118.443,183.672,118.443,183.667,118.442z"/>
	<g>
		<path style="fill:#00C56E;" d="M104.021,155.418c4.534-9.71,12.51-18.196,22.824-24.622c-7.807-4.688-17.084-7.814-27.157-8.819
			c-2.312-0.23-4.665-0.349-7.052-0.349c-32.104,0-58.129,21.433-58.129,47.871c0,14.727,8.076,27.902,20.781,36.68
			c10.1,6.986,23.128,11.191,37.348,11.191c9.657,0,18.761-1.941,26.775-5.372c-12.165-9.985-19.594-23.306-19.594-37.939
			C99.816,167.524,101.297,161.25,104.021,155.418z"/>
		<path style="fill:#00C56E;" d="M242.54,152.118c3.801,6.739,5.904,14.155,5.904,21.941c0,14.632-7.426,27.956-19.594,37.939
			c8.014,3.431,17.119,5.372,26.775,5.372c14.221,0,27.248-4.205,37.348-11.191c12.705-8.779,20.781-21.953,20.781-36.68
			c0-26.439-26.025-47.871-58.129-47.871c-3.528,0-6.982,0.259-10.336,0.755c-8.806,1.302-16.923,4.238-23.874,8.412
			C230.543,136.483,237.839,143.784,242.54,152.118z"/>
	</g>
	<path style="fill:#DC48B2;" d="M243.341,357.345c0,34.325,13.372,65.527,35.192,88.681c0.002-0.001,0.004-0.003,0.005-0.005
		C256.719,422.868,243.341,391.67,243.341,357.345L243.341,357.345z M372.671,228.015c71.427,0,129.33,57.903,129.33,129.33
		c0,31.493-11.455,61.386-31.461,84.549c-4.329,5.006-9.035,9.677-14.075,13.968c-21.016,17.892-47.827,29.179-77.226,30.647
		c-2.175,0.112-4.365,0.167-6.568,0.167c-37.101,0-70.554-15.623-94.138-40.649c-21.819-23.154-35.192-54.356-35.192-88.681
		c0-1.059,0.013-2.116,0.038-3.169c1.214-50.498,31.379-93.818,74.528-114.017c-0.002-0.003-0.003-0.006-0.005-0.009
		C334.534,232.365,353.094,228.015,372.671,228.015L372.671,228.015z M372.671,298.595c10.252-55.205,95.011-21.449,50.321,29.697
		l0.558-0.322c52.934-18.724,66.081,71.557-0.558,58.428l0.558,0.322c42.683,36.48-28.93,93.006-50.879,28.731v0.644
		c-10.252,55.205-95.011,21.449-50.321-29.697l-0.558,0.322c-52.935,18.724-66.081-71.557,0.558-58.428l-0.558-0.322
		c-42.683-36.48,28.93-93.006,50.879-28.731L372.671,298.595L372.671,298.595z"/>
	<g>
		<path style="fill:#F3F3C2;" d="M372.671,299.239c-21.949-64.276-93.562-7.75-50.879,28.731l0.558,0.322l50.321,29.053
			L372.671,299.239L372.671,299.239z"/>
		<path style="fill:#F3F3C2;" d="M372.671,298.595v0.644v58.106l50.321-29.053C467.681,277.146,382.922,243.39,372.671,298.595z"/>
		<path style="fill:#F3F3C2;" d="M422.992,328.292l-50.321,29.053l50.321,29.053c66.639,13.129,53.493-77.152,0.558-58.428
			L422.992,328.292z"/>
		<path style="fill:#F3F3C2;" d="M422.992,386.398l-50.321-29.053v58.106c21.949,64.276,93.562,7.75,50.879-28.731L422.992,386.398z
			"/>
		<path style="fill:#F3F3C2;" d="M372.67,415.451v-58.106l-50.321,29.053c-44.69,51.147,40.07,84.902,50.321,29.697L372.67,415.451z
			"/>
		<path style="fill:#F3F3C2;" d="M322.349,386.398l50.321-29.053l-50.321-29.053c-66.639-13.129-53.492,77.152-0.558,58.428
			L322.349,386.398z"/>
	</g>
</g>
<path d="M99.508,402.329c-23.485-21.127-36.955-51.362-36.955-82.952c0-20.979,5.887-41.463,17.025-59.24
	c2.932-4.68,1.515-10.852-3.165-13.784c-4.681-2.933-10.853-1.514-13.784,3.165c-13.134,20.963-20.076,45.12-20.076,69.859
	c0,37.252,15.884,72.907,43.58,97.821c1.911,1.719,4.301,2.565,6.685,2.565c2.736,0,5.463-1.117,7.438-3.312
	C103.948,412.346,103.614,406.023,99.508,402.329z"/>
<path d="M119.801,416.833c-4.802-2.726-10.906-1.048-13.635,3.755c-2.729,4.802-1.048,10.906,3.754,13.635
	c0.051,0.028,0.167,0.093,0.218,0.121c1.526,0.833,3.179,1.228,4.81,1.228c3.547,0,6.989-1.874,8.801-5.195
	C126.393,425.529,124.649,419.478,119.801,416.833z"/>
<path d="M378.732,476.52c-2.013,0.102-4.052,0.154-6.061,0.154c-65.799,0-119.33-53.531-119.33-119.33
	c0-47.232,27.276-88.564,68.135-107.849c0.429-0.164,0.852-0.354,1.266-0.583c0.018-0.01,0.034-0.022,0.052-0.032
	c9.427-4.309,19.557-7.455,30.23-9.237c5.447-0.91,9.126-6.063,8.217-11.51c-0.909-5.447-6.055-9.122-11.51-8.217
	c-9.512,1.588-18.775,4.161-27.658,7.627c-4.435-7.13-9.374-13.944-14.794-20.37c10.257-10.132,16.478-23.293,16.478-37.673
	c0-31.91-30.563-57.871-68.13-57.871c-1.178,0-2.351,0.035-3.52,0.085c-5.979-13.625-17.402-25.216-32.709-33.196
	c3.385-7.407,6.461-13.324,8.488-16.332c13.662-20.267,7.357-35.371-2.192-42.146c-11.574-8.212-28.058-5.417-36.745,6.228
	c-5.82,7.799-15.194,23.469-23.55,41.376c-33.531,2.13-61.754,19.346-72.596,43.989c-0.056,0-0.111-0.003-0.167-0.003
	c-37.566,0-68.129,25.961-68.129,57.871c0,14.38,6.221,27.541,16.478,37.673C14.487,238.552,0,277.995,0,319.376
	c0,96.016,78.114,174.13,174.13,174.13c37.344,0,73.809-12.101,103.667-34.226c24.894,23.185,58.253,37.393,94.874,37.393
	c2.346,0,4.726-0.06,7.073-0.179c5.516-0.279,9.761-4.977,9.481-10.493C388.946,480.485,384.235,476.24,378.732,476.52z
	 M303.755,169.5c0,11.128-6.133,21.149-15.878,28.084c-0.374,0.222-0.738,0.466-1.087,0.741c-8.404,5.634-19.285,9.045-31.165,9.045
	c-2.74,0-5.473-0.187-8.162-0.554c6.143-8.463,9.819-17.934,10.743-27.816c0.006-0.062,0.013-0.124,0.019-0.187
	c0.06-0.668,0.106-1.339,0.14-2.01c0.007-0.135,0.019-0.269,0.025-0.404c0.034-0.778,0.055-1.558,0.055-2.34
	c0-1.04-0.038-2.075-0.098-3.106c-0.022-0.383-0.06-0.762-0.09-1.144c-0.051-0.633-0.106-1.265-0.18-1.895
	c-0.055-0.481-0.121-0.96-0.189-1.439c-0.073-0.504-0.153-1.006-0.239-1.507c-0.095-0.551-0.193-1.101-0.305-1.649
	c-0.076-0.37-0.164-0.737-0.247-1.105c-0.739-3.26-1.782-6.45-3.121-9.553c-0.05-0.116-0.099-0.233-0.15-0.349
	c-0.337-0.768-0.693-1.53-1.066-2.286c-0.053-0.107-0.108-0.214-0.161-0.321c-1.543-3.078-3.382-6.057-5.508-8.92
	c-0.204-0.276-0.404-0.553-0.614-0.826c-0.345-0.449-0.699-0.894-1.058-1.336c-0.135-0.168-0.269-0.338-0.406-0.505
	c-0.171-0.208-0.347-0.413-0.522-0.619c-0.213-0.253-0.422-0.509-0.639-0.759c-0.078-0.09-0.156-0.179-0.235-0.269
	c-0.223-0.255-0.453-0.506-0.68-0.758c-0.031-0.035-0.062-0.069-0.093-0.104c-0.655-0.723-1.32-1.438-2.01-2.138
	c1.932-0.497,3.901-0.895,5.891-1.19c2.908-0.43,5.883-0.653,8.902-0.653C282.164,131.629,303.755,148.618,303.755,169.5z
	 M238.385,175.915c-0.013,0.226-0.033,0.452-0.051,0.678c-0.03,0.379-0.066,0.757-0.109,1.134c-0.033,0.292-0.069,0.583-0.11,0.873
	c-0.039,0.276-0.086,0.55-0.132,0.825c-2.569,15.182-15.868,28.9-35.349,35.892c-8.911,3.198-18.501,4.82-28.503,4.82
	c-18.787,0-35.716-5.803-47.485-15.036c-0.279-0.292-0.573-0.573-0.89-0.833c-8.334-6.84-13.63-15.186-15.336-23.986
	c-0.013-0.068-0.024-0.137-0.037-0.205c-0.109-0.583-0.203-1.168-0.281-1.755c-0.036-0.281-0.061-0.565-0.09-0.848
	c-0.043-0.41-0.09-0.82-0.118-1.231c-0.047-0.724-0.077-1.452-0.077-2.184c0-0.825,0.032-1.647,0.094-2.466
	c0.003-0.041,0.01-0.081,0.013-0.122c0.39-4.881,1.877-9.652,4.357-14.148c0.019-0.033,0.036-0.067,0.055-0.1
	c0.401-0.722,0.829-1.437,1.281-2.144c0.037-0.058,0.075-0.115,0.113-0.173c0.895-1.385,1.888-2.738,2.973-4.056
	c0.085-0.104,0.17-0.208,0.257-0.311c0.519-0.62,1.058-1.233,1.619-1.836c0.094-0.101,0.19-0.2,0.285-0.3
	c0.543-0.575,1.102-1.143,1.682-1.702c0.054-0.052,0.105-0.105,0.16-0.157c0.602-0.575,1.23-1.139,1.871-1.695
	c0.141-0.122,0.282-0.245,0.424-0.367c0.631-0.537,1.279-1.065,1.946-1.583c0.143-0.111,0.288-0.219,0.433-0.329
	c0.664-0.506,1.342-1.005,2.04-1.492c0.071-0.049,0.14-0.099,0.211-0.148c0.701-0.485,1.425-0.956,2.16-1.42
	c7.957-5.024,17.602-8.659,28.151-10.384c0.025-0.004,0.051-0.008,0.076-0.013l0.049-0.008c3.786-0.613,7.651-0.968,11.528-1.077
	c0.233-0.007,0.468-0.008,0.702-0.013c1.025-0.021,2.051-0.025,3.076-0.011c0.272,0.004,0.543,0.009,0.813,0.015
	c1.077,0.025,2.152,0.067,3.226,0.131c0.158,0.009,0.316,0.016,0.474,0.026c3.889,0.25,7.743,0.751,11.494,1.507l0.189,0.038
	c9.329,1.903,17.883,5.329,25.058,9.89c0.235,0.149,0.461,0.304,0.692,0.455c0.884,0.578,1.745,1.174,2.584,1.786
	c0.255,0.186,0.514,0.37,0.765,0.559c0.42,0.317,0.83,0.641,1.237,0.966c0.277,0.221,0.551,0.444,0.822,0.669
	c0.385,0.319,0.767,0.639,1.14,0.965c0.298,0.261,0.585,0.527,0.875,0.793c0.308,0.282,0.623,0.561,0.922,0.848
	c0.1,0.096,0.195,0.195,0.294,0.291c0.429,0.419,0.847,0.842,1.255,1.27c0.201,0.21,0.403,0.42,0.599,0.633
	c0.48,0.521,0.946,1.049,1.395,1.583c0.149,0.176,0.294,0.354,0.44,0.531c0.483,0.592,0.955,1.188,1.401,1.793
	c0.048,0.065,0.093,0.131,0.14,0.196c4.161,5.717,6.628,12.018,7.149,18.515c0.003,0.044,0.011,0.087,0.014,0.131
	c0.062,0.819,0.094,1.641,0.094,2.465C238.444,174.679,238.42,175.298,238.385,175.915z M231.467,115.352
	c-0.278,0.089-0.551,0.189-0.828,0.282c-0.342,0.115-0.685,0.23-1.025,0.349c-0.493,0.173-0.984,0.351-1.472,0.534
	c-0.315,0.118-0.629,0.237-0.942,0.359c-0.492,0.192-0.981,0.388-1.468,0.59c-0.316,0.131-0.63,0.265-0.944,0.4
	c-0.468,0.202-0.935,0.408-1.398,0.619c-0.337,0.154-0.671,0.311-1.005,0.47c-0.26,0.124-0.525,0.24-0.783,0.366
	c-1.632-0.865-3.319-1.668-5.031-2.443c-0.005-0.002-0.01-0.004-0.015-0.007c-1.114-0.504-2.24-0.992-3.386-1.457
	c-0.25-0.102-0.506-0.195-0.757-0.295c-0.929-0.367-1.858-0.733-2.807-1.074c-0.909-0.329-1.831-0.633-2.755-0.936
	c-0.308-0.1-0.606-0.213-0.915-0.311c0.03-0.094,0.061-0.187,0.092-0.281c0.346-1.055,0.705-2.126,1.074-3.208
	c0.107-0.312,0.215-0.623,0.323-0.935c0.277-0.802,0.562-1.612,0.851-2.426c0.258-0.724,0.518-1.449,0.782-2.173
	c0.153-0.422,0.308-0.845,0.464-1.269c0.676-1.832,1.368-3.657,2.07-5.465C220.242,101.864,227.115,108.207,231.467,115.352z
	 M204.977,38.227c2.628-3.521,7.073-3.345,9.143-1.877c2.902,2.059,1.796,7.812-2.818,14.657
	c-3.601,5.343-8.914,16.051-14.133,28.396c-0.038,0.084-0.084,0.163-0.12,0.249c-2.275,5.392-4.406,10.82-6.349,16.107
	c-0.026,0.071-0.052,0.142-0.078,0.214c-0.429,1.17-0.848,2.33-1.257,3.482c-0.212,0.596-0.421,1.191-0.628,1.786
	c-0.24,0.689-0.477,1.374-0.708,2.054c-0.355,1.044-0.705,2.084-1.044,3.118c-0.089,0.272-0.175,0.54-0.263,0.81
	c-0.155,0.479-0.311,0.958-0.462,1.433c-0.29-0.032-0.583-0.052-0.873-0.082c-0.848-0.088-1.697-0.17-2.548-0.239
	c-0.465-0.037-0.931-0.067-1.397-0.098c-0.813-0.055-1.626-0.1-2.441-0.137c-0.404-0.018-0.808-0.037-1.214-0.051
	c-1.217-0.041-2.435-0.068-3.655-0.068c-0.958,0-1.917,0.013-2.875,0.038c2.294-8.034,5.609-17.014,9.831-26.568
	c0.076-0.173,0.128-0.352,0.194-0.528C189.236,62.978,198.848,46.44,204.977,38.227z M156.497,88.86
	c-2.878,7.819-5.075,15.124-6.575,21.861c-8.253,1.917-16.066,4.83-23.214,8.635c-0.05-0.024-0.102-0.046-0.152-0.07
	c-4.037-1.97-8.276-3.574-12.667-4.793C121.965,101.812,137.733,92.339,156.497,88.86z M92.635,131.629
	c2.115,0,4.208,0.113,6.272,0.325c0.636,0.066,1.271,0.14,1.902,0.226c0.085,0.012,0.17,0.024,0.255,0.036
	c2.164,0.304,4.298,0.725,6.384,1.261c-0.08,0.081-0.154,0.165-0.234,0.246c-0.269,0.274-0.525,0.554-0.789,0.83
	c-0.486,0.511-0.967,1.024-1.432,1.545c-0.362,0.403-0.713,0.811-1.062,1.22c-0.328,0.385-0.651,0.773-0.968,1.164
	c-0.403,0.495-0.802,0.991-1.188,1.493c-0.196,0.256-0.383,0.515-0.574,0.773c-2.145,2.883-3.998,5.884-5.551,8.986
	c-0.046,0.092-0.093,0.184-0.139,0.277c-0.379,0.768-0.74,1.541-1.082,2.32c-0.045,0.102-0.088,0.205-0.132,0.307
	c-1.345,3.115-2.393,6.317-3.135,9.59c-0.083,0.363-0.169,0.724-0.244,1.089c-0.113,0.55-0.211,1.103-0.307,1.657
	c-0.086,0.499-0.166,0.998-0.238,1.499c-0.069,0.48-0.134,0.96-0.19,1.443c-0.073,0.629-0.129,1.26-0.179,1.893
	c-0.03,0.382-0.068,0.761-0.09,1.144c-0.06,1.032-0.098,2.067-0.098,3.106c0,0.996,0.038,1.988,0.094,2.978
	c0.015,0.265,0.03,0.53,0.049,0.794c0.066,0.93,0.149,1.857,0.263,2.779c0.037,0.299,0.087,0.596,0.129,0.894
	c0.088,0.621,0.185,1.24,0.295,1.858c0.078,0.443,0.158,0.885,0.247,1.326c0.104,0.508,0.222,1.013,0.34,1.519
	c0.193,0.83,0.407,1.655,0.639,2.476c0.062,0.218,0.125,0.435,0.19,0.652c1.828,6.154,4.761,12.027,8.728,17.483
	c-2.687,0.366-5.417,0.552-8.155,0.552c-11.878,0-22.757-3.41-31.16-9.043c-0.352-0.278-0.718-0.523-1.095-0.747
	c-9.742-6.935-15.873-16.954-15.873-28.081C44.506,148.618,66.097,131.629,92.635,131.629z M20,319.376
	c0-37.128,13.169-72.496,37.235-100.45c10.323,5.355,22.444,8.444,35.4,8.444c8.743,0,17.17-1.386,25.145-4.079
	c15.47,10.873,35.354,16.845,56.35,16.845c12.311,0,24.174-2.017,35.259-5.996c7.798-2.799,14.865-6.486,21.063-10.859
	c7.984,2.699,16.421,4.088,25.174,4.088c12.949,0,25.065-3.086,35.385-8.436c4.689,5.451,9.003,11.211,12.884,17.251
	c-14.146,8.03-26.89,18.531-37.546,31.113c-21.285,25.132-33.007,57.111-33.007,90.045c0,32.976,11.523,63.306,30.743,87.195
	c-26.082,18.742-57.647,28.967-89.954,28.967C89.143,473.506,20,404.364,20,319.376z"/>
<path d="M341.305,260.015c-17.31-0.315-33.847,11.313-40.236,28.2c-3.712,9.808-3.389,19.98,0.608,29.342
	c-17.351,2.53-25.723,12.855-28.978,18.287c-8.896,14.841-7.126,34.968,4.303,48.945c6.639,8.119,15.611,12.917,25.717,14.136
	c-6.491,16.298-1.732,28.712,1.345,34.249c7.306,13.147,22.1,21.311,37.548,21.311c2.323,0,4.662-0.185,6.991-0.565
	c10.35-1.689,18.998-7.055,25.107-15.197c10.868,13.764,23.994,15.848,30.327,15.952c0.207,0.003,0.413,0.005,0.62,0.005
	c17.074,0,33.303-11.52,39.616-28.205c3.711-9.805,3.389-19.972-0.604-29.331c17.358-2.528,25.719-12.866,28.975-18.298
	c8.896-14.841,7.126-34.968-4.303-48.945c-6.639-8.119-15.609-12.925-25.715-14.144c6.487-16.294,1.729-28.705-1.348-34.241
	c-8.404-15.124-26.717-23.659-44.539-20.746c-10.35,1.69-18.998,7.055-25.106,15.198
	C360.764,262.203,347.637,260.119,341.305,260.015z M319.773,295.293c3.352-8.855,12.455-15.425,21.204-15.281
	c9.104,0.149,16.771,7.569,21.693,20.945l-0.001,39.066l-35.039-20.23C317.063,310.388,317.498,301.306,319.773,295.293z
	 M292.484,372.129c-5.993-7.329-7.124-18.508-2.632-26.003c3.61-6.024,10.537-9.144,19.963-9.144c2.794,0,5.811,0.274,9.022,0.829
	l33.833,19.534l-11.173,6.451l-23.868,13.78C304.197,382.024,296.552,377.106,292.484,372.129z M345.381,434.181
	c-9.338,1.522-19.591-3.084-23.836-10.723c-4.423-7.96-1.829-18.308,7.293-29.259l10.365-5.984l23.468-13.549l-0.001,40.465
	C359.807,428.983,351.725,433.146,345.381,434.181z M425.567,419.396c-3.352,8.855-12.446,15.425-21.204,15.281
	c-9.104-0.149-16.77-7.569-21.692-20.942v-39.069l24.023,13.87l11.017,6.361C428.278,404.302,427.843,413.384,425.567,419.396z
	 M452.857,342.561c5.992,7.329,7.124,18.508,2.632,26.003c-4.682,7.811-14.941,10.74-28.986,8.315l-17.824-10.29l-16.009-9.243
	l17.711-10.225l17.33-10.006C441.145,332.666,448.788,337.585,452.857,342.561z M399.961,280.509
	c9.349-1.523,19.591,3.085,23.835,10.723c4.423,7.959,1.829,18.309-7.293,29.26l-33.832,19.533v-40.461
	C385.533,285.708,393.616,281.544,399.961,280.509z"/>
<path d="M406.018,471.92l2.689,9.632l-2.811-9.597c-5.314,1.504-8.402,7.031-6.898,12.345c1.246,4.404,5.256,7.28,9.617,7.279
	c0.901,0,1.818-0.123,2.729-0.38c0.023-0.007,0.173-0.05,0.199-0.058c5.304-1.527,8.368-7.063,6.846-12.369
	C416.864,473.464,411.321,470.396,406.018,471.92z"/>
<path d="M384.44,238.597c0.031,0.003,0.102,0.011,0.133,0.014c0.325,0.031,0.647,0.046,0.968,0.046c5.072,0,9.4-3.847,9.92-8.998
	c0.553-5.477-3.443-10.372-8.917-10.951c-0.031-0.003-0.102-0.011-0.133-0.014c-5.471-0.525-10.334,3.475-10.888,8.952
	C374.971,233.123,378.967,238.018,384.44,238.597z"/>
<path d="M416.301,225.022c-5.247-1.728-10.899,1.121-12.629,6.366s1.12,10.899,6.365,12.628
	C459.061,260.181,492,305.725,492,357.345c0,41.67-22.195,80.876-57.925,102.318c-4.736,2.842-6.271,8.985-3.429,13.721
	c1.875,3.125,5.186,4.855,8.584,4.855c1.751,0,3.525-0.46,5.136-1.427c20.589-12.356,37.724-29.931,49.553-50.826
	C505.748,405.092,512,381.356,512,357.345C512,297.073,473.541,243.896,416.301,225.022z"/>
<g>
</g>
<g>
</g>
<g>
</g>
<g>
</g>
<g>
</g>
<g>
</g>
<g>
</g>
<g>
</g>
<g>
</g>
<g>
</g>
<g>
</g>
<g>
</g>
<g>
</g>
<g>
</g>
<g>
</g>
</svg>
