<?xml version="1.0" encoding="iso-8859-1"?>
<!-- Generator: Adobe Illustrator 21.0.0, SVG Export Plug-In . SVG Version: 6.00 Build 0)  -->
<svg version="1.1" id="Capa_1" xmlns="http://www.w3.org/2000/svg" xmlns:xlink="http://www.w3.org/1999/xlink" x="0px" y="0px"
	 viewBox="0 0 512 512" style="enable-background:new 0 0 512 512;" xml:space="preserve">
<g>
	<path style="fill:#AA836D;" d="M301.888,261.874c22.603-29.898,65.222-42.288,104.18-36.937c7.607-12.616,11.99-27.325,11.99-43
		c0-230.498-396.01-227.894-396.01,0c0,46.456,38.455,84.466,85.456,84.466h5.183c43.561-2.047,41.285-20.749,52.778-35.032
		c7.353-9.139,20.344-16.47,54.588-16.47c34.242,0,47.234,7.329,54.588,16.47C283.179,241.978,284.12,255.025,301.888,261.874z"/>
	<g>
		<path style="fill:#F3F3C2;" d="M285.69,312.392c0-3.784,0.212-7.448,0.622-10.991c-5.692-21.539-10.317-44.795-11.67-70.031
			c-7.354-9.139-20.346-16.469-54.589-16.469c-34.243,0-47.234,7.33-54.588,16.47c-4.322,80.523-41.937,140.882-41.288,189.705
			c0.592,44.507,43.144,80.926,95.876,80.926s95.284-36.419,95.876-80.926c0.306-23.046-7.914-48.666-17.135-77.762
			C290.714,335.404,285.69,324.45,285.69,312.392z"/>
		<path style="fill:#F3F3C2;" d="M286.311,301.4c-0.41,3.544-0.622,7.207-0.622,10.991c0,12.058,5.023,23.014,13.104,30.922
			c7.975,7.808,18.931,12.646,30.974,12.646h2.673c22.468-1.056,21.295-10.702,27.223-18.07
			c-2.23,41.534-21.631,72.667-21.296,97.85c0.305,22.957,22.254,41.742,49.453,41.742s49.148-18.785,49.453-41.742
			c0.335-25.182-19.068-56.316-21.296-97.85c5.929,7.367,4.755,17.014,27.223,18.07h2.674c24.243,0,44.079-19.605,44.079-43.568
			c0-52.331-39.574-81.368-83.885-87.454c-0.002,0.004-0.005,0.008-0.007,0.012c-38.955-5.35-81.564,7.037-104.166,36.928
			c-0.002-0.001-0.005-0.002-0.007-0.003C293.673,272.741,288.102,285.92,286.311,301.4z"/>
	</g>
</g>
<path d="M87.505,97.131c-4.416-3.318-10.684-2.424-14,1.991c-17.558,23.377-26.459,51.241-26.459,82.815
	c0,10.31,2.758,20.48,7.974,29.41c1.859,3.183,5.206,4.957,8.644,4.957c1.713,0,3.449-0.44,5.035-1.367
	c4.769-2.786,6.376-8.909,3.59-13.678c-3.431-5.872-5.244-12.552-5.244-19.322c0-27.146,7.554-50.969,22.451-70.807
	C92.811,106.715,91.92,100.448,87.505,97.131z"/>
<path d="M443.2,365.959h2.673c29.819,0,54.078-24.03,54.078-53.567c0-38.181-19.057-68.609-53.659-85.679
	c-7.956-3.925-16.469-6.973-25.35-9.135c4.672-11.276,7.115-23.38,7.115-35.64c0-5.523-4.478-9.999-9.999-9.999
	s-9.999,4.477-9.999,9.999c0,11.21-2.591,22.264-7.539,32.318c-1.127-0.097-2.257-0.177-3.391-0.246
	c-0.217-0.014-0.433-0.028-0.65-0.041c-0.786-0.045-1.573-0.084-2.361-0.116c-0.927-0.04-1.852-0.069-2.776-0.091
	c-0.189-0.004-0.378-0.01-0.567-0.013c-15.711-0.313-31.002,1.983-45.02,6.58c-0.238,0.078-0.475,0.157-0.712,0.236
	c-0.901,0.302-1.797,0.613-2.688,0.934c-0.421,0.151-0.843,0.302-1.261,0.457c-0.661,0.246-1.317,0.501-1.971,0.758
	c-0.574,0.224-1.15,0.446-1.719,0.678c-0.295,0.121-0.585,0.249-0.878,0.372c-5.732,2.393-11.209,5.186-16.36,8.388
	c-7.938,4.936-14.885,10.692-20.787,17.15c-0.003,0.004-0.007,0.007-0.011,0.011c-4.43-3.2-6.7-7.352-9.544-12.552
	c-1.94-3.547-4.125-7.533-7.23-11.439c-0.055-0.073-0.106-0.149-0.164-0.221c-1.096-1.363-2.261-2.648-3.498-3.862
	c-0.04-0.039-0.083-0.078-0.124-0.117c-0.399-0.388-0.805-0.77-1.219-1.143c-0.156-0.141-0.318-0.279-0.477-0.419
	c-0.322-0.282-0.648-0.561-0.98-0.834c-0.182-0.15-0.366-0.3-0.552-0.449c-0.366-0.292-0.74-0.578-1.118-0.86
	c-0.149-0.111-0.293-0.224-0.445-0.334c-0.559-0.406-1.129-0.803-1.713-1.187c-0.014-0.01-0.03-0.019-0.044-0.028
	c-0.608-0.4-1.234-0.785-1.869-1.161c-0.026-0.015-0.049-0.031-0.074-0.046c-0.027-0.016-0.056-0.03-0.083-0.046
	c-9.996-5.865-23.455-8.894-41.873-9.566c-0.037-0.001-0.074-0.002-0.111-0.004c-1.153-0.041-2.329-0.072-3.521-0.095
	c-0.286-0.006-0.572-0.011-0.861-0.016c-1.253-0.02-2.52-0.033-3.818-0.033c-1.298,0-2.564,0.013-3.818,0.033
	c-0.288,0.005-0.574,0.01-0.86,0.016c-1.197,0.023-2.377,0.054-3.534,0.096c-0.031,0.001-0.063,0.002-0.094,0.003
	c-18.42,0.671-31.881,3.701-41.877,9.566c-0.027,0.016-0.056,0.03-0.083,0.046c-0.026,0.015-0.049,0.031-0.074,0.046
	c-0.64,0.379-1.269,0.766-1.881,1.168c-0.01,0.006-0.02,0.013-0.03,0.019c-0.588,0.387-1.162,0.786-1.724,1.195
	c-0.141,0.103-0.275,0.207-0.414,0.31c-0.391,0.291-0.776,0.587-1.155,0.889c-0.176,0.141-0.35,0.283-0.523,0.425
	c-0.347,0.286-0.688,0.577-1.025,0.873c-0.144,0.127-0.291,0.253-0.433,0.381c-0.445,0.4-0.881,0.809-1.308,1.226
	c-0.012,0.012-0.025,0.023-0.037,0.035c-1.241,1.218-2.411,2.507-3.511,3.874c-0.062,0.076-0.116,0.158-0.175,0.236
	c-3.1,3.901-5.281,7.881-7.218,11.424c-5.805,10.615-10.001,18.294-37.833,19.643h-4.944c-41.607,0-75.457-33.405-75.457-74.466
	c0-97.414,75.507-145.57,146.17-158.154C263.472,8.602,366.527,38.731,398.52,125.705c0.3,0.813,0.593,1.631,0.879,2.455
	c1.815,5.216,7.517,7.975,12.729,6.158c5.217-1.815,7.973-7.514,6.158-12.73c-0.325-0.934-0.657-1.863-0.997-2.786
	c-16.361-44.477-50.494-78.871-98.71-99.462C275.034,0.741,223.939-4.671,174.71,4.094C129.188,12.201,89.963,31.51,61.273,59.933
	c-32.203,31.903-49.223,74.09-49.223,122.005c0,52.088,42.821,94.465,95.456,94.465h5.183c0.156,0,0.313-0.003,0.47-0.011
	c18.465-0.868,30.1-4.637,38.194-10.157c-4.81,27.416-12.705,52.393-19.935,75.206c-9.422,29.732-17.561,55.409-17.236,79.767
	c0.326,24.517,11.661,47.476,31.918,64.648C165.988,502.715,192.252,512,220.054,512c4.776,0,9.584-0.279,14.291-0.831
	c5.485-0.642,9.41-5.61,8.769-11.094c-0.644-5.485-5.607-9.413-11.095-8.768c-3.938,0.461-7.963,0.695-11.965,0.695
	c-46.831,0-85.355-31.878-85.877-71.061c-0.281-21.128,7.404-45.38,16.304-73.458c10.293-32.478,21.917-69.164,24.745-111.852
	c2.403-2.347,5.493-4.426,9.791-6.116c6.225-2.378,15.37-4.154,29.285-4.536c0.395-0.01,0.789-0.021,1.192-0.029
	c0.471-0.01,0.947-0.019,1.429-0.026c1.024-0.014,2.059-0.025,3.132-0.025s2.108,0.011,3.133,0.025
	c0.479,0.007,0.953,0.016,1.421,0.025c0.408,0.008,0.806,0.019,1.206,0.03c13.929,0.383,23.078,2.163,29.302,4.545
	c4.285,1.687,7.366,3.762,9.765,6.103c1.393,21.102,5.013,42.408,11.302,66.562c-0.014,0.145-0.023,0.292-0.037,0.438
	c-0.035,0.377-0.065,0.756-0.096,1.134c-0.045,0.551-0.087,1.103-0.123,1.656c-0.028,0.427-0.054,0.854-0.077,1.283
	c-0.031,0.573-0.054,1.145-0.076,1.719c-0.014,0.371-0.03,0.741-0.04,1.114c-0.026,0.953-0.042,1.907-0.042,2.86
	c0,0.887,0.025,1.771,0.068,2.651c0.013,0.262,0.038,0.52,0.055,0.781c0.04,0.621,0.082,1.242,0.143,1.858
	c0.028,0.284,0.067,0.565,0.1,0.847c0.068,0.594,0.14,1.186,0.228,1.775c0.041,0.273,0.09,0.543,0.135,0.814
	c0.099,0.597,0.204,1.193,0.323,1.785c0.051,0.252,0.107,0.503,0.162,0.753c0.131,0.607,0.271,1.211,0.423,1.812
	c0.059,0.232,0.121,0.462,0.183,0.693c0.164,0.612,0.339,1.221,0.525,1.826c0.067,0.217,0.135,0.434,0.205,0.65
	c0.195,0.605,0.401,1.205,0.617,1.802c0.078,0.217,0.158,0.433,0.239,0.648c0.218,0.577,0.447,1.149,0.685,1.718
	c0.098,0.235,0.196,0.47,0.297,0.703c0.227,0.521,0.465,1.037,0.709,1.551c0.133,0.28,0.264,0.56,0.401,0.837
	c0.213,0.429,0.436,0.854,0.662,1.278c0.19,0.36,0.38,0.719,0.578,1.074c0.166,0.296,0.341,0.589,0.513,0.882
	c0.278,0.476,0.558,0.951,0.851,1.418c0.077,0.122,0.158,0.243,0.236,0.365c1.755,2.752,3.749,5.338,5.965,7.721
	c8.744,27.592,16.216,51.469,15.94,72.307c-0.25,18.743-9.152,36.443-25.068,49.841c-4.226,3.557-4.768,9.864-1.211,14.089
	c3.556,4.226,9.864,4.767,14.089,1.211c20.428-17.195,31.859-40.235,32.187-64.874c0.238-17.947-4.123-36.617-10.201-57.092
	c4.481,1.195,9.186,1.843,14.043,1.843h2.673c0.156,0,0.313-0.003,0.47-0.011c5.101-0.24,9.329-0.89,12.879-1.863
	c-2.369,10.388-5.442,20.084-8.304,29.115c-4.78,15.081-9.294,29.327-9.116,42.673c0.379,28.456,27.049,51.607,59.451,51.607
	s59.072-23.151,59.451-51.608c0.178-13.345-4.337-27.59-9.116-42.671c-2.862-9.031-5.935-18.727-8.304-29.116
	c3.549,0.973,7.778,1.623,12.879,1.863C442.888,365.955,443.044,365.959,443.2,365.959z M428.057,338.347
	c-1.117-2.043-2.383-4.358-4.289-6.726c-2.72-3.379-7.309-4.621-11.365-3.07c-4.054,1.552-6.643,5.541-6.41,9.874
	c1.259,23.456,7.549,43.306,13.1,60.817c4.464,14.084,8.318,26.247,8.184,36.363c-0.234,17.577-17.934,31.876-39.455,31.876
	c-21.521,0-39.221-14.299-39.455-31.875c-0.135-10.117,3.721-22.28,8.184-36.364c5.551-17.512,11.84-37.36,13.1-60.816
	c0.233-4.334-2.356-8.323-6.41-9.874c-1.166-0.446-2.375-0.661-3.572-0.661c-2.967,0-5.855,1.322-7.793,3.731
	c-1.906,2.369-3.172,4.684-4.289,6.726c-2.558,4.678-3.852,7.041-15.386,7.612h-2.432c-9.194,0-17.545-3.612-23.681-9.462
	c-0.101-0.109-0.192-0.226-0.298-0.33c-4.067-3.98-6.991-8.766-8.616-13.981c-0.017-0.055-0.031-0.111-0.048-0.166
	c-0.141-0.46-0.273-0.923-0.394-1.389c-0.038-0.146-0.068-0.294-0.104-0.44c-0.093-0.382-0.185-0.764-0.264-1.15
	c-0.044-0.215-0.078-0.433-0.118-0.65c-0.06-0.324-0.123-0.647-0.173-0.974c-0.041-0.269-0.07-0.542-0.105-0.813
	c-0.036-0.28-0.077-0.559-0.106-0.84c-0.034-0.335-0.054-0.675-0.078-1.013c-0.016-0.221-0.039-0.441-0.05-0.663
	c-0.029-0.563-0.044-1.129-0.044-1.698c0-0.938,0.02-1.86,0.048-2.775c0.015-0.466,0.037-0.93,0.06-1.395
	c0.019-0.394,0.039-0.787,0.062-1.177c0.039-0.625,0.082-1.25,0.134-1.872c0.012-0.143,0.025-0.285,0.038-0.428
	c0.065-0.729,0.136-1.456,0.22-2.179c0.003-0.024,0.003-0.049,0.005-0.073c1.653-14.296,6.817-25.54,13.39-34.311
	c0.075-0.092,0.154-0.179,0.226-0.274c18.879-24.966,56.986-38.248,94.83-33.052c0.096,0.013,0.19,0.008,0.286,0.018
	c11.393,1.596,22.453,4.839,32.459,9.774c27.411,13.523,42.508,37.581,42.508,67.744c0,18.51-15.288,33.568-34.079,33.568h-2.432
	C431.907,345.388,430.613,343.025,428.057,338.347z"/>
<circle cx="105.012" cy="84.034" r="9.999"/>
<circle cx="414.989" cy="151.029" r="9.999"/>
<circle cx="264" cy="491.003" r="9.999"/>
<g>
</g>
<g>
</g>
<g>
</g>
<g>
</g>
<g>
</g>
<g>
</g>
<g>
</g>
<g>
</g>
<g>
</g>
<g>
</g>
<g>
</g>
<g>
</g>
<g>
</g>
<g>
</g>
<g>
</g>
</svg>
