<svg height="388pt" viewBox="-10 0 388 388.05566" width="388pt" xmlns="http://www.w3.org/2000/svg"><path d="m361.066406 191.015625-9.839844-30.457031c-11.601562-36.21875-37.140624-66.332032-70.972656-83.703125-49.496094-25.503907-84.378906-23.199219-122.074218-64.230469l-8.992188-9.777344 7.074219 21.960938c22.902343 39.527344 119.695312 284.902344 99.710937 309.597656l12.109375 37.648438c75.679688-24.308594 117.3125-105.367188 92.984375-181.039063zm0 0" fill="#ffbc49"/><path d="m149.628906 12.054688-5.601562-12.054688-5.558594 12.054688c-23.320312 50.570312-57.207031 59.113281-96.511719 98.5625-26.894531 26.902343-41.9804685 63.398437-41.9296872 101.4375v28.554687c0 78.078125 60.7187502 144.582031 138.7539062 147.351563 39.074219 1.425781 77.050781-13.101563 105.199219-40.242188 28.144531-27.140625 44.046875-64.5625 44.046875-103.664062v-32c.054687-38.039063-15.03125-74.535157-41.925782-101.4375-39.304687-39.449219-73.195312-47.992188-96.472656-98.5625zm0 0" fill="#f3a630"/><path d="m136.027344 208.054688c.019531 12.980468 4.230468 25.605468 12 36 7.773437 10.394531 11.980468 23.023437 12 36v34.242187c-5.253906 1.160156-10.617188 1.75-16 1.757813-11.167969.019531-22.183594-2.582032-32.160156-7.597657l.160156-.402343v-16c.015625-21.175782 3.417968-42.214844 10.082031-62.320313l11.839844-35.359375c.71875-2.078125 1.359375-4.238281 1.917969-6.398438l.160156.078126zm0 0" fill="#ffcb5a"/><path d="m216.027344 204.054688v40c.023437 20.476562-8.710938 39.980468-24 53.601562v-67.679688c.003906-11.773437-2.734375-23.390624-8-33.921874s-8.003906-22.144532-8-33.917969v-22.082031l.160156-.398438 18.71875 13.519531c13.542969 13.46875 21.144531 31.78125 21.121094 50.878907zm0 0" fill="#ffcb5a"/><path d="m122.109375 229.734375c-6.664063 20.105469-10.066406 41.144531-10.082031 62.320313v16l-.160156.402343c-24.40625-12.1875-39.832032-37.121093-39.839844-64.402343v-40c0-39.761719 32.234375-72 72-72 .019531 18.9375-2.726563 37.777343-8.160156 55.921874-.558594 2.160157-1.199219 4.320313-1.917969 6.398438zm0 0" fill="#c06515"/><path d="m192.027344 229.976562v67.679688c-9.078125 8.175781-20.09375 13.902344-32 16.640625v-34.242187c-.019532-12.976563-4.226563-25.605469-12-36-7.769532-10.394532-11.980469-23.019532-12-36v-20l-.160156-.078126c5.433593-18.144531 8.179687-36.984374 8.160156-55.921874 11.167968-.019532 22.183594 2.585937 32.160156 7.601562l-.160156.398438v22.082031c-.003906 11.773437 2.734375 23.386719 8 33.917969s8.003906 22.148437 8 33.921874zm0 0" fill="#8a4325"/></svg>