<?xml version="1.0" encoding="iso-8859-1"?>
<!-- Generator: Adobe Illustrator 21.0.0, SVG Export Plug-In . SVG Version: 6.00 Build 0)  -->
<svg version="1.1" id="Capa_1" xmlns="http://www.w3.org/2000/svg" xmlns:xlink="http://www.w3.org/1999/xlink" x="0px" y="0px"
	 viewBox="0 0 511.999 511.999" style="enable-background:new 0 0 511.999 511.999;" xml:space="preserve">
<g>
	<g>
		<path style="fill:#00C56E;" d="M189.411,92.448c1.393-20.655,5.192-43.079,8.084-51.484
			c10.605-30.827-20.198-34.289-27.092-16.991c-4.756,11.934-12.211,40.502-14.176,66.672c5.918,2.585,12.061,5.889,18.423,9.96
			v-0.007l0.266,0.003C179.882,97.424,184.715,94.713,189.411,92.448z"/>
		<path style="fill:#00C56E;" d="M69.185,403.061c0-76.35,33.217-99.516,33.217-204.487c0-60.212,26.756-97.822,72.248-97.969
			c-6.362-4.071-12.505-7.375-18.423-9.96C84.686,59.398,46.1,133.313,53.078,229.181c-2.771,91.98-36.151,64.487-43.077,153.492
			c5.204,94.84,87.691,126.843,138.258,112.47C110.504,503.162,66.541,466.222,69.185,403.061z"/>
	</g>
	<path style="fill:#87DD60;" d="M174.65,480.067V194.062C174.574,299.445,174.65,458.957,174.65,480.067L174.65,480.067z
		 M174.65,100.605v93.457c0.025-34.707,0.067-63.543,0.133-79.63c0.066,16.087,0.108,44.924,0.133,79.634v286.005l-0.031,0.03
		c-0.033,0.034-0.067,0.069-0.101,0.103c-6.783,6.906-15.957,11.936-26.526,14.94c-37.755,8.02-81.718-28.921-79.074-92.082
		c0-76.35,33.217-99.516,33.217-204.487C102.402,138.362,129.159,100.752,174.65,100.605z"/>
	<path style="fill:#00C56E;" d="M174.886,480.1c-0.033,0.034-0.067,0.069-0.101,0.103
		C174.818,480.169,174.852,480.135,174.886,480.1L174.886,480.1z M174.917,194.065c0.076,105.383,0,264.895,0,286.005l-0.031,0.03
		l-0.101,0.103c6.787,6.909,15.969,11.938,26.546,14.938c15.966,3.38,33.041-1.281,47.231-12.561
		c-6.948-21.409,1.516-63.443,19.99-94.154c-39.337-16.68-76.624-54.738-72.645-75.764c6.232-13.193,32.641-21.516,62.012-22.421
		c-5.952-23.678-10.754-51.761-10.754-91.671c0-60.211-26.756-97.822-72.247-97.969L174.917,194.065L174.917,194.065z"/>
	<path style="fill:#87DD60;" d="M247.164,198.57c0,39.91,4.802,67.993,10.754,91.668c13.702-0.423,28.049,0.767,41.292,3.83
		c0.548-6.296,1.554-12.693,2.943-19.032c-0.003-0.003-0.002-0.005-0.002-0.007c-2.962-11.181-5.053-25.626-5.662-45.851
		c7.105-97.609-33.024-172.46-107.078-136.73c-4.696,2.266-9.529,4.976-14.494,8.154
		C220.408,100.749,247.164,138.359,247.164,198.57z"/>
	<g>
		<path style="fill:#FFB86E;" d="M298.21,334.065c-8.426-5.376-35.091-18.839-45.677-11.671c-1.772,1.2-3.274,5.415-3.917,7.395
			c-0.643,1.98-1.906,6.273-1.178,8.286c4.351,12.021,33.837,16.802,43.813,17.406c6.462,0.391,18.935,0.004,30.616-1.89
			C313.53,345.191,303.668,337.547,298.21,334.065z"/>
		<path style="fill:#FFB86E;" d="M337.548,305.483c1.625,6.267,5.847,18.009,11.259,28.534c5.412-10.525,9.634-22.267,11.259-28.534
			c2.509-9.675,7.073-39.195-3.015-47.048c-1.689-1.315-6.162-1.44-8.244-1.44s-6.555,0.126-8.244,1.44
			C330.475,266.288,335.039,295.808,337.548,305.483z"/>
		<path style="fill:#FFB86E;" d="M399.405,334.064c-5.458,3.482-15.32,11.126-23.658,19.525c11.682,1.895,24.154,2.281,30.616,1.89
			c9.977-0.603,39.462-5.385,43.813-17.406c0.728-2.013-0.534-6.305-1.178-8.285c-0.643-1.98-2.145-6.195-3.918-7.396
			C434.496,315.225,407.831,328.688,399.405,334.064z"/>
		<path style="fill:#FFB86E;" d="M391.337,401.725c-4.998-4.115-15.316-11.133-25.88-16.467c1.808,11.696,5.294,23.677,7.663,29.702
			c3.657,9.302,17.316,35.867,30.093,36.29c2.14,0.071,5.832-2.457,7.516-3.68c1.685-1.224,5.229-3.954,5.823-6.011
			C420.098,429.277,399.054,408.077,391.337,401.725z"/>
		<path style="fill:#FFB86E;" d="M324.495,414.961c2.369-6.025,5.855-18.007,7.663-29.702c-10.564,5.334-20.882,12.352-25.88,16.466
			c-7.717,6.352-28.761,27.552-25.215,39.834c0.594,2.057,4.138,4.787,5.823,6.011c1.684,1.224,5.377,3.751,7.517,3.68
			C307.179,450.828,320.838,424.263,324.495,414.961z"/>
	</g>
	<path style="fill:#C8FA8B;" d="M247.438,338.074c-0.729-2.013,0.534-6.306,1.178-8.286c0.643-1.98,2.145-6.195,3.917-7.395
		c10.586-7.168,37.251,6.296,45.677,11.671c5.458,3.482,15.321,11.126,23.658,19.525c-11.682,1.894-24.154,2.281-30.616,1.89
		C281.275,354.877,251.789,350.095,247.438,338.074L247.438,338.074z M306.278,401.726c4.998-4.115,15.316-11.133,25.88-16.466
		c-1.808,11.695-5.295,23.677-7.663,29.702c-3.657,9.302-17.316,35.867-30.093,36.29c-2.14,0.071-5.832-2.457-7.517-3.68
		c-1.684-1.224-5.229-3.954-5.823-6.011C277.517,429.277,298.561,408.078,306.278,401.726L306.278,401.726z M268.551,388.426
		c-18.474,30.711-26.938,72.745-19.99,94.154c0.001-0.001,0.002-0.002,0.004-0.003C241.617,461.168,250.077,419.138,268.551,388.426
		L268.551,388.426z M195.906,312.662c-3.979,21.025,33.308,59.084,72.645,75.764c-18.474,30.711-26.938,72.745-19.99,94.154
		c1.334,4.113,3.238,7.464,5.748,9.828c0.975,0.534,2.032,0.971,3.157,1.326c-0.004,0.001-0.007,0.002-0.011,0.003
		c20.514,6.472,64.785-16.417,91.352-46.999c28.02,32.254,75.733,55.951,94.498,45.67c15.578-14.671,7.78-67.372-14.242-103.983
		c39.337-16.68,76.624-54.738,72.645-75.763c-9.139-19.349-61.675-28.223-103.304-18.595c-3.702-42.563-28.371-89.781-49.597-92.494
		c-18.086,2.311-38.67,36.933-46.656,73.456c0.001,0.002,0.001,0.005,0.002,0.007c-1.386,6.34-2.396,12.737-2.943,19.032
		c-13.243-3.063-27.59-4.253-41.292-3.827C228.547,291.146,202.138,299.469,195.906,312.662L195.906,312.662z M373.12,414.961
		c-2.369-6.025-5.855-18.007-7.663-29.702c10.564,5.334,20.882,12.352,25.88,16.467c7.717,6.352,28.761,27.552,25.215,39.834
		c-0.594,2.057-4.139,4.788-5.823,6.011c-1.684,1.224-5.376,3.751-7.516,3.68C390.436,450.828,376.777,424.262,373.12,414.961
		L373.12,414.961z M375.747,353.589c8.338-8.399,18.2-16.043,23.658-19.525c8.426-5.376,35.091-18.839,45.676-11.671
		c1.773,1.201,3.274,5.416,3.918,7.396c0.643,1.98,1.906,6.272,1.178,8.285c-4.351,12.021-33.837,16.803-43.813,17.406
		C399.901,355.871,387.429,355.484,375.747,353.589L375.747,353.589z M348.807,334.017c-5.411-10.525-9.633-22.267-11.259-28.534
		c-2.509-9.675-7.073-39.195,3.015-47.047c1.69-1.315,6.162-1.44,8.244-1.44s6.555,0.126,8.244,1.44
		c10.088,7.853,5.524,37.373,3.015,47.048C358.441,311.75,354.219,323.492,348.807,334.017z"/>
</g>
<path d="M229.18,149.961l0.022,0.056c1.55,3.926,5.3,6.307,9.276,6.307c1.227,0,2.475-0.227,3.686-0.705
	c5.137-2.027,7.647-7.863,5.619-13.001c-2.027-5.136-7.835-7.657-12.974-5.63C229.673,139.016,227.152,144.823,229.18,149.961z"/>
<path d="M25.048,412.826c-0.011-0.041-0.03-0.107-0.046-0.16c-1.511-5.271-6.993-8.348-12.289-6.877
	c-5.322,1.478-8.437,6.99-6.959,12.312c0.012,0.041,0.031,0.108,0.046,0.162c1.257,4.379,5.254,7.243,9.606,7.243
	c0.886,0,1.787-0.119,2.682-0.367C23.411,423.66,26.526,418.147,25.048,412.826z"/>
<path d="M511.534,310.803c-0.158-0.834-0.421-1.645-0.784-2.411c-2.629-5.566-7.385-10.473-14.135-14.582
	c-4.717-2.87-10.87-1.375-13.742,3.342c-2.872,4.718-1.375,10.87,3.342,13.742c2.651,1.614,4.663,3.336,5.806,4.952
	c0.407,13.906-28.493,47.105-66.862,63.373c-2.667,1.131-4.712,3.362-5.607,6.117s-0.551,5.763,0.941,8.244
	c21.497,35.738,25.355,79.621,16.824,90.587c-13.063,4.727-53.61-12.503-80.961-43.987c-1.899-2.186-4.653-3.441-7.549-3.441
	c-2.896,0-5.65,1.256-7.549,3.441c-27.039,31.126-66.954,48.311-80.483,44.127c-0.101-0.036-0.2-0.077-0.303-0.109
	c-0.068-0.022-0.134-0.043-0.2-0.066c-0.116-0.15-0.222-0.328-0.333-0.49c-0.141-0.205-0.286-0.399-0.42-0.623
	c-0.105-0.177-0.199-0.38-0.3-0.568c-0.131-0.245-0.266-0.479-0.389-0.743c-0.091-0.196-0.171-0.416-0.258-0.622
	c-0.076-0.181-0.153-0.361-0.226-0.55c-0.073-0.35-0.158-0.699-0.27-1.044c-5-15.404-0.283-48.473,14.178-77.086
	c0.05-0.098,0.101-0.197,0.151-0.295c0.424-0.834,0.857-1.664,1.298-2.49c0.227-0.424,0.46-0.846,0.692-1.268
	c0.31-0.566,0.618-1.134,0.936-1.695c0.584-1.03,1.178-2.056,1.79-3.074c0.185-0.308,0.35-0.622,0.498-0.94
	c0.024-0.051,0.041-0.103,0.063-0.154c0.121-0.271,0.233-0.545,0.328-0.822c0.024-0.069,0.04-0.139,0.062-0.208
	c0.084-0.262,0.161-0.526,0.222-0.791c0.02-0.086,0.033-0.173,0.05-0.259c0.05-0.249,0.095-0.499,0.126-0.75
	c0.013-0.106,0.02-0.212,0.03-0.318c0.021-0.231,0.037-0.462,0.042-0.692c0.003-0.124,0-0.248-0.002-0.372
	c-0.003-0.213-0.012-0.425-0.029-0.637c-0.011-0.135-0.025-0.27-0.041-0.406c-0.025-0.203-0.056-0.404-0.093-0.605
	c-0.025-0.137-0.051-0.274-0.081-0.41c-0.047-0.206-0.103-0.408-0.163-0.61c-0.026-0.089-0.043-0.18-0.072-0.269
	c-0.012-0.036-0.029-0.07-0.041-0.107c-0.076-0.226-0.165-0.447-0.257-0.667c-0.039-0.094-0.073-0.19-0.115-0.282
	c-0.285-0.628-0.635-1.228-1.05-1.79c-0.005-0.006-0.01-0.012-0.015-0.019c-0.198-0.267-0.41-0.524-0.636-0.772
	c-0.054-0.06-0.114-0.114-0.17-0.172c-0.178-0.187-0.36-0.37-0.555-0.544c-0.092-0.082-0.19-0.157-0.284-0.236
	c-0.167-0.138-0.334-0.275-0.511-0.404c-0.122-0.089-0.249-0.169-0.375-0.252c-0.117-0.077-0.227-0.161-0.347-0.234
	c-0.05-0.03-0.103-0.053-0.153-0.082c-0.128-0.074-0.261-0.142-0.393-0.21c-0.119-0.062-0.236-0.134-0.357-0.191
	c-0.07-0.033-0.141-0.056-0.211-0.087c-0.047-0.021-0.09-0.047-0.137-0.067c-38.403-16.285-67.321-49.526-66.861-63.411
	c5.195-7.672,26.031-14.62,51.386-15.614c0.308,0.029,0.617,0.047,0.93,0.047c0.505,0,1.016-0.053,1.527-0.132
	c11.974-0.282,24.858,0.772,37.519,3.701c0.053,0.012,0.107,0.016,0.16,0.028c0.201,0.043,0.406,0.076,0.612,0.107
	c0.147,0.022,0.293,0.046,0.441,0.061c0.059,0.006,0.116,0.019,0.175,0.024c0.192,0.016,0.381,0.019,0.57,0.025
	c0.074,0.002,0.147,0.009,0.221,0.01c0.028,0,0.057,0.004,0.086,0.004c0.671,0,1.328-0.071,1.966-0.199
	c0.034-0.007,0.067-0.017,0.101-0.024c0.295-0.063,0.586-0.138,0.872-0.226c0.082-0.025,0.162-0.056,0.244-0.083
	c0.235-0.079,0.467-0.165,0.694-0.261c0.101-0.042,0.2-0.088,0.299-0.134c0.205-0.095,0.407-0.196,0.604-0.305
	c0.104-0.057,0.207-0.114,0.31-0.175c0.197-0.117,0.387-0.242,0.575-0.372c0.066-0.046,0.137-0.083,0.202-0.131
	c0.025-0.018,0.046-0.039,0.071-0.057c0.227-0.168,0.445-0.347,0.658-0.534c0.04-0.035,0.083-0.066,0.123-0.102
	c0.246-0.223,0.479-0.461,0.702-0.708c0.062-0.069,0.118-0.143,0.178-0.213c0.158-0.186,0.312-0.375,0.457-0.572
	c0.063-0.087,0.122-0.176,0.182-0.264c0.132-0.192,0.258-0.388,0.376-0.59c0.053-0.091,0.104-0.182,0.154-0.275
	c0.114-0.209,0.22-0.423,0.319-0.642c0.041-0.091,0.083-0.181,0.122-0.273c0.095-0.227,0.179-0.459,0.257-0.694
	c0.03-0.09,0.063-0.179,0.091-0.27c0.074-0.247,0.135-0.499,0.191-0.754c0.018-0.083,0.042-0.165,0.058-0.249
	c0.064-0.336,0.115-0.678,0.145-1.026c0.497-5.71,1.422-11.686,2.75-17.763c0.063-0.287,0.099-0.578,0.136-0.868
	c7.43-33.643,25.436-61.275,36.749-64.544c13.347,3.857,36.021,41.627,39.635,83.174c0.251,2.886,1.741,5.521,4.084,7.224
	c2.344,1.703,5.311,2.305,8.131,1.653c9.971-2.306,21.196-3.568,32.462-3.65c5.522-0.041,9.967-4.55,9.927-10.073
	c-0.04-5.522-4.57-9.946-10.073-9.927c-8.798,0.064-17.605,0.774-25.968,2.077c-2.966-18.526-9.315-37.718-17.999-54.055
	c-6.721-12.643-20.715-34.2-38.932-36.528c-0.841-0.109-1.693-0.109-2.535,0c-18.217,2.328-32.212,23.886-38.933,36.529
	c-0.686,1.29-1.352,2.605-2.008,3.929c-0.036-0.902-0.07-1.809-0.099-2.73c2.351-33.035-0.536-63.847-8.355-89.131
	c-8.407-27.185-22.334-47.201-40.276-57.886c-12.553-7.476-31.506-13.012-56.983-5.186c1.713-14.468,4.182-27.491,6.065-32.964
	c7.738-22.492-2.037-35.119-12.758-39.097c-12.99-4.82-27.83,1.977-33.08,15.151c-4.153,10.423-10.395,33.218-13.49,56.584
	c-24.947-7.355-43.547-1.857-55.926,5.514c-17.942,10.685-31.869,30.701-40.276,57.887c-7.819,25.284-10.707,56.096-8.355,89.131
	c-1.398,44.32-10.127,58.673-19.367,73.864c-9.43,15.503-20.121,33.08-23.666,78.64c-0.034,0.44-0.04,0.882-0.016,1.322
	c0.091,1.668,0.208,3.359,0.348,5.025c0.437,5.22,4.809,9.166,9.954,9.166c0.28,0,0.563-0.012,0.846-0.036
	c5.504-0.461,9.591-5.296,9.13-10.8c-0.106-1.258-0.196-2.53-0.271-3.793c3.216-40.283,11.741-54.304,20.764-69.139
	c10.216-16.796,20.779-34.164,22.286-84.161c0.01-0.342,0.003-0.685-0.022-1.026c-4.481-61.572,10.78-112.17,38.88-128.903
	c12.017-7.155,26.073-8.127,41.98-2.958c-32.403,13.713-51.509,50.245-51.509,101.979c0,55.211-9.24,86.557-18.175,116.871
	c-7.721,26.193-15.015,50.938-15.042,87.409c-1.234,30.629,8.013,58.24,24.765,77.328c-19.208-8.194-35.764-22.084-46.81-39.902
	c-2.91-4.694-9.075-6.141-13.769-3.23c-4.694,2.909-6.14,9.074-3.23,13.768c19.557,31.548,53.49,52.822,90.771,56.909
	c4.265,0.468,8.476,0.697,12.614,0.697c9.068,0,17.762-1.111,25.797-3.233c9.085-1.775,17.733-5.685,25.483-11.659
	c7.3,5.561,15.435,9.273,23.934,11.152c8.556,2.41,17.853,3.67,27.509,3.67c10.228-0.001,20.845-1.412,31.361-4.283
	c2.503,0.507,5.095,0.745,7.736,0.744c13.463,0,28.058-5.882,37.126-10.305c16.626-8.11,33.044-19.902,46.335-33.145
	c13.291,13.242,29.71,25.034,46.336,33.145c12.868,6.275,36.861,15.487,52.967,6.667c0.744-0.408,1.434-0.909,2.051-1.49
	c13.37-12.592,12.02-38.258,10.025-52.438c-2.577-18.317-8.72-37.575-17.209-54.305c16.702-8.548,32.993-20.518,45.845-33.826
	C498.771,348.82,514.949,328.847,511.534,310.803z M247.636,99.55c28.1,16.733,43.36,67.33,38.879,128.902
	c-0.025,0.342-0.032,0.685-0.022,1.026c0.549,18.206,2.315,33.21,5.391,45.757c-0.296,1.453-0.566,2.905-0.822,4.354
	c-0.039,0.221-0.075,0.441-0.113,0.661c-0.114,0.661-0.233,1.322-0.339,1.982c-8.061-1.263-16.441-1.954-24.835-2.069
	c-4.331-18.838-8.611-44.622-8.611-81.593c0-8.907-0.567-17.512-1.685-25.575c-0.758-5.471-5.806-9.288-11.279-8.532
	c-5.471,0.759-9.29,5.809-8.532,11.278c0.992,7.157,1.496,14.838,1.496,22.829c0,36.624,4.014,62.892,8.308,82.464
	c-4.01,0.403-7.968,0.936-11.833,1.617c-14.102,2.485-38.931,9.135-46.774,25.74c-0.362,0.767-0.626,1.577-0.784,2.411
	c-3.415,18.044,12.764,38.018,22.711,48.318c12.852,13.307,29.143,25.277,45.845,33.826c-0.122,0.241-0.24,0.488-0.361,0.731
	c-0.146,0.292-0.294,0.583-0.439,0.876c-0.146,0.296-0.289,0.593-0.433,0.889c-0.266,0.548-0.529,1.099-0.79,1.652
	c-0.126,0.267-0.257,0.531-0.382,0.799c-0.113,0.242-0.222,0.488-0.334,0.731c-0.262,0.568-0.52,1.139-0.776,1.711
	c-0.149,0.332-0.297,0.664-0.444,0.998c-0.136,0.309-0.274,0.617-0.409,0.927c-0.195,0.449-0.384,0.901-0.575,1.352
	c-0.124,0.293-0.246,0.585-0.368,0.879c-0.199,0.476-0.403,0.948-0.598,1.427c-0.027,0.067-0.053,0.136-0.08,0.203
	c-0.107,0.265-0.21,0.533-0.316,0.798c-0.066,0.166-0.132,0.333-0.197,0.499c-0.293,0.74-0.587,1.479-0.871,2.223
	c-0.16,0.419-0.313,0.84-0.47,1.26c-0.314,0.84-0.623,1.682-0.925,2.528c-0.17,0.478-0.337,0.957-0.503,1.436
	c-0.281,0.81-0.556,1.621-0.826,2.435c-0.158,0.478-0.317,0.955-0.471,1.434c-0.28,0.869-0.551,1.74-0.817,2.612
	c-0.126,0.414-0.257,0.826-0.38,1.241c-0.381,1.28-0.752,2.561-1.104,3.846c-0.009,0.034-0.018,0.068-0.027,0.102
	c-0.343,1.254-0.669,2.509-0.983,3.765c-0.103,0.414-0.199,0.827-0.3,1.24c-0.214,0.884-0.423,1.767-0.623,2.65
	c-0.107,0.477-0.211,0.952-0.314,1.429c-0.181,0.835-0.355,1.669-0.522,2.503c-0.096,0.477-0.191,0.953-0.282,1.429
	c-0.169,0.882-0.327,1.762-0.481,2.642c-0.071,0.409-0.147,0.818-0.215,1.227c-0.213,1.281-0.413,2.559-0.592,3.831
	c-0.081,0.576-0.16,1.178-0.238,1.79c-0.02,0.159-0.04,0.319-0.06,0.48c-0.072,0.584-0.143,1.179-0.21,1.792
	c-0.006,0.052-0.012,0.101-0.018,0.153c-0.072,0.656-0.139,1.331-0.203,2.016c-0.016,0.167-0.031,0.336-0.046,0.505
	c-0.056,0.621-0.108,1.252-0.156,1.893c-0.007,0.092-0.015,0.182-0.021,0.274c-0.052,0.717-0.097,1.447-0.137,2.185
	c-0.009,0.174-0.018,0.35-0.027,0.526c-0.032,0.645-0.059,1.296-0.081,1.954c-0.004,0.128-0.01,0.255-0.014,0.383
	c-0.022,0.761-0.036,1.529-0.042,2.303c-0.001,0.172-0.001,0.345-0.001,0.518c-0.002,0.663,0.002,1.331,0.014,2.001
	c0.003,0.155,0.003,0.308,0.007,0.463c0.012,0.54,0.029,1.083,0.05,1.626c0.001,0.03,0.002,0.06,0.003,0.089
	c0.009,0.219,0.018,0.439,0.028,0.658c0.007,0.161,0.018,0.322,0.026,0.483c0.022,0.423,0.045,0.845,0.073,1.269
	c0.017,0.26,0.039,0.515,0.059,0.773c0.013,0.17,0.025,0.34,0.039,0.51c0.023,0.273,0.048,0.546,0.073,0.82
	c0.038,0.414,0.078,0.826,0.122,1.234c0.012,0.112,0.026,0.224,0.039,0.336s0.027,0.224,0.041,0.336
	c0.099,0.84,0.21,1.667,0.335,2.481c0,0.001,0,0.002,0.001,0.003c0.064,0.418,0.122,0.843,0.194,1.254
	c-11.657,7.406-24.425,9.505-36.018,6.366c-6.375-2.129-12.017-5.153-16.609-9.019V111.335c11.092,1.689,20.643,6.292,28.482,13.742
	c0.514,0.489,1.021,0.99,1.52,1.502c3.854,3.957,10.185,4.04,14.141,0.186c3.956-3.854,4.04-10.185,0.186-14.141
	c-0.676-0.693-1.363-1.372-2.064-2.04c-6.277-5.965-13.464-10.631-21.358-13.959C221.504,91.419,235.595,92.38,247.636,99.55z
	 M179.692,27.675c1.477-3.704,5.4-4.601,7.543-3.805c2.952,1.095,3.274,6.657,0.803,13.84c-3.141,9.13-6.545,29.544-8.168,48.392
	c-1.674,0.898-3.371,1.855-5.09,2.866c-2.705-1.591-5.355-3.04-7.951-4.356C169.364,61.466,175.752,37.564,179.692,27.675z
	 M79.176,403.478c0.006-0.139,0.009-0.278,0.009-0.418c0-33.699,6.593-56.064,14.226-81.962
	c8.902-30.199,18.991-64.428,18.991-122.525c0-27.567,5.927-50.255,17.141-65.611c8.834-12.098,20.622-19.325,35.107-21.583V475.91
	c-5.139,4.251-11.609,7.491-19.004,9.608c-8.252,1.649-17.062,0.636-25.854-3.161C99.893,473.766,77.315,447.952,79.176,403.478z"/>
<path d="M464.45,303.108c0.088,0.019,0.179,0.037,0.26,0.053c0.622,0.116,1.243,0.173,1.854,0.173c4.718,0,8.917-3.354,9.817-8.159
	c1.005-5.359-2.467-10.521-7.78-11.631c-0.085-0.018-0.173-0.036-0.252-0.051c-5.428-1.016-10.654,2.558-11.671,7.986
	C455.674,296.836,459.142,301.995,464.45,303.108z"/>
<path d="M357.7,338.59c5.699-11.083,10.239-23.63,12.045-30.597c0.461-1.778,11.092-43.715-6.553-57.449
	c-3.153-2.454-7.59-3.549-14.385-3.549s-11.231,1.094-14.387,3.549c-17.646,13.736-7.013,55.672-6.552,57.45
	c1.808,6.969,6.348,19.516,12.045,30.596c1.713,3.332,5.146,5.427,8.893,5.427C352.554,344.017,355.987,341.922,357.7,338.59z
	 M346.109,267.108c0.605-0.06,1.484-0.113,2.698-0.113c1.206,0,2.082,0.053,2.686,0.112c2.74,4.818,2.289,22.768-1.107,35.866
	c-0.347,1.336-0.88,3.122-1.579,5.224c-0.699-2.102-1.232-3.888-1.579-5.225C343.828,289.863,343.379,271.891,346.109,267.108z"/>
<path d="M323.469,363.461c3.699-0.6,6.751-3.217,7.91-6.781c1.158-3.563,0.226-7.476-2.413-10.135
	c-8.778-8.844-19.308-17.039-25.377-20.911c-1.549-0.988-38.147-24.057-56.662-11.52c-3.309,2.241-5.721,6.122-7.821,12.584
	c-2.1,6.464-2.43,11.023-1.07,14.78c7.609,21.026,50.778,23.874,52.613,23.984c1.638,0.1,3.596,0.153,5.788,0.153
	C303.86,365.615,313.973,365.001,323.469,363.461z M291.856,345.499c-13.519-0.818-30.748-5.944-34.454-10.021
	c0.13-0.594,0.351-1.446,0.726-2.601c0.372-1.146,0.693-1.963,0.936-2.52c5.429-1.119,22.362,4.86,33.767,12.137
	c1.164,0.742,2.699,1.802,4.481,3.116C295.101,345.63,293.233,345.582,291.856,345.499z"/>
<path d="M271.455,444.333c1.109,3.841,4.055,7.334,9.553,11.327c5.303,3.853,9.429,5.593,13.297,5.593
	c0.143,0,0.286-0.003,0.428-0.008c22.348-0.739,38.396-40.916,39.068-42.626c2.634-6.699,6.335-19.518,8.24-31.832
	c0.572-3.703-0.973-7.416-4.005-9.618c-3.031-2.203-7.04-2.524-10.385-0.837c-11.128,5.618-22.175,13.1-27.729,17.673
	C298.504,395.173,265.253,422.851,271.455,444.333z M312.634,409.445c1.065-0.877,2.546-2.009,4.347-3.298
	c-0.669,2.111-1.288,3.87-1.793,5.155c-4.955,12.603-15.153,27.403-20.176,29.671c-0.525-0.308-1.267-0.781-2.249-1.494
	c-0.976-0.709-1.653-1.266-2.107-1.67C291.272,432.302,302.188,418.045,312.634,409.445z"/>
<path d="M363.814,418.619c0.672,1.71,16.72,41.887,39.066,42.626c0.143,0.005,0.285,0.008,0.429,0.008
	c3.869,0,7.996-1.74,13.297-5.592c5.499-3.994,8.445-7.487,9.554-11.328c6.203-21.484-27.048-49.16-28.466-50.328
	c-5.556-4.573-16.603-12.056-27.729-17.673c-3.345-1.688-7.353-1.367-10.385,0.837c-3.031,2.202-4.577,5.915-4.005,9.618
	C357.478,399.101,361.18,411.92,363.814,418.619z M384.982,409.446c10.456,8.607,21.381,22.881,21.984,28.357
	c-0.455,0.404-1.134,0.965-2.116,1.678c-0.976,0.709-1.716,1.181-2.24,1.488c-5.049-2.289-15.234-17.075-20.184-29.666
	c-0.505-1.285-1.124-3.044-1.793-5.155C382.435,407.436,383.916,408.569,384.982,409.446z"/>
<path d="M394.026,325.634c-6.068,3.872-16.597,12.067-25.376,20.91c-2.64,2.659-3.572,6.57-2.414,10.135
	c1.158,3.563,4.21,6.181,7.909,6.781c9.495,1.54,19.605,2.154,27.026,2.154c2.195,0,4.156-0.054,5.795-0.153
	c1.834-0.11,45.002-2.954,52.613-23.984c1.36-3.76,1.03-8.317-1.07-14.778c-2.1-6.462-4.511-10.343-7.822-12.586
	C432.172,301.573,395.575,324.645,394.026,325.634z M438.545,330.347c0.245,0.558,0.567,1.378,0.943,2.534
	c0.373,1.147,0.593,1.995,0.723,2.588c-3.736,4.096-20.947,9.213-34.453,10.029c-1.377,0.083-3.236,0.128-5.455,0.112
	c1.782-1.314,3.316-2.373,4.48-3.115C416.201,335.211,433.152,329.227,438.545,330.347z"/>
<g>
</g>
<g>
</g>
<g>
</g>
<g>
</g>
<g>
</g>
<g>
</g>
<g>
</g>
<g>
</g>
<g>
</g>
<g>
</g>
<g>
</g>
<g>
</g>
<g>
</g>
<g>
</g>
<g>
</g>
</svg>
