<svg height="455pt" viewBox="0 -59 455.49467 455" width="455pt" xmlns="http://www.w3.org/2000/svg"><path d="m360 149.992188c0-12.800782-5.308594-25.027344-14.65625-33.773438s-21.902344-13.222656-34.671875-12.371094l-90.082031 6.007813c9.113281 9.367187 13.8125 22.164062 12.9375 35.199219l-9.832032 147.488281c-1.097656 15.71875-10.148437 29.785156-24 37.296875l110.945313 7.398437c12.769531.863281 25.328125-3.609375 34.679687-12.347656 9.355469-8.738281 14.667969-20.960937 14.679688-33.761719v-14.753906c0-8.398438-2.300781-16.636719-6.65625-23.816406 4.355469-7.179688 6.65625-15.417969 6.65625-23.816406v-16.367188c0-8.398438-2.300781-16.636719-6.65625-23.816406 4.355469-7.179688 6.65625-15.417969 6.65625-23.816406zm0 0" fill="#d95354"/><path d="m440.503906 290.550781-1.519531-4.070312c-12.453125-32.84375-43.863281-54.609375-78.984375-54.738281v-16c41.792969.128906 79.171875 26.03125 93.964844 65.121093l1.53125 4.070313zm0 0" fill="#58af7a"/><path d="m230.460938 198.941406c-4.417969.113282-8.089844-3.375-8.203126-7.792968-.113281-4.417969 3.378907-8.09375 7.796876-8.207032l81.527343-4.230468c4.417969-.21875 8.179688 3.183593 8.402344 7.601562.21875 4.417969-3.183594 8.179688-7.601563 8.398438l-81.503906 4.230468zm0 0" fill="#bf494a"/><path d="m304 263.742188h-77.847656c-4.421875 0-8-3.582032-8-8 0-4.417969 3.578125-8 8-8h77.847656c4.417969 0 8 3.582031 8 8 0 4.417968-3.582031 8-8 8zm0 0" fill="#bf494a"/><path d="m187.382812 95.742188h-14.753906c-8.394531 0-16.632812 2.300781-23.8125 6.65625-7.179687-4.355469-15.417968-6.65625-23.816406-6.65625h-16.371094c-8.394531 0-16.632812 2.300781-23.8125 6.65625-7.179687-4.355469-15.417968-6.65625-23.816406-6.65625h-14.753906c-12.800782 0-25.027344 5.308593-33.773438 14.65625-8.742187 9.347656-13.222656 21.902343-12.371094 34.671874l9.832032 147.472657c1.140625 17.152343 11.703125 32.253906 27.417968 39.210937 15.71875 6.960938 34 4.625 47.464844-6.058594 8.160156 6.507813 18.292969 10.050782 28.734375 10.046876h6.527344c10.433594.011718 20.558594-3.519532 28.71875-10.015626 13.464844 10.683594 31.746094 13.019532 47.464844 6.058594 15.714843-6.957031 26.277343-22.058594 27.417969-39.210937l9.832031-147.503907c.851562-12.769531-3.625-25.320312-12.367188-34.667968-8.742187-9.347656-20.964843-14.652344-33.761719-14.660156zm0 0" fill="#fcb94e"/><path d="m128 95.742188h-16c.125-41.792969 26.03125-79.171876 65.117188-93.96875l4.074218-1.527344 5.597656 14.992187-4.070312 1.519531c-32.835938 12.457032-54.59375 43.867188-54.71875 78.984376zm0 0" fill="#58af7a"/><g fill="#dea345"><path d="m83 303.742188c-4.417969 0-8-3.582032-8-8v-160c0-4.417969 3.582031-8 8-8s8 3.582031 8 8v160c0 4.417968-3.582031 8-8 8zm0 0"/><path d="m146 303.742188h-.296875c-2.121094-.074219-4.128906-.992188-5.574219-2.550782-1.441406-1.554687-2.210937-3.621094-2.128906-5.742187l6-163c.230469-4.386719 3.902344-7.796875 8.292969-7.707031 2.125.078124 4.128906.996093 5.574219 2.550781 1.445312 1.558593 2.210937 3.625 2.132812 5.746093l-6 163c-.160156 4.300782-3.695312 7.707032-8 7.703126zm0 0"/></g></svg>