<svg height="472pt" viewBox="-19 0 471 472" width="472pt" xmlns="http://www.w3.org/2000/svg"><g fill="#58af7a"><path d="m148.78125 228.625-10.398438-4.167969c-7.585937-3.039062-11.929687-11.050781-10.328124-19.066406 1.835937-9.179687 10.769531-15.132813 19.953124-13.292969l2.167969.429688c2.859375.578125 5.832031-.164063 8.089844-2.015625 2.257813-1.847657 3.566406-4.617188 3.5625-7.535157 0-3-1.382813-5.832031-3.746094-7.675781s-5.445312-2.5-8.355469-1.773437c-7.847656 1.960937-16.152343.726562-23.089843-3.429688l-3.847657-2.3125c-9.78125-5.871094-15.769531-16.441406-15.765624-27.847656v-4.167969c0-12.300781 6.949218-23.546875 17.949218-29.050781 11.332032-5.664062 24.917969-4.222656 34.808594 3.6875l10.273438 8.21875c2.558593 2.046875 5.738281 3.164062 9.015624 3.160156h.800782c4.441406.007813 8.644531-2.035156 11.378906-5.539062s3.699219-8.074219 2.613281-12.382813c-1.019531-4.085937-3.777343-7.519531-7.546875-9.398437l-19.199218-9.601563c-7-3.488281-11.429688-10.640625-11.429688-18.464843-.003906-5.980469 2.589844-11.667969 7.109375-15.585938 4.515625-3.917969 10.511719-5.683594 16.433594-4.835938l19.078125 2.71875-8.222656-12.359374c-2.558594-3.839844-3.921876-8.351563-3.917969-12.96875 0-12.902344 10.457031-23.36328175 23.359375-23.367188h14.160156c12.902344.00390625 23.359375 10.464844 23.359375 23.367188 0 4.617187-1.363281 9.128906-3.921875 12.96875l-8.238281 12.375 19.078125-2.71875c5.917968-.839844 11.90625.921874 16.417968 4.839843 4.515626 3.914063 7.109376 9.59375 7.109376 15.566407.003906 7.820312-4.414063 14.96875-11.40625 18.464843l-19.199219 9.601563c-3.769531 1.878906-6.523438 5.3125-7.542969 9.398437-1.089844 4.308594-.125 8.878907 2.613281 12.382813 2.734375 3.503906 6.933594 5.546875 11.378907 5.539062h.796874c3.277344 0 6.453126-1.113281 9.007813-3.160156l10.304687-8.226562c9.894532-7.910157 23.484376-9.351563 34.816407-3.6875 11 5.503906 17.949219 16.75 17.953125 29.050781v4.167969c-.003906 11.40625-5.988282 21.972656-15.769532 27.847656l-3.847656 2.3125c-6.9375 4.15625-15.242187 5.390625-23.085937 3.429687-2.910157-.730469-5.996094-.078125-8.359375 1.769531-2.367188 1.847657-3.746094 4.679688-3.746094 7.679688 0 2.917969 1.304688 5.683594 3.5625 7.53125 2.257812 1.851562 5.222656 2.59375 8.085938 2.019531l2.175781-.429687c9.179687-1.839844 18.109375 4.113281 19.945312 13.292968 1.605469 8.011719-2.734375 16.03125-10.320312 19.066407l-14.777344 5.902343c-21.753906 8.707032-41.339844 22.074219-57.375 39.160157l-4.578125 4.878906h-6.085938c-16.996093-20.230469-38.722656-35.953125-63.257812-45.765625zm0 0"/><path d="m291.023438 385.601562 11.199218 14.992188c3.476563 4.644531 8.925782 7.398438 14.726563 7.4375 5.71875.042969 11.136719-2.550781 14.6875-7.03125s4.835937-10.347656 3.488281-15.902344c-.640625-2.644531.375-5.410156 2.570312-7.015625 2.195313-1.601562 5.140626-1.722656 7.460938-.304687l5.464844 3.335937 10.480468 9.65625c6.496094 6.003907 15.984376 7.484375 24 3.742188 5.871094-2.730469 10.222657-7.929688 11.878907-14.1875 1.65625-6.257813.441406-12.929688-3.308594-18.203125l-2.816406-4c-3.964844-5.546875-3-13.210938 2.214843-17.601563 2.847657-2.410156 6.59375-3.480469 10.289063-2.945312l13.078125 1.875c5.335938.765625 10.703125-1.164063 14.332031-5.152344 3.628907-3.988281 5.039063-9.511719 3.773438-14.753906l-1.890625-7.773438-4.34375-17.921875c-1.269532-5.238281-5.054688-9.507812-10.105469-11.394531s-10.707031-1.144531-15.101563 1.980469l-10.765624 7.664062c-3.042969 2.160156-6.863282 2.917969-10.496094 2.085938-6.625-1.523438-10.972656-7.867188-10.011719-14.589844l.691406-4.800781c.910157-6.402344-1.066406-12.875-5.398437-17.675781-4.335938-4.796876-10.574219-7.421876-17.035156-7.164063-8.824219.351563-16.5625 6-19.59375 14.292969l-4.917969 13.355468-3.335938 5.46875c-1.417969 2.320313-4.089843 3.554688-6.773437 3.136719-2.683594-.421875-4.851563-2.414062-5.492188-5.054687-1.347656-5.554688-5.179687-10.179688-10.386718-12.535156-5.210938-2.355469-11.210938-2.183594-16.277344.472656-5.136719 2.691406-8.71875 7.628906-9.6875 13.351562l-3.589844 21.292969c-3.183594 18.878906-14.34375 35.464844-30.632812 45.523437l-3.015626 1.863282 1.886719 7.773437c20.792969.160157 40.3125 10.042969 52.753907 26.707031zm0 0"/><path d="m144.484375 385.601562-11.199219 14.992188c-3.476562 4.644531-8.925781 7.398438-14.726562 7.4375-5.714844.039062-11.132813-2.554688-14.683594-7.035156-3.550781-4.480469-4.835938-10.34375-3.492188-15.898438.640626-2.644531-.375-5.410156-2.570312-7.015625-2.195312-1.601562-5.140625-1.722656-7.460938-.304687l-5.464843 3.335937-10.472657 9.65625c-6.5 6-15.980468 7.480469-24 3.742188-5.871093-2.730469-10.222656-7.929688-11.878906-14.1875-1.65625-6.257813-.441406-12.929688 3.3125-18.203125l2.8125-4c3.96875-5.546875 3.007813-13.207032-2.207031-17.601563-2.863281-2.40625-6.621094-3.46875-10.320313-2.917969l-13.078124 1.871094c-5.335938.765625-10.703126-1.160156-14.332032-5.148437-3.625-3.988281-5.035156-9.519531-3.765625-14.757813l1.882813-7.773437 4.34375-17.921875c1.273437-5.234375 5.0625-9.496094 10.113281-11.378906 5.046875-1.882813 10.703125-1.136719 15.09375 1.988281l10.765625 7.664062c3.046875 2.160157 6.867188 2.917969 10.503906 2.085938 6.621094-1.527344 10.964844-7.867188 10-14.589844l-.6875-4.800781c-.917968-6.40625 1.058594-12.894532 5.394532-17.699219 4.335937-4.804687 10.585937-7.433594 17.054687-7.171875 8.824219.351562 16.5625 6 19.59375 14.296875l4.886719 13.382813 3.335937 5.472656c1.410157 2.324218 4.085938 3.566406 6.773438 3.144531 2.6875-.417969 4.855469-2.421875 5.492187-5.066406 1.34375-5.558594 5.175782-10.183594 10.382813-12.546875 5.207031-2.359375 11.214843-2.1875 16.28125.46875 5.136719 2.691406 8.71875 7.632812 9.6875 13.351562l3.589843 21.296875c3.183594 18.875 14.347657 35.464844 30.640626 45.519531l3.007812 1.863282-1.878906 7.777344c-20.777344.160156-40.285156 10.027343-52.730469 26.671874zm0 0"/></g><path d="m234.367188 343.664062-9.089844 4.96875-.800782.269532v-68.671875l.386719-13.367188c.015625-.503906-.015625-1.007812-.097656-1.503906-9.855469-61.453125-10.144531-124.058594-.847656-185.597656l.566406-3.90625-15.824219-2.398438-.582031 3.894531c-9.503906 62.921876-9.25 126.933594.75 189.777344l-.34375 12.871094v68.894531l-12.503906-4.167969-5.117188-3.292968c-39.019531-25.238282-85.972656-35.191406-131.875-27.953125l2.488281 15.800781c42.015626-6.601562 84.988282 2.511719 120.707032 25.597656l5.964844 3.855469c.566406.367187 1.171874.660156 1.808593.875l18.527344 6.160156v106.230469h16v-106.230469l18.53125-6.175781-.679687-2.042969c44.472656-24.285156 94.804687-35.789062 145.414062-33.230469l.800781-16c-53.675781-2.71875-107.054687 9.515626-154.183593 35.34375zm0 0" fill="#77c974"/></svg>