<?xml version="1.0" encoding="iso-8859-1"?>
<!-- Generator: Adobe Illustrator 21.0.0, SVG Export Plug-In . SVG Version: 6.00 Build 0)  -->
<svg version="1.1" id="Capa_1" xmlns="http://www.w3.org/2000/svg" xmlns:xlink="http://www.w3.org/1999/xlink" x="0px" y="0px"
	 viewBox="0 0 511.997 511.997" style="enable-background:new 0 0 511.997 511.997;" xml:space="preserve">
<g>
	<path style="fill:#87DD60;" d="M252.135,123.232c-29.919,5.107-61.776-3.885-84.871-26.98s-32.088-54.952-26.98-84.87
		c29.919-5.108,61.776,3.884,84.871,26.979C248.25,61.455,257.243,93.312,252.135,123.232z"/>
	<g>
		<path style="fill:#FFCF33;" d="M190.215,155.371c17.663-0.491,33.208,0.346,46.561,6.948c7.016,3.469,13.427,8.528,19.222,15.823
			c5.386-6.779,11.303-11.628,17.743-15.064c13.68-7.297,29.72-8.216,48.04-7.707c12.317,0,23.815,4.904,33.625,12.8
			c19.004,15.299,31.669,41.83,31.669,65.694c0,65.161-37.462,84.932-37.462,174.52c0,15.263-3.702,29.704-10.254,42.469
			c-0.001,0.001-0.001,0.003-0.001,0.004c-11.393,22.198-31.401,39.326-55.535,46.894h-55.65
			c-24.134-7.568-44.144-24.698-55.537-46.899c-6.551-12.764-10.253-27.205-10.253-42.469c0-89.587-37.462-109.359-37.462-174.52
			c0-23.863,12.665-50.396,31.67-65.694C166.401,160.275,177.898,155.371,190.215,155.371z"/>
		<path style="fill:#FFCF33;" d="M349.614,408.385c0-89.587,37.462-109.359,37.462-174.52c0-23.863-12.665-50.395-31.672-65.692
			c14.045-8.165,30.656-9.188,49.741-8.658c36.182,0,65.293,42.314,65.293,78.494c0,24.158-6.454,42.253-14.576,60.023
			c-4.162,9.107-8.763,18.131-13.158,27.841c-10.158,22.447-19.216,48.572-19.216,87.92c5.693,83.057-106.261,108.485-84.128,37.064
			C345.911,438.093,349.614,423.651,349.614,408.385z"/>
		<path style="fill:#FFCF33;" d="M162.384,408.385c0,15.263,3.702,29.704,10.253,42.469c22.139,71.427-89.819,46-84.127-37.059
			c0-89.587-46.949-110.625-46.949-175.786c0-36.181,29.112-78.493,65.293-78.493c19.084-0.531,35.695,0.492,49.741,8.657
			c-19.005,15.299-31.672,41.828-31.674,65.692C124.922,299.027,162.384,318.798,162.384,408.385z"/>
	</g>
	<path style="fill:#00C56E;" d="M255.999,178.143c-5.794-7.293-12.202-12.354-19.222-15.823c3.649-12.928,9.339-26.679,15.36-39.088
		c7.651-15.768,15.835-29.366,21.044-36.348c11.887-15.931,42.69-3.853,23.239,25.003c-5.332,7.91-15.529,30.181-22.677,51.191
		C267.302,166.515,261.385,171.364,255.999,178.143z"/>
</g>
<path d="M194.447,375.467c0.472,0,0.948-0.033,1.428-0.102c5.468-0.781,9.266-5.848,8.484-11.315
	c-1.765-12.34-4.372-24.561-7.749-36.327c-3.592-12.513-8.143-24.361-12.546-35.821c-1.907-4.965-3.879-10.099-5.741-15.205
	c-1.892-5.188-7.63-7.864-12.82-5.969c-5.189,1.892-7.861,7.632-5.969,12.82c1.92,5.267,3.923,10.482,5.86,15.525
	c4.443,11.567,8.641,22.493,11.992,34.168c3.125,10.886,5.539,22.204,7.174,33.639C185.272,371.869,189.551,375.467,194.447,375.467
	z"/>
<path d="M196.705,384.098c-5.52,0.209-9.824,4.853-9.615,10.371l0.025,0.596c0.232,5.371,4.658,9.568,9.982,9.568
	c0.145,0,0.293-0.003,0.439-0.01c5.518-0.238,9.798-4.904,9.559-10.422l-0.02-0.488C206.867,388.193,202.23,383.907,196.705,384.098
	z"/>
<path d="M46.736,208.843c1.452,0.739,3.001,1.089,4.526,1.089c3.643,0,7.155-1.998,8.921-5.468l0.052-0.102
	c2.54-4.904,0.623-10.939-4.281-13.479c-4.904-2.54-10.938-0.624-13.479,4.281l-0.118,0.231
	C39.853,200.318,41.813,206.339,46.736,208.843z"/>
<path d="M451.294,307.81c-4.969-2.411-10.952-0.331-13.362,4.638l-0.095,0.199c-2.352,4.997-0.21,10.96,4.787,13.311
	c1.378,0.648,2.827,0.955,4.255,0.955c3.751,0,7.346-2.12,9.049-5.74c0,0,0.003-0.005,0.003-0.006
	C458.34,316.199,456.264,310.219,451.294,307.81z"/>
<path d="M405.289,149.515c-18.92-0.516-34.78,0.555-48.965,6.953c-10.237-6.901-21.902-11.065-34.397-11.098
	c-10.485-0.288-21.143-0.215-31.472,1.642c5.426-13.271,11.006-24.712,14.257-29.535c13.92-20.651,7.522-36.022-2.185-42.91
	c-11.766-8.348-28.526-5.503-37.362,6.337c-1.129,1.514-2.372,3.292-3.692,5.277c-4.059-20.535-14.09-39.736-29.247-54.893
	C207.757,6.819,172.754-4.309,138.601,1.523l-6.982,1.192l-1.192,6.983c-5.831,34.154,5.297,69.154,29.767,93.624
	c20.185,20.184,47.529,31.288,75.66,31.288c0.055,0,0.11-0.003,0.165-0.003c-2.007,4.805-3.882,9.672-5.556,14.511
	c-13.033-3.896-26.86-4.12-40.393-3.748c-12.494,0.033-24.159,4.197-34.397,11.098c-14.184-6.397-30.041-7.471-48.965-6.954
	c-17.018,0.046-33.989,8.002-47.801,22.414c-3.821,3.987-3.687,10.317,0.301,14.139c3.987,3.819,10.315,3.689,14.139-0.301
	c7.105-7.414,18.686-16.252,33.507-16.252c0.093,0,0.186-0.001,0.277-0.004c12.072-0.332,22.521,0.01,31.58,2.238
	c-1.236,1.454-2.419,2.967-3.575,4.505c-0.348,0.461-0.693,0.924-1.033,1.391c-0.367,0.506-0.73,1.014-1.088,1.527
	c-0.489,0.699-0.966,1.407-1.438,2.12c-0.27,0.41-0.54,0.819-0.805,1.232c-0.542,0.846-1.069,1.702-1.586,2.564
	c-0.183,0.305-0.367,0.608-0.547,0.915c-0.584,0.997-1.149,2.006-1.7,3.022c-0.104,0.192-0.211,0.383-0.314,0.576
	c-0.615,1.152-1.207,2.315-1.778,3.488c-0.036,0.074-0.074,0.147-0.109,0.221c-1.241,2.564-2.374,5.176-3.395,7.82
	c-0.002,0.006-0.004,0.011-0.006,0.017c-0.509,1.317-0.988,2.643-1.44,3.974c-0.013,0.039-0.026,0.078-0.039,0.117
	c-0.438,1.297-0.849,2.6-1.231,3.907c-0.021,0.071-0.041,0.141-0.061,0.212c-0.371,1.276-0.714,2.555-1.031,3.837
	c-0.024,0.098-0.048,0.195-0.071,0.293c-0.306,1.259-0.586,2.52-0.839,3.781c-0.023,0.115-0.046,0.229-0.069,0.344
	c-0.245,1.251-0.464,2.501-0.655,3.751c-0.018,0.12-0.038,0.24-0.055,0.359c-0.187,1.257-0.346,2.513-0.477,3.766
	c-0.011,0.105-0.023,0.21-0.034,0.315c-0.129,1.284-0.228,2.565-0.297,3.842c-0.004,0.069-0.009,0.139-0.013,0.208
	c-0.069,1.341-0.105,2.678-0.105,4.007c0,4.98,0.204,9.705,0.581,14.22c0.151,1.806,0.33,3.578,0.535,5.32
	c0.41,3.483,0.923,6.843,1.524,10.102c3.157,17.112,8.746,31.46,14.546,46.352c7.164,18.393,14.504,37.238,18.066,63.637
	c1.394,10.33,2.209,21.818,2.209,34.889c0,0.971,0.016,1.938,0.043,2.903c0.004,0.151,0.012,0.302,0.017,0.453
	c0.028,0.864,0.065,1.726,0.114,2.584c0.003,0.049,0.006,0.098,0.009,0.147c0.84,14.428,4.645,28.07,10.814,40.331
	c3.49,11.841,2.775,20.573-2.046,24.644c-5.629,4.751-17.576,4.005-29.056-1.811c-17.81-9.025-36.04-30.356-33.792-63.158
	c0.016-0.228,0.024-0.455,0.024-0.684c0-50.635-14.481-80.687-27.257-107.203c-10.566-21.931-19.692-40.872-19.692-68.581
	c0-2.787,0.206-5.686,0.613-8.617c0.759-5.471-3.061-10.521-8.53-11.28c-5.474-0.753-10.521,3.06-11.28,8.53
	c-0.532,3.839-0.803,7.664-0.803,11.367c0,32.276,10.528,54.128,21.675,77.263c12.396,25.726,25.213,52.325,25.274,98.19
	c-2.761,42.352,21.268,70.125,44.727,82.013c9.41,4.768,18.872,7.146,27.507,7.146c9.092,0,17.266-2.636,23.492-7.893
	c2.96-2.499,6.556-6.577,8.883-12.765c18.733,18.557,44.489,30.036,72.878,30.036s54.145-11.479,72.878-30.036
	c2.327,6.189,5.923,10.266,8.883,12.766c6.227,5.257,14.398,7.893,23.491,7.893c8.635,0,18.099-2.378,27.507-7.146
	c23.459-11.888,47.488-39.662,44.728-82.012c0.031-23.518,3.361-43.903,10.475-64.124c0.577-1.642,1.19-3.313,1.822-4.968
	c1.97-5.16-0.617-10.94-5.776-12.909c-5.161-1.967-10.94,0.616-12.909,5.776c-0.694,1.819-1.368,3.657-2.004,5.464
	c-7.919,22.513-11.607,45.104-11.607,71.091c0,0.228,0.008,0.456,0.023,0.684c2.248,32.802-15.98,54.133-33.791,63.157
	c-11.482,5.819-23.429,6.563-29.056,1.812c-4.823-4.072-5.537-12.804-2.045-24.648c6.167-12.257,9.971-25.897,10.811-40.323
	c0.003-0.051,0.007-0.102,0.01-0.153c0.049-0.858,0.086-1.719,0.114-2.582c0.005-0.151,0.013-0.302,0.017-0.453
	c0.027-0.965,0.043-1.932,0.043-2.903c0-46.473,10.308-72.935,20.276-98.526c8.838-22.69,17.185-44.122,17.185-75.993
	c0-1.329-0.036-2.666-0.105-4.008c-0.004-0.069-0.009-0.138-0.013-0.207c-0.069-1.277-0.167-2.559-0.297-3.844
	c-0.01-0.104-0.023-0.208-0.034-0.313c-0.131-1.255-0.29-2.511-0.477-3.77c-0.018-0.118-0.037-0.236-0.055-0.355
	c-0.191-1.252-0.41-2.505-0.656-3.757c-0.022-0.113-0.045-0.225-0.067-0.337c-0.253-1.265-0.534-2.53-0.841-3.793
	c-0.023-0.093-0.045-0.186-0.068-0.279c-0.317-1.287-0.663-2.572-1.035-3.853c-0.019-0.065-0.037-0.131-0.056-0.196
	c-0.384-1.313-0.797-2.622-1.237-3.926c-0.011-0.033-0.022-0.066-0.033-0.098c-1.362-4.015-2.983-7.974-4.847-11.826
	c-0.031-0.064-0.064-0.128-0.095-0.192c-0.576-1.184-1.173-2.358-1.794-3.52c-0.097-0.182-0.198-0.362-0.296-0.543
	c-0.557-1.028-1.128-2.048-1.719-3.056c-0.173-0.296-0.351-0.587-0.526-0.881c-0.524-0.874-1.059-1.743-1.608-2.6
	c-0.257-0.402-0.52-0.8-0.782-1.198c-0.479-0.725-0.965-1.444-1.461-2.155c-0.35-0.502-0.706-0.999-1.064-1.493
	c-0.422-0.582-0.85-1.159-1.284-1.73c-1.082-1.427-2.187-2.831-3.338-4.185c9.059-2.229,19.509-2.572,31.581-2.238
	c0.092,0.003,0.185,0.004,0.277,0.004c18.507,0,31.962,13.682,38.335,21.836c10.618,13.589,16.958,31.03,16.958,46.658
	c0,14.814-2.517,28.025-8.16,42.835c-1.967,5.16,0.623,10.938,5.784,12.905c5.162,1.966,10.939-0.623,12.905-5.784
	c6.461-16.956,9.471-32.831,9.471-49.956C480.436,197.133,447.62,149.626,405.289,149.515z M174.336,89.179
	c-18.162-18.161-27.281-43.466-25.12-68.867c25.397-2.157,50.707,6.955,68.868,25.118c18.161,18.161,27.28,43.466,25.12,68.869
	C217.794,116.46,192.497,107.34,174.336,89.179z M258.917,132.219c7.328-14.902,17.813-33.37,22.279-39.354
	c2.8-3.753,7.548-3.556,9.759-1.986c3.11,2.206,2,8.259-2.826,15.419c-6.003,8.906-15.648,30.301-22.601,49.958
	c-3.274,2.031-6.457,4.419-9.528,7.23c-2.378-2.178-4.825-4.101-7.328-5.802C251.527,149.092,255.111,140.399,258.917,132.219
	 M361.253,302.599c-10.144,26.04-21.64,55.556-21.64,105.786c0,1.334-0.039,2.658-0.101,3.977c-0.008,0.166-0.013,0.332-0.022,0.498
	c-0.069,1.293-0.167,2.579-0.294,3.857c-0.014,0.143-0.029,0.285-0.044,0.428c-0.138,1.322-0.303,2.637-0.502,3.941
	c-0.003,0.018-0.006,0.036-0.009,0.054c-0.207,1.344-0.446,2.677-0.716,3.999c-0.007,0.036-0.014,0.072-0.021,0.108
	c-0.246,1.195-0.526,2.378-0.822,3.555c-0.075,0.297-0.15,0.593-0.229,0.889c-0.268,1.016-0.556,2.023-0.861,3.023
	c-0.17,0.553-0.351,1.102-0.532,1.652c-0.126,0.385-0.258,0.768-0.39,1.151c-1.272,3.665-2.804,7.26-4.607,10.772
	c-0.088,0.171-0.163,0.348-0.241,0.524C316.281,473.629,288.253,492,255.998,492c-32.253,0-60.278-18.367-74.22-45.181
	c-0.079-0.178-0.155-0.357-0.244-0.53c-1.806-3.519-3.34-7.121-4.614-10.793c-0.127-0.369-0.254-0.738-0.376-1.109
	c-0.185-0.559-0.369-1.119-0.542-1.682c-0.303-0.993-0.588-1.994-0.855-3.002c-0.081-0.304-0.158-0.608-0.235-0.913
	c-0.295-1.171-0.574-2.347-0.818-3.537c-0.009-0.043-0.016-0.087-0.025-0.13c-0.268-1.314-0.506-2.639-0.712-3.975
	c-0.003-0.022-0.007-0.044-0.011-0.067c-0.199-1.301-0.363-2.614-0.502-3.934c-0.015-0.145-0.03-0.289-0.044-0.434
	c-0.127-1.276-0.225-2.56-0.294-3.853c-0.009-0.167-0.014-0.334-0.022-0.5c-0.062-1.318-0.101-2.642-0.101-3.975
	c0-50.23-11.496-79.745-21.639-105.786c-8.49-21.796-15.822-40.62-15.822-68.733c0-0.854,0.027-1.716,0.064-2.58
	c0.011-0.258,0.024-0.517,0.039-0.775c0.038-0.684,0.09-1.371,0.151-2.06c0.04-0.439,0.085-0.878,0.134-1.318
	c0.054-0.497,0.114-0.995,0.18-1.494c0.07-0.522,0.145-1.044,0.227-1.567c0.024-0.154,0.051-0.308,0.076-0.461
	c2.965-17.994,13.27-36.538,27.07-47.647c0.065-0.052,0.12-0.114,0.184-0.168c6.998-5.615,16.193-10.424,27.166-10.424
	c0.093,0,0.186-0.001,0.278-0.004c2.508-0.069,4.93-0.108,7.274-0.108c22.904,0,38.19,3.734,50.4,19.105
	c1.898,2.388,4.78,3.779,7.83,3.779c3.05,0,5.933-1.392,7.83-3.779c13.46-16.943,30.663-19.746,57.675-18.996
	c0.093,0.003,0.186,0.004,0.278,0.004c10.972,0,20.168,4.809,27.165,10.424c0.064,0.054,0.119,0.115,0.184,0.168
	c13.803,11.111,24.11,29.659,27.073,47.656c0.024,0.15,0.051,0.3,0.074,0.449c0.083,0.524,0.158,1.047,0.228,1.57
	c0.066,0.499,0.125,0.996,0.18,1.493c0.049,0.44,0.095,0.88,0.134,1.319c0.061,0.689,0.113,1.376,0.151,2.06
	c0.015,0.259,0.028,0.517,0.039,0.775c0.037,0.864,0.064,1.726,0.064,2.58C377.075,261.979,369.743,280.802,361.253,302.599z"/>
<g>
</g>
<g>
</g>
<g>
</g>
<g>
</g>
<g>
</g>
<g>
</g>
<g>
</g>
<g>
</g>
<g>
</g>
<g>
</g>
<g>
</g>
<g>
</g>
<g>
</g>
<g>
</g>
<g>
</g>
</svg>
