<?xml version="1.0" encoding="iso-8859-1"?>
<!-- Generator: Adobe Illustrator 21.0.0, SVG Export Plug-In . SVG Version: 6.00 Build 0)  -->
<svg version="1.1" id="Capa_1" xmlns="http://www.w3.org/2000/svg" xmlns:xlink="http://www.w3.org/1999/xlink" x="0px" y="0px"
	 viewBox="0 0 512 512" style="enable-background:new 0 0 512 512;" xml:space="preserve">
<g>
	<path style="fill:#FD4848;" d="M187.321,126.015c-6.507-3.786-13.403-6.969-20.61-9.472c-12.08-4.195-25.034-6.477-38.497-6.477
		C63.196,110.066,10,163.261,10,228.279c4.925,124.869,141.297,168.565,170.754,242.358c9.838-25.71,36.236-48.638,66.064-73.29
		c-11.994-23.64-13.807-52.989-2.663-80.172c0.322-0.786,0.655-1.569,0.999-2.352c29.32-64.381,76.968-82.552,119.355-92.062
		c-2.908-62.482-54.913-112.696-118.08-112.696c-16.779,0-32.769,3.545-47.261,9.92
		C195.095,121.777,191.141,123.792,187.321,126.015z"/>
	<path style="fill:#F3F3C2;" d="M364.508,222.758c-42.387,9.512-90.034,27.683-119.355,92.064c-0.344,0.782-0.677,1.566-0.999,2.352
		c-11.143,27.183-9.325,56.528,2.669,80.167c-0.002,0.002-0.004,0.003-0.005,0.005c8.737,17.219,22.875,31.411,41.345,39.532
		c14.73,6.477,30.442,8.31,45.635,6.15c8.677,12.655,20.649,22.995,35.38,29.471c44.558,19.592,98.116-3.273,119.019-50.811
		c48.046-113.269-44.392-172.907-47.842-220.997C424.299,213.427,395.84,215.727,364.508,222.758L364.508,222.758z M330.798,359.131
		c-11.131-23.638,0.366-49.402,25.549-57.252l45.789-14.273l20.627,43.804c11.131,23.638-0.366,49.402-25.549,57.252l-45.789,14.273
		L330.798,359.131z"/>
	<path style="fill:#FF8244;" d="M356.348,301.879c-25.183,7.85-36.681,33.615-25.549,57.252l20.627,43.804l45.789-14.273
		c25.183-7.85,36.681-33.614,25.549-57.252l-20.627-43.804L356.348,301.879z"/>
	<path style="fill:#AA836D;" d="M199.167,119.986c-0.253-9.237,0.031-19.233,0.631-28.366c0.801-12.203,2.165-22.867,3.564-28.125
		c8.165-30.69-22.005-31.917-27.503-14.63c-3.888,12.224-9.32,41.626-9.147,67.679c7.207,2.503,14.102,5.686,20.61,9.472
		C191.141,123.792,195.095,121.777,199.167,119.986z"/>
	<path style="fill:#00C56E;" d="M199.797,91.619c19.838,11.869,44.937,14.26,67.7,4.224c22.763-10.037,37.926-30.18,42.543-52.833
		c-19.838-11.87-44.937-14.262-67.7-4.225S204.414,68.967,199.797,91.619z"/>
</g>
<path d="M463.972,441.17l-0.212,0.235c-3.669,4.128-3.297,10.448,0.831,14.118c1.905,1.693,4.276,2.525,6.64,2.525
	c2.757,0,5.502-1.134,7.479-3.356l0.073-0.083c3.712-4.09,3.404-10.414-0.685-14.125
	C474.007,436.772,467.681,437.081,463.972,441.17z"/>
<path d="M472.042,246.615c-11.153-18.07-20.785-33.677-21.715-46.64c-0.266-3.698-2.556-6.946-5.949-8.438
	c-3.392-1.49-7.334-0.984-10.24,1.32c-10.182,8.077-28.193,11.527-49.049,15.523c-3.786,0.725-7.685,1.473-11.672,2.274
	c-3.939-28.429-17.336-54.685-38.435-74.893c-16.952-16.237-37.598-27.319-59.897-32.446c22.985-11.457,39.592-32.982,44.753-58.308
	l1.414-6.941l-6.078-3.637c-23.31-13.946-52.045-15.74-76.869-4.794c-9.151,4.035-17.379,9.635-24.398,16.425
	c-2.36-9.78-9.194-15.379-16.168-17.415c-13.088-3.816-27.18,3.888-31.41,17.188c-3.45,10.847-8.025,34.129-9.287,57.548
	c-8.378-1.948-16.953-3.057-25.576-3.274c-5.504-0.107-10.109,4.224-10.249,9.745c-0.139,5.521,4.224,10.109,9.745,10.249
	c12.487,0.314,24.855,2.84,36.469,7.385c-30.717,24.178-49.216,61.382-49.216,100.793v13.802c0,5.522,4.478,10,10,10
	c5.523,0,10-4.478,10-10v-13.802c0-38.321,20.743-74.193,54.136-93.62c0.004-0.002,0.007-0.005,0.011-0.007
	c0.956-0.556,1.921-1.094,2.892-1.619c0.295-0.16,0.594-0.312,0.891-0.469c0.712-0.376,1.425-0.749,2.144-1.109
	c0.279-0.14,0.56-0.275,0.84-0.413c0.792-0.388,1.588-0.769,2.389-1.137c0.185-0.085,0.37-0.169,0.554-0.253
	c13.901-6.292,29.04-9.586,44.357-9.586c55.147,0,100.831,41.086,107.401,94.95c-40.989,10.279-84.932,30.137-114.096,87.994
	c-0.111,0.22-0.222,0.441-0.332,0.662c-0.446,0.893-0.888,1.794-1.327,2.705c-0.137,0.283-0.274,0.565-0.41,0.85
	c-0.542,1.138-1.08,2.285-1.611,3.451c-0.019,0.04-0.036,0.079-0.054,0.119c-0.36,0.819-0.709,1.642-1.049,2.466
	c-0.129,0.313-0.25,0.628-0.376,0.941c-0.204,0.509-0.41,1.019-0.606,1.53c-0.152,0.395-0.295,0.791-0.442,1.187
	c-0.159,0.43-0.321,0.859-0.475,1.29c-0.16,0.448-0.312,0.897-0.466,1.346c-0.129,0.375-0.258,0.749-0.383,1.124
	c-0.164,0.496-0.322,0.994-0.479,1.492c-0.103,0.325-0.206,0.65-0.305,0.976c-0.166,0.544-0.326,1.09-0.483,1.636
	c-0.078,0.271-0.157,0.542-0.233,0.814c-0.168,0.6-0.33,1.201-0.487,1.802c-0.055,0.208-0.109,0.417-0.162,0.625
	c-0.17,0.664-0.333,1.329-0.49,1.994c-0.031,0.131-0.062,0.263-0.092,0.394c-0.172,0.742-0.337,1.485-0.492,2.228
	c-0.007,0.034-0.014,0.068-0.021,0.101c-4.327,20.719-2.491,42.076,5.466,61.506c0.032,0.079,0.063,0.159,0.095,0.238
	c0.007,0.017,0.014,0.035,0.021,0.052c-22.045,18.402-41.387,35.857-53.721,54.528c-14.563-23.004-37.66-43.278-61.828-64.494
	C71.767,343.12,22.934,300.253,20,228.082c0.066-35.904,18.027-69.399,48.077-89.633c3.962-2.669,8.139-5.097,12.412-7.215
	c4.949-2.453,6.972-8.452,4.52-13.4s-8.454-6.972-13.4-4.52c-5.064,2.51-10.012,5.386-14.703,8.546
	C21.272,145.853,0,185.635,0,228.279c0,0.132,0.003,0.263,0.008,0.395c3.19,80.867,57.698,128.717,105.79,170.934
	c28.369,24.903,55.166,48.427,65.669,74.737c1.518,3.803,5.197,6.293,9.286,6.293c0.024,0,0.049,0,0.072,0
	c4.118-0.029,7.797-2.58,9.269-6.426c7.884-20.603,28.748-40.344,54.077-61.645c9.936,14.724,23.601,26.27,39.966,33.466
	c14.081,6.191,29.53,8.775,45.014,7.562c9.576,12.23,21.918,21.867,36.001,28.059c11.893,5.229,24.652,7.812,37.505,7.811
	c18.241,0,36.668-5.203,53.054-15.421c4.685-2.923,6.116-9.091,3.193-13.777c-2.923-4.685-9.089-6.115-13.777-3.193
	c-22.315,13.917-49.205,16.263-71.923,6.272c-12.502-5.497-23.276-14.478-31.156-25.973c-2.15-3.135-5.899-4.784-9.655-4.245
	c-13.797,1.963-27.699,0.094-40.202-5.403c-16.144-7.098-28.976-19.652-36.901-35.836c-0.375-0.762-0.737-1.528-1.088-2.299
	c-0.352-0.78-0.699-1.563-1.029-2.359c-0.084-0.202-0.172-0.402-0.254-0.605c-0.482-1.19-0.942-2.395-1.374-3.618
	c-5.923-16.807-6.393-34.978-1.508-52.269c0.003-0.012,0.006-0.024,0.01-0.036c0.347-1.227,0.728-2.448,1.129-3.666
	c0.06-0.182,0.12-0.365,0.181-0.547c0.391-1.161,0.806-2.318,1.245-3.469c0.074-0.194,0.153-0.388,0.228-0.583
	c0.457-1.171,0.932-2.338,1.44-3.496c0.005-0.012,0.01-0.024,0.015-0.036c0.032-0.07,0.065-0.139,0.097-0.209
	c0.447-0.979,0.899-1.946,1.356-2.902c0.105-0.221,0.213-0.438,0.318-0.658c0.426-0.884,0.855-1.762,1.289-2.627
	c0.041-0.082,0.082-0.164,0.124-0.246c32.93-65.374,87.366-75.808,131.385-84.241c16.925-3.242,32.185-6.166,44.641-11.729
	c4.319,12.938,12.479,26.159,21.531,40.824c24.323,39.409,54.595,88.453,23.964,160.665c-2.156,5.085,0.217,10.955,5.301,13.111
	c5.087,2.159,10.955-0.218,13.111-5.301C532.068,343.864,497.375,287.656,472.042,246.615z M246.374,47.936
	c16.63-7.332,35.568-7.153,51.972,0.232c-5.61,17.092-18.253,31.193-34.883,38.526c-16.629,7.334-35.568,7.156-51.971-0.23
	C217.103,69.371,229.746,55.268,246.374,47.936z M176.793,109.679c0.684-23.093,5.322-47.492,8.595-57.784
	c1.129-3.547,4.71-4.648,6.747-4.05c2.799,0.816,3.427,6.072,1.563,13.077c-1.535,5.77-2.995,16.786-3.85,29.443l-0.049,0.242v0.512
	c-0.473,7.238-0.748,14.982-0.725,22.575c-0.586,0.295-1.171,0.596-1.752,0.899c-1.031-0.539-2.071-1.059-3.115-1.57
	c-0.142-0.069-0.286-0.137-0.428-0.206c-0.952-0.461-1.91-0.91-2.872-1.347c-0.085-0.038-0.169-0.077-0.254-0.115
	C179.373,110.778,178.088,110.214,176.793,109.679z"/>
<path d="M127.865,281.209c5.523,0,10-4.477,10-10v-0.461c0-5.523-4.477-10-10-10c-5.522,0-10,4.477-10,10v0.461
	C117.865,276.732,122.343,281.209,127.865,281.209z"/>
<path d="M101.106,123.222c0.784,0,1.581-0.093,2.376-0.286c5.374-1.272,8.699-6.661,7.426-12.035
	c-1.273-5.375-6.67-8.697-12.035-7.426l-0.169,0.04c-5.366,1.306-8.633,6.708-7.328,12.074
	C92.487,120.161,96.597,123.222,101.106,123.222z"/>
<path d="M411.183,283.344c-2.127-4.516-7.255-6.774-12.022-5.286l-45.79,14.273c-15.064,4.696-26.662,14.79-32.657,28.423
	c-5.929,13.483-5.561,28.625,1.037,42.637l20.627,43.804c1.686,3.581,5.262,5.741,9.047,5.741c0.987,0,1.99-0.147,2.976-0.455
	l45.789-14.273c15.065-4.695,26.662-14.789,32.658-28.422c5.929-13.483,5.561-28.625-1.037-42.638L411.183,283.344z
	 M414.538,361.734c-3.631,8.259-10.841,14.43-20.3,17.379l-37.476,11.682l-16.917-35.926c-4.096-8.698-4.389-17.955-0.823-26.064
	c3.632-8.259,10.841-14.431,20.301-17.38l37.477-11.682l16.917,35.925C417.813,344.369,418.106,353.626,414.538,361.734z"/>
<g>
</g>
<g>
</g>
<g>
</g>
<g>
</g>
<g>
</g>
<g>
</g>
<g>
</g>
<g>
</g>
<g>
</g>
<g>
</g>
<g>
</g>
<g>
</g>
<g>
</g>
<g>
</g>
<g>
</g>
</svg>
