<svg height="440pt" viewBox="-61 0 440 440.62363" width="440pt" xmlns="http://www.w3.org/2000/svg"><path d="m162.953125 316.878906-.320313.242188c-10.871093 35.15625-31.316406 66.597656-59.039062 90.800781l-25.042969 21.839844c-12.347656 10.738281-29.613281 13.789062-44.894531 7.925781-15.277344-5.863281-26.074219-19.683594-28.0625-35.925781l-3.761719-31.121094c-1.023437-8.175781-1.53125-16.402344-1.519531-24.640625.03125-44.523438 14.734375-87.796875 41.839844-123.121094 4.078125 1.28125 63.039062-86.238281 67.441406-86.238281 1.917969 0 136 56 136 56 1.117188 8.480469-88.082031 117.839844-82.640625 124.238281zm0 0" fill="#7ed39c"/><path d="m53.59375 409.257812-16-1.234374.558594-7.289063c4.855468-64.589844 29.808594-126.042969 71.359375-175.734375l17.902343-21.488281 22.488282-2.398438-28.070313 34.132813c-39.421875 47.140625-63.097656 105.4375-67.703125 166.714844zm0 0" fill="#2e8059"/><path d="m110.160156 355.609375c-10.96875-27.363281-16.59375-56.570313-16.566406-86.050781v-1.597656l-1.050781 1.046874c-17.355469 17.371094-37.40625 31.824219-59.375 42.800782l-7.152344-14.320313c20.421875-10.207031 39.0625-23.644531 55.199219-39.792969l14.707031-14.703124c2.285156-2.296876 5.730469-2.988282 8.722656-1.753907 2.996094 1.238281 4.949219 4.160157 4.949219 7.402344v20.917969c-.027344 27.445312 5.210938 54.640625 15.429688 80.113281zm0 0" fill="#2e8059"/><path d="m79.9375 406.296875c-14.671875-14.585937-23.820312-33.816406-25.875-54.402344-8.304688 10.675781-17.261719 20.828125-26.816406 30.402344l-11.308594-11.3125c10.367188-10.386719 19.992188-21.496094 28.796875-33.242187l10.457031-13.902344c2.066406-2.753906 5.664063-3.878906 8.929688-2.789063 3.265625 1.089844 5.472656 4.144531 5.472656 7.589844v14.0625c-.054688 19.621094 7.742188 38.445313 21.652344 52.28125zm0 0" fill="#2e8059"/><path d="m253.59375 16.640625 48-4.082031 5.199219 1.042968-8.160157 42.078126 11.679688 42.160156c20.34375 73.039062-2.726562 151.28125-59.441406 201.601562l-24.878906 22c-14.121094 12.492188-34.605469 14.675782-51.039063 5.4375-4.582031-2.566406-8.648437-5.957031-12-10-5.507813-6.464844-9.035156-14.382812-10.160156-22.800781l-4-31.039063c-2.566407-19.648437-2.242188-39.566406.957031-59.117187 15.523438-7.042969 83.523438-166.882813 103.84375-187.28125zm0 0" fill="#77c974"/><path d="m212.496094 300.640625-13.808594-8 11.046875-18.929687c29.203125-49.949219 48.234375-105.183594 56-162.519532l16-106.597656 15.859375 2.160156-16 106.597656c-8.050781 59.417969-27.769531 116.65625-58.027344 168.425782zm0 0" fill="#2e8059"/><path d="m269.59375 264.640625h-16c-.011719-9.28125-2.171875-18.433594-6.3125-26.738281l-4.976562-9.957032-5.160157 3.09375c-19.199219 11.519532-41.164062 17.601563-63.550781 17.601563v-16c19.484375 0 38.609375-5.292969 55.316406-15.320313l12.5625-7.535156c1.90625-1.15625 4.214844-1.445312 6.351563-.800781 2.144531.621094 3.929687 2.109375 4.925781 4.105469l8.84375 17.664062c5.242188 10.527344 7.980469 22.125 8 33.886719zm0 0" fill="#2e8059"/><path d="m303.734375 216.457031c-7.554687-18.960937-20.707031-35.171875-37.703125-46.472656-2.1875-1.472656-4.957031-1.769531-7.40625-.800781-25.46875 10.230468-52.667969 15.476562-80.113281 15.457031h-4.917969v16h4.917969c28.015625.027344 55.800781-5.054687 81.992187-14.992187 12.703125 9.355468 22.53125 22.085937 28.367188 36.742187l7.097656 18.402344c3.457031-6.753907 6.527344-13.699219 9.191406-20.800781zm0 0" fill="#2e8059"/><path d="m317.59375 151.039062c0-1.3125-.105469-2.632812-.136719-3.941406-7.082031-16.109375-20.644531-28.476562-37.335937-34.042968-2.339844-.789063-4.917969-.445313-6.96875.929687l-4 2.6875c-11.710938 7.820313-25.480469 11.984375-39.558594 11.96875v16c17.230469.011719 34.078125-5.085937 48.40625-14.65625l.617188-.410156c11.382812 4.84375 20.363281 14.035156 24.941406 25.53125l11.320312 28c1.773438-10.597657 2.679688-21.320313 2.714844-32.066407zm0 0" fill="#2e8059"/><path d="m278.390625 9.679688 15.203125-5.121094 13.679688 6.722656-.480469 2.320312-5.199219-1.042968-1.042969 1.042968c-20.339843 20.394532-35.675781 45.234376-44.800781 72.558594-11.882812 35.554688-33.570312 67.03125-62.558594 90.800782-13.246094 10.835937-27.847656 19.898437-43.441406 26.960937-17.773438 8.074219-36.644531 13.492187-56 16.078125l-32.878906 4.398438c-1.9375.253906-3.886719.386718-5.839844.402343-4.363281.011719-8.707031-.636719-12.878906-1.921875-12.441406-3.8125-22.578125-12.90625-27.707032-24.863281-5.132812-11.960937-4.742187-25.570313 1.066407-37.214844l14-28c34.371093-68.769531 104.640625-112.21875 181.519531-112.242187 22.890625-.003906 45.632812-3.679688 67.359375-10.878906zm0 0" fill="#58af7a"/><g fill="#2e8059"><path d="m52.40625 196.832031-13.597656-8.382812c42.488281-69.195313 104.714844-124.085938 178.671875-157.601563l67.480469-30.847656 18.328124 9.335938-79.199218 36.078124c-71.066406 32.199219-130.859375 84.933594-171.683594 151.417969zm0 0"/><path d="m58.03125 135.296875-8.878906-13.3125c16.953125-11.324219 36.890625-17.359375 57.28125-17.34375h3.160156v16h-3.160156c-17.230469-.015625-34.074219 5.085937-48.402344 14.65625zm0 0"/><path d="m157.703125 161.960938-1.296875-7.769532c-4.074219-24.335937-4.199219-49.171875-.367188-73.550781-20.402343.199219-40.714843 2.800781-60.511718 7.742187l-3.871094-15.519531c21.886719-5.460937 44.359375-8.222656 66.917969-8.222656h7.019531c2.402344 0 4.675781 1.078125 6.195312 2.9375 1.519532 1.863281 2.125 4.308594 1.644532 6.660156-5.113282 25.496094-5.539063 51.707031-1.25 77.355469l1.296875 7.757812zm0 0"/><path d="m125.953125 196.246094-2.351563-4.644532c-12.046874-23.722656-19.207031-49.621093-21.050781-76.160156l-.160156-2.25 16-1.101562.152344 2.230468c1.699219 24.414063 8.285156 48.238282 19.367187 70.054688l2.355469 4.65625zm0 0"/><path d="m206.390625 132.214844c-11.160156-22.273438-15.390625-47.378906-12.152344-72.078125l1.953125-15.039063 15.855469 2.054688-1.949219 15.039062c-2.796875 21.554688.929688 43.453125 10.695313 62.871094zm0 0"/></g></svg>