<?xml version="1.0" encoding="iso-8859-1"?>
<!-- Generator: Adobe Illustrator 21.0.0, SVG Export Plug-In . SVG Version: 6.00 Build 0)  -->
<svg version="1.1" id="Capa_1" xmlns="http://www.w3.org/2000/svg" xmlns:xlink="http://www.w3.org/1999/xlink" x="0px" y="0px"
	 viewBox="0 0 512.002 512.002" style="enable-background:new 0 0 512.002 512.002;" xml:space="preserve">
<g>
	<path style="fill:#AA836D;" d="M237.506,59.815c27.357,14.23,59.884,27.661,95.823,35.85c34.435,7.846,72.003,10.88,111.155,5.193
		c10.826-1.537,17.958-11.634,15.931-22.552c-2.027-10.917-12.447-18.521-23.272-16.983
		c-84.156,12.225-160.52-21.704-208.721-51.327h-67.558C175.073,21.434,201.913,41.301,237.506,59.815z"/>
	<g>
		<path style="fill:#C8FA8B;" d="M362.955,501.803c62.284-4.046,111.792-68.465,111.792-147.34
			c0-81.485-52.838-147.542-118.016-147.542c-8.661,0-17.103,1.167-25.233,3.381c-53.054,14.447-92.783,73.504-92.783,144.162
			c0,78.875,49.506,143.293,111.792,147.34L362.955,501.803L362.955,501.803z"/>
		<path style="fill:#C8FA8B;" d="M105.92,366.415c53.802,14.112,113.018-33.928,132.264-107.299
			c18.125-69.102-5.668-136.028-53.443-155.373c-2.953-1.196-5.997-2.209-9.128-3.031C121.812,86.6,62.595,134.639,43.35,208.011
			S52.118,352.302,105.92,366.415z"/>
	</g>
</g>
<path d="M353.979,457.949c-28.778-1.518-54.547-26.652-65.65-64.034c-1.571-5.292-7.135-8.309-12.428-6.735
	c-5.292,1.571-8.309,7.136-6.736,12.429c13.544,45.598,46.423,76.335,83.761,78.305c0.18,0.01,0.358,0.014,0.536,0.014
	c5.279,0,9.692-4.136,9.974-9.47C363.725,462.945,359.491,458.24,353.979,457.949z"/>
<path d="M87.149,214.676c1.571-5.292-1.445-10.856-6.737-12.428c-5.294-1.568-10.857,1.446-12.428,6.738
	c-0.505,1.699-0.986,3.42-1.429,5.111c-7.049,26.878-7.025,54.605,0.066,78.075c1.305,4.32,5.273,7.107,9.565,7.107
	c0.958,0,1.931-0.139,2.895-0.431c5.285-1.596,8.274-7.175,6.677-12.46c-6.041-19.988-5.993-43.862,0.134-67.221
	C86.283,217.683,86.705,216.171,87.149,214.676z"/>
<path d="M377.047,453.995l-0.129,0.051c-5.129,2.04-7.62,7.846-5.581,12.975c1.557,3.917,5.323,6.301,9.301,6.301
	c1.23,0,2.482-0.229,3.695-0.71l0.331-0.133c5.1-2.102,7.522-7.933,5.427-13.035C387.995,454.343,382.154,451.905,377.047,453.995z"
	/>
<path d="M233.06,153.805c-5.215,1.812-7.975,7.507-6.165,12.723l0.052,0.151c1.413,4.154,5.288,6.76,9.443,6.76
	c1.071,0,2.161-0.173,3.231-0.537c5.226-1.777,8.015-7.475,6.24-12.701l-0.079-0.231C243.972,154.754,238.277,152,233.06,153.805z"
	/>
<path d="M356.729,196.925c-6.174,0-12.242,0.552-18.185,1.596c-8.809-35.635-1.935-74.127,2.028-91.054
	c21.17,4.219,42.121,6.341,62.783,6.34c14.323,0,28.514-1.018,42.534-3.054c7.902-1.123,14.794-5.278,19.408-11.7
	c4.681-6.515,6.437-14.531,4.944-22.573c-2.988-16.093-18.46-27.324-34.537-25.051c-11.574,1.682-23.484,2.528-35.398,2.454
	c-5.533-0.054-10.016,4.432-10.04,9.951c-0.024,5.521,4.431,10.017,9.952,10.041c12.907,0.066,25.809-0.839,38.33-2.657
	c5.48-0.785,10.998,3.303,12.038,8.91c0.489,2.634-0.052,5.212-1.523,7.26c-1.404,1.954-3.53,3.223-6.016,3.576
	c-107.414,15.611-203.742-37.524-252.03-70.973h34.593c33.525,20.315,67.833,35.138,102.016,44.074
	c2.017,0.527,4.046,1.038,6.088,1.528c5.367,1.295,10.765-2.014,12.055-7.382s-2.014-10.766-7.382-12.056
	c-1.913-0.46-3.815-0.939-5.706-1.433c-33.097-8.651-66.416-23.201-99.029-43.244C232.081,0.513,230.27,0,228.421,0h-67.558
	c-4.24,0-8.019,2.675-9.427,6.673c-1.409,3.999-0.143,8.452,3.16,11.11c12.089,9.73,32.862,25.223,60.136,40.943
	c-10.716,6.18-23.766,16.41-34.472,32.923c-0.703-0.204-1.4-0.421-2.109-0.607c-29.181-7.654-60.406,0.425-87.924,22.75
	c-26.619,21.595-46.701,54.157-56.545,91.684c-9.843,37.526-8.33,75.751,4.264,107.632c13.018,32.957,36.258,55.323,65.439,62.977
	c7.182,1.884,14.485,2.814,21.83,2.814c22.493-0.001,45.349-8.735,66.094-25.564c26.619-21.595,46.701-54.156,56.545-91.683
	c5.41-20.624,7.427-42.298,5.834-62.68c-0.43-5.503-5.234-9.607-10.745-9.186c-5.504,0.431-9.617,5.241-9.186,10.745
	c1.42,18.181-0.392,37.562-5.241,56.05c-17.816,67.921-71.674,112.854-120.058,100.166c-22.861-5.997-41.299-24.102-51.916-50.984
	c-11.043-27.956-12.293-61.771-3.521-95.215c17.528-66.827,69.942-111.399,117.711-100.735c-2.681,6.427-4.998,13.515-6.805,21.344
	c-1.242,5.38,2.113,10.747,7.493,11.988c0.757,0.175,1.512,0.258,2.256,0.258c4.55,0,8.665-3.128,9.731-7.75
	c1.575-6.828,3.601-12.972,5.941-18.498c9.35,5.453,17.684,13.298,24.576,23.263c3.141,4.54,9.367,5.676,13.907,2.535
	c4.54-3.141,5.676-9.366,2.535-13.907c-8.686-12.559-19.312-22.471-31.335-29.393c13.542-19.157,30.447-26.674,37.484-29.11
	c8.125,4.137,16.665,8.194,25.599,12.059c19.769,8.555,39.425,15.352,58.917,20.394c-4.526,18.965-11.97,60.833-1.855,100.854
	c-52.318,19.796-90.458,79.825-90.458,150.616c0,86.866,57.426,157.538,128.012,157.538s128.012-70.671,128.012-157.538
	C484.742,267.596,427.315,196.925,356.729,196.925z M432.307,452.464c-20.398,25.501-47.238,39.545-75.578,39.545
	c-28.339,0-55.18-14.044-75.578-39.545c-20.921-26.155-32.443-60.959-32.443-98c0-37.042,11.521-71.846,32.443-98.001
	c12.679-15.851,27.848-27.271,44.317-33.648c4.638,11.062,10.96,21.653,19.463,31.195c1.975,2.216,4.714,3.346,7.466,3.346
	c2.366,0,4.742-0.836,6.647-2.534c4.121-3.674,4.484-9.992,0.812-14.112c-6.231-6.991-11.059-14.771-14.757-22.986
	c3.84-0.528,7.72-0.805,11.63-0.805c28.34,0,55.18,14.044,75.578,39.545c20.921,26.156,32.443,60.959,32.443,98.001
	C464.75,391.504,453.228,426.309,432.307,452.464z"/>
<path d="M370.385,72.104c0.071,0.01,0.148,0.019,0.21,0.025c0.375,0.042,0.748,0.063,1.117,0.063c5.026,0,9.354-3.781,9.923-8.892
	c0.604-5.436-3.27-10.336-8.676-11.02c-0.06-0.008-0.125-0.016-0.177-0.022c-5.485-0.627-10.439,3.313-11.066,8.797
	C361.093,66.496,364.966,71.416,370.385,72.104z"/>
<path d="M393.59,254.217c-5.4-1.147-10.705,2.31-11.848,7.711c-3.145,14.867-15.904,18.17-29.827,20.476l-1.614,0.271
	c-5.443,0.925-9.105,6.086-8.182,11.528c0.829,4.876,5.058,8.324,9.843,8.324c0.556,0,1.12-0.047,1.685-0.144l1.534-0.256
	c11.936-1.978,39.889-6.609,46.12-36.063C402.443,260.665,398.991,255.36,393.59,254.217z"/>
<path d="M184.447,159.319c-7.48,5.047-15.568,6.103-22.19,2.897c-4.883-2.364-8.141-6.788-8.5-11.545
	c-0.416-5.506-5.214-9.623-10.722-9.214c-5.505,0.416-9.63,5.217-9.214,10.722c0.895,11.833,8.453,22.575,19.723,28.032
	c5.248,2.541,10.937,3.794,16.736,3.794c8.575,0,17.387-2.742,25.347-8.112c4.576-3.088,5.784-9.301,2.696-13.878
	C195.236,157.438,189.022,156.23,184.447,159.319z"/>
<g>
</g>
<g>
</g>
<g>
</g>
<g>
</g>
<g>
</g>
<g>
</g>
<g>
</g>
<g>
</g>
<g>
</g>
<g>
</g>
<g>
</g>
<g>
</g>
<g>
</g>
<g>
</g>
<g>
</g>
</svg>
