<svg height="464pt" viewBox="0 0 464 464" width="464pt" xmlns="http://www.w3.org/2000/svg"><path d="m232 232-56.398438 26.34375c-40.1875 18.757812-86.738281 18.128906-126.402343-1.710938l-49.199219-24.632812 49.230469-24.617188c39.664062-19.839843 86.214843-20.46875 126.402343-1.710937zm0 0" fill="#8a4325"/><path d="m76 223.441406c-3.425781 1.464844-5.644531 4.832032-5.644531 8.558594s2.21875 7.09375 5.644531 8.558594c23.003906 9.859375 49.042969 9.859375 72.046875 0 3.425781-1.464844 5.648437-4.832032 5.648437-8.558594s-2.222656-7.09375-5.648437-8.558594c-23.003906-9.867187-49.042969-9.867187-72.046875 0zm0 0" fill="#ffcb5a"/><path d="m232 232 56.398438 26.320312c40.1875 18.757813 86.738281 18.125 126.402343-1.710937l49.199219-24.609375-49.230469-24.617188c-39.664062-19.839843-86.214843-20.46875-126.402343-1.710937zm0 0" fill="#8a4325"/><path d="m388 223.441406c3.425781 1.464844 5.644531 4.832032 5.644531 8.558594s-2.21875 7.09375-5.644531 8.558594c-23.003906 9.859375-49.042969 9.859375-72.046875 0-3.425781-1.464844-5.648437-4.832032-5.648437-8.558594s2.222656-7.09375 5.648437-8.558594c23.003906-9.867187 49.042969-9.867187 72.046875 0zm0 0" fill="#ffcb5a"/><path d="m232 232-21.273438 58.496094c-15.148437 41.664062-48.5 74.125-90.558593 88.144531l-52.214844 17.40625 17.398437-52.214844c14.023438-42.0625 46.488282-75.414062 88.152344-90.566406zm0 0" fill="#c06515"/><path d="m115.617188 336.273438c-1.386719 3.457031-.574219 7.410156 2.0625 10.046874 2.636718 2.636719 6.589843 3.445313 10.046874 2.054688 23.238282-9.296875 41.648438-27.707031 50.945313-50.941406 1.386719-3.460938.578125-7.414063-2.054687-10.050782-2.636719-2.636718-6.589844-3.449218-10.050782-2.0625-23.238281 9.296876-41.652344 27.710938-50.949218 50.953126zm0 0" fill="#ffcb5a"/><path d="m232 232 58.496094-21.273438c41.664062-15.152343 74.128906-48.507812 88.152344-90.566406l17.398437-52.214844-52.214844 17.398438c-42.066406 14.035156-75.421875 46.519531-90.558593 88.199219zm0 0" fill="#c06515"/><path d="m336.273438 115.617188c3.457031-1.390626 7.410156-.582032 10.046874 2.054687 2.636719 2.632813 3.449219 6.585937 2.0625 10.046875-9.296874 23.242188-27.710937 41.65625-50.949218 50.953125-3.460938 1.382813-7.410156.574219-10.042969-2.0625-2.636719-2.632813-3.445313-6.582031-2.0625-10.042969 9.292969-23.238281 27.707031-41.652344 50.945313-50.949218zm0 0" fill="#ffcb5a"/><path d="m232 232 26.320312 56.398438c18.761719 40.183593 18.132813 86.738281-1.703124 126.402343l-24.617188 49.199219-24.617188-49.230469c-19.835937-39.664062-20.464843-86.21875-1.703124-126.402343zm0 0" fill="#8a4325"/><path d="m223.441406 388.023438c1.464844 3.425781 4.832032 5.648437 8.558594 5.648437s7.09375-2.222656 8.558594-5.648437c9.855468-23.007813 9.855468-49.046876 0-72.054688-1.464844-3.425781-4.832032-5.648438-8.558594-5.648438s-7.09375 2.222657-8.558594 5.648438c-9.855468 23.007812-9.855468 49.046875 0 72.054688zm0 0" fill="#ffcb5a"/><path d="m232 232 26.320312-56.40625c18.761719-40.183594 18.132813-86.738281-1.703124-126.402344l-24.617188-49.191406-24.617188 49.222656c-19.835937 39.664063-20.464843 86.21875-1.703124 126.402344zm0 0" fill="#8a4325"/><path d="m223.441406 75.945312c1.464844-3.425781 4.832032-5.648437 8.558594-5.648437s7.09375 2.222656 8.558594 5.648437c9.855468 23.007813 9.855468 49.046876 0 72.054688-1.464844 3.425781-4.832032 5.644531-8.558594 5.644531s-7.09375-2.21875-8.558594-5.644531c-9.855468-23.007812-9.855468-49.046875 0-72.054688zm0 0" fill="#ffcb5a"/><path d="m232 232 58.496094 21.265625c41.664062 15.152344 74.128906 48.503906 88.152344 90.566406l17.398437 52.214844-52.214844-17.40625c-42.058593-14.019531-75.410156-46.480469-90.558593-88.144531zm0 0" fill="#c06515"/><path d="m336.273438 348.375c3.457031 1.390625 7.410156.582031 10.046874-2.054688 2.636719-2.636718 3.449219-6.589843 2.0625-10.046874-9.296874-23.242188-27.710937-41.65625-50.949218-50.953126-3.460938-1.386718-7.414063-.574218-10.050782 2.0625-2.632812 2.636719-3.441406 6.589844-2.054687 10.050782 9.296875 23.234375 27.707031 41.644531 50.945313 50.941406zm0 0" fill="#ffcb5a"/><path d="m232 232-21.273438-58.457031c-15.152343-41.664063-48.5-74.125-90.558593-88.152344l-52.214844-17.445313 17.398437 52.207032c14.019532 42.0625 46.484376 75.421875 88.152344 90.574218zm0 0" fill="#c06515"/><path d="m115.617188 127.71875c-1.386719-3.460938-.574219-7.414062 2.0625-10.046875 2.636718-2.636719 6.589843-3.445313 10.046874-2.054687 23.238282 9.296874 41.652344 27.710937 50.945313 50.949218 1.382813 3.460938.574219 7.410156-2.0625 10.042969-2.632813 2.636719-6.582031 3.445313-10.042969 2.0625-23.238281-9.296875-41.652344-27.710937-50.949218-50.953125zm0 0" fill="#ffcb5a"/></svg>