<?xml version="1.0" encoding="iso-8859-1"?>
<!-- Generator: Adobe Illustrator 21.0.0, SVG Export Plug-In . SVG Version: 6.00 Build 0)  -->
<svg version="1.1" id="Capa_1" xmlns="http://www.w3.org/2000/svg" xmlns:xlink="http://www.w3.org/1999/xlink" x="0px" y="0px"
	 viewBox="0 0 511.995 511.995" style="enable-background:new 0 0 511.995 511.995;" xml:space="preserve">
<g>
	<path style="fill:#87DD60;" d="M202.387,163.629c30.426,50.411,64.076,107.048,95.382,161.561
		c5.482,9.545,10.893,19.025,16.2,28.395c24.152-19.407,52.558-38.485,70.501-3.529c6.37,12.408,21.576,17.312,33.964,10.953
		c10.752-5.519,15.846-17.709,12.839-28.946l0.513-0.254c19.821-10.174,26.573-36.571,16.75-55.709
		c-9.824-19.138-18.937-31.33-36.801-27.002c-2.177-27.832-33.883-45.634-57.439-40.469c-1.799-13.709-9.925-26.666-21.498-34.071
		c39.79-32.014,9.494-85.681-38.443-70.336c10.276-56.483-56.814-78.617-93.417-60.94c-21.613-28.713-55.124-41.23-80.743-28.079
		l-0.691,0.369l-0.703,0.346C93.182,29.069,83.819,63.594,94.55,97.892c-35.7,19.438-56.823,86.851-4.939,111.427
		c-40.412,30.004-14.466,85.905,34.74,72.236c-0.73,13.72,5.062,27.874,15.151,37.328c-17.928,16.129-21.945,52.268-0.6,70.261
		c-13.93,11.993-9.336,26.504,0.488,45.642c9.824,19.138,35.208,29.038,55.03,18.865l0.505-0.268
		c7.378,8.994,20.253,11.961,31.005,6.442c12.388-6.359,17.267-21.574,10.899-33.982c-17.943-34.957,14.117-46.915,43.964-55.228
		c-4.523-9.784-9.077-19.715-13.641-29.741c-11.086-24.356-22.238-49.28-33.181-74.049c-14.766-33.422-29.155-66.561-42.494-97.639
		c-12.048-28.069-23.239-54.455-33.08-77.849C171.673,112.979,186.596,137.465,202.387,163.629z"/>
	<path style="fill:#C8FA8B;" d="M256.945,255.064c-18.546-31.478-37.083-62.483-54.557-91.434
		c-15.791-26.163-30.715-50.65-43.992-72.292c9.841,23.394,21.033,49.78,33.08,77.849c13.339,31.078,27.727,64.217,42.494,97.639
		c10.944,24.769,22.095,49.694,33.181,74.049c4.564,10.027,9.118,19.958,13.64,29.741c18.911,40.907,37.295,79.245,53.758,111.318
		c7.99,15.566,23.197,23.852,33.794,18.413c10.597-5.439,12.729-22.626,4.738-38.191c-16.464-32.075-36.897-69.36-59.113-108.57
		c-5.307-9.371-10.718-18.851-16.2-28.395C284.443,301.985,270.692,278.395,256.945,255.064z"/>
</g>
<circle cx="317.553" cy="450.019" r="10.001"/>
<path d="M457.434,271.532c-6.478-12.62-16.734-32.606-37.603-33.307c-3.217-10.8-10.177-20.491-20.226-27.948
	c-11.058-8.206-24.714-12.637-37.5-12.522c-2.79-8.954-7.732-17.179-14.275-23.804c16.195-18.678,16.061-41.066,7.679-56.647
	c-8.291-15.406-26.332-27.809-50.101-25.56c-0.314-19.103-8.772-35.726-24.575-47.749c-21.257-16.174-52.307-21.058-76.792-12.76
	c-10.975-12.579-24.465-22.088-38.622-27.117c-17.349-6.165-35.033-5.388-49.806,2.194c-0.198,0.103-0.395,0.207-0.59,0.313
	l-0.115,0.06c-0.23,0.112-0.46,0.225-0.671,0.334c-14.756,7.575-25.694,21.489-30.8,39.181C79.27,60.639,79.133,77.147,82.958,93.4
	c-3.675,2.646-7.191,5.738-10.508,9.246c-3.795,4.013-3.619,10.343,0.394,14.138c4.012,3.796,10.342,3.619,14.138-0.393
	c3.871-4.093,8.027-7.362,12.352-9.718c4.193-2.283,6.188-7.213,4.761-11.77c-9.404-30.053-1.297-59.53,19.292-70.099l0.539-0.264
	c0.088-0.044,0.175-0.088,0.261-0.134l0.577-0.31c20.574-10.562,49.249,0.037,68.187,25.195c2.871,3.814,8.04,5.067,12.339,2.991
	c18.322-8.848,46.185-5.495,63.432,7.628c9.43,7.175,19.825,20.376,15.796,42.517c-0.629,3.456,0.602,6.988,3.241,9.306
	c2.64,2.317,6.303,3.08,9.647,2.01c21.075-6.75,34.984,2.806,40.489,13.037c5.342,9.928,5.571,26.356-11.364,39.982
	c-2.508,2.018-3.891,5.119-3.717,8.334c0.174,3.214,1.885,6.148,4.596,7.883c9.046,5.787,15.549,16.112,16.971,26.947
	c0.364,2.776,1.876,5.272,4.168,6.883c2.292,1.608,5.15,2.183,7.89,1.585c9.633-2.115,21.899,1.005,31.247,7.942
	c4.853,3.602,13.135,11.449,14.081,23.539c0.229,2.921,1.727,5.595,4.098,7.315c2.372,1.72,5.378,2.314,8.227,1.624
	c8.815-2.135,14.596,0.512,25.548,21.849c3.617,7.047,4.354,15.756,2.024,23.898c-2.366,8.266-7.496,14.781-14.431,18.342
	l-0.369,0.183c-4.285,2.105-6.485,6.948-5.25,11.561c1.839,6.872-1.418,14.217-7.746,17.464c-7.466,3.832-16.659,0.858-20.501-6.623
	c-6.979-13.596-16.279-21.717-27.645-24.138c-16.676-3.552-33.509,5.887-48.749,17.228c-2.826-4.965-5.675-9.95-8.541-14.948
	c1.94-6.999,7.715-23.7,21.713-38.93c3.737-4.066,3.47-10.393-0.596-14.13c-4.067-3.736-10.393-3.471-14.131,0.596
	c-9.377,10.202-15.702,20.959-19.903,30.045c-9.246-15.972-18.595-31.972-27.9-47.781c2.972-10.478,12.494-32.685,32.173-46.557
	c4.514-3.183,5.594-9.422,2.412-13.937c-3.182-4.514-9.421-5.593-13.936-2.412c-16.357,11.531-27.129,27.327-33.62,40.944
	c-14.556-24.563-28.832-48.395-42.248-70.629c0.089-13.66,1.6-26.208,15.364-31.572c5.146-2.005,7.693-7.803,5.688-12.948
	c-2.005-5.146-7.801-7.694-12.949-5.688c-13.377,5.211-20.378,14.38-24.05,23.86c-9.419-15.516-18.223-29.939-26.18-42.925
	c-0.071-0.115-0.142-0.232-0.213-0.347c-0.341-0.556-0.679-1.108-1.016-1.658c-0.718-1.171-1.427-2.328-2.12-3.457
	c-0.171-0.279-0.353-0.546-0.546-0.802c-1.931-2.559-4.924-3.974-7.999-3.97c-1.152,0.001-2.315,0.211-3.438,0.626
	c-0.374,0.138-0.746,0.292-1.109,0.479c-3.197,1.642-5.155,4.786-5.407,8.158c-0.115,1.532,0.123,3.111,0.756,4.617
	c0.437,1.039,0.883,2.098,1.334,3.17c0.214,0.509,0.432,1.025,0.648,1.539c0.2,0.476,0.401,0.952,0.604,1.433
	c5.734,13.609,12.302,29.122,19.516,46.042c-9.839-2.535-21.362-2.187-33.386,5.637c-4.629,3.012-5.939,9.208-2.927,13.837
	c3.013,4.628,9.209,5.942,13.837,2.926c12.374-8.051,23.445-1.979,34.588,5.904c10.151,23.635,21.211,49.165,32.777,75.513
	c-6.761-1.213-14.402-1.963-22.511-1.804c-14.1-21.981-36.265-21.972-46.714-18.523c-5.245,1.731-8.094,7.388-6.362,12.632
	c1.732,5.244,7.388,8.097,12.632,6.362c0.47-0.154,8.506-2.668,16.524,2.821c-2.142,0.571-4.287,1.217-6.431,1.962
	c-5.217,1.813-7.977,7.514-6.163,12.731s7.513,7.974,12.73,6.164c22.742-7.905,46.335-2.696,56.581,0.997
	c7.399,16.725,14.947,33.643,22.548,50.491c-17.126-3.29-42.144-4.265-68.296,7.884c-5.009,2.327-7.184,8.274-4.856,13.283
	c1.694,3.646,5.304,5.79,9.077,5.79c1.41-0.001,2.844-0.301,4.207-0.934c31.027-14.414,60.923-5.889,70.582-2.398
	c2.385,5.23,4.77,10.442,7.154,15.626c-18.106,5.772-35.599,13.95-42.435,29.573c-4.658,10.646-3.481,22.938,3.497,36.532
	c3.84,7.483,0.895,16.687-6.568,20.518c-6.33,3.246-14.194,1.613-18.706-3.887c-3.024-3.686-8.231-4.724-12.439-2.48l-0.366,0.194
	c-6.949,3.566-15.232,3.936-23.328,1.041c-7.973-2.853-14.62-8.529-18.236-15.574c-10.953-21.338-9.734-27.578-2.859-33.497
	c2.22-1.911,3.49-4.7,3.475-7.631c-0.016-2.931-1.315-5.706-3.555-7.596c-9.272-7.815-10.82-19.118-10.918-25.16
	c-0.188-11.64,4.428-23.422,11.76-30.019c2.082-1.872,3.283-4.532,3.311-7.333c0.028-2.801-1.119-5.484-3.162-7.399
	c-7.975-7.473-12.573-18.776-12.002-29.499c0.171-3.214-1.215-6.314-3.725-8.33c-2.51-2.016-5.836-2.701-8.939-1.837
	c-20.941,5.816-34.159-3.944-39.11-14.072c-5.104-10.438-4.759-27.306,13.009-40.498c2.82-2.094,4.334-5.514,3.99-9.01
	c-0.344-3.496-2.497-6.556-5.671-8.059c-14.668-6.948-23.068-17.985-24.967-32.808c-0.702-5.479-5.72-9.355-11.191-8.648
	c-5.478,0.702-9.351,5.712-8.649,11.19c2.148,16.77,10.518,30.941,23.965,40.989c-15.707,17.988-16.143,39.905-8.456,55.629
	c7.772,15.893,25.878,29.048,50.503,26.781c1.568,9.179,5.37,17.986,11.02,25.475c-7.562,10.302-11.908,24.001-11.686,37.769
	c0.202,12.512,4.019,23.815,10.918,32.726c-11.595,17.364-1.335,37.349,5.143,49.969c5.911,11.517,16.588,20.73,29.294,25.273
	c11.111,3.975,22.614,4.131,33.022,0.554c6.248,4.828,13.939,7.384,21.718,7.384c5.436-0.001,10.916-1.249,15.969-3.843
	c17.274-8.867,24.106-30.15,15.229-47.445c-4.158-8.102-5.128-14.44-2.967-19.381c4.112-9.397,20.333-15.557,32.566-19.293
	c7.278,15.67,14.497,30.998,21.57,45.74c2.389,4.979,8.364,7.08,13.342,4.691c4.979-2.389,7.081-8.363,4.691-13.343
	c-8.196-17.085-16.592-34.962-25.049-53.253c-0.003-0.007-0.005-0.013-0.008-0.02c-4.463-9.654-8.945-19.433-13.424-29.272
	c-0.111-0.274-0.232-0.543-0.366-0.806c-11.066-24.318-22.108-49.007-32.797-73.2c-0.101-0.253-0.208-0.502-0.329-0.746
	c-6.504-14.723-12.877-29.259-19.041-43.406c48.018,80.569,103.899,176.871,140.273,247.731c2.914,5.678,4.216,11.909,3.573,17.095
	c-0.471,3.793-1.922,6.575-3.982,7.633c-2.061,1.058-5.166,0.615-8.523-1.214c-4.589-2.5-8.893-7.19-11.807-12.867
	c-2.522-4.913-8.55-6.854-13.464-4.33c-4.913,2.522-6.853,8.551-4.33,13.464c4.771,9.297,11.886,16.859,20.033,21.299
	c5.127,2.793,10.458,4.201,15.559,4.201c4.113,0,8.078-0.915,11.667-2.758c8.042-4.127,13.399-12.497,14.697-22.964
	c1.143-9.206-0.856-19.397-5.627-28.691c-15.63-30.45-34.607-65.198-55.068-101.47c10.165-7.76,24.619-17.335,34.644-15.202
	c5.273,1.123,9.859,5.607,14.017,13.708c8.878,17.294,30.155,24.148,47.428,15.283c12.284-6.306,19.571-19.281,19.093-32.687
	c8.979-6.376,15.552-15.81,18.8-27.152C464.607,297.095,463.346,283.049,457.434,271.532z"/>
<path d="M59.146,150.881c0.814,0.204,1.63,0.301,2.433,0.301c4.353,0,8.325-2.861,9.59-7.19c1.567-5.267-1.41-10.817-6.674-12.419
	c-5.283-1.611-10.872,1.371-12.48,6.655c-0.049,0.161-0.105,0.362-0.146,0.525C50.529,144.112,53.787,149.542,59.146,150.881z"/>
<path d="M342.596,270.233c1.669,0,3.36-0.416,4.915-1.291c0.028-0.016,0.105-0.06,0.133-0.076c4.77-2.746,6.4-8.817,3.676-13.601
	c-2.723-4.784-8.825-6.454-13.621-3.753c-0.028,0.016-0.105,0.06-0.133,0.076c-4.77,2.746-6.4,8.817-3.676,13.601
	C335.73,268.422,339.115,270.233,342.596,270.233z"/>
<g>
</g>
<g>
</g>
<g>
</g>
<g>
</g>
<g>
</g>
<g>
</g>
<g>
</g>
<g>
</g>
<g>
</g>
<g>
</g>
<g>
</g>
<g>
</g>
<g>
</g>
<g>
</g>
<g>
</g>
</svg>
