<svg height="480pt" viewBox="0 -4 480 480" width="480pt" xmlns="http://www.w3.org/2000/svg"><g fill="#8a4325"><path d="m36 432c-15.464844 0-28-12.535156-28-28s12.535156-28 28-28 28 12.535156 28 28-12.535156 28-28 28zm0-40c-6.628906 0-12 5.371094-12 12s5.371094 12 12 12 12-5.371094 12-12-5.371094-12-12-12zm0 0"/><path d="m452 400c-15.464844 0-28-12.535156-28-28s12.535156-28 28-28 28 12.535156 28 28-12.535156 28-28 28zm0-40c-6.628906 0-12 5.371094-12 12s5.371094 12 12 12 12-5.371094 12-12-5.371094-12-12-12zm0 0"/><path d="m59.65625 432h-19.65625v-16h19.65625c44.484375.003906 88.714844-6.703125 131.199219-19.894531l101.457031-31.488281c44.039062-13.675782 89.886719-20.625 136-20.617188h19.6875v16h-19.65625c-44.484375-.003906-88.714844 6.703125-131.199219 19.894531l-101.496093 31.488281c-44.035157 13.675782-89.882813 20.625-135.992188 20.617188zm0 0"/><path d="m28 472c-15.464844 0-28-12.535156-28-28s12.535156-28 28-28 28 12.535156 28 28-12.535156 28-28 28zm0-40c-6.628906 0-12 5.371094-12 12s5.371094 12 12 12 12-5.371094 12-12-5.371094-12-12-12zm0 0"/><path d="m444 456c-15.464844 0-28-12.535156-28-28s12.535156-28 28-28 28 12.535156 28 28-12.535156 28-28 28zm0-40c-6.628906 0-12 5.371094-12 12s5.371094 12 12 12 12-5.371094 12-12-5.371094-12-12-12zm0 0"/><path d="m57.992188 472h-25.992188v-16h25.992188c45.902343-.003906 91.65625-5.273438 136.359374-15.695312l103.65625-24.183594c45.898438-10.707032 92.871094-16.113282 140-16.121094h1.992188v16h-1.992188c-45.902343.003906-91.65625 5.273438-136.359374 15.695312l-103.65625 24.183594c-45.898438 10.707032-92.871094 16.113282-140 16.121094zm0 0"/></g><path d="m235.847656 166.910156-39.917968 45.265625c-41.953126 47.558594-113.535157 54.578125-163.929688 16.082031l3.199219-6.496093c20.34375-41.898438 73.878906-66.5625 119.335937-66.761719zm0 0" fill="#ffbc49"/><path d="m226.441406 172.273438 41.125 44.167968c43.210938 46.414063 43.171875 118.339844-.085937 164.710938l-6.152344-3.777344c-45.367187-27.84375-67.160156-82.109375-53.65625-133.597656zm0 0" fill="#ffbc49"/><path d="m235.847656 167.199219 58.863282-13.320313c61.84375-13.984375 123.976562 22.21875 142.296874 82.921875l-6.398437 3.421875c-46.882813 25.167969-104.710937 16.695313-142.402344-20.863281zm0 0" fill="#ffbc49"/><path d="m248.359375 96c15.726563-57.160156 70.609375-94.464844 129.542969-88.046875l.65625 7.199219c4.882812 53.003906-25.507813 102.957031-74.824219 122.992187l-68.496094 27.816407zm0 0" fill="#ffbc49"/><path d="m135.871094 120c-29.859375-32.285156-39.816406-78.25-25.992188-120l7.199219.855469c40 4.800781 74.746094 36.96875 92.953125 71.144531zm0 0" fill="#ffbc49"/><path d="m260 124-12.246094 21.433594-6.496094 23.824218-23.824218 6.496094-21.433594 12.246094-21.433594-12.246094-23.824218-6.496094-6.496094-23.824218-12.246094-21.433594 12.246094-21.433594 6.496094-23.824218 23.824218-6.496094 21.433594-12.246094 21.433594 12.246094 23.824218 6.496094 6.496094 23.824218zm0 0" fill="#ffdb70"/><path d="m398.265625 231.808594-15.066406-3.34375c-38.402344-8.539063-75.8125-21.046875-111.632813-37.320313l-38.917968-16.886719 6.398437-14.683593 39.050781 16.945312c34.84375 15.839844 71.238282 28.011719 108.597656 36.328125l15.058594 3.34375zm0 0" fill="#ffdb70"/><path d="m248.648438 347.152344c-16.3125-37.929688-24.699219-78.792969-24.648438-120.082032v-59.070312h16v59.070312c-.046875 39.121094 7.902344 77.839844 23.351562 113.777344zm0 0" fill="#ffdb70"/><path d="m69 222.246094-10-12.492188c27.328125-21.804687 61.238281-33.703125 96.199219-33.753906l76.488281-2.785156.578125 16-76.800781 2.792968c-31.414063 0-61.898438 10.660157-86.464844 30.238282zm0 0" fill="#ffdb70"/><path d="m244.34375 165.398438-13.6875-8.292969 36.734375-60.601563c20.316406-30.53125 48.25-55.230468 81.035156-71.664062l7.148438 14.320312c-30.199219 15.117188-55.9375 37.835938-74.6875 65.929688zm0 0" fill="#ffdb70"/><path d="m163.199219 86.398438-5.597657-4.214844c-18.53125-13.914063-31.71875-33.773438-37.363281-56.246094l15.523438-3.875c4.753906 18.910156 15.851562 35.617188 31.4375 47.328125l5.601562 4.210937zm0 0" fill="#ffdb70"/><path d="m241.929688 161.71875-13.515626-15.847656c-10.707031-12.625-14.894531-29.53125-11.316406-45.695313l-15.609375-3.503906c-2.917969 13.167969-1.90625 26.90625 2.910157 39.503906-14.164063-6.566406-29.757813-9.445312-45.335938-8.375l1.121094 15.960938c21.011718-1.445313 41.695312 5.800781 57.207031 20.046875l12.433594 11.464844 10.839843-11.769532zm0 0" fill="#ffbc49"/></svg>