<?xml version="1.0" encoding="iso-8859-1"?>
<!-- Generator: Adobe Illustrator 21.0.0, SVG Export Plug-In . SVG Version: 6.00 Build 0)  -->
<svg version="1.1" id="Capa_1" xmlns="http://www.w3.org/2000/svg" xmlns:xlink="http://www.w3.org/1999/xlink" x="0px" y="0px"
	 viewBox="0 0 511.997 511.997" style="enable-background:new 0 0 511.997 511.997;" xml:space="preserve">
<g>
	<g>
		<path style="fill:#00C56E;" d="M347.025,112.653L347.025,112.653L347.025,112.653z M245.872,238.59
			c15.729-10.838,36.76-10.914,52.6,0.032c1.556,1.075,3.061,2.257,4.505,3.547l0.057-0.024
			c-17.483-17.753-17.833-46.307-0.528-64.487c4.772-5.013,10.398-8.725,16.435-11.121c-3.497-14.75,0.295-30.917,11.525-42.715
			c4.804-5.048,10.475-8.776,16.558-11.172c18.143-57.175-39.428-100.062-39.428-100.062
			c18.927,42.933-61.675,70.995-85.748,129.696c0.003,0.003,0.007,0.007,0.01,0.01c-10.28,25.069-10.26,55.72,12.232,95.508
			c1.175,2.079,2.412,4.184,3.712,6.314l0.759,0.722C240.821,242.463,243.274,240.38,245.872,238.59z"/>
		<path style="fill:#00C56E;" d="M234.089,237.802c-22.494-39.79-22.523-70.448-12.242-95.518
			c-30.14-28.855-80.383-23.604-129.84-36.94c15.759,48.738,12.993,99.179,43.299,127.86
			c25.814-12.106,58.371-13.116,102.495,10.912c-0.231-0.378-0.46-0.756-0.687-1.133
			C236.064,241.239,235.056,239.512,234.089,237.802z"/>
	</g>
	<path style="fill:#87DD60;" d="M237.801,244.116C95.491,166.618,73.5,349.574,9.997,325.244c0,0,45.674,55.386,101.884,34.445
		l0.003,0.001c2.094-6.194,5.534-12.042,10.339-17.09c11.23-11.798,27.19-16.383,42.094-13.618l-0.008,0.026
		c2.096-6.157,5.527-11.97,10.305-16.99c17.305-18.18,45.84-19.237,64.435-2.653l0.021-0.058
		c-17.463-17.756-17.809-46.295-0.51-64.47L237.801,244.116z"/>
	<g>
		<path style="fill:#FD4848;" d="M423.65,485.037c17.658-18.552,16.934-47.905-1.618-65.563c-3.43-3.265-7.23-5.899-11.256-7.911
			c-14.399,13.884-35.702,16.671-52.874,8.09c-0.485,0.468-0.965,0.946-1.434,1.438c-0.469,0.493-0.923,0.995-1.366,1.503
			c9.418,16.727,7.684,38.142-5.473,53.208c2.207,3.922,5.026,7.587,8.456,10.852C376.638,504.313,405.992,503.589,423.65,485.037z"
			/>
		<path style="fill:#FD4848;" d="M422.032,419.474c18.552,17.658,19.276,47.011,1.618,65.563
			c18.551,17.658,47.905,16.934,65.563-1.618s16.934-47.905-1.618-65.563C469.937,436.408,440.584,437.132,422.032,419.474z"/>
		<path style="fill:#FD4848;" d="M422.032,419.474c18.552,17.658,47.905,16.934,65.563-1.618
			c10.136-10.649,14.215-24.858,12.342-38.37l-0.034-0.238c-1.431-9.942-6.087-19.492-13.926-26.955
			c-3.43-3.265-7.229-5.9-11.256-7.911c-14.399,13.884-35.702,16.671-52.873,8.09c-0.485,0.468-0.965,0.946-1.434,1.438
			c-0.469,0.493-0.923,0.995-1.366,1.503c9.415,16.728,7.681,38.14-5.473,53.208C415.783,412.544,418.603,416.21,422.032,419.474z"
			/>
		<path style="fill:#FD4848;" d="M421.848,352.473c17.171,8.581,38.474,5.794,52.876-8.088c0.485-0.468,0.962-0.948,1.431-1.441
			c17.658-18.552,16.934-47.905-1.618-65.563c-9.903-9.426-22.884-13.613-35.52-12.646c-0.001,0.001-0.002,0.002-0.005,0
			c-6.819,6.963-15.317,11.323-24.237,13.053c-1.759,0.341-3.536,0.58-5.319,0.717l-0.481,0.493c-2.238,2.351-4.18,4.877-5.828,7.53
			c0,0.001,0,0.002-0.003,0.004c1.734,10.819-0.37,22.153-6.365,31.798c1.549,9.681,6.164,18.951,13.813,26.232
			C414.022,347.827,417.821,350.463,421.848,352.473z"/>
		<path style="fill:#FD4848;" d="M413.576,408.622c13.157-15.067,14.89-36.481,5.474-53.209c-2.207-3.922-5.028-7.586-8.458-10.851
			c-7.649-7.281-17.136-11.434-26.881-12.503c-9.337,6.463-20.553,9.123-31.445,7.925c-0.001,0.003-0.003,0.003-0.004,0.003
			c-2.568,1.778-4.995,3.841-7.233,6.193c-2.238,2.351-4.18,4.877-5.828,7.53c1.732,10.821-0.372,22.156-6.367,31.802
			c1.548,9.681,6.164,18.951,13.813,26.232c3.43,3.265,7.229,5.901,11.256,7.911c17.171,8.581,38.474,5.794,52.876-8.088
			c0.485-0.468,0.962-0.948,1.432-1.44C412.679,409.633,413.135,409.132,413.576,408.622z"/>
		<path style="fill:#FD4848;" d="M397.647,187.767c-0.928,0.989-2.383,2.434-4.354,4.031c0.01-0.008,0.02-0.016,0.03-0.024
			l0.105-0.087c-3.75,3.076-7.877,5.477-12.216,7.201c3.5,14.749-0.295,30.917-11.525,42.715c-2.239,2.353-4.667,4.418-7.237,6.195
			c9.745,1.069,19.232,5.222,26.881,12.503c5.469,5.206,9.389,11.428,11.743,18.09c2.786,0.29,5.593,0.327,8.382,0.114
			c0.127-0.059,1.894-0.101,4.678-0.597c0.022-0.004,0.043-0.008,0.065-0.012c0.187-0.034,0.379-0.069,0.576-0.108
			c0.837-0.162,1.669-0.348,2.497-0.556c0.031-0.008,0.061-0.016,0.092-0.023c0.228-0.058,0.455-0.118,0.682-0.179
			c0.015-0.004,0.031-0.008,0.046-0.012c1.681-0.457,3.535-1.063,5.494-1.868c0.971-0.399,1.967-0.847,2.98-1.351
			c0.017-0.011,0.036-0.02,0.055-0.027c2.935-1.467,5.744-3.262,8.376-5.382c0.029-0.028,0.06-0.053,0.094-0.076
			c1.357-1.106,2.668-2.298,3.922-3.578c0.002,0,0.004,0,0.005,0c0.16-0.163,0.318-0.327,0.476-0.493
			c17.658-18.552,16.934-47.905-1.618-65.563c-10.817-10.296-25.305-14.34-39.007-12.247c-0.002,0-0.004,0.001-0.006,0.001
			l-0.011,0.013l-0.007,0.008l-0.004,0.005l-0.012,0.014l-0.002,0.002l-0.01,0.012l-0.008,0.009l-0.004,0.005l-0.012,0.014
			l-0.003,0.003c-0.131,0.15-0.264,0.3-0.399,0.448l-0.012,0.014l0,0l-0.012,0.014l-0.007,0.007l-0.005,0.006l-0.013,0.014
			l-0.001,0.001l-0.011,0.013l-0.008,0.008l-0.017,0.019l-0.002,0.002l-0.01,0.012l-0.008,0.009l-0.004,0.004l-0.012,0.014
			l-0.003,0.003l-0.01,0.01l-0.009,0.01l-0.003,0.003l-0.013,0.014l-0.003,0.004l-0.009,0.009l-0.01,0.011l-0.002,0.002
			l-0.013,0.014l-0.004,0.005l-0.019,0.021l-0.001,0.001l-0.013,0.014l-0.176,0.191L397.647,187.767L397.647,187.767z
			 M393.674,191.484c0.14-0.117,0.28-0.234,0.419-0.353C393.953,191.25,393.814,191.368,393.674,191.484L393.674,191.484z
			 M414.134,277.908c0.214-0.038,0.427-0.078,0.64-0.12c-0.012,0.003-0.025,0.005-0.038,0.007c-0.179,0.035-0.358,0.068-0.538,0.101
			c-0.016,0.003-0.032,0.006-0.048,0.009C414.146,277.906,414.14,277.907,414.134,277.908L414.134,277.908z M397.973,187.421
			l-0.005,0.005c-0.092,0.1-0.192,0.207-0.299,0.318l-0.003,0.003l-0.008,0.009l-0.006,0.006l-0.006,0.006L397.973,187.421z"/>
		<path style="fill:#FD4848;" d="M347.023,112.65L347.023,112.65L347.023,112.65z M318.941,166.537
			c16.299-6.479,35.59-3.383,49.128,9.503c5.436,5.174,9.341,11.352,11.699,17.969c0.086,0.231,0.166,0.463,0.242,0.697
			c0.006,0.007,0.008,0.015,0.008,0.024c0.082,0.232,0.159,0.466,0.231,0.701c0.013,0.029,0.022,0.059,0.029,0.09
			c0.076,0.228,0.147,0.457,0.214,0.688c0.008,0.015,0.012,0.031,0.014,0.047c0.076,0.242,0.146,0.485,0.213,0.729
			c0.003,0.001,0.004,0.003,0.001,0.006c0.07,0.236,0.135,0.473,0.195,0.712c0.007,0.015,0.011,0.031,0.013,0.048
			c0.006,0.011,0.009,0.023,0.009,0.035c0.065,0.234,0.125,0.469,0.18,0.706c0.007,0.019,0.012,0.039,0.014,0.059
			c0.03,0.111,0.057,0.224,0.081,0.337c6.036-2.398,11.663-6.108,16.435-11.121c0.417-0.438,0.823-0.881,1.216-1.333
			c0.002,0,0.004-0.001,0.006-0.001c16.392-18.599,15.273-46.988-2.84-64.229c-13.504-12.853-32.731-15.967-49.004-9.552
			c-6.083,2.397-11.755,6.122-16.559,11.169C319.235,135.62,315.444,151.787,318.941,166.537z"/>
		<path style="fill:#FD4848;" d="M319.766,399.24c-9.337,6.463-20.553,9.123-31.445,7.925c-0.001,0.003-0.003,0.003-0.004,0.003
			c-2.568,1.778-4.995,3.841-7.233,6.192l-0.469,0.505c-0.293,10.849-4.372,21.633-12.296,30.199c0.002,0.003,0.001,0.005,0,0.005
			c-0.342,12.669,4.48,25.428,14.383,34.854c18.551,17.658,47.905,16.934,65.563-1.618c0.469-0.493,0.925-0.993,1.366-1.503
			c13.157-15.067,14.89-36.481,5.473-53.208c-2.206-3.923-5.026-7.587-8.456-10.852C338.998,404.462,329.512,400.31,319.766,399.24z
			"/>
		<path style="fill:#FD4848;" d="M323.767,261.919c-2.239,2.353-4.182,4.879-5.831,7.534c1.73,10.819-0.372,22.152-6.365,31.797
			c1.549,9.681,6.164,18.951,13.813,26.232c18.551,17.658,47.905,16.934,65.563-1.618c17.658-18.551,16.934-47.905-1.618-65.563
			c-7.65-7.281-17.136-11.434-26.881-12.503c-9.338,6.46-20.553,9.12-31.445,7.925C328.435,257.501,326.007,259.566,323.767,261.919
			z"/>
		
			<ellipse transform="matrix(0.6894 -0.7243 0.7243 0.6894 -47.4753 308.5321)" style="fill:#FD4848;" cx="336.069" cy="209.631" rx="46.367" ry="46.367"/>
		
			<ellipse transform="matrix(0.6894 -0.7243 0.7243 0.6894 -115.9914 283.0725)" style="fill:#FD4848;" cx="272.12" cy="276.804" rx="46.367" ry="46.367"/>
		<path style="fill:#FD4848;" d="M259.822,329.1c2.239-2.352,4.667-4.417,7.237-6.195c10.892,1.194,22.107-1.464,31.445-7.925
			c9.746,1.069,19.232,5.222,26.881,12.502c18.551,17.658,19.276,47.012,1.618,65.563c-17.658,18.551-47.012,19.276-65.563,1.618
			c-7.649-7.281-12.265-16.551-13.813-26.232c5.992-9.646,8.095-20.978,6.365-31.798C255.64,333.979,257.583,331.452,259.822,329.1z
			"/>
		<path style="fill:#FD4848;" d="M247.754,368.222L247.754,368.222l-0.127,0.209c1.548,9.681,6.164,18.951,13.813,26.232
			c5.469,5.206,11.877,8.812,18.647,10.837c2.115,13.72-1.925,28.237-12.236,39.07c-17.658,18.551-47.012,19.276-65.563,1.618
			c-10.818-10.297-15.572-24.571-14.155-38.361c0.43-0.418,0.855-0.843,1.272-1.281c4.772-5.013,8.199-10.816,10.297-16.964
			l-0.34-0.065c15.001,2.9,31.12-1.665,42.435-13.553C244.094,373.55,246.077,370.953,247.754,368.222L247.754,368.222z
			 M194.756,388.38c0.236,0.071,0.471,0.141,0.708,0.208C195.228,388.521,194.992,388.451,194.756,388.38L194.756,388.38z
			 M195.489,388.595c0.237,0.067,0.474,0.133,0.712,0.196C195.963,388.728,195.726,388.663,195.489,388.595L195.489,388.595z
			 M196.292,388.816c0.232,0.061,0.465,0.121,0.698,0.179C196.757,388.937,196.525,388.877,196.292,388.816L196.292,388.816z
			 M197.039,389.007c0.245,0.061,0.492,0.12,0.738,0.177C197.53,389.126,197.284,389.068,197.039,389.007L197.039,389.007z
			 M197.783,389.184c0.24,0.055,0.48,0.108,0.721,0.16l0.048,0.01l0.036,0.007c0.238,0.05,0.475,0.099,0.714,0.145L197.783,389.184z
			"/>
		
			<ellipse transform="matrix(0.6894 -0.7243 0.7243 0.6894 -184.5073 257.6189)" style="fill:#FD4848;" cx="208.179" cy="343.98" rx="46.367" ry="46.367"/>
		<path style="fill:#FD4848;" d="M122.224,342.601c11.23-11.798,27.19-16.383,42.094-13.618
			c-5.665,16.599-1.623,35.713,11.915,48.599c6.753,6.428,14.938,10.417,23.468,12c-2.098,6.147-5.525,11.95-10.297,16.964
			c-17.658,18.551-47.012,19.276-65.563,1.618S104.565,361.152,122.224,342.601z"/>
	</g>
</g>
<path d="M511.98,450.056c-0.294-11.931-4.27-23.196-11.33-32.528c0.324-0.477,0.655-0.951,0.964-1.437
	c2.962-4.661,1.585-10.842-3.076-13.804c-4.659-2.962-10.84-1.585-13.804,3.075c-1.263,1.988-2.738,3.872-4.381,5.6
	c-1.296,1.362-2.674,2.601-4.118,3.718c-6.739,5.209-14.929,7.739-23.078,7.552c-8.732-0.201-17.419-3.519-24.229-10.001
	c-1.095-1.043-2.121-2.146-3.072-3.305c0.072-0.11,0.135-0.224,0.206-0.335c0.33-0.513,0.647-1.033,0.958-1.554
	c0.162-0.271,0.324-0.541,0.481-0.814c0.312-0.543,0.61-1.09,0.902-1.641c0.141-0.266,0.283-0.531,0.419-0.798
	c0.284-0.556,0.555-1.117,0.819-1.681c0.129-0.276,0.259-0.551,0.384-0.829c0.247-0.551,0.482-1.106,0.711-1.664
	c0.125-0.304,0.251-0.609,0.37-0.915c0.205-0.525,0.398-1.053,0.586-1.582c0.126-0.354,0.252-0.708,0.371-1.064
	c0.158-0.475,0.307-0.952,0.452-1.43c0.129-0.424,0.257-0.849,0.376-1.276c0.113-0.404,0.217-0.81,0.32-1.216
	c0.131-0.511,0.258-1.023,0.374-1.538c0.071-0.316,0.136-0.633,0.201-0.95c0.127-0.612,0.247-1.225,0.354-1.84
	c0.037-0.215,0.07-0.43,0.104-0.645c0.117-0.721,0.222-1.443,0.31-2.167c0.013-0.105,0.023-0.211,0.036-0.317
	c0.697-5.975,0.458-12.056-0.773-18.003c0.014,0.002,0.029,0.003,0.043,0.006c0.805,0.124,1.614,0.228,2.427,0.318
	c0.118,0.013,0.236,0.03,0.355,0.042c0.74,0.077,1.484,0.134,2.23,0.181c0.182,0.012,0.364,0.029,0.547,0.039
	c0.704,0.038,1.412,0.057,2.121,0.069c0.209,0.003,0.417,0.013,0.626,0.015c0.122,0.001,0.242,0.008,0.364,0.008
	c0.474,0,0.951-0.006,1.427-0.018c0.203-0.005,0.404-0.023,0.606-0.03c0.241-0.009,0.482-0.023,0.723-0.035
	c0.728-0.035,1.453-0.079,2.175-0.141c0.076-0.007,0.152-0.015,0.228-0.022c10.184-0.915,19.773-4.525,27.942-10.468
	c1.205,0.893,2.357,1.863,3.453,2.905c0.63,0.6,1.244,1.228,1.825,1.864c3.721,4.082,10.046,4.375,14.128,0.654
	s4.374-10.046,0.653-14.127c-0.898-0.986-1.847-1.955-2.818-2.879c-1.075-1.023-2.188-1.998-3.334-2.93
	c14.834-22.349,11.982-52.862-8.106-71.982c-6.965-6.63-15.462-11.284-24.596-13.678c3.755-7.886,5.645-16.595,5.424-25.581
	c-0.372-15.054-6.583-29.061-17.49-39.443c-8.037-7.65-17.887-12.626-28.433-14.593c8.343-20.799,3.782-45.515-13.414-61.882
	c-10.908-10.382-25.218-15.9-40.258-15.524c-0.893,0.022-1.781,0.068-2.666,0.131c2.431-21.4-3.523-43.242-17.612-64.004
	c-12.924-19.046-28.176-30.517-28.818-30.995c-3.642-2.714-8.655-2.632-12.207,0.199c-3.552,2.83-4.75,7.698-2.918,11.854
	c3.89,8.824,3.365,18.139-11.84,34.92c-3.708,4.093-3.397,10.417,0.695,14.125c4.093,3.71,10.417,3.398,14.125-0.695
	c6.511-7.185,13.842-16.564,17.172-27.62c12.792,15.304,27.024,39.803,20.076,68.074c-1.319,0.666-2.606,1.398-3.872,2.169
	c-0.145,0.088-0.292,0.173-0.437,0.262c-0.443,0.276-0.88,0.563-1.317,0.852c-0.314,0.207-0.628,0.414-0.937,0.627
	c-0.351,0.242-0.697,0.49-1.043,0.741c-0.385,0.278-0.767,0.562-1.145,0.85c-0.295,0.225-0.589,0.452-0.879,0.684
	c-0.419,0.333-0.833,0.676-1.243,1.022c-0.254,0.214-0.509,0.426-0.759,0.644c-0.45,0.393-0.891,0.798-1.33,1.207
	c-0.206,0.192-0.416,0.378-0.619,0.573c-0.609,0.585-1.209,1.183-1.796,1.797c-0.024,0.025-0.049,0.048-0.073,0.074l0,0
	c-0.771,0.81-1.51,1.644-2.227,2.491c-0.232,0.274-0.449,0.557-0.676,0.835c-0.475,0.583-0.943,1.17-1.392,1.769
	c-0.251,0.334-0.491,0.674-0.734,1.014c-0.403,0.562-0.796,1.129-1.177,1.703c-0.237,0.358-0.469,0.717-0.697,1.079
	c-0.367,0.582-0.719,1.171-1.064,1.765c-0.207,0.357-0.416,0.713-0.615,1.073c-0.357,0.649-0.695,1.307-1.025,1.968
	c-0.156,0.312-0.321,0.62-0.471,0.935c-0.466,0.977-0.91,1.964-1.318,2.965c-0.012,0.03-0.022,0.061-0.034,0.09
	c-0.394,0.972-0.758,1.955-1.096,2.946c-0.115,0.338-0.215,0.68-0.324,1.019c-0.222,0.691-0.437,1.384-0.632,2.083
	c-0.111,0.399-0.211,0.801-0.314,1.202c-0.167,0.653-0.324,1.308-0.466,1.967c-0.091,0.418-0.176,0.835-0.257,1.255
	c-0.128,0.664-0.241,1.331-0.345,2c-0.063,0.408-0.129,0.815-0.184,1.225c-0.097,0.728-0.172,1.459-0.24,2.191
	c-0.033,0.35-0.075,0.699-0.101,1.05c-0.08,1.079-0.135,2.162-0.153,3.248c-0.001,0.063,0.003,0.127,0.002,0.191
	c-0.013,1.025,0.003,2.052,0.046,3.08c0.015,0.367,0.047,0.735,0.07,1.102c0.033,0.541,0.054,1.081,0.103,1.622
	c-0.017,0.01-0.033,0.02-0.05,0.03c-0.864,0.502-1.713,1.029-2.551,1.578c-0.404,0.264-0.807,0.531-1.204,0.806
	c-0.261,0.18-0.52,0.363-0.778,0.548c-0.508,0.364-1.01,0.738-1.507,1.119c-0.144,0.111-0.291,0.217-0.434,0.33
	c-0.649,0.509-1.286,1.035-1.915,1.574c-0.145,0.125-0.287,0.253-0.431,0.38c-0.502,0.439-0.997,0.889-1.485,1.348
	c-0.164,0.154-0.328,0.307-0.49,0.463c-0.607,0.584-1.207,1.178-1.791,1.792c-0.013,0.014-0.025,0.028-0.038,0.042
	c-0.732,0.77-1.433,1.562-2.116,2.365c-0.248,0.291-0.484,0.589-0.726,0.883c-0.429,0.525-0.85,1.055-1.258,1.593
	c-0.283,0.371-0.56,0.745-0.832,1.121c-0.326,0.452-0.64,0.911-0.952,1.371c-0.301,0.443-0.605,0.884-0.892,1.333
	c-0.141,0.222-0.271,0.45-0.409,0.674c-3.559,5.753-5.992,11.975-7.287,18.377c-1.23-3.51-2.124-7.09-2.633-10.747
	c-3.73-26.784,13.082-49.428,13.383-49.827c3.348-4.376,2.525-10.64-1.844-14.002c-4.376-3.368-10.656-2.549-14.023,1.827
	c-0.907,1.179-22.148,29.261-17.359,64.509c1.446,10.641,5.065,20.713,10.817,30.158c-9.827,0.535-19.523,3.639-28.029,9.302
	c-16.92-31.292-20.171-58.74-9.956-83.654c0.219-0.535,0.384-1.082,0.507-1.633c5.779-13.269,14.841-24.801,24.845-35.512
	c3.77-4.036,3.553-10.364-0.483-14.134c-4.037-3.77-10.364-3.553-14.134,0.483c-7.345,7.865-16.305,18.363-23.517,31.362
	c-21.08-14.28-47.678-18.083-75.601-22.067c-15.778-2.251-32.093-4.578-48.115-8.898c-3.539-0.954-7.319,0.106-9.847,2.761
	c-2.528,2.656-3.399,6.482-2.271,9.972c5.106,15.79,8.236,31.972,11.262,47.62c5.355,27.685,10.464,54.057,25.758,74.405
	c-21.393,13.386-38.018,33.128-52.41,50.224c-22.662,26.918-36.323,41.828-53.527,35.236c-4.241-1.624-9.044-0.189-11.696,3.499
	c-2.652,3.686-2.486,8.697,0.403,12.201c0.51,0.618,12.718,15.286,32.378,27.255c16.956,10.322,34.338,15.532,51.384,15.532
	c4.499,0,8.973-0.382,13.411-1.109c-0.019,0.89-0.021,1.783,0.001,2.678c0.372,15.054,6.583,29.061,17.49,39.443
	c10.894,10.369,24.884,15.515,38.854,15.515c8.082,0,16.152-1.738,23.616-5.168c2.485,10.436,7.94,20.028,15.977,27.678
	c10.894,10.369,24.884,15.515,38.854,15.514c9.202,0,18.392-2.24,26.683-6.685c2.84,9.011,7.909,17.274,14.878,23.906
	c10.893,10.369,24.884,15.515,38.854,15.515c11.79-0.001,23.558-3.682,33.441-10.968c0.987,1.098,2.015,2.162,3.09,3.185
	c10.894,10.369,24.884,15.515,38.854,15.515c11.985-0.001,23.95-3.796,33.931-11.323c9.532,6.474,20.585,9.705,31.632,9.705
	c14.904,0,29.785-5.858,40.847-17.48h-0.001C506.838,479.407,512.351,465.11,511.98,450.056z M401.836,406.145
	c-0.108,0.089-0.216,0.176-0.325,0.264c-1.352,1.097-2.77,2.086-4.242,2.965c-0.127,0.076-0.254,0.151-0.381,0.225
	c-0.734,0.426-1.477,0.831-2.235,1.203c-0.044,0.021-0.089,0.04-0.133,0.061c-0.697,0.339-1.406,0.647-2.12,0.939
	c-0.183,0.075-0.365,0.151-0.548,0.222c-0.715,0.279-1.437,0.536-2.167,0.768c-0.23,0.073-0.463,0.137-0.695,0.206
	c-0.527,0.157-1.057,0.299-1.59,0.432c-0.295,0.073-0.589,0.151-0.885,0.216c-0.64,0.142-1.285,0.263-1.931,0.371
	c-0.403,0.066-0.807,0.122-1.212,0.175c-0.326,0.043-0.653,0.078-0.981,0.112c-0.792,0.082-1.585,0.139-2.38,0.169
	c-0.207,0.008-0.414,0.019-0.621,0.024c-0.515,0.011-1.031,0.012-1.546,0.001c-0.118-0.002-0.237-0.01-0.355-0.013
	c-0.971-0.03-1.942-0.098-2.909-0.206c-0.161-0.018-0.322-0.035-0.484-0.055c-1.559-0.194-3.108-0.491-4.637-0.886
	c-0.276-0.072-0.551-0.148-0.826-0.226c-0.616-0.175-1.228-0.368-1.836-0.576c-0.43-0.148-0.859-0.297-1.285-0.462
	c-0.349-0.134-0.696-0.276-1.042-0.422c-0.577-0.244-1.15-0.5-1.717-0.775c-3.301-1.598-6.414-3.719-9.209-6.38
	c-5.01-4.77-8.483-10.701-10.16-17.306c0.172-0.329,0.333-0.664,0.498-0.996c0.038-0.077,0.077-0.153,0.115-0.23
	c4.522-9.186,6.462-19.464,5.583-29.72c0.836-1.105,1.737-2.166,2.695-3.173c0.959-1.007,1.974-1.959,3.036-2.849
	c0.658,0.025,1.317,0.037,1.974,0.039c0.013,0,0.026,0.001,0.039,0.001c0.474,0,0.951-0.006,1.427-0.018
	c0.055-0.001,0.109-0.007,0.164-0.008c0.879-0.023,1.757-0.065,2.631-0.129c0.022-0.002,0.044-0.004,0.066-0.006
	c0.807-0.06,1.611-0.142,2.413-0.237c0.218-0.026,0.435-0.053,0.652-0.081c0.633-0.082,1.264-0.176,1.893-0.28
	c0.228-0.037,0.457-0.07,0.685-0.11c0.707-0.126,1.41-0.267,2.111-0.419c0.466-0.101,0.927-0.213,1.389-0.325
	c0.249-0.061,0.498-0.122,0.746-0.186c5.071-1.304,9.913-3.306,14.412-5.957c6.681,1.35,12.777,4.525,17.786,9.294
	c2.781,2.647,5.046,5.635,6.801,8.835c0.315,0.573,0.608,1.154,0.89,1.738c0.159,0.331,0.314,0.663,0.462,0.997
	c0.193,0.435,0.372,0.874,0.547,1.314c0.229,0.576,0.443,1.156,0.641,1.741c0.096,0.282,0.189,0.565,0.278,0.849
	c0.467,1.5,0.838,3.024,1.107,4.564c0.03,0.169,0.056,0.338,0.083,0.508c0.152,0.946,0.266,1.896,0.343,2.849
	c0.01,0.13,0.025,0.261,0.034,0.391c0.036,0.51,0.06,1.02,0.074,1.531c0.006,0.216,0.005,0.433,0.007,0.65
	c0.008,0.785-0.009,1.569-0.051,2.353c-0.018,0.334-0.038,0.669-0.065,1.003c-0.033,0.403-0.068,0.806-0.114,1.208
	c-0.076,0.654-0.165,1.307-0.276,1.956c-0.05,0.296-0.113,0.59-0.171,0.885c-0.107,0.541-0.223,1.081-0.354,1.617
	c-0.057,0.234-0.109,0.469-0.171,0.702c-0.197,0.741-0.418,1.475-0.661,2.204c-0.062,0.186-0.129,0.371-0.194,0.556
	c-0.256,0.727-0.529,1.449-0.832,2.161c-0.02,0.047-0.037,0.095-0.057,0.141c-0.333,0.774-0.701,1.535-1.089,2.288
	c-0.069,0.133-0.138,0.266-0.209,0.398c-0.803,1.509-1.719,2.97-2.745,4.371c-0.086,0.118-0.171,0.236-0.259,0.353
	c-0.523,0.696-1.068,1.379-1.646,2.043c-0.359,0.412-0.724,0.821-1.105,1.221c-0.379,0.398-0.767,0.781-1.159,1.157
	C403.169,405.002,402.51,405.585,401.836,406.145z M303.893,395.909c-0.003,0.001-0.006,0.002-0.009,0.003
	c-0.494,0.148-0.991,0.284-1.491,0.411c-0.045,0.011-0.09,0.023-0.135,0.034c-0.468,0.117-0.938,0.224-1.41,0.322
	c-0.087,0.018-0.174,0.034-0.261,0.052c-0.441,0.088-0.883,0.169-1.327,0.241c-0.129,0.021-0.26,0.038-0.39,0.058
	c-0.41,0.062-0.821,0.12-1.234,0.168c-0.178,0.021-0.358,0.035-0.537,0.053c-0.376,0.038-0.751,0.077-1.128,0.103
	c-0.215,0.015-0.431,0.021-0.647,0.032c-0.735,0.038-1.472,0.056-2.212,0.05c-0.15-0.001-0.3,0.003-0.45,0
	c-0.437-0.009-0.874-0.031-1.311-0.055c-0.118-0.007-0.237-0.01-0.355-0.017c-0.468-0.031-0.937-0.073-1.405-0.122
	c-2.27-0.235-4.495-0.68-6.654-1.327c-0.665-0.199-1.321-0.417-1.968-0.651c-0.031-0.011-0.061-0.022-0.092-0.033
	c-0.642-0.234-1.275-0.486-1.899-0.755c-0.019-0.008-0.038-0.015-0.057-0.023c-0.642-0.278-1.275-0.574-1.898-0.888
	c-0.035-0.018-0.069-0.038-0.103-0.055c-0.534-0.271-1.06-0.559-1.579-0.857c-0.231-0.133-0.458-0.274-0.686-0.412
	c-0.325-0.196-0.649-0.395-0.968-0.602c-0.251-0.163-0.5-0.331-0.748-0.5c-0.3-0.205-0.597-0.416-0.892-0.631
	c-0.235-0.172-0.471-0.344-0.702-0.521c-0.328-0.251-0.65-0.512-0.97-0.775c-0.186-0.153-0.375-0.302-0.559-0.459
	c-0.503-0.43-0.999-0.872-1.483-1.333c-0.657-0.625-1.284-1.273-1.888-1.937c-0.197-0.217-0.376-0.445-0.567-0.665
	c-0.395-0.456-0.788-0.913-1.158-1.385c-0.215-0.274-0.413-0.558-0.619-0.838c-0.321-0.435-0.642-0.872-0.942-1.32
	c-0.205-0.306-0.397-0.621-0.592-0.933c-0.275-0.438-0.546-0.878-0.801-1.328c-0.186-0.328-0.362-0.662-0.538-0.996
	c-0.237-0.449-0.467-0.901-0.684-1.36c-0.163-0.345-0.32-0.694-0.472-1.044c-0.201-0.463-0.392-0.93-0.574-1.402
	c-0.138-0.358-0.273-0.717-0.399-1.081c-0.168-0.48-0.321-0.966-0.469-1.454c-0.11-0.366-0.222-0.73-0.321-1.1
	c-0.044-0.163-0.077-0.329-0.118-0.493c2.465-4.706,4.24-9.733,5.283-14.96c0.004-0.019,0.007-0.037,0.011-0.056
	c0.342-1.724,0.604-3.467,0.784-5.229c0.034-0.33,0.068-0.66,0.097-0.992c0.035-0.411,0.066-0.823,0.092-1.236
	c0.032-0.504,0.055-1.008,0.073-1.514c0.01-0.286,0.027-0.571,0.033-0.857c0.017-0.78,0.014-1.561-0.001-2.343
	c-0.002-0.099,0.002-0.197,0-0.296c-0.005-0.189-0.021-0.376-0.028-0.564c-0.019-0.542-0.045-1.085-0.08-1.628
	c-0.021-0.335-0.041-0.669-0.068-1.003c-0.007-0.08-0.009-0.16-0.016-0.24c0.836-1.105,1.737-2.166,2.695-3.173
	c0.958-1.007,1.973-1.959,3.036-2.849c10.757,0.4,21.37-2.287,30.603-7.714c6.681,1.35,12.776,4.525,17.786,9.294
	c14.528,13.828,15.097,36.897,1.269,51.425c-1.823,1.915-3.824,3.597-5.96,5.049C310.738,393.275,307.397,394.859,303.893,395.909z
	 M237.218,365.925c-0.067,0.089-0.13,0.179-0.199,0.267c-0.317,0.411-0.648,0.813-0.983,1.211c-0.074,0.087-0.143,0.178-0.218,0.265
	c-0.41,0.478-0.831,0.945-1.265,1.401c-0.488,0.513-0.992,1.005-1.505,1.485c-0.143,0.134-0.289,0.263-0.434,0.394
	c-0.391,0.355-0.787,0.702-1.191,1.037c-0.148,0.123-0.296,0.245-0.445,0.366c-0.468,0.377-0.943,0.742-1.426,1.093
	c-0.075,0.055-0.148,0.112-0.224,0.166c-1.174,0.84-2.392,1.604-3.647,2.293c-0.097,0.053-0.196,0.105-0.294,0.157
	c-0.533,0.286-1.073,0.559-1.619,0.818c-0.113,0.054-0.225,0.108-0.339,0.16c-0.6,0.277-1.207,0.539-1.82,0.782
	c-0.039,0.015-0.076,0.033-0.115,0.048c-0.659,0.259-1.326,0.496-1.999,0.716c-0.134,0.044-0.271,0.081-0.406,0.123
	c-0.499,0.156-1.001,0.302-1.506,0.436c-0.26,0.069-0.522,0.133-0.784,0.196c-0.38,0.092-0.762,0.177-1.145,0.256
	c-0.311,0.064-0.622,0.129-0.935,0.185c-0.331,0.06-0.664,0.109-0.997,0.159c-0.727,0.11-1.458,0.199-2.195,0.266
	c-0.21,0.019-0.418,0.046-0.628,0.061c-0.371,0.027-0.745,0.039-1.119,0.055c-0.321,0.013-0.641,0.028-0.962,0.033
	c-0.324,0.005-0.646,0.003-0.969,0c-0.435-0.005-0.871-0.016-1.307-0.036c-0.217-0.009-0.433-0.018-0.649-0.031
	c-1.445-0.093-2.894-0.266-4.341-0.533l-0.026-0.005c-0.851-0.158-1.693-0.347-2.526-0.564l-0.072-0.018
	c-3.338-0.877-6.519-2.225-9.462-3.997c-0.053-0.032-0.106-0.063-0.158-0.095c-1.385-0.844-2.712-1.787-3.981-2.816
	c-0.14-0.113-0.279-0.227-0.417-0.342c-0.607-0.507-1.205-1.029-1.782-1.578c-0.582-0.554-1.136-1.129-1.675-1.715
	c-0.12-0.13-0.238-0.263-0.356-0.395c-0.513-0.574-1.013-1.159-1.485-1.761c-0.007-0.009-0.014-0.017-0.021-0.026
	c-3.209-4.099-5.466-8.808-6.687-13.772c-0.005-0.019-0.009-0.038-0.014-0.057c-0.381-1.561-0.652-3.148-0.826-4.748
	c-0.022-0.208-0.042-0.417-0.06-0.625c-0.052-0.568-0.087-1.137-0.112-1.708c-0.012-0.274-0.026-0.548-0.031-0.822
	c-0.013-0.596-0.007-1.194,0.009-1.792c0.011-0.377,0.03-0.753,0.053-1.129c0.02-0.338,0.048-0.676,0.077-1.014
	c0.061-0.695,0.143-1.389,0.244-2.081c0.042-0.289,0.08-0.578,0.129-0.866c0.074-0.431,0.159-0.86,0.248-1.289
	c0.06-0.289,0.126-0.578,0.193-0.866c0.144-0.617,0.305-1.23,0.482-1.84c0.112-0.388,0.224-0.776,0.35-1.161
	c0.152-0.468,0.315-0.933,0.487-1.395c0.029-0.079,0.058-0.158,0.088-0.237c0.181-0.476,0.372-0.949,0.574-1.419
	c0.038-0.088,0.076-0.177,0.115-0.265c0.204-0.466,0.419-0.93,0.644-1.389c0.04-0.081,0.08-0.161,0.12-0.241
	c0.231-0.462,0.47-0.922,0.722-1.376c0.041-0.074,0.084-0.147,0.126-0.221c0.256-0.454,0.52-0.905,0.797-1.35
	c0.049-0.079,0.101-0.155,0.15-0.233c0.275-0.435,0.557-0.866,0.853-1.291c0.072-0.104,0.15-0.205,0.223-0.308
	c0.281-0.395,0.565-0.788,0.864-1.175c0.131-0.17,0.272-0.334,0.406-0.502c0.254-0.317,0.505-0.635,0.771-0.945
	c0.336-0.391,0.685-0.773,1.039-1.151c0.08-0.086,0.154-0.175,0.235-0.26l0,0c12.477-13.107,32.475-14.847,46.936-4.906
	c0.114,0.079,0.228,0.156,0.341,0.236c0.323,0.228,0.642,0.466,0.959,0.705c0.207,0.157,0.414,0.313,0.618,0.474
	c0.236,0.186,0.469,0.38,0.701,0.573c0.257,0.214,0.513,0.428,0.765,0.65c0.372,0.327,0.743,0.655,1.105,1
	c5.881,5.598,9.636,12.832,10.855,20.726c0.074,0.473,0.14,0.947,0.195,1.421c0.013,0.118,0.022,0.237,0.035,0.355
	c0.046,0.433,0.089,0.865,0.119,1.298c0.013,0.193,0.018,0.387,0.028,0.58c0.034,0.63,0.051,1.26,0.053,1.889
	c0.001,0.285,0.006,0.571,0,0.855c-0.007,0.345-0.026,0.688-0.043,1.031c-0.01,0.215-0.017,0.43-0.031,0.644
	c-0.026,0.387-0.062,0.773-0.1,1.159c-0.016,0.16-0.029,0.32-0.047,0.48c-0.048,0.425-0.105,0.848-0.167,1.27
	c-0.016,0.11-0.031,0.22-0.049,0.33c-0.072,0.457-0.152,0.913-0.242,1.367c-0.013,0.066-0.026,0.133-0.04,0.199
	c-0.099,0.487-0.206,0.973-0.325,1.455c-0.005,0.022-0.011,0.045-0.017,0.067c-0.877,3.542-2.293,6.949-4.213,10.103
	c-0.038,0.062-0.074,0.125-0.112,0.187c-0.278,0.45-0.569,0.893-0.866,1.331c-0.059,0.087-0.116,0.176-0.176,0.263
	C237.844,365.087,237.534,365.508,237.218,365.925z M377.405,263.554c0.29,0.193,0.585,0.378,0.871,0.579
	c0.486,0.343,0.957,0.71,1.428,1.079c0.234,0.183,0.476,0.355,0.706,0.544c0.693,0.57,1.37,1.164,2.026,1.788
	c0.485,0.461,0.951,0.935,1.406,1.417c0.212,0.225,0.412,0.456,0.617,0.684c0.225,0.25,0.45,0.5,0.667,0.755
	c0.26,0.307,0.511,0.62,0.76,0.933c0.138,0.174,0.276,0.348,0.411,0.525c0.28,0.367,0.553,0.739,0.817,1.114
	c0.081,0.114,0.16,0.23,0.239,0.345c0.294,0.429,0.582,0.86,0.855,1.298c0.015,0.024,0.029,0.049,0.044,0.072
	c1.225,1.972,2.243,4.038,3.056,6.167c0.029,0.077,0.06,0.153,0.089,0.23c4.735,12.647,2.225,27.463-7.693,37.883
	c-1.812,1.903-3.799,3.577-5.92,5.022c-3.508,2.386-7.387,4.121-11.453,5.152c-0.041,0.01-0.083,0.021-0.124,0.031
	c-0.47,0.117-0.942,0.225-1.416,0.323c-0.087,0.018-0.174,0.034-0.26,0.052c-0.439,0.088-0.879,0.169-1.321,0.241
	c-0.137,0.022-0.275,0.04-0.413,0.061c-0.402,0.061-0.805,0.118-1.209,0.165c-0.195,0.022-0.392,0.038-0.587,0.058
	c-0.358,0.036-0.716,0.073-1.076,0.099c-0.271,0.019-0.544,0.027-0.816,0.04c-0.736,0.035-1.474,0.052-2.214,0.043
	c-0.091-0.001-0.184,0.002-0.275,0c-0.489-0.01-0.979-0.033-1.469-0.062c-0.06-0.004-0.121-0.005-0.181-0.009
	c-0.518-0.034-1.037-0.08-1.556-0.136c-7.902-0.845-15.279-4.238-21.134-9.811c-5.01-4.768-8.482-10.7-10.16-17.306
	c2.47-4.709,4.25-9.739,5.295-14.97c0.007-0.033,0.013-0.067,0.02-0.1c0.339-1.713,0.599-3.446,0.779-5.197
	c0.035-0.333,0.069-0.666,0.098-1c0.035-0.412,0.066-0.824,0.092-1.237c0.032-0.498,0.054-0.997,0.073-1.497
	c0.011-0.293,0.028-0.585,0.034-0.878c0.017-0.775,0.014-1.55-0.001-2.327c-0.002-0.103,0.002-0.204,0-0.307
	c-0.005-0.197-0.022-0.391-0.029-0.587c-0.018-0.527-0.044-1.053-0.078-1.58c-0.022-0.348-0.043-0.696-0.071-1.044
	c-0.006-0.075-0.009-0.149-0.015-0.224c0.836-1.105,1.737-2.166,2.695-3.172l0.001-0.001c0.958-1.007,1.973-1.958,3.036-2.848
	c9.175,0.329,18.264-1.581,26.475-5.525c0.007-0.004,0.015-0.007,0.022-0.01c1.383-0.665,2.744-1.382,4.073-2.162
	c0.171,0.035,0.345,0.06,0.515,0.097c0.362,0.078,0.721,0.168,1.079,0.258c0.507,0.126,1.011,0.258,1.51,0.405
	c0.36,0.106,0.718,0.221,1.074,0.338c0.487,0.16,0.971,0.331,1.45,0.512c0.353,0.133,0.704,0.27,1.052,0.414
	c0.473,0.196,0.939,0.405,1.403,0.621c0.339,0.158,0.679,0.316,1.013,0.485c0.463,0.234,0.918,0.484,1.371,0.738
	c0.32,0.179,0.642,0.354,0.957,0.543C376.504,262.956,376.955,263.255,377.405,263.554z M309.749,184.552
	c0.438-0.46,0.887-0.906,1.345-1.34c0.169-0.16,0.344-0.311,0.516-0.468c0.292-0.267,0.583-0.534,0.882-0.79
	c0.208-0.178,0.422-0.348,0.634-0.521c0.275-0.225,0.549-0.45,0.83-0.666c0.215-0.165,0.434-0.324,0.652-0.485
	c0.294-0.216,0.59-0.431,0.891-0.639c0.2-0.138,0.402-0.271,0.604-0.404c0.343-0.226,0.688-0.448,1.039-0.662
	c0.162-0.099,0.326-0.197,0.489-0.294c0.422-0.248,0.848-0.49,1.28-0.721c0.098-0.053,0.196-0.106,0.295-0.158
	c1.116-0.584,2.265-1.114,3.447-1.583h0.001c12.276-4.867,26.254-2.641,36.393,5.597c0.104,0.085,0.207,0.17,0.309,0.255
	c0.62,0.515,1.229,1.047,1.818,1.608c0.576,0.548,1.125,1.118,1.661,1.699c0.125,0.135,0.247,0.271,0.37,0.408
	c1.084,1.211,2.087,2.483,2.993,3.817c0.043,0.063,0.085,0.127,0.127,0.19c1.909,2.846,3.407,5.949,4.445,9.231l0.023,0.074
	c0.257,0.819,0.487,1.648,0.686,2.488l0.009,0.037c0.002,0.008,0.003,0.015,0.005,0.022c0.333,1.414,0.573,2.835,0.737,4.255
	c0.029,0.258,0.053,0.517,0.076,0.776c0.036,0.383,0.064,0.765,0.088,1.148c0.022,0.361,0.042,0.722,0.053,1.085
	c0.008,0.257,0.008,0.513,0.011,0.77c0.014,1.439-0.055,2.867-0.206,4.278c-0.027,0.253-0.051,0.507-0.084,0.76
	c-0.047,0.365-0.103,0.729-0.161,1.092c-0.053,0.328-0.108,0.656-0.17,0.982c-0.058,0.312-0.118,0.623-0.185,0.933
	c-0.096,0.443-0.202,0.884-0.314,1.323c-0.05,0.198-0.095,0.398-0.148,0.595c-0.181,0.659-0.378,1.314-0.596,1.962
	c-0.031,0.094-0.068,0.186-0.1,0.28c-0.196,0.568-0.405,1.131-0.63,1.689c-0.058,0.145-0.119,0.289-0.179,0.433
	c-0.22,0.526-0.451,1.048-0.696,1.564c-0.058,0.123-0.115,0.247-0.174,0.369c-0.621,1.273-1.317,2.514-2.09,3.716
	c-0.061,0.094-0.126,0.187-0.188,0.281c-0.317,0.482-0.646,0.958-0.987,1.428c-0.119,0.164-0.24,0.326-0.362,0.488
	c-0.308,0.41-0.627,0.813-0.954,1.211c-0.13,0.158-0.258,0.319-0.391,0.476c-0.443,0.522-0.898,1.036-1.373,1.536
	c-0.01,0.01-0.019,0.021-0.028,0.031c-0.096,0.101-0.197,0.194-0.294,0.294c-0.344,0.353-0.689,0.705-1.047,1.044
	c-0.152,0.145-0.311,0.279-0.466,0.42c-0.31,0.284-0.619,0.569-0.938,0.842c-0.207,0.177-0.42,0.341-0.629,0.512
	c-0.27,0.221-0.538,0.445-0.815,0.658c-0.284,0.218-0.574,0.424-0.863,0.633c-0.204,0.148-0.405,0.3-0.612,0.443
	c-13.872,9.594-33.073,8.501-45.761-3.576c-0.344-0.327-0.674-0.665-1.004-1.003c-0.276-0.284-0.544-0.573-0.81-0.864
	c-0.15-0.164-0.301-0.326-0.447-0.492c-0.233-0.265-0.458-0.534-0.683-0.804c-0.173-0.208-0.348-0.416-0.516-0.628
	c-0.172-0.217-0.338-0.437-0.504-0.656c-0.213-0.281-0.426-0.562-0.631-0.849c-0.101-0.142-0.198-0.286-0.297-0.429
	c-0.261-0.378-0.52-0.758-0.766-1.145c-0.029-0.045-0.056-0.09-0.084-0.135c-3.452-5.479-5.38-11.804-5.544-18.446
	c-0.225-9.106,2.887-17.782,8.795-24.629C308.922,185.443,309.328,184.994,309.749,184.552z M272.159,240.455
	c7.139,0,14.285,2.092,20.442,6.283c1.265,1.033,2.565,2.054,3.897,3.064c0.244,0.22,0.492,0.434,0.731,0.663
	c5.884,5.6,9.64,12.839,10.856,20.738c0.073,0.469,0.139,0.939,0.193,1.41c0.013,0.116,0.022,0.232,0.034,0.348
	c0.046,0.437,0.09,0.873,0.12,1.31c0.011,0.16,0.015,0.321,0.023,0.481c0.039,0.69,0.057,1.38,0.057,2.069
	c0,0.256,0.005,0.512,0,0.766c-0.007,0.353-0.027,0.705-0.044,1.058c-0.01,0.206-0.017,0.413-0.03,0.618
	c-0.026,0.391-0.063,0.781-0.101,1.17c-0.015,0.157-0.028,0.314-0.046,0.47c-0.048,0.425-0.104,0.848-0.167,1.271
	c-0.016,0.111-0.032,0.223-0.049,0.333c-0.072,0.455-0.152,0.909-0.241,1.361c-0.014,0.069-0.027,0.139-0.041,0.208
	c-0.098,0.483-0.205,0.965-0.322,1.444c-0.007,0.028-0.014,0.057-0.021,0.085c-0.881,3.554-2.303,6.971-4.234,10.131
	c-1.338,2.187-2.91,4.253-4.72,6.154l0,0c-13.828,14.528-36.898,15.098-51.425,1.27c-0.359-0.342-0.703-0.694-1.045-1.047
	c-0.081-0.083-0.157-0.169-0.236-0.253c-0.737-0.868-1.478-1.723-2.224-2.559c-0.029-0.037-0.061-0.073-0.09-0.111
	c-0.092-0.117-0.181-0.235-0.271-0.353c-10.629-13.953-9.874-34.001,2.598-47.104c0.442-0.464,0.893-0.914,1.354-1.349
	c0.044-0.042,0.09-0.08,0.134-0.121C254.246,243.742,263.194,240.455,272.159,240.455z M468.912,336.05
	c-0.371,0.39-0.753,0.767-1.138,1.138c-0.66,0.636-1.342,1.239-2.04,1.817c-0.063,0.052-0.126,0.103-0.188,0.155
	c-5.092,4.157-11.129,6.778-17.422,7.754c-0.054,0.008-0.107,0.016-0.161,0.024c-1.678,0.253-3.375,0.381-5.076,0.397
	c-0.219,0.002-0.438,0.002-0.657,0.001c-0.809-0.007-1.618-0.03-2.426-0.09c-0.013-0.001-0.025-0.003-0.038-0.004
	c-0.848-0.064-1.694-0.164-2.539-0.289c-0.11-0.016-0.22-0.032-0.33-0.049c-3.619-0.567-7.188-1.682-10.579-3.376
	c-0.054-0.027-0.11-0.048-0.164-0.074c-3.132-1.589-6.049-3.644-8.666-6.135c-5.01-4.769-8.483-10.7-10.16-17.306
	c0.172-0.329,0.333-0.664,0.498-0.996c0.038-0.077,0.077-0.153,0.115-0.23c4.522-9.186,6.462-19.463,5.583-29.721
	c0.265-0.351,0.537-0.697,0.815-1.038c9.851-1.466,19.11-5.535,26.934-11.87c0.186-0.15,0.372-0.301,0.557-0.454
	c0.379-0.315,0.757-0.632,1.128-0.957c0.055-0.048,0.112-0.094,0.167-0.142c9.096,0.145,17.882,3.704,24.518,10.02
	C482.171,298.453,482.74,321.523,468.912,336.05z M432.25,257.348c-0.21,0.221-0.429,0.43-0.644,0.645
	c-0.283,0.283-0.566,0.564-0.857,0.836c-0.081,0.075-0.163,0.148-0.244,0.223c-5.983,5.5-13.64,8.848-21.772,9.479
	c-0.328,0.025-0.656,0.055-0.985,0.071c-0.283-0.563-0.584-1.116-0.886-1.669c-0.335-0.617-0.688-1.226-1.048-1.832
	c-0.153-0.257-0.299-0.518-0.456-0.773c-0.307-0.498-0.631-0.988-0.955-1.478c-0.146-0.221-0.289-0.445-0.438-0.665
	c-0.318-0.467-0.649-0.928-0.983-1.388c-0.179-0.247-0.358-0.494-0.541-0.738c-0.318-0.423-0.642-0.841-0.973-1.257
	c-0.232-0.292-0.468-0.58-0.706-0.867c-0.302-0.364-0.604-0.727-0.917-1.085c-0.324-0.372-0.657-0.734-0.99-1.098
	c-0.25-0.272-0.495-0.547-0.752-0.815c-0.612-0.64-1.236-1.269-1.878-1.88c-0.557-0.531-1.124-1.048-1.698-1.553
	c-0.161-0.141-0.327-0.274-0.489-0.414c-0.417-0.359-0.834-0.717-1.26-1.062c-0.204-0.165-0.414-0.322-0.62-0.484
	c-0.39-0.307-0.779-0.616-1.176-0.913c-0.235-0.176-0.476-0.341-0.713-0.513c-0.374-0.27-0.747-0.543-1.127-0.804
	c-0.26-0.178-0.526-0.347-0.789-0.521c-0.364-0.241-0.727-0.484-1.096-0.716c-0.28-0.176-0.565-0.342-0.847-0.512
	c-0.359-0.217-0.717-0.436-1.081-0.645c-0.296-0.17-0.597-0.33-0.896-0.494c-0.356-0.196-0.711-0.394-1.071-0.581
	c-0.313-0.163-0.63-0.316-0.946-0.473c-0.28-0.139-0.557-0.286-0.84-0.421c0.106-0.144,0.202-0.293,0.306-0.437
	c0.273-0.379,0.54-0.761,0.803-1.146c0.229-0.335,0.455-0.671,0.676-1.011c0.272-0.416,0.538-0.834,0.798-1.256
	c0.195-0.317,0.385-0.636,0.574-0.957c0.262-0.446,0.521-0.893,0.771-1.346c0.17-0.308,0.333-0.618,0.497-0.929
	c0.246-0.467,0.491-0.934,0.724-1.407c0.154-0.313,0.299-0.629,0.447-0.944c0.222-0.473,0.445-0.946,0.653-1.425
	c0.152-0.348,0.291-0.7,0.436-1.051c0.184-0.449,0.373-0.895,0.546-1.349c0.19-0.497,0.362-1,0.537-1.502
	c0.108-0.31,0.225-0.617,0.328-0.929c2.005-6.083,2.947-12.494,2.783-18.973c0-0.017,0-0.034,0-0.052
	c0-0.014-0.002-0.028-0.002-0.042c-0.022-0.821-0.063-1.642-0.121-2.464c-0.011-0.163-0.021-0.326-0.033-0.488
	c-0.016-0.206-0.023-0.412-0.042-0.618c0.122-0.07,0.237-0.151,0.358-0.222c0.679-0.399,1.346-0.818,2.007-1.245
	c0.27-0.174,0.545-0.339,0.812-0.517c0.921-0.617,1.825-1.259,2.708-1.932c0.135-0.103,0.264-0.215,0.398-0.32
	c0.743-0.577,1.475-1.169,2.191-1.785c0.286-0.246,0.564-0.505,0.845-0.757c0.553-0.495,1.102-0.997,1.638-1.516
	c0.129-0.125,0.266-0.238,0.394-0.364c10.121-0.662,19.947,2.885,27.374,9.954C445.508,219.751,446.078,242.82,432.25,257.348z
	 M363.159,119.431c9.715-0.262,18.938,3.317,25.976,10.016c14.527,13.828,15.097,36.898,1.27,51.425
	c-0.543,0.571-1.107,1.114-1.679,1.644c-0.145,0.134-0.291,0.267-0.438,0.398c-0.538,0.482-1.085,0.951-1.648,1.398
	c-0.034,0.027-0.067,0.057-0.101,0.084c-1.044-2.083-2.232-4.096-3.534-6.042c-0.088-0.132-0.175-0.264-0.264-0.395
	c-0.349-0.511-0.707-1.017-1.073-1.518c-0.164-0.225-0.33-0.447-0.497-0.67c-0.324-0.429-0.651-0.855-0.987-1.276
	c-0.238-0.299-0.484-0.592-0.728-0.886c-0.293-0.352-0.585-0.704-0.888-1.05c-0.335-0.383-0.682-0.757-1.027-1.132
	c-0.238-0.257-0.469-0.518-0.712-0.771c-0.606-0.633-1.225-1.255-1.862-1.861c-10.906-10.382-25.19-15.899-40.258-15.523
	c-2.34,0.058-4.65,0.273-6.93,0.609c-0.011,0.002-0.022,0.003-0.034,0.004c0.016-0.316,0.029-0.633,0.053-0.949
	c0.012-0.154,0.02-0.308,0.034-0.462c0.059-0.652,0.135-1.301,0.229-1.946c0.022-0.15,0.049-0.298,0.073-0.447
	c0.081-0.512,0.173-1.022,0.276-1.53c0.039-0.193,0.079-0.387,0.121-0.579c0.125-0.569,0.262-1.135,0.414-1.697
	c0.02-0.075,0.037-0.15,0.057-0.224c0.174-0.628,0.37-1.25,0.578-1.868c0.06-0.177,0.123-0.352,0.186-0.527
	c0.168-0.474,0.346-0.945,0.534-1.411c0.067-0.166,0.131-0.334,0.201-0.499c0.253-0.603,0.519-1.201,0.805-1.79
	c0.044-0.092,0.094-0.181,0.139-0.272c0.251-0.506,0.514-1.007,0.789-1.503c0.094-0.169,0.19-0.338,0.286-0.506
	c0.271-0.47,0.552-0.935,0.845-1.394c0.07-0.111,0.137-0.223,0.209-0.333c0.362-0.555,0.742-1.101,1.136-1.638
	c0.097-0.132,0.199-0.262,0.298-0.393c0.317-0.419,0.643-0.833,0.979-1.24c0.122-0.147,0.243-0.295,0.367-0.441
	c0.439-0.515,0.888-1.024,1.359-1.519c0.439-0.461,0.888-0.907,1.346-1.341c0.173-0.165,0.353-0.32,0.53-0.481
	c0.289-0.264,0.577-0.528,0.873-0.781c0.209-0.179,0.424-0.35,0.637-0.524c0.276-0.226,0.551-0.451,0.833-0.668
	c0.214-0.165,0.433-0.323,0.65-0.483c0.298-0.219,0.598-0.436,0.903-0.646c0.197-0.136,0.396-0.267,0.595-0.399
	c0.352-0.232,0.706-0.459,1.066-0.678c0.155-0.094,0.31-0.188,0.466-0.28c0.44-0.259,0.886-0.51,1.338-0.751
	c0.081-0.044,0.163-0.088,0.244-0.131c1.132-0.591,2.298-1.126,3.499-1.599c0.057-0.022,0.109-0.052,0.165-0.076
	C354.731,120.376,358.879,119.537,363.159,119.431z M113.391,152.244c-2.107-10.895-4.262-22.038-7.108-33.313
	c11.399,2.286,22.635,3.89,33.619,5.456c28.067,4.004,52.644,7.511,70.174,20.959c-0.008,0.025-0.016,0.051-0.024,0.077
	c-0.046,0.141-0.089,0.284-0.134,0.424c-0.207,0.639-0.41,1.279-0.603,1.919c-0.094,0.311-0.181,0.627-0.272,0.94
	c-0.14,0.482-0.281,0.964-0.413,1.447c-0.093,0.34-0.181,0.684-0.27,1.026c-0.124,0.475-0.248,0.949-0.365,1.425
	c-0.079,0.321-0.154,0.645-0.23,0.968c-0.124,0.528-0.245,1.057-0.36,1.586c-0.057,0.262-0.112,0.524-0.167,0.787
	c-0.138,0.662-0.269,1.326-0.393,1.99c-0.015,0.079-0.032,0.157-0.047,0.237c-0.009,0.049-0.016,0.098-0.025,0.147
	c-1.103,6.048-1.62,12.189-1.55,18.433c0.001,0.099,0.002,0.198,0.003,0.297c0.011,0.746,0.03,1.494,0.057,2.244
	c0.006,0.178,0.012,0.356,0.019,0.534c0.027,0.654,0.063,1.31,0.103,1.966c0.015,0.256,0.028,0.512,0.046,0.769
	c0.037,0.534,0.082,1.07,0.127,1.606c0.504,6.05,1.544,12.194,3.126,18.445l-30.684-29.206c-4.001-3.809-10.33-3.652-14.138,0.349
	c-3.808,4-3.652,10.33,0.349,14.138l30.686,29.208c-22.07-4.476-40.869-2.174-57.175,4.14
	C123.48,204.398,118.768,180.049,113.391,152.244z M35.348,335.068c4.659-1.673,9.322-4.201,14.018-7.589
	c11.399-8.225,21.909-20.71,33.037-33.929c15.957-18.955,34.013-40.391,57.063-51.242c0.032-0.014,0.064-0.026,0.096-0.041
	c20.028-9.391,42.211-9.794,67.282-1.126c0.104,0.036,0.208,0.074,0.312,0.11c0.89,0.31,1.783,0.632,2.68,0.964
	c0.227,0.084,0.455,0.171,0.682,0.257c0.777,0.293,1.557,0.594,2.339,0.903c0.296,0.117,0.593,0.236,0.89,0.356
	c0.719,0.29,1.44,0.587,2.163,0.891c0.34,0.143,0.68,0.286,1.021,0.432c0.688,0.295,1.379,0.598,2.071,0.905
	c0.365,0.162,0.73,0.323,1.097,0.489c0.682,0.309,1.368,0.628,2.055,0.949c0.372,0.174,0.743,0.344,1.116,0.522
	c0.112,0.053,0.225,0.11,0.337,0.164c-5.248,8.793-7.872,18.652-7.911,28.515c-9.728-5.292-19.979-8.416-30.692-9.337
	c-35.441-3.027-62.442,19.557-63.574,20.52c-4.205,3.58-4.713,9.892-1.133,14.097c3.58,4.205,9.89,4.713,14.097,1.134
	c0.213-0.183,21.683-18.155,48.898-15.823c3.722,0.32,7.386,1.036,10.995,2.1c-7.125,1.825-13.951,5.079-20.061,9.728
	c-0.287,0.217-0.572,0.435-0.855,0.658c-0.461,0.365-0.919,0.735-1.372,1.117c-0.454,0.382-0.901,0.776-1.346,1.174
	c-0.327,0.293-0.656,0.58-0.978,0.882c-0.768,0.72-1.523,1.46-2.258,2.231c-0.015,0.015-0.03,0.029-0.045,0.045
	c-0.603,0.634-1.184,1.283-1.754,1.939c-0.135,0.156-0.269,0.313-0.402,0.47c-0.521,0.613-1.03,1.234-1.523,1.865
	c-0.033,0.043-0.068,0.085-0.102,0.127c-0.571,0.736-1.12,1.486-1.651,2.247c-0.007,0.01-0.014,0.021-0.021,0.031
	c-1.436,2.059-2.734,4.203-3.878,6.433c-0.517-0.02-1.032-0.013-1.548-0.02c-0.411-0.005-0.822-0.019-1.232-0.016
	c-0.709,0.007-1.414,0.04-2.12,0.073c-0.867,0.04-1.729,0.103-2.59,0.183c-0.53,0.05-1.062,0.09-1.59,0.154
	c-0.619,0.075-1.232,0.176-1.847,0.271c-0.436,0.068-0.872,0.131-1.305,0.209c-0.625,0.112-1.244,0.242-1.864,0.375
	c-0.417,0.09-0.834,0.181-1.249,0.28c-0.621,0.148-1.238,0.307-1.853,0.476c-0.407,0.112-0.81,0.231-1.214,0.352
	c-0.614,0.184-1.226,0.371-1.833,0.576c-0.394,0.133-0.784,0.279-1.175,0.421c-0.607,0.22-1.215,0.436-1.815,0.677
	c-0.36,0.145-0.713,0.307-1.07,0.46c-1.062,0.453-2.11,0.939-3.145,1.457c-0.46,0.23-0.924,0.452-1.378,0.696
	c-0.467,0.25-0.924,0.521-1.384,0.785c-0.488,0.279-0.976,0.558-1.456,0.852c-0.435,0.267-0.862,0.546-1.29,0.825
	c-0.498,0.324-0.992,0.654-1.48,0.995c-0.399,0.279-0.795,0.563-1.188,0.852c-0.514,0.378-1.02,0.769-1.522,1.167
	c-0.354,0.28-0.709,0.558-1.057,0.848c-0.557,0.463-1.101,0.944-1.643,1.43c-0.279,0.251-0.563,0.493-0.838,0.749
	c-0.809,0.756-1.603,1.533-2.373,2.342c-0.612,0.643-1.204,1.3-1.782,1.965c-0.176,0.203-0.344,0.412-0.517,0.618
	c-0.394,0.467-0.785,0.938-1.163,1.416c-0.203,0.257-0.398,0.517-0.596,0.776c-0.328,0.431-0.653,0.865-0.968,1.304
	c-0.216,0.3-0.427,0.603-0.636,0.907c-0.269,0.392-0.534,0.787-0.793,1.185c-0.235,0.36-0.466,0.72-0.692,1.085
	c-0.195,0.316-0.384,0.635-0.573,0.955c-0.27,0.455-0.538,0.91-0.794,1.371c-0.078,0.141-0.152,0.285-0.229,0.427
	c-0.711,1.308-1.382,2.635-1.985,3.991C76.401,360.028,51.266,347.071,35.348,335.068z M130.736,400.92
	c-10.846-10.324-13.908-25.797-9.011-39.022c0.035-0.094,0.069-0.189,0.104-0.283c0.174-0.457,0.359-0.911,0.551-1.363
	c0.048-0.113,0.096-0.226,0.146-0.338c0.194-0.442,0.397-0.881,0.61-1.317c0.055-0.112,0.111-0.224,0.167-0.335
	c0.217-0.433,0.442-0.864,0.677-1.29c0.06-0.109,0.123-0.216,0.185-0.325c0.239-0.421,0.483-0.84,0.74-1.253
	c0.074-0.119,0.152-0.236,0.228-0.354c0.252-0.396,0.509-0.791,0.778-1.179c0.104-0.15,0.215-0.296,0.321-0.444
	c0.252-0.351,0.504-0.703,0.77-1.047c0.175-0.226,0.36-0.445,0.541-0.668c0.212-0.262,0.42-0.527,0.641-0.785
	c0.415-0.483,0.842-0.958,1.284-1.423c0.469-0.493,0.954-0.965,1.446-1.428c0.137-0.129,0.277-0.255,0.416-0.382
	c0.39-0.356,0.787-0.702,1.19-1.039c0.124-0.104,0.247-0.211,0.372-0.313c0.52-0.423,1.048-0.832,1.588-1.224
	c0.085-0.061,0.172-0.119,0.258-0.18c0.464-0.331,0.935-0.649,1.412-0.956c0.152-0.098,0.304-0.194,0.457-0.29
	c0.485-0.302,0.976-0.594,1.474-0.872c0.085-0.048,0.168-0.098,0.253-0.145c0.584-0.32,1.176-0.623,1.776-0.91
	c0.134-0.064,0.269-0.124,0.403-0.186c0.481-0.223,0.967-0.436,1.457-0.638c0.158-0.065,0.317-0.132,0.476-0.195
	c1.229-0.486,2.482-0.903,3.757-1.252c0.172-0.047,0.346-0.091,0.519-0.135c0.498-0.128,0.999-0.246,1.502-0.353
	c0.161-0.034,0.322-0.072,0.484-0.104c0.639-0.127,1.283-0.239,1.93-0.331c0.125-0.018,0.251-0.03,0.376-0.046
	c0.367-0.048,0.736-0.084,1.104-0.121c-0.041,0.417-0.056,0.835-0.087,1.253c-0.017,0.225-0.032,0.449-0.047,0.675
	c-0.044,0.701-0.08,1.401-0.098,2.102c-0.008,0.293-0.008,0.587-0.011,0.88c-0.007,0.647-0.014,1.293,0.002,1.939
	c0.011,0.472,0.04,0.943,0.062,1.415c0.023,0.475,0.034,0.951,0.069,1.424c0.071,0.984,0.173,1.966,0.296,2.946
	c0.02,0.158,0.047,0.315,0.068,0.473c0.118,0.883,0.256,1.762,0.416,2.639c0.022,0.122,0.047,0.243,0.071,0.364
	c0.178,0.944,0.381,1.884,0.607,2.82c0.009,0.038,0.018,0.075,0.027,0.113c1.49,6.107,4.009,12.002,7.549,17.414
	c0.005,0.008,0.01,0.016,0.015,0.023c0.545,0.832,1.114,1.651,1.707,2.459c0.076,0.103,0.151,0.207,0.228,0.31
	c0.525,0.705,1.07,1.4,1.633,2.085c0.129,0.158,0.256,0.318,0.387,0.475c0.536,0.638,1.091,1.264,1.66,1.883
	c0.153,0.167,0.3,0.339,0.455,0.505c0.714,0.759,1.449,1.506,2.213,2.234c0.04,0.038,0.082,0.073,0.122,0.111
	c0.584,0.553,1.178,1.093,1.783,1.618c0.299,0.26,0.606,0.506,0.909,0.759c0.345,0.287,0.687,0.578,1.038,0.857
	c0.398,0.317,0.805,0.62,1.21,0.925c0.256,0.193,0.51,0.388,0.77,0.576c0.477,0.347,0.962,0.68,1.448,1.011
	c0.184,0.125,0.368,0.252,0.554,0.375c0.554,0.367,1.114,0.721,1.679,1.067c0.111,0.068,0.222,0.136,0.333,0.203
	c0.634,0.382,1.275,0.751,1.922,1.108c0.028,0.015,0.055,0.03,0.083,0.045c1.408,0.771,2.843,1.483,4.307,2.128
	c-0.025,0.034-0.051,0.068-0.076,0.102c-0.423,0.589-0.868,1.165-1.328,1.731c-0.121,0.149-0.243,0.298-0.366,0.445
	c-0.502,0.599-1.017,1.189-1.561,1.76c-0.021,0.022-0.042,0.042-0.063,0.063C168.268,414.178,145.244,414.73,130.736,400.92z
	 M209.182,438.945c-7.427-7.07-11.447-16.713-11.293-26.85c0.12-0.135,0.228-0.278,0.347-0.414c0.489-0.557,0.96-1.126,1.424-1.699
	c0.241-0.298,0.489-0.591,0.723-0.893c0.575-0.74,1.126-1.494,1.661-2.259c0.102-0.145,0.212-0.285,0.312-0.431
	c0.628-0.915,1.224-1.85,1.795-2.799c0.165-0.274,0.315-0.556,0.475-0.832c0.395-0.683,0.782-1.371,1.148-2.072
	c0.065-0.124,0.139-0.242,0.203-0.367c1.158,0.047,2.312,0.045,3.464,0.022c0.051-0.001,0.103-0.001,0.154-0.002
	c0.036-0.001,0.071-0.004,0.107-0.005c0.893-0.023,1.782-0.066,2.669-0.131c0.021-0.002,0.043-0.003,0.064-0.005
	c0.907-0.067,1.811-0.155,2.711-0.266c0.022-0.003,0.044-0.005,0.066-0.008c0.881-0.109,1.758-0.238,2.631-0.389
	c0.045-0.008,0.091-0.014,0.136-0.022c0.836-0.146,1.668-0.311,2.495-0.495c0.076-0.017,0.154-0.031,0.23-0.048
	c0.786-0.178,1.567-0.374,2.344-0.586c0.109-0.029,0.219-0.054,0.327-0.085c0.756-0.211,1.507-0.44,2.254-0.683
	c0.116-0.038,0.235-0.069,0.351-0.108c0.81-0.269,1.614-0.557,2.411-0.862c0.551-0.211,1.093-0.442,1.637-0.67
	c0.25-0.105,0.504-0.203,0.753-0.312c0.557-0.243,1.106-0.505,1.656-0.767c0.233-0.111,0.468-0.217,0.699-0.331
	c0.536-0.264,1.064-0.544,1.591-0.826c0.243-0.13,0.488-0.257,0.73-0.39c0.503-0.279,1-0.57,1.495-0.864
	c0.264-0.157,0.528-0.313,0.789-0.474c0.466-0.288,0.926-0.585,1.384-0.886c0.288-0.19,0.575-0.38,0.86-0.576
	c0.424-0.291,0.844-0.588,1.261-0.891c0.316-0.229,0.629-0.463,0.941-0.699c0.38-0.288,0.757-0.579,1.13-0.878
	c0.136-0.109,0.277-0.21,0.412-0.32c0.149,0.278,0.311,0.55,0.465,0.825c0.171,0.305,0.339,0.612,0.516,0.914
	c0.203,0.347,0.416,0.689,0.627,1.032c0.181,0.295,0.359,0.592,0.546,0.883c0.221,0.345,0.453,0.684,0.682,1.024
	c0.19,0.282,0.375,0.566,0.57,0.845c0.24,0.342,0.49,0.678,0.738,1.016c0.198,0.27,0.39,0.542,0.593,0.808
	c0.259,0.34,0.529,0.672,0.795,1.006c0.204,0.256,0.403,0.516,0.612,0.768c0.283,0.342,0.578,0.676,0.87,1.013
	c0.205,0.237,0.404,0.477,0.613,0.711c0.328,0.366,0.668,0.722,1.006,1.08c0.185,0.196,0.363,0.396,0.551,0.59
	c0.531,0.548,1.075,1.086,1.631,1.616c0.613,0.584,1.241,1.152,1.88,1.707c0.386,0.336,0.782,0.657,1.176,0.982
	c0.236,0.194,0.469,0.394,0.708,0.584c0.545,0.435,1.1,0.854,1.659,1.268c0.078,0.058,0.155,0.117,0.233,0.174
	c3.276,2.399,6.772,4.42,10.438,6.041c0,0.327-0.014,0.653-0.022,0.979c-0.23,8.146-3.193,15.951-8.38,22.192
	c-0.077,0.092-0.151,0.185-0.228,0.277c-0.253,0.298-0.514,0.59-0.778,0.88c-0.207,0.229-0.409,0.462-0.623,0.686
	C246.779,452.204,223.71,452.773,209.182,438.945z M289.597,471.68c-6.636-6.316-10.624-14.916-11.217-23.994
	c0.153-0.192,0.298-0.391,0.449-0.585c0.26-0.334,0.52-0.667,0.772-1.006c0.409-0.553,0.808-1.114,1.195-1.681
	c0.355-0.516,0.696-1.04,1.032-1.566c0.05-0.078,0.098-0.156,0.147-0.235c4.665-7.375,7.516-15.673,8.373-24.324
	c0.333-0.3,0.672-0.595,1.016-0.883c0.596,0.022,1.192,0.031,1.787,0.035c0.075,0,0.15,0.005,0.225,0.005
	c0.474,0,0.951-0.006,1.427-0.018c0.068-0.002,0.134-0.008,0.202-0.01c0.851-0.023,1.7-0.063,2.547-0.125
	c0.097-0.007,0.194-0.018,0.291-0.026c0.721-0.056,1.439-0.128,2.156-0.211c0.272-0.032,0.543-0.066,0.815-0.101
	c0.549-0.072,1.097-0.154,1.644-0.243c0.463-0.074,0.924-0.154,1.384-0.24c0.51-0.096,1.02-0.193,1.527-0.303
	c0.516-0.111,1.027-0.234,1.539-0.359c0.193-0.047,0.385-0.095,0.577-0.144c5.097-1.303,9.963-3.311,14.483-5.975
	c6.68,1.35,12.776,4.526,17.785,9.294c2.767,2.634,5.024,5.604,6.776,8.786c0.327,0.593,0.63,1.193,0.921,1.798
	c0.155,0.324,0.307,0.649,0.452,0.977c0.2,0.449,0.384,0.902,0.565,1.356c0.222,0.562,0.431,1.128,0.624,1.699
	c0.098,0.288,0.193,0.576,0.284,0.866c0.466,1.497,0.836,3.018,1.105,4.554c0.03,0.171,0.057,0.342,0.084,0.513
	c0.152,0.946,0.266,1.897,0.344,2.851c0.01,0.128,0.024,0.257,0.033,0.385c0.036,0.511,0.06,1.023,0.074,1.535
	c0.006,0.211,0.005,0.421,0.007,0.632c0.009,0.794-0.009,1.589-0.052,2.382c-0.018,0.326-0.037,0.653-0.064,0.978
	c-0.033,0.409-0.069,0.817-0.116,1.224c-0.076,0.649-0.164,1.297-0.274,1.942c-0.051,0.303-0.116,0.605-0.175,0.907
	c-0.105,0.531-0.219,1.061-0.348,1.588c-0.058,0.241-0.112,0.483-0.176,0.724c-0.195,0.736-0.415,1.465-0.657,2.189
	c-0.064,0.193-0.133,0.384-0.201,0.575c-0.252,0.716-0.521,1.426-0.819,2.127c-0.024,0.056-0.045,0.114-0.069,0.17
	c-0.331,0.768-0.695,1.524-1.081,2.271c-0.072,0.14-0.146,0.28-0.22,0.419c-0.8,1.501-1.711,2.955-2.731,4.35
	c-0.091,0.124-0.181,0.248-0.273,0.371c-0.519,0.691-1.061,1.37-1.635,2.029c-0.361,0.415-0.728,0.826-1.11,1.227
	C327.194,484.938,304.124,485.507,289.597,471.68z M364.981,479.412c-1.095-1.042-2.12-2.145-3.071-3.305
	c0.072-0.111,0.136-0.225,0.207-0.336c0.328-0.511,0.643-1.026,0.953-1.545c0.164-0.276,0.33-0.551,0.489-0.829
	c0.308-0.536,0.603-1.077,0.891-1.621c0.145-0.273,0.29-0.545,0.431-0.82c0.28-0.549,0.546-1.102,0.807-1.657
	c0.133-0.284,0.267-0.568,0.396-0.854c0.243-0.542,0.474-1.088,0.699-1.636c0.129-0.314,0.259-0.628,0.382-0.944
	c0.2-0.514,0.389-1.031,0.574-1.55c0.13-0.365,0.26-0.73,0.383-1.098c0.154-0.463,0.299-0.929,0.441-1.395
	c0.133-0.436,0.264-0.871,0.386-1.31c0.109-0.393,0.211-0.788,0.311-1.183c0.134-0.523,0.263-1.046,0.382-1.572
	c0.068-0.304,0.131-0.61,0.194-0.915c0.13-0.624,0.252-1.248,0.361-1.875c0.035-0.203,0.066-0.407,0.099-0.61
	c0.119-0.733,0.225-1.466,0.315-2.203c0.011-0.094,0.021-0.187,0.031-0.281c0.7-5.982,0.462-12.071-0.771-18.026
	c6.588,1.028,13.28,0.861,19.759-0.43c0.124-0.025,0.248-0.054,0.372-0.079c0.75-0.155,1.498-0.32,2.242-0.505
	c0.265-0.065,0.527-0.139,0.791-0.209c0.601-0.159,1.201-0.321,1.797-0.5c0.375-0.112,0.747-0.235,1.121-0.355
	c0.482-0.156,0.964-0.311,1.442-0.48c0.455-0.16,0.906-0.332,1.357-0.504c0.394-0.151,0.788-0.3,1.18-0.46
	c0.505-0.206,1.006-0.423,1.507-0.645c0.335-0.148,0.671-0.296,1.004-0.45c0.531-0.247,1.057-0.506,1.582-0.771
	c0.299-0.151,0.598-0.301,0.894-0.457c0.536-0.282,1.068-0.577,1.596-0.877c0.283-0.161,0.566-0.323,0.847-0.489
	c0.523-0.31,1.041-0.63,1.556-0.959c0.283-0.18,0.565-0.363,0.846-0.549c0.499-0.33,0.992-0.67,1.482-1.018
	c0.145-0.103,0.294-0.197,0.438-0.301c1.205,0.894,2.358,1.863,3.453,2.905c14.528,13.828,15.097,36.898,1.269,51.426
	C402.579,492.67,379.51,493.239,364.981,479.412z M481.97,476.525L481.97,476.525c-11.708,12.303-30.043,14.595-44.208,6.614
	c5.905-9.324,8.933-20.182,8.655-31.464c-0.085-3.439-0.489-6.82-1.17-10.12c0.146,0.023,0.294,0.037,0.441,0.058
	c0.454,0.067,0.908,0.124,1.363,0.18c0.423,0.052,0.845,0.104,1.268,0.147c0.461,0.046,0.923,0.081,1.385,0.117
	c0.419,0.032,0.839,0.065,1.258,0.087c0.465,0.025,0.93,0.038,1.395,0.051c0.419,0.012,0.838,0.026,1.257,0.029
	c0.126,0.001,0.252,0.009,0.378,0.009c0.301,0,0.602-0.017,0.903-0.022c0.493-0.008,0.987-0.016,1.48-0.036
	c0.418-0.018,0.836-0.046,1.254-0.073c0.496-0.032,0.992-0.065,1.488-0.11c0.414-0.038,0.828-0.084,1.241-0.131
	c0.497-0.056,0.993-0.115,1.488-0.184c0.41-0.057,0.819-0.122,1.227-0.188c0.498-0.081,0.994-0.165,1.49-0.259
	c0.404-0.076,0.806-0.159,1.208-0.244c0.497-0.105,0.992-0.216,1.486-0.335c0.399-0.096,0.796-0.197,1.193-0.301
	c0.493-0.13,0.984-0.267,1.473-0.41c0.394-0.115,0.787-0.234,1.179-0.358c0.488-0.155,0.973-0.317,1.458-0.485
	c0.388-0.134,0.775-0.271,1.16-0.414c0.482-0.179,0.961-0.368,1.439-0.561c0.382-0.154,0.762-0.308,1.141-0.471
	c0.475-0.204,0.946-0.418,1.416-0.636c0.374-0.173,0.748-0.345,1.119-0.527c0.465-0.228,0.926-0.467,1.385-0.708
	c0.369-0.194,0.738-0.385,1.104-0.587c0.453-0.251,0.901-0.514,1.348-0.779c0.362-0.214,0.726-0.424,1.084-0.647
	c0.442-0.275,0.877-0.564,1.313-0.852c0.354-0.234,0.709-0.463,1.058-0.705c0.089-0.062,0.181-0.117,0.269-0.179
	c3.481,5.495,5.423,11.848,5.588,18.52C492.226,460.262,488.668,469.487,481.97,476.525z"/>
<path d="M157.024,153.424c-4-3.81-10.329-3.652-14.138,0.347c-3.808,4-3.652,10.33,0.348,14.138l0.265,0.252
	c1.936,1.844,4.417,2.758,6.894,2.758c2.642,0,5.279-1.041,7.244-3.105c3.808-4,3.652-10.33-0.348-14.138L157.024,153.424z"/>
<path d="M269.341,92.252c2.477,0,4.962-0.91,6.901-2.74l0.1-0.094c4.031-3.775,4.214-10.08,0.439-14.111
	c-3.776-4.032-10.129-4.214-14.16-0.44l-0.163,0.153c-4.016,3.791-4.171,10.095-0.379,14.11
	C264.039,91.207,266.686,92.252,269.341,92.252z"/>
<path d="M490.001,380.636l0.027,0.196c0.681,5.017,4.971,8.655,9.896,8.655c0.448,0,0.902-0.03,1.358-0.092
	c5.473-0.743,9.307-5.782,8.563-11.255l-0.039-0.282c-0.767-5.469-5.83-9.281-11.292-8.515
	C493.046,370.112,489.234,375.168,490.001,380.636z"/>
<g>
</g>
<g>
</g>
<g>
</g>
<g>
</g>
<g>
</g>
<g>
</g>
<g>
</g>
<g>
</g>
<g>
</g>
<g>
</g>
<g>
</g>
<g>
</g>
<g>
</g>
<g>
</g>
<g>
</g>
</svg>
