<?xml version="1.0" encoding="iso-8859-1"?>
<!-- Generator: Adobe Illustrator 21.0.0, SVG Export Plug-In . SVG Version: 6.00 Build 0)  -->
<svg version="1.1" id="Capa_1" xmlns="http://www.w3.org/2000/svg" xmlns:xlink="http://www.w3.org/1999/xlink" x="0px" y="0px"
	 viewBox="0 0 511.998 511.998" style="enable-background:new 0 0 511.998 511.998;" xml:space="preserve">
<g>
	<path style="fill:#F3F3C2;" d="M273.93,302.304c-15.166-58.215,37.854-114.646-40.222-145.276s-77.57,46.799-128.276,79.172
		C-212.218,439.013,368.94,667.007,273.93,302.304z"/>
	<g>
		<path style="fill:#AA836D;" d="M208.713,362.047l-23.664-29.665l-0.07-0.088l-14.054,35.824
			C163.97,404.232,223.728,403.925,208.713,362.047z"/>
		<path style="fill:#AA836D;" d="M112.63,324.352l37.522-5.661l0.111-0.017l-14.054,35.824
			C116.753,385.708,73.145,344.85,112.63,324.352z"/>
	</g>
	<path style="fill:#FFB86E;" d="M447.199,236.134c25.015,34.402,48.92,76.859,53.855,119.833
		c1.764,15.359,1.077,30.866-2.992,45.823c-3.632,13.349-9.796,25.63-18.266,36.562c-27.126,35.011-73.525,51.651-117.283,55.071
		c-4.561,0.356-9.091,0.57-13.569,0.644c-1.221,0.02-2.444-0.002-3.665,0.033c-33.707,0.981-69.412-6.111-98.137-23.1
		c33.37-27.774,49.606-81.102,26.787-168.695c-12.159-46.674,19.497-92.198-7.706-124.202c0.244-1.064,0.487-2.13,0.727-3.197
		c4.035-17.883,8.131-39.377,19.391-54.251c14.137-18.674,36.741-22.953,58.938-22.953c22.199,0,44.8,4.28,58.939,22.953
		c11.261,14.874,15.357,36.367,19.391,54.251C428.502,196.585,433.898,217.84,447.199,236.134z"/>
	<path style="fill:#00C56E;" d="M288.703,44.847c8.393,48.316-74.331,124.581-148.204,57.784
		c47.489-122.628,147.993-58.907,147.993-58.907C288.568,44.097,288.638,44.471,288.703,44.847z"/>
	<path style="fill:#AA836D;" d="M322.988,99.558c4.429-17.636,13.322-37.39,21.699-52.947c5.358-9.951,10.505-18.186,14.137-23.054
		c11.36-15.226,40.801-3.682,22.211,23.896c-5.26,7.803-15.472,30.225-22.322,50.856c-4.445-0.433-8.947-0.608-13.432-0.608
		C337.782,97.701,330.237,98.192,322.988,99.558z"/>
</g>
<path d="M426.916,250.883c-3.258-4.482-9.533-5.472-14.014-2.214c-4.481,3.258-5.473,9.533-2.214,14.014
	c26.96,37.079,42.276,70.197,45.519,98.434c1.209,10.527,0.636,20.224-1.703,28.821c-1.455,5.346,1.7,10.859,7.048,12.313
	c0.882,0.24,1.768,0.355,2.639,0.355c4.414,0,8.46-2.937,9.675-7.402c3.012-11.068,3.777-23.308,2.276-36.377
	C472.496,327.112,455.934,290.794,426.916,250.883z"/>
<path d="M458.282,408.707c-4.396-3.368-10.693-2.539-14.066,1.859l-0.072,0.094c-3.417,4.362-2.652,10.668,1.71,14.084
	c1.836,1.439,4.016,2.135,6.18,2.135c2.978,0,5.926-1.319,7.904-3.845l0.202-0.261C463.511,418.375,462.68,412.078,458.282,408.707z
	"/>
<path d="M9.549,356.227c0.712,0.154,1.423,0.228,2.123,0.228c4.625,0,8.784-3.217,9.797-7.922l0.148-0.68
	c1.203-5.408-2.206-10.767-7.614-11.971c-5.41-1.197-10.768,2.207-11.971,7.615l-0.178,0.812
	C0.688,349.724,4.133,355.06,9.549,356.227z"/>
<path d="M191.327,404.435c7.097,0,14.097-2.299,19.561-6.806c4.929-4.065,15.503-15.999,7.267-38.969
	c-0.372-1.038-0.913-2.008-1.601-2.87l-23.673-29.676l-0.07-0.088c-2.237-2.797-5.799-4.188-9.337-3.652
	c-3.541,0.537-6.528,2.92-7.836,6.254l-14.054,35.824c-0.225,0.572-0.396,1.164-0.513,1.768
	c-2.768,14.374,2.355,26.978,13.702,33.713C179.859,402.951,185.624,404.435,191.327,404.435z M180.629,370.847l7.341-18.714
	l11.8,14.791c1.468,4.681,2.659,11.673-1.649,15.227c-3.285,2.709-9.041,2.941-13.106,0.528
	C181.224,380.428,179.75,376.45,180.629,370.847z"/>
<path d="M111.754,375.209c2.138,0.46,4.259,0.687,6.346,0.687c10.512,0,20.163-5.726,26.623-16.091
	c0.325-0.522,0.602-1.07,0.826-1.643l14.054-35.824c1.308-3.334,0.739-7.112-1.491-9.914c-2.231-2.801-5.781-4.198-9.328-3.673
	l-37.652,5.681c-1.09,0.165-2.146,0.508-3.125,1.015c-21.656,11.242-22.018,27.184-21.169,33.515
	C88.538,361.624,98.783,372.417,111.754,375.209z M115.87,334.01l18.709-2.823l-7.341,18.714c-3.165,4.706-6.952,6.623-11.261,5.693
	c-4.621-0.994-8.684-5.079-9.251-9.3C105.983,340.761,111.611,336.443,115.87,334.01z"/>
<path d="M160.292,64.313c1.911,1.696,4.288,2.529,6.657,2.529c2.768,0,5.524-1.14,7.506-3.372l0.203-0.23
	c3.631-4.186,3.156-10.494-1.03-14.124c-4.184-3.63-10.547-3.151-14.177,1.034C155.772,54.292,156.149,60.634,160.292,64.313z"/>
<path d="M511.022,354.822c-4.342-37.804-23.085-79.721-55.708-124.587c-11.981-16.48-17.014-35.807-21.917-57.535
	c-0.316-1.403-0.634-2.829-0.954-4.272c-4-17.994-8.534-38.387-20.226-53.827c-9.383-12.394-22.595-20.425-40.027-24.269
	c6.109-16.22,13.335-31.59,17.164-37.27c13.495-20.021,7.246-34.957-2.207-41.663c-11.453-8.126-27.765-5.363-36.362,6.16
	c-2.866,3.841-6.82,9.97-11.143,17.527c-10.092-2.063-28.501-4.587-47.906-1.108c-11.054-6.356-61.812-32.341-108.801-3.787
	c-4.735,2.877-6.241,9.048-3.364,13.783s9.05,6.243,13.783,3.363c34.385-20.892,73.554-3.743,85.862,2.683
	c1.116,19.62-15.59,44.956-39.311,58.505c-13.733,7.842-48.879,22.01-87.38-8.823c1.674-3.909,3.432-7.653,5.252-11.189
	c2.535-4.926,0.598-10.975-4.329-13.511c-4.928-2.534-10.975-0.599-13.511,4.329c-3.137,6.095-6.095,12.715-8.791,19.676
	c-1.501,3.875-0.456,8.276,2.626,11.063c18.802,17,39.326,26.579,61.003,28.469c2.572,0.225,5.15,0.336,7.729,0.336
	c16.214,0,32.439-4.41,47.353-12.929c29.251-16.707,48.83-46.377,49.445-72.836c11.53-1.497,22.561-0.599,30.5,0.614
	c-5.733,11.775-11.209,24.858-14.92,37.462c-15.71,4.114-27.791,11.864-36.534,23.414c-9.785,12.924-14.553,29.314-18.193,44.865
	c-6.421-4.415-13.999-8.331-22.779-11.776c-25.92-10.169-46.971-10.243-64.358-0.23c-15.222,8.767-25.266,23.513-35.9,39.125
	c-10.361,15.212-21.074,30.941-37.08,41.16c-26.466,16.898-48.065,34.805-64.197,53.227c-6.366,7.269-11.981,14.738-16.69,22.196
	c-1.055,1.671-2.083,3.37-3.054,5.05c-2.773,4.796-1.132,10.933,3.665,13.706c4.796,2.773,10.933,1.133,13.707-3.664
	c0.842-1.456,1.733-2.93,2.649-4.382c4.152-6.578,9.137-13.201,14.818-19.688c14.881-16.992,35.034-33.658,59.9-49.534
	c19.474-12.435,31.902-30.679,42.866-46.776c19.895-29.208,33.039-48.503,76.346-31.513c13.624,5.344,22.614,11.293,28.378,18.023
	c0.055,0.068,0.1,0.142,0.158,0.209c12.377,14.561,9.567,33.198,6.01,56.794c-2.686,17.815-5.686,37.829-1.512,58.427
	c0.056,0.276,0.097,0.551,0.156,0.827c0.295,1.392,0.624,2.788,0.987,4.185c0.594,2.278,1.16,4.538,1.702,6.779
	c0.224,0.926,0.426,1.837,0.642,2.756c0.303,1.296,0.613,2.597,0.899,3.88c0.264,1.184,0.505,2.352,0.753,3.525
	c0.211,0.991,0.429,1.989,0.63,2.973c0.271,1.331,0.519,2.646,0.769,3.965c0.152,0.801,0.314,1.607,0.459,2.403
	c0.263,1.435,0.503,2.853,0.742,4.272c0.11,0.653,0.228,1.311,0.333,1.961c0.245,1.509,0.467,3.002,0.686,4.49
	c0.079,0.54,0.164,1.084,0.24,1.621c0.22,1.563,0.419,3.11,0.609,4.65c0.055,0.444,0.114,0.892,0.167,1.334
	c0.19,1.601,0.359,3.188,0.517,4.764c0.037,0.366,0.076,0.735,0.111,1.1c0.155,1.625,0.291,3.235,0.411,4.834
	c0.023,0.305,0.048,0.611,0.07,0.915c0.117,1.634,0.215,3.253,0.296,4.859c0.013,0.26,0.027,0.521,0.039,0.779
	c0.076,1.629,0.133,3.243,0.173,4.842c0.006,0.23,0.012,0.46,0.016,0.688c0.034,1.61,0.049,3.205,0.045,4.786
	c-0.001,0.215-0.002,0.428-0.003,0.643c-0.009,1.578-0.037,3.142-0.084,4.689c-0.007,0.215-0.014,0.428-0.022,0.643
	c-0.052,1.532-0.122,3.049-0.213,4.55c-0.014,0.232-0.03,0.462-0.044,0.693c-0.094,1.469-0.205,2.923-0.334,4.362
	c-0.024,0.27-0.052,0.538-0.078,0.807c-0.132,1.385-0.279,2.76-0.445,4.117c-0.04,0.331-0.086,0.658-0.129,0.987
	c-0.166,1.28-0.341,2.55-0.537,3.804c-0.066,0.425-0.141,0.845-0.211,1.268c-0.189,1.141-0.383,2.275-0.597,3.394
	c-0.109,0.57-0.23,1.129-0.345,1.692c-0.195,0.953-0.39,1.906-0.604,2.843c-0.183,0.797-0.381,1.579-0.577,2.364
	c-0.17,0.682-0.333,1.37-0.514,2.045c-0.318,1.186-0.657,2.355-1.007,3.512c-0.077,0.256-0.147,0.518-0.226,0.772
	c-5.508,17.773-14.801,32.242-27.838,43.093c-0.314,0.262-0.61,0.541-0.887,0.835c-27.778,22.431-70.808,27.441-116.794,13.227
	c-53.188-16.439-93.112-53.345-101.713-94.021c-0.584-2.761-1.029-5.575-1.326-8.361c-0.585-5.509-5.528-9.507-11.036-8.917
	c-5.51,0.586-9.501,5.527-8.916,11.036c0.368,3.465,0.922,6.96,1.647,10.389c10.081,47.687,55.386,90.488,115.418,109.041
	c18.757,5.797,37.726,8.749,55.823,8.749c6.773,0,13.428-0.413,19.899-1.247c21.058-2.711,39.901-9.91,55.271-21
	c25.939,13.77,57.752,21.203,90.952,21.202c2.162-0.001,4.335-0.032,6.507-0.095c1.173-0.033,2.354-0.011,3.53-0.03
	c0.004,0,0.008,0,0.012,0c4.708-0.079,9.48-0.307,14.183-0.674c53.288-4.163,98.642-25.643,124.431-58.928
	c9.322-12.032,16.056-25.515,20.016-40.073C511.932,389.033,513.034,372.346,511.022,354.822z M337.05,87.871
	c8.652-24.324,23.024-49.216,29.814-58.315c1.474-1.975,3.545-2.729,5.399-2.729c1.287,0,2.47,0.363,3.273,0.934
	c2.7,1.916,1.566,7.576-2.821,14.085c-5.57,8.261-14.405,27.758-20.971,45.944c-2.084-0.08-4.232-0.12-6.464-0.12
	c-1.881,0-3.698,0.04-5.487,0.098c-0.188,0.006-0.375,0.014-0.563,0.021C338.504,87.816,337.764,87.835,337.05,87.871z
	 M488.383,399.155c-3.263,11.998-8.82,23.119-16.517,33.051c-22.332,28.822-62.473,47.49-110.134,51.214
	c-3.104,0.243-6.241,0.418-9.364,0.525c-9.468-8.109-14.664-18.035-15.458-29.549c-0.365-5.292-4.772-9.342-9.999-9.342
	c-0.231,0-0.465,0.008-0.7,0.023c-5.29,0.365-9.339,4.768-9.341,9.991c-0.001,0.235,0.008,0.471,0.023,0.708
	c0.698,10.121,3.755,19.537,9.008,27.956c-22.33-1.46-43.498-6.635-61.738-15.111c6.313-7.03,12.373-15.754,17.401-26.545
	c0.105-0.226,0.211-0.452,0.315-0.68c0.136-0.298,0.273-0.596,0.407-0.896c11.851-26.289,17.28-64.031,6.568-118.039
	c-0.027-0.138-0.055-0.278-0.082-0.416c-0.243-1.218-0.495-2.444-0.754-3.678c-0.054-0.26-0.108-0.519-0.164-0.778
	c-0.24-1.129-0.489-2.266-0.742-3.409c-0.075-0.339-0.148-0.677-0.226-1.017c-0.245-1.086-0.498-2.181-0.754-3.28
	c-0.09-0.386-0.178-0.77-0.27-1.159c-0.267-1.126-0.544-2.26-0.824-3.399c-0.086-0.35-0.169-0.696-0.256-1.048
	c-0.371-1.49-0.751-2.989-1.146-4.501c-0.42-1.614-0.762-3.232-1.07-4.854c-3.198-16.826-0.636-33.94,1.869-50.54
	c2.819-18.678,5.481-36.319,0.281-53.099c-0.595-1.919-1.29-3.786-2.077-5.607c-0.013-0.031-0.027-0.061-0.041-0.092
	c-0.247-0.569-0.504-1.133-0.769-1.691c-0.106-0.226-0.218-0.45-0.328-0.675c-0.174-0.352-0.35-0.702-0.531-1.05
	c-0.166-0.32-0.334-0.64-0.507-0.959c-0.114-0.211-0.234-0.418-0.351-0.627c-0.921-1.644-1.931-3.27-3.063-4.873
	c0.218-0.969,0.435-1.947,0.654-2.934c3.555-15.989,7.585-34.11,16.634-46.062c9.165-12.106,23.917-18.162,46.193-18.897
	c0.147-0.005,0.298-0.008,0.446-0.013c1.405-0.042,2.835-0.066,4.301-0.066c1.454,0,2.87,0.025,4.265,0.066
	c0.22,0.006,0.435,0.014,0.653,0.021c22.179,0.761,36.88,6.815,46.021,18.89c9.051,11.953,13.081,30.078,16.636,46.069
	c0.325,1.464,0.647,2.909,0.968,4.333c5.202,23.056,11.048,45.37,25.262,64.919c30.565,42.035,48.061,80.753,52.003,115.076
	C492.808,372.091,491.899,386.236,488.383,399.155z"/>
<g>
</g>
<g>
</g>
<g>
</g>
<g>
</g>
<g>
</g>
<g>
</g>
<g>
</g>
<g>
</g>
<g>
</g>
<g>
</g>
<g>
</g>
<g>
</g>
<g>
</g>
<g>
</g>
<g>
</g>
</svg>
