<?xml version="1.0" encoding="iso-8859-1"?>
<!-- Generator: Adobe Illustrator 21.0.0, SVG Export Plug-In . SVG Version: 6.00 Build 0)  -->
<svg version="1.1" id="Capa_1" xmlns="http://www.w3.org/2000/svg" xmlns:xlink="http://www.w3.org/1999/xlink" x="0px" y="0px"
	 viewBox="0 0 512 512" style="enable-background:new 0 0 512 512;" xml:space="preserve">
<g>
	<path style="fill:#FF8244;" d="M171.828,502c-24.282,0-125.26-50.724-118.074-142.96c3.233-41.501,33.882-134.983,33.882-176.586
		c0-45.683,10.791-131.329,84.192-131.329s84.192,85.646,84.192,131.329c0,8.393,1.249,18.9,3.267,30.665
		c-26.366,37.058-63.149,81.075-77.037,106.937c-35.397,65.92,4.895,135.513,33.356,164.902
		C197.011,496.196,180.036,502,171.828,502z"/>
	<path style="fill:#87DD60;" d="M155.916,10h31.825v42.604c-4.947-0.965-10.242-1.479-15.912-1.479s-10.965,0.514-15.912,1.479
		L155.916,10L155.916,10z"/>
	<path style="fill:#FF8244;" d="M232.657,498.49c-22.22-9.791-94.173-96.925-50.406-178.433
		c19.693-36.674,85.434-109.861,102.209-147.932c18.42-41.805,62.83-115.828,129.999-86.231
		c67.17,29.597,42.51,112.323,24.09,154.128c-16.775,38.071-26.422,135.974-40.198,175.256
		C367.736,502.581,254.877,508.281,232.657,498.49z"/>
	<path style="fill:#FFB86E;" d="M251.523,455.673c14.619,1.768,39.5-3.638,51.618-8.042c23.58-8.569,43.074-23.295,51.612-47.643
		c3.532-10.071,5.877-21.793,8.003-32.253c3.257-16.025,6.077-32.156,9.011-48.243c5.594-30.681,11.999-69.721,24.503-98.1
		c6.795-15.421,12.624-32.648,15.044-49.349c2.593-17.901,3.075-35.692-15.483-43.869c-6.383-2.813-12.289-4.004-18.936-1.51
		c-21.58,8.095-41.52,44.496-50.154,64.092c-12.504,28.379-36.994,59.451-55.86,84.283c-9.893,13.021-19.894,25.989-29.522,39.206
		c-6.284,8.627-13.352,18.268-18.401,27.671c-12.207,22.732-9.919,47.055-0.331,70.239
		C227.552,424.069,240.353,446.078,251.523,455.673z"/>
</g>
<path d="M99.072,106.874c1.305,0.57,2.664,0.841,4.003,0.841c3.804,0,7.432-2.183,9.104-5.854
	c2.307-4.985,0.159-10.904-4.818-13.246c-4.997-2.354-10.954-0.208-13.306,4.79c-0.039,0.083-0.1,0.215-0.137,0.299
	C91.705,98.764,94.012,104.66,99.072,106.874z"/>
<path d="M105.197,330.015l0.04-0.184c1.176-5.396-2.245-10.724-7.642-11.899c-5.399-1.174-10.724,2.245-11.899,7.642l-0.04,0.185
	c-2.404,11.034-5.13,23.54-6.046,35.298c-2.313,29.686,9.969,57.991,35.515,81.857c1.929,1.801,4.379,2.692,6.825,2.692
	c2.673,0,5.341-1.065,7.31-3.173c3.77-4.036,3.555-10.364-0.48-14.135c-21.244-19.847-31.078-41.947-29.229-65.689
	C100.36,352.218,102.93,340.422,105.197,330.015z"/>
<path d="M137.662,460.197c1.772,1.281,3.821,1.898,5.854,1.898c3.099,0,6.154-1.436,8.11-4.14
	c3.237-4.475,2.233-10.727-2.241-13.964c-0.094-0.067-0.353-0.251-0.385-0.272c-4.55-3.13-10.776-1.977-13.905,2.575
	c-3.106,4.518-1.992,10.687,2.477,13.837L137.662,460.197z"/>
<path d="M418.491,76.742c-32.873-14.483-65.406-8.217-94.078,18.128c-23.388,21.489-39.612,51.68-49.104,73.223
	c-2.215,5.026-5.383,10.766-9.244,17.018c-0.028-0.916-0.044-1.802-0.044-2.656c0-23.542-2.674-57.712-15.41-86.806
	c-11.603-26.507-29.633-43.718-52.87-50.816V10c0-5.523-4.478-10-10-10h-31.824c-5.522,0-10,4.477-10,10v34.807
	c-11.262,3.418-21.309,9.201-30.017,17.345c-4.033,3.773-4.245,10.102-0.473,14.135c3.774,4.034,10.101,4.246,14.135,0.473
	c7.988-7.472,17.285-12.202,28.157-14.325c0.037-0.007,0.075-0.008,0.112-0.015c1.099-0.214,2.217-0.402,3.353-0.564
	c0.003,0,0.005-0.001,0.008-0.001c1.07-0.152,2.158-0.276,3.257-0.381c0.105-0.01,0.209-0.022,0.314-0.031
	c0.997-0.091,2.009-0.156,3.027-0.208c0.179-0.009,0.353-0.023,0.532-0.031c1.158-0.051,2.327-0.079,3.508-0.079
	c1.119,0,2.225,0.029,3.324,0.075c0.227,0.009,0.452,0.021,0.678,0.032c1.055,0.053,2.104,0.12,3.137,0.215
	c0.019,0.002,0.038,0.003,0.057,0.005c2.333,0.216,4.606,0.539,6.802,0.967c0.027,0.005,0.055,0.007,0.082,0.012
	c20.8,4.055,36.053,17.646,46.381,41.238c11.947,27.292,13.732,61.076,13.732,78.785c0,7.505,0.893,16.765,2.724,28.214
	c-8.843,12.281-18.796,25.355-28.447,38.032c-19.338,25.401-37.605,49.395-46.857,66.625c-0.534,0.994-1.052,1.993-1.558,2.996
	c-0.216,0.428-0.419,0.859-0.629,1.289c-0.28,0.573-0.565,1.144-0.837,1.72c-0.268,0.57-0.524,1.144-0.783,1.716
	c-0.197,0.435-0.4,0.867-0.591,1.304c-0.294,0.668-0.574,1.34-0.856,2.011c-0.143,0.341-0.291,0.68-0.431,1.022
	c-0.304,0.743-0.595,1.491-0.884,2.238c-0.104,0.27-0.213,0.539-0.316,0.81c-0.306,0.809-0.599,1.621-0.889,2.434
	c-0.074,0.209-0.152,0.418-0.225,0.627c-0.303,0.867-0.592,1.737-0.876,2.609c-0.051,0.156-0.103,0.311-0.153,0.467
	c-0.296,0.923-0.578,1.849-0.852,2.777c-0.03,0.103-0.062,0.206-0.092,0.31c-0.284,0.974-0.555,1.951-0.816,2.931
	c-0.015,0.057-0.031,0.115-0.046,0.172c-0.27,1.021-0.526,2.046-0.769,3.074c-0.003,0.014-0.007,0.028-0.01,0.041
	c-4.458,18.836-4.524,38.731-0.154,59.065c0.041,0.191,0.078,0.382,0.119,0.574c0.155,0.708,0.324,1.418,0.49,2.127
	c0.109,0.467,0.212,0.933,0.326,1.4c0.146,0.6,0.305,1.202,0.459,1.803c0.147,0.574,0.29,1.148,0.444,1.722
	c0.15,0.559,0.31,1.118,0.466,1.677c0.172,0.614,0.34,1.227,0.52,1.841c0.164,0.56,0.337,1.12,0.508,1.68
	c0.146,0.48,0.284,0.96,0.435,1.44c0.034,0.109,0.073,0.218,0.108,0.327c0.428,1.352,0.869,2.706,1.336,4.06
	c4.519,13.13,10.546,25.4,17.184,36.324c0.079,0.132,0.158,0.264,0.238,0.396c0.494,0.809,0.993,1.605,1.494,2.399
	c4.337,6.913,9.054,13.512,14.052,19.586c-13.68,6.971-24.05,9.704-28.023,9.704c-9.231,0-46.493-14.022-75.708-45.602
	c-23.955-25.895-34.855-55.025-32.396-86.582c1.396-17.92,8.258-46.495,15.522-76.748c9.041-37.65,18.39-76.582,18.39-100.613
	c0-14.199,1.09-35.519,6.28-56.449c1.329-5.36-1.938-10.784-7.299-12.113c-5.363-1.327-10.784,1.938-12.113,7.299
	c-5.677,22.891-6.868,45.95-6.868,61.264c0,21.663-9.067,59.425-17.837,95.943c-7.454,31.044-14.496,60.366-16.015,79.865
	c-2.868,36.814,10.152,71.987,37.655,101.717C112.427,493.476,154.554,512,171.828,512c9.821,0,25.89-5.628,42.274-14.635
	c5.483,4.975,10.499,8.504,14.522,10.276c5.914,2.605,16.593,4.334,29.986,4.334c30.696,0,75.64-9.081,110.073-37.484
	c4.261-3.514,4.865-9.816,1.351-14.077c-3.515-4.261-9.816-4.866-14.077-1.351c-42.238,34.842-105.872,36.181-119.269,30.275
	c-4.484-1.976-14.602-10.752-25.203-24.635c-22.83-30.182-46.881-83.217-23.303-134.153c0.001-0.003,0.003-0.006,0.004-0.009
	c0.386-0.835,0.791-1.668,1.204-2.502c0.075-0.152,0.146-0.304,0.222-0.456c0.429-0.857,0.874-1.714,1.331-2.57
	c0.04-0.076,0.078-0.152,0.118-0.228c8.504-15.837,26.305-39.219,45.15-63.973c9.282-12.192,18.685-24.546,27.265-36.389
	c0.145-0.2,0.291-0.4,0.435-0.6c1.041-1.439,2.067-2.869,3.081-4.292c0.146-0.205,0.298-0.413,0.443-0.617
	c0.011-0.015,0.019-0.032,0.03-0.047c11.361-15.977,20.894-30.795,26.146-42.713c7.141-16.205,22.395-46.401,44.333-66.559
	c20.184-18.546,40.904-24.485,63.076-18.005l-10.721,24.33c-4.927-0.946-10.673-0.964-16.918,1.377
	c-28.018,10.511-49.788,55.795-55.793,69.423c-11.022,25.016-32.647,53.373-50.021,76.159c-1.581,2.073-3.134,4.11-4.651,6.107
	c-2.075,2.731-4.155,5.461-6.235,8.19c-7.736,10.151-15.737,20.649-23.406,31.178l-0.456,0.626
	c-6.291,8.635-13.421,18.422-18.673,28.201c-12.501,23.279-12.757,49.789-0.762,78.792c5.205,12.584,18.854,36.314,31.622,47.282
	c1.501,1.29,3.352,2.105,5.316,2.343c2.308,0.279,4.803,0.406,7.428,0.406c16.394,0,37.774-4.967,48.808-8.977
	c29.498-10.722,48.889-28.8,57.632-53.732c3.674-10.476,6.085-22.343,8.212-32.814l0.154-0.758
	c2.603-12.808,4.958-25.839,7.236-38.441c0.603-3.334,1.205-6.668,1.813-9.999c0.449-2.466,0.904-4.986,1.367-7.55
	c5.091-28.2,11.427-63.296,22.45-88.313c8.169-18.54,13.481-36.018,15.788-51.947c1.75-12.072,5.152-35.601-12.667-49.354
	l10.78-24.465c19.743,11.99,29.344,31.288,29.278,58.697c-0.071,29.793-12.062,61.428-19.203,77.634
	c-9.689,21.991-16.833,61.388-23.74,99.486c-5.551,30.614-10.794,59.53-16.742,76.492c-1.828,5.212,0.916,10.919,6.127,12.746
	c5.211,1.828,10.919-0.917,12.746-6.127c6.473-18.456,11.853-48.128,17.548-79.543c6.7-36.954,13.629-75.166,22.364-94.99
	c9.492-21.543,20.824-53.89,20.9-85.649C468.694,119.467,451.366,91.229,418.491,76.742z M165.916,41.3V20h11.824v21.3
	c-0.577-0.034-1.161-0.053-1.742-0.077c-0.336-0.014-0.668-0.034-1.005-0.044c-1.049-0.033-2.104-0.052-3.164-0.052
	c-1.219,0-2.429,0.029-3.634,0.073c-0.392,0.014-0.782,0.033-1.172,0.052C166.654,41.269,166.283,41.278,165.916,41.3z
	 M401.416,170.609c-2.048,14.138-6.858,29.867-14.298,46.75c-11.98,27.19-18.551,63.582-23.829,92.824
	c-0.461,2.552-0.914,5.06-1.361,7.516c-0.609,3.341-1.214,6.685-1.818,10.028c-2.259,12.498-4.595,25.421-7.154,38.016l-0.154,0.759
	c-1.999,9.841-4.265,20.995-7.485,30.177c-6.663,19-22.002,32.981-45.59,41.555c-10.291,3.739-30.84,8.306-43.935,7.752
	c-9.239-9.299-19.74-27.536-23.925-37.654c-9.593-23.191-9.626-43.946-0.1-61.687c4.602-8.571,11.304-17.77,17.217-25.886
	l0.457-0.627c7.542-10.354,15.476-20.763,23.148-30.83c2.087-2.737,4.173-5.475,6.254-8.214c1.51-1.988,3.056-4.016,4.629-6.079
	c18.017-23.627,40.439-53.032,52.42-80.222c11.052-25.082,29.102-52.979,44.515-58.761c2.815-1.057,5.702-1.209,11.392,1.299
	C402.073,141.852,404.41,149.94,401.416,170.609z"/>
<path d="M386.546,439.707c-4.384-3.13-10.437-2.216-13.711,2.004c-3.309,4.211-2.714,10.32,1.407,13.808
	c1.879,1.59,4.173,2.366,6.455,2.366c2.84,0,5.661-1.203,7.639-3.541c0.177-0.208,0.376-0.464,0.535-0.687
	C392.081,449.163,391.04,442.917,386.546,439.707z"/>
<path d="M376.935,183.117c-5.523,0-10,4.477-10,10v0.276c0,5.522,4.477,10,10,10c5.522,0,10-4.478,10-10v-0.276
	C386.935,187.595,382.457,183.117,376.935,183.117z"/>
<path d="M347.417,224.185c5.522,0,10-4.478,10-10v-0.276c0-5.523-4.478-10-10-10s-10,4.477-10,10v0.276
	C337.417,219.707,341.895,224.185,347.417,224.185z"/>
<path d="M381.813,148.979c-5.523,0-10,4.478-10,10v0.275c0,5.522,4.477,10,10,10c5.522,0,10-4.478,10-10v-0.275
	C391.813,153.456,387.335,148.979,381.813,148.979z"/>
<path d="M356.658,242.923c-5.522,0-10,4.478-10,10v0.277c0,5.522,4.478,10,10,10s10-4.478,10-10v-0.277
	C366.658,247.4,362.181,242.923,356.658,242.923z"/>
<path d="M322.775,269.874c5.522,0,10-4.477,10-10v-0.276c0-5.522-4.478-10-10-10s-10,4.477-10,10v0.276
	C312.775,265.397,317.253,269.874,322.775,269.874z"/>
<path d="M304.809,306.322c5.522,0,10-4.478,10-10v-0.276c0-5.522-4.478-10-10-10c-5.523,0-10,4.478-10,10v0.276
	C294.809,301.845,299.286,306.322,304.809,306.322z"/>
<path d="M344.337,282.966c-5.522,0-10,4.478-10,10v0.276c0,5.522,4.478,10,10,10s10-4.478,10-10v-0.276
	C354.337,287.443,349.859,282.966,344.337,282.966z"/>
<path d="M328.937,320.441c-5.522,0-10,4.478-10,10v0.276c0,5.522,4.478,10,10,10s10-4.478,10-10v-0.276
	C338.937,324.919,334.459,320.441,328.937,320.441z"/>
<path d="M268.873,337.124c5.522,0,10-4.477,10-10v-0.276c0-5.522-4.478-10-10-10s-10,4.478-10,10v0.276
	C258.873,332.647,263.351,337.124,268.873,337.124z"/>
<path d="M310.189,347.896v-0.276c0-5.522-4.478-10-10-10s-10,4.478-10,10v0.276c0,5.522,4.478,10,10,10
	S310.189,353.418,310.189,347.896z"/>
<path d="M327.14,360.74c-5.522,0-10,4.478-10,10v0.276c0,5.522,4.478,10,10,10s10-4.478,10-10v-0.276
	C337.14,365.218,332.662,360.74,327.14,360.74z"/>
<path d="M312.252,395.137c-5.522,0-10,4.478-10,10v0.276c0,5.522,4.478,10,10,10s10-4.478,10-10v-0.276
	C322.252,399.614,317.774,395.137,312.252,395.137z"/>
<path d="M261.932,357.413v-0.276c0-5.522-4.477-10-10-10c-5.522,0-10,4.478-10,10v0.276c0,5.522,4.478,10,10,10
	S261.932,362.935,261.932,357.413z"/>
<path d="M271.953,368.698c-5.523,0-10,4.478-10,10v0.276c0,5.522,4.477,10,10,10c5.522,0,10-4.478,10-10v-0.276
	C281.953,373.176,277.476,368.698,271.953,368.698z"/>
<path d="M262.969,402.047c-5.522,0-10,4.478-10,10v0.276c0,5.522,4.478,10,10,10s10-4.478,10-10v-0.276
	C272.969,406.524,268.491,402.047,262.969,402.047z"/>
<g>
</g>
<g>
</g>
<g>
</g>
<g>
</g>
<g>
</g>
<g>
</g>
<g>
</g>
<g>
</g>
<g>
</g>
<g>
</g>
<g>
</g>
<g>
</g>
<g>
</g>
<g>
</g>
<g>
</g>
</svg>
