<?xml version="1.0" encoding="iso-8859-1"?>
<!-- Generator: Adobe Illustrator 21.0.0, SVG Export Plug-In . SVG Version: 6.00 Build 0)  -->
<svg version="1.1" id="Capa_1" xmlns="http://www.w3.org/2000/svg" xmlns:xlink="http://www.w3.org/1999/xlink" x="0px" y="0px"
	 viewBox="0 0 512 512" style="enable-background:new 0 0 512 512;" xml:space="preserve">
<g>
	<path style="fill:#FFB86E;" d="M358.308,177.5c-24.399-93.006-90.92-159.743-169.172-159.743C90.202,17.757,10,124.423,10,256
		s80.202,238.243,179.136,238.243c26.541,0,51.731-7.686,74.389-21.461c-47.227-27.499-78.972-78.674-78.972-137.263
		c0-87.66,71.063-158.723,158.723-158.723c5.071,0,10.084,0.248,15.034,0.714C358.31,177.507,358.309,177.503,358.308,177.5
		L358.308,177.5z M194.79,173.87c-8.831,14.931-24.857,21.791-35.795,15.322s-12.646-23.818-3.815-38.749
		c8.831-14.932,24.857-21.791,35.795-15.322C201.913,141.59,203.621,158.939,194.79,173.87L194.79,173.87z M199.401,91.177
		c-8.831,14.931-24.857,21.791-35.795,15.321c-10.938-6.469-12.646-23.818-3.815-38.749s24.857-21.791,35.795-15.322
		C206.525,58.897,208.233,76.245,199.401,91.177L199.401,91.177z M136.844,111.157c2.511,17.165-5.646,32.571-18.22,34.41
		s-24.803-10.584-27.315-27.749c-2.511-17.164,5.646-32.571,18.22-34.41C122.104,81.569,134.333,93.992,136.844,111.157z"/>
	<g>
		
			<ellipse transform="matrix(0.5091 -0.8607 0.8607 0.5091 -53.6707 230.2208)" style="fill:#AA836D;" cx="174.992" cy="162.162" rx="31.41" ry="23.01"/>
		
			<ellipse transform="matrix(0.5091 -0.8607 0.8607 0.5091 19.7715 193.5888)" style="fill:#AA836D;" cx="179.599" cy="79.461" rx="31.41" ry="23.01"/>
		
			<ellipse transform="matrix(0.9895 -0.1448 0.1448 0.9895 -15.3749 17.726)" style="fill:#AA836D;" cx="114.089" cy="114.488" rx="23.011" ry="31.411"/>
	</g>
	<g>
		<path style="fill:#FFB86E;" d="M184.554,335.52c0,58.589,31.744,109.763,78.972,137.263c0.003-0.002,0.005-0.003,0.008-0.005
			C216.305,445.279,184.554,394.11,184.554,335.52L184.554,335.52z M358.311,177.511c-0.007-0.001-0.014-0.001-0.02-0.002
			C358.297,177.509,358.304,177.51,358.311,177.511L358.311,177.511z M343.277,176.797c0.169,0,0.338,0,0.507,0.001
			c0.015,0,0.031,0,0.047,0c0.036,0,0.072,0,0.108,0.001c4.844,0.02,9.637,0.257,14.369,0.701
			C438.918,185.072,502,252.929,502,335.52c0,87.66-71.063,158.723-158.723,158.723c-29.071,0-56.317-7.816-79.751-21.461
			c-47.227-27.499-78.972-78.674-78.972-137.263c0-42.817,16.853-81.38,44.08-109.772c0.011-0.011,0.022-0.023,0.033-0.034
			c21.277-22.175,48.885-38.14,79.733-45.073C319.644,178.114,331.32,176.787,343.277,176.797L343.277,176.797z M343.277,205.851
			c71.614,0,129.669,58.055,129.669,129.669s-58.055,129.669-129.669,129.669S213.608,407.134,213.608,335.52
			S271.663,205.851,343.277,205.851z"/>
		<path style="fill:#FFB86E;" d="M267.775,335.52c0,41.698,33.803,75.502,75.502,75.502c18.799,0,35.994-6.871,49.21-18.238
			c3.216-2.766,6.197-5.799,8.908-9.064c10.857-13.076,17.384-29.875,17.384-48.199c0-16.959-5.591-32.612-15.031-45.216
			c-3.145-4.199-6.717-8.06-10.652-11.518c-13.479-11.831-31.056-18.767-49.818-18.767
			C301.578,260.018,267.775,293.822,267.775,335.52z"/>
	</g>
	<path style="fill:#F3F3C2;" d="M393.095,278.786c3.935,3.458,7.507,7.319,10.652,11.518c9.44,12.604,15.031,28.257,15.031,45.216
		c0,18.324-6.528,35.123-17.384,48.199c-2.723,3.284-5.706,6.313-8.908,9.064c-13.215,11.367-30.41,18.238-49.21,18.238
		c-41.698,0-75.502-33.803-75.502-75.502s33.803-75.502,75.502-75.502c19.082,0,36.511,7.079,49.803,18.754
		C393.085,278.777,393.09,278.781,393.095,278.786L393.095,278.786z M213.608,335.52c0,71.614,58.055,129.669,129.669,129.669
		s129.669-58.055,129.669-129.669s-58.055-129.669-129.669-129.669S213.608,263.906,213.608,335.52z"/>
</g>
<path d="M293.497,76.537c1.969,2.11,4.637,3.177,7.313,3.177c2.444,0,4.894-0.891,6.821-2.689
	c4.038-3.769,4.256-10.097,0.487-14.134l-0.137-0.145l-7.298,6.837l7.27-6.866c-3.791-4.015-10.121-4.195-14.136-0.404
	c-4.015,3.792-4.196,10.121-0.404,14.137C293.418,76.453,293.493,76.532,293.497,76.537z"/>
<path d="M44.93,229.688c-5.499-0.327-10.238,3.901-10.553,9.414c-0.319,5.602-0.481,11.287-0.481,16.898
	c0,53.169,14.132,104.144,39.792,143.533c1.917,2.943,5.12,4.543,8.388,4.543c1.871,0,3.764-0.524,5.449-1.622
	c4.627-3.015,5.935-9.21,2.92-13.837c-23.57-36.182-36.55-83.279-36.55-132.617c0-5.233,0.151-10.536,0.449-15.76
	C54.659,234.726,50.444,230.001,44.93,229.688z"/>
<path d="M200.678,43.82L200.678,43.82c-15.935-9.422-37.673-1.147-49.493,18.839c-5.345,9.036-7.778,19.2-6.852,28.618
	c1.026,10.419,6.195,19.104,14.182,23.829c4.287,2.535,9.181,3.809,14.285,3.809c4.406,0,8.969-0.95,13.429-2.859
	c8.7-3.724,16.435-10.752,21.78-19.789C219.83,76.281,216.61,53.243,200.678,43.82z M190.794,86.085
	c-3.151,5.328-7.684,9.55-12.435,11.584c-2.175,0.932-6.322,2.197-9.662,0.222c-3.34-1.976-4.228-6.22-4.459-8.574
	c-0.506-5.144,1.01-11.149,4.162-16.477c5.019-8.485,12.452-12.831,17.989-12.831c1.549,0,2.95,0.341,4.108,1.025
	C195.792,64.167,197.217,75.226,190.794,86.085z"/>
<path d="M153.904,197.799c4.452,2.634,9.356,3.884,14.373,3.884c12.934,0,26.603-8.321,35.121-22.722
	c11.821-19.986,8.6-43.024-7.332-52.448c0,0,0,0-0.001,0c-15.931-9.423-37.672-1.147-49.493,18.839
	c-5.345,9.037-7.778,19.201-6.851,28.618C140.748,184.39,145.917,193.075,153.904,197.799z M163.788,155.533
	c5.019-8.485,12.452-12.831,17.989-12.831c1.549,0,2.95,0.341,4.108,1.025c5.295,3.134,6.721,14.192,0.298,25.052
	c-6.424,10.859-16.8,14.937-22.098,11.805c-3.34-1.976-4.228-6.22-4.459-8.573C159.12,166.867,160.636,160.862,163.788,155.533z"/>
<path d="M120.072,155.462c18.314-2.68,30.028-22.776,26.667-45.753c-1.52-10.389-6.013-19.824-12.652-26.568
	c-7.344-7.461-16.823-10.968-26.005-9.627c-18.315,2.68-30.029,22.776-26.667,45.753c3.114,21.28,17.91,36.49,34.629,36.49
	C117.376,155.757,118.721,155.66,120.072,155.462z M101.204,116.371c-1.826-12.484,3.685-22.178,9.774-23.068
	c0.347-0.051,0.69-0.074,1.028-0.074c3.404,0,6.318,2.409,7.828,3.942c3.626,3.684,6.22,9.309,7.116,15.433
	c1.826,12.485-3.685,22.179-9.773,23.069C111.084,136.573,103.031,128.856,101.204,116.371z"/>
<path d="M366.164,168.354c-8.801-30.738-21.988-58.491-39.255-82.574c-3.219-4.487-9.466-5.519-13.954-2.3
	c-4.489,3.218-5.519,9.466-2.3,13.954c14.374,20.048,26.052,43.812,34.15,69.369c-0.471-0.004-0.94-0.006-1.409-0.006
	c-0.04,0-0.079-0.002-0.119-0.002c-46.517,0-88.698,18.922-119.25,49.474c-30.552,30.551-49.474,72.732-49.474,119.249
	c0,0.042,0.002,0.083,0.002,0.124c0.001,1.672,0.033,3.336,0.083,4.996c0.014,0.479,0.036,0.958,0.055,1.437
	c0.051,1.315,0.116,2.625,0.196,3.932c0.026,0.425,0.051,0.85,0.081,1.274c0.246,3.551,0.6,7.072,1.063,10.56
	c0.01,0.078,0.022,0.156,0.033,0.234c0.228,1.701,0.485,3.394,0.764,5.079c0.03,0.179,0.059,0.359,0.089,0.538
	c0.603,3.574,1.314,7.112,2.14,10.606c0.028,0.121,0.06,0.241,0.089,0.361c0.36,1.508,0.741,3.007,1.141,4.5
	c0.113,0.424,0.228,0.848,0.345,1.271c0.34,1.229,0.694,2.451,1.061,3.668c0.141,0.47,0.275,0.941,0.42,1.41
	c0.437,1.406,0.892,2.804,1.365,4.194c0.336,0.991,0.691,1.976,1.045,2.961c0.147,0.409,0.293,0.818,0.444,1.225
	c3.435,9.331,7.681,18.37,12.744,26.986c11.761,20.013,27.57,37.417,46.264,51.052c-17.581,8.181-35.964,12.316-54.839,12.316
	C95.874,484.243,20,381.854,20,256S95.874,27.757,189.136,27.757c28.283,0,56.29,9.66,80.992,27.935
	c4.439,3.285,10.701,2.349,13.986-2.092c3.285-4.439,2.348-10.702-2.091-13.986c-28.17-20.841-60.29-31.857-92.887-31.857
	c-51.068,0-98.892,26.199-134.661,73.771C19.346,128.247,0,190.209,0,256s19.346,127.753,54.475,174.473
	c35.769,47.572,83.593,73.77,134.661,73.77c25.945,0,51.001-6.723,74.562-19.983c23.721,12.743,50.819,19.983,79.579,19.983
	C436.311,504.243,512,428.554,512,335.52C512,250.248,448.411,179.558,366.164,168.354z M343.277,484.243
	c-42.268,0-80.474-17.725-107.577-46.131c-0.018-0.019-0.036-0.038-0.054-0.056c-0.724-0.76-1.437-1.529-2.145-2.304
	c-0.401-0.44-0.797-0.884-1.192-1.329c-0.451-0.505-0.905-1.008-1.349-1.52c-0.976-1.13-1.939-2.271-2.88-3.428
	c-0.012-0.015-0.024-0.031-0.037-0.046c-19.207-23.633-31.016-52.904-33.14-83.822c-0.014-0.202-0.026-0.405-0.039-0.608
	c-0.083-1.281-0.144-2.566-0.194-3.852c-0.014-0.362-0.031-0.723-0.041-1.086c-0.045-1.471-0.073-2.945-0.074-4.422
	c0-0.04-0.001-0.08-0.001-0.12c0-29.655,8.728-57.307,23.745-80.531c26.51-40.999,72.626-68.192,124.978-68.192
	c0.53,0,1.066,0.013,1.598,0.019c0.648,0.007,1.298,0.009,1.944,0.025c1.063,0.026,2.13,0.066,3.199,0.115
	c0.101,0.004,0.202,0.007,0.302,0.011c1.155,0.055,2.312,0.124,3.471,0.205c0.016,0.001,0.032,0.002,0.047,0.003
	c1.105,0.079,2.212,0.171,3.317,0.273C432.678,194.471,492,258.193,492,335.52C492,417.527,425.284,484.243,343.277,484.243z"/>
<path d="M343.277,195.851c-77.014,0-139.669,62.655-139.669,139.669s62.655,139.669,139.669,139.669s139.669-62.655,139.669-139.669
	S420.291,195.851,343.277,195.851z M343.277,455.189c-65.986,0-119.669-53.684-119.669-119.669s53.683-119.669,119.669-119.669
	s119.669,53.684,119.669,119.669S409.263,455.189,343.277,455.189z"/>
<path d="M414.038,363.687c-4.819-2.7-10.912-0.98-13.611,3.839c-11.571,20.661-33.469,33.496-57.149,33.496
	c-36.118,0-65.502-29.384-65.502-65.502c0-36.117,29.384-65.501,65.502-65.501c28.791,0,53.912,18.461,62.511,45.936
	c1.649,5.271,7.258,8.205,12.53,6.558c5.271-1.65,8.207-7.26,6.557-12.53c-11.225-35.866-44.017-59.964-81.598-59.964
	c-47.146,0-85.502,38.355-85.502,85.501s38.356,85.502,85.502,85.502c30.911,0,59.496-16.754,74.6-43.725
	C420.575,372.479,418.856,366.385,414.038,363.687z"/>
<path d="M419.523,336.553c-5.444-0.854-10.553,2.902-11.419,8.343c-0.868,5.454,2.851,10.579,8.305,11.447
	c0.532,0.085,1.061,0.126,1.583,0.126c4.83,0,9.081-3.509,9.864-8.431c0.003-0.023,0.017-0.111,0.021-0.133
	C428.706,342.458,424.967,337.4,419.523,336.553z"/>
<path d="M92.038,423.445c1.96,2.133,4.622,3.208,7.298,3.208c2.409,0,4.83-0.872,6.758-2.63c4.069-3.708,4.335-10.054,0.644-14.14
	c-3.702-4.099-10.025-4.419-14.124-0.718c-4.098,3.702-4.42,10.025-0.718,14.124L92.038,423.445z"/>
<g>
</g>
<g>
</g>
<g>
</g>
<g>
</g>
<g>
</g>
<g>
</g>
<g>
</g>
<g>
</g>
<g>
</g>
<g>
</g>
<g>
</g>
<g>
</g>
<g>
</g>
<g>
</g>
<g>
</g>
</svg>
