<?xml version="1.0" encoding="iso-8859-1"?>
<!-- Generator: Adobe Illustrator 21.0.0, SVG Export Plug-In . SVG Version: 6.00 Build 0)  -->
<svg version="1.1" id="Capa_1" xmlns="http://www.w3.org/2000/svg" xmlns:xlink="http://www.w3.org/1999/xlink" x="0px" y="0px"
	 viewBox="0 0 512 512" style="enable-background:new 0 0 512 512;" xml:space="preserve">
<g>
	<path style="fill:#00C56E;" d="M279.842,488.144c-2.859-14.088-17.35-54.877-89.219-53.166c0,0-8.723-78.377-54.991-98.445
		c2.149-6.055,3.322-12.57,3.322-19.361c0-29.811-22.543-54.358-51.512-57.524c-2.088-0.228-4.209-0.345-6.358-0.345
		c-10.94,0-21.171,3.035-29.897,8.311c-16.766,10.135-27.973,28.538-27.973,49.559c0,31.327,24.893,56.836,55.976,57.836
		c10.255,80.309,75.72,153.33,201.337,117.839C280.527,492.847,280.435,491.073,279.842,488.144L279.842,488.144z"/>
	<g>
		<path style="fill:#87DD60;" d="M354.748,369.317c-60.334,46.091-74.22,123.53-74.22,123.53
			c107.866,0,195.31-90.682,195.31-202.544c0-27.459-5.28-53.636-14.827-77.515c0.277,2.066,12.834,99.112-74.045,137.451
			C374.98,355.531,364.284,362.032,354.748,369.317z"/>
		<path style="fill:#87DD60;" d="M374.565,279.972c-37.202,20.667-19.817,89.345-19.817,89.345
			c9.536-7.285,20.232-13.787,32.219-19.076c86.88-38.34,74.322-135.386,74.045-137.451l0.01-0.006
			c50.886-34.201,22.13-77.281-9.358-75.094l0.001,0.008c-9.493,0.659-19.234,5.424-27.117,15.794
			c-0.002,0.002-0.004,0.004-0.006,0.006s-0.004,0.004-0.006,0.006c-17.313,17.106-16.902,45.866-16.902,45.866
			C373.012,222.023,374.565,279.972,374.565,279.972z"/>
		<path style="fill:#87DD60;" d="M87.475,259.427c13.578-92.046,86.901-163.698,177.637-171.045c0,0-22.055-38.274-79.251-23.226
			l-0.008-0.009c-12.389,3.261-26.429,9.026-42.25,18.224c0,0-47.535-20.667-66.136,29.968
			c-60.949,5.3-68.703,70.804-31.002,108.505c0,0-11.222,17.133,4.723,45.768c8.726-5.276,18.957-8.311,29.897-8.311
			c2.149,0,4.269,0.12,6.358,0.349C87.453,259.577,87.464,259.502,87.475,259.427z"/>
	</g>
	<path style="fill:#C8FA8B;" d="M87.475,259.427c-0.011,0.075-0.022,0.15-0.032,0.221c28.969,3.165,51.512,27.713,51.512,57.524
		c0,6.791-1.173,13.306-3.322,19.361c46.268,20.068,54.991,98.445,54.991,98.445c71.869-1.711,86.361,39.078,89.219,53.166
		c0.594,2.927,0.686,4.703,0.686,4.703s13.887-77.439,74.22-123.53c0,0-17.385-68.678,19.817-89.345c0,0-1.553-57.949,33.069-80.604
		c0,0-0.41-28.76,16.902-45.866C388.832,113.1,337.538,87.76,280.527,87.76c-5.19,0-10.329,0.218-15.415,0.634
		C174.377,95.744,101.051,167.382,87.475,259.427z"/>
	<path style="fill:#00C56E;" d="M185.853,65.147c0,0,13.553-55.146,77.623-55.146s72.337,45.469,72.337,45.469
		s105.764-11.236,115.851,82.218l0.001,0.008c-9.493,0.659-19.234,5.424-27.117,15.794l-0.012,0.012
		C388.832,113.1,337.538,87.76,280.527,87.76c-5.19,0-10.329,0.218-15.415,0.634l-0.001-0.012c0,0-22.055-38.274-79.251-23.226
		L185.853,65.147z"/>
</g>
<path d="M455.486,380.915c-4.86-2.623-10.927-0.813-13.553,4.046l-0.361,0.659c-2.663,4.84-0.899,10.921,3.939,13.585
	c1.529,0.842,3.182,1.241,4.814,1.241c3.528,0,6.949-1.871,8.771-5.181l0.436-0.798
	C462.157,389.608,460.346,383.541,455.486,380.915z"/>
<path d="M327.569,83.367c-0.029-0.008-0.125-0.031-0.155-0.038c-5.353-1.283-10.704,2.016-12.008,7.365
	c-1.304,5.35,1.994,10.755,7.337,12.083c0.029,0.008,0.126,0.031,0.155,0.038c0.78,0.187,1.56,0.276,2.328,0.276
	c4.5,0,8.566-3.072,9.68-7.642C336.21,90.102,332.912,84.696,327.569,83.367z"/>
<path d="M498.119,163.995c-3.036-16.892-16.632-31.02-33.833-35.158c-1.301-0.313-2.603-0.558-3.903-0.751
	c-8.37-47.449-40.82-67.57-67.377-76.076c-20.114-6.441-39.447-7.167-50.014-6.933c-2.098-5.185-5.723-12.074-11.838-18.975
	C320.6,14.194,300.289,0,263.474,0c-36.987,0-58.779,16.968-70.545,31.201c-8.136,9.841-12.665,19.74-14.917,25.767
	c-11.299,3.471-23.108,8.62-35.392,15.456c-8.325-2.561-25.801-6.21-42.887,1.099c-12.806,5.48-22.647,15.76-29.31,30.602
	c-25.65,4.014-44.718,18.688-52.817,40.918c-9.223,25.317-2.295,56.243,17.179,78.906c-2.492,8.051-4.259,22.122,3.67,40.462
	c-15.384,12.453-25.244,31.473-25.244,52.762c0,17.742,6.803,34.525,19.155,47.254c10.344,10.661,23.641,17.522,38.09,19.787
	c7.61,44.234,30.798,81.862,64.408,104.085C158.702,504.059,187.204,512,219.098,512c19.749-0.001,40.804-3.053,62.85-9.173
	c63.07-0.441,121.469-30.153,160.403-81.701c3.329-4.408,2.455-10.68-1.952-14.009c-4.41-3.331-10.68-2.453-14.009,1.952
	c-32.75,43.359-80.68,69.611-133.011,73.316c2.873-10.134,8.057-25.542,16.627-42.319c13.308-26.055,30.099-46.902,50.129-62.324
	c0.234-0.149,0.462-0.309,0.685-0.479c6.866-5.247,14.161-9.876,21.741-13.819c0.227-0.118,0.454-0.233,0.681-0.349
	c0.908-0.466,1.821-0.919,2.736-1.366c0.399-0.194,0.798-0.389,1.199-0.58c0.831-0.396,1.665-0.779,2.502-1.157
	c0.442-0.2,0.88-0.407,1.324-0.603c37.204-16.418,62.787-45.709,74.21-84.863c0.406,5.225,0.622,10.484,0.622,15.777
	c0,22.868-3.817,45.241-11.348,66.499c-1.844,5.207,0.881,10.922,6.088,12.766c1.104,0.392,2.23,0.577,3.339,0.577
	c4.117,0,7.974-2.563,9.427-6.665c8.292-23.408,12.495-48.028,12.495-73.178c0-25.466-4.308-50.291-12.786-73.918
	C492.344,201.185,501.429,182.407,498.119,163.995z M478.433,167.534c2.22,12.35-5.917,25.451-22.915,36.897
	c-0.07,0.046-0.134,0.099-0.203,0.146c-0.134,0.093-0.264,0.189-0.393,0.287c-0.138,0.106-0.273,0.214-0.404,0.326
	c-0.053,0.045-0.11,0.086-0.162,0.132c-0.002,0.001-0.003,0.003-0.005,0.005c-0.052,0.047-0.099,0.099-0.15,0.147
	c-0.136,0.127-0.269,0.256-0.397,0.389c-0.093,0.097-0.183,0.196-0.271,0.296c-0.032,0.036-0.066,0.07-0.098,0.106
	c-0.022,0.025-0.046,0.048-0.068,0.074c-0.067,0.08-0.129,0.164-0.193,0.246c-0.087,0.11-0.17,0.222-0.252,0.335
	c-0.101,0.14-0.201,0.281-0.295,0.426c-0.026,0.041-0.057,0.079-0.082,0.12c-0.057,0.091-0.107,0.187-0.162,0.279
	c-0.08,0.138-0.159,0.276-0.233,0.417c-0.067,0.128-0.131,0.258-0.193,0.389c-0.027,0.058-0.055,0.115-0.081,0.174
	c-0.043,0.097-0.083,0.195-0.123,0.293c-0.068,0.167-0.13,0.337-0.19,0.508c-0.04,0.115-0.08,0.228-0.115,0.344
	c-0.014,0.044-0.028,0.089-0.041,0.133c-0.042,0.146-0.078,0.294-0.114,0.443c-0.034,0.141-0.066,0.283-0.094,0.426
	c-0.024,0.124-0.049,0.247-0.069,0.372c-0.008,0.052-0.013,0.105-0.02,0.158c-0.022,0.154-0.039,0.308-0.054,0.464
	c-0.014,0.15-0.024,0.3-0.031,0.451c-0.006,0.12-0.015,0.239-0.016,0.359c0,0.026,0.002,0.052,0.002,0.078
	c0,0.044,0.004,0.088,0.004,0.132c0.001,0.132,0.005,0.264,0.012,0.396c0.01,0.207,0.028,0.414,0.052,0.622
	c0.008,0.071,0.008,0.141,0.018,0.212c0.129,0.962,3.08,23.869-4.1,51.255c-0.875,3.337-1.857,6.586-2.947,9.745
	c-10.531,30.536-31.055,52.703-61.141,65.979l-0.397,0.175c-0.213,0.095-0.421,0.2-0.634,0.295c-1.292,0.581-2.575,1.18-3.852,1.794
	c-0.484,0.233-0.967,0.465-1.448,0.702c-1.401,0.691-2.795,1.396-4.177,2.128c-0.656,0.346-1.303,0.709-1.954,1.065
	c-0.713,0.39-1.424,0.781-2.132,1.182c-0.909,0.513-1.814,1.033-2.715,1.563c-0.017,0.01-0.033,0.02-0.05,0.03
	c-1.253,0.739-2.507,1.476-3.741,2.248c-2.657-21.274-1.925-52.712,17.614-63.568c3.25-1.806,5.23-5.28,5.141-8.997
	c-0.011-0.441-0.654-37.444,16.695-60.659c1.12,8.759,1.816,20.201,0.547,32.575c-0.563,5.495,3.434,10.406,8.928,10.97
	c0.347,0.035,0.691,0.053,1.033,0.053c5.065,0,9.409-3.834,9.937-8.982c2.758-26.886-2.449-49.486-4.044-55.566
	c0.177-5.023,1.657-25.397,13.917-37.501c0.006-0.006,0.011-0.013,0.017-0.019c0.009-0.009,0.02-0.017,0.029-0.026
	c0.039-0.039,0.07-0.084,0.108-0.124c0.254-0.262,0.493-0.534,0.712-0.816c0.021-0.028,0.048-0.052,0.069-0.079
	c0.4-0.526,0.803-1.021,1.207-1.505c0.189-0.225,0.381-0.444,0.573-0.662c0.19-0.217,0.381-0.43,0.572-0.639
	c0.278-0.301,0.556-0.6,0.839-0.887c0.042-0.042,0.083-0.083,0.125-0.125c4.85-4.869,10.49-7.632,16.532-8.052
	c0.046-0.003,0.091-0.013,0.137-0.017c0.487-0.029,0.967-0.049,1.432-0.049c2.192,0,4.129,0.304,5.683,0.677
	C469.213,150.595,476.779,158.331,478.433,167.534z M55.86,254.151c-6.295-16.302-1.611-25.742-0.968-26.912
	c2.81-3.966,2.093-9.017-1.355-12.466c-17.555-17.556-24.441-42.826-17.135-62.884c6.05-16.609,20.941-26.761,41.931-28.585
	c0.48-0.042,0.951-0.118,1.411-0.226l0,0l-0.104,0.023c0.526-0.111,13.008-2.594,22.154,7.7c1.976,2.225,4.722,3.358,7.48,3.358
	c2.362,0,4.735-0.832,6.64-2.524c4.128-3.668,4.503-9.989,0.834-14.119c-7.38-8.306-15.898-12.081-23.298-13.674
	c3.871-5.522,8.556-9.504,14.021-11.872c15.047-6.525,32.018,0.52,32.146,0.573c2.917,1.268,6.264,1.072,9.015-0.525
	c50.745-29.502,80.479-21.061,95.469-10.889c-0.013,0.002-0.025,0.005-0.038,0.008c-0.511,0.095-1.019,0.201-1.529,0.301
	c-0.802,0.157-1.604,0.313-2.404,0.48c-0.8,0.166-1.598,0.342-2.395,0.518c-0.459,0.102-0.918,0.203-1.377,0.308
	c-0.959,0.219-1.916,0.444-2.871,0.677c-0.162,0.04-0.325,0.081-0.487,0.121c-31.979,7.874-61.892,23.624-87.038,46.234
	c-1.66,1.492-3.285,3.019-4.894,4.562c-0.245,0.235-0.494,0.465-0.738,0.701c-0.104,0.101-0.206,0.205-0.309,0.306
	c-0.686,0.667-1.366,1.34-2.042,2.016c-0.339,0.339-0.678,0.679-1.015,1.02c-0.684,0.693-1.364,1.391-2.038,2.094
	c-0.286,0.298-0.57,0.597-0.854,0.897c-0.732,0.772-1.46,1.548-2.181,2.331c-0.155,0.168-0.308,0.338-0.462,0.507
	c-23.894,26.138-41.003,58.104-49.677,92.8c-0.039,0.155-0.077,0.311-0.115,0.466c-0.286,1.154-0.565,2.309-0.832,3.469
	c-0.081,0.352-0.158,0.706-0.238,1.059c-0.227,1.007-0.452,2.014-0.664,3.025c-0.124,0.59-0.239,1.182-0.358,1.773
	c-0.162,0.806-0.329,1.611-0.483,2.419c-0.007,0.037-0.015,0.073-0.022,0.11c-0.272,0.008-0.542,0.031-0.813,0.043
	c-0.44,0.018-0.878,0.042-1.315,0.068c-0.634,0.039-1.266,0.088-1.897,0.145c-0.467,0.042-0.933,0.083-1.397,0.135
	c-0.598,0.066-1.194,0.146-1.79,0.228c-0.475,0.065-0.95,0.125-1.422,0.2c-0.618,0.098-1.232,0.216-1.847,0.331
	c-0.429,0.08-0.862,0.15-1.288,0.239c-1.009,0.209-2.012,0.441-3.009,0.696c-0.293,0.075-0.581,0.163-0.872,0.242
	c-0.752,0.203-1.502,0.411-2.246,0.639c-0.287,0.088-0.57,0.186-0.856,0.279c-0.759,0.244-1.514,0.497-2.264,0.768
	c-0.226,0.082-0.449,0.168-0.674,0.253C56.847,253.78,56.35,253.955,55.86,254.151z M145.899,471.613
	c-30.675-20.282-51.347-55.844-56.749-97.595c-0.495-8.185-2.41-33.492-7.498-42.819c-2.644-4.85-8.72-6.634-13.569-3.991
	c-4.85,2.645-6.636,8.721-3.99,13.568c1.329,2.438,2.959,11.755,4.095,22.52c-20.312-5.59-34.972-24.061-34.972-46.125
	c0-19.79,12.072-36.814,29.239-44.094c0.01-0.004,0.02-0.009,0.031-0.013c0.668-0.282,1.344-0.548,2.027-0.801
	c0.067-0.025,0.133-0.051,0.201-0.075c0.682-0.249,1.372-0.483,2.068-0.701c0.034-0.011,0.068-0.023,0.102-0.034
	c0.693-0.216,1.394-0.413,2.101-0.598c0.263-0.068,0.529-0.128,0.794-0.192c0.422-0.103,0.845-0.203,1.271-0.294
	c0.35-0.074,0.701-0.143,1.053-0.209c0.349-0.066,0.699-0.129,1.05-0.188c0.378-0.063,0.757-0.124,1.137-0.178
	c0.34-0.049,0.681-0.089,1.023-0.13c0.382-0.046,0.763-0.096,1.147-0.133c0.537-0.052,1.078-0.09,1.62-0.124
	c0.453-0.028,0.906-0.047,1.361-0.062c0.419-0.014,0.838-0.029,1.26-0.032c0.345-0.003,0.691,0.002,1.037,0.007
	c0.411,0.006,0.821,0.015,1.229,0.031c0.338,0.013,0.676,0.028,1.015,0.048c0.45,0.027,0.897,0.063,1.343,0.103
	c0.281,0.025,0.562,0.045,0.843,0.074c0.504,0.053,1.004,0.123,1.503,0.192c0.258,0.035,0.519,0.064,0.776,0.103
	c18.951,2.939,34.265,17.034,38.99,35.34c0.002,0.007,0.004,0.015,0.006,0.022c0.181,0.702,0.342,1.411,0.492,2.124
	c0.019,0.094,0.041,0.186,0.06,0.28c0.128,0.632,0.239,1.27,0.342,1.91c0.025,0.16,0.055,0.317,0.079,0.477
	c0.088,0.587,0.159,1.18,0.226,1.773c0.023,0.203,0.051,0.404,0.071,0.607c0.058,0.582,0.097,1.169,0.134,1.756
	c0.013,0.209,0.034,0.416,0.044,0.625c0.039,0.79,0.061,1.585,0.061,2.384c0,5.493-0.924,10.881-2.746,16.015
	c-1.759,4.957,0.62,10.429,5.445,12.521c30.968,13.432,43.233,59.048,47.299,79.866c-12.431,1.424-22.25,5.419-29.257,11.996
	c-4.027,3.78-4.227,10.109-0.447,14.138c1.968,2.097,4.628,3.155,7.294,3.155c2.454,0,4.914-0.897,6.843-2.709
	c5.205-4.888,14.337-7.351,27.141-7.174c0.034,0,0.066,0,0.1,0c0.037,0,0.073-0.005,0.11-0.006c0.042,0,0.083,0.004,0.126,0.003
	c1.12-0.026,2.221-0.04,3.31-0.044c0.152-0.001,0.301,0,0.452,0c1.021-0.002,2.031,0.004,3.024,0.022
	c0.042,0,0.084,0.001,0.126,0.002c38.815,0.7,56.954,15.42,65.415,28.456l0.001,0.002c0.233,0.36,0.459,0.718,0.678,1.075
	c0.012,0.02,0.025,0.04,0.037,0.061c0.435,0.71,0.84,1.414,1.22,2.109c0.035,0.064,0.069,0.127,0.103,0.191
	c0.144,0.266,0.284,0.531,0.42,0.794c0.048,0.092,0.095,0.184,0.142,0.276c0.13,0.255,0.256,0.508,0.379,0.759
	c0.036,0.073,0.074,0.148,0.109,0.221c0.146,0.302,0.286,0.601,0.422,0.898c0.056,0.124,0.11,0.245,0.165,0.368
	c0.08,0.178,0.158,0.355,0.235,0.531c0.063,0.145,0.125,0.29,0.186,0.434c0.063,0.15,0.125,0.298,0.185,0.447
	c0.061,0.15,0.124,0.3,0.183,0.448c0.049,0.122,0.094,0.242,0.142,0.363c0.12,0.308,0.236,0.613,0.346,0.913
	c0.034,0.094,0.069,0.188,0.103,0.281c0.064,0.177,0.125,0.351,0.185,0.525c0.029,0.084,0.058,0.168,0.086,0.251
	c0.062,0.183,0.124,0.365,0.183,0.544l0.001,0.002c0.074,0.226,0.145,0.448,0.213,0.667
	C220.233,497.512,177.849,492.74,145.899,471.613z M300.846,415.499c1.6-17.614,2.322-34.594,2.185-50.908
	c0.033-0.474,0.021-0.956-0.015-1.44c-0.123-10.669-0.596-21.065-1.469-31.137c-1.295-14.955-3.427-29.247-6.356-42.846
	c7.291-22.719,29.502-75.363,56.985-82.058c5.367-1.307,8.657-6.718,7.35-12.083c-1.307-5.367-6.716-8.653-12.084-7.351
	c-19.646,4.785-37.846,23.103-54.098,54.442c-2.636,5.085-4.996,10.085-7.076,14.789c-2.963-8.623-6.299-16.893-10.03-24.765
	c-23.528-49.642-54.191-66.918-55.484-67.631c-4.841-2.659-10.921-0.893-13.583,3.946c-2.661,4.841-0.894,10.921,3.946,13.583
	c0.381,0.21,13.767,7.951,28.888,28.267c-6.338-1.841-13.018-3.134-19.841-3.783c-24.462-2.325-47.071,3.834-63.668,17.352
	c-4.282,3.488-4.927,9.788-1.438,14.071c3.488,4.282,9.789,4.925,14.071,1.439c26.983-21.979,71.32-13.695,89.633,2.725
	c10.223,22.001,19.032,51.147,22.6,89.148c-12.2-7.948-27.515-11.214-41.558-11.214c-0.05,0-0.101,0-0.152,0
	c-5.524,0.009-9.994,4.494-9.984,10.018c0.009,5.519,4.484,9.984,10,9.984c0.039,0,0.08,0,0.12,0c8.769,0,36.928,1.884,43.253,25.14
	c0.212,26.675-1.999,56.932-7.538,91.175c-11.417-14.148-33.726-30.353-76.286-31.385c-3.694-20.831-16.18-72.195-51.765-93.578
	c0.996-4.656,1.498-9.415,1.498-14.228c0-1.088-0.032-2.169-0.082-3.245c-0.015-0.309-0.039-0.615-0.058-0.923
	c-0.048-0.786-0.105-1.57-0.179-2.349c-0.03-0.314-0.064-0.627-0.099-0.941c-0.089-0.821-0.194-1.637-0.312-2.448
	c-0.033-0.226-0.064-0.452-0.1-0.677c-4.121-26.397-23.409-47.947-49.17-54.914c16.299-82.83,84.48-145.581,165.175-153.145
	c0.071-0.006,0.142-0.013,0.212-0.02c5.345-0.494,10.744-0.748,16.187-0.748c3.276,0,6.599,0.091,9.876,0.269
	c5.522,0.301,10.23-3.928,10.529-9.443c0.3-5.516-3.928-10.23-9.443-10.529c-3.637-0.197-7.325-0.298-10.961-0.298
	c-3.53,0-7.051,0.105-10.561,0.292c-5.56-6.842-17.416-18.412-37.117-23.672c-9.527-2.544-19.65-3.327-30.326-2.371
	c8.491-13.889,26.221-32.006,60.953-32.006c42.221,0,56.376,21.584,60.733,31.915l-5.123,4.07
	c-4.324,3.437-5.044,9.728-1.607,14.053c1.974,2.484,4.892,3.778,7.836,3.778c2.18,0,4.376-0.709,6.216-2.171l8.091-6.43
	c7.083-0.387,26.852-0.704,47.283,5.84c29.741,9.526,47.693,29.274,53.469,58.764c-0.029,0.01-0.057,0.021-0.086,0.031
	c-0.413,0.139-0.823,0.287-1.233,0.438c-0.134,0.05-0.27,0.095-0.403,0.145c-0.526,0.2-1.049,0.41-1.568,0.63
	c-0.217,0.092-0.432,0.193-0.648,0.289c-0.301,0.133-0.603,0.265-0.902,0.405c-0.271,0.127-0.54,0.263-0.809,0.396
	c-0.242,0.12-0.485,0.237-0.726,0.361c-0.278,0.143-0.552,0.294-0.828,0.443c-0.23,0.125-0.46,0.248-0.688,0.377
	c-0.275,0.156-0.548,0.317-0.822,0.478c-0.226,0.133-0.451,0.267-0.675,0.404c-0.27,0.165-0.538,0.335-0.805,0.507
	c-0.225,0.144-0.449,0.29-0.673,0.438c-0.262,0.174-0.522,0.351-0.782,0.531c-0.226,0.157-0.451,0.316-0.675,0.477
	c-0.252,0.181-0.503,0.364-0.753,0.551c-0.23,0.172-0.457,0.347-0.685,0.523c-0.24,0.186-0.48,0.372-0.717,0.563
	c-0.236,0.19-0.469,0.384-0.702,0.579c-0.202,0.169-0.406,0.335-0.606,0.507c-20.209-20.585-44.512-36.819-70.878-47.235
	c-5.137-2.028-10.946,0.49-12.976,5.628c-2.029,5.137,0.49,10.946,5.627,12.976c24.168,9.547,46.426,24.541,64.858,43.581
	c-10.114,14.334-12.711,31.608-13.367,40.24c-28.461,22.269-32.657,64.842-33.219,80.379
	c-30.769,22.375-24.362,73.018-20.946,90.955C327.305,378.939,312.885,395.772,300.846,415.499z"/>
<path d="M213.748,346.568c2.47,0,4.942-0.916,6.873-2.766c4.205-3.581,4.711-9.894,1.129-14.1c-3.581-4.204-9.895-4.71-14.099-1.129
	c-0.28,0.239-0.548,0.48-0.804,0.726c-3.988,3.821-4.155,10.183-0.334,14.171C208.485,345.527,211.115,346.568,213.748,346.568z"/>
<g>
</g>
<g>
</g>
<g>
</g>
<g>
</g>
<g>
</g>
<g>
</g>
<g>
</g>
<g>
</g>
<g>
</g>
<g>
</g>
<g>
</g>
<g>
</g>
<g>
</g>
<g>
</g>
<g>
</g>
</svg>
