<?xml version="1.0" encoding="iso-8859-1"?>
<!-- Generator: Adobe Illustrator 21.0.0, SVG Export Plug-In . SVG Version: 6.00 Build 0)  -->
<svg version="1.1" id="Capa_1" xmlns="http://www.w3.org/2000/svg" xmlns:xlink="http://www.w3.org/1999/xlink" x="0px" y="0px"
	 viewBox="0 0 512 512" style="enable-background:new 0 0 512 512;" xml:space="preserve">
<g>
	<path style="fill:#87DD60;" d="M394.902,111.434L394.902,111.434L394.902,111.434z M394.9,111.435
		c-8.653-2.15-17.47-2.745-26.086-1.905c-1.098,1.575-2.114,2.979-3.027,4.061c-25.143,29.824-20.747,40.056-39.423,72.985
		c-16.154,28.483-131.02,139.56-163.351,155.569c-51.568,25.534-97.711,59.105-146.126,90.411c0.016,2.354,0.149,4.776,0.403,7.272
		c1.28,10.289,3.576,19.16,6.782,26.714c2.351-1.681,4.882-3.282,7.644-4.788c54.879-29.956,170.397-91.149,209.664-135.892
		c34.305-39.088,107.233-88.147,123.31-128.59c8.919-22.437,38.396-52.472,64.2-67.545c-5.084-4.685-10.884-8.764-17.343-12.061
		C406.136,114.903,400.554,112.837,394.9,111.435z"/>
	<g>
		<path style="fill:#00C56E;" d="M326.364,186.578c18.676-32.929,14.28-43.162,39.423-72.985c0.913-1.083,1.928-2.487,3.027-4.061
			c-25.456,2.481-49.152,17.486-61.644,41.955C203.563,354.417,16.25,338.17,16.887,432.557
			c48.417-31.305,94.559-64.877,146.126-90.411C195.344,326.137,310.21,215.06,326.364,186.578z"/>
		<path style="fill:#00C56E;" d="M428.89,129.727c-25.804,15.073-55.281,45.108-64.2,67.545
			c-16.077,40.443-89.006,89.502-123.31,128.59C202.113,370.605,86.595,431.798,31.716,461.754
			c-2.762,1.508-5.293,3.108-7.644,4.788c5.978,14.082,15.119,23.59,26.731,29.179c13.557-8.076,27.282-17.037,31.204-19.981
			c46.359-34.802,76.952-42.25,124.064-67.191c93.871-49.697,79.179-48.302,139.696-118.476
			c24.698-28.639,56.83-107.119,103.146-130.549c-3.034-8.097-7.417-15.702-13.033-22.442
			C433.73,134.495,431.397,132.038,428.89,129.727z"/>
	</g>
	<path style="fill:#87DD60;" d="M448.914,159.531c-46.316,23.43-78.449,101.902-103.147,130.541
		c-60.518,70.175-45.825,68.78-139.696,118.476c-47.112,24.942-77.705,32.39-124.064,67.191
		c-3.923,2.945-17.647,11.905-31.204,19.981c90.766,43.69,332.506-152.028,394.566-273.677
		C455.685,201.837,456.293,179.227,448.914,159.531z"/>
	<path style="fill:#AA836D;" d="M394.9,111.435L394.9,111.435L394.9,111.435z M428.89,129.727c2.507,2.31,4.84,4.768,6.989,7.355
		c24.774-34.803,59.246-65.84,59.246-65.84c-20.818-5.127-41.016,0.275-57.759,8.605c-25.121,12.498-42.466,31.586-42.468,31.587
		c5.654,1.402,11.237,3.469,16.648,6.231C418.008,120.964,423.806,125.044,428.89,129.727z"/>
</g>
<path d="M181.452,458.918c-0.025,0.014-0.122,0.068-0.147,0.082c-4.798,2.699-6.477,8.749-3.799,13.558
	c1.825,3.278,5.238,5.121,8.755,5.121c1.643,0,3.308-0.402,4.842-1.248c0.025-0.014,0.122-0.067,0.147-0.082
	c4.798-2.699,6.477-8.749,3.799-13.558C192.37,457.979,186.272,456.261,181.452,458.918z"/>
<path d="M357.143,211.835c-4.371-3.332-10.612-2.506-13.972,1.836c-3.369,4.288-2.68,10.503,1.574,13.945
	c1.852,1.499,4.075,2.228,6.285,2.228c2.913,0,5.801-1.267,7.777-3.708c0.062-0.076,0.17-0.215,0.229-0.293
	C362.385,221.45,361.535,215.182,357.143,211.835z"/>
<path d="M504.824,68.808c-0.901-3.59-3.712-6.389-7.306-7.274c-22.507-5.545-44.005-0.397-61.937,8.024
	c-8.72-1.394-16.079-6.099-20.443-13.186c-4.146-6.732-4.862-14.688-1.965-21.828c2.076-5.116-0.389-10.948-5.506-13.024
	c-5.114-2.071-10.948,0.39-13.024,5.506c-5.316,13.103-4.052,27.621,3.469,39.833c3.936,6.39,9.238,11.63,15.485,15.506
	c-9.976,6.954-17.6,13.86-21.976,18.132c-7.766-1.393-15.682-1.692-23.567-0.933c-0.036,0.003-0.072,0.007-0.109,0.01
	c-6.274,0.612-12.528,1.884-18.67,3.874c-22.255,7.211-40.371,22.656-51.009,43.492C242.229,256.694,162.906,299.736,99.169,334.323
	c-27.13,14.722-50.559,27.437-67.122,43.012c-19.405,18.248-27.256,38.427-24.705,63.507c0.007,0.074,0.016,0.148,0.024,0.223
	c3.647,29.324,15.268,49.929,34.54,61.238C52.924,508.77,66.095,512,81.343,512c19.596,0,42.616-5.336,68.876-15.998
	c5.215-2.118,10.598-4.464,15.994-6.975c5.007-2.329,7.179-8.276,4.85-13.282c-2.328-5.007-8.27-7.181-13.283-4.85
	c-5.099,2.372-10.174,4.585-15.084,6.579c-26.265,10.663-48.787,15.461-66.611,14.316c5.435-3.512,9.802-6.46,11.922-8.052
	c30.214-22.681,53.218-33.267,79.854-45.523c13.322-6.131,27.099-12.47,42.886-20.827c76.674-40.592,83.061-48.445,113.756-86.181
	c7.433-9.139,16.684-20.512,28.835-34.602c8.541-9.904,17.341-24.437,27.529-41.267c17.067-28.189,37.784-62.408,61.963-80.279
	c2.565,14.406,0.399,29.182-6.371,42.444c-35.256,69.109-132.444,165.587-226.069,224.416c-4.675,2.938-6.084,9.109-3.146,13.785
	c2.938,4.675,9.108,6.085,13.785,3.147c46.305-29.095,95.312-68.415,137.996-110.717c43.358-42.973,77.185-86.137,95.246-121.541
	c10.639-20.835,12.525-44.566,5.314-66.822c-0.402-1.24-0.838-2.462-1.291-3.676c-0.021-0.058-0.039-0.116-0.061-0.174
	c-2.54-6.77-5.861-13.119-9.878-18.952c23.357-31.047,53.143-58.011,53.46-58.297C504.569,76.194,505.725,72.398,504.824,68.808z
	 M108.707,351.9c62.676-34.011,148.512-80.59,207.369-195.868c6.12-11.987,15.45-21.658,26.918-28.111
	c-5.214,8.672-8.188,16.083-11.417,24.137c-3.404,8.49-6.924,17.27-13.909,29.587c-14.658,25.848-128.147,136.22-159.09,151.542
	c-39.508,19.563-76.332,44.077-111.946,67.784c-5.04,3.356-10.164,6.763-15.316,10.175C41.269,389.517,67.825,374.084,108.707,351.9
	z M363.763,244.979c-9.318,15.392-18.12,29.929-25.567,38.564c-12.338,14.308-21.69,25.805-29.204,35.044
	c-29.246,35.956-34.517,42.436-107.598,81.126c-15.294,8.098-28.813,14.318-41.889,20.334
	c-26.525,12.206-51.579,23.735-83.501,47.698c-3.129,2.349-13.726,9.317-25.384,16.414c-5.343-3.442-9.841-8.101-13.45-13.989
	c3.376-1.842,6.966-3.795,10.758-5.855c60.995-33.17,163.082-88.684,200.969-131.855c12.173-13.869,29.467-29.117,47.777-45.261
	c11.202-9.877,22.784-20.089,33.422-30.229c1.617-1.542,3.214-3.083,4.785-4.621c3.946-3.864,4.012-10.194,0.149-14.14
	c-3.864-3.945-10.193-4.013-14.14-0.149c-1.508,1.477-3.04,2.957-4.593,4.435c-10.355,9.873-21.79,19.954-32.849,29.704
	c-18.805,16.579-36.564,32.238-49.582,47.07c-35.54,40.496-139.592,97.079-195.492,127.478c-3.051,1.659-5.977,3.251-8.763,4.768
	c-1.011-3.983-1.814-8.244-2.385-12.806c-0.031-0.307-0.041-0.602-0.068-0.907c10.3-6.71,20.575-13.54,30.555-20.184
	c35.091-23.359,71.375-47.514,109.738-66.51c23.28-11.528,74.943-60.204,90.223-74.849c29.636-28.403,67.685-67.641,77.387-84.748
	c7.651-13.49,11.597-23.331,15.076-32.013c5.052-12.601,9.042-22.554,23.295-39.461c0.226-0.268,0.452-0.554,0.678-0.838
	c6.331-0.211,12.65,0.481,18.807,2.059c0.954,0.244,1.903,0.509,2.847,0.795c0.298,0.09,0.595,0.182,0.892,0.277
	c0.879,0.28,1.751,0.581,2.619,0.896c0.313,0.114,0.627,0.224,0.939,0.343c0.881,0.335,1.753,0.695,2.62,1.067
	c0.274,0.118,0.551,0.226,0.824,0.347c1.127,0.501,2.244,1.027,3.344,1.589c1.02,0.521,2.023,1.065,3.009,1.631
	c0.216,0.125,0.423,0.261,0.638,0.387c0.308,0.181,0.61,0.371,0.914,0.557c-22.704,16.382-47.272,42.07-56.162,64.433
	c-2.04,5.132,0.467,10.946,5.598,12.985c1.212,0.481,2.462,0.71,3.691,0.71c3.977,0,7.736-2.389,9.295-6.308
	c7.058-17.758,30.51-43.157,53.36-58.461c0.283,0.327,0.576,0.642,0.853,0.974c0.018,0.022,0.039,0.04,0.058,0.062
	c3.03,3.646,5.667,7.617,7.88,11.862C406.257,174.813,382.865,213.426,363.763,244.979z M434.88,121.654
	c-0.069-0.062-0.141-0.121-0.21-0.183c-0.49-0.436-0.984-0.867-1.484-1.292c-0.558-0.477-1.125-0.943-1.694-1.406
	c-0.423-0.342-0.843-0.686-1.273-1.02c-0.831-0.648-1.677-1.279-2.532-1.898c-0.321-0.232-0.644-0.461-0.969-0.688
	c-0.936-0.658-1.883-1.302-2.847-1.924c-0.092-0.059-0.181-0.122-0.273-0.181c-1.066-0.682-2.154-1.334-3.253-1.973
	c-0.282-0.164-0.565-0.325-0.848-0.486c-1.104-0.625-2.219-1.236-3.355-1.817c-0.016-0.008-0.032-0.018-0.048-0.026
	c-0.014-0.007-0.028-0.013-0.042-0.02c-0.786-0.401-1.578-0.791-2.376-1.168c12.616-10.587,34.374-25.622,58.398-28
	C461.599,90.144,447.637,105.116,434.88,121.654z"/>
<path d="M422.401,20.134c1.808,0,3.639-0.493,5.285-1.528c0.039-0.023,0.141-0.086,0.179-0.11c4.677-2.937,6.113-9.124,3.178-13.801
	c-2.936-4.675-9.083-6.105-13.759-3.167c-0.039,0.023-0.141,0.086-0.179,0.11c-4.677,2.937-6.113,9.124-3.178,13.801
	C415.83,18.468,419.078,20.134,422.401,20.134z"/>
<g>
</g>
<g>
</g>
<g>
</g>
<g>
</g>
<g>
</g>
<g>
</g>
<g>
</g>
<g>
</g>
<g>
</g>
<g>
</g>
<g>
</g>
<g>
</g>
<g>
</g>
<g>
</g>
<g>
</g>
</svg>
