<?xml version="1.0" encoding="iso-8859-1"?>
<!-- Generator: Adobe Illustrator 21.0.0, SVG Export Plug-In . SVG Version: 6.00 Build 0)  -->
<svg version="1.1" id="Capa_1" xmlns="http://www.w3.org/2000/svg" xmlns:xlink="http://www.w3.org/1999/xlink" x="0px" y="0px"
	 viewBox="0 0 512 512" style="enable-background:new 0 0 512 512;" xml:space="preserve">
<g>
	<path style="fill:#C8FA8B;" d="M241.671,362.778c0,37.828,16.929,71.795,43.794,95.074c0.003-0.002,0.005-0.003,0.008-0.005
		C258.607,434.568,241.671,400.606,241.671,362.778L241.671,362.778z M464.588,350.893l36.683-1.637
		c0.482,4.443,0.729,8.954,0.729,13.522c0,38.245-17.304,72.544-44.686,95.841c-0.068,0.057-0.135,0.115-0.203,0.172
		c-22.842,19.353-52.657,31.067-85.275,31.067c-33.142,0-63.391-12.093-86.371-32.006c-26.865-23.28-43.794-57.247-43.794-95.074
		c0-4.568,0.247-9.079,0.729-13.522l36.684,1.637c11.991,50.772,48.975,87.762,92.752,87.762
		C415.613,438.656,452.597,401.665,464.588,350.893z"/>
	<path style="fill:#FF8244;" d="M279.083,350.893c11.991,50.772,48.975,87.762,92.752,87.762s80.762-36.991,92.753-87.762
		l-4.475,0.2c-20.745,28.986-52.578,47.543-88.278,47.543c-7.896,0-15.602-0.908-23.041-2.635
		c-26.197-6.083-49.08-22.332-65.237-44.908L279.083,350.893z"/>
	<path style="fill:#AA836D;" d="M193.032,116.823c5.522,0,10.987,0.245,16.385,0.723V66.469h-16.291
		c-5.885,0.26-11.37,0.419-16.479,0.492v50.585c5.394-0.479,10.856-0.723,16.375-0.723
		C193.025,116.823,193.029,116.823,193.032,116.823z"/>
	<path style="fill:#00C56E;" d="M209.417,117.546v0.015c-5.399-0.479-10.861-0.738-16.385-0.738
		C198.554,116.823,204.019,117.067,209.417,117.546L209.417,117.546z M259.986,427.803c-5.783-9.458-10.343-19.711-13.467-30.552
		c-0.012-0.041-0.024-0.083-0.036-0.124C249.595,407.952,254.154,418.258,259.986,427.803L259.986,427.803z M285.465,457.852
		c0.003-0.002,0.005-0.003,0.008-0.005c-9.918-8.594-18.482-18.643-25.341-29.805c-0.049-0.08-0.098-0.159-0.146-0.239
		C266.822,438.993,275.409,449.138,285.465,457.852L285.465,457.852z M376.064,299.855c0-95.564-73.237-174.022-166.647-182.309
		c-5.398-0.479-10.863-0.723-16.385-0.723c-0.003,0-0.007,0-0.01,0l-16.031,0.708c-0.115,0.01-0.229,0.02-0.344,0.03v-0.015
		C83.238,125.833,10,204.291,10,299.855c0,101.086,81.946,183.032,183.032,183.032c33.72,0,65.304-9.129,92.433-25.034
		c-19.254-16.685-33.405-38.86-39.877-64.011c-0.012-0.046-0.024-0.092-0.035-0.138c-2.535-9.899-3.881-20.259-3.881-30.925
		c0-4.568,0.247-9.079,0.729-13.522l36.684,1.637l4.474,0.2c16.158,22.575,39.04,38.824,65.237,44.906
		C366.08,368.06,376.064,335.124,376.064,299.855z"/>
	<path style="fill:#AA836D;" d="M112.717,60.325c-7.863-3.966-11.022-13.555-7.056-21.418s13.555-11.022,21.418-7.056
		c0.03,0.015,9.904,5.313,66.064,2.71c55.405-2.568,63.966-9.31,63.992-9.329c7.104-5.207,17.085-3.67,22.292,3.434
		s3.669,17.085-3.434,22.292c-0.049,0.035-16.191,12.422-81.475,15.448C129.988,69.398,112.768,60.35,112.717,60.325z"/>
</g>
<path d="M211.278,43.463c0.25,0,0.503-0.009,0.756-0.028l0.319-0.024c5.507-0.416,9.635-5.217,9.219-10.725
	c-0.416-5.507-5.223-9.647-10.724-9.219l-0.306,0.024c-5.507,0.411-9.638,5.21-9.227,10.717
	C201.71,39.463,206.094,43.463,211.278,43.463z"/>
<path d="M450.733,451.088c-0.007,0.007-0.086,0.073-0.094,0.08c-4.206,3.57-4.69,9.842-1.125,14.054
	c1.971,2.328,4.789,3.521,7.629,3.521c2.295,0,4.604-0.78,6.489-2.37l0.208-0.177c4.185-3.605,4.628-9.896,1.024-14.08
	C461.26,447.93,454.918,447.483,450.733,451.088z"/>
<path d="M511.213,348.179c-0.569-5.247-5.117-9.15-10.388-8.913l-41.158,1.836c-1.15,0.051-2.267,0.299-3.308,0.721
	c-1.736,0.703-3.262,1.889-4.378,3.449c-2.465,3.445-5.079,6.706-7.826,9.775c-19.232,21.487-45.011,33.588-72.32,33.588
	c-2.423,0-4.831-0.107-7.226-0.295c14.07-27.246,21.454-57.547,21.454-88.486c0-97.487-72.648-178.314-166.646-191.22V74.67
	c44.999-4.405,59.629-13.514,62.536-15.683c5.563-4.097,9.204-10.11,10.256-16.941c1.055-6.851-0.62-13.702-4.717-19.291
	c-4.097-5.591-10.127-9.251-16.978-10.307c-6.677-1.025-13.352,0.537-18.861,4.409c-0.501,0.229-2.238,0.954-6.002,1.875
	c-1.065,0.261-2.207,0.517-3.391,0.762c-5.409,1.117-8.887,6.408-7.77,11.816c1.118,5.408,6.41,8.881,11.816,7.77
	c1.419-0.293,2.797-0.603,4.095-0.92c6.018-1.473,10.278-3.113,12.668-4.881c1.277-0.927,2.836-1.302,4.4-1.064
	c1.57,0.242,2.952,1.081,3.892,2.363c0.939,1.281,1.323,2.852,1.081,4.422c-0.24,1.555-1.065,2.925-2.324,3.863
	c-0.822,0.522-17.852,10.854-76.064,13.553c-0.509,0.024-1.008,0.045-1.512,0.067c-4.069,0.178-8.049,0.311-11.887,0.399
	c-0.247,0.006-0.492,0.011-0.737,0.016c-0.886,0.019-1.761,0.035-2.631,0.049c-44.783,0.708-59.337-5.241-60.121-5.578
	c-1.39-0.719-2.424-1.932-2.914-3.421c-0.497-1.508-0.377-3.12,0.338-4.538s1.939-2.473,3.448-2.97
	c1.508-0.496,3.119-0.378,4.537,0.339c3.58,1.805,16.68,5.694,61.869,4.143c5.52-0.189,9.84-4.818,9.65-10.338
	s-4.807-9.827-10.338-9.65c-40.078,1.38-51.178-1.744-52.536-2.19c-6.1-2.961-12.987-3.427-19.442-1.298
	c-6.582,2.169-11.926,6.771-15.046,12.958c-3.121,6.188-3.646,13.221-1.477,19.803c2.168,6.583,6.771,11.927,12.881,15.009
	c2.775,1.43,17.02,7.506,58.511,7.789v31.63C72.648,121.54,0,202.367,0,299.854c0,106.439,86.594,193.032,193.032,193.032
	c31.981,0,63.437-7.941,91.425-23.008c23.979,18.75,54.361,29.98,87.378,29.98c16.157,0,32-2.668,47.089-7.93
	c4.508-1.573,8.983-3.395,13.3-5.413c5.003-2.34,7.162-8.292,4.822-13.295c-2.34-5.003-8.292-7.164-13.295-4.822
	c-3.705,1.732-7.546,3.296-11.415,4.646c-12.966,4.522-26.593,6.814-40.502,6.814c-43.466,0-81.615-22.602-102.719-56.377
	c-0.035-0.056-0.069-0.113-0.104-0.169c-0.438-0.703-0.867-1.411-1.29-2.123c-0.247-0.419-0.489-0.84-0.731-1.262
	c-0.213-0.37-0.429-0.738-0.638-1.11c-8.978-16.043-14.072-34.058-14.629-52.626c-0.003-0.104-0.009-0.206-0.012-0.31
	c-0.028-1.033-0.043-2.067-0.043-3.103c0-1.03,0.014-2.064,0.042-3.096l19.584,0.873c6.882,23.973,18.988,44.769,35.312,60.466
	c18.801,18.078,41.356,27.634,65.227,27.634c23.872,0,46.427-9.556,65.228-27.634c16.324-15.697,28.43-36.493,35.312-60.466
	l19.584-0.873c0.027,1.032,0.042,2.065,0.042,3.096c0,25.301-8.149,49.385-23.566,69.648c-3.344,4.395-2.492,10.669,1.903,14.014
	c4.396,3.343,10.67,2.491,14.014-1.904C502.439,420.761,512,392.49,512,362.778C512,357.908,511.735,352.996,511.213,348.179z
	 M131.68,22.972c-0.032-0.017-0.066-0.034-0.098-0.051c-0.095-0.048-0.19-0.095-0.286-0.142
	C131.551,22.887,131.664,22.964,131.68,22.972z M270.066,42.903c-0.038,0.028-0.077,0.057-0.115,0.086
	C269.957,42.984,269.998,42.951,270.066,42.903z M186.647,106.932V76.724c0.026-0.001,0.053-0.002,0.08-0.003
	c2.07-0.068,4.19-0.149,6.363-0.244c0.073-0.003,0.143-0.005,0.216-0.008h6.111v30.463c-0.121-0.004-0.239-0.002-0.36-0.006
	c-2.002-0.062-4.008-0.103-6.025-0.103l0,0l0,0h-0.001c-2.016,0-4.021,0.042-6.022,0.103
	C186.887,106.93,186.768,106.928,186.647,106.932z M242.845,339.266c-5.275-0.25-9.819,3.666-10.388,8.913
	c-0.522,4.816-0.787,9.729-0.787,14.599c0,1.121,0.016,2.24,0.044,3.357c0.014,0.545,0.039,1.087,0.059,1.63
	c0.021,0.55,0.037,1.101,0.064,1.65c0.037,0.752,0.087,1.5,0.136,2.25c0.021,0.318,0.038,0.636,0.062,0.953
	c0.066,0.904,0.144,1.804,0.228,2.702c0.013,0.142,0.025,0.284,0.039,0.426c1.649,17.103,6.524,33.298,14.022,48.003
	c0.122,0.24,0.242,0.479,0.365,0.719c0.284,0.549,0.574,1.095,0.866,1.641c0.279,0.524,0.561,1.048,0.847,1.569
	c0.158,0.286,0.318,0.571,0.478,0.856c0.447,0.799,0.902,1.595,1.365,2.385c0.015,0.026,0.03,0.051,0.045,0.077
	c5.143,8.765,11.279,17.002,18.345,24.527c-23.446,11.393-49.326,17.364-75.604,17.364C97.622,472.886,20,395.264,20,299.854
	c0-90.273,69.492-164.607,157.788-172.352c1.157-0.101,2.314-0.192,3.469-0.27c0.183-0.012,0.366-0.023,0.55-0.035
	c1.104-0.072,2.206-0.134,3.305-0.185c0.415-0.019,0.832-0.032,1.248-0.047c0.881-0.035,1.761-0.069,2.636-0.09
	c1.342-0.031,2.687-0.051,4.036-0.051c0.002,0,0.003,0,0.005,0c1.348,0,2.691,0.021,4.031,0.051c0.876,0.021,1.759,0.055,2.641,0.09
	c0.414,0.016,0.829,0.029,1.242,0.047c1.1,0.051,2.204,0.114,3.31,0.186c0.181,0.011,0.363,0.022,0.544,0.034
	c1.156,0.079,2.315,0.169,3.474,0.271c88.294,7.746,157.784,82.08,157.784,172.352c0,29.71-7.586,58.76-22.001,84.481
	c-0.025-0.008-0.05-0.015-0.075-0.023c-17.833-5.678-34.103-16.818-46.94-32.129c-0.07-0.084-0.139-0.169-0.209-0.253
	c-0.753-0.904-1.491-1.825-2.22-2.757c-0.193-0.247-0.386-0.493-0.578-0.742c-0.783-1.019-1.555-2.049-2.309-3.101
	c-0.014-0.02-0.029-0.039-0.043-0.058c-1.117-1.56-2.643-2.746-4.378-3.449c-1.041-0.422-2.159-0.67-3.308-0.721L242.845,339.266z
	 M371.835,428.656c-26.569,0-51.35-16.31-67.58-42.408c0.183,0.134,0.371,0.257,0.555,0.39c0.865,0.625,1.737,1.238,2.615,1.838
	c0.286,0.196,0.57,0.395,0.858,0.588c1.139,0.764,2.287,1.51,3.447,2.232c0.188,0.117,0.378,0.228,0.567,0.343
	c0.982,0.603,1.971,1.191,2.967,1.764c0.354,0.204,0.71,0.405,1.066,0.605c0.922,0.518,1.85,1.021,2.784,1.513
	c0.288,0.152,0.574,0.308,0.863,0.457c1.198,0.618,2.404,1.215,3.619,1.789c0.263,0.124,0.529,0.241,0.793,0.363
	c0.975,0.452,1.955,0.89,2.941,1.314c0.381,0.164,0.763,0.325,1.146,0.485c0.988,0.412,1.981,0.809,2.98,1.193
	c0.273,0.105,0.545,0.216,0.819,0.319c1.249,0.469,2.506,0.915,3.77,1.339c0.319,0.107,0.641,0.207,0.961,0.311
	c0.98,0.32,1.964,0.626,2.952,0.919c0.399,0.118,0.798,0.235,1.198,0.349c1.075,0.305,2.154,0.594,3.238,0.868
	c0.229,0.058,0.456,0.121,0.685,0.178c1.297,0.318,2.602,0.61,3.911,0.882c0.355,0.074,0.711,0.14,1.067,0.21
	c0.999,0.197,2,0.382,3.005,0.552c0.403,0.068,0.806,0.137,1.21,0.201c1.193,0.189,2.39,0.361,3.592,0.511
	c0.145,0.018,0.289,0.041,0.433,0.059c1.338,0.162,2.682,0.294,4.03,0.408c0.383,0.033,0.766,0.058,1.149,0.086
	c1.018,0.076,2.038,0.138,3.06,0.186c0.4,0.019,0.799,0.039,1.199,0.054c1.364,0.05,2.731,0.083,4.102,0.083
	s2.738-0.033,4.102-0.083c0.4-0.015,0.799-0.035,1.199-0.054c1.022-0.048,2.042-0.11,3.06-0.186
	c0.383-0.028,0.767-0.054,1.149-0.086c1.347-0.114,2.691-0.246,4.03-0.408c0.145-0.018,0.289-0.041,0.434-0.059
	c1.202-0.15,2.398-0.322,3.592-0.511c0.404-0.064,0.807-0.133,1.21-0.201c1.005-0.17,2.006-0.354,3.004-0.552
	c0.356-0.07,0.712-0.136,1.067-0.21c1.309-0.272,2.614-0.564,3.911-0.882c0.229-0.056,0.456-0.12,0.685-0.178
	c1.084-0.273,2.163-0.563,3.238-0.868c0.4-0.114,0.799-0.231,1.198-0.349c0.988-0.293,1.972-0.599,2.952-0.919
	c0.32-0.104,0.642-0.203,0.961-0.311c1.264-0.424,2.521-0.87,3.77-1.339c0.274-0.103,0.546-0.214,0.819-0.319
	c0.998-0.384,1.992-0.781,2.98-1.193c0.383-0.16,0.765-0.321,1.146-0.485c0.986-0.424,1.966-0.862,2.941-1.314
	c0.264-0.122,0.53-0.239,0.793-0.363c1.215-0.574,2.421-1.171,3.618-1.789c0.29-0.15,0.577-0.307,0.866-0.459
	c0.933-0.491,1.86-0.995,2.781-1.512c0.356-0.2,0.712-0.401,1.066-0.605c0.996-0.573,1.985-1.161,2.967-1.764
	c0.188-0.116,0.379-0.226,0.567-0.343c1.16-0.722,2.308-1.468,3.447-2.232c0.287-0.193,0.572-0.392,0.858-0.588
	c0.878-0.6,1.75-1.213,2.615-1.838c0.184-0.133,0.372-0.256,0.555-0.39C423.186,412.346,398.405,428.656,371.835,428.656z"/>
<path d="M328.526,299.854c0,5.523,4.477,10,10,10s10-4.477,10-10c0-45.064-19.515-87.857-53.542-117.405
	c-4.17-3.622-10.487-3.177-14.107,0.994c-3.622,4.17-3.176,10.486,0.994,14.107C311.522,223.298,328.526,260.586,328.526,299.854z"
	/>
<path d="M270.456,165.007c-0.026-0.016-0.113-0.064-0.14-0.08c-4.801-2.691-10.846-0.981-13.561,3.806
	c-2.715,4.789-1.02,10.889,3.756,13.626c0.026,0.016,0.113,0.064,0.14,0.08c1.543,0.865,3.214,1.276,4.862,1.276
	c3.48,0,6.857-1.833,8.7-5.082C276.928,173.843,275.232,167.744,270.456,165.007z"/>
<path d="M74.187,350.926c-5.523,0-10,4.477-10,10v0.277c0,5.522,4.477,10,10,10s10-4.478,10-10v-0.277
	C84.187,355.404,79.71,350.926,74.187,350.926z"/>
<path d="M45.192,337.047c-5.523,0-10,4.478-10,10v0.276c0,5.522,4.477,10,10,10s10-4.478,10-10v-0.276
	C55.192,341.524,50.715,337.047,45.192,337.047z"/>
<path d="M72.027,342.549c5.523,0,10-4.478,10-10v-0.276c0-5.522-4.477-10-10-10s-10,4.478-10,10v0.276
	C62.027,338.072,66.504,342.549,72.027,342.549z"/>
<path d="M45.501,306.542c-5.523,0-10,4.478-10,10v0.276c0,5.522,4.477,10,10,10s10-4.478,10-10v-0.276
	C55.501,311.019,51.024,306.542,45.501,306.542z"/>
<g>
</g>
<g>
</g>
<g>
</g>
<g>
</g>
<g>
</g>
<g>
</g>
<g>
</g>
<g>
</g>
<g>
</g>
<g>
</g>
<g>
</g>
<g>
</g>
<g>
</g>
<g>
</g>
<g>
</g>
</svg>
