<?xml version="1.0" encoding="iso-8859-1"?>
<!-- Generator: Adobe Illustrator 21.0.0, SVG Export Plug-In . SVG Version: 6.00 Build 0)  -->
<svg version="1.1" id="Capa_1" xmlns="http://www.w3.org/2000/svg" xmlns:xlink="http://www.w3.org/1999/xlink" x="0px" y="0px"
	 viewBox="0 0 512.002 512.002" style="enable-background:new 0 0 512.002 512.002;" xml:space="preserve">
<g>
	<path style="fill:#AA836D;" d="M231.478,187.761L231.478,187.761L231.478,187.761z M276.603,247.42L276.603,247.42L276.603,247.42z
		 M306.006,338.946c6.1-34.108,17.594-65.04,31.248-90.831c-42.65-80.996-155.908-97.859-155.908-179.388
		c0,93.523-149.05,101.94-169.573,219.701v45.768c9.38,61.875,57.207,107.793,169.573,109.082
		c63.362-0.727,106.189-15.651,133.186-39.618c-8.176-13.61-11.938-30.438-10.71-50.026c0.025-0.394,0.051-0.79,0.08-1.186
		C304.506,347.895,305.21,343.394,306.006,338.946L306.006,338.946z M276.603,311.044L276.603,311.044L276.603,311.044z
		 M177.498,247.42L177.498,247.42L177.498,247.42z M177.498,311.044L177.498,311.044L177.498,311.044z M134.543,373.124
		L134.543,373.124L134.543,373.124z M78.392,311.044L78.392,311.044L78.392,311.044z"/>
	<path style="fill:#F3F3C2;" d="M306.006,338.946c-0.795,4.448-1.499,8.949-2.104,13.501c0.106-0.8,0.216-1.598,0.328-2.394
		C304.757,346.315,305.35,342.612,306.006,338.946L306.006,338.946z M402.8,173.172c-19.324,8.702-44.902,35.947-65.547,74.943
		c0.001,0.002,0.002,0.004,0.003,0.006c-13.653,25.791-25.15,56.718-31.251,90.825c-0.795,4.448-1.499,8.949-2.104,13.501
		l-0.08,1.186c-1.228,19.588,2.541,36.411,10.717,50.021c-0.002,0.002-0.004,0.004-0.006,0.005
		c15.272,25.421,45.945,39.618,88.268,39.618c65.439,0,103.026-33.941,98.898-90.831C489.444,260.217,436.57,188.38,402.8,173.172z"
		/>
</g>
<path d="M120.449,167.842c2.059,0,4.136-0.634,5.92-1.947l0.138-0.102c4.478-3.233,5.486-9.484,2.252-13.961
	c-3.233-4.477-9.484-5.487-13.961-2.252l-0.284,0.207c-4.448,3.274-5.399,9.534-2.126,13.981
	C114.348,166.432,117.378,167.842,120.449,167.842z"/>
<path d="M452.43,240.215c0.016,0.027,0.053,0.089,0.069,0.115c1.88,3.089,5.161,4.79,8.529,4.79c1.759,0,3.543-0.465,5.161-1.439
	c4.716-2.84,6.239-8.974,3.422-13.702c-0.016-0.027-0.053-0.089-0.069-0.115c-2.861-4.702-8.974-6.191-13.69-3.351
	C451.136,229.353,449.613,235.487,452.43,240.215z"/>
<path d="M511.672,351.723c-0.015-0.198-0.034-0.396-0.061-0.594c-4.02-30.251-12.404-59.896-24.921-88.11
	c-2.238-5.048-8.146-7.326-13.195-5.086c-5.049,2.239-7.326,8.147-5.086,13.195c11.701,26.379,19.553,54.08,23.336,82.336
	c1.597,22.818-4.004,41.28-16.648,54.875c-15.175,16.314-40.174,24.938-72.297,24.938s-57.122-8.624-72.297-24.938
	c-2.84-3.053-5.305-6.366-7.432-9.905c-4.125-6.886-6.912-14.677-8.344-23.298c0-0.002,0-0.004,0-0.004
	c-0.155-0.934-0.293-1.876-0.416-2.827c-0.014-0.106-0.025-0.214-0.038-0.321c-0.311-2.48-0.506-5.03-0.603-7.639
	c-0.021-0.592-0.044-1.182-0.054-1.781c-0.01-0.552-0.012-1.108-0.012-1.666c0-0.761,0.009-1.528,0.026-2.3
	c0.01-0.451,0.017-0.901,0.033-1.355c0.044-1.248,0.103-2.505,0.192-3.78c0.266-1.988,0.56-3.976,0.868-5.963
	c0.049-0.314,0.096-0.628,0.146-0.941c0.313-1.974,0.645-3.948,0.999-5.92c0.033-0.186,0.068-0.371,0.101-0.556
	c3.132-17.265,7.822-34.407,13.93-50.965c0.004-0.01,0.007-0.02,0.011-0.03c4.611-12.494,10.026-24.657,16.185-36.29
	c0.042-0.079,0.071-0.163,0.11-0.244c18.025-34.031,39.713-58.444,56.581-68.145c9.73,5.66,21.183,16.486,32.746,31.027l0.809,1.021
	c3.414,4.342,9.7,5.094,14.042,1.681c4.342-3.414,5.094-9.701,1.681-14.042l-0.876-1.108c-15.396-19.359-30.708-32.823-44.28-38.936
	c-2.611-1.176-5.602-1.176-8.213,0c-19.593,8.824-42.651,32.855-61.738,64.322c-20.299-29.508-49.45-50.376-75.606-69.088
	c-37.562-26.87-70.003-50.076-70.003-90.561c0-5.522-4.478-10-10-10s-10,4.478-10,10c0,21.852-9.102,40.07-29.51,59.074
	c-4.042,3.764-4.268,10.091-0.504,14.133s10.092,4.266,14.133,0.504c8.488-7.903,18.518-18.511,25.812-32.487
	c13.916,26.602,40.646,45.724,68.436,65.604c28.63,20.48,58.192,41.629,76.196,72.704c-3.257,6.411-6.538,13.426-9.718,21.005
	c-1.671-2.047-4.137-3.438-6.98-3.654c-12.616-0.964-22.513-8.881-22.608-18.055c0-0.044,0-0.089,0-0.133h-0.001v-0.002
	c0-5.522-4.478-9.999-10-9.999c-5.523,0-10,4.478-10,10c0,9.913-11.529,18.288-25.176,18.288c-5.522,0-10,4.478-10,10
	s4.478,10,10,10c14.16,0,26.819-5.55,35.109-14.219c7.416,7.813,18.435,13.09,31.152,14.061c0.756,0.059,1.496,0.025,2.215-0.079
	c-4.445,12.442-8.467,26.1-11.631,40.903c-6.97-3.301-11.605-8.996-11.669-15.199c0-0.044,0-0.087,0-0.131h-0.001v-0.002
	c0-5.522-4.478-9.999-10-9.999c-5.523,0-10,4.478-10,10c0,9.914-11.529,18.289-25.176,18.289c-5.522,0-10,4.478-10,10
	s4.478,10,10,10c14.165,0,26.828-5.554,35.117-14.228c4.721,4.972,10.912,8.922,18.099,11.391c-0.227,1.535-0.447,3.078-0.654,4.634
	c-0.026,0.197-0.046,0.396-0.061,0.594c-0.117,1.619-0.193,3.218-0.249,4.807c-0.01,0.277-0.019,0.554-0.027,0.83
	c-0.465,16.253,2.292,30.922,8.243,43.761c-27.11,20.722-67.608,31.533-120.549,32.155c-62.063-0.729-106.899-15.405-133.269-43.622
	c-20.517-21.956-29.866-52.197-27.79-89.882c5.188-49.595,32.667-79.614,72.324-109.418c3.027-2.274,6.34-4.714,10.127-7.456
	c4.474-3.238,5.475-9.491,2.235-13.964c-3.24-4.477-9.493-5.474-13.964-2.235c-3.885,2.813-7.291,5.32-10.414,7.667
	c-37.994,28.554-74.01,63.288-80.228,123.586c-0.016,0.154-0.028,0.309-0.037,0.463c-2.446,43.457,8.701,78.749,33.134,104.895
	c30.257,32.378,79.973,49.189,147.767,49.967c0.038,0.001,0.076,0.001,0.114,0.001s0.076,0,0.115-0.001
	c56.464-0.648,100.481-12.465,131.077-35.146c1.067,1.306,2.166,2.588,3.32,3.829c19.056,20.488,49.119,31.317,86.941,31.317
	s67.886-10.829,86.941-31.317C506.143,404.327,513.727,380.038,511.672,351.723z"/>
<path d="M472.067,327.687c-1.314-5.346-6.688-8.58-12.042-7.289c-5.351,1.288-8.644,6.704-7.381,12.062
	c0.008,0.031,0.036,0.151,0.044,0.183c1.119,4.553,5.185,7.572,9.672,7.572c0.781,0,1.576-0.092,2.37-0.283
	c5.351-1.288,8.644-6.704,7.381-12.062C472.103,327.838,472.075,327.718,472.067,327.687z"/>
<path d="M441.583,391.012c-4.812,2.711-6.515,8.81-3.803,13.621c1.837,3.26,5.228,5.093,8.721,5.093c1.663,0,3.349-0.416,4.9-1.29
	c12.792-7.208,27.646-22.273,25.768-53.113c-0.336-5.514-5.091-9.724-10.59-9.373c-5.513,0.336-9.709,5.077-9.373,10.59
	C458.562,378.784,448.939,386.867,441.583,391.012z"/>
<path d="M134.542,177.76c-5.523,0-10,4.478-10,10c0,9.914-11.529,18.289-25.176,18.289c-5.522,0-10,4.478-10,10s4.478,10,10,10
	c14.16,0,26.82-5.55,35.109-14.22c7.416,7.813,18.435,13.09,31.152,14.062c5.485,0.435,10.313-3.701,10.732-9.209
	c0.421-5.507-3.702-10.312-9.209-10.732c-12.616-0.965-22.513-8.882-22.608-18.056c0-0.044,0-0.089,0-0.133h-0.001v-0.002
	C144.542,182.237,140.065,177.76,134.542,177.76z"/>
<path d="M262.564,225.891c5.487,0.435,10.313-3.701,10.732-9.209c0.421-5.507-3.702-10.312-9.209-10.732
	c-12.678-0.969-22.609-8.959-22.609-18.189c0-5.522-4.478-10-10-10s-10,4.478-10,10c0,9.914-11.529,18.289-25.177,18.289
	c-5.522,0-10,4.478-10,10s4.478,10,10,10c14.161,0,26.82-5.55,35.11-14.22C238.827,219.642,249.847,224.919,262.564,225.891z"/>
<path d="M177.497,237.42c-5.522,0-10,4.478-10,10c0,9.913-11.529,18.288-25.177,18.288c-5.522,0-10,4.478-10,10s4.478,10,10,10
	c14.16,0,26.82-5.551,35.109-14.219c7.416,7.814,18.435,13.09,31.152,14.061c5.516,0.431,10.312-3.702,10.732-9.209
	s-3.702-10.313-9.209-10.732c-12.678-0.969-22.608-8.958-22.608-18.188C187.497,241.898,183.02,237.42,177.497,237.42z"/>
<path d="M78.392,237.42c-5.523,0-10,4.478-10,10c0,9.913-11.529,18.288-25.176,18.288c-5.522,0-10,4.478-10,10s4.478,10,10,10
	c14.16,0,26.819-5.55,35.109-14.219c7.416,7.813,18.435,13.09,31.152,14.061c5.517,0.431,10.313-3.702,10.732-9.209
	c0.421-5.507-3.702-10.313-9.209-10.732c-12.616-0.964-22.513-8.881-22.608-18.055c0-0.044,0-0.089,0-0.133h-0.001v-0.002
	C88.392,241.897,83.914,237.42,78.392,237.42z"/>
<path d="M208.582,349.174c5.495,0.442,10.312-3.702,10.732-9.209s-3.702-10.312-9.209-10.732
	c-12.678-0.969-22.608-8.959-22.608-18.189c0-5.522-4.478-10-10-10s-10,4.478-10,10c0,9.914-11.529,18.289-25.177,18.289
	c-5.522,0-10,4.478-10,10s4.478,10,10,10c14.161,0,26.82-5.55,35.109-14.219C184.846,342.925,195.866,348.203,208.582,349.174z"/>
<path d="M43.216,349.332c14.16,0,26.82-5.55,35.109-14.22c7.416,7.813,18.435,13.09,31.152,14.062
	c5.495,0.442,10.313-3.702,10.732-9.209c0.421-5.507-3.702-10.312-9.209-10.732c-12.616-0.965-22.513-8.882-22.608-18.056
	c0-0.044,0-0.089,0-0.133h-0.001v-0.002c0-5.522-4.478-9.999-10-9.999c-5.523,0-10,4.478-10,10c0,9.914-11.529,18.289-25.176,18.289
	c-5.522,0-10,4.478-10,10S37.694,349.332,43.216,349.332z"/>
<path d="M99.367,411.413c14.16,0,26.82-5.55,35.109-14.219c7.416,7.813,18.435,13.089,31.152,14.061
	c5.485,0.443,10.313-3.701,10.732-9.209c0.421-5.507-3.702-10.312-9.209-10.732c-12.616-0.965-22.513-8.881-22.608-18.055
	c0-0.044,0-0.089,0-0.133h-0.001v-0.002c0-5.522-4.478-9.999-10-9.999c-5.523,0-10,4.478-10,10c0,9.913-11.529,18.288-25.176,18.288
	c-5.522,0-10,4.478-10,10S93.844,411.413,99.367,411.413z"/>
<path d="M196.301,411.413c14.161,0,26.82-5.55,35.11-14.219c7.416,7.812,18.436,13.089,31.152,14.061
	c5.487,0.443,10.313-3.701,10.732-9.209c0.421-5.507-3.702-10.312-9.209-10.732c-12.678-0.969-22.609-8.958-22.609-18.188
	c0-5.522-4.478-10-10-10s-10,4.478-10,10c0,9.913-11.529,18.288-25.177,18.288c-5.522,0-10,4.478-10,10
	S190.779,411.413,196.301,411.413z"/>
<g>
</g>
<g>
</g>
<g>
</g>
<g>
</g>
<g>
</g>
<g>
</g>
<g>
</g>
<g>
</g>
<g>
</g>
<g>
</g>
<g>
</g>
<g>
</g>
<g>
</g>
<g>
</g>
<g>
</g>
</svg>
