<svg height="478pt" viewBox="-33 0 478 478.824" width="478pt" xmlns="http://www.w3.org/2000/svg"><g fill="#389a6b"><path d="m177.445312 356.519531-17.113281-145.503906 24.769531-139.015625 32-72 14.621094 6.496094-31.605468 71.105468-23.625 133.878907 14.886718 126.496093 86.535156-14.425781 126.921876-63.460937 7.152343 14.316406-130.257812 64.730469zm0 0"/><path d="m217.253906 478.824219-24.683594-50.007813-15.175781-75.871094-110.03125-47.160156-57.269531-73.625 12.636719-9.824218 54.730469 70.375 113.96875 48.839843 16.613281 83.082031 23.527343 47.039063zm0 0"/><path d="m166.898438 252.40625-53.015626-44.183594-40.75-89.664062 14.558594-6.621094 39.25 86.335938 42.984375 35.816406 98.03125-37.699219 62.800781-62.796875 11.308594 11.308594-65.199218 65.203125zm0 0"/><path d="m189.691406 84.953125-51.679687-68.90625 12.800781-9.597656 44.320312 59.09375 74.304688-29.726563 5.949219 14.863282zm0 0"/><path d="m360.410156 195.246094h-79.15625l-8.792968-79.117188 15.902343-1.761718 7.207031 64.878906h64.839844zm0 0"/><path d="m109.09375 181.542969-71.488281-26.800781 5.613281-14.988282 56.511719 21.199219 21.183593-56.519531 14.992188 5.628906zm0 0"/><path d="m405.261719 322.601562-60.851563-26.082031v-53.273437h16v42.730468l51.152344 21.917969zm0 0"/><path d="m304.300781 412.558594-15.777343-2.621094 7.320312-43.945312-31.433594-31.433594v-55.3125l-28.796875-21.597656 9.597657-12.800782 35.199218 26.398438v56.691406l32.570313 32.566406zm0 0"/><path d="m330.164062 408.246094-42.398437-53h64.644531v16h-31.351562l21.601562 27zm0 0"/><path d="m264.410156 291.894531v-64.648437h16v31.355468l27-21.601562 10 12.496094zm0 0"/><path d="m240.410156 219.246094h-16v-52l-28.796875-21.597656 9.597657-12.800782 35.199218 26.398438zm0 0"/><path d="m224.410156 182.558594v-75.3125h16v36.691406l18.347656-18.34375 11.308594 11.308594zm0 0"/><path d="m63.476562 283.246094h-63.066406v-16h48.9375l7.128906-56.988282 15.871094 1.980469zm0 0"/><path d="m81.554688 355.894531-59.34375-16.949219 4.402343-15.394531 52.65625 15.050781 33.140625-19.882812v-40.664062l-30.246094-37.808594 12.496094-10 33.75 42.195312v55.335938zm0 0"/><path d="m112.410156 291.246094v-56h16v24l19.203125-14.398438 9.597657 12.800782zm0 0"/><path d="m63.765625 406.398438-14.707031-6.300782 16.121094-37.617187-37.617188 16.121093-6.300781-14.707031 74.382812-31.878906zm0 0"/></g><path d="m280.410156 322.304688v-47.058594h-16v50.554687l-73.03125 12.175781-10.695312-90.871093 96.183594-37 65.199218-65.203125-11.308594-11.308594-62.800781 62.796875-27.546875 10.59375v-43.738281h-16v49.890625l-45.652344 17.558593-2.265624-19.214843 23.625-133.878907 31.605468-71.105468-14.621094-6.496094-32 72-24.769531 139.015625 1.96875 16.71875-35.359375-29.460937-39.25-86.335938-14.558594 6.621094 40.75 89.664062 51.128907 42.609375 9.839843 83.617188-46.441406-19.90625v-39.296875h-16v32.441406l-34.949218-14.976562-54.730469-70.375-12.636719 9.824218 57.269531 73.625 38.847657 16.65625-29.917969 17.949219 8.238281 13.714844 39.824219-23.890625 52.648437 22.5625.441406 3.742187.640626-.105469 14.484374 72.402344 24.683594 50.007813 14.316406-7.152344-23.527343-47.039063-14.167969-70.847656 76.9375-12.824218 27.945312 27.941406 11.308594-11.308594-21.734375-21.738281 123.65625-61.449219-7.152343-14.316406zm0 0"/></svg>