<svg height="476pt" viewBox="0 -5 476.85088 476" width="476pt" xmlns="http://www.w3.org/2000/svg"><path d="m229.492188 126.167969c-1.714844 0-3.417969-.257813-5.058594-.757813-11.589844-3.640625-24.023438-3.640625-35.613282 0-9.058593 2.789063-18.660156-2.296875-21.449218-11.351562-2.789063-9.058594 2.292968-18.660156 11.351562-21.449219 18.179688-5.625 37.628906-5.625 55.808594 0 8.105469 2.496094 13.164062 10.546875 11.90625 18.933594-1.261719 8.386719-8.464844 14.589843-16.945312 14.59375zm0 0" fill="#39475c"/><path d="m363.960938 99.410156c-1.210938-1.210937-2.234376-2.597656-3.039063-4.113281-5.621094-10.769531-14.40625-19.558594-25.175781-25.183594-8.222656-4.492187-11.3125-14.753906-6.9375-23.039062 4.375-8.285157 14.59375-11.519531 22.9375-7.265625 16.832031 8.878906 30.589844 22.632812 39.464844 39.464844 3.953124 7.496093 1.839843 16.757812-4.980469 21.792968-6.816407 5.03125-16.292969 4.328125-22.292969-1.65625zm0 0" fill="#ffb531"/><path d="m89.691406 72.617188c1.210938-1.210938 2.597656-2.238282 4.113282-3.039063 10.765624-5.617187 19.550781-14.394531 25.183593-25.152344 4.492188-8.222656 14.753907-11.3125 23.039063-6.9375s11.519531 14.589844 7.261718 22.9375c-8.875 16.832031-22.628906 30.585938-39.460937 39.464844-7.5 3.964844-16.769531 1.851563-21.808594-4.96875-5.039062-6.824219-4.332031-16.304687 1.664063-22.304687zm0 0" fill="#ffb531"/><path d="m315.644531 245.761719c1.210938-1.210938 2.597657-2.238281 4.109375-3.039063 10.769532-5.625 19.558594-14.410156 25.183594-25.175781 4.492188-8.222656 14.753906-11.3125 23.039062-6.941406 8.285157 4.375 11.523438 14.59375 7.265626 22.941406-8.875 16.828125-22.632813 30.585937-39.464844 39.460937-7.496094 3.957032-16.753906 1.839844-21.789063-4.976562-5.035156-6.820312-4.332031-16.292969 1.65625-22.292969zm0 0" fill="#39475c"/><path d="m12.6875 245.113281 22.625-22.628906c6.25-6.25 16.378906-6.25 22.628906 0 6.246094 6.25 6.246094 16.378906 0 22.628906l-22.628906 22.625c-6.246094 6.25-16.378906 6.25-22.625 0-6.25-6.246093-6.25-16.378906 0-22.625zm0 0" fill="#5f9548"/><path d="m73.027344 275.160156c1.210937-1.207031 2.597656-2.230468 4.113281-3.03125 10.769531-5.625 19.554687-14.414062 25.183594-25.183594 4.492187-8.222656 14.753906-11.3125 23.039062-6.9375 8.285157 4.375 11.519531 14.589844 7.261719 22.9375-8.871094 16.832032-22.628906 30.589844-39.460938 39.464844-7.488281 3.917969-16.714843 1.796875-21.738281-5-5.023437-6.796875-4.34375-16.242187 1.601563-22.25zm0 0" fill="#39475c"/><path d="m270.625 56.425781h-64c-13.253906 0-24-10.746093-24-24l24-24h64c13.257812 0 24 10.746094 24 24 0 13.253907-10.742188 24-24 24zm0 0" fill="#95573a"/><path d="m194.914062 233.394531-45.253906-45.257812c-9.371094-9.371094-9.371094-24.5625 0-33.933594h33.933594l45.257812 45.253906c9.367188 9.371094 9.367188 24.5625 0 33.9375-9.371093 9.367188-24.566406 9.367188-33.9375 0zm0 0" fill="#95573a"/><path d="m389.660156 263.457031 45.253906-45.253906c9.371094-9.371094 24.566407-9.371094 33.9375 0v33.933594l-45.257812 45.257812c-9.371094 9.367188-24.5625 9.367188-33.933594 0-9.371094-9.375-9.371094-24.566406 0-33.9375zm0 0" fill="#95573a"/><path d="m134.625 384.425781h-64c-13.253906 0-24-10.746093-24-24l24-24h64c13.257812 0 24 10.746094 24 24 0 13.253907-10.742188 24-24 24zm0 0" fill="#95573a"/><path d="m433.179688 181.722656-7.785157 1.292969c-13.53125 2.257813-27.339843 2.257813-40.871093 0l-7.785157-1.292969c-11.414062-1.902344-19.78125-11.78125-19.777343-23.351562.003906-6.957032 3.066406-13.5625 8.375-18.058594 5.308593-4.5 12.324218-6.433594 19.1875-5.296875 13.53125 2.257813 27.339843 2.257813 40.871093 0 6.863281-1.140625 13.882813.792969 19.195313 5.292969 5.308594 4.496094 8.371094 11.101562 8.371094 18.0625.003906 11.570312-8.367188 21.449218-19.78125 23.351562zm0 0" fill="#e94f4f"/><path d="m406.625 156.273438c-7.492188-.09375-14.757812-2.589844-20.726562-7.121094-3.566407-2.609375-4.339844-7.617188-1.726563-11.183594 2.609375-3.566406 7.617187-4.339844 11.183594-1.726562 6.574219 5.316406 15.96875 5.316406 22.542969 0 3.566406-2.613282 8.574218-1.839844 11.183593 1.726562 2.613281 3.566406 1.839844 8.574219-1.726562 11.183594-5.96875 4.535156-13.234375 7.03125-20.730469 7.121094zm0 0" fill="#39475c"/><path d="m76.011719 195.226562-6.402344-4.585937c-11.160156-7.972656-20.925781-17.738281-28.894531-28.902344l-4.59375-6.402343c-6.734375-9.417969-5.675782-22.324219 2.503906-30.519532 4.921875-4.917968 11.757812-7.421875 18.691406-6.847656 6.9375.574219 13.265625 4.171875 17.308594 9.832031 7.976562 11.160157 17.742188 20.925781 28.90625 28.898438 5.660156 4.046875 9.25 10.375 9.824219 17.308593.574219 6.933594-1.929688 13.769532-6.847657 18.691407-8.183593 8.179687-21.078124 9.25-30.496093 2.527343zm0 0" fill="#e94f4f"/><path d="m94.625 167.058594c-.40625 0-.816406-.035156-1.222656-.097656-15.339844-1.886719-27.425782-13.972657-29.3125-29.3125-.542969-2.875.523437-5.820313 2.789062-7.679688 2.265625-1.855469 5.363282-2.324219 8.078125-1.222656 2.714844 1.097656 4.609375 3.59375 4.941407 6.503906.878906 8.410156 7.523437 15.058594 15.9375 15.933594 4.039062.726562 6.875 4.390625 6.566406 8.484375-.3125 4.09375-3.671875 7.285156-7.777344 7.390625zm0 0" fill="#39475c"/><path d="m257.28125 148.746094 4.59375-6.402344c7.96875-11.160156 17.734375-20.925781 28.894531-28.894531l6.402344-4.589844c9.414063-6.730469 22.316406-5.660156 30.496094 2.527344 4.917969 4.917969 7.425781 11.753906 6.851562 18.6875-.574219 6.933593-4.167969 13.265625-9.828125 17.3125-11.164062 7.972656-20.929687 17.738281-28.90625 28.902343-4.042968 5.660157-10.375 9.257813-17.308594 9.828126-6.933593.574218-13.769531-1.929688-18.691406-6.851563-8.1875-8.191406-9.246094-21.105469-2.503906-30.519531zm0 0" fill="#e94f4f"/><path d="m294.625 176.425781c-2.335938.003907-4.554688-1.015625-6.078125-2.785156-1.523437-1.773437-2.195313-4.121094-1.839844-6.429687 1.882813-15.34375 13.964844-27.429688 29.304688-29.320313 4.3125-.574219 8.296875 2.402344 8.960937 6.703125.667969 4.300781-2.226562 8.347656-6.515625 9.105469-8.410156.882812-15.058593 7.53125-15.941406 15.941406-.601563 3.898437-3.945313 6.777344-7.890625 6.785156zm0 0" fill="#39475c"/><path d="m330.84375 383.457031-7.785156 1.296875c-13.527344 2.253906-27.335938 2.253906-40.863282 0l-7.785156-1.296875c-11.414062-1.902343-19.78125-11.777343-19.785156-23.351562 0-6.960938 3.0625-13.566407 8.375-18.066407 5.308594-4.496093 12.332031-6.429687 19.195312-5.285156 13.527344 2.253906 27.335938 2.253906 40.863282 0 6.863281-1.144531 13.886718.789063 19.195312 5.285156 5.3125 4.5 8.375 11.105469 8.371094 18.066407 0 11.574219-8.367188 21.449219-19.78125 23.351562zm0 0" fill="#e94f4f"/><path d="m302.625 358.027344c-7.492188-.09375-14.761719-2.597656-20.726562-7.136719-2.359376-1.671875-3.632813-4.480469-3.335938-7.355469s2.121094-5.367187 4.773438-6.515625c2.652343-1.148437 5.714843-.78125 8.019531.964844 6.570312 5.328125 15.972656 5.328125 22.542969 0 3.566406-2.519531 8.492187-1.71875 11.074218 1.804687 2.582032 3.519532 1.859375 8.460938-1.617187 11.101563-5.964844 4.539063-13.234375 7.039063-20.730469 7.136719zm0 0" fill="#39475c"/><path d="m155.035156 420.746094 4.589844-6.402344c7.972656-11.160156 17.734375-20.925781 28.898438-28.894531l6.398437-4.589844c9.417969-6.730469 22.316406-5.660156 30.496094 2.527344 4.921875 4.917969 7.429687 11.753906 6.855469 18.6875-.574219 6.933593-4.167969 13.265625-9.832032 17.3125-11.164062 7.972656-20.929687 17.738281-28.902344 28.902343-4.046874 5.660157-10.375 9.257813-17.3125 9.828126-6.933593.574218-13.769531-1.929688-18.6875-6.851563-8.191406-8.191406-9.25-21.105469-2.503906-30.519531zm0 0" fill="#e94f4f"/><path d="m190.625 448.425781c-2.335938.003907-4.554688-1.015625-6.078125-2.785156-1.523437-1.773437-2.195313-4.121094-1.839844-6.429687 1.882813-15.34375 13.96875-27.433594 29.3125-29.320313 4.3125-.574219 8.296875 2.402344 8.960938 6.703125.667969 4.300781-2.226563 8.347656-6.511719 9.105469-8.417969.878906-15.070312 7.527343-15.953125 15.941406-.601563 3.898437-3.945313 6.777344-7.890625 6.785156zm0 0" fill="#39475c"/><g fill="#5f9548"><path d="m185.941406 285.105469 22.628906 22.628906c6.246094 6.246094 6.246094 16.378906 0 22.625-6.25 6.25-16.378906 6.25-22.628906 0l-22.625-22.625c-6.25-6.25-6.25-16.378906 0-22.628906 6.246094-6.25 16.378906-6.25 22.625 0zm0 0"/><path d="m302.625 416.425781h32c8.839844 0 16 7.164063 16 16 0 8.835938-7.160156 16-16 16h-32c-8.835938 0-16-7.164062-16-16 0-8.835937 7.164062-16 16-16zm0 0"/><path d="m414.625 352.425781v32c0 8.835938-7.160156 16-16 16-8.835938 0-16-7.164062-16-16v-32c0-8.835937 7.164062-16 16-16 8.839844 0 16 7.164063 16 16zm0 0"/><path d="m278.625 264.425781v32c0 8.835938-7.160156 16-16 16-8.835938 0-16-7.164062-16-16v-32c0-8.835937 7.164062-16 16-16 8.839844 0 16 7.164063 16 16zm0 0"/></g><path d="m270.625.425781h-64c-2.121094 0-4.152344.84375-5.652344 2.34375l-24 24c-1.503906 1.5-2.34375 3.535157-2.347656 5.65625 0 17.671875 14.328125 32 32 32h64c17.675781 0 32-14.328125 32-32s-14.324219-32-32-32zm0 48h-64c-7.667969 0-14.261719-5.445312-15.710938-12.976562l19.023438-19.023438h60.6875c8.839844 0 16 7.164063 16 16 0 8.835938-7.160156 16-16 16zm0 0"/><path d="m159.746094 116.425781c4.148437 13.222657 18.167968 20.640625 31.433594 16.632813 10.070312-3.164063 20.867187-3.164063 30.933593 0 13.277344 4.078125 27.34375-3.375 31.425781-16.648438 4.082032-13.277344-3.375-27.34375-16.648437-31.425781-19.714844-6.085937-40.8125-6.085937-60.527344 0-13.257812 4.109375-20.691406 18.171875-16.617187 31.441406zm21.328125-16.136719c16.644531-5.152343 34.453125-5.152343 51.097656 0 4.816406 1.492188 7.519531 6.59375 6.046875 11.417969-1.542969 4.777344-6.609375 7.460938-11.433594 6.054688-13.113281-4.113281-27.171875-4.113281-40.285156 0-3.132812 1.011719-6.566406.257812-8.992188-1.964844-2.421874-2.226563-3.464843-5.582031-2.726562-8.789063.738281-3.207031 3.140625-5.769531 6.292969-6.710937zm0 0"/><path d="m353.867188 99.066406c1.175781 2.199219 2.664062 4.21875 4.421874 5.992188 8.800782 8.785156 22.703126 9.820312 32.703126 2.433594 10.003906-7.386719 13.105468-20.976563 7.296874-31.972657-9.625-18.25-24.542968-33.167969-42.796874-42.789062-12.289063-6.488281-27.507813-1.789063-33.996094 10.5-6.488282 12.285156-1.789063 27.507812 10.5 33.996093 9.347656 4.878907 16.980468 12.5 21.871094 21.839844zm-18.191407-48.386718c2.367188-4.457032 7.894531-6.15625 12.359375-3.796876 15.402344 8.128907 27.996094 20.714844 36.128906 36.117188 2.121094 4 1 8.949219-2.640624 11.644531-3.640626 2.691407-8.703126 2.3125-11.90625-.890625-.632813-.652344-1.171876-1.390625-1.597657-2.191406-6.371093-12.191406-16.320312-22.140625-28.511719-28.503906-4.457031-2.378906-6.164062-7.898438-3.832031-12.378906zm0 0"/><path d="m424.082031 127.128906c-12.660156 2.113282-25.578125 2.113282-38.238281 0-11.226562-2.003906-22.664062 2.183594-29.945312 10.960938s-9.28125 20.789062-5.234376 31.453125c4.042969 10.660156 13.507813 18.324219 24.777344 20.066406l7.785156 1.304687c14.402344 2.398438 29.101563 2.398438 43.503907 0l7.777343-1.304687c11.269532-1.742187 20.734376-9.40625 24.777344-20.066406 4.046875-10.664063 2.046875-22.675781-5.234375-31.453125s-18.71875-12.964844-29.945312-10.960938zm7.777344 46.703125-7.777344 1.296875c-12.660156 2.113282-25.578125 2.113282-38.238281 0l-7.785156-1.296875c-8.539063-1.421875-14.304688-9.496093-12.882813-18.035156s9.496094-14.304687 18.035157-12.882813c.40625.0625.800781.085938 1.230468.152344 12.089844 9.320313 28.945313 9.320313 41.035156 0 .414063-.066406.796876-.089844 1.238282-.152344 8.539062-1.421874 16.613281 4.347657 18.03125 12.886719 1.421875 8.539063-4.347656 16.613281-12.886719 18.03125zm0 0"/><path d="m101.828125 109.875c4.082031-.003906 8.105469-1.007812 11.710937-2.921875 18.253907-9.625 33.171876-24.542969 42.800782-42.792969 6.378906-12.261718 1.664062-27.371094-10.554688-33.832031s-27.363281-1.847656-33.902344 10.328125c-4.882812 9.347656-12.507812 16.976562-21.855468 21.855469-12.277344 6.492187-16.964844 21.710937-10.464844 33.984375 4.371094 8.238281 12.9375 13.382812 22.265625 13.378906zm-6.511719-31.601562c.640625-.640626 1.378906-1.179688 2.183594-1.601563 12.183594-6.359375 22.125-16.296875 28.496094-28.476563 1.601562-3.011718 4.734375-4.890624 8.144531-4.890624 1.472656 0 2.925781.359374 4.230469 1.046874 4.453125 2.367188 6.15625 7.890626 3.808594 12.355469-8.132813 15.410157-20.726563 28.003907-36.136719 36.132813-4 2.113281-8.941407.988281-11.625-2.648438-2.6875-3.640625-2.3125-8.691406.882812-11.894531zm0 0"/><path d="m29.59375 159.960938 4.585938 6.402343c8.480468 11.882813 18.875 22.277344 30.757812 30.757813l6.402344 4.585937c9.203125 6.675781 21.277344 7.910157 31.640625 3.226563 10.359375-4.683594 17.414062-14.5625 18.480469-25.882813 1.066406-11.320312-4.019532-22.34375-13.320313-28.882812-10.441406-7.460938-19.578125-16.597657-27.042969-27.039063-6.480468-9.449218-17.558594-14.664062-28.96875-13.632812-11.414062 1.03125-21.378906 8.148437-26.058594 18.605468-4.679687 10.457032-3.347656 22.628907 3.484376 31.828126zm14.6875-29.488282c2.9375-2.933594 6.921875-4.582031 11.074219-4.582031h1.304687c4.59375.378906 8.785156 2.765625 11.460938 6.519531.242187.335938.523437.648438.800781.984375 1.960937 15.132813 13.867187 27.042969 29 29.007813.34375.238281.648437.519531.992187.800781 7.042969 5.03125 8.671876 14.820313 3.640626 21.863281-5.03125 7.042969-14.820313 8.671875-21.863282 3.640625l-6.402344-4.585937c-10.441406-7.457032-19.578124-16.59375-27.03125-27.039063l-4.589843-6.402343c-4.5-6.21875-3.8125-14.78125 1.613281-20.207032zm0 0"/><path d="m189.257812 239.050781c8.035157 8.316407 19.933594 11.652344 31.121094 8.726563 11.1875-2.929688 19.925782-11.667969 22.855469-22.855469 2.925781-11.1875-.410156-23.085937-8.726563-31.121094l-45.257812-45.253906c-1.5-1.5-3.535156-2.34375-5.65625-2.34375h-33.933594c-2.121094 0-4.15625.84375-5.65625 2.34375-12.5 12.496094-12.5 32.757813 0 45.253906zm-35.878906-76.847656h26.902344l42.914062 42.910156c6.246094 6.25 6.246094 16.375 0 22.625-6.328124 6.046875-16.296874 6.046875-22.625 0l-45.253906-45.25c-5.425781-5.421875-6.238281-13.933593-1.9375-20.285156zm0 0"/><path d="m292.539062 102.320312-6.398437 4.601563c-11.886719 8.476563-22.28125 18.867187-30.761719 30.75l-4.585937 6.402344c-6.898438 9.648437-7.824219 22.34375-2.398438 32.894531 5.421875 10.550781 16.289063 17.183594 28.152344 17.183594.871094 0 1.753906 0 2.625-.109375 9.292969-.75 17.785156-5.5625 23.199219-13.152344 7.460937-10.445313 16.597656-19.582031 27.039062-27.042969 13.722656-10.335937 16.707032-29.726562 6.722656-43.707031-9.980468-13.984375-29.289062-17.460937-43.523437-7.84375zm34.03125 27.074219c-.375 4.59375-2.757812 8.789063-6.511718 11.464844-.335938.238281-.640625.511719-.96875.75-15.140625 1.957031-27.058594 13.875-29.015625 29.015625-.246094.335938-.527344.648438-.800781.984375-3.21875 4.640625-8.691407 7.183594-14.3125 6.664063-5.625-.519532-10.535157-4.027344-12.851563-9.175782-2.316406-5.152344-1.679687-11.152344 1.660156-15.703125l4.59375-6.402343c7.453125-10.445313 16.59375-19.582032 27.039063-27.039063l6.402344-4.589844c4.96875-3.542969 11.542968-3.882812 16.847656-.863281 5.304687 3.015625 8.378906 8.835938 7.878906 14.917969zm0 0"/><path d="m371.84375 203.335938c-12.277344-6.425782-27.441406-1.757813-33.976562 10.464843-4.890626 9.351563-12.527344 16.980469-21.878907 21.863281-2.207031 1.175782-4.222656 2.671876-5.992187 4.433594-8.789063 8.796875-9.824219 22.699219-2.4375 32.703125 7.386718 10.003907 20.976562 13.105469 31.972656 7.296875 18.25-9.628906 33.164062-24.546875 42.792969-42.800781 6.460937-12.273437 1.773437-27.460937-10.480469-33.960937zm-3.671875 26.496093c-8.132813 15.40625-20.722656 28-36.128906 36.128907-4 2.113281-8.941407.984374-11.625-2.652344-2.6875-3.636719-2.3125-8.691406.882812-11.890625.652344-.636719 1.390625-1.175781 2.199219-1.601563 12.1875-6.359375 22.128906-16.300781 28.496094-28.488281 1.496094-2.933594 4.457031-4.839844 7.753906-4.980469 3.292969-.140625 6.40625 1.5 8.148438 4.296875 1.746093 2.796875 1.847656 6.316407.273437 9.214844zm0 0"/><path d="m24.003906 280.425781c6.363282.011719 12.46875-2.511719 16.96875-7.015625l22.621094-22.625c9.371094-9.371094 9.371094-24.5625 0-33.9375-9.496094-9.0625-24.445312-9.0625-33.941406 0l-22.625 22.609375c-6.863282 6.867188-8.914063 17.1875-5.199219 26.15625s12.46875 14.8125 22.175781 14.8125zm-5.664062-29.601562 22.632812-22.621094c2.007813-2.082031 4.980469-2.914063 7.777344-2.183594 2.796875.734375 4.980469 2.917969 5.714844 5.714844.730468 2.796875-.101563 5.769531-2.183594 7.777344l-22.621094 22.570312c-3.125 3.125-8.191406 3.128907-11.316406.003907s-3.128906-8.191407-.003906-11.316407zm0 0"/><path d="m476.851562 252.144531v-33.941406c0-2.125-.84375-4.15625-2.34375-5.65625-12.65625-12.097656-32.59375-12.097656-45.25 0l-45.253906 45.253906c-8.320312 8.035157-11.65625 19.933594-8.726562 31.121094 2.925781 11.1875 11.664062 19.925781 22.851562 22.855469 11.191406 2.925781 23.085938-.410156 31.121094-8.726563l45.257812-45.25c1.5-1.5 2.34375-3.535156 2.34375-5.65625zm-16-3.3125-42.914062 42.90625c-6.328125 6.046875-16.292969 6.046875-22.621094 0-6.246094-6.25-6.246094-16.375 0-22.625l45.253906-45.253906c5.421876-5.421875 13.929688-6.234375 20.28125-1.9375zm0 0"/><path d="m347.425781 335.929688c-7.105469-6.007813-16.496093-8.59375-25.679687-7.0625-12.660156 2.101562-25.578125 2.101562-38.238282 0-11.226562-2.007813-22.664062 2.179687-29.945312 10.957031-7.28125 8.777343-9.28125 20.792969-5.234375 31.453125 4.042969 10.664062 13.507813 18.328125 24.777344 20.066406l7.785156 1.296875c14.402344 2.410156 29.101563 2.410156 43.503906 0l7.785157-1.296875c12.164062-2.035156 22.039062-10.945312 25.3125-22.839844 3.273437-11.890625-.65625-24.601562-10.066407-32.574218zm-17.894531 39.640624-7.785156 1.296876c-12.660156 2.101562-25.578125 2.101562-38.238282 0l-7.785156-1.296876c-8.078125-1.304687-13.796875-8.605468-13.125-16.761718s7.507813-14.421875 15.691406-14.382813c.867188 0 1.730469.070313 2.585938.207031.40625.074219.800781.089844 1.230469.160157 12.09375 9.324219 28.949219 9.324219 41.042969 0 .40625-.070313.796874-.085938 1.230468-.160157 8.453125-1.242187 16.339844 4.511719 17.746094 12.9375 1.402344 8.425782-4.195312 16.425782-12.59375 17.992188zm0 0"/><path d="m62.9375 299.042969c6.503906 12.261719 21.703125 16.941406 33.976562 10.460937 18.257813-9.621094 33.175782-24.542968 42.800782-42.796875 6.257812-12.246093 1.515625-27.246093-10.640625-33.671875-12.160157-6.425781-27.222657-1.894531-33.816407 10.175782-4.882812 9.339843-12.511718 16.964843-21.855468 21.847656-2.21875 1.179687-4.253906 2.683594-6.03125 4.460937-7.828125 7.785157-9.632813 19.78125-4.433594 29.523438zm15.753906-18.21875c.644532-.636719 1.378906-1.179688 2.183594-1.597657 12.183594-6.367187 22.125-16.308593 28.496094-28.488281 1.605468-3.003906 4.738281-4.882812 8.144531-4.878906 1.472656-.003906 2.925781.355469 4.230469 1.046875 4.453125 2.367188 6.15625 7.886719 3.808594 12.351562-8.128907 15.40625-20.726563 28-36.136719 36.128907-3.996094 2.097656-8.925781.96875-11.605469-2.660157-2.683594-3.628906-2.316406-8.675781.863281-11.878906zm0 0"/><path d="m38.625 360.425781c0 17.671875 14.328125 32 32 32h64c17.675781 0 32-14.328125 32-32s-14.324219-32-32-32h-64c-2.121094 0-4.152344.84375-5.652344 2.34375l-24 24c-1.503906 1.5-2.34375 3.535157-2.347656 5.65625zm35.3125-16h60.6875c8.839844 0 16 7.164063 16 16 0 8.835938-7.160156 16-16 16h-64c-7.667969 0-14.261719-5.445312-15.710938-12.976562zm0 0"/><path d="m148.523438 416.097656c-6.894532 9.652344-7.816407 22.347656-2.390626 32.894532 5.425782 10.546874 16.289063 17.179687 28.148438 17.183593.875 0 1.746094 0 2.625-.109375 9.292969-.75 17.785156-5.5625 23.199219-13.152344 7.457031-10.449218 16.59375-19.585937 27.042969-27.039062 13.71875-10.339844 16.703124-29.730469 6.722656-43.710938-9.984375-13.984374-29.289063-17.460937-43.523438-7.84375l-6.402344 4.601563c-11.886718 8.472656-22.28125 18.867187-30.757812 30.75zm13.023437 9.296875 4.585937-6.402343c7.457032-10.445313 16.597657-19.582032 27.046876-27.039063l6.398437-4.589844c7.046875-4.832031 16.664063-3.132812 21.628906 3.820313 4.960938 6.957031 3.445313 16.601562-3.414062 21.699218-.335938.238282-.636719.511719-.972657.75-15.132812 1.972657-27.042968 13.882813-29.015624 29.015626-.242188.335937-.523438.648437-.800782.984374-3.222656 4.640626-8.691406 7.1875-14.316406 6.664063-5.625-.519531-10.53125-4.023437-12.851562-9.175781-2.316407-5.152344-1.679688-11.152344 1.664062-15.703125zm0 0"/><path d="m180.28125 336.015625c6.046875 6.148437 14.925781 8.578125 23.257812 6.371094 8.332032-2.207031 14.84375-8.714844 17.050782-17.046875 2.210937-8.332032-.21875-17.210938-6.363282-23.257813l-22.625-22.625c-9.496093-9.0625-24.445312-9.0625-33.941406 0-9.371094 9.371094-9.371094 24.5625 0 33.9375zm-11.308594-45.246094c3.121094-3.125 8.1875-3.125 11.308594 0l22.632812 22.625c3.125 3.125 3.121094 8.191407-.003906 11.316407-3.125 3.121093-8.191406 3.121093-11.316406-.003907l-22.621094-22.625c-3.125-3.125-3.125-8.1875 0-11.3125zm0 0"/><path d="m302.625 408.425781c-13.253906 0-24 10.746094-24 24 0 13.253907 10.746094 24 24 24h32c13.257812 0 24-10.746093 24-24 0-13.253906-10.742188-24-24-24zm40 24c0 4.417969-3.578125 8-8 8h-32c-4.417969 0-8-3.582031-8-8s3.582031-8 8-8h32c4.421875 0 8 3.582031 8 8zm0 0"/><path d="m398.625 408.425781c13.257812 0 24-10.746093 24-24v-32c0-13.253906-10.742188-24-24-24-13.253906 0-24 10.746094-24 24v32c0 13.253907 10.746094 24 24 24zm-8-56c0-4.417969 3.582031-8 8-8 4.421875 0 8 3.582031 8 8v32c0 4.417969-3.578125 8-8 8-4.417969 0-8-3.582031-8-8zm0 0"/><path d="m262.625 320.425781c13.257812 0 24-10.746093 24-24v-32c0-13.253906-10.742188-24-24-24-13.253906 0-24 10.746094-24 24v32c0 13.253907 10.746094 24 24 24zm-8-56c0-4.417969 3.582031-8 8-8 4.421875 0 8 3.582031 8 8v32c0 4.417969-3.578125 8-8 8-4.417969 0-8-3.582031-8-8zm0 0"/></svg>