<svg height="512pt" viewBox="-90 0 512 512.00007" width="512pt" xmlns="http://www.w3.org/2000/svg"><g fill="#b4de87"><path d="m79.976562 315.765625c-6.402343 1.199219-8.875 16.660156-5.527343 34.539063 3.347656 17.875 11.25 31.394531 17.652343 30.195312 6.398438-1.199219 8.875-16.664062 5.527344-34.539062s-11.253906-31.394532-17.652344-30.195313zm0 0"/><path d="m25.125 319.210938c-5.804688 2.957031-3.808594 18.492187 4.449219 34.695312 8.261719 16.203125 19.664062 26.941406 25.464843 23.984375 5.800782-2.960937 3.808594-18.492187-4.453124-34.695313-8.261719-16.203124-19.660157-26.941406-25.460938-23.984374zm0 0"/><path d="m71.496094 381.527344c-5.96875-2.605469-16.707032 8.789062-23.988282 25.457031-7.285156 16.664063-8.351562 32.289063-2.382812 34.894531 5.96875 2.609375 16.707031-8.789062 23.988281-25.453125 7.285157-16.664062 8.351563-32.289062 2.382813-34.898437zm0 0"/><path d="m115.144531 387.160156c-5.964843-2.605468-16.707031 8.789063-23.988281 25.457032-7.28125 16.664062-8.347656 32.289062-2.382812 34.894531 5.96875 2.609375 16.710937-8.789063 23.992187-25.453125 7.28125-16.664063 8.347656-32.289063 2.378906-34.898438zm0 0"/><path d="m217.609375 340.601562c-6.019531 2.480469-5.285156 18.125 1.644531 34.941407 6.929688 16.816406 17.429688 28.4375 23.449219 25.957031 6.023437-2.480469 5.285156-18.125-1.644531-34.941406-6.929688-16.816406-17.425782-28.4375-23.449219-25.957032zm0 0"/><path d="m263.011719 319.605469c-6.324219 1.550781-7.933594 17.128906-3.59375 34.792969 4.339843 17.660156 12.984375 30.71875 19.308593 29.164062 6.324219-1.550781 7.929688-17.128906 3.59375-34.792969-4.339843-17.660156-12.984374-30.71875-19.308593-29.164062zm0 0"/><path d="m222.269531 418.972656c-2.964843 5.796875 7.753907 17.214844 23.945313 25.5s31.71875 10.304688 34.6875 4.507813-7.753906-17.214844-23.945313-25.503907c-16.1875-8.285156-31.71875-10.300781-34.6875-4.503906zm0 0"/><path d="m265.035156 393.53125c-2.964844 5.800781 7.753906 17.214844 23.945313 25.503906 16.191406 8.285156 31.71875 10.300782 34.6875 4.503906 2.964843-5.796874-7.753907-17.210937-23.945313-25.5-16.1875-8.285156-31.71875-10.304687-34.6875-4.507812zm0 0"/><path d="m202.402344 504.5c-5.554688 0-11.058594-2.425781-14.8125-7.09375-47.710938-59.386719-47.710938-124.410156-47.710938-145.777344v-193.144531c0-10.484375 8.5-18.984375 18.988282-18.984375 10.484374 0 18.984374 8.5 18.984374 18.984375v193.144531c0 19.972656 0 73.027344 39.339844 121.996094 6.570313 8.175781 5.265625 20.125-2.910156 26.691406-3.503906 2.816406-7.707031 4.183594-11.878906 4.183594zm0 0"/></g><path d="m161.527344 327.726562c5 3.28125 10.507812 5.792969 16.324218 7.410157v-176.652344c0-10.484375-8.5-18.984375-18.984374-18.984375-10.488282 0-18.988282 8.5-18.988282 18.984375v177.867187c7.789063-1.386718 15.148438-4.355468 21.648438-8.625zm0 0" fill="#92d18a"/><path d="m161.527344 161.53125c-13.890625 3.71875-23.210938 16.746094-22.25 31.09375l.609375 9.078125c2.070312 30.941406 8.652343 61.414063 19.53125 90.453125 6.507812 17.363281 25.136719 26.949219 43.046875 22.148438 17.910156-4.796876 29.25-22.414063 26.203125-40.707032-5.09375-30.585937-14.632813-60.265625-28.308594-88.097656l-4.015625-8.167969c-6.339844-12.90625-20.925781-19.527343-34.816406-15.800781zm0 0" fill="#f4bc76"/><path d="m161.527344 161.53125c3.722656 13.886719 16.75 23.207031 31.097656 22.25l9.078125-.609375c30.941406-2.070313 61.414063-8.652344 90.449219-19.53125 17.367187-6.507813 26.953125-25.136719 22.152344-43.046875-4.800782-17.914062-22.414063-29.25-40.707032-26.203125-30.585937 5.09375-60.265625 14.632813-88.097656 28.308594l-8.167969 4.011719c-12.90625 6.34375-19.527343 20.925781-15.804687 34.820312zm0 0" fill="#f7d378"/><path d="m161.527344 161.53125c13.890625-3.722656 23.210937-16.75 22.25-31.097656l-.605469-9.078125c-2.070313-30.941407-8.652344-61.414063-19.53125-90.449219-6.507813-17.367188-25.136719-26.953125-43.046875-22.152344-17.914062 4.800782-29.25 22.414063-26.203125 40.707032 5.09375 30.585937 14.632813 60.265624 28.308594 88.097656l4.011719 8.167968c6.34375 12.902344 20.925781 19.523438 34.816406 15.804688zm0 0" fill="#f4bc76"/><path d="m161.527344 161.53125c-3.722656-13.890625-16.746094-23.210938-31.09375-22.253906l-9.082032.609375c-30.9375 2.070312-61.410156 8.652343-90.449218 19.53125-17.363282 6.507812-26.949219 25.136719-22.152344 43.046875 4.800781 17.914062 22.417969 29.253906 40.707031 26.207031 30.589844-5.097656 60.269531-14.636719 88.097657-28.3125l8.167968-4.011719c12.90625-6.34375 19.527344-20.929687 15.804688-34.816406zm0 0" fill="#f7d378"/><path d="m161.527344 161.53125c-3.722656 13.886719 2.898437 28.472656 15.804687 34.816406l8.167969 4.011719c27.832031 13.675781 57.511719 23.214844 88.097656 28.3125 18.292969 3.046875 35.90625-8.292969 40.707032-26.207031 4.800781-17.910156-4.785157-36.539063-22.152344-43.046875-29.035156-10.878907-59.507813-17.457031-90.449219-19.53125l-9.078125-.609375c-14.347656-.960938-27.375 8.359375-31.097656 22.253906zm0 0" fill="#f4bc76"/><path d="m161.527344 161.53125c13.890625 3.71875 28.476562-2.898438 34.816406-15.804688l4.015625-8.167968c13.675781-27.832032 23.214844-57.511719 28.308594-88.097656 3.050781-18.292969-8.289063-35.90625-26.203125-40.707032-17.910156-4.800781-36.539063 4.785156-43.046875 22.152344-10.878907 29.035156-17.460938 59.507812-19.53125 90.449219l-.609375 9.078125c-.960938 14.347656 8.359375 27.371094 22.25 31.097656zm0 0" fill="#f7d378"/><path d="m161.527344 161.53125c3.722656-13.890625-2.898438-28.476562-15.804688-34.820312l-8.164062-4.011719c-27.832032-13.675781-57.511719-23.214844-88.097656-28.308594-18.292969-3.050781-35.910157 8.289063-40.707032 26.203125-4.800781 17.910156 4.785156 36.539062 22.148438 43.046875 29.039062 10.878906 59.511718 17.460937 90.453125 19.53125l9.078125.609375c14.347656.957031 27.371094-8.363281 31.09375-22.25zm0 0" fill="#f4bc76"/><path d="m161.527344 161.53125c-13.890625-3.722656-28.472656 2.894531-34.816406 15.800781l-4.011719 8.167969c-13.679688 27.832031-23.214844 57.511719-28.3125 88.097656-3.046875 18.292969 8.292969 35.910156 26.207031 40.707032 17.910156 4.800781 36.539062-4.785157 43.042969-22.148438 10.882812-29.039062 17.460937-59.511719 19.53125-90.453125l.609375-9.078125c.960937-14.347656-8.359375-27.375-22.25-31.09375zm0 0" fill="#f7d378"/><path d="m161.527344 161.53125c-10.167969 10.167969-11.726563 26.105469-3.71875 38.054688l5.066406 7.558593c17.261719 25.757813 38.195312 48.859375 62.136719 68.566407 14.320312 11.78125 35.246093 10.769531 48.355469-2.339844 13.113281-13.113282 14.125-34.039063 2.339843-48.355469-19.707031-23.945313-42.804687-44.878906-68.5625-62.140625l-7.5625-5.066406c-11.945312-8.007813-27.886719-6.449219-38.054687 3.722656zm0 0" fill="#f7d378"/><path d="m161.527344 161.53125c10.167968 10.167969 26.109375 11.726562 38.054687 3.71875l7.5625-5.066406c25.757813-17.261719 48.855469-38.199219 68.5625-62.140625 11.785157-14.316407 10.773438-35.242188-2.339843-48.355469-13.109376-13.109375-34.035157-14.121094-48.355469-2.339844-23.941407 19.710938-44.875 42.808594-62.136719 68.566406l-5.066406 7.5625c-8.007813 11.945313-6.449219 27.882813 3.71875 38.054688zm0 0" fill="#f4bc76"/><path d="m161.527344 161.53125c10.167968-10.171875 11.730468-26.109375 3.722656-38.054688l-5.066406-7.5625c-17.261719-25.757812-38.199219-48.855468-62.140625-68.566406-14.316407-11.78125-35.242188-10.769531-48.355469 2.339844-13.109375 13.113281-14.121094 34.039062-2.339844 48.355469 19.710938 23.941406 42.808594 44.878906 68.566406 62.140625l7.5625 5.066406c11.945313 8.007812 27.882813 6.449219 38.050782-3.71875zm0 0" fill="#f7d378"/><path d="m161.527344 161.53125c-10.167969-10.171875-26.105469-11.730469-38.054688-3.722656l-7.558594 5.066406c-25.757812 17.261719-48.859374 38.199219-68.566406 62.140625-11.785156 14.316406-10.773437 35.242187 2.339844 48.355469 13.113281 13.109375 34.039062 14.121094 48.355469 2.339844 23.941406-19.707032 44.878906-42.808594 62.140625-68.566407l5.066406-7.558593c8.007812-11.949219 6.445312-27.886719-3.722656-38.054688zm0 0" fill="#f4bc76"/><path d="m192.527344 158.484375c0 18.589844-15.070313 33.664063-33.660156 33.664063-18.59375 0-33.664063-15.074219-33.664063-33.664063s15.070313-33.664063 33.664063-33.664063c18.589843 0 33.660156 15.074219 33.660156 33.664063zm0 0" fill="#d6a17a"/><path d="m150.527344 125.871094c-5.664063 1.445312-11.03125 4.375-15.464844 8.808594-13.148438 13.148437-13.148438 34.460937 0 47.609374 12.316406 12.3125 31.796875 13.089844 45.019531 2.332032-37.535156-1.433594-46.46875-41.277344-29.554687-58.75zm0 0" fill="#bd8860"/><path d="m303.140625 391.375c-3.578125-1.832031-7.1875-3.394531-10.722656-4.683594 1.785156-2.074218 2.375-5.050781 1.261719-7.753906-.480469-1.164062-1.222657-2.140625-2.125-2.894531.183593-1.042969.332031-2.074219.433593-3.070313.765625-7.40625-.078125-16.640625-2.378906-25.996094-4.804687-19.546874-15.445313-37.839843-28.378906-34.664062-.003907 0-.003907 0-.003907 0-12.9375 3.179688-13.886718 24.324219-9.085937 43.867188 2.300781 9.359374 5.828125 17.933593 9.9375 24.140624.714844 1.078126 1.511719 2.175782 2.386719 3.242188-3.574219 1.742188-6.988282 3.492188-10.269532 5.25-.386718-7.726562-2.738281-16.664062-6.214843-25.105469-3.671875-8.910156-8.445313-16.859375-13.4375-22.382812-9.054688-10.023438-16.296875-9.097657-19.804688-7.648438-7.765625 3.203125-9 12.308594-8.667969 19.382813.351563 7.4375 2.5625 16.441406 6.234376 25.347656 4.257812 10.335938 10.242187 20.019531 16.832031 25.714844-2.964844 2.078125-5.75 4.140625-8.367188 6.183594-1.324219.714843-2.53125 1.640624-3.550781 2.828124-7.144531 5.859376-12.90625 11.5-17.566406 16.726563-14.292969-33.652344-14.304688-64.292969-14.304688-78.230469v-29.289062c2.527344.457031 5.097656.710937 7.703125.710937 3.757813 0 7.570313-.488281 11.351563-1.5 15.773437-4.226562 27.460937-16.640625 31.078125-31.90625 4.058593 1.21875 8.246093 1.828125 12.429687 1.828125 11.15625 0 22.265625-4.308594 30.757813-12.800781 11.679687-11.679687 15.433593-28.300781 10.96875-43.191406 15.261719-3.617188 27.683593-15.300781 31.910156-31.074219 4.277344-15.957031-.789063-32.234375-12.113281-42.898438 11.085937-10.507812 16.089844-26.394531 12.390625-41.769531-.972657-4.023437-5.019531-6.503906-9.046875-5.535156-4.027344.972656-6.507813 5.019531-5.535156 9.046875 2.722656 11.316406-1.765626 23.042969-11 29.734375-.480469-.203125-.964844-.402344-1.460938-.589844-15.46875-5.796875-31.433594-10.417969-47.636719-13.808593 12.324219-11.019532 23.808594-22.96875 34.351563-35.777344.339844-.410156.660156-.832032.984375-1.25 2.914062.300781 5.765625 1.042968 8.492187 2.242187.980469.433594 2.007813.636719 3.015625.636719 2.882813 0 5.632813-1.671875 6.867188-4.480469 1.667969-3.792969-.054688-8.21875-3.84375-9.886719-2.40625-1.054687-4.871094-1.875-7.382813-2.476562 4.472656-14.898438.71875-31.527344-10.960937-43.207031-11.675781-11.675781-28.296875-15.433594-43.1875-10.96875-3.613281-15.265625-15.304688-27.683594-31.078125-31.910157-15.953125-4.273437-32.222656.78125-42.886719 12.09375-10.757813-11.410156-27.089844-16.320312-42.863281-12.09375-15.777344 4.226563-27.464844 16.644532-31.082032 31.910157-14.890624-4.464844-31.507812-.710938-43.183593 10.96875-11.675781 11.671875-15.433594 28.289062-10.972657 43.175781-15.261718 3.613281-27.679687 15.316406-31.90625 31.089844-4.273437 15.949218.78125 32.21875 12.09375 42.882812-11.410156 10.761719-16.320312 27.09375-12.09375 42.871094 4.226563 15.773438 16.648438 27.460938 31.910157 31.074219-4.464844 14.890625-.710938 31.511719 10.96875 43.191406 8.492187 8.492187 19.601562 12.800781 30.757812 12.800781 4.179688 0 8.367188-.609375 12.429688-1.828125 3.617187 15.261719 15.304687 27.679688 31.078125 31.90625 3.804687 1.019531 7.628906 1.507813 11.390625 1.507813.78125 0 1.5625-.03125 2.339843-.070313v28.640625c0 6.910156.003907 18.722656 1.679688 33.589844-7.863281-3.5-17.789062-7.109375-29.253906-9.597656 2.519531-8.394532 2.277344-19.917969.195312-31.042969-1.773437-9.46875-4.820312-18.226563-8.578125-24.65625-3.574219-6.113281-9.566406-13.070313-17.828125-11.53125-3.730468.699219-10.308594 3.863281-12.445312 17.203125-1.175782 7.351562-.84375 16.617188.929687 26.089844 1.386719 7.421875 3.613281 14.710937 6.535157 20.796875-2.613282.042969-5.265626.167969-7.953126.378906.332032-2.8125.191407-5.707031-.140624-8.308594-.949219-7.386719-3.882813-16.179687-8.257813-24.765625-4.378906-8.582031-9.773437-16.125-15.195313-21.226562-5.152343-4.859375-12.871093-9.847656-20.355468-6.03125-3.382813 1.726562-8.800782 6.621094-7.082032 20.019531.949219 7.382813 3.882813 16.179687 8.257813 24.761719 4.25 8.332031 9.660156 16.105468 15.429687 21.441406-2.089843 1.839844-3.070312 4.773438-2.277343 7.632812 1.113281 3.992188 5.246093 6.324219 9.234375 5.21875.761718-.210937 1.515625-.390624 2.273437-.585937-2.511719 3.910156-4.859375 8.304687-6.902343 12.976563-8.058594 18.441406-10.722657 39.4375 1.488281 44.773437 1.605469.703125 3.234375 1.03125 4.875 1.03125 10.816406 0 21.992187-14.339844 28.992187-30.351563 4.769532-10.921874 7.652344-22.738281 6.671875-31.667968 4.8125.296875 9.441407.867187 13.84375 1.640625-4.5 5.28125-8.785156 12.351562-12.21875 20.207031-8.058593 18.441406-10.722656 39.4375 1.484375 44.773438 1.65625.722656 3.296875 1.039062 4.902344 1.039062 5.863281 0 11.25-4.21875 15.0625-8.265625 5.105469-5.417969 10.046875-13.265625 13.902344-22.097656 3.859375-8.828125 6.265625-17.78125 6.769531-25.210938.039063-.527343.046875-1.019531.0625-1.523437 4.171875 1.777344 7.625 3.488281 10.273437 4.902344 3.058594 16.289062 8.25 34.78125 17.074219 53.863281 1.265625 2.738281 3.976563 4.351562 6.808594 4.351562 1.054687 0 2.125-.222656 3.144531-.695312 3.761719-1.738281 5.398438-6.195313 3.660156-9.957031-20.066406-43.375-20.066406-83.914063-20.066406-99.175782v-32.199218c5.3125-2.320313 10.136719-5.707032 14.167969-9.984376 2.628906 2.792969 5.59375 5.191407 8.804687 7.164063v35.019531c0 20.695313 0 75.667969 40.992188 126.691406 1.921875 2.394532 2.796875 5.390626 2.464844 8.441407-.332032 3.046875-1.832032 5.785156-4.226563 7.707031-2.0625 1.65625-4.542969 2.53125-7.179687 2.53125-3.507813 0-6.773438-1.5625-8.964844-4.289062-3.21875-4.003907-6.3125-8.167969-9.195312-12.375-2.34375-3.414063-7.011719-4.285157-10.429688-1.941407-3.414062 2.34375-4.285156 7.011719-1.941406 10.429688 3.101562 4.515625 6.421875 8.980469 9.871094 13.277343 5.054687 6.292969 12.585937 9.898438 20.660156 9.898438 6 0 11.890625-2.074219 16.574218-5.835938 5.515626-4.433593 8.976563-10.746093 9.742188-17.777343.765625-7.035157-1.25-13.945313-5.683594-19.460938-6.453125-8.035156-11.78125-16.191406-16.214844-24.296875 3.496094-4.40625 7.394532-8.59375 11.578126-12.546875.886718 1.230469 1.933593 2.511719 3.1875 3.847657 5.097656 5.429687 12.628906 10.835937 21.207031 15.222656 8.578125 4.390625 17.367187 7.335937 24.75 8.296875 1.585937.207031 3.273437.339843 4.992187.339843 5.894532 0 12.070313-1.59375 15.035156-7.386718 6.074219-11.863282-9.285156-26.425782-27.199218-35.59375-4.777344-2.445313-9.613282-4.421875-14.246094-5.878906 4.34375-2.738282 8.699219-5.28125 12.96875-7.628907 4.324219 8.269531 14.855469 16.472657 26.464844 22.417969 8.578125 4.386719 17.367187 7.335938 24.753906 8.292969 1.582031.207031 3.273438.339843 4.988281.339843 5.894531 0 12.070313-1.59375 15.039063-7.386718 6.074218-11.863282-9.285156-26.425782-27.199219-35.589844zm-266.886719-40.878906c-5.347656-10.484375-7.03125-18.957032-6.992187-23.160156 3.425781 2.4375 9.292969 8.773437 14.640625 19.261718 5.347656 10.488282 7.027344 18.957032 6.988281 23.164063-3.421875-2.441407-9.289063-8.777344-14.636719-19.265625zm26.003906 62.941406c-4.714843 10.785156-10.191406 17.460938-13.464843 20.097656-.289063-4.191406.886719-12.75 5.601562-23.535156 4.710938-10.785156 10.191407-17.460938 13.464844-20.101562.289063 4.195312-.886719 12.75-5.601563 23.539062zm28.167969-41.902344c-2.597656-3.304687-6.4375-11.042968-8.605469-22.613281-2.167968-11.570313-1.386718-20.171875-.164062-24.195313 2.597656 3.308594 6.4375 11.042969 8.601562 22.617188 2.167969 11.570312 1.390626 20.167969.167969 24.191406zm15.484375 47.53125c-4.714844 10.789063-10.195312 17.464844-13.46875 20.101563-.285156-4.195313.890625-12.75 5.601563-23.539063 4.714843-10.785156 10.195312-17.460937 13.46875-20.097656.289062 4.195312-.886719 12.75-5.601563 23.535156zm162.15625-151c-10.433594 10.433594-26.894531 11.230469-38.285156 1.851563-22.722656-18.703125-42.625-40.5-59.210938-64.804688l.910157-1.355469c1.582031-2.359374 2.878906-4.890624 3.886719-7.550781 4.640624-2.03125 8.914062-4.925781 12.605468-8.617187 3.667969-3.667969 6.488282-7.863282 8.476563-12.339844 2.578125-.996094 5.03125-2.242188 7.308593-3.769531l1.355469-.910157c24.304688 16.585938 46.101563 36.488282 64.804688 59.210938.871093 1.058594 1.65625 2.160156 2.351562 3.296875.023438.042969.046875.085937.074219.128906 6.707031 11.082031 5.152344 25.429688-4.277344 34.859375zm-100.964844-84.742187c-.109374.035156-.222656.070312-.332031.109375-2.523437.796875-5.179687 1.214844-7.902343 1.214844-6.988282 0-13.558594-2.722657-18.5-7.664063-10.203126-10.203125-10.203126-26.800781 0-37 4.941406-4.941406 11.511718-7.664063 18.5-7.664063 2.164062 0 4.292968.261719 6.34375.769532.007812.003906.015624.003906.027343.007812 4.550781 1.132813 8.726563 3.484375 12.128907 6.886719 10.199218 10.199219 10.199218 26.796875 0 37-2.933594 2.929687-6.4375 5.074219-10.265626 6.339844zm122.421876-16.882813c13.816406 5.175782 21.355468 19.832032 17.539062 34.082032-3.105469 11.578124-12.9375 19.785156-24.582031 20.972656-.320313-.417969-.640625-.835938-.980469-1.25-18.363281-22.308594-39.574219-42.023438-63.121094-58.714844 4.75-3.367188 9.402344-6.855469 13.957032-10.464844 19.480468 3.296875 38.703124 8.449219 57.1875 15.375zm-59.746094-113.300781c1.050781-.867187 2.144531-1.640625 3.269531-2.332031.058594-.035156.121094-.070313.179687-.105469 11.078126-6.691406 25.414063-5.132813 34.839844 4.289063 9.429688 9.429687 10.984375 23.777343 4.273438 34.863281-.023438.039062-.046875.082031-.070313.121093-.695312 1.136719-1.480469 2.242188-2.351562 3.300782-19.253907 23.394531-41.78125 43.808594-66.953125 60.675781l-1.917969 1.289063c-.023437.011718-.042969.027343-.0625.042968l-1.058594.707032c-.582031-9.695313-4.5625-19.222657-11.953125-26.613282-4.703125-4.703125-10.347656-8.117187-16.5-10.089844l-.902344-1.34375c16.582032-24.300781 36.484376-46.101562 59.207032-64.804687zm-63.335938-19.605469c.480469-1.28125 1.042969-2.507812 1.679688-3.675781.023437-.046875.050781-.09375.074218-.140625 6.246094-11.347656 19.449219-17.175781 32.328126-13.722656 11.582031 3.105468 19.777343 12.945312 20.964843 24.589844-.414062.320312-.832031.636718-1.242187.972656-22.308594 18.367187-42.023438 39.574218-58.714844 63.121094-3.367188-4.75-6.855469-9.402344-10.464844-13.957032 3.296875-19.480468 8.449219-38.707031 15.375-57.1875zm-43.910156-17.539062c11.578125-3.105469 23.601562 1.320312 30.453125 10.8125-.203125.484375-.40625.96875-.589844 1.464844-5.796875 15.46875-10.417969 31.433593-13.808593 47.636718-11.019532-12.320312-22.96875-23.808594-35.777344-34.351562-.40625-.335938-.824219-.65625-1.242188-.972656 1.1875-11.644532 9.386719-21.484376 20.964844-24.589844zm-67.539062 38.996094c10.433593-10.433594 26.894531-11.230469 38.285156-1.851563 22.6875 18.675781 42.5625 40.433594 59.128906 64.6875-8.539062 1.339844-16.417969 5.320313-22.648438 11.550781-6.457031 6.453125-10.308593 14.539063-11.570312 22.941406l-.246094.167969c-24.300781-16.585937-46.097656-36.488281-64.804687-59.210937-.875-1.0625-1.660157-2.171875-2.359375-3.3125-.019532-.035156-.039063-.070313-.058594-.105469-6.714844-11.085937-5.15625-25.4375 4.273438-34.867187zm-38.996094 67.542968c3.101562-11.578125 12.9375-19.785156 24.582031-20.976562.320313.421875.640625.839844.976563 1.25 18.367187 22.3125 39.578124 42.027344 63.121093 58.722656-4.746093 3.363281-9.398437 6.851562-13.953125 10.460938-19.480468-3.296876-38.703125-8.449219-57.191406-15.375-1.28125-.480469-2.511719-1.046876-3.683594-1.683594-.042968-.023438-.085937-.046875-.128906-.070313-11.347656-6.246093-17.175781-19.449219-13.722656-32.328125zm25.5625 97.710938c-.335938.410156-.65625.828125-.976563 1.242187-11.652343-1.1875-21.484375-9.382812-24.585937-20.964843-3.101563-11.578126 1.320312-23.597657 10.8125-30.449219.484375.199219.96875.402343 1.464844.585937 15.46875 5.796875 31.433593 10.421875 47.636718 13.8125-12.324218 11.019532-23.808594 22.964844-34.351562 35.773438zm51.71875 49.671875c-11.390625 9.378906-27.851563 8.582031-38.285156-1.851563-9.429688-9.429687-10.984376-23.78125-4.273438-34.867187.023438-.035157.039062-.070313.0625-.105469.699219-1.144531 1.484375-2.25 2.359375-3.3125 19.042969-23.136719 41.292969-43.355469 66.128906-60.113281 1.84375 6.566406 5.332031 12.765625 10.492188 17.921875 7.152343 7.152344 16.472656 11.339844 26.480469 11.964844l-.957032 1.425781c-.015625.023437-.03125.046875-.046875.070312l-1.285156 1.917969c-16.867187 25.167969-37.28125 47.695312-60.675781 66.949219zm63.335937 19.605469c-.484375 1.289062-1.046875 2.523437-1.691406 3.703124-.015625.03125-.039063.066407-.054687.101563-3.617188 6.574219-9.566407 11.296875-16.4375 13.4375-.398438.078125-.785157.191406-1.160157.332031-4.675781 1.242188-9.730469 1.304688-14.738281-.035156-11.578125-3.101562-19.777344-12.941406-20.964844-24.585938.417969-.320312.835938-.640624 1.242188-.976562 22.3125-18.363281 42.027344-39.574219 58.71875-63.117188 3.363281 4.746094 6.855468 9.398438 10.464844 13.953126-3.300782 19.480468-8.453126 38.707031-15.378907 57.1875zm24.101563 15.664062c-4.160156-2.011719-7.828125-5.042969-10.636719-8.933594.203125-.484375.398437-.972656.582031-1.46875 5.796875-15.46875 10.417969-31.433594 13.808594-47.636718 11.019531 12.320312 22.96875 23.808593 35.777344 34.351562.40625.335938.824218.65625 1.238281.976562-1.183594 11.644532-9.382813 21.480469-20.960937 24.585938-6.554688 1.753906-13.246094 1.09375-19.070313-1.519531-.238281-.132813-.484375-.25-.738281-.355469zm45.460937 67.503906c-4.484375-10.882812-5.476562-19.460937-5.101562-23.648437 3.214843 2.707031 8.554687 9.496093 13.039062 20.378906s5.480469 19.460937 5.101563 23.648437c-3.214844-2.707031-8.554688-9.496093-13.039063-20.378906zm27.363281 57.472656c10.480469 5.363282 16.808594 11.238282 19.242188 14.667969-.039062 0-.078125 0-.117188 0-4.242187 0-12.652343-1.714843-23.035156-7.03125-10.480468-5.359375-16.808594-11.238281-19.238281-14.667969h.113281c4.242188 0 12.652344 1.714844 23.035156 7.03125zm11.65625-101.707031c2.773438 3.15625 7.039063 10.664063 9.847657 22.097657 2.808593 11.433593 2.511719 20.0625 1.515625 24.144531-2.777344-3.152344-7.042969-10.664063-9.851563-22.097657-2.808593-11.429687-2.511719-20.0625-1.511719-24.144531zm27.203126 83.910157c-10.480469-5.363282-16.808594-11.242188-19.242188-14.671876h.113281c4.246094 0 12.652344 1.714844 23.035157 7.03125 10.480468 5.359376 16.808593 11.238282 19.242187 14.664063-4.214844.074219-12.671875-1.660156-23.148437-7.023437zm0 0"/></svg>