<?xml version="1.0" encoding="iso-8859-1"?>
<!-- Generator: Adobe Illustrator 21.0.0, SVG Export Plug-In . SVG Version: 6.00 Build 0)  -->
<svg version="1.1" id="Capa_1" xmlns="http://www.w3.org/2000/svg" xmlns:xlink="http://www.w3.org/1999/xlink" x="0px" y="0px"
	 viewBox="0 0 512.001 512.001" style="enable-background:new 0 0 512.001 512.001;" xml:space="preserve">
<g>
	<path style="fill:#FFB86E;" d="M196.908,163.198c-86.694-8.865-127.806,316.607,31.58,316.607
		c15.128,0,27.506-15.387,27.506-34.194V236.65C255.993,196.252,229.278,166.508,196.908,163.198z"/>
	<g>
		<path style="fill:#FF8244;" d="M148.098,157.364C-8.028,146.314-83.121,476.826,205.765,478.855
			c2.211,0.015,4.389-0.102,6.527-0.295c-134.384-20.596-102.089-299.308-25.528-314.812
			C174.732,160.332,161.68,158.325,148.098,157.364z"/>
		<path style="fill:#FF8244;" d="M232.535,132.489C187.366,93.233,99.461,120.57,82.745,174.127l0.006,0.023
			c19.172-12.063,41.293-18.489,65.347-16.786c13.581,0.961,26.635,2.968,38.667,6.384l-0.007,0.001
			c3.307-0.671,6.688-0.906,10.15-0.551c10.623,1.086,20.638,5.02,29.3,11.242C227.593,159.932,229.81,145.835,232.535,132.489
			L232.535,132.489z M253.821,217.235c1.413,6.12,2.173,12.615,2.173,19.414v-18.623
			C255.276,217.771,254.551,217.506,253.821,217.235z"/>
		<path style="fill:#FF8244;" d="M315.078,163.198c86.694-8.865,127.806,316.607-31.58,316.607
			c-15.128,0-27.506-15.387-27.506-34.194V236.65C255.993,196.252,282.709,166.508,315.078,163.198z"/>
	</g>
	<path style="fill:#FFB86E;" d="M363.888,157.364c156.126-11.049,231.22,319.462-57.667,321.492
		c-2.211,0.015-4.389-0.102-6.527-0.295c134.385-20.596,102.089-299.308,25.529-314.812
		C337.254,160.332,350.306,158.325,363.888,157.364z"/>
	<path style="fill:#FF8244;" d="M279.816,132.179c45.274-38.798,132.754-11.467,149.425,41.948l-0.006,0.023
		c-19.172-12.063-41.293-18.489-65.347-16.786c-13.581,0.961-26.635,2.968-38.667,6.384l0.007,0.001
		c-3.307-0.671-6.688-0.906-10.15-0.551c-18.745,1.917-35.595,12.699-46.457,29.283C269.93,174.904,274.423,153.176,279.816,132.179
		z"/>
	<path style="fill:#00C56E;" d="M302.668,57.279l-49.448,4.537c-10.518,26.974-22.736,67.83-27.013,112.624
		c13.287,9.547,23.385,24.485,27.614,42.795c1.367,0.505,2.713,0.989,4.023,1.446c2.068-9.757,5.792-18.59,10.777-26.202
		c3.021-40.542,22.985-103.209,31.837-127.886C301.376,62.034,302.103,59.599,302.668,57.279z"/>
</g>
<path d="M134.049,417.269c1.11,0,2.239-0.186,3.344-0.579c5.204-1.847,7.927-7.563,6.08-12.769
	c-0.032-0.089-0.082-0.224-0.116-0.312c-1.994-5.151-7.783-7.709-12.936-5.716c-5.108,1.977-7.667,7.69-5.764,12.809
	C126.136,414.748,129.964,417.269,134.049,417.269z"/>
<path d="M25.308,243.787c1.425,0.703,2.936,1.036,4.423,1.036c3.683,0,7.221-2.041,8.96-5.57c0.007-0.013,0.034-0.068,0.041-0.081
	c2.466-4.932,0.464-10.909-4.462-13.386c-4.926-2.477-10.938-0.478-13.427,4.442c-0.015,0.03-0.062,0.124-0.077,0.154
	C18.324,235.335,20.353,241.345,25.308,243.787z"/>
<path d="M511.395,302.865c-2.535-31.823-13.235-63.766-30.129-89.947c-12.314-19.084-27.177-34.355-43.725-45.376
	c-9.963-26.762-36.423-49.067-70.048-58.732c-25.365-7.29-50.561-6.365-71.436,2.067c5.017-17.186,10.109-32.581,13.813-42.907
	c1.006-2.805,1.852-5.606,2.514-8.326c0.764-3.138-0.035-6.452-2.144-8.897c-2.109-2.446-5.272-3.725-8.486-3.427l-49.448,4.538
	c-3.773,0.346-7.026,2.795-8.403,6.325c-0.537,1.378-1.103,2.854-1.689,4.415c-7.191,15.911-24.808,23.71-41.074,18.14
	c-4.674-1.601-8.435-5.021-10.587-9.63c-2.212-4.736-2.472-10.144-0.732-15.226c1.74-5.082,5.259-9.194,9.91-11.581
	c4.525-2.322,9.593-2.72,14.268-1.119c2.285,0.782,3.429,3.508,2.55,6.076c-0.88,2.569-3.454,4.022-5.739,3.24
	c-5.225-1.786-10.911,0.996-12.701,6.221c-1.789,5.225,0.996,10.911,6.221,12.701c12.717,4.354,26.689-2.68,31.141-15.683
	c4.451-13.002-2.275-27.123-14.993-31.478c-9.862-3.376-20.472-2.579-29.878,2.247c-9.28,4.761-16.277,12.893-19.702,22.896
	c-3.425,10.004-2.881,20.718,1.533,30.169c4.474,9.577,12.368,16.711,22.23,20.088c5.714,1.956,11.527,2.891,17.246,2.89
	c6.334,0,12.548-1.15,18.377-3.324c-1.459,5.222-2.9,10.729-4.283,16.502c-22.417-12.676-51.597-15.405-81.075-7.043
	c-33.874,9.608-60.514,31.992-70.507,58.923c-10.521,7.019-20.392,15.769-29.388,26.168c-3.089,3.57-6.09,7.358-8.918,11.259
	c-3.242,4.471-2.245,10.724,2.227,13.966c1.773,1.286,3.827,1.905,5.861,1.905c3.096-0.001,6.148-1.433,8.104-4.131
	c2.493-3.438,5.133-6.772,7.85-9.911c8.863-10.245,18.675-18.613,29.147-24.991c0.301-0.184,0.604-0.366,0.906-0.547
	c14.941-8.902,31.2-13.758,47.956-14.191c0.103-0.003,0.206-0.007,0.309-0.009c0.766-0.017,1.533-0.02,2.301-0.019
	c0.521,0.002,1.043,0.008,1.566,0.018c0.544,0.01,1.089,0.019,1.634,0.038c1.137,0.041,2.276,0.094,3.418,0.175
	c1.695,0.12,3.371,0.257,5.025,0.41c0.712,0.066,1.404,0.146,2.108,0.218c0.933,0.095,1.875,0.184,2.794,0.29
	c0.381,0.044,0.749,0.097,1.128,0.143c-1.541,1.452-3.06,2.99-4.55,4.641c-17.399,19.293-30.961,51.585-38.184,90.926
	c-7.228,39.366-7.127,80.674,0.285,116.314c1.124,5.407,6.417,8.883,11.827,7.754c5.407-1.125,8.879-6.419,7.754-11.827
	c-6.897-33.169-6.966-71.748-0.194-108.63c6.468-35.229,18.629-64.804,33.365-81.144c6.322-7.01,12.81-11.275,19.378-12.782
	c0.244-0.033,0.486-0.074,0.724-0.125c2.462-0.489,4.766-0.614,7.037-0.382c1.014,0.104,2.024,0.246,3.03,0.414
	c0.24,0.04,0.476,0.089,0.714,0.132c0.802,0.146,1.601,0.307,2.396,0.493c0.215,0.05,0.428,0.102,0.642,0.155
	c0.873,0.216,1.742,0.455,2.604,0.718c0.117,0.036,0.235,0.069,0.351,0.105c1.982,0.623,3.931,1.374,5.839,2.242
	c0.295,0.135,0.585,0.281,0.878,0.422c0.546,0.261,1.087,0.533,1.625,0.813c0.515,0.271,1.027,0.547,1.532,0.835
	c0.204,0.115,0.406,0.236,0.609,0.355c17.104,10.067,28.781,30.096,29.804,53.472c0.007,0.158,0.014,0.315,0.02,0.473
	c0.036,0.953,0.058,1.911,0.058,2.875v208.96c0,13.114-8.016,24.194-17.505,24.194c-4.808,0-9.454-0.332-13.942-0.984
	c-0.454-0.105-0.919-0.175-1.392-0.216c-22.597-3.649-41.04-15.655-54.956-35.843c-3.135-4.548-9.362-5.691-13.909-2.558
	c-4.547,3.135-5.692,9.362-2.558,13.909c5.626,8.162,11.958,15.264,18.919,21.29c-49.989-7.688-88.492-28.087-112.706-60.079
	C20.733,369.37,12.851,320.624,26.318,271.58c1.462-5.326-1.67-10.829-6.995-12.291c-5.324-1.464-10.828,1.669-12.291,6.995
	c-7.041,25.639-8.837,52.481-5.195,77.626c3.998,27.601,14.145,52.323,30.16,73.482c24.384,32.216,74.313,70.764,173.701,71.46
	c0.152,0.001,0.306,0.001,0.459,0.001c1.821,0,3.7-0.078,5.686-0.229c5.387,0.781,10.939,1.177,16.645,1.177
	c10.859,0,20.65-5.471,27.506-14.191c6.855,8.719,16.646,14.191,27.506,14.191c5.723,0,11.274-0.403,16.657-1.176
	c1.982,0.15,3.857,0.228,5.676,0.228c0.153,0,0.306-0.001,0.459-0.001c46.821-0.329,86.988-9.113,119.385-26.108
	c29.459-15.453,51.945-37.264,66.837-64.827C507.596,370.005,514.125,337.136,511.395,302.865z M361.966,128.032
	c16.676,4.793,31.124,13.136,41.656,23.596c-0.732-0.213-1.471-0.392-2.206-0.59c-0.195-0.052-0.39-0.105-0.586-0.157
	c-6.613-1.747-13.345-2.889-20.183-3.421c-0.175-0.014-0.35-0.03-0.525-0.043c-1.117-0.082-2.237-0.144-3.36-0.193
	c-0.509-0.023-1.018-0.042-1.528-0.058c-0.934-0.029-1.868-0.052-2.805-0.058c-0.799-0.007-1.601,0.004-2.403,0.014
	c-0.714,0.01-1.427,0.011-2.143,0.034c-1.564,0.048-3.13,0.121-4.702,0.232c-0.02,0.002-0.039,0.003-0.059,0.005
	c-1.795,0.127-3.571,0.273-5.328,0.435c-0.612,0.056-1.21,0.125-1.818,0.186c-1.157,0.115-2.315,0.23-3.454,0.36
	c-0.707,0.081-1.399,0.174-2.1,0.261c-1.023,0.127-2.047,0.252-3.055,0.391c-0.73,0.101-1.447,0.212-2.17,0.32
	c-0.957,0.142-1.915,0.283-2.858,0.437c-0.734,0.119-1.457,0.248-2.182,0.374c-0.91,0.158-1.819,0.317-2.716,0.486
	c-0.726,0.137-1.441,0.281-2.158,0.425c-0.876,0.176-1.75,0.354-2.612,0.54c-0.71,0.153-1.411,0.313-2.111,0.473
	c-0.847,0.194-1.689,0.391-2.521,0.595c-0.689,0.169-1.372,0.342-2.051,0.518c-0.378,0.098-0.766,0.188-1.141,0.288
	c-3.9-0.566-7.532-0.564-10.783-0.232c0,0-0.002,0-0.003,0c-1.04,0.106-2.073,0.244-3.104,0.397
	c-0.208,0.031-0.417,0.06-0.625,0.093c-0.972,0.154-1.94,0.327-2.903,0.521c-0.242,0.049-0.483,0.102-0.725,0.153
	c-0.859,0.183-1.714,0.379-2.563,0.594c-0.243,0.061-0.486,0.123-0.729,0.187c-0.807,0.213-1.608,0.444-2.406,0.686
	c-0.343,0.104-0.686,0.208-1.028,0.317c-0.811,0.26-1.617,0.533-2.418,0.822c-0.393,0.141-0.782,0.291-1.172,0.439
	c-0.545,0.208-1.088,0.423-1.628,0.644c-0.6,0.246-1.197,0.5-1.791,0.762c-0.495,0.219-0.989,0.441-1.479,0.672
	c-0.451,0.211-0.901,0.425-1.348,0.646c-0.679,0.336-1.354,0.682-2.023,1.04c-0.454,0.243-0.904,0.496-1.354,0.749
	c-0.403,0.227-0.804,0.46-1.203,0.695c-0.653,0.384-1.301,0.779-1.943,1.185c-0.296,0.187-0.595,0.37-0.889,0.562
	c1.681-8.64,3.732-17.627,5.984-26.583C307.049,123.724,334.156,120.04,361.966,128.032z M260.594,174.939
	c-0.025,0.163-0.049,0.325-0.073,0.487c-0.144,0.971-0.283,1.936-0.415,2.896c-0.054,0.393-0.105,0.78-0.157,1.169
	c-0.105,0.791-0.21,1.582-0.307,2.365c-0.085,0.685-0.16,1.355-0.238,2.027c-0.059,0.514-0.123,1.033-0.178,1.543
	c-0.129,1.193-0.242,2.359-0.346,3.509c-0.008,0.093-0.019,0.188-0.028,0.281c-1.013,1.658-1.969,3.353-2.866,5.082
	c-0.273-0.528-0.571-1.038-0.855-1.559c-0.215-0.395-0.427-0.79-0.648-1.181c-0.362-0.639-0.737-1.27-1.115-1.897
	c-0.308-0.513-0.618-1.025-0.936-1.53c-0.331-0.523-0.67-1.04-1.011-1.555c-0.386-0.583-0.777-1.161-1.178-1.733
	c-0.315-0.449-0.635-0.892-0.958-1.334c-0.44-0.601-0.887-1.196-1.343-1.784c-0.325-0.419-0.655-0.835-0.988-1.247
	c-0.228-0.283-0.445-0.575-0.677-0.855c-0.245-0.294-0.503-0.572-0.751-0.862c-0.341-0.398-0.684-0.794-1.032-1.184
	c-0.495-0.556-0.999-1.101-1.507-1.64c-0.351-0.372-0.701-0.743-1.059-1.108c-0.546-0.557-1.102-1.099-1.661-1.636
	c-0.333-0.319-0.663-0.641-1.001-0.954c-0.635-0.588-1.281-1.157-1.932-1.72c-0.207-0.179-0.404-0.369-0.613-0.546
	c0.169-1.526,0.346-3.056,0.536-4.592c0.007-0.057,0.014-0.113,0.021-0.17c0.204-1.648,0.419-3.301,0.647-4.96
	c0-0.001,0-0.002,0-0.002c1.167-8.496,2.639-17.113,4.404-25.758c0.01-0.051,0.011-0.103,0.021-0.154
	c5.406-26.47,12.587-48.547,17.995-63.131l28.119-2.58C282.229,86.921,266.562,135.194,260.594,174.939z M108.347,151.634
	c10.608-10.542,25.193-18.928,42.038-23.707c26.839-7.613,52.957-4.357,71.153,8.616c-1.003,5.298-1.927,10.753-2.757,16.335
	c-0.009,0.063-0.019,0.126-0.028,0.188c-0.254,1.712-0.499,3.434-0.734,5.169c-0.008,0.057-0.017,0.115-0.024,0.172
	c-1.497-0.633-3.02-1.196-4.556-1.724c-0.208-0.071-0.415-0.142-0.623-0.212c-0.678-0.226-1.357-0.445-2.041-0.65
	c-0.267-0.08-0.536-0.152-0.804-0.229c-0.996-0.285-1.997-0.549-3.006-0.79c-0.544-0.131-1.088-0.262-1.635-0.379
	c-0.435-0.093-0.872-0.176-1.309-0.261c-0.647-0.126-1.296-0.242-1.946-0.349c-0.357-0.058-0.714-0.119-1.073-0.172
	c-1.022-0.152-2.047-0.288-3.075-0.393c-0.818-0.084-1.643-0.135-2.471-0.17c-0.44-0.02-0.878-0.026-1.316-0.033
	c-0.147-0.001-0.293-0.011-0.44-0.011c-0.17,0-0.341,0.008-0.511,0.01c-2.007,0.013-4.003,0.162-5.986,0.452
	c-0.395-0.106-0.805-0.201-1.204-0.304c-0.677-0.175-1.357-0.348-2.044-0.517c-0.836-0.205-1.682-0.403-2.532-0.598
	c-0.696-0.159-1.393-0.318-2.098-0.47c-0.867-0.187-1.746-0.366-2.628-0.543c-0.711-0.143-1.421-0.286-2.141-0.422
	c-0.903-0.17-1.819-0.33-2.736-0.489c-0.719-0.125-1.435-0.253-2.163-0.371c-0.95-0.154-1.915-0.297-2.88-0.44
	c-0.716-0.106-1.426-0.217-2.149-0.316c-1.016-0.14-2.048-0.266-3.079-0.394c-0.693-0.086-1.378-0.178-2.077-0.258
	c-1.149-0.132-2.316-0.247-3.482-0.363c-0.598-0.06-1.188-0.127-1.791-0.183c-1.778-0.164-3.573-0.312-5.39-0.44
	c-1.514-0.107-3.025-0.175-4.533-0.223c-0.509-0.017-1.018-0.027-1.526-0.038c-0.987-0.019-1.973-0.024-2.957-0.018
	c-1.174,0.006-2.344,0.034-3.512,0.075c-0.639,0.023-1.28,0.039-1.918,0.073c-1.078,0.055-2.152,0.135-3.225,0.221
	c-0.18,0.015-0.361,0.029-0.541,0.045C123.043,148.161,115.618,149.514,108.347,151.634z M265.993,445.611V236.65
	c0-24.917,12.073-46.479,30.127-56.971c0.042-0.025,0.084-0.051,0.126-0.075c0.516-0.298,1.043-0.575,1.569-0.855
	c0.354-0.187,0.706-0.377,1.063-0.556c0.373-0.187,0.751-0.364,1.129-0.542c0.516-0.242,1.034-0.48,1.557-0.704
	c0.292-0.126,0.587-0.248,0.882-0.369c0.609-0.248,1.222-0.484,1.839-0.708c0.25-0.091,0.501-0.182,0.753-0.269
	c0.659-0.227,1.323-0.438,1.991-0.637c0.234-0.07,0.467-0.144,0.702-0.21c0.683-0.193,1.371-0.365,2.062-0.529
	c0.233-0.055,0.464-0.117,0.698-0.169c0.707-0.157,1.419-0.289,2.133-0.414c0.222-0.039,0.441-0.087,0.664-0.123
	c0.93-0.15,1.866-0.276,2.807-0.373c0.555-0.056,1.112-0.09,1.672-0.104c0.046-0.002,0.091-0.001,0.137-0.002
	c1.707-0.032,3.447,0.13,5.277,0.497c0.009,0.002,0.018,0.003,0.027,0.005c0.01,0.002,0.019,0.005,0.029,0.007
	c15.233,3.084,30.372,21.62,41.531,50.855c3.572,9.357,6.62,19.514,9.103,30.174c0.038,0.164,0.076,0.327,0.114,0.491
	c0.45,1.95,0.881,3.918,1.293,5.899c0.068,0.328,0.133,0.659,0.2,0.987c0.37,1.809,0.724,3.629,1.062,5.461
	c0.085,0.465,0.167,0.932,0.25,1.398c0.269,1.502,0.524,3.013,0.771,4.528c0.105,0.645,0.213,1.288,0.315,1.936
	c0.247,1.577,0.476,3.163,0.699,4.752c0.119,0.853,0.237,1.707,0.35,2.564c0.195,1.484,0.38,2.973,0.554,4.465
	c0.113,0.97,0.219,1.943,0.323,2.917c0.102,0.952,0.197,1.906,0.29,2.86c0.148,1.52,0.287,3.043,0.413,4.57
	c0.065,0.786,0.127,1.573,0.187,2.361c0.126,1.677,0.238,3.358,0.337,5.042c0.045,0.762,0.09,1.525,0.129,2.287
	c0.057,1.115,0.112,2.23,0.158,3.347c0.056,1.37,0.102,2.74,0.14,4.109c0.03,1.082,0.051,2.164,0.069,3.247
	c0.016,0.94,0.025,1.88,0.032,2.82c0.011,1.424,0.012,2.848,0.003,4.272c-0.007,1.072-0.02,2.144-0.039,3.214
	c-0.034,1.978-0.084,3.955-0.158,5.928c-1.383,33.687-11.843,123.706-83.184,134.64c-0.226,0.035-0.446,0.085-0.667,0.134
	c-4.508,0.655-9.176,0.995-14.013,0.995C274.01,469.803,265.993,458.724,265.993,445.611z M474.917,388.413
	c-16.501,30.542-51.119,66.124-123.628,77.074c10.52-9.12,19.608-20.73,27.082-34.754c6.242-11.712,11.116-24.687,14.757-38.43
	c0.014-0.053,0.028-0.107,0.042-0.16c1.044-3.951,1.986-7.965,2.827-12.032c0.086-0.415,0.172-0.829,0.257-1.246
	c0.373-1.852,0.729-3.713,1.061-5.585c0.089-0.498,0.171-1.002,0.257-1.503c0.263-1.535,0.513-3.076,0.749-4.624
	c0.08-0.525,0.165-1.046,0.242-1.574c0.265-1.81,0.508-3.63,0.737-5.454c0.083-0.66,0.164-1.321,0.242-1.985
	c0.219-1.851,0.425-3.707,0.608-5.57c0.049-0.505,0.092-1.014,0.139-1.52c0.156-1.682,0.298-3.368,0.424-5.058
	c0.036-0.484,0.077-0.965,0.111-1.451c0.14-1.99,0.255-3.985,0.356-5.983c0.028-0.548,0.054-1.098,0.078-1.648
	c0.09-2.009,0.164-4.02,0.215-6.033c0.004-0.175,0.014-0.346,0.018-0.521c0.008-0.35,0.005-0.703,0.013-1.054
	c0.036-1.792,0.059-3.584,0.064-5.377c0.002-0.49,0.007-0.978,0.006-1.468c-0.003-1.969-0.029-3.937-0.068-5.904
	c-0.011-0.574-0.021-1.147-0.036-1.721c-0.051-2.034-0.121-4.067-0.21-6.097c-0.021-0.491-0.046-0.982-0.069-1.473
	c-0.103-2.149-0.223-4.296-0.368-6.437c-0.014-0.21-0.031-0.419-0.046-0.628c-0.154-2.208-0.329-4.41-0.526-6.605
	c-0.015-0.172-0.029-0.344-0.044-0.516c-0.205-2.243-0.436-4.477-0.685-6.703c-0.036-0.32-0.071-0.639-0.108-0.958
	c-0.25-2.173-0.52-4.338-0.811-6.492c-0.047-0.346-0.096-0.69-0.143-1.035c-0.299-2.16-0.614-4.313-0.954-6.45
	c-0.042-0.265-0.088-0.528-0.131-0.793c-0.305-1.885-0.627-3.759-0.963-5.624c-0.086-0.476-0.168-0.954-0.256-1.428
	c-0.338-1.826-0.695-3.637-1.063-5.441c-0.15-0.739-0.302-1.476-0.457-2.211c-0.346-1.637-0.704-3.265-1.074-4.881
	c-0.206-0.899-0.418-1.791-0.632-2.683c-0.252-1.055-0.512-2.103-0.774-3.148c-0.36-1.436-0.73-2.86-1.11-4.277
	c-0.208-0.777-0.419-1.55-0.633-2.32c-0.451-1.624-0.915-3.231-1.392-4.826c-0.211-0.708-0.423-1.416-0.639-2.118
	c-0.32-1.04-0.643-2.076-0.974-3.103c-0.416-1.291-0.841-2.569-1.274-3.838c-0.307-0.9-0.62-1.792-0.935-2.68
	c-0.493-1.391-0.993-2.772-1.506-4.132c-0.082-0.216-0.157-0.442-0.24-0.658c-0.282-0.74-0.573-1.46-0.861-2.188
	c-0.116-0.294-0.231-0.59-0.347-0.883c-0.271-0.678-0.546-1.35-0.822-2.018c-0.287-0.698-0.576-1.391-0.869-2.08
	c-0.15-0.352-0.3-0.703-0.451-1.052c-3.933-9.117-8.329-17.387-13.136-24.543c-4.435-6.603-8.935-11.886-13.4-16.112
	c0.155-0.019,0.306-0.04,0.462-0.059c1.14-0.134,2.299-0.255,3.46-0.374c0.585-0.06,1.162-0.126,1.753-0.181
	c1.762-0.165,3.543-0.316,5.351-0.443c1.236-0.088,2.467-0.148,3.696-0.189c0.942-0.031,1.882-0.038,2.82-0.041
	c0.248-0.001,0.497-0.009,0.744-0.009c15.315,0.074,30.19,3.838,44.027,10.937c0.226,0.117,0.454,0.226,0.68,0.345
	c0.46,0.24,0.916,0.498,1.374,0.745c0.792,0.431,1.584,0.862,2.371,1.316c0.123,0.07,0.245,0.145,0.368,0.216
	c1.083,0.631,2.162,1.28,3.235,1.955c0.014,0.009,0.028,0.014,0.042,0.023c15.312,9.604,29.118,23.473,40.509,41.125
	C496.824,273.919,501.027,340.088,474.917,388.413z"/>
<path d="M448.768,249.921c-5.084,2.157-7.457,8.027-5.301,13.111c7.456,17.577,11.551,37.14,11.53,55.084
	c-0.005,4.317-0.229,8.633-0.664,12.827c-3.429,33.048-18.745,58.489-45.521,75.616c-4.653,2.976-6.012,9.16-3.036,13.813
	c1.909,2.984,5.136,4.613,8.434,4.613c1.844,0,3.71-0.51,5.379-1.577c32.165-20.574,50.548-50.989,54.638-90.4
	c0.505-4.868,0.764-9.87,0.77-14.866c0.024-20.576-4.635-42.921-13.118-62.919C459.723,250.137,453.853,247.764,448.768,249.921z"/>
<path d="M431.843,241.388c1.93,2.872,5.09,4.422,8.309,4.422c1.918,0,3.857-0.551,5.569-1.702c4.583-3.081,5.802-9.294,2.721-13.878
	l-0.06-0.089c-3.08-4.583-9.293-5.803-13.878-2.721c-4.584,3.081-5.802,9.294-2.721,13.878L431.843,241.388z"/>
<g>
</g>
<g>
</g>
<g>
</g>
<g>
</g>
<g>
</g>
<g>
</g>
<g>
</g>
<g>
</g>
<g>
</g>
<g>
</g>
<g>
</g>
<g>
</g>
<g>
</g>
<g>
</g>
<g>
</g>
</svg>
