<?xml version="1.0" encoding="iso-8859-1"?>
<!-- Generator: Adobe Illustrator 21.0.0, SVG Export Plug-In . SVG Version: 6.00 Build 0)  -->
<svg version="1.1" id="Capa_1" xmlns="http://www.w3.org/2000/svg" xmlns:xlink="http://www.w3.org/1999/xlink" x="0px" y="0px"
	 viewBox="0 0 511.998 511.998" style="enable-background:new 0 0 511.998 511.998;" xml:space="preserve">
<g>
	<path style="fill:#00C56E;" d="M176.047,55.197c17.078,10.052,40.536,14.273,63.604,9.89c23.067-4.385,40.408-16.36,48.112-31.121
		c-17.078-10.052-40.537-14.274-63.604-9.89C201.092,28.459,183.752,40.434,176.047,55.197z"/>
	<path style="fill:#AA836D;" d="M176.047,55.197c-2.923-15.006-6.745-28.259-9.566-35.338
		c-6.535-16.398-35.737-13.118-25.683,16.107c3.072,8.927,7.223,34.538,8.036,55.78c4.896-1.126,10.258-1.724,16.154-1.724
		c5.592,0,10.691,0.525,15.356,1.517C180.071,79.763,178.335,66.942,176.047,55.197z"/>
	<path style="fill:#87DD60;" d="M164.989,90.022c-5.896,0-11.259,0.598-16.154,1.724c-58.638,13.478-50.433,102.591-93.451,145.609
		c-60.534,60.534-60.534,158.679,0,219.212c57.658,57.658,149.438,60.396,210.338,8.215c-18.244-17.021-32.093-39.198-39.027-65.075
		c-15.848-59.146,9.258-119.616,57.935-151.305c-3.139-3.802-6.478-7.492-10.035-11.048c-45.515-45.517-35.08-133.238-94.25-145.816
		C175.678,90.547,170.581,90.022,164.989,90.022z"/>
	<path style="fill:#C8FA8B;" d="M324.223,230.785c-14.433,3.868-27.715,9.886-39.593,17.618
		c-48.677,31.687-73.784,92.159-57.935,151.305c6.933,25.877,20.783,48.054,39.027,65.075
		c33.631,31.377,82.195,45.235,129.897,32.453c73.578-19.715,117.243-95.344,97.527-168.923
		c-15.992-59.686,40.051-128.253-18.913-162.298C415.267,131.971,380.875,215.603,324.223,230.785L324.223,230.785z
		 M344.448,299.599l62.296-16.692l16.693,62.296c9.218,34.405-11.2,69.77-45.604,78.988c-34.405,9.219-69.77-11.199-78.988-45.604
		C289.626,344.182,310.043,308.818,344.448,299.599z"/>
	<path style="fill:#FF8244;" d="M344.448,299.599c-34.406,9.219-54.823,44.583-45.604,78.989
		c9.219,34.405,44.583,54.823,78.988,45.604c34.405-9.219,54.823-44.583,45.604-78.988l-16.693-62.296L344.448,299.599z"/>
</g>
<path d="M91.819,165.956c1.103,0.39,2.227,0.575,3.333,0.575c4.119,0,7.977-2.565,9.428-6.669l0.117-0.331
	c1.833-5.209-0.904-10.918-6.113-12.751c-5.214-1.833-10.918,0.904-12.752,6.113l-0.107,0.303
	C83.885,158.403,86.613,164.116,91.819,165.956z"/>
<path d="M498.2,366.62c-5.488-0.497-10.358,3.567-10.851,9.067l-0.041,0.433c-0.524,5.496,3.506,10.379,9.003,10.904
	c0.324,0.031,0.645,0.046,0.963,0.046c5.093,0,9.447-3.875,9.942-9.049l0.051-0.55C507.761,371.971,503.7,367.112,498.2,366.62z"/>
<path d="M167.44,446.068c-5.488-0.497-10.358,3.567-10.851,9.067l-0.041,0.433c-0.524,5.496,3.506,10.379,9.003,10.904
	c0.324,0.031,0.645,0.046,0.963,0.046c5.093,0,9.447-3.875,9.942-9.049l0.051-0.55C177.001,451.419,172.941,446.56,167.44,446.068z"
	/>
<path d="M494.308,396.722c-5.256-1.696-10.891,1.191-12.587,6.446c-13.409,41.566-46.565,73.121-88.692,84.408
	c-33.009,8.844-67.481,4.305-97.073-12.78c-8.345-4.817-16.019-10.472-22.936-16.845c-0.3-0.321-0.615-0.619-0.945-0.892
	c-9.249-8.699-17.108-18.702-23.363-29.732c-0.097-0.178-0.194-0.356-0.302-0.529c-5.18-9.237-9.244-19.183-12.057-29.68
	c-8.844-33.006-4.306-67.48,12.78-97.072c10.107-17.506,23.89-32.061,40.295-42.863c0.391-0.214,0.768-0.46,1.135-0.731
	c11.03-7.096,23.213-12.517,36.247-16.009c24.152-6.471,43.625-23.365,62.458-39.703c30.995-26.891,51.44-42.534,79.966-26.066
	c28.191,16.276,25.131,39.714,17.295,79.737c-4.657,23.79-9.937,50.753-3.041,76.488c1.01,3.773,1.857,7.612,2.515,11.414
	c0.942,5.44,6.118,9.083,11.559,8.145c5.44-0.943,9.088-6.118,8.146-11.559c-0.761-4.391-1.737-8.823-2.903-13.174
	c-5.696-21.264-1.099-44.754,3.35-67.471c3.743-19.115,7.277-37.17,5.128-54.22c-2.576-20.446-13.06-35.714-32.049-46.678
	c-19.164-11.065-37.993-12.387-57.561-4.038c-16.247,6.931-31.122,19.836-45.508,32.316c-17.121,14.853-34.826,30.213-54.528,35.492
	c-12.404,3.324-24.14,8.161-35.019,14.34c-1.624-1.772-3.274-3.507-4.95-5.182c-17.696-17.697-26.467-43.282-34.949-68.024
	c-7.065-20.611-13.739-40.077-25.291-55.307c-8.563-11.289-18.957-18.96-31.432-23.142c-0.268-3.984-0.669-8.028-1.172-12.07
	c10.273,3.314,21.415,5.037,32.643,5.037c6.711,0,13.452-0.614,20.055-1.869c25.133-4.776,45.735-18.354,55.109-36.319
	c2.464-4.72,0.796-10.542-3.793-13.242c-19.704-11.599-46.077-15.745-70.543-11.097c-16.158,3.071-30.438,9.785-41.07,18.959
	c-1.889-6.998-3.803-12.915-5.451-17.053C170.693,3.41,156.331-3.164,143.751,1.501c-11.203,4.157-19.385,17.432-12.405,37.72
	c2.214,6.436,5.715,26.039,7.074,45.233c-22.671,8.337-34.404,26.864-41.679,41.72c-2.429,4.959-0.376,10.949,4.583,13.377
	c4.962,2.43,10.949,0.376,13.377-4.583c9.389-19.176,20.226-29.574,35.535-33.314c0.509-0.071,0.999-0.192,1.48-0.336
	c4.094-0.871,8.497-1.295,13.275-1.295c37.354,0,48.203,26.115,62.81,68.724c8.791,25.643,18.755,54.709,39.725,75.679
	c0.736,0.736,1.467,1.488,2.193,2.247c-15.17,11.662-28.048,26.306-37.904,43.376c-19.757,34.218-25.004,74.082-14.777,112.247
	c2.659,9.924,6.29,19.42,10.797,28.393c-8.304,7.703-22.341,13.978-33.184,14.318c-5.52,0.173-9.853,4.788-9.681,10.308
	c0.17,5.413,4.61,9.685,9.988,9.685c0.105,0,0.213-0.001,0.319-0.005c14.342-0.45,31.019-7.289,42.882-16.854
	c3.823,5.54,8.029,10.804,12.584,15.769c-56.899,41.755-137.623,36.252-188.289-14.413C5.916,392.958,5.917,300.964,62.455,244.425
	c15.311-15.311,24.277-35.548,30.379-51.468c1.977-5.156-0.603-10.939-5.759-12.916c-5.154-1.977-10.938,0.603-12.915,5.758
	c-5.392,14.069-13.203,31.84-25.846,44.484c-64.336,64.336-64.336,169.018-0.001,233.354c29.582,29.581,68.884,46.706,110.667,48.22
	c2.024,0.074,4.041,0.11,6.058,0.11c36.476,0,71.631-11.96,100.406-34.094c6.367,5.26,13.217,10.031,20.515,14.243
	c22.794,13.161,48.088,19.882,73.721,19.882c12.848,0,25.784-1.69,38.526-5.104c48.711-13.052,87.048-49.532,102.55-97.585
	C502.449,404.053,499.564,398.418,494.308,396.722z M226.026,33.898c15.897-3.022,32.658-1.538,46.74,3.911
	c-7.983,8.398-20.379,14.68-34.981,17.456c-15.899,3.022-32.658,1.537-46.739-3.91C199.029,42.955,211.424,36.673,226.026,33.898z
	 M158.155,80.289c-1.567-19.416-5.078-39.367-7.902-47.575c-2.209-6.421-2.023-11.548,0.451-12.466
	c1.839-0.685,5.208,0.104,6.488,3.313c2.433,6.104,6.144,18.75,9.012,33.373c0.015,0.082,0.031,0.163,0.047,0.245
	c1.436,7.354,2.652,15.197,3.386,22.96c-1.527-0.075-3.075-0.116-4.648-0.116C162.632,80.023,160.36,80.12,158.155,80.289z"/>
<path d="M416.403,280.318c-0.686-2.562-2.362-4.745-4.658-6.071c-2.297-1.327-5.029-1.685-7.587-0.999l-62.297,16.692
	c-19.221,5.149-35.284,17.476-45.233,34.708c-9.948,17.232-12.592,37.307-7.441,56.527c8.908,33.243,39.084,55.222,71.972,55.221
	c6.363,0,12.831-0.823,19.263-2.547c19.221-5.149,35.284-17.476,45.233-34.708c9.948-17.232,12.592-37.307,7.44-56.527l0,0
	L416.403,280.318z M408.334,389.142c-7.277,12.606-19.029,21.624-33.089,25.39c-4.707,1.261-9.435,1.863-14.092,1.863
	c-24.058-0.001-46.135-16.079-52.651-40.396c-3.768-14.06-1.834-28.746,5.444-41.352c7.277-12.606,19.029-21.623,33.089-25.39
	l52.639-14.104l14.103,52.638v0.001C417.546,361.851,415.613,376.536,408.334,389.142z"/>
<g>
</g>
<g>
</g>
<g>
</g>
<g>
</g>
<g>
</g>
<g>
</g>
<g>
</g>
<g>
</g>
<g>
</g>
<g>
</g>
<g>
</g>
<g>
</g>
<g>
</g>
<g>
</g>
<g>
</g>
</svg>
