<svg height="483pt" viewBox="-2 0 483 483.57648" width="483pt" xmlns="http://www.w3.org/2000/svg"><g fill="#389a6b"><path d="m273.25 251.496094-2.242188-15.839844 39.199219-5.550781c52.847657-6.097657 99.035157-38.492188 122.761719-86.105469l14.320312 7.152344c-26.101562 52.402344-76.90625 88.074218-135.058593 94.824218zm0 0"/><path d="m72.128906 83.574219c-.378906.003906-.761718-.023438-1.136718-.078125l-15.617188-2.230469c-27.53125-3.960937-49.59375-24.820313-55.085938-52.089844l15.679688-3.199219c4.140625 20.640626 20.832031 36.441407 41.671875 39.4375l10.398437 1.488282 8.984376-14.964844c6.816406-11.285156 8.832031-24.824219 5.601562-37.601562l-2.207031-8.800782 15.519531-3.871094 2.207031 8.800782c4.273438 16.890625 1.613281 34.789062-7.390625 49.703125l-11.722656 19.527343c-1.453125 2.421876-4.078125 3.898438-6.902344 3.878907zm0 0"/><path d="m72.128906 83.574219c-2.121094 0-4.15625-.84375-5.65625-2.34375l-20.703125-20.710938c-8.421875-8.40625-14.394531-18.949219-17.28125-30.496093l-4.121093-16.511719 15.519531-3.871094 4.128906 16.503906c2.1875 8.714844 6.699219 16.675781 13.054687 23.03125l7.058594 7.089844v-7.089844c-.011718-7.703125-1.804687-15.304687-5.242187-22.199219l-9.917969-19.824218 14.359375-7.152344 9.914063 19.824219c4.523437 9.121093 6.882812 19.167969 6.886718 29.351562v26.398438c0 3.238281-1.949218 6.15625-4.9375 7.394531-.96875.402344-2.011718.609375-3.0625.605469zm0 0"/><path d="m216.128906 483.574219c-3.152344.003906-6.007812-1.84375-7.300781-4.71875-1.289063-2.871094-.777344-6.234375 1.316406-8.589844.609375-.691406 60.625-70.722656 54.183594-222.195313l-20-12.871093c-56.191406-36.128907-94.914063-93.914063-106.96875-159.625h-25.230469c-1.242187.003906-2.464844-.285157-3.578125-.839844l-16-8 7.152344-14.320313 14.3125 7.160157h30.113281c3.945313.003906 7.304688 2.882812 7.902344 6.785156 9.832031 63.851563 46.566406 120.425781 100.898438 155.382813l23.496093 15.105468c2.183594 1.386719 3.5625 3.742188 3.703125 6.328125 5.703125 114.199219-24.34375 184.265625-43.367187 216.566407 35.078125-14.097657 66.953125-35.125 93.71875-61.820313l11.3125 11.308594c-32.480469 32.398437-72.019531 56.835937-115.519531 71.402343l-7.609376 2.535157c-.816406.269531-1.675781.40625-2.535156.40625zm0 0"/><path d="m144.128906 75.574219c-2.464844 0-4.789062-1.132813-6.304687-3.074219s-2.050781-4.472656-1.457031-6.859375l6.449218-25.816406c.875-3.480469 1.3125-7.058594 1.3125-10.648438v-17.601562h16v17.601562c0 4.890625-.601562 9.761719-1.785156 14.503907l-1.246094 4.976562c7.128906-8.003906 11.058594-18.359375 11.03125-29.082031h16c.074219 22.664062-12.738281 43.398437-33.039062 53.472656l-3.386719 1.6875c-1.109375.550781-2.335937.839844-3.574219.839844zm0 0"/><path d="m139.328125 73.976562-11.289063-8.472656c-15.023437-11.3125-23.875-29.011718-23.910156-47.816406v-6.113281h16v6.113281c.03125 13.769531 6.507813 26.730469 17.503906 35.023438l11.296876 8.464843zm0 0"/><path d="m272.128906 251.574219c-.539062.007812-1.074218-.046875-1.601562-.160157l-21.597656-4.316406c-88.082032-17.457031-159.132813-82.46875-184.320313-168.65625l15.199219-5.128906c23.25 80.175781 88.960937 140.902344 170.71875 157.765625-30.347656-36.523437-47.945313-81.953125-50.128906-129.390625-17.28125 3.082031-34.214844-6.945312-39.820313-23.582031l15.199219-5.058594c3.238281 9.535156 13.222656 15.019531 23.007812 12.640625l7.457032-1.871094c2.378906-.578125 4.894531-.035156 6.824218 1.480469 1.929688 1.511719 3.058594 3.828125 3.0625 6.277344-.015625 49.578125 18.179688 97.4375 51.128906 134.480469l10.855469 12.210937c2.089844 2.355469 2.605469 5.71875 1.3125 8.589844-1.289062 2.875-4.148437 4.722656-7.296875 4.71875zm0 0"/><path d="m208.128906 99.574219c-2.679687.003906-5.179687-1.335938-6.664062-3.566407l-1.015625-1.542968c-10.65625-15.953125-16.335938-34.707032-16.320313-53.890625v-13h16v13c-.007812 14.460937 3.859375 28.65625 11.199219 41.113281l16.679687-6.671875c7.347657-2.914063 12.15625-10.03125 12.121094-17.9375v-5.503906h16v5.503906c.050782 14.460937-8.757812 27.472656-22.199218 32.800781l-22.824219 9.136719c-.949219.371094-1.957031.5625-2.976563.558594zm0 0"/><path d="m215.328125 95.152344-14.320313-7.152344 1.257813-2.503906c8.660156-17.335938 10.839844-37.199219 6.144531-56l15.519532-3.871094c5.621093 22.5 3.015624 46.269531-7.351563 67.015625zm0 0"/><path d="m320.128906 75.574219c-1.242187.003906-2.464844-.285157-3.578125-.839844l-17.09375-8.550781c-21.761719-10.789063-37.265625-31.085938-41.953125-54.917969l-1.214844-6.089844 15.679688-3.199219 1.222656 6.113282c3.738282 18.984375 16.089844 35.152344 33.425782 43.75l13.160156 6.585937 1.933594-1.160156c18.816406-11.363281 30.34375-31.710937 30.417968-53.691406h16c-.078125 27.609375-14.550781 53.171875-38.183594 67.441406l-5.695312 3.417969c-1.246094.746094-2.671875 1.140625-4.121094 1.140625zm0 0"/><path d="m320.128906 67.574219c-2.519531 0-4.890625-1.183594-6.402344-3.199219l-17.117187-22.832031c-5.066406-6.761719-9.011719-14.292969-11.679687-22.3125l-4.378907-13.125 15.203125-5.058594 4.375 13.121094c2.117188 6.386719 5.25 12.394531 9.28125 17.785156l9.351563 12.460937 2.75-5.503906c4.339843-8.699218 6.605469-18.289062 6.617187-28.015625v-7.320312h16v7.320312c-.011718 12.21875-2.855468 24.265625-8.304687 35.203125l-8.496094 17.054688c-1.234375 2.46875-3.652344 4.128906-6.398437 4.390625-.320313.03125-.5625.03125-.800782.03125zm0 0"/><path d="m272.128906 251.574219c-2.648437.003906-5.128906-1.308594-6.617187-3.5-1.492188-2.191407-1.796875-4.976563-.824219-7.441407l30.511719-77.015624c11.070312-22.089844 16.867187-46.445313 16.929687-71.152344v-24.890625h16v24.890625c-.03125 26.957031-6.308594 53.542968-18.335937 77.671875l-18.96875 47.933593 34.144531-27.765624c28.578125-20.402344 49.597656-49.691407 59.777344-83.296876l4.628906-15.433593h-10.847656c-13.902344.039062-27.242188-5.484375-37.046875-15.34375l-3.007813-3 11.328125-11.308594 2.992188 3c6.8125 6.839844 16.078125 10.679687 25.734375 10.652344h21.601562c2.527344 0 4.90625 1.195312 6.417969 3.226562 1.507813 2.027344 1.972656 4.648438 1.246094 7.070313l-7.722657 25.703125c-11.125 36.855469-34.121093 68.996093-65.40625 91.425781l-57.488281 46.761719c-1.421875 1.167969-3.207031 1.808593-5.046875 1.8125zm0 0"/><path d="m400.128906 91.574219c-2.675781.003906-5.171875-1.332031-6.65625-3.558594l-11.128906-16.695313c-3.8125-5.6875-6.46875-12.070312-7.816406-18.785156l-6.238282-31.359375 15.679688-3.199219 6.28125 31.390626c.929688 4.660156 2.765625 9.089843 5.40625 13.039062l7.734375 11.617188 11.851563-3.953126c14.859374-4.933593 24.886718-18.835937 24.886718-34.496093h16c.019532 22.5625-14.421875 42.597656-35.832031 49.714843l-17.601563 5.871094c-.828124.277344-1.695312.417969-2.566406.414063zm0 0"/><path d="m406.984375 87.695312-13.710937-8.238281 17.671874-29.480469c3.386719-5.648437 5.175782-12.109374 5.183594-18.695312v-19.707031h16v19.707031c0 9.496094-2.585937 18.816406-7.472656 26.957031zm0 0"/><path d="m440.128906 155.574219c-2.125.003906-4.164062-.839844-5.664062-2.34375l-7.039063-7.046875c-12.402343-12.332032-19.351562-29.117188-19.296875-46.609375v-8h16v8c-.039062 13.242187 5.222656 25.941406 14.617188 35.273437l2.726562 2.738282c14.167969-9.167969 22.703125-24.910157 22.65625-41.785157v-4.226562h16v4.226562c.097656 24.996094-14.03125 47.871094-36.425781 58.976563-1.113281.539062-2.335937.8125-3.574219.796875zm0 0"/><path d="m440.128906 155.574219c-.539062.003906-1.074218-.046875-1.601562-.160157l-40-8 3.136718-15.679687 33.082032 6.617187 2.820312-8.375c1.703125-5.09375 2.566406-10.425781 2.5625-15.792968v-22.609375h16v22.609375c-.003906 7.070312-1.144531 14.09375-3.375 20.800781l-5.035156 15.085937c-1.074219 3.28125-4.136719 5.5-7.589844 5.503907zm0 0"/><path d="m208.128906 483.574219c-1.238281.015625-2.460937-.257813-3.578125-.796875l-34.480469-17.25c-20.679687-10.390625-37.464843-27.171875-47.863281-47.855469l-9.238281-18.480469 14.320312-7.152344 9.230469 18.472657c8.84375 17.589843 23.113281 31.863281 40.703125 40.703125l24.371094 12.191406 1.636719-13.09375c2.984375-23.421875-3.296875-47.078125-17.503907-65.9375l12.800782-9.597656c16.6875 22.160156 24.070312 49.957031 20.578125 77.480468l-3.042969 24.308594c-.5 4.003906-3.902344 7.007813-7.933594 7.007813zm0 0"/></g></svg>