<?xml version="1.0" encoding="iso-8859-1"?>
<!-- Generator: Adobe Illustrator 21.0.0, SVG Export Plug-In . SVG Version: 6.00 Build 0)  -->
<svg version="1.1" id="Capa_1" xmlns="http://www.w3.org/2000/svg" xmlns:xlink="http://www.w3.org/1999/xlink" x="0px" y="0px"
	 viewBox="0 0 511.999 511.999" style="enable-background:new 0 0 511.999 511.999;" xml:space="preserve">
<g>
	<path style="fill:#C8FA8B;" d="M221.937,308.313l-29.027-7.778c-10.981,40.985-5.233,84.654,15.984,121.4
		c5.083,8.803,10.876,16.941,17.264,24.383c49.145,57.238,133.562,73.272,201.278,34.176c36.746-21.215,63.558-56.159,74.541-97.143
		l-29.026-7.777c-8.615,32.15-29.47,61.02-60.513,78.943c-62.085,35.846-141.722,14.507-177.566-47.579
		C216.949,375.893,213.323,340.463,221.937,308.313z"/>
	<path style="fill:#FD4848;" d="M381.074,467.449c32.15-8.614,61.02-29.47,78.943-60.513c5.816-10.074,10.127-20.61,13.003-31.346
		l-10.807-2.896c-80.091-21.46-160.183-42.921-240.274-64.381c-8.615,32.15-4.988,67.58,12.935,98.623
		c5.816,10.074,12.786,19.075,20.645,26.933l0.049-0.049c23.536,23.536,56.032,38.109,91.877,38.109
		c11.633,0,22.913-1.535,33.648-4.413L381.074,467.449z"/>
	<path style="fill:#87DD60;" d="M202.493,409.651C132.156,403.823,76.32,316.655,76.32,209.979
		c0-110.447,59.852-199.981,133.682-199.981c-110.447,0-199.981,89.535-199.981,199.981c0,107.96,85.548,195.939,192.553,199.846
		C202.548,409.767,202.52,409.709,202.493,409.651z"/>
	<path style="fill:#00C56E;" d="M210.004,9.998c-73.831,0-133.683,89.535-133.683,199.981c0,106.676,55.835,193.844,126.172,199.671
		c-0.123-0.262-0.245-0.526-0.366-0.789c-37.547-10.537-66.812-95.559-66.812-198.882C135.315,99.533,168.755,9.998,210.004,9.998z"
		/>
	<path style="fill:#87DD60;" d="M210.004,9.998c-41.249,0-74.688,89.535-74.688,199.981c0,103.323,29.265,188.345,66.812,198.882
		c-15.56-33.784-18.922-72.103-9.217-108.327l29.027,7.778l50.018,13.403c8.041-31.902,12.737-70.351,12.737-111.736
		C284.692,99.533,251.253,9.998,210.004,9.998z"/>
	<path style="fill:#00C56E;" d="M210.004,9.998c41.249,0,74.688,89.535,74.688,199.981c0,41.385-4.695,79.834-12.737,111.736
		l43.287,11.599c17.819-33.978,28.444-76.8,28.444-123.334C343.686,99.533,283.835,9.998,210.004,9.998z"/>
	<path style="fill:#87DD60;" d="M210.004,9.998c73.831,0,133.682,89.535,133.682,199.981c0,46.535-10.625,89.358-28.444,123.334
		l32.201,8.628l10.342,2.771c32.425-35.545,52.198-82.83,52.198-134.734C409.985,99.533,320.451,9.998,210.004,9.998z"/>
</g>
<path d="M449.966,451.418l-0.147,0.137c-4.049,3.755-4.287,10.082-0.531,14.131c1.97,2.125,4.648,3.2,7.333,3.2
	c2.433,0,4.873-0.883,6.797-2.669l0.257-0.24c4.021-3.786,4.211-10.114,0.425-14.135
	C460.316,447.823,453.987,447.631,449.966,451.418z"/>
<path d="M510.637,378.351c-1.326-2.297-3.51-3.973-6.071-4.659l-29.026-7.777l-99.976-26.789
	c28.744-36.81,44.421-82.082,44.421-129.146C419.984,94.196,325.787,0,210.004,0c-27.715,0-54.751,5.377-80.356,15.984
	C104.043,26.59,81.123,41.904,61.525,61.501c-3.905,3.905-3.905,10.236,0,14.142c3.905,3.905,10.236,3.905,14.142,0
	c14.851-14.851,31.732-26.931,50.011-36.002c-6.549,6.944-12.745,14.743-18.515,23.374c-26.337,39.397-40.841,91.59-40.841,146.964
	c0,53.173,13.525,103.858,38.082,142.72c6.575,10.406,13.784,19.702,21.502,27.833C62.861,349.596,20.021,284.924,20.021,209.979
	c0-28.214,6.439-56.58,18.622-82.029c2.384-4.982,0.279-10.952-4.702-13.337c-4.98-2.382-10.952-0.28-13.337,4.702
	C7.14,147.444,0.023,178.795,0.023,209.979c0,54.62,20.871,106.362,58.769,145.694c36.5,37.881,85.09,60.399,137.385,63.823
	c1.287,2.503,2.639,4.983,4.057,7.437c22.702,39.321,59.357,67.449,103.215,79.2c14.645,3.924,29.505,5.865,44.271,5.865
	c29.454,0,58.525-7.725,84.716-22.847c4.783-2.761,6.421-8.876,3.66-13.659c-2.761-4.784-8.876-6.421-13.659-3.66
	c-34.695,20.031-75.114,25.354-113.812,14.984c-38.697-10.369-71.04-35.187-91.072-69.881c-2.126-3.683-4.08-7.432-5.872-11.235
	c-0.03-0.071-0.064-0.139-0.096-0.209c-0.033-0.068-0.066-0.135-0.1-0.202c-0.037-0.08-0.077-0.159-0.114-0.238
	c-0.095-0.231-0.201-0.457-0.313-0.681c-13.19-28.68-16.946-60.44-10.762-91.505l9.736,2.609
	c-6.438,33.117-0.819,67.018,16.18,96.461c25.9,44.86,73.048,69.966,121.468,69.966c23.732,0,47.771-6.032,69.758-18.727
	c29.443-16.998,51.26-43.548,62.243-75.447l9.732,2.608c-5.137,15.102-12.609,29.194-22.286,42.005
	c-3.329,4.407-2.455,10.677,1.952,14.006c1.804,1.363,3.921,2.021,6.019,2.021c3.029,0,6.02-1.371,7.986-3.973
	c13.253-17.546,22.859-37.214,28.551-58.456C512.323,383.377,511.963,380.647,510.637,378.351z M399.986,209.979
	c0,45.451-16.159,89.053-45.607,123.469l-24.841-6.656c15.625-34.348,24.147-75.32,24.147-116.814
	c0-55.374-14.505-107.567-40.841-146.965c-5.702-8.53-11.822-16.245-18.287-23.129C356.995,71.05,399.986,135.583,399.986,209.979z
	 M86.319,209.979c0-51.46,13.307-99.707,37.468-135.851c11.269-16.857,24.24-30.044,38.27-39.188
	c-5.17,8.576-9.944,18.642-14.236,30.133c-14.515,38.862-22.508,90.325-22.508,144.906c0,50.523,6.989,99.152,19.682,136.929
	c4.978,14.817,10.649,27.511,16.908,37.976c-15.075-9.852-28.883-24.331-40.597-42.868C98.745,306.31,86.319,259.419,86.319,209.979
	z M195.498,290.877c-2.564-0.687-5.292-0.327-7.587,0.999c-2.297,1.326-3.973,3.51-4.659,6.071
	c-7.112,26.543-7.698,53.8-2.03,79.901c-19.763-30.612-35.909-90.935-35.909-167.869c0-111.96,34.093-189.982,64.69-189.982
	c21.773,0,49.51,42.53,60.395,123.815c0.733,5.473,5.765,9.313,11.238,8.584c5.473-0.733,9.316-5.764,8.583-11.238
	c-5.377-40.155-15.197-74.528-28.397-99.405c-1.272-2.397-2.552-4.649-3.838-6.789c14.017,9.143,26.974,22.322,38.233,39.164
	c24.162,36.145,37.469,84.391,37.469,135.851c0,39.933-8.401,79.203-23.758,111.56l-26.029-6.974
	c7.063-31.681,10.79-67.596,10.79-104.585c0-5.522-4.477-9.999-9.999-9.999s-9.999,4.477-9.999,9.999
	c0,35.229-3.496,69.347-10.125,99.405l-40.043-10.729L195.498,290.877z M407.438,445.855
	c-57.298,33.081-130.826,13.379-163.908-43.919c-14.327-24.815-19.224-53.331-14.131-81.272l230.912,61.873
	c0.014,0.004-0.014-0.004,0,0l0,0C450.752,409.282,432.253,431.529,407.438,445.855z"/>
<path d="M43.331,99.033c1.788,1.321,3.87,1.958,5.934,1.958c3.065,0,6.089-1.404,8.05-4.058l0.316-0.426
	c3.282-4.442,2.341-10.703-2.101-13.984c-4.441-3.282-10.703-2.341-13.984,2.101l-0.316,0.426
	C37.95,89.491,38.89,95.752,43.331,99.033z"/>
<path d="M273.931,181.768c0.275,5.34,4.691,9.485,9.978,9.485c0.173,0,0.348-0.005,0.522-0.014c5.515-0.284,9.756-4.985,9.472-10.5
	l-0.021-0.385c-0.308-5.513-5.023-9.733-10.541-9.426c-5.513,0.308-9.734,5.027-9.426,10.541L273.931,181.768z"/>
<path d="M278.226,366.55l-0.26,0.07c-5.332,1.434-8.494,6.918-7.06,12.252c1.2,4.464,5.239,7.406,9.65,7.406
	c0.859,0,1.733-0.112,2.602-0.345l0.26-0.07c5.333-1.434,8.494-6.918,7.06-12.252C289.044,368.277,283.558,365.118,278.226,366.55z"
	/>
<path d="M325.222,401.046l-0.26,0.07c-5.333,1.434-8.494,6.918-7.06,12.252c1.2,4.464,5.238,7.406,9.65,7.406
	c0.859,0,1.733-0.112,2.602-0.345l0.26-0.07c5.333-1.434,8.494-6.918,7.06-12.252C336.04,402.775,330.554,399.616,325.222,401.046z"
	/>
<path d="M378.896,406.369c1.2,4.464,5.239,7.406,9.65,7.406c0.859,0,1.733-0.112,2.602-0.345l0.26-0.07
	c5.332-1.434,8.494-6.918,7.06-12.252c-1.434-5.334-6.92-8.491-12.252-7.061l-0.26,0.07
	C380.624,395.55,377.462,401.035,378.896,406.369z"/>
<g>
</g>
<g>
</g>
<g>
</g>
<g>
</g>
<g>
</g>
<g>
</g>
<g>
</g>
<g>
</g>
<g>
</g>
<g>
</g>
<g>
</g>
<g>
</g>
<g>
</g>
<g>
</g>
<g>
</g>
</svg>
