<?xml version="1.0" encoding="iso-8859-1"?>
<!-- Generator: Adobe Illustrator 21.0.0, SVG Export Plug-In . SVG Version: 6.00 Build 0)  -->
<svg version="1.1" id="Capa_1" xmlns="http://www.w3.org/2000/svg" xmlns:xlink="http://www.w3.org/1999/xlink" x="0px" y="0px"
	 viewBox="0 0 512.001 512.001" style="enable-background:new 0 0 512.001 512.001;" xml:space="preserve">
<g>
	<path style="fill:#F3F3C2;" d="M140.747,498.531c19.596,10.759,50.856-5.076,60.284-25.344l77.7-167.028l-51.214-28.12
		L111.217,423.874c-13.937,17.476-8.624,53.709,10.972,64.468L140.747,498.531z"/>
	<g>
		<path style="fill:#87DD60;" d="M278.731,306.158l97.653-91.931c42.948-40.432,36.019-66.316,19.218-75.54l-53.545,44.195
			l-114.541,95.157l0,0L278.731,306.158z"/>
		<path style="fill:#87DD60;" d="M227.516,278.039l114.541-95.157l21.18-35.144c39.844-66.109,28.242-105.644,11.442-114.869
			l-68.093,112.982L227.516,278.039z"/>
	</g>
	<path style="fill:#00C56E;" d="M227.516,278.039l79.07-132.188l30.911-133.396c-16.801-9.225-50.446,5.534-68.326,83.637
		L227.516,278.039z"/>
</g>
<path d="M418.337,155.968c-1.43-11.236-7.795-20.486-17.923-26.047c-3.597-1.976-8.035-1.552-11.195,1.067l-9.487,7.866
	c1.794-3.405,3.479-6.778,5.033-10.097c2.343-5.001,0.187-10.955-4.814-13.297c-5.001-2.342-10.955-0.186-13.297,4.815
	c-3.376,7.207-7.406,14.71-11.981,22.3l-20.54,34.082l-68.089,56.449l49.106-82.096l61.261-101.644
	c1.318,2.728,2.5,6.337,3.195,11.09c0.317,2.167,0.51,4.471,0.572,6.847c0.142,5.432,4.589,9.739,9.991,9.739
	c0.088,0,0.178-0.001,0.266-0.003c5.521-0.145,9.88-4.737,9.735-10.258c-0.082-3.168-0.344-6.271-0.775-9.221
	c-2.278-15.569-9.533-27.763-19.903-33.457c-4.701-2.583-10.606-0.993-13.377,3.604l-35.619,59.1l16.743-72.091
	c1.014-4.365-1-8.871-4.929-11.028c-8.819-4.844-19.445-4.92-29.918-0.22c-13.434,6.028-38.18,25.788-52.969,90.389l-7.457,32.575
	c-1.232,5.384,2.133,10.747,7.517,11.979c0.751,0.172,1.501,0.254,2.24,0.254c4.559,0,8.679-3.138,9.739-7.77l7.457-32.575
	c13.336-58.251,33.578-72.978,41.662-76.606c1.671-0.75,3.299-1.251,4.849-1.503l-28.343,122.038l-45.725,76.444l6.731-29.399
	c1.232-5.383-2.133-10.747-7.517-11.979c-5.38-1.229-10.747,2.132-11.979,7.517l-20.318,88.752L103.4,417.64
	c-8.869,11.121-12.12,27.959-8.697,45.044c3.144,15.692,11.408,28.239,22.674,34.425l18.557,10.189
	c5.698,3.129,12.279,4.704,19.322,4.704c5.466,0,11.21-0.949,17.031-2.856c16.518-5.412,31.357-17.87,37.811-31.739l76.888-165.284
	l96.252-90.611C415.3,191.324,420.022,169.208,418.337,155.968z M191.965,468.968c-4.163,8.95-14.573,17.457-25.902,21.169
	c-8.008,2.623-15.288,2.491-20.503-0.372l-18.557-10.189c-5.992-3.29-10.736-11.075-12.689-20.822
	c-2.211-11.032-0.356-22.275,4.724-28.645l111.049-139.252l35.634,19.565L191.965,468.968z M369.53,206.946l-92.359,86.947
	l-31.95-17.542l150.508-124.779c1.506,1.955,2.433,4.268,2.77,6.921C399.222,164.18,397.847,180.288,369.53,206.946z"/>
<path d="M215.05,367.766c-5.011-2.329-10.955-0.158-13.284,4.849L176,428.002c-2.33,5.007-0.159,10.955,4.849,13.285
	c1.365,0.635,2.799,0.936,4.211,0.936c3.77,0,7.379-2.142,9.073-5.785l25.766-55.387
	C222.228,376.043,220.058,370.095,215.05,367.766z"/>
<path d="M178.574,447.2c-4.992-2.369-10.954-0.241-13.321,4.749l-0.122,0.257c-2.367,4.99-0.24,10.954,4.749,13.321
	c1.385,0.657,2.843,0.968,4.279,0.968c3.742,0,7.331-2.111,9.042-5.716l0.122-0.257C185.69,455.531,183.563,449.566,178.574,447.2z"
	/>
<path d="M253.88,163.075c0.756,0.174,1.511,0.257,2.255,0.257c4.553,0,8.67-3.13,9.735-7.756l0.03-0.131
	c1.24-5.382-2.116-10.75-7.498-11.991c-5.379-1.237-10.751,2.117-11.99,7.498l-0.03,0.131
	C245.142,156.466,248.498,161.834,253.88,163.075z"/>
<path d="M375.847,96.345l-0.195,0.663l-0.018,0.058c-1.572,5.294,1.453,10.832,6.747,12.404c0.944,0.28,1.898,0.414,2.836,0.414
	c4.32,0,8.314-2.832,9.606-7.182l0.229-0.777c1.541-5.303-1.509-10.852-6.813-12.393C382.934,87.99,377.387,91.042,375.847,96.345z"
	/>
<g>
</g>
<g>
</g>
<g>
</g>
<g>
</g>
<g>
</g>
<g>
</g>
<g>
</g>
<g>
</g>
<g>
</g>
<g>
</g>
<g>
</g>
<g>
</g>
<g>
</g>
<g>
</g>
<g>
</g>
</svg>
