<?xml version="1.0" encoding="iso-8859-1"?>
<!-- Generator: Adobe Illustrator 21.0.0, SVG Export Plug-In . SVG Version: 6.00 Build 0)  -->
<svg version="1.1" id="Capa_1" xmlns="http://www.w3.org/2000/svg" xmlns:xlink="http://www.w3.org/1999/xlink" x="0px" y="0px"
	 viewBox="0 0 512.003 512.003" style="enable-background:new 0 0 512.003 512.003;" xml:space="preserve">
<g>
	<path style="fill:#DC48B2;" d="M265.324,461.669c68.146-55.881,111.328-165.976,129.964-233.672
		c-10.31-18.469-9.294-48.319-9.294-48.319c-34.952,3.037-30.966,44.567-30.966,44.567c-35.146-20.033-24.254-78.102-24.254-78.102
		c-11.617,19.312-34.521,26.71-52.917,29.446c-0.392,0.939-0.788,1.866-1.189,2.769c-16.667,37.473-49.697,109.503-121.246,151.249
		C-2.159,421.545,126.508,575.501,265.324,461.669z"/>
	<g>
		<path style="fill:#00C56E;" d="M395.289,227.992C395.287,227.994,395.287,227.995,395.289,227.992L395.289,227.992z
			 M330.774,146.143c0,0-10.892,58.068,24.254,78.101c0,0-3.986-41.53,30.966-44.567c0,0-1.017,29.85,9.294,48.319
			c3.497,6.263,8.295,11.218,14.879,13.255c3.491-12.308,3.491-35.395,11.693-63.482c10.472-35.859,13.475-83.798-17.499-106.24
			c-4.549-3.296-9.83-6.041-15.928-8.118c-4.567-1.208-8.968-2.097-13.214-2.684c-46.619-6.434-74.277,23.703-91.779,69.848
			c-5.15,13.58-11.997,25.852-33.048,46.345c0,0,12.175,0.944,27.464-1.331C296.253,172.852,319.157,165.454,330.774,146.143z"/>
		<path style="fill:#00C56E;" d="M404.36,71.529c5.858-11.4,12.556-23.492,14.638-26.694c19.18-29.506-6.677-44.342-18.266-28.127
			c-4.398,6.155-16.24,26.306-25.513,44.019c4.245,0.586,8.647,1.475,13.214,2.684C394.53,65.488,399.812,68.234,404.36,71.529z"/>
	</g>
</g>
<path d="M427.535,153.671c-5.401-1.147-10.709,2.307-11.854,7.71c-0.957,4.517-2.108,9.087-3.421,13.584
	c-5.206,17.828-7.205,33.402-8.812,45.916c-0.042,0.322-0.082,0.643-0.124,0.961c-5.997-11.921-7.679-31.226-7.338-41.826
	c0.097-2.86-1.036-5.625-3.112-7.594c-2.076-1.97-4.898-2.954-7.746-2.708c-12.037,1.046-21.705,5.857-28.735,14.303
	c-4.742,5.697-7.561,12.33-9.221,18.589c-12.476-21.337-6.645-54.223-6.571-54.622c0.892-4.757-1.75-9.469-6.272-11.189
	s-9.629,0.044-12.123,4.192c-10.077,16.753-31.353,22.87-48.01,25.018c9.708-11.853,14.664-21.516,18.595-31.884
	c20.092-52.978,49.569-72.414,92.743-61.135c4.912,1.704,9.255,3.94,13.064,6.707c0.125,0.088,0.246,0.179,0.376,0.262
	c8.554,6.351,14.322,15.483,17.487,27.6c1.397,5.344,6.86,8.542,12.202,7.145c5.343-1.396,8.542-6.859,7.145-12.202
	c-3.544-13.562-9.939-24.811-18.888-33.426c4.796-9.056,9.115-16.72,10.461-18.789c13.977-21.501,9.028-38.765-2.075-46.336
	c-10.636-7.25-24.697-4.266-32.71,6.946c-4.538,6.35-14.647,23.596-23.042,39.185c-42.865-3.009-74.919,22.785-95.463,76.95
	c-4.076,10.747-9.488,22.102-30.673,42.725c-2.815,2.74-3.765,6.874-2.428,10.568c1.337,3.694,4.713,6.262,8.629,6.566
	c0.679,0.052,5.28,0.373,12.137,0.163c-4.46,9.647-9.6,20.173-15.81,31.322c-2.687,4.825-0.954,10.914,3.871,13.601
	c1.541,0.858,3.21,1.265,4.856,1.265c3.51,0,6.916-1.852,8.745-5.136c8.971-16.108,15.765-30.846,21.438-43.558
	c11.27-2.161,23.611-6.05,34.415-12.966c0.837,20.674,6.925,47.738,30.805,61.35c3.244,1.849,7.247,1.736,10.383-0.292
	c3.135-2.028,4.879-5.634,4.522-9.351c-0.016-0.164-1.35-16.707,6.781-26.475c1.318-1.583,2.829-2.902,4.548-3.963
	c0.715,10.228,2.764,24.293,8.306,36.184c-11.831,41.831-51.571,164.171-125.633,224.903
	c-43.153,35.386-90.586,47.01-126.885,31.092c-23.076-10.119-37.653-30.083-38.995-53.403
	c-1.913-33.257,22.637-67.294,67.354-93.384c24.822-14.482,47.451-33.861,67.259-57.599c3.539-4.24,2.97-10.545-1.271-14.084
	c-4.24-3.539-10.545-2.97-14.083,1.271c-18.317,21.951-39.172,39.829-61.983,53.138c-51.446,30.02-79.6,70.772-77.24,111.808
	c1.782,30.985,20.82,57.367,50.928,70.569c13.255,5.812,27.615,8.659,42.573,8.659c33.941,0,70.951-14.662,105.024-42.602
	c71.704-58.798,112.467-169.985,128.348-221.876c2.198,1.35,4.584,2.469,7.198,3.279c0.967,0.299,1.963,0.447,2.956,0.447
	c1.65,0,3.291-0.409,4.77-1.21c2.368-1.285,4.117-3.47,4.852-6.06c1.571-5.541,2.464-12.497,3.499-20.55
	c1.518-11.821,3.407-26.534,8.173-42.858c1.454-4.978,2.728-10.04,3.788-15.046C436.39,160.122,432.938,154.815,427.535,153.671z
	 M408.867,22.523c1.627-2.28,3.658-3.084,5.172-2.051c2.376,1.62,3.547,8.187-3.426,18.914c-1.793,2.759-5.953,10.193-10.222,18.183
	c-2.78-1.366-5.685-2.585-8.734-3.624c-0.22-0.075-0.442-0.142-0.667-0.202c-0.193-0.051-0.384-0.097-0.577-0.147
	C397.934,39.967,405.699,26.956,408.867,22.523z"/>
<path d="M429.43,126.75c-5.533-0.241-10.182,4.043-10.42,9.56l-0.012,0.261c-0.263,5.517,3.997,10.193,9.512,10.456
	c0.162,0.008,0.323,0.012,0.483,0.012c5.304,0,9.726-4.177,9.981-9.53l0.016-0.338C439.227,131.653,434.947,126.988,429.43,126.75z"
	/>
<path d="M223.094,433.931l-0.077,0.046c-4.746,2.825-6.302,8.961-3.478,13.707c1.87,3.143,5.193,4.887,8.601,4.887
	c1.74,0,3.502-0.454,5.105-1.409l0.167-0.1c4.731-2.85,6.254-8.994,3.406-13.725C233.969,432.606,227.823,431.082,223.094,433.931z"
	/>
<path d="M251.449,436.209c2.219,0,4.452-0.735,6.306-2.245c18.862-15.353,34.774-33.897,46.014-53.628
	c2.733-4.799,1.059-10.904-3.74-13.638c-4.8-2.734-10.905-1.06-13.638,3.739c-10.028,17.604-24.296,34.208-41.26,48.016
	c-4.284,3.486-4.93,9.784-1.443,14.067C245.664,434.95,248.544,436.209,251.449,436.209z"/>
<path d="M241.063,255.828c-1.537,0-3.096-0.355-4.558-1.105c-4.913-2.521-6.852-8.548-4.331-13.461l0.123-0.24
	c2.521-4.913,8.547-6.852,13.461-4.331c4.914,2.521,6.852,8.548,4.331,13.461l-0.123,0.24
	C248.195,253.845,244.693,255.828,241.063,255.828z"/>
<g>
</g>
<g>
</g>
<g>
</g>
<g>
</g>
<g>
</g>
<g>
</g>
<g>
</g>
<g>
</g>
<g>
</g>
<g>
</g>
<g>
</g>
<g>
</g>
<g>
</g>
<g>
</g>
<g>
</g>
</svg>
