<?xml version="1.0" encoding="iso-8859-1"?>
<!-- Generator: Adobe Illustrator 21.0.0, SVG Export Plug-In . SVG Version: 6.00 Build 0)  -->
<svg version="1.1" id="Capa_1" xmlns="http://www.w3.org/2000/svg" xmlns:xlink="http://www.w3.org/1999/xlink" x="0px" y="0px"
	 viewBox="0 0 511.997 511.997" style="enable-background:new 0 0 511.997 511.997;" xml:space="preserve">
<g>
	<path style="fill:#87DD60;" d="M259.861,123.232c29.919,5.107,61.776-3.885,84.871-26.98c23.095-23.095,32.087-54.952,26.98-84.87
		c-29.919-5.108-61.776,3.884-84.871,26.979C263.746,61.456,254.753,93.312,259.861,123.232z"/>
	<g>
		<path style="fill:#FD4848;" d="M321.781,155.371c-17.663-0.491-33.208,0.346-46.561,6.948
			c-7.016,3.469-13.427,8.528-19.222,15.823c-5.386-6.779-11.303-11.628-17.743-15.064c-13.68-7.297-29.72-8.216-48.04-7.707
			c-12.317,0-23.815,4.904-33.625,12.8c-19.004,15.299-31.669,41.83-31.669,65.694c0,65.161,37.462,84.932,37.462,174.52
			c0,15.263,3.702,29.704,10.253,42.469c0.001,0.001,0.001,0.003,0.001,0.004c11.393,22.198,31.401,39.326,55.535,46.894h55.65
			c24.134-7.569,44.144-24.698,55.537-46.899c6.551-12.764,10.253-27.205,10.253-42.469c0-89.587,37.462-109.359,37.462-174.52
			c0-23.864-12.665-50.396-31.669-65.694C345.596,160.275,334.098,155.371,321.781,155.371z"/>
		<path style="fill:#FD4848;" d="M162.383,408.385c0-89.587-37.462-109.359-37.462-174.52c0-23.864,12.665-50.395,31.672-65.692
			c-14.045-8.165-30.656-9.188-49.741-8.658c-36.181,0-65.293,42.314-65.293,78.494c0,24.158,6.454,42.252,14.575,60.023
			c4.162,9.107,8.763,18.131,13.158,27.841c10.158,22.447,19.216,48.571,19.216,87.92c-5.693,83.057,106.261,108.485,84.128,37.064
			C166.086,438.093,162.383,423.651,162.383,408.385z"/>
		<path style="fill:#FD4848;" d="M349.612,408.385c0,15.263-3.702,29.704-10.253,42.469c-22.139,71.427,89.819,46,84.127-37.059
			c0-89.587,46.949-110.625,46.949-175.786c0-36.181-29.112-78.493-65.293-78.493c-19.084-0.531-35.695,0.492-49.741,8.657
			c19.005,15.299,31.672,41.828,31.673,65.692C387.075,299.027,349.612,318.798,349.612,408.385z"/>
	</g>
	<path style="fill:#00C56E;" d="M255.998,178.143c5.794-7.293,12.202-12.354,19.222-15.823c-3.649-12.928-9.339-26.679-15.36-39.088
		c-7.651-15.768-15.835-29.366-21.044-36.348c-11.887-15.931-42.69-3.853-23.239,25.003c5.332,7.91,15.529,30.181,22.677,51.191
		C244.694,166.515,250.612,171.364,255.998,178.143z"/>
</g>
<path d="M315.319,384.1c-5.516-0.228-10.173,4.068-10.397,9.586l-0.023,0.542c-0.224,5.519,4.068,10.173,9.586,10.397
	c0.138,0.006,0.275,0.008,0.412,0.008c5.336,0,9.767-4.215,9.985-9.595l0.023-0.541C325.13,388.979,320.837,384.324,315.319,384.1z"
	/>
<path d="M65.491,306.812c-5.516-0.228-10.173,4.068-10.397,9.586l-0.023,0.542c-0.224,5.519,4.068,10.173,9.586,10.397
	c0.138,0.006,0.275,0.008,0.412,0.008c5.336,0,9.767-4.215,9.985-9.595l0.023-0.541C75.301,311.69,71.009,307.036,65.491,306.812z"
	/>
<path d="M316.12,375.366c0.48,0.068,0.957,0.102,1.429,0.102c4.896,0,9.173-3.599,9.887-8.585
	c1.635-11.436,4.049-22.753,7.175-33.64c3.352-11.673,7.548-22.6,11.991-34.168c1.937-5.044,3.94-10.258,5.861-15.525
	c1.892-5.189-0.781-10.928-5.969-12.82c-5.192-1.891-10.929,0.781-12.821,5.97c-1.862,5.106-3.833,10.24-5.741,15.205
	c-4.401,11.459-8.953,23.308-12.545,35.82c-3.378,11.764-5.985,23.986-7.75,36.327C306.855,369.518,310.653,374.584,316.12,375.366z
	"/>
<path d="M480.436,238.011c0-40.877-32.818-88.384-75.15-88.494c-18.921-0.521-34.779,0.555-48.963,6.953
	c-10.237-6.901-21.901-11.065-34.397-11.098c-13.533-0.372-27.36-0.148-40.393,3.748c-1.674-4.839-3.549-9.706-5.556-14.511
	c0.056,0,0.111,0.004,0.167,0.004c28.126-0.002,55.476-11.108,75.658-31.289c7.054-7.054,13.066-15.012,17.871-23.651l0.466-0.846
	c2.642-4.85,0.852-10.923-3.998-13.565c-4.848-2.643-10.923-0.853-13.565,3.998l-0.381,0.691
	c-3.903,7.019-8.793,13.489-14.535,19.231c-18.162,18.164-43.461,27.285-68.867,25.119c-2.161-25.402,6.958-50.706,25.119-68.868
	c19.89-19.891,48.347-28.935,76.117-24.193c5.452,0.927,10.611-2.73,11.54-8.174c0.93-5.444-2.73-10.611-8.174-11.541
	c-34.158-5.832-69.157,5.296-93.625,29.766c-15.157,15.157-25.188,34.357-29.247,54.892c-1.32-1.984-2.562-3.763-3.691-5.276
	c-8.836-11.842-25.597-14.686-37.362-6.337c-9.708,6.888-16.105,22.258-2.185,42.911c3.251,4.823,8.831,16.264,14.258,29.535
	c-10.33-1.856-20.989-1.93-31.473-1.642c-12.495,0.033-24.159,4.197-34.397,11.098c-14.184-6.398-30.042-7.472-48.963-6.954
	c-42.333,0.11-75.15,47.619-75.15,88.494c0,17.123,3.009,32.998,9.471,49.956c1.966,5.161,7.745,7.752,12.905,5.784
	c5.161-1.966,7.75-7.744,5.784-12.905c-5.644-14.811-8.16-28.022-8.16-42.835c0-15.627,6.339-33.07,16.958-46.658
	c6.373-8.155,19.828-21.837,38.335-21.837c0.093,0,0.186-0.001,0.278-0.004c12.075-0.335,22.521,0.01,31.58,2.238
	c-1.33,1.564-2.599,3.196-3.836,4.856c-0.254,0.34-0.509,0.678-0.759,1.022c-0.375,0.517-0.746,1.035-1.112,1.56
	c-0.481,0.688-0.951,1.385-1.415,2.086c-0.278,0.421-0.555,0.84-0.826,1.265c-0.535,0.836-1.056,1.682-1.567,2.533
	c-0.188,0.314-0.378,0.626-0.563,0.943c-0.578,0.986-1.137,1.984-1.682,2.989c-0.11,0.203-0.223,0.405-0.332,0.609
	c-0.609,1.141-1.196,2.294-1.762,3.457c-0.041,0.083-0.083,0.166-0.124,0.249c-1.238,2.559-2.369,5.166-3.388,7.804
	c-0.005,0.013-0.01,0.026-0.015,0.039c-0.506,1.311-0.983,2.63-1.433,3.955c-0.014,0.043-0.028,0.086-0.043,0.129
	c-0.437,1.293-0.846,2.592-1.228,3.895c-0.022,0.074-0.042,0.148-0.064,0.222c-0.37,1.273-0.713,2.549-1.028,3.828
	c-0.025,0.1-0.049,0.2-0.073,0.3c-0.306,1.257-0.585,2.516-0.837,3.776c-0.023,0.116-0.047,0.232-0.069,0.348
	c-0.245,1.25-0.463,2.499-0.654,3.748c-0.018,0.121-0.038,0.241-0.056,0.362c-0.187,1.257-0.345,2.512-0.476,3.765
	c-0.011,0.105-0.024,0.211-0.034,0.316c-0.129,1.284-0.228,2.565-0.297,3.842c-0.004,0.069-0.009,0.139-0.013,0.208
	c-0.069,1.341-0.105,2.678-0.105,4.007c0,31.871,8.348,53.303,17.185,75.993c9.033,23.192,18.346,47.1,20.012,85.967
	c0.173,4.021,0.263,8.202,0.263,12.558c0,0.971,0.016,1.938,0.043,2.903c0.004,0.151,0.012,0.302,0.017,0.453
	c0.028,0.864,0.065,1.726,0.114,2.584c0.003,0.049,0.006,0.097,0.009,0.146c0.84,14.428,4.645,28.07,10.814,40.331
	c3.49,11.841,2.776,20.573-2.046,24.644c-5.628,4.752-17.576,4.007-29.056-1.811c-17.809-9.025-36.04-30.355-33.792-63.157
	c0.016-0.228,0.023-0.456,0.023-0.684c0-25.991-3.688-48.582-11.608-71.095c-0.644-1.827-1.317-3.664-2.003-5.461
	c-1.97-5.159-7.747-7.747-12.909-5.776c-5.16,1.97-7.746,7.749-5.776,12.909c0.624,1.634,1.238,3.307,1.823,4.968
	c7.112,20.218,10.442,40.603,10.473,64.125c-2.76,42.351,21.269,70.123,44.729,82.011c9.41,4.769,18.872,7.146,27.506,7.146
	c9.091-0.001,17.266-2.636,23.492-7.894c2.96-2.499,6.556-6.576,8.883-12.764c18.733,18.557,44.49,30.036,72.879,30.036
	s54.145-11.479,72.878-30.036c2.327,6.188,5.923,10.266,8.883,12.765c6.227,5.257,14.399,7.893,23.492,7.893
	c8.634,0,18.099-2.378,27.507-7.146c23.458-11.888,47.488-39.662,44.728-82.012c0.06-45.866,12.878-72.464,25.273-98.192
	C469.907,292.139,480.436,270.287,480.436,238.011z M223.869,106.299c-4.827-7.161-5.937-13.213-2.827-15.42
	c2.211-1.57,6.96-1.766,9.758,1.986c4.549,6.095,12.392,18.975,19.843,34.244c0.127,0.301,0.269,0.592,0.423,0.877
	c4.539,9.376,8.902,19.605,12.259,29.699c-2.503,1.701-4.95,3.624-7.328,5.802c-3.071-2.811-6.254-5.199-9.528-7.23
	C239.517,136.6,229.872,115.205,223.869,106.299z M255.998,492c-32.253,0-60.278-18.366-74.219-45.179
	c-0.079-0.179-0.156-0.359-0.245-0.533c-1.806-3.519-3.34-7.121-4.614-10.793c-0.127-0.369-0.255-0.738-0.376-1.11
	c-0.185-0.559-0.369-1.118-0.542-1.68c-0.303-0.995-0.589-1.997-0.856-3.008c-0.08-0.3-0.156-0.601-0.232-0.902
	c-0.296-1.173-0.575-2.352-0.82-3.544c-0.008-0.04-0.015-0.081-0.024-0.121c-0.269-1.316-0.507-2.644-0.713-3.982
	c-0.003-0.022-0.007-0.043-0.011-0.065c-0.199-1.301-0.363-2.614-0.501-3.934c-0.015-0.145-0.03-0.289-0.045-0.434
	c-0.127-1.276-0.225-2.56-0.294-3.852c-0.009-0.167-0.014-0.334-0.022-0.501c-0.062-1.318-0.101-2.642-0.101-3.975
	c0-50.231-11.496-79.745-21.639-105.786c-8.49-21.796-15.822-40.621-15.822-68.734c0-0.854,0.027-1.716,0.064-2.58
	c0.011-0.258,0.024-0.516,0.039-0.775c0.038-0.684,0.09-1.372,0.151-2.061c0.04-0.439,0.085-0.878,0.134-1.318
	c0.054-0.496,0.113-0.994,0.179-1.492c0.07-0.523,0.145-1.046,0.227-1.571c0.024-0.151,0.051-0.302,0.075-0.453
	c2.964-17.996,13.269-36.543,27.071-47.652c0.064-0.051,0.118-0.111,0.18-0.164c6.998-5.617,16.195-10.428,27.17-10.428
	c0.093,0,0.185-0.001,0.278-0.004c2.508-0.07,4.931-0.109,7.274-0.109c22.905,0,38.191,3.735,50.401,19.104
	c1.898,2.388,4.78,3.779,7.83,3.779c3.05,0,5.933-1.392,7.83-3.78c13.46-16.942,30.658-19.743,57.675-18.995
	c0.093,0.002,0.185,0.004,0.278,0.004c10.974,0,20.171,4.81,27.168,10.427c0.063,0.053,0.117,0.114,0.181,0.165
	c13.802,11.11,24.108,29.656,27.071,47.652c0.025,0.151,0.052,0.302,0.075,0.453c0.083,0.524,0.157,1.048,0.228,1.571
	c0.066,0.498,0.125,0.995,0.179,1.492c0.049,0.44,0.095,0.879,0.134,1.318c0.061,0.689,0.113,1.377,0.151,2.061
	c0.015,0.259,0.028,0.517,0.039,0.775c0.038,0.864,0.065,1.726,0.065,2.58c0,28.113-7.332,46.938-15.822,68.734
	c-10.143,26.04-21.639,55.555-21.639,105.786c0,1.333-0.039,2.657-0.101,3.974c-0.008,0.167-0.013,0.335-0.022,0.502
	c-0.068,1.291-0.167,2.575-0.294,3.85c-0.014,0.146-0.03,0.292-0.045,0.438c-0.138,1.319-0.302,2.63-0.501,3.93
	c-0.004,0.024-0.008,0.049-0.012,0.073c-0.205,1.333-0.443,2.655-0.71,3.966c-0.009,0.045-0.017,0.091-0.026,0.136
	c-0.244,1.187-0.522,2.361-0.816,3.53c-0.078,0.308-0.156,0.616-0.238,0.923c-0.265,1.004-0.55,2-0.851,2.99
	c-0.175,0.57-0.362,1.138-0.55,1.705c-0.118,0.359-0.241,0.716-0.364,1.073c-1.275,3.679-2.812,7.287-4.621,10.812
	c-0.091,0.177-0.169,0.361-0.249,0.543C316.268,473.638,288.246,492,255.998,492z M413.485,413.795c0,0.228,0.008,0.456,0.023,0.684
	c2.248,32.801-15.981,54.132-33.791,63.157c-11.479,5.817-23.428,6.563-29.056,1.811c-4.822-4.07-5.536-12.801-2.047-24.641
	c6.17-12.261,9.975-25.905,10.815-40.336c0.003-0.048,0.006-0.096,0.009-0.143c0.049-0.859,0.087-1.722,0.114-2.587
	c0.005-0.151,0.013-0.301,0.017-0.451c0.027-0.965,0.043-1.932,0.043-2.903c0-46.473,10.307-72.935,20.275-98.526
	c8.838-22.69,17.186-44.122,17.186-75.993c0-1.329-0.036-2.666-0.105-4.007c-0.004-0.069-0.009-0.139-0.013-0.208
	c-0.069-1.277-0.167-2.558-0.297-3.842c-0.011-0.105-0.023-0.21-0.034-0.315c-0.131-1.253-0.289-2.508-0.476-3.765
	c-0.018-0.121-0.038-0.242-0.056-0.363c-0.191-1.249-0.409-2.499-0.654-3.749c-0.023-0.115-0.046-0.231-0.069-0.346
	c-0.252-1.26-0.532-2.52-0.838-3.777c-0.024-0.099-0.048-0.199-0.073-0.298c-0.316-1.279-0.659-2.556-1.028-3.829
	c-0.022-0.074-0.043-0.149-0.064-0.223c-0.382-1.303-0.791-2.602-1.228-3.896c-0.014-0.042-0.028-0.085-0.042-0.127
	c-0.45-1.326-0.927-2.646-1.434-3.958c-0.005-0.012-0.009-0.023-0.013-0.035c-1.02-2.639-2.151-5.247-3.389-7.807
	c-0.04-0.083-0.082-0.164-0.122-0.246c-0.567-1.164-1.154-2.319-1.764-3.461c-0.108-0.202-0.219-0.401-0.328-0.602
	c-0.546-1.007-1.106-2.006-1.685-2.994c-0.185-0.316-0.374-0.628-0.562-0.941c-0.512-0.853-1.033-1.699-1.569-2.536
	c-0.271-0.424-0.547-0.842-0.823-1.261c-0.465-0.703-0.937-1.402-1.419-2.092c-0.364-0.522-0.733-1.038-1.106-1.552
	c-0.276-0.379-0.557-0.753-0.837-1.128c-1.214-1.625-2.458-3.222-3.761-4.755c9.059-2.229,19.506-2.572,31.58-2.238
	c0.092,0.003,0.185,0.004,0.278,0.004c18.507,0,31.961,13.681,38.336,21.837c10.619,13.588,16.958,31.03,16.958,46.658
	c0,27.709-9.126,46.649-19.693,68.58C427.966,333.107,413.485,363.161,413.485,413.795z"/>
<path d="M373.117,37.579c-5.409-1.112-10.696,2.374-11.808,7.783l-0.073,0.35c-1.154,5.401,2.288,10.715,7.689,11.87
	c0.705,0.15,1.408,0.223,2.101,0.223c4.616,0,8.765-3.215,9.77-7.911l0.105-0.506C382.012,43.977,378.527,38.691,373.117,37.579z"/>
<g>
</g>
<g>
</g>
<g>
</g>
<g>
</g>
<g>
</g>
<g>
</g>
<g>
</g>
<g>
</g>
<g>
</g>
<g>
</g>
<g>
</g>
<g>
</g>
<g>
</g>
<g>
</g>
<g>
</g>
</svg>
