<?xml version="1.0" encoding="iso-8859-1"?>
<!-- Generator: Adobe Illustrator 21.0.0, SVG Export Plug-In . SVG Version: 6.00 Build 0)  -->
<svg version="1.1" id="Capa_1" xmlns="http://www.w3.org/2000/svg" xmlns:xlink="http://www.w3.org/1999/xlink" x="0px" y="0px"
	 viewBox="0 0 512.001 512.001" style="enable-background:new 0 0 512.001 512.001;" xml:space="preserve">
<g>
	<path style="fill:#00C56E;" d="M55.442,49.145c7.694,20.785,24.881,37.7,47.76,44.165c19.532-13.05,43.028-17.666,65.367-13.853
		c-7.801-21.075-25.36-38.173-48.719-44.432S72.736,34.794,55.442,49.145z"/>
	<path style="fill:#87DD60;" d="M103.201,93.308c-4.859,3.246-9.473,7.014-13.762,11.303c-21.533,21.533-29.917,51.235-25.155,79.13
		c27.896,4.762,57.597-3.622,79.13-25.156c18.535-18.535,27.327-43.121,26.38-67.398c-0.055-1.413-0.143-2.826-0.264-4.236
		c-0.361-2.543-0.682-5.043-0.96-7.496C146.231,75.643,122.734,80.26,103.201,93.308z"/>
	<path style="fill:#AA836D;" d="M174.999,21.073c-8.782,13.98-11.297,27.3-6.43,58.384c0.424,2.487,0.744,4.988,0.96,7.496
		c0.121,1.41,0.209,2.823,0.264,4.236c6.635-0.742,13.374-1.136,20.207-1.136c5.778,0,11.493,0.272,17.132,0.805
		c-6.601-18.127-9.314-41.299-4.132-56.277C212.001,8.567,187.033,1.916,174.999,21.073z"/>
	<g>
		<path style="fill:#FFCF33;" d="M221.934,308.395l-29.03-7.779c-10.982,40.989-5.233,84.662,15.985,121.411
			c5.083,8.804,10.877,16.943,17.266,24.385c49.15,57.243,133.575,73.278,201.297,34.179c36.749-21.217,63.564-56.164,74.548-97.152
			l-29.029-7.778c-8.616,32.153-29.473,61.026-60.519,78.95c-62.091,35.849-141.734,14.508-177.583-47.583
			C216.946,375.982,213.318,340.548,221.934,308.395z"/>
		<path style="fill:#FFCF33;" d="M192.904,300.617l29.03,7.779l125.519,33.633l6.771,1.815C364.359,321.326,370,296.348,370,270.052
			c0-93.632-71.493-170.567-162.868-179.195c-5.639-0.532-11.354-0.805-17.132-0.805c-6.833,0-13.572,0.394-20.207,1.136
			c0.948,24.277-7.845,48.863-26.38,67.398c-21.533,21.533-51.234,29.917-79.13,25.156c-2.649-15.52-1.23-31.599,4.26-46.519
			l-0.402,0.367c-29.9,27.515-50.463,65.021-56.386,107.224C10.598,253.061,10,261.487,10,270.052c0,99.411,80.589,180,180,180
			c12.385,0,24.476-1.255,36.156-3.64c-6.39-7.442-12.183-15.58-17.266-24.385C187.672,385.279,181.923,341.606,192.904,300.617z"/>
	</g>
	<g>
		<path style="fill:#FF8244;" d="M221.934,308.395c-8.616,32.153-4.988,67.586,12.936,98.632
			c5.817,10.075,12.787,19.077,20.648,26.936l7.912-7.912l73.75-73.75l10.274-10.274L221.934,308.395z"/>
		<path style="fill:#FF8244;" d="M255.567,433.914c23.538,23.538,56.038,38.113,91.886,38.113c11.634,0,22.915-1.535,33.651-4.413
			l-2.896-10.808l-26.994-100.744l-3.76-14.034L255.567,433.914z"/>
		<path style="fill:#FF8244;" d="M381.086,467.547c32.153-8.615,61.026-29.473,78.95-60.519
			c5.817-10.075,10.128-20.612,13.004-31.35l-10.808-2.896l-100.744-26.994l-14.034-3.76L381.086,467.547z"/>
	</g>
</g>
<path d="M450.012,451.489l-0.174,0.162c-4.049,3.755-4.287,10.083-0.531,14.132c1.971,2.125,4.648,3.2,7.334,3.2
	c2.434,0,4.874-0.883,6.799-2.669l0.23-0.215c4.034-3.772,4.248-10.1,0.477-14.134C460.375,447.931,454.048,447.717,450.012,451.489
	z"/>
<path d="M510.661,378.439c-1.326-2.297-3.51-3.973-6.072-4.659l-29.029-7.778l-107.755-28.873
	C375.893,315.745,380,293.238,380,270.052c0-96.421-72.197-176.292-165.37-188.406c-4.798-16.121-5.757-33.456-2.18-43.796
	c6.712-19.397-1.367-31.294-10.324-35.588c-12.076-5.79-27.048-0.116-35.595,13.49c-5.608,8.928-8.834,17.662-9.953,28.407
	c-9.58-8.81-21.247-15.34-34.14-18.794c-25.561-6.848-52.992-0.836-73.381,16.084c-3.267,2.71-4.466,7.187-2.992,11.167
	c6.934,18.733,20.514,34.152,37.751,43.519c-0.485,0.466-0.972,0.929-1.448,1.405c-9.776,9.776-17.273,21.346-22.25,33.88
	c-21.796,20.429-38.656,45.927-48.789,73.871c-1.883,5.192,0.801,10.927,5.992,12.81c1.126,0.408,2.276,0.602,3.408,0.602
	c4.09,0,7.928-2.528,9.402-6.594c5.514-15.206,13.268-29.598,22.88-42.668c0.047,5.317,0.507,10.661,1.415,15.984
	c0.714,4.184,3.991,7.461,8.175,8.175c5.618,0.959,11.255,1.429,16.864,1.429c26.401,0,52.075-10.427,71.02-29.371
	c17.569-17.569,27.8-40.922,29.195-65.279c3.46-0.211,6.91-0.326,10.32-0.326c93.738,0,170,76.262,170,170
	c0,21.424-3.908,42.196-11.615,61.873l0,0l-152.893-40.967c-2.561-0.687-5.29-0.327-7.588,0.999
	c-2.297,1.326-3.973,3.51-4.659,6.072c-11.752,43.863-5.72,89.675,16.984,128.999c2.41,4.174,4.989,8.19,7.691,12.079
	c-5.943,0.624-11.931,0.945-17.92,0.945c-93.738,0-170-76.262-170-170c0-5.523-4.477-10-10-10c-5.522,0-10,4.477-10,10
	c0,104.767,85.233,190,190,190c10.899,0,21.798-0.942,32.481-2.784c32.615,35.378,78.439,54.726,125.257,54.725
	c28.82,0,58.014-7.326,84.715-22.742c4.783-2.761,6.422-8.877,3.66-13.66s-8.878-6.422-13.66-3.66
	c-71.629,41.353-163.549,16.725-204.903-54.903c-18.357-31.796-24.363-68.397-17.26-104.079l9.738,2.609
	c-6.439,33.12-0.819,67.024,16.182,96.47c18.674,32.344,48.868,55.491,85.022,65.179c12.093,3.24,24.355,4.843,36.538,4.843
	c24.243,0,48.157-6.35,69.683-18.778c29.446-17,51.265-43.552,62.249-75.454l9.734,2.608c-5.138,15.103-12.611,29.196-22.289,42.009
	c-3.329,4.407-2.455,10.678,1.952,14.007c1.805,1.363,3.92,2.021,6.02,2.021c3.028,0,6.022-1.371,7.987-3.973
	c13.255-17.549,22.862-37.218,28.555-58.461C512.347,383.466,511.987,380.736,510.661,378.439z M67.809,52.456
	c14.557-9.381,32.548-12.301,49.453-7.772c13.847,3.711,25.805,12.132,34.037,23.517c-17.448,0.362-34.5,5.268-49.427,14.168
	C87.161,77.076,74.945,66.326,67.809,52.456z M136.342,151.515c-16.657,16.658-39.802,25.092-63.104,23.271
	c-1.814-23.295,6.615-46.448,23.272-63.103c16.655-16.657,39.808-25.086,63.103-23.271
	C161.429,111.706,152.998,134.859,136.342,151.515z M178.832,80.391c-0.115-0.797-0.237-1.595-0.371-2.391
	c-0.004-0.029-0.008-0.057-0.012-0.086c0-0.001,0-0.003,0-0.004c-4.639-29.631-2.078-40.221,5.018-51.518
	c3.717-5.917,8.358-6.889,10.014-6.094c1.613,0.773,2.186,4.896,0.069,11.013c-5.059,14.623-3.627,33.262,0,48.786
	c-1.182-0.022-2.363-0.045-3.55-0.045C186.306,80.052,182.574,80.17,178.832,80.391z M229.398,320.748l98.736,26.457l-72.318,72.318
	c-4.533-5.365-8.654-11.203-12.286-17.494C229.201,377.21,224.304,348.692,229.398,320.748z M269.966,433.657l72.311-72.311
	l26.468,98.779C333.635,466.42,297.225,456.663,269.966,433.657z M407.453,445.951c-6.292,3.633-12.779,6.628-19.387,9.008
	l-26.47-98.789l98.736,26.457C450.771,409.374,432.271,431.623,407.453,445.951z"/>
<path d="M11.311,246.107c0.637,0.121,1.271,0.181,1.895,0.181c4.701,0,8.893-3.331,9.81-8.119l0.038-0.201
	c1.048-5.423-2.5-10.667-7.922-11.715c-5.425-1.047-10.669,2.5-11.715,7.923l-0.044,0.226
	C2.334,239.827,5.888,245.066,11.311,246.107z"/>
<path d="M313.947,178.27c-3.287-4.439-9.548-5.374-13.988-2.086c-4.439,3.287-5.372,9.549-2.086,13.987
	c11.704,15.806,19.923,34.356,23.767,53.644c0.947,4.757,5.124,8.047,9.796,8.047c0.648,0,1.306-0.063,1.966-0.195
	c5.416-1.08,8.932-6.346,7.852-11.762C336.837,217.743,327.395,196.43,313.947,178.27z"/>
<path d="M324.229,269.849v0.203c0,5.523,4.478,10,10,10c5.523,0,10-4.477,10-10v-0.203c0-5.523-4.477-10-10-10
	C328.707,259.849,324.229,264.326,324.229,269.849z"/>
<path d="M150.843,265.294c0.875,0.237,1.753,0.35,2.618,0.35c4.405,0,8.44-2.934,9.646-7.39l0.07-0.26
	c1.443-5.331-1.709-10.822-7.04-12.265c-5.327-1.441-10.821,1.709-12.265,7.04l-0.07,0.26
	C142.359,258.36,145.512,263.851,150.843,265.294z"/>
<path d="M76.876,295.303c0.864,0.23,1.731,0.341,2.586,0.341c4.418,0,8.461-2.952,9.655-7.424l0.069-0.259
	c1.424-5.336-1.747-10.816-7.083-12.241c-5.333-1.423-10.815,1.746-12.241,7.083l-0.069,0.259
	C68.369,288.399,71.54,293.879,76.876,295.303z"/>
<path d="M135.204,322.468c-5.337-1.441-10.821,1.714-12.262,7.046l-0.07,0.26c-1.44,5.332,1.714,10.821,7.045,12.262
	c0.874,0.236,1.751,0.349,2.614,0.349c4.407,0,8.443-2.936,9.647-7.395l0.07-0.26C143.689,329.398,140.535,323.908,135.204,322.468z
	"/>
<path d="M134.933,399.543l-0.069,0.259c-1.424,5.336,1.747,10.816,7.083,12.241c0.864,0.23,1.731,0.341,2.586,0.341
	c4.418,0,8.461-2.952,9.655-7.424l0.069-0.259c1.424-5.336-1.747-10.816-7.083-12.241
	C141.842,391.038,136.357,394.206,134.933,399.543z"/>
<g>
</g>
<g>
</g>
<g>
</g>
<g>
</g>
<g>
</g>
<g>
</g>
<g>
</g>
<g>
</g>
<g>
</g>
<g>
</g>
<g>
</g>
<g>
</g>
<g>
</g>
<g>
</g>
<g>
</g>
</svg>
