<svg height="464pt" viewBox="-16 0 464 464.00006" width="464pt" xmlns="http://www.w3.org/2000/svg"><path d="m426.558594 339.542969-18.558594-35.542969-8-232-24 40s1.457031 229.457031.28125 241.214844c-8.078125-2.316406-16.746094-1.296875-24.058594 2.835937-7.3125 4.136719-12.660156 11.035157-14.839844 19.148438-4.648437-3.472657-10.070312-5.777344-15.796874-6.710938l-1.585938-56.488281v-66.855469c0-86.929687-24.992188-172.023437-72-245.144531l19.550781 58.648438c13.5625 40.695312 21.28125 83.109374 22.929688 125.976562l7.199219 188.527344c-3.699219 2.222656-6.976563 5.082031-9.679688 8.449218-9.398438-12.152343-25.609375-16.773437-40-11.402343v-66.199219l-24 8-6.398438 57.648438c-3.945312 1.210937-7.65625 3.082031-10.976562 5.535156-2.183594-8.109375-7.53125-15.007813-14.84375-19.136719-7.3125-4.132813-15.980469-5.152344-24.054688-2.832031-1.164062-11.609375-9.429687-21.265625-20.71875-24.214844l-11.007812-33-16-48v48l-2.558594 43.542969c-6.976562 9.011719-7.691406 21.386719-1.800781 31.144531 5.890625 9.753906 17.175781 14.882812 28.398437 12.90625v.40625 14.160156c-.339843 17.339844 12.6875 32.035156 29.945313 33.777344 6.605469.402344 13.171875-1.277344 18.777344-4.800781 2.15625 10.996093 9.351562 20.339843 19.429687 25.238281 10.074219 4.898438 21.867188 4.785156 31.847656-.3125 15.074219 7.75 33.527344 3.691406 43.960938-9.664062 8.664062 10.964843 22.910156 15.898437 36.5 12.632812 13.589844-3.261719 24.042969-14.128906 26.78125-27.832031 5.601562 3.527343 12.167969 5.207031 18.773438 4.800781 17.28125-1.742188 30.320312-16.476562 29.945312-33.839844v-14.160156c0-.136719-.039062-.273438-.039062-.40625 11.136718 1.695312 22.203124-3.488281 28.027343-13.132812 5.824219-9.644532 5.261719-21.847657-1.429687-30.917969zm0 0" fill="#ffbc49"/><path d="m408 304-8-232-24 40s1.457031 229.457031.28125 241.214844zm0 0" fill="#389a6b"/><path d="m321.601562 368.472656-1.601562-56.472656v-66.855469c0-86.929687-24.992188-172.023437-72-245.144531l19.550781 58.648438c13.5625 40.695312 21.28125 83.109374 22.929688 125.976562l7.199219 188.527344zm0 0" fill="#389a6b"/><path d="m280 424c-3.046875.015625-5.839844-1.699219-7.199219-4.425781-6.320312-12.574219-4.402343-27.722657 4.855469-38.328125l4.246094-4.886719c2.898437-3.335937 7.953125-3.691406 11.289062-.792969 3.335938 2.898438 3.691406 7.953125.792969 11.289063l-4.25 4.886719c-4.992187 5.722656-6.027344 13.898437-2.613281 20.683593 1.234375 2.472657 1.105468 5.410157-.34375 7.765625-1.449219 2.355469-4.011719 3.796875-6.777344 3.808594zm0 0" fill="#e99525"/><path d="m344 416c-2.121094 0-4.15625-.84375-5.65625-2.34375l-2.398438-2.398438c-10.566406-10.601562-12.851562-26.910156-5.601562-40 1.347656-2.578124 3.992188-4.21875 6.898438-4.289062 2.910156-.066406 5.625 1.445312 7.09375 3.957031s1.460937 5.621094-.023438 8.121094c-3.804688 6.863281-2.597656 15.414063 2.960938 20.953125l2.398437 2.398438c2.25 2.296874 2.90625 5.714843 1.671875 8.679687-1.238281 2.96875-4.128906 4.90625-7.34375 4.921875zm0 0" fill="#e99525"/><path d="m288 152-52.382812-30.558594c-28.398438-16.578125-61.175782-24.113281-93.960938-21.601562-34.839844 2.691406-67.871094 16.582031-94.160156 39.601562l-23.496094 20.558594 26.792969-8.929688c29.941406-9.980468 61.300781-15.070312 92.863281-15.070312h24c16.195312 0 32.367188 1.335938 48.34375 4zm0 0" fill="#58af7a"/><path d="m120 248-15.582031-28.054688c-14.257813-25.660156-44.453125-37.933593-72.570313-29.496093l-31.847656 9.550781 42.929688 6.136719c8.621093 1.226562 16.886718 4.246093 24.269531 8.863281zm0 0" fill="#58af7a"/><path d="m307.359375 134.574219 2.648437-32c2.40625-29.265625 24.875-52.90625 53.984376-56.796875l32.953124-4.410156-36.585937 23.265624c-7.351563 4.671876-13.644531 10.828126-18.472656 18.078126zm0 0" fill="#58af7a"/><path d="m120 360c-4.417969 0-8-3.582031-8-8v-184c0-4.417969 3.582031-8 8-8s8 3.582031 8 8v184c0 4.417969-3.582031 8-8 8zm0 0" fill="#ffbc49"/><g fill="#e99525"><path d="m192 416c-4.417969 0-8-3.582031-8-8-.035156-12.371094 4.882812-24.246094 13.65625-32.96875l4.6875-4.6875c3.140625-3.03125 8.128906-2.988281 11.214844.097656 3.085937 3.085938 3.128906 8.074219.097656 11.214844l-4.6875 4.6875c-5.765625 5.730469-8.996094 13.527344-8.96875 21.65625 0 4.417969-3.582031 8-8 8zm0 0"/><path d="m248 464c-2.121094 0-4.15625-.84375-5.65625-2.34375l-6.113281-6.113281c-13.164063-13.070313-17.75-32.492188-11.8125-50.070313 1.394531-4.199218 5.929687-6.46875 10.125-5.074218 4.199219 1.398437 6.46875 5.933593 5.074219 10.128906-3.988282 11.832031-.902344 24.902344 7.957031 33.695312l6.113281 6.121094c2.292969 2.292969 2.972656 5.742188 1.726562 8.730469-1.246093 2.992187-4.171874 4.9375-7.414062 4.925781zm0 0"/><path d="m160 376c-1.289062.003906-2.558594-.3125-3.695312-.910156-3.917969-2.046875-5.4375-6.878906-3.394532-10.792969l7.722656-14.785156c2.042969-3.917969 6.878907-5.4375 10.800782-3.390625 3.917968 2.042968 5.4375 6.878906 3.390625 10.800781l-7.71875 14.78125c-1.382813 2.644531-4.121094 4.300781-7.105469 4.296875zm0 0"/></g></svg>