<?xml version="1.0" encoding="iso-8859-1"?>
<!-- Generator: Adobe Illustrator 21.0.0, SVG Export Plug-In . SVG Version: 6.00 Build 0)  -->
<svg version="1.1" id="Capa_1" xmlns="http://www.w3.org/2000/svg" xmlns:xlink="http://www.w3.org/1999/xlink" x="0px" y="0px"
	 viewBox="0 0 512.002 512.002" style="enable-background:new 0 0 512.002 512.002;" xml:space="preserve">
<g>
	<g>
		<path style="fill:#00C56E;" d="M322.941,149.101c-17.974-0.5-33.791,0.352-47.379,7.07c-7.139,3.53-13.663,8.678-19.56,16.101
			c-5.48-6.898-11.502-11.833-18.055-15.329c-13.921-7.425-30.243-8.362-48.884-7.843c-12.534,0-24.234,4.99-34.216,13.025
			c-19.338,15.568-32.226,42.565-32.226,66.849c0,66.307,38.12,86.426,38.12,177.588c0,15.532,3.767,30.227,10.433,43.215
			c0.001,0.001,0.001,0.003,0.001,0.004c11.594,22.589,31.954,40.017,56.511,47.718h56.628c24.559-7.702,44.92-25.133,56.513-47.723
			c6.666-12.989,10.433-27.684,10.433-43.215c0-91.163,38.12-111.282,38.12-177.588c0-24.283-12.888-51.282-32.226-66.849
			C347.174,154.091,335.475,149.101,322.941,149.101z"/>
		<path style="fill:#00C56E;" d="M160.74,406.564c0-91.163-38.12-111.282-38.12-177.588c0-24.283,12.888-51.281,32.229-66.847
			c-14.292-8.309-31.196-9.35-50.615-8.81c-36.818,0-66.441,43.058-66.441,79.874c0,24.583,6.568,42.996,14.832,61.078
			c4.235,9.267,8.917,18.45,13.39,28.331c10.337,22.842,19.554,49.425,19.554,89.466c-5.793,84.518,108.129,110.392,85.608,37.715
			C164.508,436.793,160.74,422.097,160.74,406.564z"/>
		<path style="fill:#00C56E;" d="M351.262,406.564c0,15.532-3.767,30.227-10.433,43.215c-22.529,72.683,91.399,46.809,85.607-37.71
			c0-91.163,47.774-112.57,47.774-178.877c0-36.817-29.624-79.873-66.441-79.873c-19.42-0.54-36.322,0.501-50.615,8.809
			c19.339,15.568,32.229,42.563,32.23,66.847C389.382,295.282,351.262,315.401,351.262,406.564z"/>
		<path style="fill:#00C56E;" d="M256.001,172.273c5.896-7.421,12.417-12.571,19.56-16.101
			c-3.713-13.156-9.503-27.149-15.629-39.775c-7.786-16.046-16.115-29.883-21.414-36.987c-12.096-16.211-43.44-3.921-23.648,25.443
			c5.426,8.049,15.801,30.712,23.076,52.091C244.499,160.44,250.52,165.374,256.001,172.273z"/>
	</g>
	<path style="fill:#87DD60;" d="M385.541,14.457c1.305,30.858-11.871,61.857-38.157,82.198
		c-26.285,20.341-59.599,25.319-89.142,16.313c-1.306-30.858,11.87-61.858,38.156-82.199
		C322.684,10.429,355.998,5.452,385.541,14.457z"/>
</g>
<path d="M316.395,381.853c-5.648-0.241-10.364,4.111-10.607,9.726l-0.023,0.552c-0.243,5.615,4.111,10.363,9.727,10.606
	c0.149,0.006,0.298,0.009,0.447,0.009c5.417,0,9.923-4.271,10.158-9.736l0.023-0.549
	C326.363,386.846,322.01,382.096,316.395,381.853z"/>
<path d="M317.182,372.964c0.487,0.07,0.973,0.104,1.453,0.104c4.982,0,9.335-3.662,10.061-8.737c1.664-11.635,4.12-23.151,7.3-34.23
	c3.411-11.878,7.682-22.996,12.202-34.767c1.972-5.133,4.01-10.441,5.965-15.8c1.925-5.28-0.795-11.12-6.075-13.046
	c-5.279-1.924-11.12,0.795-13.047,6.075c-1.894,5.196-3.901,10.421-5.842,15.474c-4.478,11.66-9.11,23.717-12.765,36.447
	c-3.437,11.973-6.09,24.41-7.886,36.966C307.753,367.013,311.618,372.168,317.182,372.964z"/>
<path d="M484.385,233.193c0-41.595-33.394-89.938-76.471-90.05c-19.253-0.529-35.389,0.565-49.824,7.076
	c-10.417-7.023-22.287-11.26-35.001-11.293c-13.771-0.379-27.841-0.151-41.103,3.814c-3.797-10.974-8.615-22.095-13.633-32.316
	c-0.512-27.88,12.194-54.519,34.274-71.606c20.67-15.996,47.388-21.941,72.748-16.493c-1.087,25.92-13.548,50.288-34.219,66.283
	c-6.533,5.055-13.694,9.16-21.289,12.2l-0.715,0.282c-5.241,2.029-7.845,7.922-5.817,13.164c2.029,5.242,7.921,7.847,13.164,5.817
	c0.315-0.122,0.63-0.246,0.938-0.37c9.342-3.74,18.148-8.785,26.175-14.996c27.849-21.551,43.586-55.448,42.096-90.675
	c-0.183-4.315-3.069-8.045-7.2-9.304c-33.732-10.283-70.491-3.553-98.337,17.997c-19.016,14.717-32.379,35.191-38.471,57.912
	c-1.824-2.822-3.523-5.292-5.028-7.308c-8.99-12.05-26.046-14.943-38.019-6.449c-9.878,7.009-16.388,22.65-2.222,43.664
	c3.308,4.908,8.986,16.55,14.509,30.056c-10.511-1.889-21.357-1.964-32.027-1.671c-12.714,0.034-24.584,4.271-35.001,11.293
	c-14.436-6.512-30.574-7.607-49.824-7.075c-43.077,0.112-76.472,48.456-76.472,90.05c0,17.423,3.063,33.577,9.638,50.834
	c2.001,5.253,7.879,7.885,13.132,5.887c5.251-2.001,7.887-7.88,5.886-13.132c-5.742-15.074-8.304-28.517-8.304-43.589
	c0-15.902,6.452-33.651,17.256-47.478c6.485-8.299,20.177-22.22,39.01-22.22c0.095,0,0.189-0.001,0.283-0.004
	c12.284-0.34,22.916,0.009,32.135,2.277c-1.294,1.522-2.531,3.108-3.739,4.72c-0.316,0.422-0.634,0.845-0.944,1.272
	c-0.378,0.52-0.751,1.041-1.118,1.569c-0.493,0.706-0.976,1.421-1.451,2.14c-0.279,0.422-0.558,0.845-0.83,1.272
	c-0.547,0.855-1.08,1.719-1.602,2.59c-0.19,0.316-0.382,0.631-0.568,0.95c-0.59,1.007-1.161,2.027-1.719,3.054
	c-0.11,0.203-0.222,0.403-0.331,0.606c-0.622,1.164-1.22,2.34-1.797,3.526c-0.041,0.083-0.082,0.165-0.123,0.248
	c-1.261,2.606-2.412,5.26-3.45,7.945c-0.004,0.011-0.008,0.021-0.012,0.033c-0.516,1.336-1.001,2.679-1.46,4.03
	c-0.014,0.043-0.028,0.087-0.043,0.129c-0.445,1.317-0.862,2.639-1.251,3.966c-0.022,0.075-0.043,0.15-0.065,0.225
	c-0.377,1.295-0.726,2.595-1.046,3.897c-0.025,0.102-0.05,0.203-0.074,0.304c-0.311,1.279-0.595,2.561-0.853,3.843
	c-0.023,0.118-0.048,0.236-0.07,0.354c-0.249,1.271-0.471,2.543-0.666,3.814c-0.019,0.123-0.039,0.245-0.057,0.368
	c-0.19,1.279-0.351,2.556-0.484,3.831c-0.011,0.107-0.024,0.215-0.035,0.322c-0.131,1.307-0.232,2.61-0.302,3.91
	c-0.004,0.07-0.009,0.141-0.013,0.212c-0.07,1.366-0.107,2.725-0.107,4.078c0,32.432,8.495,54.24,17.488,77.329
	c10.143,26.041,20.632,52.969,20.632,100.258c0,0.988,0.016,1.972,0.044,2.954c0.004,0.155,0.012,0.308,0.017,0.463
	c0.028,0.877,0.066,1.752,0.116,2.624c0.003,0.053,0.007,0.106,0.01,0.16c0.856,14.679,4.727,28.56,11.003,41.033
	c3.551,12.049,2.824,20.935-2.082,25.078c-5.727,4.835-17.886,4.077-29.567-1.843c-18.123-9.184-36.673-30.889-34.386-64.267
	c0.016-0.231,0.023-0.463,0.023-0.696c0-26.449-3.753-49.436-11.811-72.342c-0.649-1.844-1.335-3.714-2.039-5.559
	c-2.006-5.251-7.889-7.883-13.136-5.878c-5.25,2.005-7.882,7.885-5.878,13.136c0.641,1.679,1.265,3.379,1.854,5.055
	c7.238,20.573,10.627,41.315,10.659,65.252c-2.81,43.095,21.643,71.358,45.514,83.454c9.576,4.853,19.204,7.272,27.991,7.272
	c9.252,0,17.57-2.682,23.905-8.032c3.012-2.543,6.671-6.692,9.038-12.99c19.063,18.884,45.272,30.565,74.16,30.565
	c28.889,0,55.097-11.681,74.16-30.565c2.368,6.298,6.027,10.447,9.039,12.99c6.337,5.35,14.651,8.032,23.904,8.032
	c8.786,0,18.417-2.42,27.991-7.272c23.871-12.097,48.323-40.359,45.514-83.454c0.062-46.672,13.105-73.739,25.719-99.918
	C473.672,288.273,484.385,266.037,484.385,233.193z M223.308,99.165c-4.912-7.287-6.041-13.446-2.877-15.69
	c2.251-1.596,7.084-1.795,9.931,2.021c4.304,5.769,11.508,17.512,18.595,31.624c0.115,0.257,0.243,0.508,0.38,0.753
	c5.2,10.424,10.302,22.092,14.123,33.582c-2.547,1.731-5.036,3.688-7.457,5.904c-3.125-2.86-6.364-5.291-9.696-7.357
	C239.231,129.999,229.416,108.228,223.308,99.165z M256.001,491.648c-32.818,0-61.334-18.688-75.522-45.969
	c-0.08-0.183-0.16-0.367-0.251-0.546c-1.839-3.584-3.402-7.251-4.698-10.992c-0.127-0.369-0.254-0.739-0.377-1.111
	c-0.189-0.573-0.379-1.146-0.556-1.723c-0.307-1.008-0.597-2.025-0.868-3.049c-0.082-0.311-0.162-0.623-0.24-0.935
	c-0.299-1.19-0.583-2.385-0.831-3.595c-0.009-0.046-0.017-0.092-0.026-0.136c-0.273-1.335-0.515-2.681-0.724-4.039
	c-0.004-0.023-0.008-0.048-0.012-0.071c-0.202-1.324-0.369-2.658-0.51-4.001c-0.015-0.148-0.032-0.295-0.046-0.444
	c-0.129-1.298-0.229-2.605-0.299-3.92c-0.009-0.17-0.014-0.34-0.022-0.51c-0.063-1.341-0.103-2.688-0.103-4.045
	c0-51.113-11.698-81.147-22.02-107.646c-8.639-22.18-16.1-41.335-16.1-69.943c0-0.869,0.027-1.746,0.065-2.625
	c0.011-0.263,0.024-0.525,0.04-0.789c0.039-0.697,0.092-1.396,0.155-2.097c0.041-0.446,0.087-0.891,0.136-1.339
	c0.056-0.507,0.116-1.014,0.183-1.522c0.071-0.53,0.148-1.061,0.231-1.594c0.024-0.157,0.053-0.314,0.078-0.471
	c3.017-18.31,13.504-37.179,27.546-48.482c0.067-0.054,0.123-0.117,0.188-0.172c7.12-5.714,16.478-10.606,27.642-10.606
	c0.095,0,0.189-0.001,0.283-0.004c2.552-0.071,5.018-0.111,7.402-0.111c23.308,0,38.863,3.801,51.286,19.44
	c1.931,2.43,4.864,3.847,7.968,3.847s6.037-1.416,7.968-3.847c13.696-17.239,31.194-20.088,58.689-19.329
	c0.095,0.002,0.189,0.004,0.283,0.004c11.165,0,20.522,4.894,27.642,10.606c0.065,0.055,0.122,0.118,0.188,0.172
	c14.043,11.303,24.529,30.173,27.546,48.483c0.025,0.157,0.054,0.314,0.077,0.471c0.084,0.532,0.16,1.063,0.231,1.594
	c0.067,0.508,0.127,1.016,0.183,1.522c0.05,0.447,0.096,0.893,0.136,1.339c0.062,0.701,0.115,1.4,0.155,2.097
	c0.015,0.264,0.029,0.526,0.04,0.789c0.039,0.879,0.065,1.756,0.065,2.625c0,28.608-7.461,47.763-16.1,69.943
	c-10.322,26.498-22.02,56.532-22.02,107.646c0,1.357-0.04,2.705-0.103,4.047c-0.008,0.169-0.013,0.338-0.022,0.507
	c-0.07,1.316-0.17,2.624-0.299,3.924c-0.014,0.146-0.029,0.291-0.045,0.436c-0.14,1.345-0.308,2.683-0.511,4.009
	c-0.003,0.019-0.006,0.038-0.009,0.057c-0.21,1.366-0.454,2.721-0.728,4.064c-0.008,0.038-0.014,0.076-0.022,0.115
	c-0.249,1.215-0.534,2.418-0.835,3.613c-0.077,0.303-0.154,0.607-0.234,0.91c-0.272,1.032-0.565,2.055-0.874,3.071
	c-0.174,0.566-0.359,1.129-0.545,1.691c-0.127,0.387-0.259,0.771-0.392,1.156c-1.295,3.733-2.855,7.393-4.691,10.97
	c-0.09,0.175-0.167,0.356-0.246,0.536C317.341,472.957,288.822,491.648,256.001,491.648z M416.258,412.069
	c0,0.232,0.008,0.464,0.023,0.696c2.288,33.378-16.262,55.084-34.386,64.267c-11.68,5.917-23.84,6.678-29.566,1.843
	c-4.908-4.144-5.634-13.029-2.081-25.082c6.276-12.473,10.147-26.353,11.001-41.031c0.003-0.052,0.007-0.105,0.01-0.157
	c0.05-0.873,0.087-1.748,0.116-2.626c0.005-0.154,0.013-0.307,0.017-0.462c0.027-0.982,0.044-1.966,0.044-2.954
	c0-47.29,10.489-74.218,20.632-100.258c8.994-23.089,17.488-44.898,17.488-77.329c0-1.352-0.037-2.713-0.107-4.078
	c-0.004-0.07-0.009-0.141-0.013-0.212c-0.07-1.299-0.17-2.603-0.302-3.91c-0.01-0.107-0.023-0.215-0.035-0.322
	c-0.133-1.275-0.294-2.552-0.484-3.831c-0.018-0.123-0.038-0.245-0.057-0.368c-0.194-1.271-0.416-2.543-0.665-3.814
	c-0.023-0.118-0.047-0.236-0.07-0.354c-0.256-1.282-0.54-2.563-0.853-3.843c-0.024-0.102-0.049-0.202-0.074-0.304
	c-0.321-1.302-0.671-2.601-1.046-3.897c-0.022-0.075-0.043-0.15-0.065-0.225c-0.389-1.327-0.805-2.649-1.251-3.966
	c-0.014-0.043-0.029-0.087-0.043-0.129c-0.458-1.35-0.944-2.695-1.46-4.03c-0.004-0.011-0.008-0.021-0.012-0.033
	c-1.038-2.686-2.189-5.34-3.45-7.945c-0.04-0.083-0.082-0.165-0.123-0.248c-0.577-1.185-1.175-2.362-1.797-3.526
	c-0.108-0.204-0.221-0.404-0.33-0.606c-0.557-1.027-1.128-2.046-1.719-3.054c-0.186-0.319-0.378-0.634-0.568-0.95
	c-0.523-0.871-1.054-1.735-1.602-2.59c-0.273-0.427-0.552-0.85-0.83-1.272c-0.475-0.719-0.959-1.434-1.451-2.14
	c-0.367-0.528-0.741-1.049-1.118-1.569c-0.31-0.427-0.627-0.85-0.944-1.272c-1.209-1.612-2.444-3.197-3.74-4.72
	c9.219-2.268,19.853-2.617,32.136-2.277c0.095,0.003,0.188,0.004,0.283,0.004c18.833,0,32.523,13.922,39.009,22.22
	c10.805,13.827,17.256,31.576,17.256,47.478c0,28.197-9.287,47.469-20.039,69.786C430.993,329.962,416.258,360.543,416.258,412.069z
	"/>
<path d="M294.275,106.809l-0.404,0.032c-5.604,0.432-9.772,5.323-9.34,10.927c0.411,5.337,4.892,9.391,10.159,9.391
	c0.263,0,0.527-0.01,0.794-0.031l0.438-0.035c5.601-0.454,9.774-5.364,9.32-10.965C304.786,110.528,299.901,106.346,294.275,106.809
	z"/>
<circle cx="61.637" cy="312.973" r="10.176"/>
<g>
</g>
<g>
</g>
<g>
</g>
<g>
</g>
<g>
</g>
<g>
</g>
<g>
</g>
<g>
</g>
<g>
</g>
<g>
</g>
<g>
</g>
<g>
</g>
<g>
</g>
<g>
</g>
<g>
</g>
</svg>
