<svg height="460pt" viewBox="-28 0 460 460.80337" width="460pt" xmlns="http://www.w3.org/2000/svg"><path d="m327.8125 111.488281 77.601562-95.488281-16-16-101.914062 121.214844c-11.492188 13.738281-29.277344 20.542968-47.007812 17.984375l-.292969-.046875c-22.136719-3.363282-41.136719-17.539063-50.664063-37.800782-2.3125-4.878906-4.585937-9.832031-6.601562-14.457031-8.027344-18.453125-26.863282-29.796875-46.925782-28.261719l-16 1.222657c-17.007812 1.308593-31.992187 11.679687-39.203124 27.136719l-50.261719 107.71875c-14.097657 30.207031-24.023438 62.1875-29.503907 95.066406-2.289062 13.800781 1.65625 27.90625 10.773438 38.519531l5.699219 6.648437c9.804687 11.4375 24.480469 17.515626 39.503906 16.359376l21.671875-1.664063c19.15625-1.488281 37.304688 8.785156 45.886719 25.976563 2.398437 4.789062 3.960937 9.953124 4.625 15.269531l1.09375 8.800781c2.449219 19.574219 13.066406 37.199219 29.226562 48.511719 20.972657 14.671875 48.296875 16.6875 71.199219 5.25l22.808594-11.410157c15.453125-7.726562 30.28125-16.652343 44.34375-26.695312l87.480468-62.542969c10.308594-7.371093 17.070313-18.714843 18.644532-31.289062 2.128906-17.046875-5.554688-33.828125-19.847656-43.359375l-37.375-24.90625c-18.203126-12.132813-30.847657-30.996094-35.152344-52.445313l-2.613282-13.105469c-5.410156-26.9375 1.488282-54.878906 18.804688-76.207031zm0 0" fill="#77c974"/><g fill="#389a6b"><path d="m301.886719 354.6875-9.921875-27.765625c-19.765625-55.417969-24.941406-114.984375-15.023438-172.976563-56.566406 30.1875-120.460937 43.925782-184.441406 39.65625l-23.613281-1.601562 1.054687-16 23.625 1.601562c61.472656 4.128907 122.863282-9.183593 177.101563-38.402343l18.953125-10.207031c3.066406-1.671876 6.863281-1.160157 9.375 1.261718 2.515625 2.421875 3.171875 6.195313 1.617187 9.320313l-7.488281 14.96875c-9.964844 55.929687-5.175781 113.488281 13.890625 167l9.910156 27.769531zm0 0"/><path d="m245.484375 377.054688c-9.5-71.332032-1.675781-143.902344 22.816406-211.566407-58.167969 38.953125-123.660156 65.644531-192.488281 78.449219l-20.910156 3.917969-2.960938-15.710938 20.921875-3.929687c69.523438-12.929688 135.507813-40.472656 193.597657-80.800782l14.402343-9.980468c2.9375-2.050782 6.878907-1.894532 9.648438.378906 2.765625 2.269531 3.6875 6.105469 2.253906 9.386719-30.835937 71.699219-41.691406 150.40625-31.421875 227.777343zm0 0"/><path d="m197.414062 408.503906c-4.203124-69.523437 10.242188-138.910156 41.839844-200.984375-51.054687 48.90625-114.945312 82.308594-184.238281 96.320313l-3.203125-15.679688c76.089844-15.359375 145.101562-55.109375 196.570312-113.214844l39.03125-44.242187c2.78125-3.175781 7.550782-3.640625 10.894532-1.070313 3.347656 2.574219 4.117187 7.304688 1.761718 10.808594l-24.855468 37.285156c-45.03125 67.839844-66.726563 148.503907-61.800782 229.777344zm0 0"/><path d="m342.660156 316.296875-12-18.816406c-28.617187-44.925781-44.265625-96.886719-45.222656-150.144531l-13.496094 4.800781c-57.867187 20.773437-122.007812 14.417969-174.671875-17.304688l8.242188-13.710937c48.558593 29.242187 107.695312 35.101562 161.046875 15.949218l24.136718-8.621093c2.457032-.890625 5.191407-.523438 7.324219.980469 2.136719 1.507812 3.402344 3.957031 3.394531 6.570312v6c-.023437 52.035156 14.816407 102.996094 42.777344 146.878906l12 18.824219zm0 0"/><path d="m157.414062 384.800781-15.921874-1.601562c5.339843-53.757813 26.152343-104.816407 59.921874-146.984375l77.777344-97.214844 12.496094 10-77.792969 97.214844c-31.839843 39.757812-51.457031 87.898437-56.480469 138.585937zm0 0"/></g></svg>