<svg height="416pt" viewBox="-44 0 416 416.68" width="416pt" xmlns="http://www.w3.org/2000/svg"><path d="m126.429688 410.816406c-35.273438-7.050781-67.664063-24.386718-93.097657-49.824218l-16.992187-16.992188h32c-25.925782-25.921875-42.46875-59.75-47.015625-96.128906l-.984375-7.871094 40 8-7.710938-12.335938c-20.226562-32.367187-23.320312-72.582031-8.289062-107.664062l16 24v-18.742188c0-28.976562 11.511718-56.769531 32-77.257812l8 32 1.273437-2.976562c14.832031-34.601563 39.40625-64.140626 70.726563-85.023438l7.511718 5.007812c25.832032 17.222657 43.382813 44.367188 48.488282 74.992188l16-24c15.578125 20.773438 24 46.035156 24 72v8l10.6875-7.128906c8.316406-5.542969 13.3125-14.875 13.3125-24.871094l7.855468 13.753906c15.617188 27.324219 21.320313 59.203125 16.144532 90.246094 10.242187 0 20.070312-4.070312 27.3125-11.3125l4.6875-4.6875-4 40.199219c-2.609375 26.039062-12.292969 50.871093-28 71.800781h24l-21.175782 42.398438c-7.128906 14.265624-17.132812 26.902343-29.382812 37.113281l-.640625.488281c-18.722656 15.632812-41.765625 25.195312-66.054687 27.40625l-24.480469 2.226562c-17.4375 1.578126-35.011719.628907-52.175781-2.816406zm0 0" fill="#389a6b"/><g fill="#58af7a"><path d="m168.339844 384h-23.015625c-22.5625-.003906-45.039063-2.773438-66.929688-8.238281l3.890625-15.523438c20.617188 5.15625 41.789063 7.761719 63.039063 7.761719h21.894531l5.671875-1.601562c31.503906-8.964844 60.894531-24.140626 86.449219-44.628907l10 12.496094c-27.210938 21.8125-58.511719 37.96875-92.054688 47.519531l-6.753906 1.917969c-.710938.203125-1.449219.300781-2.191406.296875zm0 0"/><path d="m171.234375 416.679688-22.65625-54.511719c-29.582031-70.996094-38.566406-148.886719-25.917969-224.753907l13.792969-82.734374 15.773437 2.640624-13.78125 82.726563c-12.15625 72.910156-3.523437 147.769531 24.902344 216l22.664063 54.511719zm0 0"/><path d="m136.339844 320h-1.351563c-31.976562 0-63.351562-8.691406-90.769531-25.144531l8.242188-13.710938c24.929687 14.953125 53.457031 22.855469 82.527343 22.855469h.800781l28.871094-4.128906c33.703125-4.816406 64.9375-20.429688 89.015625-44.503906l13.023438-13.023438 11.3125 11.3125-13.023438 13.023438c-26.519531 26.527343-60.929687 43.734374-98.0625 49.03125l-29.433593 4.210937c-.382813.054687-.765626.082031-1.152344.078125zm0 0"/><path d="m167.042969 240h-38.703125c-.65625 0-1.308594-.082031-1.945313-.238281l-29.253906-7.320313c-24.300781-6.066406-44.734375-22.457031-55.929687-44.867187l14.320312-7.148438c9.101562 18.226563 25.722656 31.558594 45.488281 36.484375l28.304688 7.089844h37.71875c31.035156.003906 60.261719-14.609375 78.882812-39.441406l4-5.359375 12.796875 9.601562-4 5.359375c-21.640625 28.859375-55.605468 45.839844-91.679687 45.839844zm0 0"/><path d="m128.339844 160c-1.019532 0-2.03125-.195312-2.976563-.574219l-13.214843-5.289062c-18.957032-7.554688-35.164063-20.703125-46.464844-37.695313l13.3125-8.882812c9.503906 14.300781 23.144531 25.367187 39.097656 31.722656l10.8125 4.335938 33.503906-8.417969c17.632813-4.390625 34.375-11.796875 49.488282-21.886719l8.882812 13.3125c-16.644531 11.101562-35.074219 19.253906-54.480469 24.101562l-36 9c-.640625.171876-1.296875.265626-1.960937.273438zm0 0"/></g></svg>