<svg height="471pt" viewBox="-105 0 471 471.50441" width="471pt" xmlns="http://www.w3.org/2000/svg"><g fill="#77c974"><path d="m131.03125 338.160156-36.203125-28.960937c-25.347656-20.277344-61.582031-19.480469-86.015625 1.898437-5.472656 4.789063-8.597656 11.71875-8.558594 18.992188.035156 7.269531 3.230469 14.167968 8.753906 18.902344l1.597657 1.34375c19.796875 16.96875 47.632812 20.921874 71.367187 10.136718zm0 0"/><path d="m127 220.113281-25.601562-27.882812c-17.925782-19.523438-47.265626-23.398438-69.648438-9.199219-5.015625 3.183594-8.402344 8.386719-9.277344 14.261719-.878906 5.875.839844 11.839843 4.710938 16.347656l1.09375 1.28125c13.859375 16.160156 35.832031 22.816406 56.328125 17.070313zm0 0"/><path d="m131.03125 338.160156 36.191406-28.960937c25.351563-20.28125 61.589844-19.480469 86.023438 1.898437 5.472656 4.789063 8.59375 11.71875 8.558594 18.992188-.039063 7.269531-3.230469 14.167968-8.75 18.902344l-1.601563 1.34375c-19.792969 16.96875-47.628906 20.921874-71.367187 10.136718zm0 0"/><path d="m126.246094 336.847656 42.953125 17.433594c30.085937 12.214844 47.09375 44.230469 40.375 76-1.503907 7.113281-6.027344 13.226562-12.390625 16.746094-6.363282 3.523437-13.941406 4.109375-20.769532 1.605468l-1.945312-.71875c-24.480469-8.976562-41.527344-31.339843-43.703125-57.320312zm0 0"/><path d="m157.804688 88.746094 31.761718-40.9375c.761719-.972656 1.449219-2.003906 2.054688-3.082032l.914062-1.597656c4.691406-8.234375 13.476563-13.28125 22.953125-13.1875 9.480469.09375 18.164063 5.308594 22.695313 13.636719 4.585937 8.425781 4.183594 18.691406-1.050782 26.734375-9.246093 14.214844-25.484374 22.285156-42.398437 21.078125zm0 0"/><path d="m132.03125 220.664062 35.925781-46.304687c.859375-1.105469 1.636719-2.269531 2.328125-3.488281l1.03125-1.796875c5.328125-9.292969 15.257813-14.980469 25.96875-14.878907 10.710938.105469 20.527344 5.988282 25.671875 15.382813 5.191407 9.53125 4.75 21.136719-1.152343 30.246094-10.46875 16.089843-28.851563 25.226562-48 23.847656zm0 0"/><path d="m159.949219 90.578125 5.855469-39.058594c.210937-1.214843 3.503906-14.398437 3.890624-15.582031l.566407-1.753906c2.921875-9.015625.734375-18.90625-5.71875-25.84375-6.453125-6.941406-16.15625-9.84375-25.359375-7.585938-9.324219 2.28125-16.644532 9.496094-19.066406 18.78125-4.289063 16.4375.691406 33.902344 13.007812 45.601563zm0 0"/><path d="m157.804688 92.769531-37.871094-35.351562c-.902344-.847657-1.746094-1.757813-2.519532-2.722657l-1.152343-1.421874c-5.945313-7.382813-15.421875-10.964844-24.761719-9.363282-9.34375 1.597656-17.085938 8.128906-20.238281 17.066406-3.183594 9.054688-1.152344 19.125 5.296875 26.230469 11.402344 12.570313 28.730468 17.953125 45.246094 14.058594zm0 0"/></g><path d="m156.300781 320.648438-21.742187 5.433593c-.449219-10.632812-.753906-21.265625-.753906-31.867187.023437-24.179688 1.507812-48.335938 4.449218-72.335938l16.40625-2.734375c20.324219-3.421875 38.335938-15.066406 49.800782-32.191406l-13.3125-8.878906c-8.996094 13.453125-23.148438 22.601562-39.109376 25.285156l-11.519531 1.921875c3.296875-22.222656 7.839844-44.238281 13.597657-65.953125l11.464843-48.800781-15.582031-3.65625-11.394531 48.5625c-6.132813 23.082031-10.914063 46.503906-14.320313 70.144531l-21.183594-7.066406c-15.894531-5.300781-32.539062-8-49.296874-8v16c15.035156.007812 29.972656 2.441406 44.234374 7.199219l24.128907 8c-2.878907 24.0625-4.335938 48.273437-4.363281 72.503906 0 9.9375.257812 19.90625.640624 29.875l-7.199218-2.074219c-27.023438-7.6875-55.488282-8.832031-83.039063-3.34375l3.136719 15.679687c25.035156-4.984374 50.902344-3.933593 75.453125 3.058594l12.410156 3.550782c1.007813 16.894531 2.535157 33.757812 4.621094 50.464843l10.011719 80.078125 15.871094-1.984375-10.007813-80.078125c-1.730469-13.800781-3.007813-27.722656-4-41.671875l5.992187 5.992188c21.242188 21.167969 35.292969 48.472656 40.175782 78.0625l15.773437-2.625c-5.414062-32.882813-21.027343-63.230469-44.636719-86.75l-3.601562-3.601563 10.71875-2.6875c24.921875-6.171875 50.894531-6.789062 76.082031-1.808594l3.136719-15.679687c-27.488281-5.460937-55.84375-4.785156-83.042969 1.976563zm0 0" fill="#389a6b"/></svg>