<?xml version="1.0" encoding="iso-8859-1"?>
<!-- Generator: Adobe Illustrator 21.0.0, SVG Export Plug-In . SVG Version: 6.00 Build 0)  -->
<svg version="1.1" id="Capa_1" xmlns="http://www.w3.org/2000/svg" xmlns:xlink="http://www.w3.org/1999/xlink" x="0px" y="0px"
	 viewBox="0 0 511.997 511.997" style="enable-background:new 0 0 511.997 511.997;" xml:space="preserve">
<g>
	<g>
		<path style="fill:#F3F3C2;" d="M224.148,126.013c-25.159,50.737-4.075,142.339,42.218,217.342
			c-0.005,0.011-0.011,0.023-0.016,0.034c5.473,8.865,11.298,17.498,17.441,25.804c15.04,20.336,31.986,38.71,50.328,53.73
			c14.33,11.734,29.512,21.419,45.305,28.392c17.374,7.671,35.485,12.059,54.012,12.277
			c-26.763-44.436-31.034-110.115-34.839-174.197c-5.84-98.334-10.584-192.909-93.821-201.195c-0.8-0.08-1.595-0.152-2.384-0.217
			c-8.634,1.951-17.578,2.184-26.286,0.697c-25.23,3.898-42.137,17.489-51.974,37.332
			C224.137,126.013,224.143,126.013,224.148,126.013z"/>
		<path style="fill:#F3F3C2;" d="M240.746,294.547c-27.501-62.79-36.495-128.431-16.615-168.534
			c-2.762-0.098-5.607-0.097-8.536,0.01c0.005,0.133,0.01,0.266,0.015,0.399c-8.787,3.445-18.298,4.848-27.753,4.048
			c-45.778,14.329-61.422,61.96-68.553,120.471C109.169,334.098,116.231,439.235,78.43,502
			c28.307-0.334,55.645-10.401,80.862-27.044c23.817-15.719,45.742-37.304,64.804-62.095c16.414-21.347,30.705-45.071,42.255-69.471
			C256.641,327.663,248.043,311.205,240.746,294.547z"/>
	</g>
	<g>
		<path style="fill:#87DD60;" d="M187.855,130.47c9.456,0.801,18.967-0.603,27.753-4.048c-0.005-0.133-0.01-0.266-0.017-0.399
			c-0.801-19.133-10.493-37.614-27.723-48.926c-17.35-11.388-38.332-12.872-56.289-5.833c0.683,19.274,10.39,37.934,27.74,49.324
			C168.181,126.404,177.988,129.637,187.855,130.47z"/>
		<path style="fill:#87DD60;" d="M276.104,88.68c20.79,3.549,42.925-2.7,58.974-18.748c16.048-16.048,22.296-38.184,18.748-58.974
			c-20.79-3.549-42.927,2.699-58.975,18.747C278.803,45.754,272.555,67.89,276.104,88.68z"/>
	</g>
</g>
<path d="M372.016,160.636l9.542-2.993l-9.539,3.003c1.344,4.268,5.286,7,9.536,7c0.995,0,2.007-0.149,3.006-0.465
	c5.268-1.658,8.194-7.273,6.536-12.541c-0.017-0.053-0.06-0.186-0.077-0.238c-1.747-5.239-7.425-8.117-12.664-6.37
	C373.116,149.779,370.27,155.397,372.016,160.636z"/>
<path d="M180.829,319.463l-32.803-5.319c-5.451-0.884-10.587,2.819-11.472,8.27c-0.884,5.451,2.819,10.588,8.271,11.472
	l32.803,5.319c0.542,0.088,1.081,0.13,1.613,0.13c4.818,0,9.063-3.491,9.859-8.4C189.983,325.484,186.281,320.347,180.829,319.463z"
	/>
<path d="M358.356,205.108c-0.757-5.471-5.807-9.294-11.275-8.535l-34.193,4.729c-5.471,0.756-9.293,5.805-8.536,11.275
	c0.692,5.006,4.978,8.631,9.893,8.631c0.456,0,0.918-0.031,1.382-0.096l34.193-4.729
	C355.29,215.628,359.112,210.579,358.356,205.108z"/>
<path d="M273.317,305.963c1.268,4.375,5.263,7.22,9.6,7.22c0.921,0,1.859-0.129,2.788-0.398l33.734-9.775
	c5.305-1.537,8.359-7.083,6.822-12.388c-1.538-5.305-7.086-8.36-12.388-6.821l-33.734,9.775
	C274.834,295.113,271.78,300.659,273.317,305.963z"/>
<path d="M435.594,313.049c4.077,0,7.907-2.513,9.391-6.563c1.9-5.187-0.765-10.93-5.95-12.829l-30.84-11.296
	c-2.082-35.05-4.167-68.177-9.809-98.099l-0.293-1.536c-1.051-5.421-6.297-8.962-11.72-7.914c-5.422,1.051-8.965,6.299-7.915,11.721
	l0.272,1.428c4.954,26.273,7.085,55.719,8.978,86.897l-14.726-5.394c-5.189-1.901-10.93,0.765-12.829,5.95
	c-1.899,5.186,0.765,10.93,5.95,12.829l22.906,8.39c3.351,55.638,7.629,112.059,27.162,155.438
	c-8.677-1.411-17.369-3.806-26.026-7.118l1.678-15.996c0.576-5.492-3.409-10.412-8.902-10.988
	c-5.494-0.575-10.413,3.409-10.989,8.902l-0.964,9.192c-10-5.457-19.899-12.152-29.617-20.03c-0.065-0.068-0.122-0.141-0.19-0.208
	c-0.538-0.534-1.125-0.987-1.741-1.373c-13.336-11.056-26.315-24.351-38.726-39.744l19.614-5.683
	c5.304-1.537,8.359-7.083,6.822-12.388c-1.537-5.304-7.085-8.358-12.388-6.821l-26.968,7.814
	c-4.426-6.242-8.681-12.66-12.737-19.224c-0.057-0.099-0.1-0.204-0.161-0.301c-5.691-9.22-10.946-18.621-15.75-28.101
	c-0.275-0.543-0.547-1.086-0.82-1.63c-0.647-1.292-1.285-2.584-1.914-3.878c-0.434-0.892-0.868-1.785-1.295-2.679
	c-0.378-0.793-0.751-1.586-1.123-2.38c-0.377-0.805-0.751-1.611-1.122-2.418c-0.443-0.963-0.884-1.926-1.318-2.89
	c-0.488-1.085-0.972-2.17-1.449-3.257c-0.381-0.867-0.755-1.734-1.128-2.602c-0.264-0.613-0.524-1.227-0.784-1.84
	c-17.91-42.286-26.6-84.526-24.317-118.059c0.001-0.01,0.001-0.02,0.002-0.029c0.041-0.602,0.092-1.196,0.14-1.793
	c2.438-28.874,14.049-61.1,52.379-67.702c0.206,0.03,0.412,0.048,0.618,0.076c0.559,0.076,1.117,0.143,1.675,0.206
	c0.575,0.066,1.149,0.129,1.724,0.182c0.453,0.041,0.906,0.075,1.359,0.108c0.691,0.052,1.381,0.098,2.072,0.131
	c0.317,0.015,0.634,0.024,0.951,0.035c0.822,0.029,1.644,0.049,2.466,0.052c0.059,0,0.117,0.004,0.176,0.004
	c0.091,0,0.182-0.006,0.274-0.007c1.135-0.003,2.268-0.031,3.402-0.084c0.091-0.004,0.182-0.009,0.273-0.014
	c3.873-0.195,7.736-0.664,11.571-1.444c0.279,0.016,0.559,0.031,0.848,0.061c25.711,2.56,43.683,13.861,56.555,35.568
	c2.818,4.75,8.953,6.316,13.702,3.501c4.75-2.817,6.318-8.952,3.501-13.702c-10.977-18.511-25.846-31.496-44.386-38.819
	c3.167-2.316,6.178-4.881,8.993-7.695c17.702-17.702,25.751-43.021,21.534-67.728l-1.192-6.982l-6.982-1.192
	c-24.707-4.217-50.027,3.831-67.729,21.532c-6.488,6.489-11.674,14.004-15.44,22.134c-8.34-11.214-22.074-21.388-44.65-23.122
	c-5.509-0.431-10.313,3.698-10.736,9.205c-0.423,5.507,3.698,10.313,9.205,10.736c17.074,1.312,28.511,8.98,34.965,23.447
	c2.113,4.736,3.33,9.482,4.032,13.45c0.011,0.776,0.034,1.553,0.069,2.331c-17.799,4.641-32.025,14.238-42.324,28.167
	c-4.664-16.348-15.057-30.736-29.545-40.246c-19.369-12.715-43.83-15.251-65.426-6.782l-6.595,2.585l0.251,7.079
	c0.822,23.183,12.877,44.614,32.247,57.328c2.186,1.435,4.438,2.739,6.743,3.914c-19.133,13.565-32.839,35.43-41.575,66.162
	c-4.439,15.615-7.433,32.611-9.626,50.591c-0.004,0.027-0.011,0.053-0.014,0.08c-0.003,0.024-0.002,0.047-0.005,0.071
	c-2.85,23.421-4.342,48.512-5.881,74.416c-0.833,14.025-1.672,28.154-2.751,42.122l-27.106,7.855
	c-5.305,1.537-8.359,7.083-6.822,12.388c1.268,4.375,5.263,7.22,9.6,7.22c0.921,0,1.859-0.129,2.788-0.398l19.651-5.695
	c-4.2,41.607-11.693,80.473-28.974,109.166c-1.871,3.106-1.914,6.983-0.11,10.13c1.783,3.113,5.095,5.029,8.676,5.029
	c0.039,0,0.079,0,0.119-0.001c26.378-0.311,53.254-8.628,79.269-24.329l19.108,19.264c1.955,1.972,4.527,2.958,7.1,2.958
	c2.545,0,5.092-0.966,7.042-2.9c3.921-3.89,3.947-10.221,0.058-14.142l-16.393-16.527c6.401-4.731,12.731-9.906,18.966-15.537
	c11.183-10.101,22.027-21.64,32.303-34.283l10.836,7.726c1.761,1.255,3.788,1.858,5.797,1.858c3.122,0,6.199-1.459,8.15-4.195
	c3.206-4.497,2.16-10.741-2.337-13.948l-10.262-7.317c10.655-14.7,20.52-30.56,29.293-47.164c2.634,3.868,5.327,7.678,8.084,11.415
	c0.054,0.078,0.111,0.154,0.167,0.23c0.06,0.081,0.118,0.163,0.177,0.244c13.755,18.573,28.346,34.684,43.494,48.21l-17.117,17.257
	c-3.889,3.921-3.864,10.252,0.058,14.142c1.95,1.935,4.496,2.9,7.042,2.9c2.573,0,5.146-0.987,7.1-2.958l18.411-18.561
	c11.07,8.393,22.381,15.423,33.836,21.037l-2.684,25.58c-0.576,5.492,3.409,10.412,8.902,10.988
	c0.355,0.037,0.707,0.056,1.056,0.056c5.054,0,9.394-3.819,9.933-8.958l2.057-19.609c15.028,5.204,30.205,7.979,45.321,8.157
	c0.04,0.001,0.079,0.001,0.119,0.001c3.581,0,6.893-1.916,8.676-5.029c1.803-3.146,1.761-7.023-0.11-10.13
	c-23.43-38.902-28.872-96.503-32.493-154.293l22.647,8.295C433.291,312.852,434.452,313.049,435.594,313.049z M301.923,36.776
	c11.359-11.359,26.937-17.354,42.819-16.733c0.621,15.868-5.376,31.46-16.734,42.818c-9.925,9.926-23.075,15.76-36.829,16.657
	c-0.077,0.005-0.154,0.007-0.231,0.012c-0.863,0.053-1.728,0.086-2.596,0.1c-0.203,0.003-0.406,0.001-0.609,0.002
	c-0.735,0.004-1.471-0.005-2.208-0.03l0,0c-0.107-0.877-0.232-1.797-0.381-2.761C285.286,61.933,291.223,47.477,301.923,36.776z
	 M142.383,78.355c13.637-3.167,28.143-0.68,39.997,7.102c11.853,7.781,19.904,20.095,22.424,33.867
	c-0.048,0.011-0.096,0.026-0.144,0.037c-0.297,0.068-0.596,0.121-0.893,0.184c-0.556,0.118-1.112,0.237-1.671,0.336
	c-0.47,0.083-0.941,0.147-1.412,0.217c-0.376,0.056-0.752,0.12-1.129,0.168c-0.741,0.093-1.484,0.166-2.228,0.227
	c-0.097,0.008-0.194,0.021-0.291,0.028c-11.236,0.854-22.604-1.976-32.227-8.294C152.955,104.447,144.902,92.129,142.383,78.355z
	 M221.832,398.965l-21.378-15.242c-4.497-3.204-10.741-2.16-13.948,2.337c-3.206,4.497-2.16,10.741,2.336,13.948l20.772,14.811
	c-16.208,19.797-34.713,37.703-54.962,51.275c-0.58,0.304-1.137,0.669-1.661,1.095c-17.894,11.728-37.121,20.057-57.309,23.308
	c20.676-45.899,24.27-106.403,27.757-165.129c1.289-21.699,2.561-43.093,4.661-63.248l24.789,3.105
	c0.422,0.054,0.841,0.079,1.255,0.079c4.968,0,9.276-3.7,9.91-8.758c0.686-5.48-3.2-10.479-8.68-11.165l-24.845-3.112
	c7.133-49.775,21.743-89.108,58.578-101.69c3.495,0.191,7.008,0.113,10.501-0.21c0.126-0.011,0.251-0.025,0.377-0.037
	c0.874-0.085,1.746-0.187,2.617-0.304c0.234-0.031,0.467-0.06,0.701-0.093c0.966-0.14,1.929-0.294,2.888-0.472
	c0.262-0.048,0.522-0.107,0.783-0.159c0.518-0.102,1.037-0.201,1.553-0.315c-6.877,24.196-6.874,54.396,0.135,88.602
	c3.671,17.918,9.24,36.46,16.373,54.91l-17.9-2.242c-5.481-0.683-10.479,3.2-11.165,8.681c-0.686,5.479,3.2,10.478,8.68,11.165
	l29.334,3.674c2.413,5.303,4.95,10.573,7.604,15.796c0.251,0.493,0.498,0.988,0.75,1.481c0.689,1.343,1.389,2.68,2.093,4.015
	c0.48,0.912,0.965,1.823,1.453,2.732c0.596,1.11,1.193,2.219,1.8,3.324c0.767,1.398,1.547,2.789,2.33,4.179
	c0.37,0.655,0.733,1.315,1.107,1.968c1.27,2.224,2.563,4.433,3.874,6.631C246.04,362.131,234.86,381.021,221.832,398.965z"/>
<path d="M284.139,224.152l0.502,0.185c1.14,0.419,2.306,0.618,3.453,0.618c4.071,0,7.897-2.506,9.385-6.549
	c1.908-5.183-0.748-10.931-5.93-12.839l-0.501-0.185c-5.185-1.906-10.931,0.748-12.838,5.931
	C276.301,216.496,278.956,222.244,284.139,224.152z"/>
<path d="M208.105,323.749c-5.523,0-10,4.478-10,10v0.27c0,5.522,4.477,10,10,10c5.523,0,10-4.478,10-10v-0.27
	C218.105,328.226,213.628,323.749,208.105,323.749z"/>
<g>
</g>
<g>
</g>
<g>
</g>
<g>
</g>
<g>
</g>
<g>
</g>
<g>
</g>
<g>
</g>
<g>
</g>
<g>
</g>
<g>
</g>
<g>
</g>
<g>
</g>
<g>
</g>
<g>
</g>
</svg>
