<svg height="447pt" viewBox="0 -48 447.12529 447" width="447pt" xmlns="http://www.w3.org/2000/svg"><path d="m439.089844 33.953125-25.859375-25.855469c-10.710938-10.710937-28.078125-10.710937-38.789063 0l-6.464844 6.460938c-8.050781 8.078125-10.253906 20.296875-5.527343 30.671875l-102.402344 88.898437h98l43.914063-49.394531c10.375 4.726563 22.597656 2.523437 30.671874-5.527344l6.464844-6.464843c10.707032-10.714844 10.703125-28.078126-.007812-38.789063zm0 0" fill="#b3bfc7"/><path d="m0 127.625h384v48c0 75.109375-60.890625 136-136 136h-112c-75.109375 0-136-60.890625-136-136zm0 0" fill="#e3e7e8"/><path d="m120 311.625h152v40h-152zm0 0" fill="#b3bfc7"/></svg>