<?xml version="1.0" encoding="iso-8859-1"?>
<!-- Generator: Adobe Illustrator 21.0.0, SVG Export Plug-In . SVG Version: 6.00 Build 0)  -->
<svg version="1.1" id="Capa_1" xmlns="http://www.w3.org/2000/svg" xmlns:xlink="http://www.w3.org/1999/xlink" x="0px" y="0px"
	 viewBox="0 0 512 512" style="enable-background:new 0 0 512 512;" xml:space="preserve">
<g>
	<path style="fill:#87DD60;" d="M246.677,461.666c-68.146-55.881-111.328-165.976-129.963-233.672
		c10.31-18.469,9.294-48.319,9.294-48.319c34.952,3.036,30.966,44.567,30.966,44.567c35.146-20.034,24.254-78.102,24.254-78.102
		c11.617,19.312,34.521,26.711,52.917,29.446c0.392,0.939,0.788,1.866,1.189,2.769c16.667,37.473,49.696,109.503,121.246,151.248
		C514.158,421.542,385.492,575.497,246.677,461.666z"/>
	<g>
		<path style="fill:#00C56E;" d="M116.712,227.989C116.715,227.991,116.714,227.992,116.712,227.989L116.712,227.989z
			 M181.228,146.141c0,0,10.892,58.068-24.254,78.101c0,0,3.986-41.53-30.966-44.567c0,0,1.017,29.85-9.294,48.319
			c-3.497,6.263-8.295,11.218-14.879,13.255c-3.491-12.308-3.491-35.395-11.693-63.482C79.67,141.907,76.667,93.969,107.641,71.527
			c4.549-3.296,9.83-6.041,15.928-8.118c4.567-1.208,8.968-2.097,13.214-2.684c46.619-6.434,74.277,23.703,91.779,69.848
			c5.15,13.58,11.997,25.852,33.048,46.345c0,0-12.176,0.944-27.464-1.331C215.748,172.85,192.845,165.452,181.228,146.141z"/>
		<path style="fill:#00C56E;" d="M107.641,71.528c-5.856-11.4-12.556-23.492-14.638-26.694
			c-19.18-29.506,6.677-44.343,18.265-28.126c4.398,6.155,16.24,26.306,25.513,44.019c-4.245,0.586-8.647,1.475-13.214,2.684
			C117.471,65.486,112.19,68.232,107.641,71.528z"/>
	</g>
</g>
<path d="M361.618,320.967c-22.811-13.309-43.664-31.187-61.982-53.139c-3.539-4.241-9.843-4.809-14.084-1.271
	c-4.24,3.538-4.809,9.844-1.27,14.084c19.808,23.738,42.438,43.117,67.259,57.6c44.717,26.09,69.267,60.126,67.354,93.383
	c-1.341,23.32-15.918,43.284-38.993,53.402c-36.299,15.921-83.731,4.294-126.884-31.092
	c-74.061-60.731-113.802-183.07-125.632-224.902c5.542-11.891,7.59-25.957,8.306-36.185c1.698,1.049,3.193,2.348,4.499,3.904
	c6.809,8.117,7.237,21.933,6.831,26.535c-0.357,3.717,1.387,7.322,4.522,9.351c3.135,2.026,7.138,2.142,10.383,0.291
	c23.88-13.612,29.968-40.675,30.805-61.348c10.805,6.913,23.147,10.802,34.417,12.964c5.677,12.721,12.463,27.448,21.436,43.56
	c1.829,3.285,5.235,5.137,8.745,5.137c1.646,0,3.316-0.407,4.857-1.266c4.825-2.688,6.557-8.776,3.871-13.601
	c-6.208-11.147-11.349-21.674-15.811-31.324c6.858,0.211,11.459-0.109,12.138-0.162c3.917-0.304,7.292-2.872,8.629-6.565
	s0.387-7.827-2.428-10.567c-21.185-20.623-26.598-31.977-30.673-42.725c-20.542-54.165-52.598-79.959-95.462-76.95
	c-8.395-15.588-18.504-32.833-23.042-39.185C111.393-0.319,97.331-3.305,86.695,3.948c-11.103,7.57-16.052,24.835-2.075,46.335
	c1.345,2.069,5.665,9.733,10.461,18.79c-8.949,8.615-15.345,19.864-18.888,33.425c-1.396,5.344,1.803,10.806,7.145,12.202
	c5.344,1.396,10.805-1.803,12.202-7.145c3.167-12.117,8.933-21.246,17.485-27.597c0.136-0.087,0.264-0.182,0.394-0.275
	c3.806-2.763,8.143-4.995,13.048-6.696c43.176-11.282,72.649,8.155,92.742,61.134c3.932,10.368,8.886,20.031,18.594,31.884
	c-16.658-2.148-37.933-8.266-48.01-25.017c-2.494-4.147-7.601-5.91-12.123-4.192c-4.523,1.721-7.164,6.433-6.272,11.189
	c0.077,0.409,5.673,33.237-6.595,54.529c-1.663-6.232-4.479-12.83-9.197-18.496c-7.03-8.445-16.698-13.258-28.735-14.303
	c-2.845-0.249-5.663,0.74-7.74,2.706c-2.076,1.965-3.21,4.729-3.119,7.586c0.341,10.606-1.341,29.913-7.338,41.834
	c-0.041-0.318-0.082-0.638-0.123-0.96c-1.606-12.514-3.606-28.088-8.812-45.916c-1.313-4.496-2.464-9.067-3.421-13.586
	c-1.145-5.402-6.448-8.852-11.854-7.71c-5.403,1.146-8.853,6.452-7.709,11.854c1.061,5.009,2.335,10.07,3.788,15.047
	c4.768,16.323,6.655,31.036,8.173,42.857c1.034,8.053,1.927,15.01,3.498,20.55c0.735,2.591,2.484,4.776,4.852,6.06
	c1.478,0.803,3.119,1.211,4.77,1.211c0.993,0,1.99-0.148,2.956-0.447c2.615-0.809,5.001-1.929,7.198-3.279
	c15.881,51.891,56.645,163.078,128.347,221.876C274.412,497.341,311.416,512,345.36,512c14.956,0,29.32-2.849,42.573-8.659
	c30.107-13.203,49.145-39.583,50.927-70.569C441.219,391.735,413.065,350.984,361.618,320.967z M120.344,53.943
	c-3.051,1.039-5.955,2.258-8.735,3.624c-4.269-7.991-8.429-15.426-10.222-18.184c-6.972-10.725-5.801-17.292-3.426-18.913
	c1.516-1.031,3.545-0.227,5.172,2.05c3.169,4.435,10.933,17.446,18.454,31.076c-0.193,0.05-0.384,0.096-0.577,0.147
	C120.786,53.801,120.564,53.868,120.344,53.943z"/>
<path d="M83.492,147.033c5.516-0.263,9.775-4.947,9.512-10.463l-0.015-0.311c-0.265-5.516-4.96-9.775-10.467-9.507
	c-5.516,0.266-9.772,4.952-9.507,10.468l0.014,0.302c0.255,5.354,4.677,9.523,9.98,9.523
	C83.168,147.045,83.33,147.041,83.492,147.033z"/>
<path d="M275.182,437.334c-2.85,4.73-1.325,10.875,3.406,13.725l0.122,0.073c1.615,0.973,3.394,1.436,5.151,1.436
	c3.391,0,6.697-1.726,8.574-4.842c2.85-4.73,1.325-10.875-3.406-13.725l-0.121-0.073
	C284.176,431.079,278.032,432.604,275.182,437.334z"/>
<path d="M225.61,370.436c-2.734-4.799-8.84-6.475-13.638-3.74c-4.799,2.733-6.473,8.839-3.74,13.638
	c11.239,19.73,27.15,38.275,46.013,53.628c1.855,1.51,4.087,2.244,6.306,2.244c2.904,0,5.784-1.259,7.761-3.688
	c3.486-4.283,2.84-10.581-1.443-14.067C249.903,404.643,235.637,388.04,225.61,370.436z"/>
<path d="M266.263,236.678c-4.919,2.51-6.872,8.531-4.363,13.45l0.122,0.24c1.768,3.465,5.276,5.457,8.915,5.457
	c1.528,0,3.081-0.352,4.536-1.095c4.919-2.51,6.872-8.531,4.363-13.45l-0.123-0.24C277.204,236.123,271.182,234.166,266.263,236.678
	z"/>
<g>
</g>
<g>
</g>
<g>
</g>
<g>
</g>
<g>
</g>
<g>
</g>
<g>
</g>
<g>
</g>
<g>
</g>
<g>
</g>
<g>
</g>
<g>
</g>
<g>
</g>
<g>
</g>
<g>
</g>
</svg>
