<?xml version="1.0" encoding="iso-8859-1"?>
<!-- Generator: Adobe Illustrator 21.0.0, SVG Export Plug-In . SVG Version: 6.00 Build 0)  -->
<svg version="1.1" id="Capa_1" xmlns="http://www.w3.org/2000/svg" xmlns:xlink="http://www.w3.org/1999/xlink" x="0px" y="0px"
	 viewBox="0 0 512 512" style="enable-background:new 0 0 512 512;" xml:space="preserve">
<g>
	<path style="fill:#AA836D;" d="M331.165,178.129c-1.997-73.598-57.887-137.171-133.056-146.401
		c-19.373-2.379-38.376-0.946-56.253,3.707c-58.484,15.221-104.9,64.899-112.683,128.279l-18.03,146.835
		C0.981,393.301,60.375,469.323,143.129,479.483c41.427,5.087,81.166-7.259,111.801-31.239
		c-34.949-27.888-57.344-70.848-57.344-119.037c0-77.754,58.306-141.884,133.579-151.071
		C331.165,178.134,331.165,178.132,331.165,178.129z"/>
	<path style="fill:#C8FA8B;" d="M197.585,329.208c0,48.189,22.395,91.148,57.344,119.037c0.002-0.002,0.005-0.004,0.007-0.006
		C219.987,420.349,197.585,377.397,197.585,329.208L197.585,329.208z M349.793,177c84.062,0,152.208,68.146,152.208,152.207
		c0,84.062-68.146,152.208-152.208,152.208c-35.873,0-68.847-12.41-94.864-33.171c-34.949-27.888-57.344-70.848-57.344-119.037
		c0-77.754,58.306-141.884,133.579-151.071c0-0.003,0-0.005,0-0.008C337.27,177.384,343.487,177,349.793,177L349.793,177z
		 M349.793,289.413c-11.881,0-22.317-6.504-27.921-16.127h-4.363l-2.185,3.781c5.53,9.666,5.946,21.955,0.007,32.244
		c-5.942,10.289-16.79,16.074-27.928,16.117l-2.182,3.781l2.182,3.781c11.139,0.043,21.987,5.828,27.928,16.117
		c5.939,10.289,5.523,22.578-0.007,32.243l2.185,3.781h4.363c5.605-9.623,16.041-16.127,27.921-16.127s22.317,6.504,27.921,16.127
		h4.364l2.185-3.781c-5.529-9.666-5.946-21.955-0.007-32.243c5.943-10.289,16.79-16.074,27.928-16.117l2.182-3.781l-2.182-3.781
		c-11.139-0.043-21.987-5.828-27.928-16.117c-5.939-10.289-5.522-22.578,0.007-32.244l-2.185-3.781h-4.364
		C372.109,282.909,361.674,289.413,349.793,289.413z"/>
	<path style="fill:#FFB86E;" d="M287.402,332.989c11.139,0.043,21.987,5.828,27.928,16.117c5.939,10.289,5.523,22.578-0.007,32.243
		l2.185,3.781h4.363c5.605-9.623,16.041-16.127,27.921-16.127s22.317,6.504,27.921,16.127h4.364l2.185-3.781
		c-5.529-9.666-5.946-21.955-0.007-32.243c5.943-10.289,16.79-16.074,27.928-16.117l2.182-3.781l-2.182-3.781
		c-11.139-0.043-21.987-5.828-27.928-16.117c-5.939-10.289-5.522-22.578,0.007-32.244l-2.185-3.781h-4.364
		c-5.605,9.623-16.04,16.127-27.921,16.127c-11.881,0-22.317-6.504-27.921-16.127h-4.363l-2.185,3.781
		c5.53,9.666,5.946,21.955,0.007,32.244c-5.942,10.289-16.79,16.074-27.928,16.117l-2.182,3.781L287.402,332.989z"/>
</g>
<path d="M458.048,208.411c-4.112-3.686-10.435-3.34-14.121,0.773c-3.686,4.113-3.34,10.436,0.773,14.121
	c30.06,26.937,47.3,65.539,47.3,105.903c0,78.413-63.794,142.208-142.207,142.208c-70.985,0-129.986-52.281-140.529-120.359
	c-0.019-0.124-0.039-0.248-0.058-0.372c-0.146-0.959-0.279-1.922-0.405-2.888c-0.045-0.347-0.09-0.695-0.133-1.043
	c-0.101-0.819-0.195-1.641-0.283-2.464c-0.053-0.504-0.102-1.009-0.149-1.514c-0.068-0.712-0.133-1.423-0.19-2.138
	c-0.051-0.636-0.092-1.274-0.134-1.911c-0.041-0.612-0.084-1.224-0.117-1.839c-0.042-0.794-0.071-1.59-0.1-2.386
	c-0.018-0.476-0.042-0.95-0.054-1.427c-0.034-1.286-0.054-2.575-0.054-3.867c0-1.173,0.016-2.343,0.045-3.51
	c0.01-0.421,0.03-0.839,0.044-1.259c0.025-0.743,0.049-1.487,0.085-2.227c0.025-0.509,0.059-1.016,0.089-1.523
	c0.038-0.643,0.076-1.287,0.123-1.928c0.041-0.557,0.089-1.113,0.136-1.668c0.05-0.585,0.099-1.17,0.156-1.753
	c0.057-0.588,0.121-1.174,0.185-1.76c0.06-0.544,0.121-1.088,0.187-1.631c0.074-0.61,0.153-1.219,0.235-1.827
	c0.069-0.513,0.141-1.025,0.216-1.536c0.092-0.627,0.186-1.252,0.286-1.876c0.077-0.485,0.159-0.969,0.241-1.453
	c0.109-0.64,0.22-1.279,0.337-1.917c0.086-0.465,0.177-0.927,0.267-1.39c0.126-0.649,0.253-1.298,0.388-1.943
	c0.094-0.447,0.194-0.891,0.292-1.336c0.143-0.652,0.285-1.305,0.438-1.955c0.104-0.441,0.215-0.88,0.323-1.32
	c0.158-0.647,0.314-1.295,0.481-1.939c0.123-0.473,0.255-0.941,0.383-1.411c0.239-0.882,0.484-1.761,0.739-2.636
	c0.226-0.775,0.453-1.551,0.692-2.321c0.106-0.342,0.221-0.681,0.329-1.023c0.239-0.748,0.478-1.496,0.729-2.239
	c0.101-0.299,0.208-0.596,0.311-0.895c0.272-0.789,0.547-1.578,0.833-2.361c0.089-0.245,0.183-0.488,0.273-0.733
	c0.315-0.849,0.635-1.695,0.966-2.536c0.067-0.17,0.136-0.339,0.203-0.509c0.371-0.932,0.749-1.861,1.139-2.784
	c0.033-0.077,0.066-0.154,0.098-0.231c18.036-42.453,56.133-74.404,102.326-83.883c0.006-0.001,0.012-0.002,0.018-0.004
	c1.033-0.212,2.072-0.409,3.113-0.598c0.199-0.036,0.398-0.073,0.597-0.109c0.84-0.149,1.685-0.286,2.53-0.42
	c0.368-0.058,0.734-0.119,1.103-0.174c0.662-0.1,1.328-0.189,1.993-0.28c0.529-0.072,1.058-0.147,1.589-0.213
	c5.798-0.723,11.701-1.099,17.691-1.099c15.033,0,29.902,2.369,44.194,7.041c5.25,1.719,10.895-1.148,12.612-6.397
	c1.716-5.25-1.148-10.896-6.397-12.612c-16.303-5.329-33.262-8.031-50.409-8.031c-3.113,0-6.204,0.097-9.275,0.271
	c-3.233-34.386-17.58-67.132-41.006-93.168c-26.093-28.998-61.674-47.573-100.186-52.302c-42.674-5.239-84.958,6.549-119.065,33.194
	c-34.105,26.646-55.775,64.823-61.015,107.497L1.217,309.33c-5.24,42.674,6.549,84.959,33.194,119.065s64.823,55.774,107.496,61.015
	c3.734,0.459,7.524,0.791,11.263,0.986c0.178,0.01,0.355,0.014,0.532,0.014c5.282,0,9.698-4.14,9.978-9.477
	c0.289-5.516-3.948-10.221-9.463-10.51c-3.275-0.172-6.596-0.463-9.871-0.865c-37.372-4.589-70.817-23.581-94.174-53.476
	c-23.357-29.896-33.693-66.942-29.104-104.314l18.03-146.835c4.589-37.372,23.582-70.817,53.477-94.174
	c14.847-11.6,31.457-19.985,48.995-24.928c7.529,2.445,30.618,10.415,54.946,23.572c1.513,0.818,3.142,1.206,4.748,1.206
	c3.554,0,6.996-1.899,8.805-5.245c2.627-4.857,0.819-10.926-4.039-13.553c-7.841-4.241-15.523-7.962-22.654-11.165
	c4.491,0.122,8.999,0.454,13.512,1.008c66.044,8.108,117.837,62.356,123.765,127.965c-57.483,10.413-103.715,50.846-123.145,103.707
	c-0.122,0.332-0.237,0.667-0.357,1c-0.296,0.821-0.589,1.643-0.872,2.47c-0.177,0.516-0.346,1.036-0.518,1.554
	c-0.214,0.649-0.428,1.297-0.634,1.95c-0.19,0.599-0.374,1.2-0.557,1.802c-0.175,0.576-0.347,1.152-0.516,1.731
	c-0.19,0.651-0.376,1.302-0.558,1.956c-0.148,0.532-0.292,1.066-0.434,1.601c-0.184,0.689-0.367,1.379-0.542,2.072
	c-0.126,0.497-0.245,0.995-0.365,1.494c-0.177,0.73-0.355,1.46-0.523,2.194c-0.097,0.428-0.187,0.858-0.281,1.287
	c-0.588,2.681-1.109,5.386-1.562,8.114c-0.083,0.501-0.171,1-0.25,1.502c-0.108,0.691-0.205,1.385-0.304,2.078
	c-0.083,0.583-0.168,1.166-0.246,1.75c-0.087,0.657-0.166,1.316-0.244,1.975c-0.076,0.633-0.15,1.266-0.218,1.901
	c-0.068,0.63-0.131,1.261-0.191,1.893c-0.065,0.678-0.125,1.356-0.181,2.036c-0.05,0.599-0.098,1.199-0.141,1.8
	c-0.053,0.738-0.098,1.479-0.141,2.22c-0.032,0.551-0.066,1.1-0.093,1.652c-0.041,0.848-0.07,1.698-0.097,2.549
	c-0.015,0.454-0.035,0.907-0.046,1.362c-0.032,1.31-0.05,2.624-0.05,3.941c0,1.402,0.018,2.801,0.054,4.194
	c0.032,1.265,0.083,2.527,0.144,3.786c0.006,0.119,0.008,0.239,0.014,0.358c2.128,42.096,20.323,81.221,51.013,109.958
	c-8.693,5.689-17.947,10.396-27.629,14.048c-5.168,1.949-7.777,7.718-5.828,12.886c1.949,5.167,7.721,7.776,12.885,5.827
	c12.997-4.902,25.299-11.483,36.683-19.57c26.696,19.317,59.475,30.72,94.871,30.72c89.441,0,162.207-72.766,162.207-162.208
	C512,283.166,492.336,239.137,458.048,208.411z"/>
<path d="M180.408,469.355l-0.343,0.038c-5.478,0.657-9.361,5.624-8.711,11.103c0.602,5.084,4.943,8.82,9.944,8.819
	c0.381,0,0.767-0.021,1.154-0.065c5.468-0.577,9.449-5.463,8.901-10.94C190.803,472.813,185.901,468.797,180.408,469.355z"/>
<path d="M103.681,104.025c2.306,0,4.623-0.793,6.509-2.412l0.321-0.275c4.19-3.598,4.671-9.911,1.074-14.102
	c-3.598-4.19-9.91-4.67-14.102-1.074l-0.321,0.275c-4.19,3.598-4.671,9.911-1.074,14.102
	C98.067,102.843,100.866,104.025,103.681,104.025z"/>
<path d="M89.889,107.372c-4.516-3.179-10.755-2.096-13.934,2.42c-11.866,16.854-19.463,36.554-21.969,56.968l-18.03,146.835
	c-0.673,5.482,3.225,10.471,8.707,11.145c0.414,0.051,0.825,0.075,1.231,0.075c4.979,0,9.291-3.715,9.913-8.782l18.031-146.836
	c2.107-17.159,8.494-33.719,18.472-47.892C95.487,116.789,94.403,110.552,89.889,107.372z"/>
<path d="M412.224,342.989c3.56-0.014,6.844-1.919,8.623-5.003l2.182-3.781c1.784-3.093,1.784-6.902-0.001-9.995l-2.182-3.78
	c-1.779-3.083-5.063-4.988-8.622-5.002c-7.967-0.031-15.365-4.292-19.307-11.116c-3.94-6.826-3.931-15.364,0.026-22.281
	c1.768-3.091,1.759-6.888-0.023-9.97l-2.186-3.78c-1.787-3.092-5.087-4.995-8.657-4.995h-4.363c-3.559,0-6.85,1.892-8.641,4.967
	c-4.01,6.884-11.398,11.16-19.281,11.16c-7.884,0-15.271-4.276-19.28-11.16c-1.791-3.075-5.082-4.967-8.642-4.967h-4.364
	c-3.571,0-6.871,1.904-8.658,4.996l-2.185,3.78c-1.781,3.082-1.79,6.879-0.022,9.969c3.956,6.917,3.967,15.454,0.028,22.279
	c-3.943,6.826-11.342,11.087-19.309,11.118c-3.559,0.014-6.842,1.918-8.621,5l-2.183,3.78c-1.786,3.094-1.786,6.905-0.001,9.999
	l2.183,3.781c1.779,3.083,5.063,4.987,8.622,5.001c7.967,0.03,15.365,4.291,19.307,11.116c3.94,6.826,3.931,15.363-0.026,22.279
	c-1.767,3.09-1.759,6.887,0.021,9.969l2.185,3.781c1.787,3.092,5.088,4.997,8.659,4.997h4.364c3.56,0,6.851-1.892,8.642-4.967
	c4.009-6.885,11.397-11.161,19.28-11.161s15.271,4.276,19.281,11.161c1.791,3.075,5.082,4.967,8.641,4.967h4.363
	c3.571,0,6.871-1.904,8.658-4.996l2.186-3.781c1.781-3.082,1.79-6.879,0.022-9.97c-3.957-6.916-3.967-15.453-0.027-22.277
	C396.859,347.28,404.257,343.019,412.224,342.989z M375.597,344.107c-3.575,6.191-5.443,13.115-5.605,20.083
	c-6.116-3.344-13.047-5.186-20.198-5.186c-7.151,0-14.083,1.844-20.198,5.186c-0.163-6.967-2.031-13.893-5.605-20.085
	c-3.576-6.192-8.639-11.272-14.592-14.897c5.953-3.625,11.017-8.706,14.593-14.899c3.573-6.191,5.441-13.116,5.603-20.083
	c6.116,3.343,13.048,5.187,20.199,5.187c7.151,0,14.082-1.843,20.198-5.187c0.163,6.968,2.031,13.893,5.606,20.086
	c3.575,6.191,8.638,11.272,14.591,14.897C384.235,332.833,379.173,337.914,375.597,344.107z"/>
<path d="M379.437,415.717c-5.522,0-10,4.478-10,10v0.347c0,5.522,4.478,10,10,10c5.523,0,10-4.478,10-10v-0.347
	C389.437,420.194,384.959,415.717,379.437,415.717z"/>
<path d="M447.035,381.412v-0.348c0-5.522-4.478-10-10-10c-5.522,0-10,4.478-10,10v0.348c0,5.522,4.478,10,10,10
	C442.558,391.412,447.035,386.934,447.035,381.412z"/>
<path d="M295.238,369.412v-0.348c0-5.522-4.477-10-10-10c-5.522,0-10,4.478-10,10v0.348c0,5.522,4.478,10,10,10
	C290.761,379.412,295.238,374.934,295.238,369.412z"/>
<path d="M285.143,278.016v-0.348c0-5.522-4.477-10-10-10c-5.522,0-10,4.478-10,10v0.348c0,5.522,4.478,10,10,10
	C280.665,288.016,285.143,283.539,285.143,278.016z"/>
<path d="M357.192,239.25c5.522,0,10-4.478,10-10v-0.348c0-5.523-4.478-10-10-10c-5.523,0-10,4.477-10,10v0.348
	C347.193,234.772,351.67,239.25,357.192,239.25z"/>
<path d="M406.796,240.087c0,5.522,4.478,10,10,10c5.522,0,10-4.478,10-10v-0.347c0-5.522-4.478-10-10-10c-5.522,0-10,4.478-10,10
	V240.087z"/>
<path d="M449.243,292.376c0-5.522-4.478-10-10-10c-5.522,0-10,4.478-10,10v0.348c0,5.522,4.478,10,10,10c5.522,0,10-4.478,10-10
	V292.376z"/>
<path d="M420.236,433.411c5.522,0,10-4.478,10-10v-0.348c0-5.522-4.478-10-10-10c-5.522,0-10,4.478-10,10v0.348
	C410.236,428.933,414.714,433.411,420.236,433.411z"/>
<path d="M473.434,341.812v-0.347c0-5.522-4.477-10-10-10c-5.522,0-10,4.478-10,10v0.347c0,5.522,4.478,10,10,10
	C468.956,351.812,473.434,347.335,473.434,341.812z"/>
<path d="M323.838,441.916v0.348c0,5.522,4.477,10,10,10c5.522,0,10-4.478,10-10v-0.348c0-5.522-4.478-10-10-10
	C328.315,431.916,323.838,436.393,323.838,441.916z"/>
<path d="M290.638,436.664c5.523,0,10-4.477,10-10v-0.348c0-5.522-4.478-10-10-10c-5.522,0-10,4.478-10,10v0.348
	C280.638,432.186,285.115,436.664,290.638,436.664z"/>
<path d="M253.438,398.864c5.523,0,10-4.478,10-10v-0.347c0-5.522-4.477-10-10-10c-5.523,0-10,4.478-10,10v0.347
	C243.439,394.386,247.916,398.864,253.438,398.864z"/>
<path d="M296.038,245.867c5.522,0,10-4.478,10-10v-0.347c0-5.522-4.478-10-10-10c-5.522,0-10,4.478-10,10v0.347
	C286.038,241.389,290.516,245.867,296.038,245.867z"/>
<path d="M251.437,316.865v-0.347c0-5.522-4.477-10-10-10s-10,4.478-10,10v0.347c0,5.522,4.477,10,10,10
	S251.437,322.387,251.437,316.865z"/>
<path d="M127.05,296.017v0.347c0,5.522,4.477,10,10,10s10-4.478,10-10v-0.347c0-5.522-4.477-10-10-10S127.05,290.495,127.05,296.017
	z"/>
<path d="M173.049,398.363c0-5.522-4.477-10-10-10s-10,4.478-10,10v0.347c0,5.522,4.477,10,10,10s10-4.478,10-10V398.363z"/>
<path d="M263.047,126.367v-0.347c0-5.522-4.478-10-10-10c-5.523,0-10,4.478-10,10v0.347c0,5.522,4.477,10,10,10
	C258.569,136.367,263.047,131.889,263.047,126.367z"/>
<path d="M189.049,206.366c5.523,0,10-4.478,10-10v-0.347c0-5.523-4.477-10-10-10c-5.523,0-10,4.477-10,10v0.347
	C179.049,201.888,183.526,206.366,189.049,206.366z"/>
<path d="M423.115,207.36l0.382,0.231c1.632,1.002,3.439,1.48,5.222,1.48c3.362,0,6.645-1.695,8.532-4.771
	c2.89-4.707,1.416-10.865-3.291-13.754l-0.468-0.284c-4.724-2.868-10.874-1.36-13.737,3.36
	C416.89,198.344,418.394,204.495,423.115,207.36z"/>
<g>
</g>
<g>
</g>
<g>
</g>
<g>
</g>
<g>
</g>
<g>
</g>
<g>
</g>
<g>
</g>
<g>
</g>
<g>
</g>
<g>
</g>
<g>
</g>
<g>
</g>
<g>
</g>
<g>
</g>
</svg>
