<svg height="480pt" viewBox="-46 0 480 480.312" width="480pt" xmlns="http://www.w3.org/2000/svg"><g fill="#389a6b"><path d="m197.738281 386.742188-14.109375-7.542969 3.726563-6.96875c37.011719-68.308594 99.644531-119.109375 174.121093-141.230469l22.679688-6.671875 4.511719 15.34375-22.679688 6.671875c-70.371093 20.90625-129.558593 68.90625-164.535156 133.449219zm0 0"/><path d="m202.410156 368c-3.796875-.003906-7.070312-2.675781-7.832031-6.398438l-8-40 15.683594-3.136718 6.398437 32.152344 32.152344-6.402344 3.136719 15.679687-40 8c-.507813.089844-1.023438.121094-1.539063.105469zm0 0"/><path d="m274.410156 336h-48c-3.90625 0-7.242187-2.824219-7.886718-6.679688l-8-48 15.777343-2.640624 6.886719 41.320312h41.222656zm0 0"/><path d="m306.410156 312h-56c-3.976562 0-7.351562-2.925781-7.917968-6.863281l-8-56 15.839843-2.273438 7.015625 49.136719h49.0625zm0 0"/><path d="m330.410156 288h-56c-4.417968 0-8-3.582031-8-8v-56h16v48h48zm0 0"/><path d="m353.09375 271.886719-48-8c-2.144531-.355469-4.046875-1.570313-5.277344-3.359375-1.226562-1.789063-1.679687-4-1.246094-6.128906l8-40 15.683594 3.136718-6.402344 31.90625 39.855469 6.636719zm0 0"/><path d="m376.46875 255.761719-32-8c-3.558594-.894531-6.058594-4.09375-6.058594-7.761719v-24h16v17.753906l25.945313 6.484375zm0 0"/><path d="m187.371094 379.792969c-34.976563-64.542969-94.164063-112.542969-164.535156-133.449219l-22.679688-6.671875 4.511719-15.34375 22.679687 6.671875c74.46875 22.109375 137.097656 72.90625 174.105469 141.207031zm0 0"/><path d="m186.410156 368c-.535156.003906-1.070312-.050781-1.597656-.160156l-40-8 3.136719-15.679688 32.152343 6.398438 6.398438-32.152344 15.679688 3.136719-8 40c-.730469 3.722656-3.976563 6.417969-7.769532 6.457031zm0 0"/><path d="m162.410156 336h-48v-16h41.226563l6.886719-41.320312 15.777343 2.640624-8 48c-.644531 3.855469-3.980469 6.679688-7.890625 6.679688zm0 0"/><path d="m138.410156 312h-56v-16h49.066406l7.015626-49.136719 15.839843 2.273438-8 56c-.566406 3.9375-3.941406 6.863281-7.921875 6.863281zm0 0"/><path d="m114.410156 288h-56v-16h48v-48h16v56c0 4.417969-3.578125 8-8 8zm0 0"/><path d="m35.730469 271.886719-2.636719-15.773438 39.855469-6.640625-6.402344-31.90625 15.679687-3.132812 8 40c.425782 2.121094-.027343 4.324218-1.257812 6.105468-1.226562 1.78125-3.125 2.992188-5.261719 3.347657zm0 0"/><path d="m12.355469 255.761719-3.886719-15.523438 25.941406-6.484375v-17.753906h16v24c0 3.667969-2.496094 6.867188-6.054687 7.761719zm0 0"/><path d="m186.410156 480.3125-5.496094-142.898438c-1.667968-43.785156.605469-87.632812 6.792969-131.015624 4.394531-30.75 4.394531-61.96875 0-92.71875l-9.214843-64.542969 15.839843-2.273438 9.214844 64.503907c4.609375 32.257812 4.609375 65.007812 0 97.265624-6.050781 42.4375-8.273437 85.332032-6.640625 128.167969l5.503906 142.886719zm0 0"/><path d="m200.8125 228.800781-12.800781-9.601562c32.230469-42.851563 77.765625-73.800781 129.472656-88l10.824219-2.953125 4.207031 15.441406-10.816406 2.945312c-48.277344 13.261719-90.792969 42.160157-120.886719 82.167969zm0 0"/><path d="m250.410156 208h-40c-4.417968 0-8-3.582031-8-8v-32h16v24h32zm0 0"/><path d="m289.09375 191.886719-48-8c-3.855469-.644531-6.679688-3.980469-6.683594-7.886719v-48h16v41.222656l41.320313 6.890625zm0 0"/><path d="m312.8125 167.839844-40-8c-2.144531-.429688-4.019531-1.71875-5.191406-3.566406-1.167969-1.847657-1.53125-4.09375-1-6.21875l8-32 15.519531 3.890624-5.960937 23.855469 31.769531 6.359375zm0 0"/><path d="m188.011719 212.800781c-30.101563-39.996093-72.617188-68.882812-120.886719-82.136719l-10.816406-2.945312 4.207031-15.4375 10.824219 2.949219c51.699218 14.191406 97.234375 45.128906 129.472656 87.96875zm0 0"/><path d="m178.410156 192h-40v-16h32v-24h16v32c0 4.417969-3.578125 8-8 8zm0 0"/><path d="m99.730469 175.886719-2.636719-15.773438 41.316406-6.890625v-41.222656h16v48c0 3.90625-2.824218 7.242188-6.679687 7.886719zm0 0"/><path d="m76.011719 151.839844-3.199219-15.679688 31.765625-6.359375-5.957031-23.855469 15.519531-3.890624 8 32c.53125 2.113281.175781 4.351562-.980469 6.199218s-3.015625 3.140625-5.148437 3.585938zm0 0"/><path d="m202.171875 129.9375-15.519531-3.875 2.007812-8c6.394532-25.554688 15.722656-50.285156 27.800782-73.695312l14.214843 7.335937c-11.507812 22.316406-20.398437 45.886719-26.496093 70.242187zm0 0"/></g><path d="m226.410156 56c-17.941406 0-32-10.542969-32-24s14.058594-24 32-24c17.945313 0 32 10.542969 32 24s-14.054687 24-32 24zm0 0" fill="#ffdb70"/><path d="m272.277344 48c-17.945313 0-32-10.542969-32-24s14.054687-24 32-24c17.941406 0 32 10.542969 32 24s-14.058594 24-32 24zm0 0" fill="#ffdb70"/><path d="m302.410156 72c-17.941406 0-32-10.542969-32-24s14.058594-24 32-24c17.945313 0 32 10.542969 32 24s-14.054687 24-32 24zm0 0" fill="#ffdb70"/><path d="m178.410156 56c-17.941406 0-32-10.542969-32-24s14.058594-24 32-24c17.945313 0 32 10.542969 32 24s-14.054687 24-32 24zm0 0" fill="#ffdb70"/><path d="m130.410156 56c-17.941406 0-32-10.542969-32-24s14.058594-24 32-24c17.945313 0 32 10.542969 32 24s-14.054687 24-32 24zm0 0" fill="#ffdb70"/><path d="m194.410156 136c-1.238281 0-2.464844-.285156-3.574218-.839844l-21.070313-10.535156c-29.097656-14.429688-47.464844-44.144531-47.355469-76.625h16c-.082031 26.414062 14.851563 50.578125 38.515625 62.3125l17.484375 8.742188 9-4.503907c30.964844-15.507812 53.949219-43.359375 63.296875-76.703125l15.410157 4.304688c-10.570313 37.691406-36.546876 69.175781-71.546876 86.710937l-12.582031 6.296875c-1.109375.554688-2.335937.839844-3.578125.839844zm0 0" fill="#389a6b"/><path d="m195.277344 135.953125-1.730469-15.90625 8.359375-.910156c38.6875-4.324219 73.230469-26.199219 93.683594-59.320313l13.644531 8.367188c-23.054687 37.328125-61.996094 61.980468-105.597656 66.855468zm0 0" fill="#389a6b"/></svg>