<?xml version="1.0" encoding="iso-8859-1"?>
<!-- Generator: Adobe Illustrator 21.0.0, SVG Export Plug-In . SVG Version: 6.00 Build 0)  -->
<svg version="1.1" id="Capa_1" xmlns="http://www.w3.org/2000/svg" xmlns:xlink="http://www.w3.org/1999/xlink" x="0px" y="0px"
	 viewBox="0 0 512 512" style="enable-background:new 0 0 512 512;" xml:space="preserve">
<g>
	<path style="fill:#FFB86E;" d="M270.329,362.772c0,37.827-16.929,71.795-43.794,95.074c-0.003-0.002-0.005-0.003-0.008-0.005
		C253.393,434.562,270.329,400.6,270.329,362.772L270.329,362.772z M47.412,350.887l-36.683-1.637
		C10.247,353.693,10,358.204,10,362.772c0,38.245,17.304,72.544,44.686,95.841c0.067,0.058,0.135,0.115,0.203,0.172
		c22.842,19.353,52.657,31.067,85.275,31.067c33.142,0,63.391-12.093,86.371-32.006c26.865-23.279,43.794-57.247,43.794-95.074
		c0-4.567-0.247-9.079-0.729-13.522l-36.683,1.637c-11.991,50.772-48.975,87.762-92.752,87.762
		C96.387,438.649,59.403,401.659,47.412,350.887z"/>
	<path style="fill:#FF8244;" d="M232.917,350.887c-11.991,50.772-48.975,87.762-92.752,87.762s-80.762-36.99-92.752-87.762
		l4.474,0.2c20.745,28.986,52.578,47.543,88.278,47.543c7.896,0,15.602-0.908,23.041-2.635c26.197-6.083,49.08-22.332,65.237-44.908
		L232.917,350.887z"/>
	<path style="fill:#AA836D;" d="M318.968,116.816c-5.522,0-10.987,0.245-16.385,0.723V66.463h16.291
		c5.885,0.26,11.37,0.419,16.479,0.492v50.585c-5.394-0.479-10.856-0.723-16.375-0.723
		C318.975,116.816,318.971,116.816,318.968,116.816z"/>
	<path style="fill:#87DD60;" d="M302.583,117.54v0.015c5.399-0.479,10.861-0.738,16.385-0.738
		C313.446,116.816,307.981,117.061,302.583,117.54L302.583,117.54z M252.014,427.797c5.783-9.458,10.343-19.711,13.467-30.552
		c0.012-0.041,0.024-0.083,0.036-0.125C262.405,407.946,257.846,418.252,252.014,427.797L252.014,427.797z M226.535,457.846
		c-0.003-0.002-0.005-0.003-0.008-0.005c9.917-8.594,18.482-18.643,25.341-29.805c0.049-0.08,0.098-0.159,0.146-0.239
		C245.178,438.987,236.592,449.132,226.535,457.846L226.535,457.846z M135.936,299.849c0-95.564,73.237-174.022,166.647-182.309
		c5.398-0.479,10.863-0.723,16.385-0.723c0.003,0,0.007,0,0.01,0l16.031,0.708c0.115,0.01,0.229,0.02,0.344,0.03v-0.015
		C428.762,125.827,502,204.285,502,299.849c0,101.086-81.946,183.032-183.032,183.032c-33.72,0-65.304-9.129-92.433-25.035
		c19.254-16.685,33.405-38.86,39.877-64.011c0.012-0.046,0.024-0.092,0.036-0.138c2.535-9.9,3.881-20.259,3.881-30.925
		c0-4.567-0.247-9.079-0.729-13.522l-36.683,1.637l-4.474,0.2c-16.158,22.575-39.04,38.824-65.237,44.906
		C145.92,368.053,135.936,335.118,135.936,299.849z"/>
	<path style="fill:#AA836D;" d="M399.284,60.318c7.863-3.966,11.022-13.555,7.056-21.418s-13.555-11.022-21.418-7.056
		c-0.03,0.015-9.904,5.313-66.064,2.71c-55.405-2.568-63.966-9.31-63.992-9.329c-7.104-5.207-17.085-3.669-22.292,3.434
		c-5.207,7.104-3.669,17.085,3.434,22.292c0.049,0.035,16.191,12.422,81.475,15.448C382.012,69.391,399.233,60.344,399.284,60.318z"
		/>
</g>
<path d="M299.646,43.404l0.32,0.024c0.253,0.02,0.505,0.028,0.756,0.028c5.184,0,9.568-4.001,9.961-9.255
	c0.412-5.507-3.719-10.306-9.227-10.717l-0.305-0.024c-5.522-0.413-10.309,3.711-10.725,9.219
	C290.012,38.187,294.139,42.988,299.646,43.404z"/>
<path d="M61.388,451.184l-0.202-0.173c-4.199-3.59-10.512-3.095-14.1,1.102c-3.589,4.197-3.096,10.51,1.102,14.1l0.202,0.173
	c1.885,1.611,4.195,2.399,6.494,2.399c2.822,0,5.628-1.188,7.605-3.501C66.078,461.087,65.585,454.774,61.388,451.184z"/>
<path d="M217.016,182.442c-34.026,29.547-53.542,72.34-53.542,117.406c0,5.522,4.478,10,10,10s10-4.478,10-10
	c0-39.27,17.005-76.559,46.655-102.305c4.17-3.621,4.615-9.938,0.994-14.107C227.502,179.266,221.185,178.822,217.016,182.442z"/>
<path d="M241.498,165.026c-0.012,0.007-0.082,0.048-0.093,0.055c-4.76,2.786-6.336,8.883-3.559,13.647
	c1.855,3.184,5.211,4.954,8.656,4.954c1.713,0,3.448-0.438,5.032-1.356c0.012-0.007,0.082-0.048,0.093-0.055
	c4.76-2.786,6.336-8.883,3.558-13.647C252.408,163.857,246.269,162.258,241.498,165.026z"/>
<path d="M345.353,108.627V77c41.254-0.276,55.546-6.271,58.478-7.776c6.166-3.124,10.752-8.458,12.915-15.024
	c2.169-6.582,1.645-13.615-1.477-19.802c-3.121-6.188-8.465-10.79-15.048-12.959c-6.453-2.128-13.343-1.663-19.441,1.298
	c-1.36,0.446-12.46,3.568-52.536,2.189c-5.525-0.196-10.147,4.131-10.338,9.65c-0.19,5.52,4.131,10.148,9.65,10.338
	c45.191,1.557,58.289-2.337,61.87-4.142c1.418-0.716,3.03-0.834,4.537-0.339c1.509,0.497,2.733,1.552,3.448,2.971
	c0.716,1.417,0.836,3.028,0.339,4.536c-0.491,1.49-1.526,2.703-2.919,3.422c-0.787,0.339-15.325,6.282-60.057,5.579
	c-0.899-0.014-1.803-0.031-2.719-0.05c-0.236-0.005-0.47-0.01-0.708-0.015c-1.236-0.028-2.484-0.06-3.747-0.098
	c-0.004,0-0.008,0-0.012,0c-2.695-0.081-5.447-0.183-8.236-0.306c-0.01,0-0.019,0-0.029-0.001c-0.459-0.02-0.913-0.039-1.378-0.061
	c-58.223-2.699-75.249-13.034-76.067-13.555c-2.61-1.947-3.169-5.653-1.241-8.283c1.939-2.642,5.658-3.217,8.302-1.293
	c2.392,1.765,6.649,3.404,12.66,4.875c1.278,0.313,2.656,0.622,4.095,0.919c5.406,1.121,10.698-2.361,11.816-7.769
	c1.117-5.408-2.361-10.699-7.77-11.816c-1.204-0.249-2.345-0.505-3.39-0.76c-3.77-0.923-5.508-1.648-6.006-1.878
	c-11.51-8.084-27.482-5.496-35.839,5.898c-8.418,11.488-5.973,27.661,5.499,36.201h-0.001c2.736,2.054,17.294,11.272,62.578,15.712
	v33.965c-93.999,12.906-166.647,93.733-166.647,191.221c0,30.94,7.385,61.241,21.455,88.486c-2.395,0.189-4.804,0.295-7.226,0.295
	c-31.211,0-60.423-15.806-80.146-43.363c-0.447-0.624-0.958-1.188-1.523-1.685c-1.694-1.492-3.863-2.382-6.162-2.485l-41.158-1.837
	c-5.298-0.245-9.819,3.666-10.388,8.913C0.265,352.99,0,357.902,0,362.771c0,29.713,9.561,57.984,27.649,81.758
	c3.343,4.397,9.619,5.25,14.013,1.903c4.395-3.344,5.248-9.618,1.903-14.013C28.149,412.157,20,388.073,20,362.771
	c0-1.03,0.014-2.063,0.042-3.096l19.583,0.874c6.882,23.973,18.988,44.769,35.312,60.467c18.801,18.077,41.355,27.633,65.228,27.633
	c23.871,0,46.427-9.556,65.227-27.634c16.324-15.697,28.43-36.492,35.312-60.466l19.584-0.874c0.028,1.033,0.042,2.065,0.042,3.096
	c0,1.036-0.014,2.07-0.043,3.102c-0.003,0.104-0.009,0.207-0.012,0.312c-0.558,18.567-5.65,36.58-14.626,52.62
	c-0.216,0.385-0.439,0.767-0.66,1.149c-0.234,0.408-0.468,0.816-0.707,1.222c-0.429,0.723-0.865,1.442-1.309,2.155
	c-0.028,0.045-0.055,0.09-0.083,0.134c-21.102,33.78-59.254,56.385-102.723,56.385c-13.912,0-27.539-2.293-40.504-6.814
	c-3.865-1.348-7.705-2.91-11.413-4.645c-5.006-2.34-10.955-0.179-13.295,4.822c-2.34,5.003-0.181,10.955,4.822,13.295
	c4.322,2.021,8.797,3.842,13.301,5.412c15.086,5.262,30.929,7.93,47.089,7.93c33.017,0,63.398-11.229,87.377-29.979
	c27.988,15.068,59.445,23.008,91.426,23.008C425.406,492.88,512,406.287,512,299.848C512,202.36,439.352,121.533,345.353,108.627z
	 M380.418,22.916c-0.032,0.017-0.065,0.034-0.098,0.051c0.016-0.009,0.129-0.085,0.384-0.192
	C380.608,22.821,380.514,22.868,380.418,22.916z M394.81,51.375c-0.01,0.005-0.02,0.01-0.029,0.015
	c-0.041,0.021-0.081,0.041-0.122,0.063C394.664,51.449,394.712,51.421,394.81,51.375z M312.583,106.925V76.463h6.11
	c0.011,0,0.022,0.001,0.034,0.001c2.265,0.099,4.473,0.184,6.625,0.255v30.207c-0.122-0.004-0.24-0.002-0.361-0.006
	c-1.964-0.06-3.934-0.101-5.912-0.102c-0.072,0-0.145,0-0.217,0c-1.98,0.001-3.952,0.041-5.918,0.102
	C312.823,106.923,312.705,106.921,312.583,106.925z M140.165,428.649c-26.569,0-51.351-16.31-67.58-42.407
	c0.173,0.126,0.351,0.243,0.524,0.368c0.888,0.643,1.784,1.272,2.686,1.888c0.266,0.182,0.531,0.368,0.798,0.547
	c1.15,0.772,2.309,1.525,3.48,2.254c0.164,0.102,0.33,0.198,0.494,0.299c1.007,0.62,2.023,1.223,3.045,1.811
	c0.34,0.195,0.681,0.388,1.022,0.58c0.942,0.529,1.891,1.044,2.845,1.546c0.271,0.142,0.539,0.289,0.811,0.43
	c1.206,0.622,2.421,1.224,3.645,1.802c0.247,0.117,0.497,0.226,0.744,0.341c0.993,0.46,1.991,0.906,2.995,1.338
	c0.37,0.159,0.741,0.316,1.112,0.471c1.004,0.419,2.012,0.822,3.026,1.212c0.26,0.1,0.519,0.206,0.78,0.304
	c1.255,0.471,2.517,0.919,3.787,1.345c0.31,0.104,0.622,0.2,0.932,0.301c0.99,0.323,1.985,0.633,2.984,0.928
	c0.392,0.116,0.785,0.231,1.178,0.343c1.084,0.308,2.172,0.6,3.265,0.875c0.221,0.056,0.44,0.117,0.661,0.171
	c1.3,0.319,2.607,0.611,3.92,0.884c0.351,0.073,0.703,0.138,1.055,0.208c1.003,0.198,2.008,0.383,3.017,0.554
	c0.401,0.068,0.801,0.136,1.202,0.2c1.197,0.189,2.397,0.362,3.602,0.513c0.142,0.018,0.283,0.04,0.426,0.058
	c1.339,0.162,2.684,0.294,4.032,0.409c0.382,0.032,0.765,0.058,1.147,0.086c1.018,0.076,2.039,0.138,3.062,0.186
	c0.399,0.019,0.798,0.039,1.198,0.054c1.364,0.05,2.731,0.083,4.102,0.083s2.738-0.033,4.102-0.083
	c0.4-0.015,0.799-0.035,1.198-0.054c1.023-0.048,2.044-0.11,3.062-0.186c0.382-0.029,0.765-0.054,1.147-0.086
	c1.348-0.114,2.693-0.247,4.033-0.409c0.141-0.017,0.281-0.039,0.422-0.057c1.206-0.151,2.408-0.324,3.606-0.513
	c0.401-0.064,0.8-0.132,1.2-0.199c1.009-0.171,2.014-0.356,3.016-0.554c0.352-0.07,0.706-0.135,1.058-0.208
	c1.312-0.272,2.618-0.564,3.918-0.883c0.222-0.054,0.442-0.116,0.664-0.172c1.092-0.275,2.18-0.567,3.263-0.874
	c0.394-0.112,0.787-0.227,1.18-0.344c0.997-0.295,1.989-0.604,2.977-0.926c0.313-0.102,0.628-0.199,0.94-0.304
	c1.268-0.426,2.53-0.873,3.783-1.344c0.264-0.099,0.525-0.206,0.789-0.307c1.009-0.388,2.013-0.789,3.012-1.206
	c0.377-0.157,0.753-0.317,1.129-0.478c0.994-0.427,1.982-0.869,2.965-1.324c0.257-0.119,0.516-0.233,0.773-0.354
	c1.218-0.576,2.427-1.174,3.627-1.793c0.285-0.147,0.567-0.301,0.851-0.451c0.938-0.494,1.871-1,2.798-1.521
	c0.353-0.198,0.705-0.397,1.056-0.599c0.998-0.574,1.989-1.163,2.972-1.767c0.188-0.116,0.378-0.226,0.566-0.342
	c1.159-0.721,2.306-1.466,3.444-2.23c0.291-0.195,0.579-0.397,0.868-0.595c0.873-0.597,1.739-1.205,2.598-1.827
	c0.186-0.135,0.378-0.26,0.563-0.396C191.515,412.34,166.734,428.649,140.165,428.649z M318.968,472.88
	c-26.278,0-52.159-5.972-75.605-17.364c7.068-7.527,13.206-15.767,18.35-24.535c0.013-0.021,0.025-0.043,0.038-0.064
	c0.465-0.794,0.922-1.592,1.371-2.395c0.159-0.283,0.318-0.567,0.475-0.851c0.287-0.522,0.569-1.046,0.849-1.572
	c0.292-0.545,0.581-1.091,0.865-1.64c0.123-0.238,0.243-0.477,0.364-0.716c7.499-14.705,12.375-30.901,14.024-48.004
	c0.014-0.142,0.026-0.284,0.039-0.427c0.084-0.898,0.162-1.798,0.228-2.702c0.023-0.318,0.041-0.636,0.062-0.954
	c0.049-0.749,0.099-1.497,0.135-2.249c0.027-0.545,0.043-1.091,0.064-1.637c0.02-0.548,0.046-1.095,0.06-1.646
	c0.028-1.117,0.043-2.235,0.043-3.355c0-4.869-0.265-9.781-0.787-14.599c-0.568-5.247-5.125-9.157-10.388-8.913l-41.158,1.837
	c-2.682,0.12-5.187,1.311-6.968,3.28c-0.254,0.281-0.494,0.578-0.717,0.89c-0.769,1.075-1.558,2.127-2.359,3.168
	c-0.187,0.243-0.376,0.483-0.564,0.724c-0.733,0.938-1.476,1.865-2.233,2.774c-0.067,0.08-0.133,0.162-0.2,0.243
	c-12.838,15.313-29.11,26.455-46.945,32.133c-0.024,0.008-0.048,0.015-0.072,0.022c-14.414-25.721-22.001-54.771-22.001-84.481
	c0-90.242,69.444-164.558,157.698-172.345c1.205-0.106,2.409-0.2,3.61-0.282c0.138-0.009,0.277-0.017,0.415-0.026
	c1.141-0.075,2.28-0.139,3.415-0.192c0.382-0.017,0.766-0.029,1.148-0.044c0.908-0.036,1.816-0.071,2.718-0.093
	c1.336-0.031,2.675-0.051,4.018-0.051c0.003,0,0.007,0,0.01,0c1.347,0,2.69,0.02,4.03,0.051c0.896,0.022,1.799,0.056,2.702,0.092
	c0.388,0.015,0.777,0.027,1.165,0.044c1.131,0.052,2.267,0.117,3.405,0.191c0.141,0.009,0.283,0.018,0.424,0.027
	c1.2,0.081,2.403,0.175,3.607,0.281C422.555,135.29,492,209.606,492,299.848C492,395.258,414.378,472.88,318.968,472.88z"/>
<path d="M437.814,350.921c-5.523,0-10,4.478-10,10v0.276c0,5.522,4.477,10,10,10c5.522,0,10-4.478,10-10v-0.276
	C447.814,355.398,443.336,350.921,437.814,350.921z"/>
<path d="M466.808,337.04c-5.522,0-10,4.478-10,10v0.277c0,5.522,4.478,10,10,10c5.523,0,10-4.478,10-10v-0.277
	C476.808,341.517,472.33,337.04,466.808,337.04z"/>
<path d="M439.973,322.266c-5.522,0-10,4.478-10,10v0.277c0,5.522,4.478,10,10,10s10-4.478,10-10v-0.277
	C449.973,326.744,445.495,322.266,439.973,322.266z"/>
<path d="M466.499,326.812c5.523,0,10-4.478,10-10v-0.276c0-5.522-4.477-10-10-10c-5.522,0-10,4.478-10,10v0.276
	C456.499,322.335,460.977,326.812,466.499,326.812z"/>
<g>
</g>
<g>
</g>
<g>
</g>
<g>
</g>
<g>
</g>
<g>
</g>
<g>
</g>
<g>
</g>
<g>
</g>
<g>
</g>
<g>
</g>
<g>
</g>
<g>
</g>
<g>
</g>
<g>
</g>
</svg>
