<?xml version="1.0" encoding="iso-8859-1"?>
<!-- Generator: Adobe Illustrator 21.0.0, SVG Export Plug-In . SVG Version: 6.00 Build 0)  -->
<svg version="1.1" id="Capa_1" xmlns="http://www.w3.org/2000/svg" xmlns:xlink="http://www.w3.org/1999/xlink" x="0px" y="0px"
	 viewBox="0 0 512 512" style="enable-background:new 0 0 512 512;" xml:space="preserve">
<g>
	<path style="fill:#C8FA8B;" d="M213.296,221.956c0,0-9.917-33.082-28.316-61.79c-0.001-0.002-0.003-0.004-0.004-0.006
		c-7.106-11.087-15.477-21.521-25.03-29.144c0,0-37.278,57.624-70.805,170.007C89.141,301.023,134.451,250.806,213.296,221.956z"/>
	<path style="fill:#87DD60;" d="M213.296,221.956c-78.845,28.849-124.154,79.067-124.154,79.067
		c-28.507,49.689-20.691,109.687,15.727,143.25c5.113,4.717,10.792,8.911,17.014,12.481l3.692,2.118l3.692,2.118
		c6.222,3.569,12.709,6.352,19.361,8.388c47.355,14.5,103.096-9.034,131.604-58.724c76.653-133.608,159.851-188.137,159.851-188.137
		c-23.314-8.118-45.728-13.521-67.158-16.705C310.783,196.578,256.908,205.998,213.296,221.956z"/>
	<path style="fill:#00C56E;" d="M121.882,456.753c-6.222-3.57-11.902-7.763-17.014-12.481l-18.715,32.62l43.76,25.105l18.715-32.62
		c-6.653-2.032-13.139-4.819-19.361-8.388l-3.692-2.118L121.882,456.753z"/>
	<g>
		<path style="fill:#FFCF33;" d="M242.671,191.357l16.852,9.668c8.215,4.713,18.793,1.848,23.506-6.367
			c4.713-8.215,1.848-18.793-6.367-23.506l-16.852-9.668c-8.215-4.713-18.793-1.848-23.506,6.367
			C231.591,176.066,234.456,186.644,242.671,191.357z"/>
		<path style="fill:#FFCF33;" d="M259.81,161.484l16.852,9.668c8.215,4.713,18.793,1.848,23.506-6.367
			c4.713-8.215,1.848-18.793-6.367-23.506l-16.852-9.668c-8.215-4.713-18.793-1.848-23.506,6.368
			C248.73,146.193,251.595,156.77,259.81,161.484z"/>
		<path style="fill:#FFCF33;" d="M276.949,131.609l16.852,9.668c8.208,4.709,18.774,1.853,23.493-6.346
			c0.004-0.007,0.009-0.015,0.013-0.022s0.008-0.015,0.013-0.022c4.695-8.212,1.828-18.775-6.38-23.484l-16.852-9.668
			c-8.215-4.713-18.793-1.848-23.506,6.368C265.869,116.318,268.734,126.896,276.949,131.609z"/>
		<path style="fill:#FFCF33;" d="M340.814,128.541l16.851,9.668c8.215,4.713,18.793,1.848,23.506-6.367s1.848-18.793-6.367-23.506
			l-16.852-9.668c-8.215-4.713-18.793-1.848-23.506,6.367C329.734,113.251,332.599,123.828,340.814,128.541z"/>
		<path style="fill:#FFCF33;" d="M340.814,128.542l16.852,9.668c8.215,4.713,11.08,15.291,6.367,23.506l0,0
			c-4.713,8.215-15.291,11.08-23.506,6.367l-16.852-9.668c-8.215-4.713-11.081-15.291-6.367-23.506l0,0
			C322.021,126.694,332.599,123.829,340.814,128.542z"/>
		<path style="fill:#FFCF33;" d="M328.367,41.988l16.852,9.668c8.215,4.713,11.08,15.291,6.367,23.506l0,0
			c-4.713,8.215-15.29,11.08-23.505,6.367l-16.852-9.668c-8.215-4.713-11.081-15.291-6.367-23.506l0,0
			C309.574,40.14,320.152,37.275,328.367,41.988z"/>
		<path style="fill:#FFCF33;" d="M276.949,131.609c-8.215-4.713-11.08-15.291-6.367-23.506c4.713-8.215,15.291-11.081,23.506-6.368
			l16.852,9.668c8.208,4.709,11.075,15.272,6.38,23.484c0.003-0.006,0.007-0.011,0.01-0.017c4.724-8.186,15.282-11.035,23.484-6.329
			c-8.215-4.713-11.081-15.291-6.367-23.506c4.713-8.215,15.291-11.08,23.506-6.367l16.852,9.668
			c8.215,4.713,11.08,15.291,6.367,23.506c-4.713,8.215-15.29,11.08-23.506,6.367c8.215,4.713,11.08,15.291,6.367,23.506
			c-4.713,8.215-15.291,11.08-23.506,6.367l-16.852-9.668c-8.208-4.709-11.076-15.272-6.38-23.484
			c-0.003,0.006-0.007,0.011-0.01,0.017c-4.724,8.186-15.281,11.034-23.483,6.329c8.215,4.713,11.08,15.291,6.367,23.506
			c-4.713,8.215-15.291,11.081-23.506,6.368c8.215,4.713,11.08,15.291,6.367,23.506c-4.713,8.215-15.291,11.08-23.506,6.367
			l-16.852-9.668c-8.215-4.713-11.08-15.291-6.367-23.506c4.713-8.215,15.291-11.081,23.506-6.367
			c-8.215-4.714-11.08-15.291-6.367-23.506C258.156,129.761,268.734,126.896,276.949,131.609L276.949,131.609z M311.228,71.862
			c-8.215-4.713-11.081-15.291-6.367-23.506c4.713-8.215,15.291-11.08,23.506-6.367l16.852,9.668
			c8.215,4.713,11.08,15.291,6.367,23.506c-4.713,8.215-15.29,11.08-23.505,6.367L311.228,71.862L311.228,71.862z M184.979,160.167
			c18.399,28.707,28.316,61.79,28.316,61.79c43.614-15.958,97.486-25.377,159.628-16.144c30.172-85.45,46.13-168.586,7.328-190.847
			C333.699-11.743,251.288,73.82,184.979,160.167z"/>
	</g>
</g>
<path d="M390.706,47.171c0.016,0.073,0.035,0.157,0.054,0.237c1.078,4.587,5.175,7.71,9.725,7.71c0.694,0,1.399-0.072,2.105-0.224
	c5.399-1.157,8.84-6.474,7.683-11.874c-0.016-0.073-0.035-0.156-0.054-0.235c-1.243-5.288-6.496-8.632-11.83-7.488
	C392.989,36.454,389.548,41.771,390.706,47.171z"/>
<path d="M450.006,221.294c-0.466-3.78-3.039-6.969-6.637-8.221c-18.989-6.612-38.153-11.679-57.133-15.161
	c16.198-47.784,25.176-87.44,26.695-117.992c0.274-5.516-3.975-10.21-9.49-10.483c-0.17-0.009-0.338-0.013-0.505-0.013
	c-5.295,0-9.714,4.156-9.979,9.503c-0.454,9.123-1.637,19.167-3.535,30.096c-2.303-3.762-5.551-7.015-9.64-9.361l-16.853-9.668
	c-2.617-1.502-5.383-2.511-8.19-3.072c2.14-1.901,4.019-4.166,5.521-6.784c3.608-6.29,4.547-13.626,2.643-20.656
	c-1.905-7.031-6.418-12.891-12.708-16.499l-16.852-9.669c-1.88-1.079-3.856-1.914-5.887-2.511
	c19.926-11.258,36.141-13.866,47.819-7.165c1.772,1.017,3.427,2.235,4.916,3.62c4.043,3.76,10.371,3.531,14.133-0.514
	c3.761-4.044,3.531-10.371-0.514-14.133c-2.603-2.42-5.49-4.547-8.582-6.321c-42.323-24.28-109.522,21.819-199.828,137.024
	c-6.19-8.112-12.624-14.852-19.216-20.112c-2.208-1.761-5.06-2.505-7.846-2.054c-2.788,0.455-5.254,2.067-6.788,4.438
	c-0.358,0.554-8.917,13.86-21.498,39.892c-2.404,4.973-0.321,10.952,4.651,13.355c4.971,2.401,10.951,0.32,13.355-4.652
	c5.758-11.914,10.652-21.069,14.189-27.375c4.852,5.194,9.64,11.466,14.309,18.752c0.673,1.049,1.33,2.107,1.98,3.169
	c0.168,0.274,0.333,0.549,0.499,0.823c0.505,0.835,1.003,1.673,1.494,2.512c0.149,0.255,0.3,0.51,0.447,0.765
	c0.616,1.065,1.223,2.132,1.816,3.199c0.066,0.12,0.13,0.239,0.197,0.359c0.524,0.948,1.038,1.896,1.543,2.842
	c0.161,0.301,0.32,0.602,0.479,0.903c0.444,0.842,0.882,1.681,1.311,2.518c0.12,0.233,0.242,0.467,0.361,0.7
	c0.533,1.047,1.055,2.091,1.564,3.127c0.108,0.219,0.211,0.435,0.318,0.653c0.406,0.831,0.804,1.657,1.194,2.478
	c0.146,0.308,0.292,0.616,0.436,0.922c0.39,0.829,0.772,1.651,1.146,2.467c0.088,0.192,0.179,0.387,0.267,0.578
	c0.447,0.981,0.881,1.951,1.305,2.909c0.123,0.278,0.241,0.551,0.362,0.826c0.311,0.709,0.615,1.41,0.913,2.103
	c0.13,0.302,0.26,0.605,0.387,0.904c0.341,0.802,0.674,1.594,0.997,2.372c0.051,0.122,0.104,0.248,0.155,0.37
	c0.362,0.875,0.708,1.728,1.046,2.567c0.118,0.293,0.232,0.58,0.347,0.868c0.233,0.584,0.46,1.158,0.681,1.722
	c0.108,0.276,0.217,0.554,0.323,0.824c0.297,0.764,0.587,1.515,0.861,2.237c0.066,0.174,0.127,0.338,0.192,0.509
	c0.216,0.573,0.426,1.133,0.627,1.676c0.101,0.271,0.198,0.536,0.295,0.8c0.164,0.447,0.323,0.882,0.476,1.305
	c0.058,0.159,0.116,0.321,0.172,0.477c-0.334,0.133-0.663,0.269-0.996,0.403c-0.605,0.243-1.208,0.487-1.808,0.731
	c-0.622,0.254-1.241,0.508-1.858,0.764c-0.584,0.242-1.166,0.485-1.746,0.729c-0.622,0.262-1.243,0.525-1.86,0.789
	c-0.567,0.243-1.132,0.486-1.696,0.731c-0.622,0.27-1.241,0.54-1.857,0.811c-0.549,0.242-1.095,0.484-1.64,0.728
	c-0.623,0.278-1.244,0.557-1.861,0.837c-0.529,0.24-1.056,0.481-1.582,0.723c-0.621,0.286-1.242,0.571-1.858,0.859
	c-0.515,0.24-1.026,0.481-1.537,0.723c-0.62,0.293-1.238,0.585-1.852,0.88c-0.495,0.238-0.987,0.476-1.479,0.714
	c-0.621,0.301-1.241,0.602-1.856,0.905c-0.476,0.234-0.948,0.469-1.421,0.704c-0.622,0.309-1.244,0.619-1.86,0.93
	c-0.455,0.229-0.906,0.46-1.357,0.69c-0.625,0.319-1.249,0.637-1.868,0.957c-0.436,0.225-0.867,0.452-1.299,0.678
	c-0.623,0.326-1.247,0.651-1.864,0.978c-0.42,0.223-0.835,0.446-1.252,0.669c-0.622,0.333-1.245,0.666-1.861,0.999
	c-0.397,0.215-0.788,0.431-1.182,0.647c-0.628,0.344-1.256,0.687-1.876,1.031c-0.371,0.206-0.737,0.412-1.105,0.618
	c-0.634,0.355-1.268,0.709-1.895,1.065c-0.343,0.195-0.681,0.39-1.022,0.585c-0.644,0.368-1.288,0.736-1.924,1.105
	c-0.308,0.179-0.611,0.358-0.917,0.537c-0.659,0.384-1.318,0.769-1.968,1.154c-0.269,0.159-0.533,0.319-0.801,0.478
	c-0.681,0.406-1.363,0.812-2.035,1.218c-0.193,0.117-0.382,0.233-0.574,0.35c-0.738,0.448-1.474,0.896-2.201,1.344
	c-0.067,0.042-0.133,0.083-0.2,0.125c-4.265,2.634-8.324,5.263-12.179,7.861c-0.179,0.121-0.363,0.242-0.541,0.363
	c-0.581,0.393-1.152,0.784-1.724,1.176c-0.237,0.162-0.478,0.325-0.713,0.487c-0.531,0.366-1.052,0.729-1.575,1.093
	c-0.27,0.188-0.543,0.377-0.811,0.564c-0.495,0.347-0.982,0.692-1.47,1.037c-0.285,0.202-0.573,0.404-0.855,0.605
	c-0.468,0.334-0.928,0.665-1.389,0.997c-0.293,0.211-0.589,0.422-0.878,0.632c-0.452,0.327-0.896,0.652-1.34,0.977
	c-0.287,0.21-0.577,0.421-0.861,0.63c-0.444,0.327-0.88,0.651-1.317,0.976c-0.276,0.205-0.554,0.411-0.827,0.615
	c-0.43,0.322-0.853,0.641-1.276,0.96c-0.271,0.205-0.544,0.41-0.813,0.614c-0.419,0.319-0.831,0.634-1.244,0.95
	c-0.261,0.2-0.524,0.401-0.783,0.601c-0.408,0.315-0.809,0.626-1.209,0.938c-0.253,0.197-0.507,0.395-0.758,0.59
	c-0.4,0.313-0.794,0.624-1.187,0.934c-0.239,0.189-0.478,0.377-0.714,0.565c-0.137,0.109-0.278,0.219-0.414,0.327
	c4.688-13.868,9.604-27.394,14.705-40.458c2.01-5.145-0.532-10.943-5.677-12.952c-5.147-2.011-10.943,0.532-12.952,5.677
	c-9.412,24.099-18.19,49.717-26.104,76.149c-28.123,50.026-22.65,111.025,12.524,148.78l-14.916,25.998
	c-1.32,2.301-1.672,5.031-0.979,7.591s2.376,4.74,4.676,6.06l43.76,25.104c1.569,0.9,3.279,1.328,4.967,1.328
	c3.466,0,6.835-1.804,8.684-5.025l14.9-25.971c7.846,1.763,15.813,2.618,23.787,2.618c43.57,0,87.272-25.534,111.63-67.991
	c74.38-129.646,155.854-184.22,156.659-184.75C448.749,228.793,450.472,225.076,450.006,221.294z M278.57,118.554
	c-0.508-1.874-0.264-3.818,0.687-5.475c1.333-2.323,3.77-3.626,6.274-3.626c1.218,0,2.452,0.309,3.582,0.956h-0.001l16.852,9.668
	c3.453,1.981,4.651,6.402,2.67,9.854c-1.98,3.455-6.403,4.65-9.855,2.671l-16.852-9.668h-0.001
	C280.269,121.985,279.078,120.429,278.57,118.554z M352.689,146.884c3.453,1.982,4.65,6.403,2.67,9.857
	c-1.98,3.455-6.401,4.652-9.855,2.67l-16.852-9.669c-3.451-1.98-4.649-6.398-2.673-9.85c0.001-0.001,0.002-0.003,0.003-0.004
	c0.001-0.002,0.002-0.003,0.003-0.005c1.333-2.322,3.769-3.622,6.272-3.622c1.218,0,2.451,0.308,3.581,0.956L352.689,146.884z
	 M262.117,142.954c1.333-2.324,3.771-3.627,6.276-3.627c1.216,0,2.448,0.308,3.576,0.954c0.001,0.001,0.003,0.002,0.004,0.003
	l16.851,9.668c3.454,1.981,4.651,6.403,2.67,9.856c-1.98,3.453-6.401,4.651-9.855,2.67l-16.852-9.669
	C261.333,150.828,260.136,146.407,262.117,142.954z M244.978,172.827c0.95-1.656,2.506-2.848,4.381-3.355
	c0.64-0.174,1.287-0.259,1.929-0.259c1.238,0,2.454,0.319,3.545,0.945c0.001,0,0.001,0,0.001,0l16.852,9.668
	c1.656,0.95,2.848,2.506,3.355,4.38c0.508,1.875,0.264,3.819-0.687,5.477c-0.95,1.656-2.506,2.848-4.38,3.355
	c-1.872,0.506-3.819,0.264-5.476-0.687l-16.852-9.668C244.195,180.702,242.996,176.281,244.978,172.827z M381.153,146.037
	c-4.006,15.074-8.997,31.336-14.982,48.761c-0.447-0.056-0.894-0.104-1.34-0.158c-0.646-0.078-1.292-0.154-1.938-0.228
	c-1.052-0.121-2.104-0.236-3.155-0.347c-0.617-0.065-1.235-0.131-1.852-0.193c-1.112-0.111-2.224-0.215-3.336-0.315
	c-0.551-0.05-1.103-0.102-1.654-0.149c-1.26-0.108-2.52-0.206-3.779-0.299c-0.401-0.03-0.802-0.064-1.202-0.092
	c-3.379-0.239-6.755-0.428-10.126-0.565c-0.279-0.012-0.557-0.019-0.835-0.029c-1.384-0.053-2.768-0.099-4.151-0.135
	c-0.466-0.012-0.932-0.019-1.398-0.029c-1.197-0.026-2.393-0.048-3.589-0.061c-0.534-0.006-1.067-0.008-1.601-0.012
	c-1.136-0.007-2.271-0.01-3.406-0.005c-0.552,0.002-1.103,0.006-1.655,0.011c-1.13,0.01-2.26,0.027-3.39,0.048
	c-0.537,0.01-1.074,0.02-1.611,0.033c-1.174,0.028-2.347,0.065-3.52,0.105c-0.483,0.017-0.966,0.031-1.448,0.05
	c-1.304,0.051-2.606,0.112-3.908,0.178c-0.346,0.018-0.693,0.032-1.039,0.051c-3.36,0.182-6.714,0.414-10.063,0.699
	c-0.198,0.017-0.396,0.037-0.595,0.054c-0.433,0.037-0.865,0.079-1.297,0.118c1.095-3.849,1.322-7.897,0.646-11.903
	c5.673-2.159,10.666-6.201,13.915-11.863c1.482-2.583,2.506-5.344,3.076-8.187c1.9,2.138,4.166,4.014,6.781,5.515l16.852,9.669
	c4.26,2.444,8.909,3.604,13.5,3.604c9.44,0,18.632-4.91,23.656-13.67c3.25-5.666,4.229-12.022,3.227-18.011
	C377.755,147.988,379.508,147.111,381.153,146.037z M369.829,117.01c1.656,0.95,2.848,2.506,3.355,4.38
	c0.508,1.875,0.264,3.819-0.687,5.477c-0.95,1.656-2.506,2.848-4.38,3.356c-1.875,0.507-3.819,0.264-5.475-0.687l-16.853-9.668
	c-3.453-1.981-4.651-6.402-2.67-9.855c1.333-2.324,3.771-3.626,6.274-3.626c1.218,0,2.451,0.308,3.581,0.956L369.829,117.01z
	 M340.243,60.331c3.452,1.981,4.649,6.402,2.669,9.856c-1.981,3.451-6.4,4.649-9.855,2.67l-16.851-9.668
	c-3.454-1.981-4.651-6.403-2.671-9.856c1.333-2.324,3.771-3.626,6.275-3.626c1.218,0,2.451,0.308,3.581,0.956L340.243,60.331z
	 M292.6,56.045c-0.299,9.73,4.635,19.317,13.652,24.491l16.853,9.668c2.615,1.5,5.378,2.513,8.184,3.074
	c-2.139,1.9-4.015,4.165-5.515,6.78c-1.501,2.617-2.51,5.382-3.071,8.19c-1.901-2.14-4.168-4.018-6.784-5.519l-16.852-9.668h-0.001
	c-13.018-7.471-29.686-2.953-37.155,10.063c-3.157,5.502-4.27,11.803-3.226,18.001c-5.674,2.159-10.665,6.211-13.914,11.874
	c-3.249,5.663-4.228,12.017-3.228,18.004c-5.877,2.227-10.755,6.369-13.911,11.87c-7.469,13.02-2.954,29.688,10.064,37.156
	l4.387,2.517c-0.451,0.116-0.901,0.238-1.351,0.355c-0.606,0.159-1.212,0.32-1.818,0.482c-1.007,0.269-2.013,0.543-3.018,0.822
	c-0.608,0.169-1.217,0.338-1.825,0.511c-1.017,0.288-2.032,0.583-3.047,0.881c-0.586,0.172-1.173,0.343-1.759,0.518
	c-1.076,0.322-2.152,0.654-3.226,0.987c-0.517,0.16-1.034,0.317-1.551,0.48c-1.303,0.411-2.604,0.833-3.904,1.261
	c-0.284,0.093-0.569,0.183-0.852,0.277c-0.059,0.02-0.119,0.038-0.178,0.058c-0.047-0.131-0.101-0.276-0.148-0.409
	c-0.168-0.465-0.34-0.939-0.52-1.43c-0.093-0.255-0.189-0.514-0.286-0.776c-0.167-0.452-0.339-0.913-0.515-1.384
	c-0.104-0.276-0.206-0.55-0.313-0.833c-0.201-0.532-0.41-1.078-0.623-1.631c-0.09-0.233-0.175-0.459-0.267-0.695
	c-0.302-0.778-0.614-1.575-0.938-2.391c-0.088-0.221-0.181-0.452-0.271-0.676c-0.246-0.617-0.497-1.24-0.756-1.876
	c-0.128-0.315-0.26-0.634-0.391-0.953c-0.235-0.571-0.473-1.148-0.717-1.732c-0.143-0.341-0.285-0.682-0.431-1.028
	c-0.258-0.611-0.523-1.231-0.791-1.855c-0.135-0.315-0.267-0.625-0.405-0.943c-0.405-0.934-0.818-1.877-1.245-2.836
	c-0.034-0.077-0.071-0.157-0.106-0.234c-0.396-0.888-0.803-1.786-1.219-2.692c-0.15-0.328-0.305-0.66-0.458-0.99
	c-0.31-0.67-0.623-1.342-0.944-2.019c-0.178-0.377-0.357-0.754-0.538-1.133c-0.319-0.669-0.645-1.341-0.974-2.017
	c-0.176-0.362-0.351-0.722-0.53-1.085c-0.396-0.804-0.801-1.612-1.211-2.423c-0.118-0.233-0.231-0.463-0.35-0.696
	c-0.524-1.03-1.06-2.064-1.606-3.102c-0.16-0.305-0.326-0.611-0.488-0.917c-0.397-0.747-0.797-1.494-1.205-2.243
	c-0.212-0.389-0.427-0.778-0.642-1.167c-0.376-0.681-0.756-1.362-1.141-2.044c-0.226-0.4-0.452-0.799-0.681-1.2
	c-0.413-0.721-0.833-1.441-1.256-2.161c-0.157-0.267-0.307-0.534-0.466-0.801C232.584,115.119,264.848,79.86,292.6,56.045z
	 M126.215,488.348l-26.411-15.151l7.877-13.729c0.298,0.216,0.603,0.423,0.903,0.635c0.379,0.268,0.756,0.538,1.139,0.801
	c0.443,0.305,0.893,0.601,1.341,0.899c0.333,0.222,0.664,0.447,1,0.665c0.537,0.348,1.081,0.687,1.624,1.025
	c0.258,0.161,0.512,0.326,0.771,0.484c0.809,0.494,1.625,0.979,2.447,1.45l7.384,4.237c0.823,0.472,1.654,0.932,2.49,1.381
	c0.269,0.145,0.542,0.282,0.813,0.424c0.56,0.295,1.12,0.59,1.686,0.875c0.377,0.19,0.758,0.371,1.137,0.556
	c0.465,0.227,0.93,0.457,1.398,0.677c0.418,0.197,0.839,0.385,1.26,0.576c0.34,0.154,0.676,0.314,1.017,0.465L126.215,488.348z
	 M381.836,259.407c-28.15,28.105-70.134,76.298-110.279,146.272c-25.697,44.79-76.164,67.561-120.001,54.139h-0.001
	c-5.089-1.557-10.031-3.604-14.732-6.087c-0.867-0.458-1.729-0.925-2.579-1.413l-7.384-4.236
	c-5.412-3.105-10.488-6.825-15.094-11.053c-0.039-0.036-0.08-0.071-0.12-0.107C78.181,406.083,72.205,351.6,97.254,306.99
	c4.878-5.125,35.357-35.928,85.514-60.978c0.437-0.218,0.872-0.437,1.313-0.654c0.895-0.442,1.795-0.883,2.702-1.322
	c1.218-0.588,2.448-1.171,3.688-1.751c0.698-0.327,1.399-0.652,2.104-0.976c1.43-0.656,2.872-1.308,4.33-1.952
	c0.525-0.232,1.055-0.463,1.584-0.694c1.626-0.708,3.264-1.411,4.924-2.102c0.364-0.152,0.731-0.301,1.097-0.452
	c1.817-0.749,3.65-1.491,5.508-2.218c0.198-0.078,0.399-0.153,0.598-0.231c2.011-0.782,4.041-1.554,6.1-2.307
	c0.005-0.002,0.011-0.003,0.016-0.005c49.827-18.231,101.883-23.497,154.723-15.643c0.001,0,0.002,0,0.003,0
	c15.587,2.317,31.38,5.813,47.152,10.43C409.431,233.535,396.768,244.498,381.836,259.407z"/>
<path d="M334.626,267.201c-4.194-3.598-10.506-3.111-14.1,1.079c-30.07,35.058-57.902,74.771-82.723,118.033
	c-2.748,4.791-1.093,10.902,3.697,13.65c1.569,0.9,3.279,1.328,4.967,1.328c3.466,0,6.835-1.805,8.684-5.025
	c24.197-42.179,51.301-80.857,80.555-114.965C339.301,277.109,338.818,270.795,334.626,267.201z"/>
<path d="M339.704,246.875l-0.281,0.301c-3.728,4.074-3.429,10.379,0.646,14.107c1.913,1.751,4.327,2.613,6.736,2.613
	c2.721,0,5.435-1.1,7.411-3.26c3.801-4.008,3.633-10.337-0.375-14.137C349.832,242.699,343.503,242.868,339.704,246.875z"/>
<path d="M124.029,203.034c1.288,0.559,2.629,0.823,3.95,0.822c3.867,0,7.56-2.262,9.206-6.023c2.252-5.028,0.01-10.935-5.016-13.201
	c-5.036-2.27-10.957-0.029-13.228,5.005l-0.131,0.3C116.625,194.999,118.97,200.839,124.029,203.034z"/>
<g>
</g>
<g>
</g>
<g>
</g>
<g>
</g>
<g>
</g>
<g>
</g>
<g>
</g>
<g>
</g>
<g>
</g>
<g>
</g>
<g>
</g>
<g>
</g>
<g>
</g>
<g>
</g>
<g>
</g>
</svg>
