<?xml version="1.0" encoding="iso-8859-1"?>
<!-- Generator: Adobe Illustrator 21.0.0, SVG Export Plug-In . SVG Version: 6.00 Build 0)  -->
<svg version="1.1" id="Capa_1" xmlns="http://www.w3.org/2000/svg" xmlns:xlink="http://www.w3.org/1999/xlink" x="0px" y="0px"
	 viewBox="0 0 512.001 512.001" style="enable-background:new 0 0 512.001 512.001;" xml:space="preserve">
<g>
	<path style="fill:#00C56E;" d="M502,333.339c0-70.768-57.367-128.135-128.135-128.135c-16.767,0-32.781,3.22-47.458,9.076
		c-47.273,18.86-80.677,65.058-80.677,119.059c0,35.533,14.463,67.687,37.824,90.898c23.164,23.016,55.077,37.238,90.312,37.238
		c32.286,0,61.783-11.941,84.315-31.646c4.26-3.725,8.271-7.729,12.005-11.982C489.992,395.29,502,365.717,502,333.339L502,333.339z
		 M305.984,265.458c17.372-17.372,41.371-28.117,67.88-28.117s50.508,10.745,67.88,28.117c17.372,17.372,28.117,41.371,28.117,67.88
		c0,26.509-10.745,50.508-28.117,67.88c-17.372,17.372-41.371,28.117-67.88,28.117s-50.508-10.745-67.88-28.117
		c-17.372-17.372-28.117-41.371-28.117-67.88C277.868,306.83,288.613,282.831,305.984,265.458z"/>
	<g>
		<path style="fill:#C8FA8B;" d="M441.745,265.458c-17.372-17.372-41.371-28.117-67.88-28.117v77.325
			c5.156,0,9.824,2.089,13.202,5.469L441.745,265.458z"/>
		<path style="fill:#C8FA8B;" d="M441.745,265.458l-54.677,54.677c3.379,3.379,5.47,8.047,5.47,13.202h77.325
			C469.862,306.83,459.117,282.831,441.745,265.458z"/>
		<path style="fill:#C8FA8B;" d="M469.862,333.339h-77.325c0,5.156-2.09,9.824-5.469,13.202l54.677,54.677
			C459.117,383.847,469.862,359.847,469.862,333.339z"/>
		<path style="fill:#C8FA8B;" d="M441.745,401.219l-54.677-54.677c-3.379,3.379-8.047,5.47-13.203,5.47v77.325
			C400.374,429.336,424.373,418.591,441.745,401.219z"/>
		<path style="fill:#C8FA8B;" d="M373.865,429.336v-77.325c-5.155,0-9.824-2.09-13.203-5.47l-54.677,54.677
			C323.357,418.591,347.356,429.336,373.865,429.336z"/>
		<path style="fill:#C8FA8B;" d="M305.984,401.219l54.677-54.677c-3.379-3.378-5.469-8.047-5.469-13.203h-77.325
			C277.868,359.847,288.613,383.847,305.984,401.219z"/>
		<path style="fill:#C8FA8B;" d="M277.868,333.339h77.325c0-5.155,2.09-9.824,5.469-13.203l-54.677-54.677
			C288.613,282.831,277.868,306.83,277.868,333.339z"/>
		<path style="fill:#C8FA8B;" d="M305.984,265.458l54.677,54.677c3.378-3.379,8.047-5.469,13.202-5.469v-77.325
			C347.356,237.342,323.357,248.087,305.984,265.458z"/>
		<path style="fill:#C8FA8B;" d="M360.662,320.137c-3.379,3.379-5.469,8.047-5.469,13.203s2.089,9.824,5.469,13.202
			c3.379,3.379,8.047,5.47,13.203,5.47s9.824-2.09,13.203-5.47c3.379-3.378,5.469-8.047,5.469-13.203
			c0-5.155-2.09-9.824-5.47-13.202c-3.378-3.379-8.047-5.469-13.202-5.469C368.709,314.668,364.041,316.757,360.662,320.137z"/>
	</g>
	<g>
		<path style="fill:#00C56E;" d="M50.294,68.76c7.186,23.333,57.384,48.886,105.647,28.308
			c-7.286-19.682-23.683-35.649-45.497-41.494C88.628,49.729,66.444,55.357,50.294,68.76z"/>
		<path style="fill:#00C56E;" d="M178.053,125.276c64.244,0,120.061,36.044,148.356,89.009
			c-47.273,18.86-80.68,65.053-80.68,119.054c0,35.533,14.466,67.684,37.827,90.896c-28.848,23.287-65.543,37.24-105.504,37.24
			c-92.839,0-168.099-75.26-168.099-168.099C9.953,200.536,85.214,125.276,178.053,125.276z"/>
	</g>
	<path style="fill:#AA836D;" d="M164.044,60.857c-8.202,13.056-10.55,25.494-6.006,54.524c0.396,2.322,0.695,4.657,0.896,7
		c0.113,1.317,0.195,2.636,0.247,3.955c6.196-0.693,12.49-1.061,18.871-1.061c5.397,0,10.733,0.254,16,0.752
		c-6.165-16.928-8.698-38.568-3.858-52.555C198.6,49.178,175.282,42.966,164.044,60.857z"/>
</g>
<path d="M11.06,271.665c0.635,0.121,1.267,0.18,1.889,0.18c4.704,0,8.897-3.334,9.813-8.125l0.038-0.199
	c1.037-5.426-2.52-10.664-7.945-11.701c-5.436-1.034-10.664,2.521-11.701,7.945l-0.038,0.199
	C2.077,265.388,5.634,270.628,11.06,271.665z"/>
<path d="M270.435,182.01c-16.318-13.535-35.794-23.482-56.325-28.767c-5.35-1.372-10.802,1.844-12.178,7.193
	c-1.376,5.35,1.844,10.802,7.193,12.178c17.693,4.553,34.478,13.125,48.54,24.789c1.867,1.549,4.13,2.304,6.38,2.304
	c2.873,0,5.726-1.231,7.703-3.615C275.273,191.841,274.686,185.537,270.435,182.01z"/>
<path d="M282.661,218.518c2.159,0,4.334-0.696,6.166-2.132c4.346-3.408,5.105-9.695,1.696-14.041l-0.255-0.316
	c-3.501-4.27-9.81-4.905-14.083-1.403c-4.27,3.502-4.901,9.793-1.399,14.064C276.757,217.205,279.694,218.518,282.661,218.518z"/>
<path d="M153.592,282.48l0.064-0.243c1.415-5.34-1.766-10.814-7.105-12.23c-5.34-1.414-10.814,1.765-12.23,7.105l-0.064,0.243
	c-1.415,5.34,1.766,10.815,7.105,12.23c0.859,0.228,1.721,0.336,2.569,0.336C148.357,289.921,152.405,286.961,153.592,282.48z"/>
<path d="M72.218,317.591c0.871,0.234,1.744,0.346,2.604,0.346c4.411,0,8.451-2.941,9.651-7.404l0.065-0.243
	c1.436-5.334-1.725-10.821-7.059-12.256c-5.339-1.435-10.821,1.726-12.256,7.059l-0.065,0.243
	C63.724,310.669,66.884,316.156,72.218,317.591z"/>
<path d="M127.015,341.678c-5.332-1.419-10.815,1.754-12.235,7.093l-0.064,0.242c-1.421,5.338,1.754,10.816,7.093,12.235
	c0.861,0.229,1.727,0.339,2.578,0.339c4.421,0,8.467-2.955,9.657-7.432l0.064-0.242
	C135.529,348.575,132.354,343.098,127.015,341.678z"/>
<path d="M138.248,407.056c-5.338-1.439-10.822,1.726-12.256,7.059l-0.065,0.243c-1.436,5.334,1.725,10.821,7.059,12.256
	c0.871,0.234,1.744,0.346,2.605,0.346c4.411,0,8.451-2.941,9.651-7.404l0.065-0.243C146.743,413.979,143.582,408.49,138.248,407.056
	z"/>
<path d="M373.865,195.204c-14.979,0-29.406,2.406-42.924,6.836c-28.069-46.957-75.753-78.102-129.376-85.204
	c-4.341-14.812-5.19-30.641-1.92-40.092c6.411-18.527-1.37-29.921-9.981-34.048c-11.587-5.555-25.924-0.154-34.089,12.843
	c-2.557,4.071-4.59,8.097-6.129,12.312c-9.724-10.446-22.288-18.151-36.415-21.936c-24.072-6.451-49.917-0.79-69.123,15.149
	c-3.109,2.58-4.36,6.778-3.172,10.64c3.919,12.726,16.734,25.185,34.278,33.327c13.819,6.415,28.772,9.629,43.755,9.629
	c9.579,0,19.17-1.314,28.488-3.945c0.267,2.003,0.565,4.067,0.901,6.215c0.044,0.28,0.106,0.552,0.172,0.823
	c-25.968,4.365-50.636,14.449-72.529,29.801c-30.113,21.116-52.655,50.555-65.189,85.132c-1.882,5.193,0.802,10.929,5.994,12.811
	c1.126,0.408,2.276,0.602,3.407,0.602c4.09,0,7.93-2.528,9.403-6.596c22.596-62.34,82.328-104.225,148.636-104.225
	c54.902,0,105.382,28.275,134.182,74.463c-45.315,22.688-76.505,69.566-76.505,123.599c0,34.13,12.448,65.402,33.034,89.533
	c-26.618,18.746-57.76,28.603-90.711,28.603c-85.115,0-156.017-69.192-158.052-154.24c-0.132-5.522-4.763-9.888-10.237-9.759
	c-5.522,0.132-9.891,4.715-9.759,10.237C1.119,344.372,20.136,388.06,53.55,420.73c33.469,32.724,77.685,50.746,124.501,50.746
	c37.676,0,74.6-12.095,104.924-34.203c24.308,21.285,56.116,34.203,90.889,34.203c46.208,0,89.134-22.932,114.824-61.343
	c3.07-4.591,1.838-10.803-2.753-13.873c-4.591-3.068-10.802-1.839-13.873,2.753c-21.97,32.85-58.68,52.461-98.197,52.461
	c-65.139,0-118.134-52.995-118.134-118.135c0-65.139,52.995-118.133,118.134-118.133S491.998,268.2,491.998,333.339
	c0,2.946-0.112,5.935-0.334,8.878c-0.415,5.509,3.714,10.309,9.222,10.724c5.496,0.421,10.309-3.714,10.724-9.222
	c0.259-3.441,0.391-6.935,0.391-10.38C512.001,257.171,450.033,195.204,373.865,195.204z M83.435,86.888
	C73.361,82.212,66.817,76.62,63.152,71.81c13.267-8.184,29.464-10.656,44.703-6.576c14.525,3.892,26.825,13.381,34.351,26.143
	C115.176,99.22,92.555,91.12,83.435,86.888z M168.029,115.555c0.009-0.567-0.019-1.141-0.11-1.72
	c-1.05-6.708-1.7-12.355-1.993-17.221c-0.005-0.117-0.013-0.235-0.023-0.352c-0.844-14.823,1.706-22.278,6.609-30.084
	c3.209-5.109,7.183-6.083,8.506-5.446c0.897,0.43,1.738,3.649-0.275,9.471c-4.681,13.53-3.472,30.679-0.201,45.115
	c-0.83-0.011-1.657-0.042-2.489-0.042C174.699,115.275,171.356,115.37,168.029,115.555z"/>
<path d="M448.816,258.387c-0.26-0.26-0.533-0.501-0.814-0.726c-19.129-18.743-45.304-30.32-74.137-30.32
	c-28.832,0-55.006,11.576-74.134,30.317c-0.282,0.227-0.556,0.468-0.818,0.729c-0.262,0.262-0.504,0.537-0.73,0.819
	c-18.74,19.128-30.316,45.302-30.316,74.132c0,28.831,11.575,55.004,30.315,74.132c0.227,0.283,0.469,0.558,0.731,0.82
	s0.537,0.503,0.819,0.73c19.129,18.741,45.302,30.316,74.134,30.316c28.831,0,55.005-11.575,74.133-30.316
	c0.282-0.227,0.557-0.468,0.819-0.73c0.262-0.262,0.504-0.537,0.731-0.82c18.74-19.128,30.315-45.302,30.315-74.132
	c0-28.833-11.577-55.007-30.32-74.136C449.318,258.922,449.077,258.648,448.816,258.387z M441.29,386.621l-41.36-41.36
	c0.289-0.629,0.56-1.269,0.803-1.921h58.527C457.372,359.569,450.948,374.426,441.29,386.621z M288.469,343.34h58.527
	c0.244,0.653,0.515,1.292,0.803,1.921l-41.36,41.36C296.781,374.426,290.358,359.569,288.469,343.34z M306.439,280.058l41.36,41.359
	c-0.289,0.629-0.56,1.268-0.803,1.921h-58.528C290.358,307.108,296.781,292.252,306.439,280.058z M365.194,333.339
	c0-4.777,3.885-8.665,8.661-8.67c0.003,0,0.007,0,0.01,0c0.003,0,0.006,0,0.01,0c4.776,0.005,8.661,3.892,8.661,8.67
	c0,4.78-3.89,8.671-8.671,8.671C369.084,342.01,365.194,338.119,365.194,333.339z M385.787,307.272
	c-0.629-0.289-1.268-0.56-1.921-0.803v-58.526c16.23,1.889,31.085,8.313,43.28,17.97L385.787,307.272z M363.864,306.469
	c-0.653,0.244-1.292,0.515-1.921,0.803l-41.36-41.359c12.195-9.658,27.052-16.081,43.281-17.97L363.864,306.469L363.864,306.469z
	 M361.943,359.404c0.629,0.289,1.269,0.56,1.921,0.803v58.527c-16.23-1.889-31.086-8.313-43.281-17.971L361.943,359.404z
	 M383.866,360.209c0.653-0.244,1.292-0.515,1.921-0.803l41.36,41.36c-12.195,9.658-27.052,16.081-43.281,17.971L383.866,360.209
	L383.866,360.209z M400.734,323.338c-0.244-0.653-0.515-1.292-0.803-1.921l41.359-41.359c9.658,12.195,16.081,27.052,17.971,43.281
	h-58.527V323.338z"/>
<path d="M497.068,369.606c-5.184-1.918-10.947,0.76-12.864,5.937c-1.97,5.158,0.62,10.912,5.776,12.886
	c1.171,0.448,2.375,0.66,3.56,0.66c4.028,0,7.833-2.457,9.361-6.44l0.085-0.224C504.903,377.246,502.246,371.525,497.068,369.606z"
	/>
<g>
</g>
<g>
</g>
<g>
</g>
<g>
</g>
<g>
</g>
<g>
</g>
<g>
</g>
<g>
</g>
<g>
</g>
<g>
</g>
<g>
</g>
<g>
</g>
<g>
</g>
<g>
</g>
<g>
</g>
</svg>
