<?xml version="1.0" encoding="iso-8859-1"?>
<!-- Generator: Adobe Illustrator 21.0.0, SVG Export Plug-In . SVG Version: 6.00 Build 0)  -->
<svg version="1.1" id="Capa_1" xmlns="http://www.w3.org/2000/svg" xmlns:xlink="http://www.w3.org/1999/xlink" x="0px" y="0px"
	 viewBox="0 0 512 512" style="enable-background:new 0 0 512 512;" xml:space="preserve">
<g>
	<g>
		<path style="fill:#FD4848;" d="M359.107,318.302c-27.219,35.971-60.295,72.979-98.811,100.771
			c69.893,45.684,153.61,68.094,241.537,13.431C452.971,411.159,405.588,368.616,359.107,318.302z"/>
		<path style="fill:#FD4848;" d="M296.384,121.501c-15.076,22.807-30.051,46.676-45.076,70.768
			c-2.941,4.714-5.883,9.438-8.83,14.164c-60.373,96.853-122.052,194.641-194.884,239.143
			c82.574,36.834,153.964,15.88,212.703-26.504c-0.003-0.002-0.005-0.003-0.007-0.005c38.519-27.795,71.591-64.799,98.814-100.771
			c0.001,0.001,0.003,0.003,0.004,0.004c29.608-39.128,52.288-77.029,67.507-100.51c-3.416-8.424-9.013-16-16.677-21.787
			c-23.381-17.653-57.5-12.245-75.819,12.019c18.32-24.264,14.179-58.558-9.202-76.213
			C316.401,125.384,306.464,122.017,296.384,121.501z"/>
		<path style="fill:#FD4848;" d="M251.307,192.271c-13.394-15.998-26.75-31.76-40.081-46.939
			c-9.916,1.883-19.302,6.572-26.862,14.099c-20.759,20.674-20.19,55.213,1.264,76.755c-21.453-21.543-55.991-22.255-76.75-1.582
			c-6.805,6.777-11.318,15.044-13.553,23.854c15.338,17.786,37.273,44.924,64.418,73.717
			c28.428-38.863,55.713-82.394,82.734-125.741c0.42-0.674,0.84-1.348,1.261-2.022C246.262,200.361,248.786,196.313,251.307,192.271
			z"/>
	</g>
	<g>
		<path style="fill:#87DD60;" d="M185.628,236.186c-21.453-21.543-22.023-56.083-1.264-76.755
			c7.559-7.527,16.946-12.216,26.862-14.099c-2.398-2.731-4.796-5.441-7.192-8.132c-28.421-28.539-70.642-34.676-102.155-17.43
			c0.002,0.001,0.004,0.003,0.005,0.004c-6.102,3.34-11.805,7.55-16.927,12.65c-3.535,3.52-6.627,7.297-9.285,11.278
			c-21.086,31.575-14.931,76.042,13.566,107.817c1.895,2.113,3.924,4.434,6.086,6.939c2.236-8.809,6.749-17.077,13.553-23.854
			C129.637,213.932,164.175,214.643,185.628,236.186z"/>
		<path style="fill:#87DD60;" d="M419.717,91.519c5.6,4.227,10.399,9.077,14.407,14.403c15.872-11.634,35.081-23.108,45.755-28.162
			c10.035-5.245-0.019-32.372-7.775-30.247c-17.195,7.274-44.245,21.439-63.341,37.128c3.789,1.944,7.451,4.232,10.946,6.871
			C419.712,91.515,419.714,91.517,419.717,91.519z"/>
		<path style="fill:#87DD60;" d="M434.124,105.923c-4.008-5.326-8.807-10.176-14.407-14.404c-1.499-1.132-3.028-2.197-4.583-3.2
			c-0.102-0.063-0.203-0.128-0.304-0.192c-1.53-0.962-3.107-1.885-4.516-2.659c-0.516-0.281-1.035-0.554-1.556-0.821
			c0.002-0.001,0.003-0.003,0.005-0.004c-34.757-17.834-80.244-6.768-106.362,27.824c-2.008,2.992-4.014,6.004-6.017,9.035
			c10.08,0.515,20.018,3.882,28.531,10.31c23.381,17.653,27.522,51.948,9.202,76.213c18.32-24.264,52.438-29.672,75.819-12.019
			c7.665,5.787,13.261,13.363,16.677,21.787c1.797-2.778,3.492-5.353,5.082-7.704C454.375,176.54,455.576,134.413,434.124,105.923z"
			/>
		<path style="fill:#87DD60;" d="M101.88,119.771c-22.632-16.854-60.067-30.64-82.311-36.644
			c-8.336-1.484-14.191,30.772-3.846,33.29c13.694,4.321,40.243,15.803,59.951,27.285c0.51-0.765,1.034-1.518,1.573-2.261
			c2.327-3.215,4.91-6.23,7.713-9.018c0.693-0.692,1.401-1.368,2.121-2.031c0.183-0.169,0.367-0.337,0.552-0.502
			C92.037,125.912,96.821,122.539,101.88,119.771z"/>
	</g>
</g>
<path d="M269.28,373.637c12.353-10.963,24.819-23.541,37.049-37.384c3.718-4.208,3.32-10.633-0.888-14.35
	c-4.209-3.719-10.633-3.321-14.35,0.888c-11.689,13.231-23.567,25.221-35.308,35.64c-17.726,15.733-35.56,28.19-52.999,37.028
	c-2.034,1.029-4.084,2.02-6.093,2.947c-5.099,2.353-7.325,8.391-4.973,13.491c1.716,3.719,5.394,5.911,9.238,5.911
	c1.425,0,2.873-0.302,4.253-0.938c2.231-1.029,4.505-2.129,6.761-3.272C230.968,403.969,250.25,390.525,269.28,373.637z"/>
<path d="M173.776,407.263c-5.454,1.281-8.846,6.735-7.579,12.197c1.091,4.696,5.271,7.869,9.894,7.869
	c0.761,0,1.535-0.085,2.308-0.265l0.355-0.086c5.434-1.371,8.701-6.873,7.344-12.31C184.742,409.234,179.213,405.93,173.776,407.263
	z"/>
<path d="M511.974,431.772c-0.272-3.767-2.61-7.072-6.07-8.584c-39.772-17.374-82.356-51.025-133.585-105.619
	c21.368-28.87,38.864-56.511,52.155-77.51c3.861-6.101,7.384-11.664,10.564-16.575c0.01-0.015,0.019-0.031,0.029-0.046
	c1.792-2.766,3.479-5.332,5.05-7.656c14.515-21.47,21.312-46.597,19.142-70.753c-1.192-13.266-5.075-25.603-11.282-36.452
	c13.742-9.414,28.192-17.812,36.252-21.627l0.358-0.179c9.763-5.103,12.449-18.382,6.685-33.044
	c-5.759-14.65-15.068-17.881-21.857-16.016l-0.651,0.178l-0.622,0.263c-16.42,6.948-41.332,19.87-60.756,34.633
	c-15.549-6.527-32.935-8.404-50.584-5.255c-24.754,4.42-46.955,18.203-62.514,38.812c-0.114,0.149-0.223,0.304-0.328,0.461
	c-1.683,2.507-3.367,5.054-5.051,7.596c-0.887,0.905-1.603,1.973-2.103,3.164c-12.289,18.642-24.591,38.093-36.708,57.457
	c-9.044-10.733-19.328-22.808-29.909-34.886c-0.654-1.108-1.504-2.07-2.498-2.847c-2.016-2.291-4.038-4.577-6.063-6.849
	c-0.126-0.141-0.254-0.278-0.387-0.412c-18.221-18.297-42.093-28.928-67.217-29.935c-14.672-0.589-28.704,2.141-41.275,7.86
	c-25.29-16.943-61.871-29.603-80.528-34.64l-0.867-0.193C13.952,71.797,4.756,76.495,1.149,93.62
	c-3.513,16.686,1.206,29.695,11.749,32.568c11.315,3.601,31.577,12.233,48.847,21.41c-6.383,13.018-9.402,27.754-8.674,43.224
	c1.14,24.226,11.296,48.193,28.6,67.487c1.876,2.091,3.899,4.406,6.054,6.907c0.007,0.008,0.014,0.017,0.022,0.025
	c3.819,4.431,8.064,9.461,12.72,14.977c12.651,14.992,28.107,33.3,46.064,52.7c-32.885,44.07-67.286,81.406-104.238,103.984
	c-3.223,1.968-5.087,5.562-4.845,9.33c0.243,3.769,2.556,7.092,6.004,8.63c29.765,13.278,59.385,19.907,88.758,19.906
	c43.443,0,86.34-14.515,128.352-43.459c38.116,23.941,75.912,38.133,112.43,42.192c2.371,0.264,4.772,0.489,7.139,0.669
	c0.262,0.02,0.524,0.03,0.783,0.03c5.264-0.001,9.72-4.06,10.127-9.395c0.426-5.6-3.767-10.483-9.365-10.909
	c-2.131-0.163-4.295-0.365-6.434-0.604c-31.306-3.48-63.894-15.247-97.04-35.016c0.352-0.278,0.703-0.568,1.054-0.848
	c0.945-0.752,1.89-1.511,2.833-2.278c0.845-0.686,1.69-1.378,2.534-2.076c0.288-0.238,0.575-0.468,0.863-0.707
	c0.27-0.226,0.535-0.458,0.805-0.684c1.584-1.324,3.166-2.67,4.746-4.035c0.188-0.163,0.376-0.324,0.564-0.487
	c22.908-19.867,45.465-44.047,68.253-73.17c44.839,47.467,83.659,79.535,120.19,99.186c-12.711,6.519-25.608,11.565-38.512,15.06
	c-5.42,1.468-8.623,7.052-7.155,12.471c1.469,5.421,7.056,8.625,12.471,7.155c20.415-5.53,40.721-14.522,60.354-26.726
	C510.408,439.146,512.246,435.538,511.974,431.772z M471.379,58.923c1.59,3.077,2.849,7.937,2.55,10.421
	c-9.293,4.578-24.038,13.216-38.114,22.911c-0.902-0.939-1.835-1.85-2.782-2.747c-0.246-0.233-0.496-0.464-0.745-0.693
	c-0.819-0.758-1.654-1.502-2.505-2.227c-0.189-0.162-0.373-0.327-0.564-0.487c-0.865-0.726-1.744-1.439-2.64-2.131
	C441.353,73.742,458.359,64.776,471.379,58.923z M360.376,87.547c15.544-2.776,30.757-0.562,43.863,6.211
	c0.557,0.287,1.105,0.591,1.654,0.894c0.393,0.219,0.787,0.437,1.176,0.664c0.47,0.272,0.935,0.551,1.397,0.835
	c0.504,0.311,1.004,0.63,1.501,0.956c0.359,0.234,0.72,0.465,1.074,0.706c0.845,0.576,1.682,1.168,2.502,1.787
	c0.015,0.012,0.033,0.022,0.048,0.035c0.016,0.012,0.032,0.025,0.048,0.038c0.817,0.619,1.609,1.259,2.389,1.909
	c0.197,0.165,0.394,0.328,0.589,0.495c0.751,0.642,1.486,1.296,2.201,1.967c0.177,0.167,0.349,0.338,0.525,0.506
	c0.578,0.555,1.144,1.12,1.698,1.694c0.198,0.205,0.4,0.408,0.595,0.615c0.624,0.664,1.229,1.341,1.821,2.027
	c0.25,0.29,0.494,0.585,0.738,0.879c0.379,0.457,0.749,0.92,1.115,1.387c0.232,0.296,0.468,0.589,0.693,0.889l0.171,0.226
	c17.226,23.012,17.937,56.673,0.783,86.229c-3.173-3.96-6.824-7.528-10.892-10.601c-13.533-10.218-30.41-14.348-47.526-11.638
	c-4.492,0.712-8.851,1.874-13.028,3.452c1.825-21.191-6.665-42.566-24.467-56.008c-5.265-3.976-11.089-7.035-17.27-9.131
	C325.972,100.304,342.335,90.767,360.376,87.547z M72.91,130.508c-18.092-9.754-39.337-18.892-52.339-23.206
	c-0.625-3.058,0.079-9.134,1.375-12.944c19.081,5.587,43.272,14.991,61.625,25.61c-0.004,0.003-0.007,0.006-0.011,0.009
	c-0.963,0.799-1.911,1.62-2.843,2.464c-0.089,0.081-0.178,0.164-0.266,0.245c-0.902,0.826-1.793,1.666-2.665,2.534h-0.001
	c-0.773,0.769-1.521,1.555-2.259,2.349c-0.136,0.147-0.273,0.294-0.41,0.441c-0.726,0.792-1.437,1.595-2.129,2.41
	C72.962,130.451,72.935,130.479,72.91,130.508z M84.675,148.579c0.325-0.471,0.652-0.941,0.99-1.404
	c0.339-0.463,0.69-0.917,1.042-1.371c0.318-0.411,0.632-0.825,0.961-1.228c0.432-0.53,0.882-1.048,1.334-1.567
	c0.273-0.314,0.538-0.635,0.817-0.944c0.747-0.827,1.516-1.64,2.314-2.435c0.728-0.725,1.476-1.422,2.234-2.11
	c0.207-0.188,0.416-0.375,0.626-0.56c0.669-0.592,1.349-1.169,2.039-1.73c0.291-0.236,0.588-0.466,0.882-0.696
	c0.51-0.401,1.027-0.793,1.547-1.177c0.407-0.299,0.815-0.596,1.229-0.884c0.315-0.222,0.635-0.433,0.955-0.649
	c0.95-0.639,1.913-1.259,2.896-1.848c0.105-0.063,0.208-0.127,0.313-0.189c0.63-0.373,1.267-0.737,1.911-1.09l0.334-0.183
	c10.705-5.797,23.055-8.639,36.107-8.103c18.31,0.734,35.819,7.953,49.849,20.423c-5.838,2.917-11.189,6.74-15.865,11.396
	c-12.015,11.966-18.475,28.097-18.189,45.423c0.074,4.546,0.613,9.026,1.589,13.383c-14.001-3.231-28.744-1.804-41.711,4.313
	c-6.743-9.748-10.565-21.52-9.972-31.531c0.332-5.605-3.943-10.418-9.547-10.749c-5.604-0.334-10.418,3.942-10.75,9.548
	c-0.863,14.569,4.241,30.846,13.574,44.326c-0.159,0.155-0.321,0.304-0.479,0.462c-3.613,3.598-6.744,7.631-9.348,11.986
	C69.829,210.509,66.999,174.166,84.675,148.579z M116.006,267.104c-3.296-3.905-6.38-7.558-9.277-10.958
	c2.084-5.384,5.246-10.278,9.323-14.338c16.84-16.769,44.82-16.074,62.372,1.551c3.963,3.978,10.4,3.992,14.379,0.029
	c1.995-1.987,2.993-4.596,2.992-7.206c0-2.595-0.987-5.189-2.963-7.173c-8.51-8.545-13.304-19.802-13.5-31.697
	c-0.193-11.754,4.142-22.648,12.207-30.681c4.544-4.526,10.059-7.879,16.158-9.895c11.162,12.802,21.915,25.498,31.081,36.412
	l-0.843,1.351c-0.362,0.581-0.727,1.165-1.088,1.746c-0.154,0.247-0.308,0.494-0.463,0.741
	c-17.09,27.419-34.542,55.399-52.31,82.221c-0.283,0.426-0.565,0.853-0.848,1.279c-1.323,1.994-2.648,3.979-3.975,5.96
	c-0.55,0.82-1.101,1.639-1.653,2.457c-0.759,1.127-1.519,2.251-2.278,3.373c-1.32,1.949-2.641,3.891-3.966,5.823
	c-0.278,0.405-0.554,0.81-0.832,1.214c-3.908,5.692-7.835,11.313-11.783,16.851C142.231,298.179,127.875,281.167,116.006,267.104z
	 M69.278,443.267c35.041-25.576,67.474-62.553,98.391-104.749c0.092-0.115,0.192-0.222,0.279-0.341
	c7.904-10.805,15.735-22.002,23.498-33.447c1.018-1.501,2.035-3.005,3.051-4.513c0.679-1.01,1.358-2.021,2.036-3.034
	c1.287-1.922,2.572-3.848,3.855-5.781c0.401-0.604,0.801-1.208,1.201-1.813c1.536-2.32,3.069-4.648,4.599-6.983
	c0.142-0.217,0.284-0.434,0.426-0.651c15.784-24.106,31.272-48.934,46.627-73.571c0.299-0.48,0.6-0.962,0.899-1.442l5.595-8.974
	c13.723-22.002,27.737-44.351,41.707-65.655c6.315,1.167,12.23,3.747,17.347,7.611c18.966,14.321,22.202,42.121,7.214,61.973
	c-1.385,1.834-2.054,3.984-2.054,6.118c0,3.079,1.394,6.123,4.041,8.121c4.48,3.383,10.856,2.495,14.239-1.988
	c7.266-9.625,17.74-15.95,29.489-17.813c11.609-1.843,23.006,0.922,32.091,7.781c4.591,3.467,8.39,7.884,11.188,12.934
	c-2.409,3.767-4.969,7.809-7.705,12.131c-27.676,43.727-73.998,116.913-134.82,167.561c-2.029,1.69-4.06,3.341-6.093,4.956
	c-0.425,0.338-0.85,0.668-1.275,1.001c-0.59,0.464-1.179,0.93-1.77,1.388c-0.408,0.316-0.815,0.625-1.223,0.938
	c-0.646,0.496-1.292,0.994-1.939,1.482c-0.19,0.143-0.38,0.284-0.57,0.427C197.601,453.57,133.717,465.76,69.278,443.267z"/>
<path d="M408.813,453.899l-0.191,0.015c-5.601,0.405-9.813,5.271-9.408,10.872c0.386,5.352,4.847,9.435,10.13,9.435
	c0.246,0,0.493-0.008,0.742-0.026l0.39-0.029c5.596-0.46,9.76-5.368,9.301-10.964C419.318,457.605,414.401,453.451,408.813,453.899z
	"/>
<path d="M110.004,167.863c2.614,0,5.226-1,7.21-2.994c3.938-3.889,4.043-10.232,0.207-14.251c-3.877-4.06-10.313-4.211-14.373-0.333
	c-0.085,0.081-0.234,0.229-0.316,0.313c-3.923,4.015-3.846,10.445,0.168,14.37C104.876,166.899,107.441,167.863,110.004,167.863z"/>
<g>
</g>
<g>
</g>
<g>
</g>
<g>
</g>
<g>
</g>
<g>
</g>
<g>
</g>
<g>
</g>
<g>
</g>
<g>
</g>
<g>
</g>
<g>
</g>
<g>
</g>
<g>
</g>
<g>
</g>
</svg>
